<svg width="1440" height="1153" viewBox="0 0 1440 1153" fill="none" xmlns="http://www.w3.org/2000/svg">
<g clip-path="url(#clip0_730_97)">
<rect y="190" width="1440" height="963" fill="#F1D8C2"/>
<g clip-path="url(#clip1_730_97)">
<path d="M-9.3491 241.338C-7.38377 246.839 -3.84178 251.359 -0.185407 255.787C5.36782 262.498 12.155 266.744 21.3418 265.785C21.5932 265.762 21.8672 266.082 22.2329 266.31C20.8389 269.072 19.445 271.857 18.0053 274.619C17.3882 275.783 17.1369 276.947 17.2055 278.248C17.8454 291.487 24.4038 302.056 32.5165 311.826C36.1272 316.163 36.2872 316.003 34.8704 321.892C34.619 322.942 34.4818 324.106 34.5962 325.179C34.8932 328.101 33.5449 329.174 30.7798 329.973C21.1361 332.689 14.2804 342.07 14.2118 352.068C12.955 353.255 12.9092 354.465 13.3434 356.246C14.5546 361.245 17.3425 365.582 18.8965 370.421C20.359 374.393 22.9414 377.588 25.7522 380.647C30.1171 384.39 32.8593 390.554 39.9435 390.348C43.3713 392.06 47.1421 392.768 50.8213 393.247C68.4863 395.553 86.1284 398.383 103.976 398.817C110.055 398.954 114.877 399.73 115.471 407.422C115.654 410.024 117.87 412.49 119.242 414.978C122.624 421.118 127.72 425.934 131.948 431.436C136.221 437.005 141.843 438.192 148.241 437.964C148.836 437.964 149.475 437.553 150.024 437.644C162.981 439.904 176.144 439.105 189.17 440.52C195.089 441.16 201.168 440.909 207.018 441.434C217.119 442.324 227.174 442.552 237.275 442.757C242.691 442.872 248.038 442.666 253.431 442.324C262.321 441.753 271.165 441.707 280.077 443.077C285.31 443.876 290.795 442.986 296.165 442.78C346.281 440.863 396.259 444.88 446.329 445.702C451.813 445.793 457.504 445.04 462.714 445.885C472.701 447.505 482.71 447.231 492.605 447.072C505.242 446.889 517.72 448.053 530.243 448.852C551.359 450.199 572.474 451.82 593.659 451.82C601.817 451.82 610.227 450.61 618.065 452.23C627.503 454.171 636.85 453.691 646.219 454.011C661.05 454.513 675.905 454.011 690.759 454.262C713.177 454.604 735.618 455.335 758.036 455.677C775.564 455.951 793.115 455.677 810.666 456.02C850.017 456.727 889.369 457.64 928.721 458.485C937.497 458.667 946.249 458.736 955.024 458.941C961.492 459.078 967.982 458.234 974.495 458.645C988.663 459.558 1002.85 460.882 1017.05 460.927C1036.13 460.904 1055.14 462.023 1074.2 462C1107.06 461.954 1139.9 461.749 1172.76 461.27C1178.89 461.178 1185.13 460.357 1191.09 460.653C1199.75 461.087 1208.39 460.996 1216.98 460.471C1224.11 460.014 1231.58 460.379 1238.12 456.316C1240.59 454.787 1243.4 454.582 1246.32 454.536C1257.36 454.353 1268.4 454.102 1279.42 453.486C1285.15 453.166 1290.84 452.641 1295.57 448.122C1297.86 445.93 1301.24 443.785 1304.83 443.967C1314.79 444.492 1323.95 440.612 1333.51 438.968C1339.84 437.873 1345.71 434.997 1349.85 429.792C1352.18 426.87 1354.78 426.003 1358.42 426.071C1363.28 426.186 1368.17 425.09 1373 425.318C1380.65 425.661 1388.22 424.063 1395.89 424.702C1400.08 425.044 1404.44 423.835 1407.94 421.849C1410.11 420.616 1408.69 416.553 1409.13 413.768C1409.31 412.672 1409.31 411.577 1409.4 410.458C1410.11 399.798 1404.56 394.891 1393.93 396.42C1391.37 396.785 1388.35 396.877 1386.14 395.439C1384.42 394.32 1385.7 391.878 1385.72 390.074C1385.86 381.56 1380.22 375.625 1376.36 368.914C1376.01 368.321 1375.17 367.819 1374.48 367.682C1366.03 366.015 1357.59 363.915 1349.05 362.934C1340.13 361.93 1331.08 362.363 1322.13 362.934C1318.84 363.162 1315.93 362.295 1312.94 361.427C1311.61 361.039 1310.31 360.263 1310.43 359.008C1310.56 357.364 1312.28 357.227 1313.67 357.09C1322.61 356.269 1331.56 355.584 1340.48 354.625C1356.29 352.913 1372.13 351.11 1387.6 347.389C1392.31 346.271 1395.69 346.522 1398.07 351.041C1399.87 354.442 1403.6 354.237 1405.95 353.278C1409.03 352.023 1413.38 349.375 1413.81 346.773C1415.5 336.615 1414.93 326.731 1407.48 318.034C1400.99 310.456 1394.16 304.247 1383.87 302.923C1381.25 302.581 1378.21 303.494 1376.08 301.554C1373.38 299.111 1376.79 296.692 1376.7 294.09C1376.26 283.179 1375.83 272.359 1365.34 264.187C1375.74 263.251 1385.04 262.247 1394.34 261.676C1397.15 261.516 1400.33 259.143 1402.89 261.996C1405.88 265.351 1409.45 265.123 1413.26 264.278C1421.6 262.452 1422.2 261.243 1423.71 252.865C1424.32 249.464 1423.11 245.743 1425.24 242.616C1426.63 242.799 1427.77 242.228 1428.85 241.407C1431.2 241.315 1432.94 239.101 1435.45 239.558C1437.46 239.809 1439.34 239.306 1441.14 238.53C1445.74 237.594 1450.72 235.129 1454.85 236.111C1460.57 237.48 1461.55 233.417 1463.95 230.906C1465.66 229.126 1463.67 226.638 1464.06 224.698C1465.66 216.96 1465.23 209.244 1462.69 201.985C1460.96 197.009 1459.95 191.394 1454.88 187.879C1448.57 183.519 1441.85 182.811 1434.61 184.112C1427.52 185.391 1420.39 186.578 1413.35 188.084C1411.02 188.586 1410.52 188.084 1409.99 185.824C1408.23 178.269 1405.97 170.805 1404.14 163.249C1402.43 156.196 1398.77 155.831 1393.75 158.387C1389.34 160.624 1384.92 161.446 1380.29 162.062C1371.74 163.204 1363.28 165.258 1354.76 166.034C1346.26 166.81 1337.89 167.769 1329.8 170.348C1325.23 171.809 1321.87 171.216 1318.56 167.472C1311.16 159.118 1301.01 156.584 1290.43 155.283C1289.79 155.169 1289.15 155.032 1288.51 154.918C1288.12 154.758 1287.71 154.712 1287.3 154.735C1284.01 154.621 1280.12 157.588 1280.08 160.67C1280.08 161.902 1281.86 163.409 1279.83 164.322C1278.43 164.938 1277.66 163.455 1276.63 162.793C1275.99 162.382 1275.23 161.857 1274.52 161.88C1271.1 161.994 1271.03 160.236 1271.9 157.679C1272.93 154.621 1272.26 152.681 1268.47 153.251C1262.46 153.913 1256.47 152.27 1250.46 153.251C1245.27 153.388 1240.04 153.091 1234.92 153.799C1231.88 154.233 1228.23 153.32 1225.83 155.648C1222.99 158.387 1219.5 158.684 1216.62 157.634C1210.22 155.306 1204.76 156.515 1198.56 158.844C1190.04 162.062 1180.72 159.209 1171.71 160.282C1162.84 161.332 1153.84 161.058 1144.88 161.469C1129.98 162.153 1115.06 162.907 1100.16 163.66C1088.89 164.231 1077.61 164.824 1066.34 165.418C1059.25 165.532 1052.17 165.737 1045.09 165.783C1035.49 165.828 1025.89 165.714 1016.27 165.692C1012.48 166.582 1010.4 161.811 1006.58 162.77C1004.77 160.761 1002.47 160.464 999.975 160.83C997.462 160.784 994.948 160.761 992.434 160.715C987.452 160.715 982.47 160.715 977.466 160.693C977.031 160.556 976.62 160.464 976.186 160.441C971.844 159.688 967.525 160.282 963.183 160.693C962.726 160.647 962.269 160.601 961.835 160.556C961.469 160.441 961.08 160.419 960.669 160.441C950.705 159.506 940.719 160.122 930.732 159.916C921.843 159.437 912.999 160.145 904.178 160.83C902.487 160.601 900.658 159.848 899.105 160.236C890.283 162.405 881.622 159.232 872.87 159.802C866.905 159.802 860.964 159.802 854.999 159.802C845.995 158.113 845.538 158.433 844.51 166.901C844.327 168.453 844.51 170.143 842.293 170.462C838.408 171.01 834.546 171.74 830.639 172.129C829.884 172.197 828.97 172.243 828.125 172.151C827.508 171.992 826.914 171.809 826.297 171.558C826.068 171.398 825.862 171.193 825.748 170.942C822.892 164.87 817.27 165.395 812.128 164.619C806.461 162.222 801.159 164.231 799.216 169.755C798.714 171.17 797.937 172.129 796.931 173.064C795.057 173.064 793.161 173.064 791.287 173.064C784.202 170.736 776.89 172.927 769.737 171.992C771.017 167.244 769.554 165.326 764.481 165.212C763.635 165.212 762.79 165.281 762.538 164.39C762.424 163.957 762.835 163.249 763.201 162.815C764.252 161.514 766.355 160.51 765.326 158.524C764.161 156.333 761.876 156.766 759.819 157.132C745.33 156.949 730.842 156.333 716.376 156.812C710.252 157.018 704.127 156.652 697.98 156.926C687.719 157.406 677.413 157.132 667.106 157.177C663.93 156.766 660.731 156.652 657.554 157.177C654.629 156.744 652.527 157.36 652.801 160.966C652.915 162.473 652.504 163.774 651.292 164.687C648.619 166.764 648.436 169.298 649.807 172.151C649.487 172.425 649.167 172.722 648.847 172.996C646.653 172.608 644.528 174.799 642.289 173.224C640.757 171.969 639.386 170.645 638.107 169.047C635.593 165.851 633.033 161.628 627.732 165.121C627.206 165.463 626.018 165.463 625.515 165.121C621.241 162.108 615.917 165.897 611.666 162.907C611.415 162.724 610.684 162.975 610.341 163.249C608.467 164.824 606.913 164.368 604.811 163.295C601.383 161.56 596.538 163.865 596.972 167.198C597.658 172.517 594.55 171.215 591.785 171.215C590.551 171.215 589.294 171.352 588.037 171.444C581.433 171.581 574.851 170.942 568.292 170.257C566.83 167.449 564.933 163.409 562.008 164.116C557.689 165.144 553.164 165.212 549.073 166.696C547.177 167.381 545.783 168.705 543.566 167.723C542.446 167.244 541.144 167.426 539.932 168.065C533.237 171.581 528.186 170.622 523.273 164.915C522.61 164.139 521.833 163.728 520.828 163.774C519.777 163.706 518.657 163.477 517.994 164.664C513.241 165.349 508.465 165.395 503.666 165.463C501.175 165.509 498.41 165.212 495.987 166.445C489.154 166.924 482.253 167.015 475.488 167.951C467.902 169.001 460.863 165.92 453.527 165.737C442.215 165.463 430.972 164.162 419.569 164.345C403.755 164.619 387.895 161.4 372.173 165.577C371.761 165.691 371.19 165.577 370.801 165.372C367.191 163.409 363.077 164.025 359.261 163.112C353.091 161.606 346.761 163.98 340.545 161.879C329.461 158.113 323.245 163.569 319.703 171.147C318.789 173.11 317.669 173.361 315.818 173.681C311.248 174.502 306.38 172.905 302.198 174.16C293.88 176.648 285.425 176.009 277.061 176.99C276.329 176.808 274.935 176.557 274.935 176.443C275.507 170.234 270.593 172.174 267.531 171.421C263.692 171.626 259.967 170.782 256.219 170.257C254.46 169.344 252.517 169.481 250.643 169.435C245.936 169.321 241.205 169.709 236.543 169.23C229.573 168.499 222.603 167.655 215.588 167.381C209.577 166.216 203.567 165.235 197.42 165.577C194.815 163.751 191.798 164.961 189.033 164.459C181.606 162.039 173.608 164.55 166.158 161.925C165.609 161.743 164.764 162.427 164.055 162.701C163.141 162.747 162.227 162.793 161.313 162.838C151.921 162.656 142.46 162.701 133.867 157.976C130.142 156.492 126.257 157.017 122.418 157.109C120.499 156.744 119.516 159.528 116.865 158.045C112.752 155.762 109.598 157.748 108.25 162.541C107.953 163.637 107.153 165.372 106.467 163.934C104.388 159.665 98.4688 160.578 96.8234 156.15C94.6067 156.15 92.39 156.15 90.1734 156.15C88.8479 155.168 87.5452 155.009 85.8085 155.26C80.918 155.967 76.8504 158.866 72.1427 159.985C68.5548 161.309 66.9323 164.322 65.5154 167.54C63.9615 171.033 62.4304 174.525 60.8765 178.018C59.2539 178.52 59.414 180.323 58.4999 181.327C56.9459 183.017 55.5518 186.098 53.1294 185.276C45.9538 182.811 43.8513 188.107 40.6978 192.33C38.9381 194.681 38.2526 198.995 33.4535 197.26C32.4252 196.895 32.1967 198.424 31.6024 199.109C29.7515 201.255 30.4827 203.857 30.3683 206.322C26.4834 206.163 22.5757 206.026 18.6908 205.866C9.04702 205.432 0.865867 208.651 -5.82981 215.613C-8.57212 217.918 -10.0575 220.886 -10.3774 224.424C-12.457 226.364 -11.3601 228.783 -11.383 231.02C-12.617 234.832 -12.3199 238.348 -9.39488 241.384L-9.3491 241.338ZM514.543 166.422C514.406 166.559 514.315 166.673 514.178 166.81C514.109 166.65 513.995 166.536 513.858 166.422L514.52 166.422L514.543 166.422ZM180.326 166.696C180.326 166.696 180.326 166.673 180.303 166.65C180.326 166.65 180.349 166.65 180.372 166.627C180.372 166.65 180.349 166.673 180.326 166.696ZM22.1873 369.416C21.8217 369.188 21.5245 368.869 21.296 368.458C21.5702 368.777 21.8673 369.097 22.1873 369.416Z" fill="#F1D8C2"/>
</g>
<g opacity="0.8">
<path d="M918.257 643.568C922.176 634.481 932.219 634.435 938.85 629.473C942.722 626.574 955.547 630.207 948.629 617.728C947.537 615.768 951.122 615.654 952.432 616.422C959.591 620.604 966.325 617.567 973.393 615.986C986.516 613.052 999.604 608.778 1013.41 612.159C1015.51 612.674 1018.16 612.629 1019.39 610.257C1020.58 607.953 1018.93 605.879 1017.84 604C1010.67 591.693 999.696 587.613 985.516 591.83C982.482 592.736 979.46 593.996 976.357 594.294C971.462 594.752 966.463 595.291 961.671 593.4C965.176 588.977 970.278 591.361 974.599 590.524C984.114 588.691 992.491 581.804 1003.44 585.574C1008.34 587.258 1005.86 582.285 1004.81 580.635C997.536 569.176 987.044 562.896 973.381 562.232C968.853 562.014 964.314 562.174 959.787 562.025C958.04 561.968 955.317 562.22 955.144 560.306C954.972 558.393 957.592 558.473 959.281 558.278C988.343 554.76 1001.83 561.452 1015.51 587.419C1029.9 614.726 1054.15 624.133 1082.89 624.386C1101.54 624.546 1119.48 618.725 1137.5 614.313C1140.02 613.694 1142.92 612.823 1143.95 609.878C1146.11 603.679 1146.11 603.496 1150.88 605.157C1160.41 608.457 1169.7 609.535 1180.06 607.701C1191.07 605.765 1202.27 603.129 1213.73 604.218C1215.78 604.412 1218.74 605.123 1219.65 602.499C1220.49 600.092 1218.04 598.534 1216.5 597.01C1209.75 590.329 1202.88 583.763 1196.13 577.071C1194.91 575.868 1193.36 574.057 1194.85 572.476C1196.46 570.769 1198.07 572.476 1199.36 573.679C1205.95 579.844 1211.57 587.109 1219.56 591.693C1221.12 592.598 1223.13 595.394 1224.88 591.922C1225.81 590.066 1223.03 586.456 1225.64 586.101C1228.79 585.688 1229.11 589.55 1229.5 592.094C1230.68 599.817 1236.54 604.538 1240.92 610.199C1255.87 629.496 1272.81 646.88 1291.55 662.533C1292.24 663.117 1292.84 663.839 1293.6 664.32C1298.41 667.426 1304.11 673.946 1308.86 670.142C1313.88 666.12 1309.89 658.385 1307.66 652.701C1306.4 649.481 1303.8 646.559 1301.22 644.13C1292.96 636.314 1285.58 627.858 1279.55 618.186C1277.67 615.184 1275.2 612.113 1272.25 610.279C1259.96 602.648 1251.91 591.051 1243.23 580.108C1229.41 562.678 1211.59 552.365 1189.83 548.458C1188.5 548.217 1187.02 548.297 1185.83 547.747C1167.48 539.164 1148.88 537.113 1129.7 545.077C1127.73 545.891 1125.01 545.994 1122.99 545.341C1104.37 539.405 1085.81 543.828 1070.6 552.388C1056.89 560.1 1045.31 558.404 1031.6 557.396C1021.75 556.674 1013.87 554.13 1007.09 548.045C999.639 541.365 991.491 537.686 981.437 537.342C976.162 537.159 970.393 536.724 967.256 531.097C984.217 532.816 1001.49 533.114 1014.35 547.369C1017.39 550.75 1022.5 555.7 1027.88 548.561C1029.79 546.028 1032.84 547.724 1035.34 548.79C1039.08 550.371 1042.89 551.781 1046.62 553.397C1050.91 555.264 1054.54 554.795 1057.25 550.692C1060.08 546.384 1056.66 544.057 1054.17 541.594C1042.16 529.699 1028.8 520.578 1011.83 516.326C991.894 511.33 972.358 514.447 952.685 516.384C945.124 517.129 951.295 521.368 951.387 524.038C931.955 516.12 912.396 519.019 892.792 523.282C890.172 523.855 887.391 523.729 884.679 523.729C883.886 523.729 882.565 523.202 882.415 522.652C881.944 520.933 883.507 520.669 884.668 520.52C899.469 518.653 913.948 514.413 928.932 513.989C941.159 513.645 953.237 512.281 965.096 509.497C982.264 505.463 999.214 505.899 1016.11 510.723C1017.78 511.204 1020 512.407 1021 510.528C1021.97 508.718 1019.69 507.457 1018.59 506.094C1017.45 504.695 1016.16 503.401 1015.14 501.922C1014.32 500.754 1014.01 499.275 1015.62 498.519C1016.21 498.244 1017.42 498.691 1018.01 499.195C1020.09 500.937 1022.32 502.621 1023.97 504.741C1034.72 518.595 1050.1 526.754 1063.8 536.964C1068.2 540.242 1073.3 542.522 1079 539.531C1092.5 532.461 1107.15 533.779 1121.62 533.71C1127.03 533.687 1132.56 534.26 1137.74 532.071C1139.79 531.212 1142.3 530.513 1142.68 527.935C1143.09 525.253 1140.88 523.924 1138.87 522.961C1130.76 519.054 1123.75 510.207 1113.1 517.163C1112.12 517.816 1110.34 517.77 1109.93 516.086C1109.8 515.513 1110.74 514.562 1111.35 513.943C1118.24 506.896 1123.81 507.068 1132.9 512.453C1153.23 524.485 1174.92 533.252 1198.53 536.529C1201.01 536.873 1204.4 537.892 1205.9 535.096C1207.13 532.805 1204.04 531.372 1203.01 529.47C1198.21 520.612 1190 514.447 1184.48 506.151C1182.93 503.825 1180.31 502.621 1177.63 501.991C1160.51 497.935 1143.94 491.082 1125.89 491.575C1118.56 491.77 1111.47 491.013 1104.58 488.206C1089.47 482.052 1073.29 485.891 1057.7 483.691C1050.97 482.74 1044.34 481.732 1037.7 480.207C1015.62 475.108 993.48 470.628 970.91 477.824C967.923 478.775 964.567 479.749 961.579 479.337C956.592 478.649 950.927 479.909 946.848 475.544C950.996 472.874 955.65 474.512 960.051 474.031C962.2 473.79 965.578 474.799 966.107 472.633C966.934 469.253 963.05 468.748 960.81 467.717C953.386 464.302 945.848 461.208 937.344 461.667C933.736 461.861 930.013 461.804 926.669 460.143C924.968 459.295 921.486 459.627 922.359 456.579C922.877 454.768 925.462 455.823 927.232 456.029C942.952 457.805 958.764 459.043 972.887 467.339C976.116 469.241 980.012 468.989 983.539 468.084C986.424 467.35 990.595 467.465 991.273 463.867C991.779 461.151 988.274 459.719 986.47 457.793C983.988 455.146 980.667 453.004 979.023 449.933C972.749 438.267 962.338 433.89 950.054 432.583C942.963 431.827 937.229 429.272 932.575 423.508C922.739 411.304 910.075 405.815 894.217 409.173C892.919 409.448 891.517 409.459 890.184 409.333C888.322 409.161 886.38 408.416 886.185 406.434C885.909 403.707 888.483 404.199 890.046 404.016C900.56 402.755 910.811 403.603 920.82 407.396C926.749 409.642 928.576 407.133 926.393 401.518C919.222 383.149 917.751 362.729 905.283 346.205C901.066 340.613 897.894 337.164 890.034 338.355C880.703 339.765 871.051 339.123 861.536 339.238C860.318 339.249 858.077 338.573 858.019 338.058C857.766 335.491 860.053 335.834 861.582 335.88C869.327 336.121 876.877 335.342 884.53 333.806C892.034 332.305 891.103 330.139 886.909 325.59C884.725 323.218 879.485 319.987 882.381 317.294C885.162 314.704 888.471 319.929 890.344 322.45C896.688 331.01 904.881 333.703 915.223 332.981C928.358 332.064 941.493 332.786 954.374 336.041C956.018 336.453 958.167 337.37 959.132 335.319C960.005 333.462 958.144 332.122 957.098 330.678C953.018 325.051 947.537 322.656 940.619 323.161C938.895 323.287 935.873 323.39 935.85 321.694C935.804 318.76 939.068 319.757 940.987 319.116C948.56 316.583 954.466 319.322 958.776 325.349C969.359 340.166 986.366 341.449 1001.78 346.022C1004.68 346.881 1008.51 347.122 1010.59 344.177C1012.82 341.003 1010.06 338.218 1008.58 335.525C1003.99 327.206 998.915 319.139 994.801 310.602C988.32 297.114 979.54 286.148 965.418 280.063C960.718 278.035 957.362 274.253 954.122 270.46C952.915 269.039 952.203 266.702 954.719 266.335C967.383 264.467 961.108 257.878 958.442 252.195C957.787 250.797 954.857 249.788 957.109 248.058C958.017 247.359 960.499 248.241 962.028 248.929C967.497 251.37 968.336 256.354 968.061 261.488C967.635 269.2 971.405 274.712 977.392 278.459C985.711 283.661 991.986 290.479 996.789 298.879C997.846 300.724 998.857 303.738 1001.45 302.867C1004.48 301.847 1004.61 298.547 1003.96 295.865C1000.79 282.882 1002.73 269.738 1002.5 256.675C1002.48 255.518 1003.53 254.337 1004.09 253.169C1004.74 254.223 1006.03 255.312 1005.97 256.32C1005.15 269.624 1013.7 282.08 1011 295.017C1007.9 309.857 1013.97 321.614 1020.2 333.485C1024.16 341.025 1029.25 348.245 1035.03 354.513C1048.96 369.627 1060.84 385.911 1069.3 404.715C1072.36 411.499 1072.03 408.852 1072.36 403.626C1072.63 399.123 1075.47 402.435 1076.04 404.05C1077.86 409.15 1079.19 414.409 1080.76 419.6C1087.2 440.949 1101.11 456.521 1119.06 469.046C1125.91 473.825 1133.29 475.887 1141.66 477.148C1157.27 479.497 1172.57 483.863 1188.03 487.278C1193.36 488.447 1196.1 492.388 1199.5 496.147C1224.35 523.637 1246.04 553.866 1271.92 580.451C1284.15 593.022 1298.52 603.542 1308.49 618.312C1309.99 620.524 1312.38 622.85 1315.26 621.108C1317.67 619.642 1316.03 616.903 1315.4 614.886C1313.25 607.976 1310.89 601.135 1308.57 594.283C1302.15 575.341 1297.62 556.238 1298.8 535.887C1299.83 518.297 1298.8 500.593 1299.6 482.98C1299.92 475.876 1298.24 473.664 1291.11 471.178C1268.38 463.259 1245.34 467.877 1222.44 467.144C1217.49 466.984 1212.41 467.843 1207.67 465.78C1206.49 465.265 1204.7 464.107 1204.73 463.294C1204.79 460.75 1206.93 461.323 1208.62 461.563C1210.84 461.884 1213.04 462.515 1215.26 462.515C1216.47 462.515 1218.56 461.632 1218.71 460.865C1219.27 457.897 1216.46 459.34 1215.19 458.767C1213.99 458.217 1212.26 457.977 1212.32 456.499C1212.41 454.31 1214.44 453.634 1216.25 453.496C1220.46 453.175 1224.29 454.791 1227.94 456.556C1231.61 458.332 1235.04 460.509 1239.36 460.429C1245.68 460.326 1254.62 462.171 1257.01 456.728C1259.39 451.285 1250.32 448.832 1246.34 444.971C1232.37 431.449 1216.24 422.316 1197.08 417.881C1187.73 415.716 1179.33 410.25 1175.04 401.094C1164.79 379.173 1144.59 371.381 1123.8 364.345C1119.98 363.05 1115.77 362.901 1111.9 361.721C1107.85 360.483 1100.3 362.855 1105.06 352.702C1106.7 349.207 1098.98 341.484 1093.52 337.175C1081.69 327.813 1073.02 315.575 1063.7 303.944C1062.7 302.695 1060.69 301.045 1063.16 299.578C1063.91 299.131 1065.78 300.013 1066.83 300.724C1072.6 304.643 1075.39 311.14 1080.04 316.102C1091.49 328.306 1105.38 338.012 1115.66 351.373C1117.57 353.871 1120.09 356.552 1123.31 356.679C1135.05 357.148 1145.04 362.557 1155.29 367.278C1156.46 367.817 1157.97 368.974 1158.76 367.473C1159.2 366.636 1158.36 364.918 1157.75 363.783C1152.81 354.627 1147.82 345.483 1144.84 335.445C1144.21 333.302 1143.12 330.139 1145.25 329.257C1148.28 327.996 1147.8 331.778 1148.76 333.405C1150.58 336.453 1150.46 342.618 1153.55 342.355C1157.44 342.022 1157.46 336.018 1158.85 332.443C1160.13 329.154 1160.02 325.361 1160.7 321.82C1160.99 320.353 1160 317.488 1162.97 318.13C1164.74 318.508 1165.22 320.892 1165.17 322.656C1164.97 329.521 1163.08 336.144 1160.63 342.401C1157.97 349.196 1159.36 354.765 1163.52 360.093C1171.61 370.475 1178.46 381.533 1184.03 393.519C1187.66 401.323 1194.6 405.746 1203.6 406.067C1209.18 406.262 1212.99 403.993 1211.08 398.046C1203.4 374.131 1205.7 349.459 1206.92 325.292C1208.14 301.125 1195.75 287.133 1176.49 278.986C1157.37 270.896 1141.86 259.872 1130.07 243.027C1125.85 237 1119.52 233.276 1112.78 230.239C1100.31 224.624 1092.62 213.795 1084.46 203.585C1083.23 202.05 1080.95 199.322 1083.36 197.775C1085.69 196.286 1086.71 199.643 1088.15 201.121C1093.8 206.977 1099.33 212.982 1105.23 218.585C1108.11 221.312 1112.74 225.403 1115.64 222.985C1119.14 220.075 1114.97 215.526 1112.68 212.512C1102.2 198.669 1096.61 182.214 1087.98 167.409C1084.04 160.648 1086.63 155.056 1089.56 149.177C1090.14 148.009 1090.48 146.542 1092.11 147.207C1092.67 147.436 1092.98 148.753 1093.08 149.601C1096.13 178.226 1112.2 200.377 1129.16 222.149C1131.9 225.678 1133.86 229.849 1135.98 233.837C1142.06 245.228 1150.04 254.888 1161.18 261.694C1162.54 262.519 1164.22 264.685 1165.69 262.875C1166.84 261.465 1165.39 259.357 1164.13 258.165C1156.94 251.438 1156.98 239.727 1147.14 234.582C1143.36 232.6 1144 227.432 1143.8 223.352C1143.41 215.778 1145.22 207.905 1140.76 200.835C1140.07 199.735 1139.74 197.867 1141.35 197.443C1142.22 197.214 1143.98 198.325 1144.59 199.299C1149.16 206.542 1148.37 214.918 1148.99 222.917C1149.23 226.034 1147.8 230.319 1150.82 231.648C1159.9 235.636 1161.16 244.735 1165.28 251.874C1172.87 265.098 1185.57 272.156 1197.82 279.88C1203.63 283.547 1205.33 281.461 1206.45 275.296C1210.76 251.427 1204.36 230.033 1189.69 211.778C1180.7 200.571 1174.53 188.505 1169.55 175.43C1167.21 169.265 1161.71 164.395 1161.94 157.164C1169.81 159.491 1169.89 168.051 1174.59 172.967C1178.27 176.805 1180.01 186.935 1182.14 185.766C1187.37 182.902 1183.85 175.339 1184.65 169.758C1184.96 167.604 1184.28 164.028 1186.61 163.994C1188.89 163.971 1188.42 167.523 1188.57 169.689C1188.66 171.041 1188.87 172.462 1188.57 173.746C1184.02 193.375 1195.45 207.138 1206.05 221.198C1207.09 222.584 1208.22 224.59 1210.23 223.937C1212.21 223.295 1211.67 220.98 1212.02 219.319C1212.78 215.789 1213.53 212.26 1214.44 208.765C1215.03 206.484 1213.54 202.164 1217 202.554C1219.4 202.829 1218.97 207.447 1218.41 209.865C1213.9 229.208 1217.97 248.608 1219.09 267.722C1221.12 302.5 1219.97 337.29 1221.73 371.999C1222.7 391.033 1228.72 409.344 1244.35 422.591C1246.38 424.322 1248.76 426.636 1251.41 424.734C1253.43 423.302 1252.32 420.506 1251.64 418.386C1249.52 411.716 1249.2 405.082 1251.61 398.447C1252.21 396.808 1252.69 394.104 1254.48 394.299C1256.64 394.528 1256.01 397.026 1255.8 398.768C1253.21 420.93 1263.42 436.777 1280.81 449.062C1285.54 452.408 1290.89 452.878 1296.43 452.259C1301.23 451.732 1303.77 449.428 1303.16 444.169C1301.17 427.221 1303.07 409.906 1296.21 393.405C1291.47 382.015 1286.88 371.197 1277.63 362.374C1268.72 353.871 1263.77 342.343 1258.36 331.388C1255.07 324.731 1251.66 318.623 1243.37 317.053C1238.87 316.205 1236.52 312.859 1236.52 308.184C1236.52 305.984 1235.74 302.477 1237.88 302.065C1240.7 301.514 1240.14 305.067 1240.59 306.992C1241.28 309.914 1243 312.229 1245.73 312.79C1254.86 314.67 1259.3 321.087 1262.6 328.913C1263.08 330.059 1264.4 331.778 1265.16 331.698C1267.34 331.457 1267.11 329.085 1267.34 327.561C1269.5 312.848 1272.57 298.214 1271.82 283.203C1271.74 281.484 1271.56 278.539 1273.32 278.482C1276.42 278.379 1275.6 281.587 1275.6 283.478C1275.67 298.856 1275.63 314.234 1275.51 329.612C1275.45 337.473 1277.32 344.83 1280.79 351.831C1281.6 353.481 1282.82 355.109 1284.82 354.879C1286.9 354.639 1287.46 352.668 1287.87 350.869C1288.16 349.551 1288.53 348.222 1288.64 346.87C1290.26 324.559 1296.83 302.42 1290.51 279.857C1287.22 268.123 1288.31 255.529 1283.65 244.024C1282.99 242.42 1282.41 239.693 1284.33 239.211C1287.15 238.512 1287.64 241.664 1288.13 243.566C1290.39 252.309 1292.54 261.098 1294.43 269.933C1296.39 279.146 1293.47 290.342 1306.07 294.926C1308.48 295.808 1306.16 298.971 1304.79 300.506C1298.63 307.427 1297.36 315.724 1297.47 324.536C1297.59 333.119 1297.2 341.575 1295.43 350.124C1292.75 363.073 1300.67 373.5 1305.63 384.524C1306.1 385.578 1307.46 386.896 1308.46 386.93C1310.54 387.011 1311.47 384.982 1311.76 383.309C1318.91 342.538 1330.99 302.34 1326.37 260.159C1325.82 255.128 1325.29 249.926 1322.49 245.892C1308.33 225.529 1304.6 201.649 1299.49 178.341C1297.9 171.053 1295.36 167.902 1288.13 168.578C1274.03 169.896 1261.44 165.701 1249.21 158.986C1239.22 153.509 1228.02 151.274 1216.78 149.556C1214.78 149.246 1211.25 149.945 1211.57 147.252C1211.84 145.052 1215.46 145.602 1217.61 145.717C1228.54 146.347 1239 149.246 1249.39 152.489C1251.05 153.005 1252.91 154.586 1254.36 153.108C1256.18 151.24 1255.45 148.57 1253.9 146.989C1244.61 137.558 1240.13 122.993 1224.9 119.854C1223.41 119.544 1220.99 119.659 1221.61 117.138C1221.77 116.473 1224.15 115.648 1225.12 115.992C1235.66 119.716 1236.53 113.78 1234.84 106.091C1233.87 101.622 1237.41 99.6742 1238.74 96.523C1242.67 87.1609 1251.59 79.6209 1249.28 67.9555C1249.02 66.6721 1248.86 64.873 1250.51 64.7813C1251.33 64.7355 1252.7 66.3627 1253.07 67.4742C1254.36 71.4391 1254.25 75.5529 1252.87 79.4719C1251.98 82.0158 1250.9 84.6285 1249.3 86.7599C1237.27 102.78 1240.58 117.676 1251.86 132.482C1256.77 138.922 1261.79 145.293 1265.48 152.695C1269.59 160.969 1287.44 165.358 1295.51 160.957C1298.37 159.399 1298.59 156.775 1299 154.093C1301.74 136.206 1305.77 118.673 1312.12 101.645C1316.44 90.083 1314.09 77.3634 1317.51 65.5606C1318.39 62.5354 1319.01 59.43 1320.09 56.485C1320.44 55.5109 1322.16 54.1473 1322.79 54.3536C1324.35 54.8578 1323.91 56.5881 1323.6 57.883C1319.27 75.4268 1321.1 93.9905 1314.77 111.168C1309.88 124.449 1308.78 138.475 1306.1 152.18C1304.63 159.708 1306.83 165.564 1314.21 168.864C1315.04 169.231 1315.77 169.815 1316.61 170.148C1322.68 172.52 1326.88 177.287 1331.39 181.641C1331.6 175.19 1326.51 170.285 1326.34 163.879C1326.04 153.005 1326.42 142.382 1329.57 131.702C1334.92 113.586 1341.69 95.9844 1343.77 76.7561C1345.62 59.6018 1344.47 43.582 1338.97 27.4477C1336.35 19.7815 1334.88 11.7258 1332.88 3.85341C1332.54 2.52416 1332.08 0.736539 1333.39 0.209422C1335.66 -0.707305 1336.43 1.59597 1336.85 3.05127C1344.14 28.0435 1354 52.5201 1352.35 79.3229C1352.29 80.5261 1352.96 81.7637 1353.3 82.9898C1354.48 82.4512 1355.76 82.0731 1356.81 81.3626C1360.39 78.9562 1364.27 71.9089 1367.14 74.8883C1370.57 78.4406 1363.31 81.4887 1360.78 84.7431C1345.9 103.903 1339.11 126.133 1335.75 149.647C1334.77 156.5 1336.43 163.158 1339.3 169.449C1342.89 177.287 1344.58 185.663 1346.93 193.879C1350.6 206.622 1358.85 216.935 1371.28 223.02C1373.76 224.234 1376.65 224.739 1378.84 222.412C1380.64 220.499 1379.82 218.196 1378.88 216.087C1374.96 207.344 1372.4 198.383 1372.03 188.654C1371.72 180.426 1365.12 177.768 1358.33 175.648C1356.77 175.155 1354.18 173.093 1354.38 172.577C1355.48 169.483 1357.88 171.454 1359.8 171.844C1364.28 172.749 1369.04 173.666 1371.9 177.436C1376.31 183.245 1378.47 184.483 1378.7 175.533C1378.77 172.886 1381.08 173.219 1382.09 175.316C1382.84 176.851 1383.46 178.948 1383.01 180.472C1377.6 198.83 1386.92 212.775 1396.59 226.675C1402.78 235.579 1408.79 244.597 1415.07 253.432C1416.26 255.082 1417.96 257.706 1420.48 256.102C1421.48 255.46 1421.44 252.825 1421.45 251.083C1421.53 241.584 1421.76 232.072 1421.39 222.584C1420.89 209.395 1421.29 196.079 1424.99 183.578C1431.36 162.035 1422.48 145.82 1409.4 130.419C1406.77 127.314 1403.79 124.495 1401.34 121.263C1396.94 115.453 1397.19 115.832 1404.1 113.735C1409.42 112.119 1413.14 107.913 1415.05 102.596C1418.34 93.452 1420.07 84.067 1419.19 74.2695C1419.02 72.3443 1417.97 69.2733 1421.04 68.9181C1422.99 68.6889 1423.18 71.4849 1423.6 73.135C1426.77 85.465 1426.15 97.2564 1418.73 108.2C1410.48 120.346 1410.11 120.77 1418.8 131.634C1422.81 136.641 1424.8 146.473 1432.06 145.19C1437.54 144.227 1437.83 134.796 1440.31 129.124C1443.4 122.065 1446.54 115.052 1450.57 108.486C1454.7 101.771 1457 94.6552 1457 86.6682C1457 82.669 1457.55 78.4635 1458.87 74.6935C1464.69 58.0319 1468.49 40.8319 1472.86 23.7808C1473.62 20.8128 1474.01 15.4156 1476.96 16.3209C1481.62 17.7418 1477.68 22.3484 1477.21 25.3621C1474.59 42.333 1470.45 58.9716 1464.9 75.2435C1464.18 77.352 1463.25 79.999 1465.79 81.1793C1468.3 82.3366 1469.88 79.8615 1471.18 78.1083C1472.23 76.6873 1472.63 74.7851 1473.66 73.3413C1475.42 70.8547 1474.4 64.7011 1478.69 66.3512C1481.44 67.4055 1479.66 73.284 1477.74 76.206C1470.59 87.0922 1463.99 98.1273 1458.24 109.942C1444.76 137.592 1435.32 166.572 1434.85 196.916C1434.41 225.598 1433.4 254.956 1443.32 282.894C1443.92 284.589 1444.48 286.297 1445.06 287.993C1445.71 286.48 1446.46 284.991 1447.01 283.444C1449.9 275.319 1451.82 267.011 1452.23 258.36C1452.3 256.79 1453.29 254.567 1455.47 255.014C1456.93 255.311 1456.06 257.237 1456.27 258.451C1457.97 268.707 1453.75 278.138 1451.43 287.603C1448.47 299.681 1451.84 309.857 1456.78 320.204C1459.82 326.587 1463.51 328.317 1469.03 322.519C1475.9 315.3 1483.34 308.619 1489.96 301.194C1497.05 293.23 1501.43 284.12 1500.56 272.81C1499.86 263.814 1500 254.704 1500.5 245.674C1501.59 226.435 1498.73 208.352 1490.76 190.384C1483.84 174.766 1486.1 156.649 1481.62 140.079C1481.08 138.097 1481.69 135.392 1482.69 133.501C1484.01 130.992 1482.61 125.893 1486.47 126.305C1488.85 126.557 1487.34 130.969 1486.91 133.559C1486.61 135.323 1485.94 137.237 1486.33 138.876C1487.03 141.775 1486.85 145.889 1490.69 146.485C1493.76 146.954 1494.93 143.631 1496.24 141.339C1502.6 130.27 1500.51 117.562 1502.82 105.702C1505.4 92.5123 1507.57 78.9906 1503.34 65.5262C1502.85 63.9334 1502.88 60.9655 1504.51 60.6675C1507.91 60.0602 1506.82 63.4521 1507.24 65.2168C1513.15 90.4153 1508.41 115.511 1506.19 140.618C1506.01 142.692 1504.45 144.8 1503.14 146.611C1493.35 160.052 1495.77 173.723 1501.77 187.749C1505.47 196.412 1511.13 204.215 1512.83 213.784C1513.75 218.929 1516.11 216.523 1517.88 214.105C1528.01 200.193 1536 184.941 1544.87 170.239C1547.97 165.094 1546.32 159.731 1544.63 154.494C1540.02 140.205 1537.39 125.709 1538.4 110.537C1538.94 102.424 1540.89 95.2854 1547.12 89.9799C1557.65 81.0303 1563.3 69.5712 1565.67 56.2443C1565.97 54.5484 1565.94 51.8555 1567.89 52.0274C1569.77 52.1878 1569.28 54.938 1569.65 56.6569C1570.48 60.6102 1565.98 65.8585 1569.7 68.0816C1574.57 70.9807 1578.55 65.2397 1582.96 63.326C1588.2 61.0571 1590.79 54.239 1597.67 54.8234C1596.86 62.2833 1589.9 63.9792 1585.12 67.0961C1573.36 74.7622 1560.99 81.4543 1551.65 92.3175C1548.98 95.4115 1545.56 98.1158 1545.54 102.539C1545.48 117.367 1542.94 132.447 1549.6 146.645C1550.86 149.304 1550.11 153.727 1554.29 153.967C1557.38 154.139 1558.14 150.541 1559.73 148.444C1562.18 145.201 1564.38 141.775 1566.94 138.635C1568.04 137.294 1570.14 135.931 1571.63 137.031C1573.7 138.543 1571.56 140.079 1570.62 141.431C1562.11 153.692 1557.43 168.119 1548.26 180.106C1542.73 187.325 1543.49 188.001 1552.79 189.055C1555.28 189.342 1559.62 188.196 1559.57 191.095C1559.51 193.891 1555.04 192.688 1552.5 193.169C1543.88 194.83 1537.71 199.609 1533.76 207.378C1531.7 211.412 1530.14 215.881 1527.31 219.284C1517.14 231.5 1514.37 245.342 1515.04 260.938C1515.8 278.963 1511.46 295.785 1498.51 309.662C1489.57 319.242 1481.76 329.864 1472.74 339.364C1463.72 348.875 1459.97 361.102 1454.01 372.194C1453.15 373.798 1452.59 375.872 1454.43 377.053C1455.23 377.568 1457.13 377.19 1458.05 376.537C1468.39 369.157 1480.94 365.949 1491.23 358.122C1498.86 352.313 1502.36 345.655 1503.19 336.602C1503.89 328.959 1504.83 321.178 1511.99 316.262C1513.04 315.54 1515.03 314.75 1515.72 315.231C1518.26 316.996 1515.54 317.981 1514.7 319.23C1504.57 334.402 1507.86 341.736 1525.23 343.741C1528.83 344.154 1535.67 341.037 1535.29 344.658C1534.8 349.15 1527.35 348.474 1523.43 347.271C1515.12 344.738 1510.15 347.878 1504.5 353.607C1497.62 360.598 1490.04 367.278 1480.38 370.716C1456.08 379.356 1446.2 400.166 1437.2 421.72C1434.4 428.389 1431.9 435.242 1428.38 441.522C1424.45 448.523 1425.83 454.287 1432.22 457.69C1451.13 467.797 1462.53 484.218 1472.51 502.266C1477.62 511.514 1488.93 513.508 1496.93 506.77C1505.45 499.596 1511.31 490.372 1513.51 479.405C1515.46 469.619 1511.74 462.114 1503.44 456.075C1491.71 447.515 1489.49 433.58 1497.24 422.832C1498.31 421.354 1499.67 419.245 1501.39 419.978C1503.51 420.884 1502.27 423.176 1501.42 424.608C1499.26 428.263 1498.71 432.194 1498.67 436.331C1498.62 443.046 1500.18 448.775 1506.63 452.385C1511.87 455.318 1515.72 459.65 1518.67 464.955C1522.11 471.155 1524.43 477.068 1520.48 484.035C1518.49 487.576 1516.68 492.812 1519.23 495.608C1522.82 499.527 1526.23 494.027 1529.6 492.618C1542.96 487.026 1556.05 480.746 1569.45 475.246C1581.88 470.135 1589.32 461.644 1590.93 448.111C1593.43 427.095 1596.27 406.147 1593.82 384.868C1592.37 372.274 1592.52 359.601 1594.74 347.007C1596.25 338.459 1596.71 329.818 1593.13 321.625C1586.3 305.938 1584.96 289.356 1584.86 272.603C1584.79 261.923 1582.41 252.149 1576.37 243.142C1568.9 232.015 1569.99 218.15 1578.52 208.031C1579.33 207.069 1580.16 205.774 1581.6 206.645C1582.09 206.943 1582.26 208.249 1582.12 209.005C1581.88 210.323 1581.54 211.756 1580.78 212.833C1570.21 227.924 1579.85 238.936 1588.21 250.27C1591.05 254.12 1592.77 251.759 1594.11 249.25C1600.71 236.92 1606.51 224.189 1613.21 211.882C1617.18 204.582 1611.67 195.3 1610.47 186.901C1610.16 184.712 1608.87 182.684 1608.13 180.552C1606.79 176.691 1604.97 170.583 1608.26 169.529C1611.55 168.475 1609.89 175.121 1611.74 177.94C1615.83 184.174 1615.2 191.897 1617.97 198.555C1619.53 202.325 1621.64 205.281 1625.78 200.869C1626.09 200.537 1626.35 200.021 1626.73 199.918C1648.76 193.513 1643.35 174.983 1644.57 159.502C1645.03 153.647 1644.56 147.711 1646.97 142.165C1647.48 141.007 1648.44 139.059 1649.07 139.105C1651.41 139.288 1651.44 141.534 1650.99 143.07C1647.91 153.704 1648.63 164.59 1648.76 175.419C1648.81 179.28 1647.11 184.483 1651.6 186.465C1656.24 188.517 1660.2 184.598 1663.75 182.054C1674.38 174.387 1676.47 162.711 1677.22 150.816C1677.79 141.798 1677.39 132.722 1677.59 123.681C1677.62 122.524 1678.71 121.401 1679.3 120.255C1679.92 121.355 1681.07 122.432 1681.09 123.544C1681.28 133.043 1681.55 142.554 1681.26 152.042C1681.03 159.88 1682.35 165.69 1692.18 164.75C1693.68 164.601 1695.91 164.43 1696 166.928C1696.02 167.374 1694.68 168.28 1693.97 168.291C1682.97 168.303 1678.22 178.02 1670.42 182.993C1657.21 191.416 1650.07 200.571 1658.52 216.946C1661.98 223.65 1657.4 230.927 1652.22 236.542C1634.8 255.449 1623.53 278.069 1613.23 301.239C1609.31 310.052 1610.45 319.883 1608.16 329.062C1607.64 331.182 1608.27 333.818 1610.96 334.528C1612.89 335.032 1614.27 333.566 1615.38 332.076C1616.46 330.621 1617.83 329.303 1618.6 327.71C1626.45 311.392 1639.82 303.142 1657.05 298.352C1670.01 294.742 1682.09 287.958 1694.49 282.412C1701.73 279.169 1707.12 273.554 1711.55 267.217C1717.21 259.139 1716.72 251.645 1710.8 243.589C1709.21 241.412 1707.27 239.395 1706.12 237C1704.48 233.619 1705.73 229.689 1709.2 229.483C1714.42 229.173 1709.3 233.287 1710.61 235.017C1713.86 239.315 1717.02 243.692 1720.41 247.886C1722 249.846 1723.31 248.299 1724.93 247.279C1731.36 243.199 1735.02 237.195 1737.86 230.411C1738.4 229.105 1739.5 226.79 1741.67 228.302C1742.21 228.681 1741.88 230.823 1741.44 231.969C1738.87 238.696 1736.88 245.743 1730.87 250.59C1729.12 251.988 1727.28 253.673 1726.38 255.632C1723.66 261.522 1716.22 266.828 1719.49 273.119C1720.65 275.353 1729.34 269.017 1734.8 267.034C1747.98 262.244 1761.57 258.623 1774.41 252.802C1779.05 250.705 1783.36 248.505 1786.59 244.517C1790.7 239.441 1793.55 232.37 1802.55 235.361C1804.24 235.923 1805.38 233.39 1806.28 231.843C1814.62 217.244 1827.11 205.682 1835.95 191.45C1839.77 185.285 1843.94 179.303 1841.77 171.339C1841.34 169.735 1841.69 167.672 1842.31 166.057C1844.12 161.37 1843.63 153.75 1848.85 153.291C1851.36 153.062 1848.39 161.141 1847.93 165.461C1847.09 173.471 1849.6 174.857 1857.54 171.855C1861.48 170.365 1866.25 163.295 1868.42 167.317C1870.96 172.015 1862.69 173.814 1859.04 176.702C1853.8 180.862 1844.5 184.38 1846.79 191.141C1849.17 198.142 1858.77 193.891 1865.15 194.269C1869.55 194.533 1874.03 192.642 1878.52 192.344C1885.29 191.885 1889.02 189.158 1890.56 182.077C1893.3 169.494 1902.61 161.129 1911.66 152.821C1912.88 151.71 1914.51 149.739 1916.08 151.813C1917.24 153.349 1915.8 155.251 1914.64 156.569C1908.98 162.986 1902.01 168.314 1898.87 176.748C1897.29 181.011 1894.72 185.503 1898 189.525C1901.15 193.41 1905.78 191.29 1909.35 189.685C1919.78 185.01 1930.74 186.947 1941.49 186.557C1944.16 186.454 1948.92 184.666 1949.33 188.986C1949.92 195.186 1959.62 192.012 1957.77 196.045C1955.66 200.629 1949.92 194.659 1945.67 195.85C1932.69 199.494 1919.75 196.859 1906.73 195.988C1895.33 195.22 1893.74 197.649 1893.72 209.51C1893.71 214.093 1894.68 218.448 1895.87 222.836C1897.07 227.179 1897.9 231.637 1898.77 236.06C1899.65 240.541 1894.61 246.03 1898.11 248.986C1903.11 253.18 1909.72 255.85 1916.05 257.959C1922.56 260.124 1926.46 253.73 1931.66 251.415C1933.82 250.453 1937.41 246.568 1938.07 249.674C1939.36 255.839 1946.48 255.38 1947.73 260.101C1948.43 262.771 1945.3 262.015 1943.94 261.419C1936.7 258.222 1929.9 258.726 1923.34 263.15C1919.41 265.808 1915.63 264.983 1911.96 262.473C1901.79 255.518 1892.32 258.165 1882.93 264.376C1868.44 273.967 1866.33 273.623 1854.6 260.743C1847.6 253.066 1839.63 250.991 1830.3 255.644C1822.29 259.643 1814.68 260.743 1805.54 259.586C1791.95 257.855 1779.13 262.737 1766.2 267.492C1760.26 269.681 1771.55 278.379 1761.59 275.319C1757.06 273.932 1752.6 275.055 1748.21 276.362C1726.94 282.699 1706.07 290.193 1685.83 299.257C1674.27 304.437 1663.22 310.67 1651.06 314.624C1637.52 319.024 1632.97 331.984 1626.93 342.733C1616.06 362.064 1612.92 383.527 1612.92 405.54C1612.92 411.785 1614.83 412.736 1619.97 409.448C1631.99 401.736 1641.99 393.038 1638.32 376.64C1638.12 375.769 1637.9 374.784 1638.11 373.959C1639.05 370.177 1638.49 363.714 1642.73 363.944C1646.38 364.138 1642.83 369.753 1643.18 372.973C1643.6 376.995 1643.16 381.109 1643.25 385.177C1643.49 395.009 1639.74 403.237 1631.54 408.336C1619.29 415.956 1613.86 427.221 1611.43 440.651C1610.22 447.308 1608.99 453.978 1607.43 460.567C1604.23 474.031 1597.06 483.897 1583.86 490.051C1561.72 500.375 1540.04 511.64 1518.86 524.004C1502.59 533.504 1483.28 537.193 1466.54 546.418C1464.96 547.289 1463.18 547.793 1461.57 548.607C1445.11 556.926 1424.35 595.91 1428.36 610.898C1430.74 619.802 1434.12 620.971 1441.75 615.608C1459.18 603.37 1477.65 592.759 1496.31 582.583C1515.12 572.327 1530.22 558.737 1540.16 539.703C1541.87 536.414 1543.9 533.515 1547.14 531.601C1550.53 529.596 1555.25 525.31 1557.61 527.923C1559.99 530.559 1553.8 532.484 1551.82 535.108C1545.81 543.095 1544.41 553.385 1538.19 561.418C1536.26 563.905 1540.34 564.202 1542.36 563.423C1566.01 554.256 1589.69 545.157 1613.21 535.669C1618.72 533.446 1622.93 528.805 1626.19 523.935C1639.49 504.031 1654.75 485.444 1666.84 464.749C1677.27 446.873 1683.32 427.759 1682.96 406.743C1682.81 397.736 1681.44 389.681 1674.3 383.481C1669.62 379.413 1668.4 374.497 1671.19 368.882C1671.71 367.828 1673.06 366.361 1673.85 366.453C1675.45 366.636 1675.49 368.458 1675.18 369.765C1672.53 381.041 1684.31 384.295 1687.85 392.19C1689.04 394.86 1692.9 393.966 1695.08 392.121C1697.82 389.807 1700.5 387.24 1702.51 384.318C1708.4 375.735 1714.09 367.152 1722.28 360.334C1728 355.59 1729.78 348.153 1732.41 341.438C1733.08 339.742 1734.21 338.069 1736.27 338.928C1737.74 339.547 1737.11 341.197 1736.79 342.515C1734.59 351.82 1732.09 360.941 1724.55 367.656C1723.19 368.86 1721.69 369.994 1720.7 371.461C1719.07 373.89 1715.15 376.686 1718.58 379.448C1720.89 381.304 1723.71 377.752 1724.8 375.689C1730.74 364.551 1742.26 361.961 1752.32 357.125C1753.87 356.381 1755.89 354.845 1757.14 356.793C1758.32 358.615 1756.13 359.669 1754.92 360.907C1739.98 376.262 1721.85 387.332 1703.85 398.493C1695.71 403.546 1690.28 408.863 1694.52 419.279C1695.46 421.606 1694.99 424.688 1694.58 427.335C1693.79 432.412 1696.23 433.649 1699.52 430.658C1712.32 418.993 1728.13 413.71 1744.08 408.485C1758.55 403.729 1773.77 401.598 1787.99 396.006C1789.22 395.525 1791.06 395.616 1791.54 397.06C1792.03 398.493 1790.47 399.203 1789.28 399.662C1782.1 402.423 1774.88 405.105 1767.71 407.912C1766.5 408.382 1764.79 409.138 1764.53 410.101C1764 412.026 1766.06 411.51 1767.1 411.751C1781.55 414.914 1796.13 420.781 1809.88 409.665C1811.29 408.531 1813.77 408.004 1814.27 406.64C1819.23 393.508 1832.68 390.185 1842.11 382.255C1843.25 381.293 1843.92 378.416 1846.02 380.387C1847.44 381.705 1846.64 383.768 1845.5 385.269C1844.68 386.346 1843.85 387.847 1842.74 388.191C1828.25 392.649 1823.74 408.279 1811.78 415.509C1810.19 416.461 1808.98 417.515 1808.71 419.566C1808.34 422.477 1814.97 424.23 1810.55 426.969C1808.9 427.988 1804.93 424.654 1801.87 424.207C1783.98 421.571 1766.11 417.859 1748.12 417.137C1732.85 416.518 1719.54 424.138 1707.73 433.97C1690.69 448.133 1679.78 466.961 1668.16 485.169C1663.09 493.122 1664.79 495.139 1674.26 495.391C1684.23 495.654 1693.89 496.273 1703.58 499.848C1714.21 503.779 1724.96 500.708 1735.19 496.113C1747.77 490.463 1758.83 482.866 1768.03 472.553C1769.35 471.075 1771.53 468.668 1773.64 471.143C1774.86 472.576 1772.93 474.306 1771.79 475.647C1770.32 477.366 1768.5 478.901 1767.46 480.849C1765.49 484.505 1766.47 486.819 1771.05 487.117C1800.59 489.031 1828.6 483.68 1854.79 469.677C1863.16 465.207 1868.85 458.79 1871.52 449.382C1875.1 436.8 1883.08 426.98 1893.05 418.729C1894.68 417.377 1896.77 415.085 1898.79 417.171C1900.07 418.477 1898.09 420.414 1896.79 421.514C1885.34 431.174 1878.37 443.435 1873.99 457.69C1871.36 466.25 1863.69 471.155 1856.52 476.048C1855.09 477.022 1853.06 478.649 1853.1 479.921C1853.22 483.198 1856.49 481.823 1858.42 482.476C1870.53 486.59 1881.67 486.647 1890.04 474.959C1890.52 474.283 1891.58 473.389 1892.16 473.515C1895.13 474.134 1898.01 468.725 1900.31 472.61C1901.62 474.81 1898.18 477.205 1896.28 479.062C1894.99 480.322 1893.56 481.537 1891.99 482.373C1887.6 484.722 1886.74 487.003 1891.58 489.844C1893.52 490.99 1895.39 492.32 1897.06 493.832C1897.98 494.669 1899.15 496.296 1898.87 497.144C1898.37 498.714 1896.71 498.095 1895.43 497.568C1869.75 487.106 1843.82 485.456 1816.7 492.48C1803.3 495.952 1788.93 496.376 1774.96 496.789C1764.19 497.098 1754.3 499.241 1744.98 504.26C1728.26 513.255 1711.75 515.135 1692.73 509.6C1674.57 504.317 1655.51 508.454 1643.98 525.024C1628.89 546.716 1605.83 554.371 1583.64 564.42C1545.78 581.586 1506.09 595.176 1472.52 620.902C1464.42 627.113 1457.44 633.965 1453.23 643.201C1451.87 646.169 1449.16 649.825 1452.93 653.113C1456.47 656.196 1460.44 656.127 1464.25 653.664C1473.45 647.716 1483.31 643.522 1493.91 640.531C1522.23 632.51 1550.53 624.374 1577.28 611.666C1583.73 608.595 1590.96 606.693 1598.05 605.467C1620.9 601.479 1639.5 589.928 1655.21 573.668C1664.2 564.363 1675.43 560.284 1687.13 556.582C1692.64 554.84 1697.89 555.769 1702.91 558.37C1713.71 563.973 1725.87 566.196 1736.4 572.9C1745.08 578.435 1765.71 573.84 1773.64 566.792C1779.1 561.945 1777.96 556.491 1776.14 550.623C1775.36 548.091 1774.47 544.252 1777.24 543.37C1779.33 542.705 1779.19 546.75 1779.97 548.744C1783.94 558.897 1783.81 558.748 1792.18 551.414C1801.33 543.381 1810.18 534.879 1821.2 529.264C1823.11 528.29 1825.84 526.216 1827.24 528.187C1828.96 530.604 1825.68 531.716 1823.98 532.816C1808.94 542.533 1797.17 555.654 1785.68 569.107C1779.06 576.853 1770.34 581.666 1761.11 585.677C1759.6 586.341 1757.14 586.662 1757.48 588.817C1757.83 591.04 1760.29 590.742 1761.96 590.696C1786.83 590.089 1811.61 588.209 1836.21 584.577C1840.27 583.981 1843.65 581.334 1846.67 578.492C1853.96 571.628 1862.98 571.342 1872.19 572.006C1873.43 572.098 1875.68 573.06 1875.65 573.416C1875.4 575.65 1873.33 575.524 1871.65 575.73C1864.49 576.613 1857.11 576.899 1851.02 581.38C1849.38 582.583 1846.79 584.29 1848.2 586.8C1848.77 587.82 1851.39 588.014 1853.09 588.026C1865.32 588.129 1877.59 587.487 1889.53 591.028C1891.12 591.498 1893.97 591.017 1893.78 592.976C1893.61 594.729 1890.71 594.558 1889.01 594.386C1882.73 593.755 1876.45 592.174 1870.18 592.22C1847.07 592.38 1824.09 595.337 1800.92 595.142C1791.04 595.062 1790.53 597.697 1796.77 607.323C1797.66 608.687 1799.84 610.073 1797.52 611.677C1796.89 612.113 1794.78 611.322 1793.99 610.486C1784.59 600.677 1772.61 599.393 1760.06 600.23C1749.48 600.929 1740.3 597.583 1732.5 590.81C1723.8 583.259 1713.67 578.286 1703.35 573.587C1692.12 568.477 1678.87 572.74 1672.73 583.099C1669.6 588.393 1671.21 591.819 1676.94 593.125C1694.63 597.159 1710.18 607.151 1728.09 610.852C1735.94 612.468 1743.35 616.983 1749.54 622.3C1762 633.003 1776.73 640.635 1790.74 648.232C1810.6 659.003 1833.19 664.664 1855.79 652.77C1859.79 650.673 1863.79 647.854 1868.35 648.232C1869.42 648.324 1884.12 638.24 1873.91 653.045C1872.38 655.268 1875.45 657.01 1877.43 657.835C1883.99 660.539 1888.92 665.443 1892.87 670.829C1905.11 687.525 1921.32 693.702 1941.48 690.894C1943.56 690.608 1946.73 688.465 1947.56 690.997C1948.63 694.252 1944.85 694.893 1942.46 695.913C1937.27 698.136 1931.85 698.526 1926.46 697.082C1911.41 693.06 1897.47 687.8 1888.08 673.694C1880.22 661.88 1865.66 658.133 1851.93 662.372C1842.37 665.317 1832.89 668.171 1822.67 665.627C1820.18 665.008 1816.66 664.32 1815.05 666.773C1813.33 669.385 1815.64 672.01 1817.55 673.866C1823.85 679.985 1828.26 688.763 1839.17 688.373C1844.81 688.178 1841.83 695.97 1847.71 697.621C1862.49 701.792 1876.75 707.865 1892.08 710.099C1896.14 710.695 1900.16 711.119 1903.94 712.769C1905.56 713.48 1907.86 714.328 1907.09 716.253C1906.3 718.247 1903.83 717.17 1902.18 716.826C1888.01 713.87 1873.6 712.128 1859.7 707.922C1855.89 706.765 1851.41 704.439 1848.63 708.931C1846.3 712.678 1847.55 716.769 1850.64 720.115C1852.01 721.604 1854.78 723.255 1851.71 725.329C1850.08 726.429 1848.29 724.801 1846.97 723.564C1843.9 720.676 1841.74 716.975 1841.37 712.941C1840.61 704.611 1835.56 700.543 1828.64 696.933C1816.48 690.608 1805.37 682.907 1799.41 669.66C1795.57 661.1 1786.26 659.026 1779.39 654.053C1778.72 653.572 1777.34 653.113 1776.93 653.446C1775.63 654.477 1776.28 656.001 1776.91 657.136C1779.91 662.602 1779.71 668.583 1779.24 674.393C1777.91 690.802 1784.12 703.442 1797.52 712.792C1799.21 713.973 1802.37 715.107 1800.48 717.571C1798.83 719.725 1796.39 717.342 1794.57 716.31C1791.81 714.752 1789.28 712.804 1786.54 711.2C1784.71 710.122 1782.73 707.705 1780.64 709.252C1778.62 710.753 1779.79 713.365 1780.64 715.474C1781.43 717.433 1783.12 720.092 1779.7 720.63C1777.16 721.031 1775.79 718.167 1775.8 715.944C1775.9 703.132 1771.4 691.055 1770.07 678.518C1767.55 654.626 1743.96 627.64 1719.78 622.277C1706.91 619.424 1694.12 616.719 1682.33 610.474C1680.02 609.248 1677.15 608.744 1674.5 608.606C1669.94 608.354 1664.51 608.297 1662 612.285C1659.09 616.914 1663.72 620.501 1666.46 623.893C1671 629.519 1675.66 635.065 1680.47 640.463C1685.65 646.295 1690.88 652.151 1700.15 648.427C1701.6 647.842 1703.8 648.473 1705.43 649.103C1707.86 650.031 1711.56 650.936 1710.78 654.122C1710.18 656.563 1706.9 654.844 1704.81 654.787C1689.7 654.351 1689.89 654.489 1689.37 669.397C1689.09 677.705 1691.94 685.44 1692.44 693.541C1692.79 699.11 1696.75 701.047 1701.42 702.239C1707.99 703.912 1714.56 705.585 1721.11 707.326C1722.38 707.659 1723.99 708.461 1723.56 709.79C1723.31 710.558 1721.23 711.291 1720.11 711.119C1713.85 710.191 1707.53 709.366 1701.44 707.739C1695.92 706.272 1692.55 706.845 1692.2 713.342C1692.11 714.97 1692.14 717.674 1689.94 717.307C1688.1 717.009 1688.48 714.271 1688.37 712.517C1687.34 694.859 1683.6 677.476 1679.25 660.585C1674.33 641.483 1660.48 628.098 1641.7 620.719C1636.98 618.862 1631.43 617.911 1626.99 619.825C1608.8 627.64 1587.84 628.637 1571.9 641.907C1569.64 643.786 1565.08 643.9 1565.6 647.602C1565.78 648.931 1570.23 649.584 1572.68 650.684C1574.44 651.475 1577.29 649.928 1577.95 653.079C1576.2 653.354 1574.4 653.984 1572.67 653.87C1553.81 652.632 1537.03 658.396 1521.34 668.388C1515.59 672.044 1509.09 674.542 1502.41 675.78C1490.19 678.048 1479.27 683.262 1468.19 688.534C1433.53 705.023 1419.05 734.565 1417.9 770.397C1417.22 791.31 1414.47 811.822 1411.21 832.173C1408.24 850.828 1412.09 868.074 1415.59 885.664C1422.12 918.437 1433.3 950.018 1440.93 982.551C1445.53 1002.15 1455.62 1020.4 1456.9 1041.03C1457.16 1045.07 1458.09 1049.09 1458.1 1053.13C1458.2 1082.07 1460.28 1110.75 1467.18 1139.01C1470.44 1152.4 1469.02 1153.86 1454.87 1153.91C1414.04 1154.04 1373.2 1154.02 1332.37 1153.91C1320.06 1153.88 1318.77 1152.74 1316.31 1140.41C1313.27 1125.19 1316.1 1110.3 1322.65 1096.81C1330.06 1081.55 1328.44 1067.23 1323.05 1052.31C1318.32 1039.19 1313.88 1026.01 1314.3 1011.69C1314.43 1006.94 1315.64 1004.38 1320.48 1005.98C1326.72 1008.06 1327.75 1004.94 1329.44 999.785C1335.99 979.72 1333.23 959.197 1330.61 939.442C1327.74 917.83 1326.15 896.413 1326.15 874.709C1326.15 858.472 1325.45 842.234 1324.65 825.997C1323.79 808.659 1325.56 790.875 1331.14 773.858C1337.6 754.194 1334.54 735.825 1323.33 718.304C1315.42 705.94 1306.17 695.867 1293.47 687.731C1274.34 675.459 1258.64 658.396 1244.81 640.726C1231.87 624.202 1217.32 616.685 1196.99 619.24C1186.7 620.535 1176.32 621.567 1166.15 623.538C1147.19 627.205 1134.19 639.729 1122.96 654.317C1117.95 660.825 1112.79 667.323 1106.07 671.861C1096.73 678.152 1093.33 686.826 1093.44 697.3C1093.63 714.5 1090.91 711.211 1076.96 717.594C1075.72 718.155 1074.06 718.705 1073.48 717.112C1073.2 716.299 1074.23 714.11 1074.93 713.973C1092.21 710.684 1088.42 696.899 1089.34 685.474C1089.89 678.679 1087.55 674.404 1080.17 672.892C1073.96 671.62 1068.09 668.847 1063.17 664.676C1056.72 659.198 1051.49 661.616 1046.75 666.956C1042.26 672.032 1038.2 677.51 1033.62 682.506C1022.39 694.756 1008.82 693.507 1000.42 679.08C996.111 671.689 992.756 663.69 989.561 655.738C986.941 649.229 983.413 647.728 976.116 648.553C961.878 650.18 949.468 655.692 937.31 662.476C941.688 653.87 948.778 649.08 958.247 647.544C963.993 646.616 969.796 645.883 975.427 644.473C982.172 642.777 982.942 638.916 977.932 634.023C971.37 627.594 961.074 626.036 951.777 629.886C940.619 634.492 929.427 639.007 918.257 643.568ZM1370.81 360.815C1370.81 362.248 1371.28 364.219 1370.73 365.834C1368.4 372.721 1370.14 374.52 1376.88 371.358C1377.81 370.922 1380.13 371.438 1380.51 372.183C1381.77 374.646 1378.98 374.555 1377.84 375.563C1357.49 393.554 1362.09 419.188 1387.38 428.813C1408.42 436.823 1408.41 436.823 1416.37 415.532C1422.07 400.303 1424.68 383.756 1433.31 369.845C1444.37 352.038 1447.86 335.055 1437.28 315.369C1431.15 303.978 1429.11 290.181 1420.15 280.269C1410.67 269.784 1402.65 258.383 1395.21 246.499C1391.32 240.3 1386.4 236.656 1378.77 236.255C1369.35 235.762 1361.78 230.869 1354.54 225.094C1350.77 222.092 1349.26 213.956 1344.76 215.709C1339.94 217.577 1341.61 225.415 1340.2 230.571C1339.36 233.642 1338.55 236.656 1339.22 239.899C1345.14 268.81 1340.78 297.676 1335.93 325.911C1330.75 356.106 1326.26 386.461 1320.14 416.506C1318.9 422.614 1319.58 429.111 1319.33 435.425C1319.09 441.35 1321.14 443.664 1327.48 441.774C1334.47 439.688 1341.09 436.869 1347.63 433.718C1351.27 431.965 1356.16 431.38 1358.49 428.607C1362 424.425 1355.18 422.11 1354.64 418.283C1354.26 415.624 1353.09 412.713 1353.77 410.33C1357.73 396.396 1357.69 381.717 1361.74 367.874C1365.04 356.633 1365.63 345.621 1361.5 334.666C1359.03 328.122 1358.59 321.476 1359 314.658C1359.09 313.077 1358.8 310.877 1361.21 310.865C1361.71 310.865 1362.61 313.042 1362.64 314.246C1362.83 320.135 1363.08 325.922 1365.83 331.4C1370.43 340.556 1371.86 350.319 1370.81 360.815ZM1060.67 471.292C1064.3 471.292 1067.93 471.464 1071.54 471.258C1081.06 470.708 1081.45 469.871 1077.55 460.899C1072.7 449.726 1067.66 438.657 1063.73 427.06C1056.93 407.007 1049.74 387.584 1032.87 372.481C1024.84 365.284 1017.06 359.486 1007.15 356.106C984.401 348.359 960.718 344.371 937.333 339.192C929.737 337.507 922.199 336.74 914.465 336.797C907.651 336.843 905.961 339.352 910.271 344.727C921.061 358.168 925.002 374.543 930.3 390.357C932.874 398.069 935.908 405.655 937.976 413.504C940.171 421.812 944.848 425.651 953.536 425.227C965.245 424.665 975.082 429.558 982.046 438.428C1002.24 464.13 1030.83 469.035 1060.67 471.292ZM1318.95 511.307C1320.19 530.753 1316.95 549.432 1322.57 567.549C1324.03 572.247 1324.6 580.52 1327.72 580.635C1332.19 580.795 1331.93 573.06 1334.19 568.947C1335.26 566.987 1335.72 564.695 1336.7 562.678C1337.24 561.567 1338.52 559.791 1339.11 559.917C1340.58 560.238 1340.56 561.991 1340.3 563.286C1339.01 569.462 1337.88 575.684 1336.23 581.769C1329.62 606.315 1338.21 625.073 1361.21 635.959C1375.53 642.732 1383.81 638.022 1388.27 622.988C1396.13 596.46 1386.63 571.238 1383.89 545.536C1381.97 527.671 1377.28 509.772 1384.9 492.308C1387.82 485.628 1390.07 478.901 1391.68 471.854C1395.22 456.407 1393.02 452.958 1377.81 449.085C1371.2 447.4 1365.17 449.004 1359.3 451.388C1349.64 455.307 1340.05 459.558 1329.8 461.472C1321.27 463.065 1318.78 467.969 1318.9 475.773C1319.1 487.954 1318.95 500.146 1318.95 511.307ZM1017.34 621.899C1007.17 620.455 998.168 623.583 991.675 632.476C989.308 635.719 986.941 639.225 989.147 643.671C994.973 655.394 1000.11 667.518 1006.75 678.747C1012.2 687.972 1020.68 688.247 1028.15 680.478C1032.5 675.929 1035.97 670.543 1040.3 665.959C1052.49 652.999 1053.46 652.953 1068.78 661.536C1087.03 671.769 1103.05 668.938 1115.44 652.621C1119.84 646.822 1124.73 641.597 1129.66 636.326C1131.57 634.286 1135.87 632.407 1133.17 628.843C1131.32 626.402 1128.12 628.763 1125.6 629.393C1098.32 636.166 1071.31 637.403 1044.44 626.93C1036.08 623.687 1027.16 621.429 1017.34 621.899ZM1889.59 231.419C1887.54 223.65 1886.78 214.288 1886.7 204.834C1886.67 200.342 1883.61 198.131 1879.54 198.646C1867.55 200.193 1854.79 198.967 1843.7 203.791C1829.14 210.128 1820.15 222.848 1813.26 236.851C1811.77 239.888 1812.26 243.039 1814.51 245.686C1817.39 249.066 1820.35 246.671 1823.08 245.503C1827.61 243.543 1831.92 240.289 1837 240.85C1841.73 241.366 1847.89 236.289 1850.59 240.999C1853.95 246.843 1861.12 248.035 1863.64 254.188C1864.67 256.71 1866.54 258.818 1869.86 258.142C1876.18 256.847 1889.64 239.624 1889.59 231.419ZM1596.99 283.684C1596.99 285.495 1596.89 287.305 1597.02 289.116C1597.27 292.611 1596.26 297.401 1600.57 298.421C1605.08 299.486 1605.6 294.169 1607.69 291.499C1608.81 290.078 1609.66 288.463 1610.63 286.939C1622.57 268.352 1632.07 248.184 1648.36 232.462C1654.83 226.228 1653.37 217.588 1650.98 209.383C1647.48 197.374 1642.56 195.541 1633.27 204.17C1610.22 225.598 1600.87 253.444 1596.99 283.684ZM1406.41 514.848C1408.25 525.07 1409.7 536.277 1412.41 547.163C1414.26 554.554 1420.04 556.307 1424.19 550.807C1430.52 542.43 1438.37 535.646 1445.26 527.9C1446.8 526.158 1448.03 524.176 1447.69 521.804C1445.03 503.538 1437.26 488.366 1420.99 478.431C1418.48 476.896 1416.06 475.715 1414.78 479.829C1411.29 491.013 1407.81 502.209 1406.41 514.848ZM1324.32 225.094C1326.74 224.257 1327.46 222.115 1328.37 220.086C1335.58 204.17 1331.16 189.216 1316.4 179.853C1314.55 178.685 1312.3 177.149 1310.17 178.662C1308.17 180.083 1308.12 182.764 1308.75 184.873C1312.26 196.916 1315.93 208.914 1319.73 220.877C1320.37 222.905 1321.52 225.094 1324.32 225.094Z" fill="url(#paint0_linear_730_97)"/>
</g>
</g>
<defs>
<linearGradient id="paint0_linear_730_97" x1="857.984" y1="576.984" x2="1957.98" y2="576.984" gradientUnits="userSpaceOnUse">
<stop stop-color="#244341"/>
<stop offset="1" stop-color="#DDC28B"/>
</linearGradient>
<clipPath id="clip0_730_97">
<rect width="1440" height="1153" fill="white"/>
</clipPath>
<clipPath id="clip1_730_97">
<rect width="1477" height="309" fill="white" transform="translate(1465 462) rotate(-180)"/>
</clipPath>
</defs>
</svg>
