<svg width="14" height="14" viewBox="0 0 14 14" fill="none" xmlns="http://www.w3.org/2000/svg">
<g clip-path="url(#clip0_494_18594)">
<path d="M7 5.264C6.65665 5.264 6.32101 5.36581 6.03553 5.55657C5.75005 5.74732 5.52754 6.01845 5.39614 6.33566C5.26475 6.65287 5.23037 7.00193 5.29736 7.33868C5.36434 7.67543 5.52968 7.98475 5.77246 8.22754C6.01525 8.47032 6.32457 8.63566 6.66132 8.70264C6.99807 8.76963 7.34713 8.73525 7.66434 8.60386C7.98155 8.47246 8.25268 8.24995 8.44343 7.96447C8.63419 7.67899 8.736 7.34335 8.736 7C8.736 6.77203 8.6911 6.54628 8.60386 6.33566C8.51661 6.12504 8.38874 5.93366 8.22754 5.77246C8.06633 5.61126 7.87496 5.48339 7.66434 5.39614C7.45372 5.3089 7.22797 5.264 7 5.264ZM13.951 3.549C13.9473 3.00843 13.8478 2.4728 13.657 1.967C13.5165 1.59688 13.2991 1.26077 13.0192 0.98083C12.7392 0.700894 12.4031 0.483502 12.033 0.343C11.5272 0.152225 10.9916 0.0526826 10.451 0.049C9.548 -4.47035e-08 9.282 0 7 0C4.718 0 4.452 -4.47035e-08 3.549 0.049C3.00843 0.0526826 2.4728 0.152225 1.967 0.343C1.59688 0.483502 1.26077 0.700894 0.98083 0.98083C0.700894 1.26077 0.483502 1.59688 0.343 1.967C0.152225 2.4728 0.0526826 3.00843 0.049 3.549C-4.47035e-08 4.452 0 4.718 0 7C0 9.282 -4.47035e-08 9.548 0.049 10.451C0.0565347 10.9935 0.155942 11.5307 0.343 12.04C0.48288 12.4084 0.70009 12.7426 0.98 13.02C1.25874 13.3016 1.59557 13.519 1.967 13.657C2.4728 13.8478 3.00843 13.9473 3.549 13.951C4.452 14 4.718 14 7 14C9.282 14 9.548 14 10.451 13.951C10.9916 13.9473 11.5272 13.8478 12.033 13.657C12.4044 13.519 12.7413 13.3016 13.02 13.02C13.2999 12.7426 13.5171 12.4084 13.657 12.04C13.8476 11.5317 13.9471 10.9938 13.951 10.451C14 9.548 14 9.282 14 7C14 4.718 14 4.452 13.951 3.549ZM12.173 9.149C12.1505 9.58097 12.0583 10.0065 11.9 10.409C11.7641 10.7448 11.5621 11.0498 11.3059 11.3059C11.0498 11.5621 10.7448 11.7641 10.409 11.9C10.0027 12.0495 9.57479 12.1323 9.142 12.145C8.589 12.145 8.442 12.145 7 12.145C5.558 12.145 5.411 12.145 4.858 12.145C4.42521 12.1323 3.99734 12.0495 3.591 11.9C3.24387 11.771 2.93039 11.5652 2.674 11.298C2.42037 11.0469 2.22449 10.7435 2.1 10.409C1.94989 10.0031 1.86942 9.57472 1.862 9.142C1.862 8.589 1.862 8.442 1.862 7C1.862 5.558 1.862 5.411 1.862 4.858C1.86942 4.42528 1.94989 3.99692 2.1 3.591C2.229 3.24387 2.43479 2.93039 2.702 2.674C2.95423 2.42174 3.25728 2.22607 3.591 2.1C3.99734 1.95048 4.42521 1.86775 4.858 1.855C5.411 1.855 5.558 1.855 7 1.855C8.442 1.855 8.589 1.855 9.142 1.855C9.57479 1.86775 10.0027 1.95048 10.409 2.1C10.7561 2.229 11.0696 2.43479 11.326 2.702C11.5796 2.95312 11.7755 3.25649 11.9 3.591C12.0495 3.99734 12.1323 4.42521 12.145 4.858C12.145 5.411 12.145 5.558 12.145 7C12.145 8.442 12.194 8.589 12.173 9.142V9.149ZM11.053 3.941C10.9697 3.71489 10.8383 3.50955 10.6678 3.33915C10.4974 3.16875 10.2921 3.03734 10.066 2.954C9.75553 2.84638 9.42854 2.79425 9.1 2.8C8.554 2.8 8.4 2.8 7 2.8C5.6 2.8 5.446 2.8 4.9 2.8C4.56979 2.80323 4.24275 2.86484 3.934 2.982C3.71135 3.06156 3.50819 3.1876 3.33801 3.35174C3.16783 3.51588 3.03454 3.71437 2.947 3.934C2.84534 4.24576 2.79568 4.57212 2.8 4.9C2.8 5.446 2.8 5.6 2.8 7C2.8 8.4 2.8 8.554 2.8 9.1C2.80694 9.42984 2.86844 9.75625 2.982 10.066C3.06534 10.2921 3.19675 10.4974 3.36715 10.6678C3.53755 10.8383 3.74289 10.9697 3.969 11.053C4.26767 11.1628 4.58196 11.2243 4.9 11.235C5.446 11.235 5.6 11.235 7 11.235C8.4 11.235 8.554 11.235 9.1 11.235C9.43021 11.2318 9.75725 11.1702 10.066 11.053C10.2921 10.9697 10.4974 10.8383 10.6678 10.6678C10.8383 10.4974 10.9697 10.2921 11.053 10.066C11.1702 9.75725 11.2318 9.43021 11.235 9.1C11.235 8.554 11.235 8.4 11.235 7C11.235 5.6 11.235 5.446 11.235 4.9C11.2352 4.56946 11.1735 4.24181 11.053 3.934V3.941ZM7 9.674C6.64918 9.674 6.3018 9.60479 5.97776 9.47032C5.65373 9.33585 5.35941 9.13878 5.11167 8.89038C4.86392 8.64198 4.66762 8.34715 4.534 8.02277C4.40038 7.69838 4.33208 7.35082 4.333 7C4.333 6.47084 4.49001 5.95357 4.78414 5.51368C5.07827 5.07379 5.49631 4.73106 5.98533 4.52888C6.47435 4.3267 7.01236 4.27416 7.53125 4.3779C8.05015 4.48165 8.52659 4.73702 8.90028 5.11169C9.27396 5.48635 9.52809 5.96347 9.63047 6.48263C9.73286 7.0018 9.6789 7.53967 9.47544 8.02816C9.27198 8.51664 8.92815 8.93378 8.4875 9.22676C8.04684 9.51974 7.52916 9.67539 7 9.674ZM9.8 4.851C9.64526 4.83462 9.50206 4.76155 9.39798 4.64588C9.2939 4.5302 9.23632 4.3801 9.23632 4.2245C9.23632 4.0689 9.2939 3.9188 9.39798 3.80312C9.50206 3.68745 9.64526 3.61438 9.8 3.598C9.95474 3.61438 10.0979 3.68745 10.202 3.80312C10.3061 3.9188 10.3637 4.0689 10.3637 4.2245C10.3637 4.3801 10.3061 4.5302 10.202 4.64588C10.0979 4.76155 9.95474 4.83462 9.8 4.851Z" fill="#547E32"/>
</g>
<defs>
<clipPath id="clip0_494_18594">
<rect width="14" height="14" fill="white"/>
</clipPath>
</defs>
</svg>
