<svg width="24" height="24" viewBox="0 0 24 24" fill="none" xmlns="http://www.w3.org/2000/svg">
<path d="M20.9919 9.97988C20.9951 8.79916 20.7656 7.62939 20.3167 6.53734C19.8678 5.4453 19.2082 4.45237 18.3755 3.61525C16.6939 1.92461 14.4095 0.971241 12.0249 0.964876C9.64036 0.958511 7.35094 1.89967 5.6603 3.58131C3.96966 5.26295 3.01629 7.54731 3.00993 9.93188C2.98881 12.7021 3.79298 15.4159 5.31996 17.7274C6.84694 20.0389 9.02757 21.8433 11.5839 22.9109C11.7146 22.97 11.8565 23.0004 11.9999 22.9999C12.1444 23.0001 12.2873 22.9694 12.4189 22.9099C14.9675 21.8456 17.1427 20.0486 18.669 17.7468C20.1952 15.4449 21.0037 12.7417 20.9919 9.97988ZM11.9999 20.8999C9.89186 19.9718 8.10423 18.4427 6.8606 16.504C5.61696 14.5653 4.97254 12.3029 5.00793 9.99988C5.00793 9.08167 5.18878 8.17246 5.54016 7.32415C5.89154 6.47584 6.40657 5.70505 7.05584 5.05579C7.7051 4.40652 8.4759 3.89149 9.3242 3.54011C10.1725 3.18873 11.0817 3.00788 11.9999 3.00788C12.9181 3.00788 13.8273 3.18873 14.6756 3.54011C15.524 3.89149 16.2947 4.40652 16.944 5.05579C17.5933 5.70505 18.1083 6.47584 18.4597 7.32415C18.8111 8.17246 18.9919 9.08167 18.9919 9.99988C18.9919 10.0209 18.9919 10.0449 18.9919 10.0649C19.0162 12.3573 18.3664 14.6063 17.1234 16.5326C15.8803 18.4589 14.0987 19.9775 11.9999 20.8999ZM13.9999 9.99988C13.9999 10.3954 13.8826 10.7821 13.6629 11.111C13.4431 11.4399 13.1307 11.6963 12.7653 11.8476C12.3998 11.999 11.9977 12.0386 11.6097 11.9614C11.2218 11.8843 10.8654 11.6938 10.5857 11.4141C10.306 11.1344 10.1155 10.778 10.0384 10.3901C9.96119 10.0021 10.0008 9.59996 10.1522 9.23451C10.3035 8.86906 10.5599 8.5567 10.8888 8.33694C11.2177 8.11717 11.6044 7.99988 11.9999 7.99988C12.5304 7.99988 13.0391 8.21059 13.4141 8.58566C13.7892 8.96074 13.9999 9.46944 13.9999 9.99988Z" fill="#547E32"/>
</svg>
