<svg width="14" height="14" viewBox="0 0 14 14" fill="none" xmlns="http://www.w3.org/2000/svg">
<g clip-path="url(#clip0_486_17271)">
<path fill-rule="evenodd" clip-rule="evenodd" d="M13.125 14C13.608 14 14 13.608 14 13.125V0.875C14 0.392 13.608 0 13.125 0H0.875C0.392 0 0 0.392 0 0.875V13.125C0 13.608 0.392 14 0.875 14L7.08333 14V8.81481H5.25V6.65432H7.08333V5.35802C7.08333 3.57821 8.14896 2.33333 9.83333 2.33333H11.6667V4.49383H10.75C9.83425 4.49383 9.375 4.92593 9.375 5.79012V6.65432H11.6667L11.2083 8.81481H9.375V14L13.125 14Z" fill="#547E32"/>
</g>
<defs>
<clipPath id="clip0_486_17271">
<rect width="14" height="14" fill="white"/>
</clipPath>
</defs>
</svg>
