<svg width="14" height="14" viewBox="0 0 14 14" fill="none" xmlns="http://www.w3.org/2000/svg">
<path fill-rule="evenodd" clip-rule="evenodd" d="M13.3037 2.43034C13.7234 2.88373 13.86 3.91349 13.86 3.91349C13.86 3.91349 14 5.12181 14 6.33056V7.46317C14 8.67192 13.86 9.88023 13.86 9.88023C13.86 9.88023 13.723 10.9096 13.3037 11.3621C12.8236 11.8979 12.2915 11.9535 11.9909 11.9849C11.9581 11.9883 11.928 11.9914 11.9011 11.9949C9.94179 12.145 7 12.1503 7 12.1503C7 12.1503 3.35974 12.1148 2.23983 12.0001C2.18682 11.9896 2.1226 11.9813 2.0499 11.972C1.69524 11.9264 1.13864 11.8548 0.69628 11.3616C0.276586 10.9091 0.140044 9.8798 0.140044 9.8798C0.140044 9.8798 0 8.67192 0 7.46273V6.33012C0 5.12181 0.140044 3.91349 0.140044 3.91349C0.140044 3.91349 0.277024 2.88373 0.69628 2.43034C1.17855 1.89264 1.7124 1.83856 2.0123 1.80818C2.04387 1.80498 2.07285 1.80204 2.09891 1.79883C4.05777 1.64697 6.9965 1.64697 6.9965 1.64697H7.00306C7.00306 1.64697 9.94179 1.64697 11.9011 1.79883C11.9272 1.80204 11.9562 1.80498 11.9877 1.80818C12.2877 1.83856 12.8219 1.89266 13.3037 2.43034ZM9.62801 6.89861L5.25164 9.52443V4.27279L9.62801 6.89861Z" fill="#547E32"/>
</svg>
