<svg width="90" height="90" viewBox="0 0 90 90" fill="none" xmlns="http://www.w3.org/2000/svg">
<path d="M45.0005 8.43799C24.8401 8.43799 8.43799 24.8401 8.43799 45.0005C8.43799 65.1608 24.8401 81.563 45.0005 81.563C65.1608 81.563 81.563 65.1608 81.563 45.0005C81.563 24.8401 65.1608 8.43799 45.0005 8.43799ZM45.3521 25.313C47.8552 25.313 50.3022 26.0553 52.3835 27.446C54.4648 28.8366 56.087 30.8133 57.0449 33.1259C58.0028 35.4385 58.2535 37.9833 57.7651 40.4384C57.2768 42.8934 56.0714 45.1485 54.3014 46.9186C52.5314 48.6886 50.2762 49.894 47.8212 50.3823C45.3661 50.8706 42.8213 50.62 40.5087 49.6621C38.1961 48.7042 36.2194 47.082 34.8288 45.0007C33.4381 42.9194 32.6958 40.4724 32.6958 37.9692C32.6958 34.6126 34.0292 31.3934 36.4027 29.0199C38.7762 26.6464 41.9954 25.313 45.3521 25.313V25.313ZM45.0005 75.938C40.7333 75.9398 36.5122 75.0565 32.6037 73.344C28.6952 71.6315 25.1844 69.127 22.2931 65.9888C23.847 57.9415 37.804 56.2505 45.0005 56.2505C52.197 56.2505 66.154 57.9415 67.7079 65.987C64.8169 69.1259 61.3062 71.6308 57.3977 73.3436C53.4892 75.0565 49.2678 75.9399 45.0005 75.938V75.938Z" fill="#547E32"/>
</svg>
