<svg width="122" height="85" viewBox="0 0 122 85" fill="none" xmlns="http://www.w3.org/2000/svg">
<g opacity="0.1">
<path d="M102.977 41.2751C104.581 41.3694 106.071 41.9121 106.771 43.1238C107.246 43.9472 107.745 44.6362 107.323 45.4975C106.824 46.5178 105.648 46.4374 104.52 46.3083C102.185 46.0409 101.662 45.3899 99.2662 44.7639C98.303 44.5122 97.6545 44.4693 97.2806 45.1025C97.0049 45.5693 97.8462 46.5537 99.0887 47.2898C101.16 48.5171 108.431 50.1287 110.179 51.3881C112.046 52.7334 113.199 55.3277 112.452 56.2691C111.663 57.2632 109.573 56.301 107.781 55.7346C103.708 54.4468 102.558 52.8263 98.7929 51.4996C97.7823 51.1435 96.1158 50.1013 95.4942 50.9807C95.0441 51.6175 96.4221 52.9179 97.2432 54.0099C98.2314 55.3242 105.765 56.8986 107.369 59.7424C108.334 61.4548 109.679 63.6179 108.181 64.9277C107.276 65.7199 105.618 65.0138 103.92 64.1571C99.6883 62.0225 96.743 58.3377 95.9268 56.9241C95.0896 55.4741 93.0963 55.327 92.4829 55.6812C91.7906 56.0808 92.7355 57.6831 93.2973 58.9807C94.1146 60.8685 98.4022 63.5728 100.21 65.7601C101.441 67.2496 103.517 69.0681 102.045 70.3552C101.14 71.1474 98.1245 70.347 95.9737 69.2832C92.3537 67.4925 91.1629 62.3671 90.0256 60.8696C89.1847 59.7624 88.4221 58.5642 87.2831 58.9525C86.1441 59.3408 89.0015 63.3457 90.0796 65.6852C90.0796 65.6852 91.2743 68.2267 89.843 69.0531C88.4116 69.8794 86.7489 68.416 86.3991 67.8102L83.3676 62.5595C81.3641 59.0894 80.644 56.8783 78.2374 53.6737C75.1719 49.5919 72.5553 48.0814 68.8741 44.5393C64.9041 40.7194 59.7727 36.3306 58.6355 34.8331C57.4982 33.3356 55.4874 29.3805 55.2255 28.4546C54.9636 27.5288 55.5108 26.8055 56.2496 25.9785C56.9884 25.1515 57.788 24.7527 58.7033 24.5618C59.6186 24.371 60.9812 23.7852 66.1758 26.1714C71.3703 28.5577 73.7722 31.0251 78.9273 33.619L79.0202 33.6658C83.4049 35.8721 85.9171 37.1362 90.6007 38.7271C93.3599 39.6643 94.8968 40.3169 97.7808 40.7747C99.8669 41.1059 102.131 41.2253 102.977 41.2751Z" fill="#E88A60"/>
<path d="M108.702 43.6246L112.08 47.5979L107.431 47.0998L109.032 45.9311L108.702 43.6246Z" fill="#E88A60"/>
<path d="M114.003 55.3115L115.87 59.4116L112.157 57.9135L113.744 57.3118L114.003 55.3115Z" fill="#E88A60"/>
<path d="M110.434 63.2959L112.301 67.396L108.588 65.8979L110.175 65.2963L110.434 63.2959Z" fill="#E88A60"/>
<path d="M103.978 69.1584L106.393 72.9612L102.503 71.9826L103.996 71.1723L103.978 69.1584Z" fill="#E88A60"/>
<path d="M91.6154 68.8851L92.5924 71.7739L90.2005 70.5151L91.3068 70.216L91.6154 68.8851Z" fill="#E88A60"/>
<path d="M35.2779 36.8511C36.6199 37.7348 37.6389 38.9498 37.6389 40.349C37.6389 41.2997 37.7263 42.1458 36.9306 42.6809C35.9878 43.3148 35.0097 42.6572 34.0973 41.9813C32.2085 40.5822 32.0812 39.7569 30.3196 38.0171C29.6113 37.3175 29.0712 36.956 28.4308 37.3175C27.9586 37.5839 28.195 38.8571 28.903 40.1158C30.0835 42.2145 35.5743 47.2456 36.4584 49.2102C37.4029 51.3089 37.104 54.132 35.9862 54.5736C34.8057 55.04 33.4768 53.1617 32.2084 51.7753C29.3247 48.6235 29.1392 46.6451 26.5419 43.6136C25.8448 42.8 24.9226 41.0642 23.9447 41.5149C23.2364 41.8414 23.7796 43.6566 23.9447 45.0128C24.1434 46.6451 29.8804 51.7753 29.8473 55.04C29.8274 57.0058 29.9103 59.5515 27.9586 59.937C26.778 60.1702 25.6953 58.7297 24.653 57.1387C22.0559 53.1745 21.3476 48.5107 21.3476 46.8783C21.3475 45.2041 19.6949 44.08 18.9865 44.08C18.1872 44.08 18.2043 45.9401 18.0421 47.3447C17.806 49.3882 20.167 53.8741 20.6392 56.6724C20.9607 58.5779 21.8489 61.1905 19.9309 61.5694C18.7504 61.8025 16.5394 59.6018 15.2087 57.6051C12.9689 54.2443 14.5004 49.2102 14.2643 47.3447C14.0896 45.9654 14.0282 44.5464 12.8477 44.3132C11.6672 44.08 12.1393 48.9771 11.9032 51.5422C11.9032 51.5422 11.6671 54.3405 10.0143 54.3405C8.36158 54.3405 7.65326 52.2417 7.65326 51.5422L7.65326 45.4792C7.65326 41.4722 8.13517 39.1973 7.65326 35.2188C7.03943 30.1511 5.52865 27.5346 4.11165 22.6265C2.58352 17.3333 0.333934 10.9669 0.0978271 9.10136C-0.13828 7.23584 0.0978266 2.8052 0.333933 1.87244C0.57004 0.93967 1.40557 0.586871 2.4589 0.240096C3.51222 -0.106675 4.40412 -0.0522699 5.29219 0.240096C6.18025 0.532462 7.65326 0.706481 10.9588 5.3703C14.2643 10.0341 15.1107 13.3719 18.2781 18.1958L18.3352 18.2828C21.0293 22.3858 22.5728 24.7367 25.8335 28.4562C27.7545 30.6475 28.7591 31.9811 31.0279 33.8196C32.6689 35.1495 34.5696 36.3847 35.2779 36.8511Z" fill="#E88A60"/>
<path d="M39.0608 41.7481L40 46.8783L36.2223 44.1221L38.1937 43.9108L39.0608 41.7481Z" fill="#E88A60"/>
<path d="M37.8086 54.5201L37.3752 59.0043L34.9085 55.8502L36.5842 56.123L37.8086 54.5201Z" fill="#E88A60"/>
<path d="M30.7256 59.6503L30.2922 64.1345L27.8255 60.9804L29.5012 61.2532L30.7256 59.6503Z" fill="#E88A60"/>
<path d="M22.2033 61.4993L22.3932 66L19.5139 63.2077L21.2116 63.2522L22.2033 61.4993Z" fill="#E88A60"/>
<path d="M11.6333 55.0812L11.035 58.0715L9.59295 55.7854L10.7006 56.0796L11.6333 55.0812Z" fill="#E88A60"/>
</g>
</svg>
