<svg width="199" height="217" viewBox="0 0 199 217" fill="none" xmlns="http://www.w3.org/2000/svg">
<g opacity="0.1">
<path d="M95.5489 185.233C95.0419 187.193 95.1166 189.189 96.2989 190.496C97.1022 191.384 97.7355 192.248 98.9309 192.076C100.347 191.871 100.705 190.431 100.987 189.028C101.569 186.125 100.99 185.247 101.166 182.133C101.237 180.881 101.436 180.087 102.339 179.883C103.006 179.733 103.861 181.122 104.263 182.897C104.933 185.855 104.055 195.194 104.889 197.776C105.78 200.535 108.445 202.92 109.862 202.388C111.359 201.826 111.013 198.948 111.027 196.582C111.057 191.201 109.559 189.196 109.424 184.169C109.388 182.82 108.782 180.419 110.077 180.014C111.014 179.72 112.041 181.875 113.032 183.282C114.226 184.974 113.201 194.614 115.991 197.636C117.67 199.456 119.744 201.904 121.893 200.615C123.193 199.835 122.987 197.575 122.617 195.208C121.693 189.31 118.414 184.355 117.035 182.83C115.62 181.266 116.214 178.819 116.876 178.221C117.623 177.545 119.178 179.297 120.517 180.473C122.464 182.182 124.049 188.368 125.972 191.381C127.282 193.432 128.66 196.624 130.771 195.357C132.071 194.577 132.277 190.653 131.833 187.663C131.086 182.631 125.402 179.223 124.046 177.28C123.044 175.844 121.902 174.467 122.808 173.252C123.713 172.036 127.41 177.01 129.798 179.207C129.798 179.207 132.383 181.621 133.927 180.225C135.471 178.828 134.359 176.269 133.768 175.616L128.645 169.952C125.26 166.209 122.887 164.491 119.976 160.367C116.267 155.114 115.468 151.393 112.644 145.611C109.599 139.375 106.321 131.527 104.966 129.585C103.61 127.642 99.6457 123.703 98.637 123.031C97.6283 122.359 96.5496 122.736 95.2727 123.302C93.9957 123.868 93.2084 124.672 92.6259 125.696C92.0433 126.719 90.8143 128.126 91.6671 135.276C92.52 142.426 94.5496 146.259 95.6667 153.442L95.6868 153.571C96.637 159.681 97.1814 163.181 97.2782 169.411C97.3352 173.081 97.5236 175.176 96.9576 178.81C96.5483 181.439 95.8164 184.199 95.5489 185.233Z" fill="#E88A60"/>
<path d="M96.1527 193.004L99.6101 198.59L100.81 192.824L98.7901 194.292L96.1527 193.004Z" fill="#E88A60"/>
<path d="M108.114 203.878L112.308 207.7L111.947 202.67L110.613 204.34L108.114 203.878Z" fill="#E88A60"/>
<path d="M119.066 202.685L123.26 206.508L122.899 201.477L121.564 203.148L119.066 202.685Z" fill="#E88A60"/>
<path d="M128.589 197.211L132.215 201.576L132.545 196.535L130.997 198.011L128.589 197.211Z" fill="#E88A60"/>
<path d="M133.041 182.285L136.126 184.573L135.542 181.219L134.756 182.429L133.041 182.285Z" fill="#E88A60"/>
<path d="M146.911 121.978C145.503 123.433 144.583 125.206 144.967 126.926C145.228 128.095 145.352 129.159 146.477 129.599C147.81 130.12 148.832 129.043 149.769 127.962C151.707 125.724 151.637 124.674 153.326 122.052C154.005 120.998 154.57 120.405 155.456 120.674C156.11 120.872 156.168 122.502 155.643 124.244C154.767 127.148 149.397 134.839 148.848 137.497C148.263 140.336 149.404 143.724 150.9 143.961C152.479 144.21 153.598 141.537 154.777 139.485C157.458 134.819 157.143 132.336 159.505 127.897C160.139 126.705 160.797 124.318 162.123 124.604C163.083 124.812 162.913 127.192 163.082 128.905C163.285 130.966 157.639 138.846 158.575 142.851C159.138 145.262 159.734 148.415 162.24 148.353C163.755 148.316 164.691 146.248 165.536 144.007C167.642 138.421 167.234 132.493 166.786 130.486C166.327 128.428 168.051 126.593 168.922 126.398C169.904 126.179 170.393 128.471 170.978 130.153C171.829 132.601 170.156 138.763 170.343 142.333C170.47 144.763 170.095 148.219 172.556 148.159C174.072 148.122 176.186 144.81 177.275 141.99C179.107 137.244 175.844 131.475 175.622 129.117C175.459 127.373 175.145 125.612 176.533 125.002C177.92 124.391 178.682 130.541 179.676 133.63C179.676 133.63 180.734 137.005 182.766 136.552C184.798 136.099 185.093 133.325 184.901 132.465L183.238 125.011C182.14 120.085 180.923 117.42 180.425 112.396C179.79 105.998 180.93 102.367 181.326 95.9443C181.753 89.0179 182.773 80.574 182.552 78.2158C182.33 75.8576 180.825 70.4753 180.279 69.3933C179.733 68.3113 178.609 68.1067 177.219 67.9692C175.829 67.8317 174.747 68.1432 173.736 68.7461C172.724 69.3491 170.961 69.9669 168.176 76.6071C165.391 83.2472 165.266 87.5828 162.695 94.3819L162.648 94.5044C160.461 100.288 159.208 103.601 156.22 109.068C154.459 112.289 153.589 114.204 151.304 117.086C149.651 119.171 147.653 121.211 146.911 121.978Z" fill="#E88A60"/>
<path d="M143.603 129.036L143.855 135.601L147.743 131.176L145.262 131.457L143.603 129.036Z" fill="#E88A60"/>
<path d="M148.645 144.395L150.407 149.789L152.575 145.235L150.589 146.03L148.645 144.395Z" fill="#E88A60"/>
<path d="M158.759 148.76L160.522 154.154L162.689 149.6L160.704 150.394L158.759 148.76Z" fill="#E88A60"/>
<path d="M169.744 148.696L170.744 154.281L173.518 150.059L171.443 150.579L169.744 148.696Z" fill="#E88A60"/>
<path d="M180.978 137.907L182.534 141.419L183.68 138.213L182.399 138.878L180.978 137.907Z" fill="#E88A60"/>
<path d="M27.114 115.271C25.0913 115.198 23.1583 115.701 22.1368 117.137C21.4426 118.113 20.7352 118.918 21.1613 120.048C21.6662 121.387 23.1503 121.426 24.5803 121.399C27.5406 121.341 28.2737 120.587 31.3522 120.088C32.59 119.887 33.4082 119.91 33.8017 120.748C34.0918 121.367 32.9197 122.501 31.274 123.276C28.53 124.568 19.2208 125.724 16.879 127.095C14.3773 128.56 12.623 131.676 13.4479 132.945C14.3192 134.286 17.0545 133.328 19.3686 132.831C24.6298 131.701 26.2646 129.806 31.1438 128.59C32.4534 128.264 34.6672 127.156 35.342 128.332C35.8306 129.184 33.9479 130.651 32.7882 131.923C31.3925 133.453 21.7582 134.53 19.4087 137.906C17.9939 139.938 16.0502 142.49 17.7722 144.311C18.8137 145.412 20.9767 144.724 23.2082 143.852C28.7682 141.679 32.9002 137.409 34.092 135.734C35.3145 134.015 37.8314 134.068 38.5586 134.585C39.379 135.169 38.0034 137.065 37.1445 138.626C35.8948 140.896 30.1963 143.776 27.6687 146.304C25.9474 148.025 23.1282 150.058 24.8204 151.848C25.8619 152.949 29.7381 152.304 32.5618 151.226C37.3144 149.412 39.4178 143.126 41.0222 141.384C42.2085 140.095 43.3075 138.684 44.6895 139.306C46.0715 139.929 42.0116 144.611 40.3812 147.416C40.3812 147.416 38.5806 150.461 40.277 151.667C41.9735 152.874 44.2328 151.237 44.7436 150.519L49.1701 144.295C52.0955 140.183 53.2617 137.496 56.6611 133.764C60.991 129.01 64.452 127.427 69.4899 123.424C74.9229 119.107 81.88 114.214 83.4844 112.472C85.0887 110.729 88.0811 106.009 88.5198 104.879C88.9584 103.749 88.3584 102.777 87.5303 101.652C86.7023 100.527 85.7471 99.9319 84.6221 99.5836C83.4971 99.2353 81.8581 98.3385 75.0601 100.712C68.2622 103.086 64.9566 105.894 58.1835 108.533L58.0614 108.581C52.3005 110.826 48.9997 112.112 42.9372 113.549C39.3656 114.396 37.3607 115.031 33.6897 115.262C31.0343 115.429 28.1815 115.309 27.114 115.271Z" fill="#E88A60"/>
<path d="M19.6558 117.536L14.9463 122.116L20.8362 122.045L18.967 120.389L19.6558 117.536Z" fill="#E88A60"/>
<path d="M11.6164 131.559L8.78735 136.479L13.6221 135.042L11.7029 134.099L11.6164 131.559Z" fill="#E88A60"/>
<path d="M15.1413 141.997L12.3123 146.916L17.147 145.479L15.2278 144.536L15.1413 141.997Z" fill="#E88A60"/>
<path d="M22.539 150.117L19.0582 154.598L24.0523 153.834L22.2772 152.64L22.539 150.117Z" fill="#E88A60"/>
<path d="M38.0744 151.246L36.5054 154.752L39.6546 153.458L38.303 152.951L38.0744 151.246Z" fill="#E88A60"/>
<path d="M125.385 34.3597C123.447 33.7782 121.449 33.7766 120.098 34.908C119.18 35.6768 118.292 36.2766 118.419 37.4778C118.569 38.9009 119.995 39.3138 121.385 39.6484C124.264 40.3411 125.164 39.7967 128.269 40.0911C129.517 40.2094 130.303 40.4388 130.472 41.3496C130.596 42.021 129.175 42.8223 127.387 43.1564C124.406 43.7133 115.107 42.4788 112.494 43.2137C109.704 43.9987 107.219 46.5702 107.696 48.0068C108.201 49.5241 111.089 49.2886 113.454 49.3925C118.83 49.6287 120.89 48.2082 125.918 48.2652C127.268 48.2805 129.69 47.7674 130.046 49.0764C130.303 50.0244 128.111 50.9677 126.667 51.9049C124.93 53.033 115.336 51.6409 112.21 54.3128C110.328 55.9216 107.802 57.9001 109.008 60.0968C109.738 61.4255 112.004 61.3064 114.384 61.0265C120.312 60.329 125.389 57.2416 126.966 55.9217C128.583 54.5679 131.005 55.255 131.578 55.9391C132.224 56.7111 130.414 58.1987 129.188 59.4912C127.406 61.3717 121.164 62.7189 118.08 64.5258C115.98 65.7562 112.738 67.011 113.923 69.1697C114.653 70.4984 118.566 70.8542 121.57 70.5247C126.627 69.9701 130.251 64.4202 132.243 63.1397C133.717 62.193 135.137 61.1048 136.317 62.0564C137.496 63.008 132.385 66.512 130.099 68.8142C130.099 68.8142 127.587 71.3051 128.924 72.9013C130.26 74.4975 132.86 73.4844 133.536 72.9187L139.391 68.0159C143.261 64.7757 145.068 62.4707 149.3 59.7189C154.691 56.2137 158.439 55.557 164.326 52.9565C170.673 50.1521 178.641 47.1765 180.633 45.896C182.626 44.6155 186.714 40.8046 187.424 39.8223C188.134 38.84 187.799 37.7478 187.282 36.4501C186.765 35.1524 185.992 34.335 184.991 33.7138C183.991 33.0925 182.631 31.8106 175.454 32.3897C168.277 32.9687 164.369 34.8503 157.149 35.6921L157.019 35.7073C150.878 36.4234 147.359 36.8336 141.13 36.6923C137.46 36.6091 135.36 36.7172 131.75 36.0128C129.138 35.5033 126.408 34.6665 125.385 34.3597Z" fill="#E88A60"/>
<path d="M117.597 34.6662L111.883 37.9077L117.599 39.3274L116.209 37.2526L117.597 34.6662Z" fill="#E88A60"/>
<path d="M106.274 46.2035L102.294 50.2482L107.335 50.08L105.717 48.6822L106.274 46.2035Z" fill="#E88A60"/>
<path d="M107.047 57.1927L103.067 61.2374L108.108 61.0693L106.49 59.6715L107.047 57.1927Z" fill="#E88A60"/>
<path d="M112.153 66.9186L107.653 70.3746L112.678 70.8974L111.262 69.2937L112.153 66.9186Z" fill="#E88A60"/>
<path d="M126.899 71.9369L124.495 74.9327L127.869 74.4768L126.689 73.645L126.899 71.9369Z" fill="#E88A60"/>
</g>
</svg>
