<svg width="212" height="205" viewBox="0 0 212 205" fill="none" xmlns="http://www.w3.org/2000/svg">
<path d="M80.9629 129.754C80.9655 129.756 80.9709 129.759 80.9735 129.762C80.9682 129.754 80.9602 129.746 80.9548 129.738C80.9575 129.746 80.9602 129.748 80.9629 129.754Z" fill="black"/>
<path d="M114.81 158.355C114.779 158.331 114.75 158.308 114.718 158.287C114.692 158.284 114.671 158.279 114.645 158.276C114.663 158.287 114.679 158.297 114.695 158.308C114.734 158.326 114.773 158.337 114.81 158.355Z" fill="black"/>
<path d="M210.326 94.3477C206.633 76.531 198.818 60.7587 186.611 47.3132C181.297 41.4598 174.57 36.7802 169.847 30.5407C166.618 26.2783 163.84 22.5237 158.42 21.5676C154.862 20.9405 152.424 18.7328 150.206 16.1184C148.858 14.53 147.013 13.2578 145.042 13.5946C140.901 14.302 138.673 11.9518 136.356 9.24924C134.944 7.60127 133.49 5.34698 130.834 6.25388C125.986 7.90962 121.965 2.54336 117.101 4.80543C116.951 4.87539 116.443 4.30793 116.176 3.97885C112.082 -1.09203 107.364 -0.965061 102.339 2.38529C99.8572 4.04104 97.406 4.09027 94.7448 2.90612C88.793 0.257963 82.981 -1.84087 77.6666 4.48931C76.6379 5.71492 74.0467 5.62941 72.1785 6.14764C71.9946 4.73287 70.9866 2.60295 67.1284 2.21687L57.8728 6.33161C53.372 9.03159 53.67 12.4726 53.1958 13.8278C52.6594 15.3618 51.2032 14.8435 50.076 15.0405C44.2693 16.064 38.0428 16.4475 34.9567 22.6532C32.5262 27.5402 29.2458 31.3647 24.2267 33.7486C19.3062 36.0884 14.3208 39.0604 13.3621 44.7791C11.8955 53.532 6.1535 60.8001 5.44612 69.7292C4.95121 75.9687 -1.52925 80.4929 0.33638 87.489C2.76688 96.6046 1.63195 106.075 5.41762 115.38C10.1231 126.944 11.6493 139.537 19.4461 150.236C26.9164 160.487 34.923 170.087 43.8443 179.016C45.2643 180.439 46.8527 181.211 48.91 181.18C52.009 181.133 54.3203 182.558 55.1962 185.569C56.0642 188.554 58.0672 190.492 60.806 191.112C66.0272 192.293 70.9711 192.705 75.1558 197.431C79.7214 202.585 88.0338 195.335 93.3974 200.948C93.5529 201.111 94.2473 200.878 94.623 200.691C97.3541 199.333 99.3856 200.751 101.446 202.29C102.316 202.94 103.384 203.94 104.272 203.857C111.323 203.189 118.749 206.112 125.453 201.518C126.676 200.678 129.238 200.406 130.412 201.129C134.563 203.684 138.592 202.531 142.577 201.347C149.18 199.382 156.637 199.419 161.288 192.76C162.628 190.842 165.727 190.762 168.276 190.645C169.717 190.58 171.375 190.661 172.541 189.987C183.155 183.864 191.843 175.73 199.137 165.783C211.028 149.57 210.732 130.712 211.976 112.113C212.129 106.112 211.543 100.217 210.326 94.3477ZM189.301 159.463C185.277 167.745 178.156 170.978 169.44 171.499C177.283 169.481 183.748 165.488 188.477 158.847C188.726 158.497 189.223 158.323 189.604 158.069C189.506 158.536 189.503 159.049 189.301 159.463ZM135.006 171.528C117.702 166.423 100.635 160.536 84.9477 151.444C70.9892 143.354 61.2646 132.16 62.4358 114.833C63.4541 99.7658 68.5768 86.5924 78.8404 74.7301C87.3886 64.8527 96.8307 58.6832 109.545 60.0072C121.96 61.3002 134.796 61.4116 146.397 67.2521C146.83 67.4697 147.407 67.3946 147.918 67.4542C144.192 64.0676 139.45 62.7564 134.773 61.9921C125.857 60.5384 116.863 59.2195 107.853 58.7894C95.859 58.2142 86.8444 63.5001 78.9518 72.9241C71.1369 82.2548 64.8741 91.8188 62.5628 103.79C59.7721 118.236 60.4355 131.925 71.7873 142.999C80.1489 151.156 90.2751 156.525 101.039 160.772C107.185 163.197 113.386 165.49 119.449 168.125C104.337 163.404 89.2179 158.613 75.9487 149.651C59.9613 138.851 56.2015 123.143 59.4223 105.285C62.7701 86.7323 73.6063 72.665 88.3266 61.65C98.5383 54.0061 110.654 55.0841 122.291 57.1181C131.959 58.8075 142.062 59.9399 150.022 66.8116C150.639 67.3454 151.302 67.8247 152.52 68.7835C150.473 68.1953 149.203 67.8325 147.936 67.4671C153.134 71.1932 158.332 74.9193 163.529 78.6454C164.123 79.0211 164.703 79.4253 165.255 79.8839C164.68 79.4719 164.105 79.06 163.529 78.6454C158.85 75.6915 153.043 74.9245 148.604 70.9833C146.101 68.7601 140.958 68.7187 137.004 67.9025C125.074 65.4383 113.139 62.4999 100.746 64.2412C94.5738 65.1092 89.3553 67.69 85.3416 72.437C76.7208 82.6357 67.7036 92.4899 65.5219 106.596C63.2287 121.428 69.0251 137.578 79.483 143.354C73.7254 137.278 68.4395 130.756 67.0584 122.28C64.5269 106.749 68.6883 92.9278 79.4882 81.449C84.3103 76.3211 87.5751 69.623 94.9703 66.9541C103.438 63.8966 111.885 65.2051 120.335 66.0524C135.949 67.6148 150.651 72.5147 163.618 81.221C175.27 89.0436 183.888 99.9005 189.355 113.012C189.902 114.323 190.159 115.756 190.402 117.168C186.881 109.506 183.059 102.124 175.967 97.0606C174.949 99.1958 174.296 97.1202 173.904 96.7212C165.208 87.8621 154.935 82.8067 142.627 79.915C132.467 77.526 122.74 72.8438 112.292 70.8046C122.918 72.6235 133.537 73.8181 143.971 77.2747C150.965 79.5911 158.072 81.1199 163.848 85.8488C168.087 89.3209 171.927 93.2853 175.944 97.0322C171.37 89.5541 164.955 83.8173 157.173 80.2596C145.28 74.8208 132.524 72.0872 119.527 70.4703C114.484 69.8432 109.512 68.9312 104.381 68.8923C96.3695 68.8275 90.4617 72.0353 85.0229 77.9665C80.1878 83.2369 74.4147 87.6755 71.6992 94.5317C64.2315 113.377 70.3725 131.637 88.7308 144.805C96.7659 150.568 105.122 155.88 113.585 161.565C101.3 157.204 90.4928 150.602 79.838 143.709C86.2122 150.775 94.7293 154.579 103.091 158.393C122.74 167.356 142.824 174.878 165.04 173.37C167.183 173.225 169.321 172.976 172.052 172.72C163.05 175.622 147.796 175.3 135.006 171.528ZM168.372 175.176C153.655 178.132 139.538 175.466 125.657 170.592C139.683 174.114 153.688 177.832 168.372 175.176ZM121.11 162.225C133.547 164.946 144.21 171.476 156.256 171.554C157.518 171.525 158.788 171.468 160.068 171.357C158.78 171.499 157.51 171.561 156.256 171.554C144.148 171.839 132.76 168.475 121.11 162.225ZM93.9701 135.018C94.2111 135.433 94.3121 135.93 94.4779 136.389C94.04 136.252 93.4622 136.249 93.1876 135.959C83.9216 126.115 74.2592 114.015 79.4804 98.2889C79.7032 97.6152 80.2085 97.0347 80.5842 96.4103C80.4754 97.0425 80.4417 97.7007 80.2422 98.3018C77.3971 106.866 82.3695 124.374 88.7438 128.18C86.0645 122.622 82.5457 117.437 81.0765 111.335C78.4906 100.605 86.9273 87.717 98.4865 84.548C112.909 80.5939 126.02 85.8384 139.668 89.396C154.308 93.2128 165.219 102.23 176.521 111.125C187.451 119.731 192.747 142.945 186.075 153.449C185.489 154.372 184.634 155.12 183.906 155.952C184.176 154.965 184.339 153.936 184.73 153.001C190.508 139.133 184.86 122.959 171.318 111.312C154.157 96.5502 133.573 91.2487 111.992 88.9244C97.507 87.3646 86.7641 96.2056 87.1735 107.972C87.316 112.053 89.547 115.497 91.0628 119.148C91.1639 119.394 91.7054 119.456 92.0423 119.606C91.9205 118.873 91.9594 118.062 91.651 117.422C89.2568 112.457 87.1165 107.498 89.3527 101.831C92.6149 93.5626 99.6628 90.2356 107.501 90.4791C133.596 91.2979 157.679 97.9313 176.065 118.096C182.548 125.206 186.585 133.448 185.704 143.714C183.911 137.682 182.979 131.5 178.019 127.227C171.272 121.552 163.91 116.994 155.712 113.59C143.834 108.659 132.127 103.207 119.055 102.484C114.559 102.235 109.781 101.997 105.765 104.992C128.567 102.256 136.024 107.099 146.775 111.506C137.937 109.283 129.021 107.495 119.954 106.542C116.749 106.205 113.684 105.922 110.924 108.374C105.091 113.553 109.906 117.733 112.606 121.233C119.907 130.694 128.909 138.49 138.458 145.709C143.583 149.586 148.408 153.729 155.904 154.758C152.147 154.981 148.615 154.102 145.174 152.312C131.682 145.295 119.584 136.625 111.077 123.661C110.587 122.915 109.665 122.456 108.944 121.863C114.497 132.241 123.216 139.457 132.495 146.349C144.187 155.035 156.909 158.269 171.163 155.68C172.979 155.351 174.938 155.045 175.957 153.118C173.632 152.998 171.782 155.292 169.279 154.447C183.536 145.453 183.515 140.351 169.186 121.894C181.442 129.569 183.51 139.058 175.98 153.097C180.444 151.363 182.499 145.44 181.88 136.104C187.956 148.417 181.579 157.302 166.185 158.341C154.66 159.119 143.635 159.24 134.327 150.329C131.106 147.243 125.012 148.402 121.517 144.738C116.412 139.39 111.455 133.904 106.4 128.509C105.236 127.266 103.936 126.149 102.7 124.975C104.021 126.869 104.985 129.222 106.726 130.582C113.994 136.262 117.441 146.349 127.046 149.065C131.92 150.443 136.105 152.415 139.675 155.81C139.836 155.944 140.002 156.066 140.157 156.211C140.188 156.235 140.217 156.258 140.245 156.281C154.313 162.604 167.994 161.033 181.426 154.234C181.706 154.092 182.046 154.071 182.357 153.993C182.313 154.392 182.367 154.833 182.212 155.183C181.087 157.727 179.408 160.404 176.692 160.593C165.167 161.391 153.504 162.954 142.427 157.88C141.624 157.512 140.961 156.836 140.243 156.284C140.207 156.268 140.17 156.255 140.134 156.237C139.984 156.087 139.826 155.955 139.673 155.81C133.993 151.008 126.269 153.193 120.011 150.345C119.695 150.2 119.229 150.379 118.832 150.407C119.032 150.749 119.148 151.242 119.444 151.402C120.426 151.933 121.54 152.848 122.488 152.724C131.498 151.552 137.934 157.336 145.373 160.645C153.471 164.247 162.389 161.668 170.899 162.526C171.518 162.588 172.124 162.772 172.736 162.899C172.22 163.195 171.738 163.651 171.186 163.759C158.36 166.348 145.526 168.517 134.135 159.388C130.389 156.385 126.269 158.492 122.356 158.012C116.466 157.289 112.194 154.556 109.929 149.226C106.978 142.281 99.5436 140.141 95.1465 134.783C93.2161 132.43 90.9048 130.385 88.7671 128.201C89.1713 131.492 92.5242 132.526 93.9701 135.018ZM93.2005 83.2835C99.041 79.7285 103.876 79.0651 108.633 79.1144C127.142 79.3035 144.933 82.9285 160.962 92.5339C165.123 95.0292 168.16 99.4082 171.684 102.953C171.992 103.264 172.065 103.811 172.249 104.248C171.821 104.046 171.308 103.938 170.982 103.632C154.365 88.1186 133.371 83.5323 111.963 80.0964C106.12 79.1584 100.495 80.7338 93.2005 83.2835ZM163.84 120.378C170.458 123.783 174.972 129.468 177.358 136.467C180.825 146.629 174.283 153.662 160.221 153.636C148.757 154.631 141.08 145.305 132.353 138.268C125.294 132.575 119.28 125.75 113.549 118.715C111.8 116.567 110.973 114.048 112.004 111.475C112.989 109.019 115.43 108.861 117.77 109.016C133.801 110.081 149.423 112.963 163.84 120.378ZM184.684 157.865C185.166 157.455 185.834 157.269 186.417 156.976C186.148 157.548 185.951 158.173 185.596 158.689C180.219 166.488 171.816 166.218 163.814 167.014C171.686 166.084 178.623 163.005 184.684 157.865ZM190.902 148.049C192.377 134.878 190.045 124.097 183.176 115.344C174.114 103.8 166.289 90.1449 150.929 85.7244C135.296 81.2261 119.721 75.2406 102.86 78.337C95.7917 79.6352 90.5109 83.7059 85.0073 88.243C79.1513 93.0703 77.7417 98.9729 76.8581 105.562C75.7854 113.59 79.6177 120.109 83.7221 126.442C89.4097 135.215 97.4811 141.488 105.959 147.334C107.086 148.111 108.227 149.438 108.545 150.713C109.429 154.273 111.605 156.574 114.645 158.279C114.668 158.282 114.691 158.287 114.717 158.289C114.749 158.31 114.777 158.336 114.808 158.357C120.169 160.883 126.466 157.634 131.619 160.837C142.881 167.833 155.233 169.053 168.023 168.105C170.818 167.897 173.581 167.234 178.022 166.511C163.848 172.453 151.271 170.779 138.95 166.503C131.695 163.985 124.408 161.723 116.982 159.829C116.184 159.626 115.526 158.885 114.811 158.359C114.774 158.341 114.736 158.331 114.699 158.313C114.681 158.302 114.666 158.292 114.65 158.282C112.546 158.134 111.033 156.836 109.631 155.491C100.357 146.606 89.0469 139.991 80.9781 129.766C80.9755 129.764 80.9703 129.761 80.9677 129.758C84.3155 136.412 89.9279 140.942 95.5662 145.489C99.3156 148.513 103.765 150.684 106.77 154.613C107.001 154.916 107.099 155.317 107.26 155.675C107.032 155.631 106.755 155.657 106.586 155.532C96.442 148.036 85.0047 142.287 77.3064 131.598C65.4208 115.098 67.6388 94.9722 83.4345 81.2624C84.8441 80.0394 86.1552 78.6972 87.7073 77.5338C83.1961 83.9132 79.1358 90.5025 75.5237 97.4649C69.59 108.907 72.6372 118.728 79.2239 128.369C79.6255 128.955 80.3743 129.305 80.9677 129.761C80.9651 129.756 80.9625 129.751 80.9599 129.745C80.9651 129.753 80.9729 129.761 80.9781 129.769C80.9807 129.771 80.9833 129.771 80.9859 129.774C79.4493 126.804 78.0604 123.749 76.3503 120.884C71.2613 112.359 73.671 104.311 77.6821 96.3248C82.2892 87.1521 86.4894 77.3938 96.5871 72.9682C103.886 69.7681 111.624 71.8462 118.944 73.844C133.122 77.7151 148.034 80.5395 160.599 87.9657C181.608 100.377 195.312 123.48 190.902 148.049ZM200.943 136.13C200.943 132.432 201.148 128.719 200.886 125.037C200.622 121.355 200.173 117.637 199.311 114.053C197.1 104.857 193.779 96.1486 186.871 89.2768C187.726 91.1114 188.581 92.9433 189.438 94.7778C187.684 93.8606 187.526 91.272 185.313 90.8341C188.451 97.1177 192.799 102.696 195.09 109.521C197.733 117.396 197.816 125.431 198.16 133.526C197.201 122.06 194.864 111.024 188.664 101.1C181.797 90.1086 173.166 81.0033 162.159 73.9165C154.59 69.0426 148.522 61.4246 139.517 59.2532C122.729 55.2033 105.153 48.6114 89.0029 59.616C66.2759 75.1033 53.0947 98.9833 58.1449 127.444C60.7412 142.077 71.2172 151.083 83.7325 157.1C102.785 166.262 122.597 173.678 143.448 177.801C151.214 179.337 159.104 179.946 166.994 178.28C157.572 180.724 147.962 181.164 138.678 178.589C124.053 174.531 108.877 172.74 94.5427 167.561C84.4761 163.923 75.0728 159.142 66.9392 152.066C65.9805 151.231 64.8326 150.617 63.7728 149.902C69.476 157.52 77.8402 161.37 85.9971 165.451C100.406 172.66 116.526 173.818 131.733 178.215C145.619 182.229 159.415 182.75 173.21 178.031C178.532 176.21 183.284 173.31 187.744 169.947C180.512 177.093 171.819 180.677 161.656 181.796C146.135 183.501 131.658 178.272 116.7 176.194C103.07 174.303 89.9072 171.484 77.9827 164.244C61.5134 154.247 50.6487 140.221 46.4821 121.215C45.881 118.474 46.8682 116.246 48.0757 114.079C52.8434 105.529 52.846 95.5941 55.8906 86.7116C64.8456 60.5851 90.3062 36.9097 121.361 44.7169C136.815 48.6036 153.015 53.0992 163.364 68.1486C164.211 69.3794 165.216 70.491 166.318 71.5275C168.466 73.1495 170.608 74.7768 172.687 76.474C175.685 78.5728 178.742 80.6794 181.222 83.3353C183.074 85.3202 184.129 88.0927 186.847 89.2535C184.018 83.4312 179.494 78.9459 174.254 75.5515C166.862 70.7631 161.615 63.8836 155.398 57.9525C155.157 57.7218 155.132 57.2684 155.005 56.916C155.292 57.0637 155.645 57.1492 155.86 57.3694C170.202 72.0302 188.884 82.672 197.03 103.067C201.337 113.846 201.834 124.851 200.943 136.13ZM206.812 112.079C203.879 96.5709 197.367 83.382 188.047 71.5456C186.795 69.9547 185.111 68.7057 183.629 67.2987C187.542 73.0433 191.706 78.635 195.307 84.5687C200.583 93.262 203.77 102.8 205.415 112.849C203.143 103.528 199.961 94.5731 194.859 86.3981C194.385 85.6389 193.602 85.074 192.962 84.4184C195.338 89.5178 197.714 94.6198 200.093 99.7218C196.618 94.6405 194.755 88.5798 189.879 84.4547C193.543 91.6426 198.114 98.364 200.386 106.262C202.091 112.185 203.539 118.067 202.873 124.032C201.415 98.2578 186.5 80.8582 166.683 66.1172C160.49 61.5101 156.155 54.1487 148.589 51.4435C134.542 46.4244 122.24 35.7878 106.275 36.9642C88.1478 38.3012 74.3421 48.0258 62.7286 61.3339C62.4255 61.6811 62.428 62.2978 62.2881 62.7901C68.1156 58.1079 72.6631 52.0187 79.1073 47.9791C93.9312 38.6899 109.281 34.4015 126.087 42.39C129.567 44.0432 132.48 46.8468 136.462 47.536C136.879 47.6086 137.214 48.1476 137.589 48.4714C137.1 48.4637 136.605 48.5077 136.125 48.4378C130.871 47.6811 126.88 43.8929 121.89 42.4885C101.438 36.7336 84.5046 43.2451 70.2378 57.8488C61.9824 66.3011 54.1804 75.7018 52.7009 87.7325C52.3899 90.2511 51.9028 92.7205 51.3224 95.1562C50.9881 97.5089 50.3714 99.7891 49.493 101.999C48.0213 107.143 46.4769 112.216 45.6789 117.404C43.9972 128.354 50.1875 138.428 56.8882 147.184C68.8696 162.84 85.1369 172.564 104.252 175.365C120.55 177.754 136.25 183.317 152.831 184.222C149.9 184.222 146.959 184.053 144.044 184.268C140.999 184.494 138.266 183.449 135.444 182.711C126.486 180.366 117.329 179.361 108.149 178.397C99.6525 177.505 91.8246 174.254 84.0045 171.051C82.9784 170.631 81.8772 170.4 80.8096 170.079C83.349 172.743 86.8496 173.564 90.0885 174.839C99.0902 178.386 108.452 180.335 117.277 180.589C98.6653 184.514 82.3099 178.218 67.9679 165.356C67.2346 164.7 66.1982 164.381 65.3042 163.907C71.4375 171.079 79.3223 175.699 87.8446 179.4C94.8096 182.423 101.889 183.359 109.553 182.343C117.469 181.294 125.359 183.048 133.039 185.18C146.314 188.865 158.99 185.857 171.593 181.903C173.28 181.374 174.905 180.646 177.814 179.529C172.567 183.45 167.595 184.685 162.713 185.636C155.707 187.002 148.55 188.417 141.474 188.344C136.232 188.29 131.081 185.434 125.766 184.67C119.117 183.714 112.44 183.973 105.718 185.434C94.5375 187.865 85.2172 182.25 76.1741 176.954C70.6472 173.717 65.7939 169.328 60.6402 165.457C66.7604 173.562 75.3138 178.353 84.2015 182.641C92.7263 186.753 101.365 188.445 110.973 185.973C119.892 183.678 128.901 185.657 137.341 189.072C142.181 191.031 146.71 188.329 151.955 189.171C143.627 190.855 136.229 192.303 128.336 188.259C122.882 185.463 116.039 186.761 110.222 188.282C100.92 190.718 92.5061 188.424 83.9423 185.675C79.6695 186.95 76.4021 184.159 73.2228 182.421C48.6043 168.96 29.1344 150.161 20.8868 122.936C13.7689 99.4341 18.6247 77.1062 35.0578 58.038C45.6607 45.7326 57.808 35.2333 72.7382 28.6284C95.0454 18.7613 116.992 20.0673 137.797 32.9453C149.229 40.0191 162.11 44.3697 172.762 52.9697C189.068 66.1327 199.927 82.6021 205.454 102.686C206.234 105.503 207.615 108.306 206.812 112.079ZM185.982 63.3317C175.247 51.0678 161.48 43.4446 147.153 36.3293C136.53 31.0538 126.738 24.2934 114.679 22.0132C97.0173 18.6732 80.5557 21.7023 65.3483 30.6599C48.625 40.5089 34.1586 53.1588 24.6724 70.3666C16.3289 85.5041 14.7172 101.852 18.3656 118.811C23.6101 143.188 39.6259 159.886 58.0335 174.813C68.6753 183.444 81.1491 188.417 94.4883 191.29C100.36 192.555 105.977 190.609 111.67 189.868C118.397 188.992 125.038 189.43 131.303 191.661C140.204 194.83 148.49 191.516 157.002 190.267C157.407 190.207 157.808 190.127 159.689 189.8C150.276 193.812 141.919 195.978 133.288 197.214C125.134 198.38 116.935 198.276 108.745 198.139C82.5302 197.701 60.4354 187.976 42.1523 169.076C27.5512 153.983 18.4174 136.28 14.2768 115.769C9.84071 93.801 15.3909 73.9321 27.2092 55.6722C41.5693 33.4843 62.7442 21.153 88.2229 15.6338C112.207 10.4386 134.262 16.3568 154.937 28.0843C180.906 42.815 199.855 63.3343 205.757 93.7621C205.988 94.9463 206.024 96.1693 206.252 97.3534C206.457 98.408 206.802 99.4341 207.084 100.473C202.334 86.7608 195.582 74.3 185.982 63.3317Z" fill="#F1D8C2" fill-opacity="0.7"/>
<path d="M163.527 78.6479C164.102 79.0599 164.677 79.4719 165.253 79.8865C164.701 79.4278 164.123 79.021 163.527 78.6479Z" fill="#F1D8C2" fill-opacity="0.7"/>
<path d="M140.235 156.284C140.204 156.261 140.175 156.235 140.147 156.214C139.989 156.066 139.826 155.947 139.665 155.812C139.818 155.957 139.976 156.09 140.126 156.24C140.163 156.255 140.199 156.268 140.235 156.284Z" fill="black"/>
<path d="M160.065 171.354C158.785 171.465 157.518 171.52 156.253 171.551C157.51 171.559 158.777 171.499 160.065 171.354Z" fill="black"/>
<path d="M97.5458 115.38C90.034 104.694 100.419 94.2544 110.869 94.9125C123.846 95.7287 136.048 99.574 148.102 104.064C155.207 106.71 161.783 110.431 168.328 114.198C167.67 113.418 167.16 112.379 166.33 111.9C147.933 101.271 128.52 93.661 106.915 94.0808C100.65 94.2025 96.0222 98.3717 94.2628 104.699C92.848 109.786 94.5219 114.178 98.2221 117.842C98.007 117.018 98.007 116.038 97.5458 115.38Z" fill="#F1D8C2" fill-opacity="0.7"/>
<path d="M125.834 29.6908C134.133 32.7199 140.328 39.2806 148.099 43.2762C158.36 48.5518 168.318 54.387 177.542 61.3831C176.939 59.305 175.14 58.3152 173.599 57.1155C164.693 50.192 153.828 46.3778 144.878 39.6978C127.673 26.8587 109.388 20.4948 88.0416 26.9805C78.1512 29.9862 69.5512 35.1529 62.2986 42.5325C64.8509 42.1154 66.4081 40.0968 68.2919 38.6717C85.878 25.3584 105.027 22.0961 125.834 29.6908Z" fill="#F1D8C2" fill-opacity="0.7"/>
<path d="M29.6009 106.834C30.8472 98.947 34.9361 91.7099 34.5966 83.4416C34.3271 76.9145 37.3795 71.5145 41.1963 66.4436C43.1915 63.7929 44.8757 60.9115 46.6999 58.1312C41.0279 63.3109 36.5426 69.4779 34.366 76.759C32.7621 82.1278 33.5913 88.2715 31.7515 93.5108C26.6003 108.182 25.8385 122.508 32.7699 136.708C36.001 143.326 39.3669 149.941 45.3343 154.685C44.785 153.726 44.3368 152.687 43.6708 151.819C33.4539 138.55 26.8569 124.182 29.6009 106.834Z" fill="#F1D8C2" fill-opacity="0.7"/>
<path d="M70.0927 178.166C63.6744 172.357 57.2562 166.547 50.8379 160.738C56.1212 167.802 62.3478 173.823 70.0927 178.166Z" fill="#F1D8C2" fill-opacity="0.7"/>
<path d="M46.7207 58.1053C51.903 52.923 57.0853 47.7407 62.2676 42.5584C55.9141 46.5695 50.6852 51.7052 46.7207 58.1053Z" fill="#F1D8C2" fill-opacity="0.7"/>
<path d="M103.817 47.4764C95.2608 47.8366 87.0883 51.3295 80.981 58.1079C84.8055 56.0091 88.5212 53.6771 92.4727 51.8529C110.227 43.6571 126.997 50.6273 143.547 56.0428C155.147 59.8388 161.097 71.854 171.531 77.7307C177.177 80.9126 180.276 86.8904 185.29 90.803C184.718 89.7847 184.22 88.7146 183.559 87.7584C180.52 83.3535 176.732 79.7725 172.687 76.4714C170.438 74.896 168.228 73.3231 166.318 71.5249C162.742 68.8223 159.158 66.1223 155.881 63.0829C141.536 49.7852 122.787 46.6784 103.817 47.4764Z" fill="#F1D8C2" fill-opacity="0.7"/>
<path d="M166.317 71.5275C168.227 73.3257 170.44 74.8985 172.686 76.474C170.608 74.7768 168.465 73.1495 166.317 71.5275Z" fill="#F1D8C2" fill-opacity="0.7"/>
<path d="M52.6777 106.324C50.5582 116.025 48.6925 125.175 52.9653 134.5C54.7532 138.402 55.8882 142.802 59.8526 145.354C59.5313 144.559 59.3214 143.694 58.8706 142.978C52.644 133.088 49.0423 122.843 52.8928 110.949C56.6707 99.2864 58.2098 86.9422 65.4624 76.4092C70.054 69.7396 76.0032 64.394 80.9549 58.1312C79.8796 58.7738 78.6566 59.2558 77.7523 60.0875C64.1332 72.6417 56.6215 88.2792 52.6777 106.324Z" fill="#F1D8C2" fill-opacity="0.7"/>
<path d="M58.1865 59.4346C50.2938 68.7083 42.7458 78.236 45.6427 91.8006C46.1946 94.3892 45.2385 96.7316 43.7952 99.1025C39.7271 105.782 34.6303 112.488 35.9855 120.806C38.1387 134.023 44.0595 145.476 54.5174 154.252C52.0454 150.962 49.3895 147.795 47.1378 144.362C38.9057 131.811 32.5419 118.992 42.0799 104.129C44.456 100.427 47.7027 96.9648 46.7906 91.9276C44.5026 79.2932 50.6825 69.7992 58.4922 61.0204C62.708 56.2812 67.2296 51.8166 71.6138 47.2277C65.8796 49.907 62.1069 54.8301 58.1865 59.4346Z" fill="#F1D8C2" fill-opacity="0.7"/>
<path d="M40.7144 96.5088C42.3183 94.6898 42.4065 92.324 41.6913 90.0931C39.4888 83.2265 40.5771 76.8083 44.1218 70.6983C45.9667 67.519 47.9126 64.3967 49.812 61.2484C42.9765 68.1124 37.9678 76.0801 39.722 86.0353C40.7559 91.9095 39.5795 96.0605 36.1877 100.745C28.4764 111.4 30.5157 122.848 35.1305 134.054C38.4109 142.02 42.9325 149.223 49.8249 154.672C46.9436 150.819 43.6217 147.217 41.2586 143.069C32.1092 127.009 27.1757 111.854 40.7144 96.5088Z" fill="#F1D8C2" fill-opacity="0.7"/>
<path d="M95.5714 28.5144C88.9925 29.6183 82.7763 31.7041 77.8298 36.5107C78.7212 36.192 79.6799 35.9925 80.4935 35.5364C98.3621 25.5268 115.736 27.6619 132.822 37.5835C136.815 39.9025 140.204 43.3488 145.023 44.1209C143.847 43.284 142.668 42.4496 141.494 41.6075C127.748 31.7586 112.93 25.5994 95.5714 28.5144Z" fill="#F1D8C2" fill-opacity="0.7"/>
<path d="M129.166 39.1123C116.516 32.0695 103.454 28.4911 89.5703 35.425C83.1572 38.6277 76.4539 41.5194 71.637 47.2096C74.9096 45.1807 78.19 43.1622 81.4548 41.1178C92.1744 34.4119 103.381 30.7843 116.14 34.7539C121.268 36.3501 126.03 38.6122 130.788 40.9805C130.254 40.3456 129.845 39.488 129.166 39.1123Z" fill="#F1D8C2" fill-opacity="0.7"/>
<path d="M162.48 56.6802C160.386 54.3508 157.634 52.2727 154.167 51.897C156.546 53.6667 159.085 55.2603 161.272 57.2425C167.035 62.4689 172.526 68.0035 179.097 72.266C174.542 66.0369 167.59 62.3678 162.48 56.6802Z" fill="#F1D8C2" fill-opacity="0.7"/>
<path d="M49.8352 61.2199C56.1136 54.9882 62.3919 48.7565 68.6703 42.5248C60.7698 47.1189 54.4474 53.3065 49.8352 61.2199Z" fill="#F1D8C2" fill-opacity="0.7"/>
<path d="M154.147 51.884C146.998 46.9038 138.46 44.9034 130.808 40.9985C137.543 46.8701 146.179 48.6606 154.147 51.884Z" fill="#F1D8C2" fill-opacity="0.7"/>
<path d="M51.338 86.9163C50.7965 82.8871 52.004 79.4927 54.1158 76.1838C56.9246 71.7788 59.5649 67.2651 62.2753 62.7979C56.3493 69.1281 50.5244 75.9298 50.0373 84.8097C49.602 92.7127 50.0502 100.432 45.21 107.332C41.0719 113.227 39.2478 119.44 41.9089 126.807C46.4874 139.48 52.7269 150.837 63.8637 158.942C63.3584 158.256 62.9438 157.476 62.3349 156.895C54.2816 149.195 48.353 140.105 44.2564 129.756C41.4865 122.754 40.7195 115.992 45.4147 109.397C47.1041 107.026 48.4671 104.557 49.488 101.992C50.1358 99.7295 50.768 97.4519 51.3173 95.1484C51.6956 92.4951 51.7189 89.751 51.338 86.9163Z" fill="#F1D8C2" fill-opacity="0.7"/>
<path d="M51.3198 95.1484C50.7705 97.4546 50.1383 99.7296 49.4905 101.992C50.3689 99.784 50.9856 97.5012 51.3198 95.1484Z" fill="black"/>
<path d="M130.954 134.301C133.361 136.547 135.05 139.719 138.569 140.641C133.571 135.205 128.635 129.714 123.551 124.358C120.91 121.578 121.291 119.803 124.73 118.168C135.641 112.978 145.796 116.365 155.772 120.891C162.558 123.97 169.041 127.574 173.355 134.067C175.791 137.734 176.957 141.457 175.027 145.722C172.93 150.35 168.673 149.977 164.672 150.314C169.567 149.044 173.005 146.355 173.298 140.996C173.674 134.119 169.554 129.779 164.069 126.882C154.398 121.778 144.161 120.353 133.503 123.646C130.889 124.454 130.044 125.908 131.853 128.186C134.257 131.215 136.688 134.251 140.215 136.109C137.997 133.624 135.758 131.158 133.566 128.647C131.881 126.719 131.643 125.296 134.76 124.602C145.726 122.161 156.189 123.019 165.704 129.427C171.469 133.308 173.998 140.18 171.041 144.538C167.253 150.125 161.871 149.788 156.295 147.332C155.601 147.026 154.805 146.945 154.056 146.762C154.722 147.459 155.388 148.156 156.228 149.029C149.361 148.039 144.456 143.318 138.595 140.659C143.104 148.181 164.426 154.556 172.052 150.399C177.037 147.681 178.678 143.131 176.602 137.83C172.881 128.333 164.75 123.503 156.028 119.653C146.819 115.587 137.476 112.177 127.077 115.696C119.358 118.308 118.503 120.811 123.971 126.672C126.321 129.196 128.443 131.956 130.954 134.301Z" fill="#F1D8C2" fill-opacity="0.7"/>
<path d="M143.018 127.351C140.041 128.572 139.362 130.258 141.199 132.901C143.114 135.653 145.044 138.395 146.967 141.141C147.985 141.989 149.006 142.836 150.025 143.683C152.294 144.45 154.564 145.225 156.839 145.982C163.335 148.137 170.191 146.184 171.233 141.893C172.225 137.801 166.818 130.73 161.957 129.758C164.333 132.318 166.952 134.697 169.025 137.483C171.5 140.804 169.546 144.67 165.387 145.277C156.362 146.593 145.36 140.157 141.93 131.577C140.968 129.173 142.767 128.74 144.316 128.258C150.377 126.377 156.197 127.605 161.933 129.74C158.793 125.898 149.289 124.783 143.018 127.351Z" fill="#F1D8C2" fill-opacity="0.7"/>
<path d="M152.076 131.834C155.8 130.642 158.78 132.756 162.138 132.886C160.373 130.792 157.971 130.235 155.424 130.326C152.351 130.437 148.337 130.318 147.519 133.627C146.91 136.086 149.669 138.439 152.623 139.229C152.123 138.566 151.711 137.806 151.107 137.26C148.508 134.902 147.545 133.285 152.076 131.834Z" fill="#F1D8C2" fill-opacity="0.7"/>
</svg>
