<svg width="327" height="661" viewBox="0 0 327 661" fill="none" xmlns="http://www.w3.org/2000/svg">
<g opacity="0.8">
<path d="M226.078 96.5506C226.068 96.5438 226.059 96.5452 226.05 96.5384C226.039 96.5746 226.027 96.6025 226.016 96.6387L226.078 96.5506Z" fill="#899764"/>
<path d="M260.27 158.606C260.271 158.614 260.271 158.614 260.27 158.606C260.211 158.366 260.065 157.774 259.842 156.845C259.695 157.147 259.8 157.696 260.27 158.606Z" fill="#899764"/>
<path d="M276.34 374.701C276.315 374.747 276.29 374.793 276.265 374.839C276.319 374.813 276.374 374.795 276.428 374.769L276.34 374.701Z" fill="#899764"/>
<path d="M201.525 106.942C201.54 106.889 201.558 106.844 201.572 106.783C201.544 106.813 201.509 106.853 201.481 106.883L201.525 106.942Z" fill="#899764"/>
<path d="M274.262 552.564C274.246 552.567 274.22 552.563 274.204 552.566C274.206 552.582 274.217 552.597 274.22 552.613L274.262 552.564Z" fill="#899764"/>
<path d="M272.172 552.557C272.16 552.534 272.157 552.518 272.145 552.495C272.127 552.49 272.103 552.494 272.085 552.489L272.172 552.557Z" fill="#899764"/>
<path d="M241.192 161.092C241.184 161.093 241.176 161.095 241.158 161.089C241.139 161.127 241.126 161.155 241.106 161.184L241.192 161.092Z" fill="#899764"/>
<path d="M237.415 164.697C237.421 164.78 237.417 164.848 237.431 164.929L237.514 164.83C237.48 164.778 237.448 164.742 237.415 164.697Z" fill="#899764"/>
<path d="M119.484 237.916C120.699 234.48 121.321 230.715 122.311 227.185C123.367 223.418 123.927 219.63 122.194 215.963C121.342 214.16 120.991 213.73 121.596 211.762C121.962 210.57 122.316 208.413 123.645 208.512C123.364 210.515 123.256 212.178 123.482 214.217C126.299 210.44 126.356 206.741 125.735 202.126C122.877 203.824 121.977 204.642 120.799 207.954C119.716 211 119.234 214.19 118.742 217.365C118.62 218.188 118.247 218.729 117.744 219.143C115.237 219.184 114.75 219.12 114.359 219.273C112.507 219.992 111.979 221.453 111.744 223.056L110.833 223.575C110.234 222.637 109.351 221.8 107.962 220.885C103.86 218.178 102.884 221.596 94.6787 212.101C92.6119 209.711 90.9037 208.076 89.4603 206.995C89.2046 206.539 88.7506 206.144 87.9841 205.87C87.6192 205.742 87.238 205.617 86.8502 205.502C86.511 205.378 86.1966 205.3 85.8974 205.261C83.3604 204.657 80.4641 204.383 78.1147 204.321L78.1061 204.415C75.9128 204.86 71.439 208.428 69.8137 210.484C67.7982 213.026 63.1444 212.069 59.4346 212.298C55.7249 212.526 38.5179 209.484 38.5179 209.484C37.3682 211.49 49.138 212.068 49.8566 213.586C50.5685 215.113 49.0165 213.843 43.9839 214.905C35.595 216.685 33.2138 215.97 33.4702 217.802C33.7265 219.635 40.9166 218.351 46.702 217.247C51.6302 216.303 51.7999 217.834 51.7999 217.834C51.7999 217.834 34.6946 225.457 31.8034 226.017C28.9121 226.577 28.0241 227.935 29.0797 228.617C30.1421 229.29 40.0491 225.414 41.9314 224.106C42.8759 223.447 45.4437 222.711 47.962 222.024C50.4573 221.351 52.9032 220.728 53.6942 220.288C55.2681 219.409 49.2534 224.943 48.0096 225.705C46.7659 226.467 40.4265 232.718 39.2522 233.968C38.0779 235.219 40.084 236.033 40.084 236.033L52.8893 226.664L60.9987 222.305C60.9987 222.305 60.1926 225.927 58.3887 228.107C56.5847 230.286 56.4636 234.289 55.9686 236.312C55.4816 238.335 58.6294 237.145 58.6294 237.145C58.6294 237.145 58.6294 237.145 59.4589 233.135C60.2885 229.124 64.7385 222.104 67.9401 218.852C71.1418 215.6 71.8215 216.423 77.1614 215.115C77.5217 215.026 77.8424 214.903 78.1359 214.768C79.9261 216.063 81.9296 217.763 83.5889 218.789C84.806 219.534 85.5402 219.672 86.3201 220.068C86.8426 220.569 87.3433 221.04 87.8206 221.473C88.2096 222.164 89.3237 223.604 89.3237 223.604C90.2747 225.681 89.5765 224.469 90.2747 225.681C91.3839 227.614 98.1016 236.487 99.907 237.821C100.55 238.292 100.987 238.407 101.304 238.309C102.906 240.431 104.674 241.93 106.805 242.314C106.848 242.373 106.883 242.425 106.926 242.484C106.942 242.432 106.951 242.388 106.967 242.335C108.1 242.511 109.339 242.384 110.716 241.858C110.928 241.779 111.13 241.693 111.324 241.609C111.717 242.558 112.487 243.282 113.895 243.593C113.489 244.557 113.043 245.629 112.596 246.693C115.189 247.663 118.832 239.759 119.484 237.916ZM117.977 233.208C117.98 232.798 118.06 232.492 118.183 232.245C118.356 232.749 118.324 233.088 117.977 233.208Z" fill="#899764"/>
<path d="M283.101 566.697C291.256 570.601 298.805 575.379 305.999 580.888C311.551 585.142 317.516 588.94 323.624 592.362C327.608 594.589 331.227 598.157 336.411 597.577C334.601 595.743 333.006 593.612 330.941 592.131C316.111 581.492 301.226 570.921 286.223 560.529C284.852 559.577 283.515 555.732 281.078 558.774C278.619 561.836 279.405 564.92 283.101 566.697Z" fill="#899764"/>
<path d="M350.217 306.129C350.195 306.149 350.175 306.178 350.146 306.2C350.155 306.207 350.165 306.213 350.174 306.22C349.205 308.494 348.883 311.355 345.447 311.385C341.39 322.05 332.783 329.226 324.478 337.259C326.117 337.179 326.829 337.145 327.542 337.111C327.189 337.858 327.03 339.038 326.456 339.289C318.8 342.717 314.423 352.186 304.257 351.183C302.642 351.025 302.016 353.205 303.005 354.976L303.013 354.974C306.041 355.901 307.551 353.331 309.687 352.137C311.147 351.32 312.761 350.434 314.374 350.3C320.967 349.747 311.88 352.401 315.617 352.66C316.239 352.158 317.276 351.124 318.495 350.366C321.805 348.297 323.349 344.453 326.049 342.19C331.464 337.663 337.345 333.88 340.805 327.353C341.977 325.143 347.211 323.803 345.293 321.453C342.354 317.857 345.441 316.703 346.459 314.804C348.106 311.734 350.196 308.904 352.093 305.973C351.457 306.06 350.829 306.146 350.193 306.233L350.217 306.129Z" fill="#899764"/>
<path d="M142.512 159.864C142.532 159.886 142.553 159.907 142.573 159.929C142.581 159.927 142.591 159.934 142.599 159.933L142.512 159.864Z" fill="#899764"/>
<path d="M135.632 184.123C136.335 182.238 136.043 180.912 137.146 179.023C138.186 177.245 138.842 175.853 136.941 174.31C142.245 174.643 141.074 171.219 140.468 167.687C139.897 164.357 145.608 162.925 142.575 159.937C134.484 158.334 134.017 163.833 132.755 168.613C133.236 167.41 133.853 166.316 134.982 165.566C136.728 168.313 133.284 175.022 132.182 178.246C132.046 176.483 131.911 174.721 131.776 172.959C131.636 174.82 127.541 176.986 132.099 178.486C132.099 178.486 132.1 178.494 132.092 178.495C129.749 180.411 127.733 181.96 126.987 185.021C126.579 186.687 125.657 190.647 126.721 191.945C127.385 190.217 128.05 188.489 128.118 188.31C132.312 188.981 132.151 181.957 135.632 184.123Z" fill="#899764"/>
<path d="M132.762 168.603C132.38 169.563 132.093 170.591 131.716 171.584C132.16 170.687 132.481 169.662 132.762 168.603Z" fill="#899764"/>
<path d="M300.886 357.594C294.354 359.722 289.292 364.121 282.145 369.153C285.988 368.075 287.882 367.541 290.579 366.781C288.637 368.651 287.38 369.858 286.124 371.073C287.543 370.447 289.04 369.941 290.373 369.163C294.962 366.484 299.506 363.739 304.014 360.932C304.526 360.616 304.709 359.758 305.044 359.148C304.737 359.302 304.431 359.465 304.125 359.619C303.76 358.072 303.386 356.519 303.021 354.972L303.013 354.974C302.313 355.882 301.787 357.302 300.886 357.594ZM296.625 363.128C295.05 364.048 293.475 364.969 291.9 365.889C291.737 365.626 291.567 365.372 291.404 365.109C292.935 364.179 294.467 363.25 295.997 362.312C296.205 362.593 296.412 362.865 296.625 363.128ZM304.094 359.633C302.307 360.206 300.527 360.771 298.741 361.344C298.704 360.992 298.619 360.323 298.636 360.32C300.452 360.058 302.27 359.854 304.094 359.633Z" fill="#899764"/>
<path d="M246.754 160.914C246.754 160.864 246.761 160.813 246.762 160.771C246.734 160.751 246.705 160.731 246.675 160.703C246.667 160.704 246.659 160.706 246.649 160.699C246.687 160.768 246.725 160.844 246.754 160.914Z" fill="#899764"/>
<path d="M248.651 164.803C248.925 165.364 249.19 165.918 249.465 166.479C249.24 165.676 248.961 165.141 248.651 164.803Z" fill="#899764"/>
<path d="M237.431 164.929C237.463 164.915 237.495 164.9 237.526 164.886C237.522 164.861 237.519 164.844 237.515 164.82L237.431 164.929Z" fill="#899764"/>
<path d="M241.219 161.147C241.208 161.131 241.205 161.115 241.192 161.091L241.107 161.192C241.146 161.168 241.179 161.162 241.219 161.147Z" fill="#899764"/>
<path d="M241.216 161.147C241.5 161.765 241.776 162.384 242.061 163.002C240.552 163.635 239.042 164.26 237.533 164.894C237.759 166.173 237.984 167.452 238.21 168.731C237.957 166.396 243.107 168.56 242.088 166.519C243.374 168.129 246.718 162.698 248.66 164.81C248.03 163.51 247.401 162.219 246.771 160.919C246.713 161.772 246.649 162.643 246.567 163.785C245.317 161.768 243.909 159.888 241.216 161.147Z" fill="#899764"/>
<path d="M327.424 364.725C330.563 362.16 335.675 359.464 336.569 355.484C333.388 356.771 330.204 361.163 326.535 360.299C325.796 362.266 327.027 364.887 327.424 364.725Z" fill="#899764"/>
<path d="M320.928 336.975C320.611 340.528 313.791 341.263 315.047 344.781C316.997 344.095 319.126 343.286 320.562 341.722C322.245 339.898 322.219 338.85 320.928 336.975Z" fill="#899764"/>
<path d="M274.276 552.553C274.262 552.564 274.22 552.613 274.22 552.613C274.267 552.596 274.301 552.599 274.348 552.582C274.323 552.578 274.304 552.565 274.276 552.553Z" fill="#899764"/>
<path d="M274.086 558.246C276.487 557.655 277.659 556.915 279.57 555.342C277.868 554.357 276.873 551.978 274.356 552.58C276.543 553.422 274.508 556.661 274.086 558.246Z" fill="#899764"/>
<path d="M128.52 199.073C129.487 198.543 129.427 196.117 129.834 194.542C129.041 194.682 128.247 194.822 127.745 194.911C128.348 195.205 126.561 200.136 128.52 199.073Z" fill="#899764"/>
<path d="M127.502 194.954C127.575 194.941 127.656 194.927 127.745 194.911C127.691 194.887 127.615 194.884 127.502 194.954Z" fill="#899764"/>
<path d="M142.512 159.864L142.608 159.939C142.62 159.912 142.64 159.883 142.652 159.856C142.602 159.857 142.562 159.864 142.512 159.864Z" fill="#899764"/>
<path d="M146.318 153.267C144.934 155.748 143.793 157.802 142.651 159.848C146.645 159.578 147.438 157.301 146.318 153.267Z" fill="#899764"/>
<path d="M146.592 147.953C146.615 147.94 146.638 147.928 146.662 147.924C146.661 147.915 146.659 147.907 146.666 147.898C146.639 147.886 146.613 147.882 146.578 147.872C146.574 147.897 146.588 147.928 146.592 147.953Z" fill="#899764"/>
<path d="M148.784 152.048C150.93 150.718 146.829 149.204 146.592 147.952C143.143 149.328 146.578 153.414 148.784 152.048Z" fill="#899764"/>
<path d="M276.455 374.639C278.892 373.257 281.331 371.884 283.77 370.511C280.995 371.351 277.174 370.572 276.455 374.639Z" fill="#899764"/>
<path d="M276.332 374.702L276.421 374.779C276.429 374.727 276.446 374.682 276.455 374.639C276.416 374.654 276.37 374.679 276.332 374.702Z" fill="#899764"/>
<path d="M310.912 375.14C312.32 374.65 313.846 373.12 315.087 372.251C313.099 371.207 310.106 373.838 308.249 374.867C309.532 375.225 309.802 375.528 310.912 375.14Z" fill="#899764"/>
<path d="M202.376 189.405C203.185 188.119 203.994 186.833 205.291 184.768C203.191 185.647 201.768 185.815 201.3 186.573C200.975 187.098 201.971 188.433 202.376 189.405Z" fill="#899764"/>
<path d="M225.876 83.2421C223.24 84.6834 223.282 85.8696 222.475 88.7749C223.255 88.3202 224.036 87.8735 224.817 87.4188C223.37 87.123 225.501 83.9092 225.876 83.2421Z" fill="#899764"/>
<path d="M218.611 102.293C220.831 100.391 226.239 102.025 224.981 96.2621C224.287 99.8569 220.614 100.154 218.611 102.293Z" fill="#899764"/>
<path d="M131.783 172.957C131.794 172.83 131.781 172.707 131.751 172.587C131.765 172.71 131.77 172.834 131.783 172.957Z" fill="#899764"/>
<path d="M199.27 105.002C197.605 105.838 196.524 107.047 198.117 108.645C198.372 108.909 200.249 107.568 201.42 106.919C200.176 106.871 199.151 106.601 199.27 105.002Z" fill="#899764"/>
<path d="M201.516 106.927C201.527 106.942 201.482 106.881 201.482 106.881C201.459 106.894 201.435 106.907 201.412 106.919C201.447 106.922 201.481 106.924 201.516 106.927Z" fill="#899764"/>
<path d="M282.137 261.686C282.156 261.699 282.169 261.722 282.181 261.745C282.188 261.735 282.194 261.726 282.202 261.724C282.183 261.711 282.137 261.686 282.137 261.686Z" fill="#899764"/>
<path d="M255.742 159.163C254.024 161.46 254.367 161.317 256.532 163.03C257.637 161.383 256.754 160.829 255.742 159.163Z" fill="#899764"/>
<path d="M307.025 356.128C307.214 356.395 307.404 356.671 307.593 356.938C309.168 355.825 310.742 354.713 312.309 353.602C312.136 353.382 311.974 353.169 311.801 352.949C310.21 354.014 308.617 355.071 307.025 356.128Z" fill="#899764"/>
<path d="M105.542 292.373C105.796 291.11 106.799 289.03 105.47 288.454C105.148 289.663 104.828 290.88 104.506 292.088C104.849 292.186 105.192 292.284 105.542 292.373Z" fill="#899764"/>
<path d="M272.173 552.557L272.085 552.489C272.054 552.594 272.013 552.694 271.981 552.799C272.041 552.714 272.111 552.634 272.173 552.557Z" fill="#899764"/>
<path d="M270.659 556.671C271.1 555.383 271.54 554.087 271.981 552.799C271.115 553.853 270.248 554.907 269.382 555.962C269.807 556.195 270.232 556.429 270.659 556.671Z" fill="#899764"/>
<path d="M279.326 368.849C278.722 369.164 276.203 370.084 276.536 370.743C276.869 371.402 279.17 369.953 279.78 369.671C279.631 369.396 279.474 369.123 279.326 368.849Z" fill="#899764"/>
<path d="M226.078 96.5506L226.016 96.6387C226.056 96.623 226.089 96.6172 226.129 96.6016C226.11 96.5879 226.089 96.5658 226.078 96.5506Z" fill="#899764"/>
<path d="M227.322 97.8359C228.192 97.3236 228.944 96.615 230.733 95.156C228.336 95.9126 227.212 96.2693 226.128 96.6106C226.552 97.0702 227.201 97.9074 227.322 97.8359Z" fill="#899764"/>
<path d="M269.737 396.882C269.496 397.55 269.273 398.182 269.183 398.432C269.227 399.017 272.223 398.747 269.737 396.882Z" fill="#899764"/>
<path d="M269.176 398.43C269.133 398.575 269.12 398.602 269.176 398.43Z" fill="#899764"/>
<path d="M234.542 96.5374C234.091 96.1578 233.641 95.7863 233.182 95.4082C232.759 96.3258 232.325 97.2706 231.593 98.8521C232.869 97.8507 233.706 97.194 234.542 96.5374Z" fill="#899764"/>
<path d="M356.675 6.12706C347.179 20.0541 345.63 53.9468 342.722 55.4029C339.821 56.8575 339.347 48.7699 337.634 44.3563C335.912 39.9441 333.425 29.3903 333.425 29.3903C329.019 33.2971 336.422 56.1465 337.182 61.4043C338.391 69.7296 330.251 74.9124 322.541 74.6694C315.705 74.4559 301.255 68.0563 299.96 76.7648C299.866 77.4157 299.791 78.13 299.743 78.898C298.962 79.1109 298.517 79.6651 298.432 81.316C298.29 84.062 298.573 86.808 298.821 89.5354C298.976 91.2692 299.82 94.0167 299.038 95.6485C297.823 98.1831 293.277 97.0316 293.008 100.242C292.704 100.079 292.398 99.9076 292.085 99.7457C293.296 98.4639 295.517 96.4278 296.208 95.3212C286.938 90.4955 277.178 85.2557 266.459 84.9087C263.864 84.8239 262.004 84.9848 259.5 84.2328C258.08 83.8071 256.967 83.4609 255.926 84.7127C255.218 85.5721 255.581 87.3944 253.958 87.2382C252.055 87.0562 252.552 83.6217 252.325 82.3346C251.879 83.4065 251.118 86.9544 249.274 86.5367C248.343 86.3253 248.271 83.4502 246.949 82.6816C243.097 80.4478 238.323 81.9324 234.3 83.5598C231.046 81.1623 229.387 82.882 227.816 83.4929C227.072 83.7743 226.917 85.5962 226.496 86.7137C230.087 87.9418 229.262 81.5602 234.137 83.6302C233.281 83.9816 232.45 84.3369 231.68 84.6645C233.217 86.1297 234.632 88.2838 237.487 87.3296C237.283 92.5155 227.423 88.1361 224.853 87.4375L224.841 87.4146C224.833 87.416 224.826 87.4255 224.81 87.4284C224.81 87.4284 224.81 87.4284 224.818 87.427C223.886 88.2507 222.954 89.0744 222.029 89.8967C220.374 85.2474 217.554 87.8649 214.815 88.5814C210.536 89.7031 205.092 87.9088 202.793 93.6308C194.43 94.1791 189.823 101.827 182.515 104.384C182.515 104.384 182.523 104.383 182.525 104.391C178.371 105.324 174.865 107.703 171.756 110.53C169.437 112.633 164.58 116.11 164.114 119.197C167.559 118.798 169.853 116.791 170.954 113.517C172.974 115.782 171.589 116.878 169.799 118.378C168.351 119.594 167.226 121.311 165.637 122.342C163.883 123.478 162.116 122.98 160.298 123.609C158.157 124.354 156.466 126.697 155.128 128.394C151.867 132.541 148.716 136.836 145.628 141.111C142.31 145.694 138.609 150.996 138.062 156.751C140.888 155.251 141.323 152.979 142.741 150.175C144.152 147.381 146.088 144.953 147.875 142.393C151.04 144.998 146.443 145.925 146.675 147.904C149.426 148.729 151.646 150.517 155.035 147.757C157.999 145.34 153.621 145.569 154.501 143.453C155.85 140.21 158.66 140.324 160.471 138.611C160.472 138.619 160.466 138.628 160.467 138.637C163.676 137.937 164.976 136.122 163.82 132.879C169.895 133.894 169.738 128.029 172.225 125.129C172.703 124.569 171.699 123.611 171.163 124.74C169.502 128.205 166.832 130.637 163.71 132.681C164.263 127.768 168.294 124.862 171.325 122.107C177.313 116.661 184.387 112.393 191.103 107.761C193.159 106.347 195.554 105.432 197.717 104.158C201.206 102.107 203.11 102.055 201.605 106.786C202.685 105.66 203.597 104.106 204.909 103.591C211.547 100.976 218.298 98.6676 225.01 96.2403C225.012 96.2483 225.013 96.2565 225.015 96.2646C225.013 96.2565 225.02 96.2469 225.019 96.2388C225.371 96.3436 225.722 96.4402 226.075 96.545C227.57 91.2901 231.034 96.5804 233.271 95.2929L233.188 95.391C233.197 95.3976 233.207 95.4043 233.218 95.4191C233.223 95.4015 233.236 95.3824 233.241 95.3648C234.707 94.6306 236.165 93.8978 237.631 93.1636C235.883 99.8318 245.354 94.0052 247.712 97.6207C248.778 97.316 250.949 96.6995 253.129 96.0815C252.697 97.3262 249.312 98.9245 251.687 99.4155C253.837 99.8627 254.377 97.4805 254.908 96.0348L254.916 96.0334C256.326 98.489 258.174 97.554 260.337 97.0307C262.899 96.4037 265.66 96.5761 268.335 96.3966C267.3 99.1998 264.814 96.8922 263.269 97.8407C262.613 98.2402 262.064 98.8211 259.887 100.64C266.281 97.3013 269.409 101.874 273.493 102.156C273.509 102.153 273.527 102.158 273.551 102.154C273.117 104.334 274.856 104.111 276.151 104.492C276.874 104.706 277.516 105.219 278.191 105.593C277.436 105.951 276.63 106.686 275.93 106.601C268.165 105.616 261.314 100.965 252.929 101.767C246.358 102.4 239.014 99.3967 233.088 101.318C221.184 105.186 208.647 106.128 197.035 112.174C181.972 120.013 170.227 130.422 161.049 144.26C157.738 149.259 154.521 154.316 151.324 159.396C147.202 165.957 143.818 172.863 141.46 180.282C138.952 188.177 134.933 195.321 133.822 204.039C133.089 209.777 128.347 215.663 126.972 222.123C124.11 235.54 119.495 248.398 113.992 260.911C113.098 262.947 114.931 267.039 110.439 267.046C109.931 265.634 108.187 264.272 110.024 262.704C113.01 260.175 113.823 256.968 113.915 253.179C113.95 251.671 114.236 250.736 112.542 250.884C111.728 250.961 110.925 250.81 110.156 252.557C108.838 255.552 111.399 259.465 110.531 259.61C102.179 261.033 103.829 269.681 99.6733 274.011C98.6997 275.026 98.9916 277.345 98.9455 279.072C98.933 279.475 99.9972 280.347 100.407 280.258C111.549 277.893 112.152 283.112 108.845 291.591C107.504 295.024 104.056 295.407 101.732 297.385C101.645 297.459 100.679 296.862 100.706 296.682C101.473 292.365 98.3205 287.938 101.159 283.573C101.619 282.866 104.448 282.05 102.372 281.072C101.187 280.513 98.8918 282.32 97.0934 283.063C98.665 286.007 95.2221 287.75 95.3225 290.261C95.7955 302.18 92.4687 314.101 96.3755 326.074C99.4349 335.466 100.767 345.439 105.579 354.206C105.371 354.877 105.767 355.7 107.361 357.164C107.361 357.164 108.992 360.582 115.497 359.109C127.228 356.44 137.413 337.701 141.766 326.2C146.344 314.083 154.542 298.807 154.583 291.889C154.619 285.89 155.378 275.982 152.287 273.422C151.852 272.089 151.688 270.69 152.346 269.114C152.633 268.42 152.859 267.713 153.066 266.992C156.619 269.095 161.668 268.413 167.168 267.443C175.633 265.951 176.79 267.157 179.85 268.504C182.919 269.849 191.137 270.987 196.078 272.245C196.078 272.245 196.785 272.137 197.555 271.433C197.723 271.579 197.884 271.734 198.03 271.9C196.714 273.059 195.915 279.326 195.785 282.946C195.618 287.258 191.21 289.212 188.284 291.939C185.357 294.667 169.341 302.499 169.341 302.499C169.57 305.597 179.64 298.48 181.125 299.795C182.616 301.102 180.581 300.643 177.055 305.229C171.169 312.869 168.784 313.598 170.076 315.574C171.368 317.549 176.554 311.293 180.677 306.159C184.191 301.792 185.23 303.47 185.23 303.47C185.23 303.47 175.594 323.707 173.533 326.274C171.472 328.841 171.539 331.024 172.817 331.116C174.094 331.208 179.996 320.11 180.778 317.343C181.168 315.955 182.853 313.388 184.54 310.92C186.204 308.473 187.862 306.128 188.247 305.092C189.034 303.016 187.32 313.476 186.745 315.189C186.17 316.901 184.609 328.411 184.378 330.655C184.147 332.899 186.277 332.523 186.277 332.523L191.337 313.094L195.463 302.626C195.463 302.626 196.93 307.392 196.729 311.133C196.519 314.867 198.78 319.635 199.571 322.325C200.363 325.015 202.263 321.533 202.263 321.533C202.263 321.533 202.263 321.533 200.586 316.287C198.909 311.041 198.448 299.896 199.174 293.975C199.901 288.055 200.952 288.57 204.585 283.498C204.927 283.02 205.168 282.544 205.326 282.065C206.123 280.998 206.442 279.348 206.771 278.088C209.774 266.65 204.064 258.233 192.637 255.24C187.426 253.872 180.399 252.574 176.253 250C176.167 249.94 176.083 249.888 176.007 249.834C174.742 249.006 173.763 248.052 173.229 246.919C169.467 238.893 175.578 229.403 178.061 220.652C178.529 219 182.468 219.123 180.974 215.956C179.551 216.792 178.127 217.619 176.825 218.382C177.933 210.358 183.971 202.967 188.844 204.361C187.004 202.549 185.438 200.68 187.66 198.594C188.842 197.484 190.568 196.946 192.048 196.151C192.238 197.227 192.429 198.312 192.632 199.462C196.359 197.961 189.324 190.363 197.689 191.575C196.342 190.569 195.476 189.921 194.601 189.266C195.587 189.225 196.576 189.193 197.679 189.149C195.397 186.296 197.319 185.498 199.679 183.913C202.868 181.773 211.875 184.826 207.876 175.599C209.682 175.33 208.516 171.696 211.283 172.519C211.283 172.519 211.283 172.519 211.275 172.52C211.775 173.793 223.866 175.008 224.444 173.453C225.609 170.352 226.938 166.662 226.001 165.851C225.533 165.282 227.196 165.757 228.771 163.417C230.547 164.632 230.081 159.856 232.308 162.118C235.025 164.877 230.037 164.204 230.797 165.197C232.958 168.029 223.917 167.245 229.167 170.45C231.769 172.037 228.807 168.786 230.705 168.226C233.7 167.356 237.077 165.383 234.639 160.889C235.566 162.169 236.502 163.448 237.428 164.721C237.154 162.031 238.485 160.912 241.17 161.123C242.763 157.703 244.732 159.301 246.689 160.734C250.797 161.295 254.161 156.219 258.584 158.945C258.557 157.514 258.524 155.859 258.42 151.003C259.054 153.604 259.533 155.564 259.848 156.878C260.591 155.361 267.933 160.335 267.748 156.637C268.757 157.335 270.456 157.878 270.644 158.755C271.215 161.425 268.19 159.755 267.376 161.017C266.471 162.42 265.491 163.778 264.651 165.22C264.626 165.266 266.097 166.409 266.227 166.295C268.136 164.664 271.756 162.549 271.945 161.873C273.787 155.121 278.81 161.63 281.37 159.242C281.631 159.772 281.94 160.294 282.121 160.846C282.156 160.949 281.759 161.302 281.512 161.371C278.876 162.103 276.285 163.745 272.759 160.853C274.737 164.869 279.687 165.849 279.996 165.469C282.454 162.448 284.47 166.258 286.534 165.46C286.497 167.144 286.621 168.842 286.404 170.499C285.766 175.269 284.951 180.02 284.296 184.784C283.444 191.036 284.847 199.469 282.345 203.182C276.408 211.999 288.583 215.87 285.313 222.715C285.662 222.846 286.087 223.171 286.353 223.074L291.805 235.659C291.705 236.136 291.566 236.72 291.375 237.438C291.09 237.672 291.038 238.181 291.001 238.681C290.027 241.306 288.562 240.571 284.586 244.644C280.328 249.009 279.032 249.238 277.263 250.81C275.494 252.382 277.618 251.924 279.815 251.929C282.013 251.934 281.792 250.637 284.831 249.634C286.598 249.047 287.501 248.721 286.396 249.65C284.821 250.287 283.581 251.307 282.499 252.516C281.861 252.97 281.148 253.472 280.338 254.04C272.299 259.698 278.275 255.272 273.122 260.813C267.968 266.354 267.713 264.905 267.18 266.81C266.646 268.707 268.429 267.216 271.019 266.083C273.609 264.95 275.555 262.579 278.794 260.439C280.715 259.165 282.495 258.033 283.693 257.438C284.076 257.713 284.578 257.675 285.13 257.485C285.044 257.709 284.882 258.022 284.655 258.395C283.229 260.016 282.078 261.396 282.173 261.746L282.342 261.616C282.295 261.683 282.239 261.743 282.184 261.811C282.175 261.804 282.173 261.796 282.164 261.789C281.859 262.144 280.797 263.182 280.114 264.187C278.822 265.575 277.391 266.929 275.961 268.008C271.173 271.598 271.647 271.206 267.843 276.35C264.04 281.494 264.073 281.255 264.374 282.537C264.675 283.82 269.136 279.653 271.913 277.594C274.69 275.535 281.346 268.235 284.536 265.394C287.727 262.553 288.95 260.534 290.039 261.361C290.31 261.572 290.116 262.457 289.654 263.724C289.465 264.166 289.293 264.614 289.13 265.06C287.5 268.986 284.474 274.937 283.795 277.627C282.777 281.655 277.241 299.758 276.405 302.551C275.57 305.344 276.73 304.013 277.318 303.75C277.644 303.609 279.673 299.103 281.62 294.754C281.828 294.417 281.994 294.079 282.057 293.775C283.446 290.659 284.719 287.789 285.194 286.887C285.851 285.636 286.313 283.143 286.812 280.576C287.675 277.369 288.675 274.229 289.888 271.211C292.472 266.207 297.131 258.574 300.493 255.519C304.899 251.521 304.953 252.296 306.303 252.375C307.653 252.454 307.226 254.958 308.522 261.407C309.818 267.856 309.172 264.197 311.831 270.797C314.49 277.398 313.287 270.148 313.099 269.08C312.929 268.117 310.444 246.779 309.35 239.151C309.406 237.388 309.15 235.364 308.634 233.009C307.219 226.498 308.402 219.186 304.661 213.035C301.202 207.344 297.14 201.641 303.363 195.77C306.392 192.916 302.04 189.451 304.203 188.41C311.802 184.758 310.411 177.575 311.4 171.533C311.901 168.457 313.928 166.781 315.679 166.764C322.257 166.698 326.827 171.209 331.694 175.267C331.358 174.266 331.107 173.501 330.856 172.743C331.518 172.944 332.645 172.987 332.77 173.366C334.559 178.726 340.472 179.628 343.64 183.618C349.037 190.404 354.989 196.641 355.791 205.973C356.067 209.146 357.255 212.425 360.959 213.633C361.217 212.161 361.483 210.686 361.741 209.214C362.43 211.604 364.862 214.172 361.345 216.153C360.737 216.494 358.792 215.268 358.698 216.962C358.526 220.155 358.878 223.382 359.01 226.597C360.176 226.291 361.335 225.903 362.522 225.719C363.171 225.613 364.458 225.853 364.463 225.928C364.447 227.116 364.35 228.318 364.06 229.471C364.008 229.697 362.944 229.96 362.568 229.767C361.142 229.025 360.072 229.306 360.305 230.767C361.345 237.378 359.851 243.776 359.086 250.237C358.852 252.223 359.79 253.519 361.936 253.658L361.937 253.666C361.89 256.854 359.722 259.056 358.55 261.833C357.972 263.196 357.319 265.13 357.242 266.638C357.166 268.145 357.12 267.836 358.385 268.715C359.467 266.463 360.302 263.811 362.166 262.114C362.631 265.938 358.594 269.755 356.763 273.016C354.793 276.526 355.137 279.279 354.443 283.015C353.335 289.003 347.15 293.757 349.307 300.263C355.109 298.113 351.609 301.76 351.408 303.557C351.323 304.306 351.886 305.133 352.186 305.932C354.536 304.766 354.23 302.224 355.427 299.159C355.655 301.447 355.777 302.661 355.867 303.597C356.819 303.312 357.779 303.026 358.731 302.741C358.099 303.612 357.356 304.419 356.854 305.359C352.644 313.221 351.558 322.594 345.382 329.492C341.984 333.287 338.359 336.881 334.832 340.566C335.072 340.791 335.314 341.024 335.562 341.247C336.844 340.178 338.125 339.109 337.753 339.417C337.32 339.518 338.154 344.438 333.081 342.903C328.715 341.587 334.249 346.829 332.153 346.022C327.483 344.216 327.311 348.545 325.229 350.097C321.826 352.633 317.331 354.895 315.797 358.371C314.587 361.121 313.446 362.232 310.847 364.068C311.519 362.196 311.834 361.331 312.148 360.458C310.891 360.955 309.46 361.224 308.411 362.002C306.077 363.732 304.127 366.029 301.68 367.545C294.834 371.774 287.706 375.543 280.902 379.823C275.639 383.129 272.339 390.088 264.505 388.431C267.968 383.964 272.735 381.062 277.253 377.837C276.19 378.158 275.126 378.471 274.064 378.792C274.794 377.486 275.525 376.188 276.256 374.883C275.058 375.386 273.828 375.895 271.838 376.73C272.995 375.241 273.565 374.498 274.144 373.753C245.062 394.213 224.098 419.644 222.077 457.067C220.338 489.266 228.614 517.395 253.455 539.197C253.921 539.048 254.017 539.023 254.11 538.982C259.094 537.168 255.829 540.156 256.089 541.821C256.69 545.655 259.972 536.321 260.419 542.41C260.511 543.687 258.162 545.145 256.943 546.52C268.665 539.111 266.633 547.95 266.46 554.315C270.777 549.431 270.814 549.399 272.141 552.521C272.829 552.541 273.511 552.571 274.199 552.592C272.436 547.611 266.739 543.866 263.206 539.84C259.411 535.51 255.927 530.908 252.802 526.067C230.562 491.686 230.955 446.078 256.272 413.503C254.61 415.299 252.972 417.14 249.401 417.119C252.054 415.349 252.415 411.471 256.234 412.951C254.191 408.045 260.927 411.055 260.803 407.889C260.559 401.58 266.957 400.635 269.771 396.792L269.749 396.813C269.729 396.841 269.695 396.881 269.695 396.881C269.704 396.888 269.714 396.894 269.725 396.909C269.728 396.883 269.742 396.864 269.746 396.838C274.921 392.796 279.853 388.371 285.351 384.831C290.077 381.794 295.462 379.793 300.555 377.317C302.009 376.61 301.037 374.319 303.486 373.762C306.858 372.992 310.138 371.321 313.131 369.491C317.738 366.675 322.061 363.392 326.505 360.314C326.513 360.312 326.522 360.319 326.53 360.317C326.529 360.309 326.536 360.3 326.536 360.3C326.536 360.3 326.536 360.3 326.527 360.301C335.466 355.386 339.688 343.566 351.718 343.114C352.274 343.091 352.83 342.075 353.315 341.464C362.316 330.27 369.081 317.768 375.765 305.088C384.777 287.991 389.119 269.748 391.128 250.873C392.476 238.199 392.184 225.505 390.726 212.691C389.157 198.963 384.599 186.612 378.627 174.436C375.017 167.085 370.175 160.561 366.01 153.608C360.553 144.496 352.799 137.467 344.501 131.902C335.341 125.755 327.445 112.19 328.404 100.954C328.661 100.708 328.725 100.547 328.447 100.537C328.463 100.434 328.468 100.325 328.482 100.214C328.838 98.2063 330.65 96.3093 330.473 94.2623C335.687 90.1546 343.622 89.3062 349.131 88.7188C351.588 89.7212 353.718 88.728 355.571 87.6333C362.803 86.116 383.139 84.2581 384.156 81.7416C385.25 79.0365 378.449 81.4876 370.313 81.6702C364.797 81.7915 356.644 82.3527 354.155 79.7951C353.941 78.5809 353.912 77.1839 354.119 75.5616C354.432 74.9721 354.836 74.325 355.372 73.6212C362.012 64.9052 367.848 46.2817 367.848 46.2817C382.721 25.4304 388.809 17.1373 388.34 16.2768C387.871 15.4164 364.905 42.0933 363.35 43.9365C361.788 45.7811 355.041 59.524 352.64 58.0778C350.238 56.6316 351.441 54.8336 351.688 49.1311C351.902 44.3276 352.363 38.1785 352.229 33.7702C352.261 33.6225 352.295 33.483 352.327 33.3354C352.453 32.7707 352.178 32.1098 352.095 31.4984C351.639 27.1553 361.008 -0.229128 356.675 6.12706ZM161.088 134.437C160.879 135.81 160.669 137.174 160.459 138.546C159.91 138.509 159.361 138.473 158.81 138.428C159.27 136.961 159.383 134.337 161.088 134.437ZM187.922 104.215C188.793 106.023 186.147 106.507 184.651 106.737C182.063 107.127 181.831 111.633 178.334 110.23C179.728 108.281 181.131 106.339 182.533 104.39C183.236 104.683 183.985 105.285 184.619 105.182C185.804 104.99 186.839 101.953 187.922 104.215ZM202.77 93.685C202.763 93.6946 202.764 93.7027 202.758 93.7122C203.989 93.2113 206.761 92.8728 205.764 95.0851C205.091 96.5726 200.408 97.0143 199.073 97.35C200.367 96.162 201.597 94.9935 202.77 93.685ZM260.398 89.6083C257.767 89.2792 257.375 88.2383 257.34 85.7656C261.112 87.3622 263.268 88.2674 265.425 89.1808C263.78 90.0802 262.328 89.8521 260.398 89.6083ZM255.029 95.9635C256.067 95.5969 257.096 95.2316 258.134 94.865C258.061 96.3468 256.389 95.9573 255.029 95.9635ZM112.823 281.09C113.823 280.271 114.823 278.693 116.282 279.062C117.418 279.345 118.897 281.246 118.13 282.341C116.698 284.355 113.367 283.039 112.823 281.09ZM109.759 306.72C109.197 307.278 107.17 309.99 106.373 309.971C105.854 309.963 105.3 309.192 104.915 308.901C104.368 304.9 107.132 305.656 109.759 306.72ZM114.716 299.97C115.567 298.593 117.559 296.439 119.164 297.442C117.573 300.309 116.101 302.948 114.63 305.594C112.984 304.073 113.566 301.834 114.716 299.97ZM125.021 280.542C132.888 278.362 128.755 287.746 127.758 291.236C126.575 290.635 125.996 290.67 125.537 289.298C125.045 287.833 125.785 287.719 126.204 286.735C126.447 286.167 127.112 286.433 127.016 285.607C126.902 284.626 125.539 284.432 124.792 284.455C122.601 284.533 123.077 285.576 123.158 287.172C123.322 290.424 122.63 292.749 121.64 295.803C120.892 294.358 120.144 292.912 119.389 291.468C118.466 287.04 120.227 281.872 125.021 280.542ZM114.94 285.85C119.813 284.732 115.096 290.096 117.28 291.255C118.346 294.364 117.212 296.225 114.451 297.188C112.421 297.896 111.178 296.863 110.926 294.963C110.416 291.122 111.601 286.614 114.94 285.85ZM107.358 296.185C108.94 295.964 110.502 297.341 110.909 299.031C111.475 301.393 109.543 302.084 107.558 302.292C103.159 304.387 102.664 296.845 107.358 296.185ZM98.0823 312.402C99.9081 310.394 95.5147 306.603 99.8174 305.711C100.647 305.539 102.16 308.669 102.523 309.165C103.85 313.613 100.405 312.359 99.7195 313.824C99.1755 313.344 98.633 312.872 98.0823 312.402ZM112.155 314.294C109.985 312.456 108.318 314.937 105.588 314.375C108.154 313.063 109.704 311.003 112.12 312.013C113.347 312.531 112.666 314.729 112.155 314.294ZM132.345 319.239C131.542 322.878 131.21 326.634 129.696 330.08C128.63 331.846 127.597 333.664 126.604 335.467C125.82 336.657 125.018 337.841 124.271 339.05C124.033 338.933 123.795 338.816 123.549 338.701C126.554 332.245 129.585 325.802 132.345 319.239ZM112.161 334.366C113.109 334.007 116.209 332.359 116.829 333.034C117.285 333.538 113.257 335.183 112.625 335.478C112.468 335.113 112.319 334.739 112.161 334.366ZM116.207 340.071C116.571 339.147 117.741 338.54 118.545 337.789C118.561 338.83 118.627 339.87 118.578 340.913C118.4 344.5 113.839 347.859 115.651 351.554C112.613 352.982 110.708 350.756 109.27 350.651C113.109 348.171 114.61 344.134 116.207 340.071ZM231.618 501.274C231.365 501.36 231.122 501.445 230.869 501.531C230.439 500.18 230.001 498.83 229.572 497.486C229.793 497.414 230.012 497.334 230.225 497.263C230.693 498.591 231.155 499.928 231.618 501.274ZM229.835 494.385C229.522 494.457 229.21 494.537 228.897 494.609C228.078 489.962 227.259 485.316 226.522 481.139C227.546 485.24 228.695 489.812 229.835 494.385ZM230.596 441.626C229.653 440.824 228.718 440.021 228.504 439.85C228.514 439.907 233.133 435.979 230.596 441.626ZM231.826 432.779C232.866 430.2 233.905 427.613 234.945 425.034C234.271 427.699 233.587 430.357 232.868 433.004C232.863 433.022 232.182 432.858 231.826 432.779ZM235.206 424.379C236.593 420.404 237.816 416.307 243.867 412.728C239.71 417.526 240.106 422.664 235.206 424.379ZM263.384 384.823C265.046 383.687 268.22 380.465 270.178 381.246C268.024 382.953 266.163 385.568 263.384 384.823ZM247.852 400.04C249.614 398.477 249.743 398.07 251.979 398.819C250.166 400.283 249.861 401.254 247.852 400.04ZM241.092 409.403C242.277 407.883 243.456 406.373 244.641 404.854C244.933 405.086 245.223 405.311 245.507 405.544C244.263 407.016 243.017 408.479 241.773 409.95C241.54 409.766 241.316 409.58 241.092 409.403ZM243.636 411.608C243.442 411.359 243.255 411.108 243.06 410.85C243.849 410.21 244.639 409.579 245.437 408.937C246.183 410.425 244.885 410.737 243.636 411.608ZM247.549 406.236C247.306 406.087 247.178 405.125 247.327 405.023C248.769 404.059 249.88 402.353 250.598 401.55C250.332 403.308 251.584 408.704 247.549 406.236ZM260.008 396.653C258.974 397.703 257.868 398.824 256.691 399.725C255.006 401.015 255.089 400.349 253.175 399.301C254.951 396.818 257.243 394.803 259.412 392.659C256.63 393.884 255.243 394.496 253.864 395.107C255.477 391.801 258.563 389.93 261.398 387.627C260.874 388.729 260.349 389.823 259.469 391.656C261.472 390.368 262.921 389.445 264.353 388.516C264.033 391.77 262.254 394.378 260.008 396.653ZM280.718 385.414C279.804 386.243 278.881 387.073 277.968 387.91C277.755 387.697 277.541 387.476 277.328 387.264C278.234 386.436 279.141 385.608 280.054 384.771C280.275 384.983 280.496 385.194 280.718 385.414ZM300.377 373.467C299.399 374.124 298.429 374.779 297.45 375.436C297.28 375.182 297.109 374.92 296.931 374.668C297.91 374.019 298.89 373.371 299.87 372.722C300.04 372.976 300.209 373.222 300.377 373.467ZM309.185 367.382C307.423 368.619 305.669 369.847 303.907 371.084C303.754 370.877 303.599 370.662 303.446 370.456C305.146 369.154 306.836 367.846 308.536 366.545C308.752 366.824 308.968 367.103 309.185 367.382ZM289.23 109.697C287.721 110.047 285.822 111.4 285.664 108.281C286.849 108.748 288.043 109.222 289.23 109.697ZM285.581 108.237C283.94 109.587 282.417 108.478 283.016 106.57C283.874 107.128 284.732 107.686 285.581 108.237ZM301.532 101.928C300.882 102.885 299.978 105.006 298.99 105.606C297.979 106.218 298.015 105.903 296.623 105.347C297.801 104.213 299.867 101.203 301.532 101.928ZM281.243 95.8065C283.781 93.9986 283.623 93.9596 286.57 95.4182C284.615 96.9314 283.58 96.2709 281.243 95.8065ZM275.805 99.5447C277.171 98.052 278.077 98.6434 280.035 98.9492C278.149 99.9996 277.972 100.373 275.805 99.5447ZM273.901 102.151C275.086 102.192 276.263 102.235 277.449 102.285C277.421 102.548 277.384 102.814 277.357 103.086C276.207 102.771 275.057 102.456 273.901 102.151ZM298.74 99.6406C297.19 101.558 296.815 102.793 294.377 102.747C295.583 101.441 296.92 98.9849 298.74 99.6406ZM283.471 104.745C284.929 103.779 285.683 104.363 287.327 104.875C285.504 105.714 285.39 105.634 283.471 104.745ZM232.031 115.593C232.102 112.726 238.662 113.648 240.067 114.368C239.241 115.04 231.953 118.895 232.031 115.593ZM206.834 121.33C206.358 121.188 206.111 121.115 206.023 121.089C206.137 121.119 206.472 121.218 206.834 121.33ZM206.031 121.087C205.978 121.072 205.978 121.072 206.031 121.087ZM201.576 122.774C201.441 120.536 205.816 121.192 206.842 121.328C206.895 121.344 206.948 121.36 207.001 121.375C206.374 121.895 201.78 126.11 201.576 122.774ZM256.597 115.61C257.85 114.521 258.57 113.443 259.088 113.535C260.466 113.776 261.758 114.516 263.08 115.051C262.783 115.596 262.44 116.633 262.202 116.608C260.595 116.449 259 116.071 256.597 115.61ZM180.986 133.7C180.081 132.925 181.424 132.062 182.58 131.941C185.587 131.611 188.143 132.037 189.052 136.292C188.869 136.583 188.053 137.971 188.007 137.945C185.589 136.644 183.033 135.459 180.986 133.7ZM260.796 129.476C261.54 129.812 261.952 130.491 262.552 131.003C263.259 131.604 264.465 132.001 265.055 132.648C267.336 135.117 263.135 134.547 261.767 134.605C259.488 134.706 258.366 135.496 256.061 134.643C254.06 133.902 252.289 132.812 250.514 134.728C248.02 131.62 243.154 133.154 239.944 131.2C239.397 133.166 234.43 130.336 235.839 133.635C230.389 134.036 225.048 134.728 219.626 134.006C220.456 128.101 235.551 129.729 239.795 129.782C243.661 129.826 247.52 130.206 251.391 130.091C254.149 130.005 258.235 128.308 260.796 129.476ZM172.847 147.079C175.919 144.659 174.346 140.755 175.817 137.825C178.222 139.437 181.078 140.661 182.857 142.793C183.981 144.147 181.395 143.927 180.248 144.722C176.774 141.879 175.696 147.086 172.847 147.079ZM176.711 164.735C182.517 157.493 188.434 150.173 195.314 144.002C200.413 139.43 206.469 135.508 213.366 133.649C214.347 133.384 215.681 133.992 216.661 134.529C216.902 134.662 216.656 136.249 216.24 136.923C214.932 139.074 214.626 136.198 214.519 136.351C212.139 139.575 206.023 137.715 205.186 143.196C205.118 143.667 201.874 144.022 201.884 144.079C202.744 148.342 201.791 146.299 200.127 144.773C198.033 142.846 199.243 146.105 198.308 146.253C199.584 150.127 189.616 148.587 192.655 153.836C191.738 152.946 190.38 152.258 188.925 153.575C191.383 156.146 190.915 156.947 187.151 157.01C185.801 157.03 183.45 159.657 183.46 161.091C183.463 162.668 185.66 164.233 187.028 165.979C182.333 164.077 178.607 163.783 178.642 170.612C178.648 171.312 175.743 172.033 174.106 172.739C172.545 169.334 175.122 166.709 176.711 164.735ZM195.444 152.033C195.232 153.106 193.555 152.216 192.992 152.057C193.386 151.637 195.844 149.943 195.444 152.033ZM243.706 146.945C243.388 147.319 243.07 147.692 242.751 148.065C241.61 146.806 238.99 150.181 238.536 146.705C238.387 145.58 238.26 144.575 241.038 144.745C241.428 145.06 242.563 146.004 243.706 146.945ZM255.466 143.111C257.978 145.514 258.796 145.462 257.332 148.816C256.418 148.318 254.181 147.761 253.953 146.608C253.767 145.647 255.118 143.932 255.466 143.111ZM228.013 148.511C228.714 147.986 232.912 144.651 232.526 148.241C232.246 150.869 229.108 148.985 228.013 148.511ZM106.43 273.487C106.339 273.495 106.153 272.676 106.018 272.241C108.619 271.507 105.788 266.105 110.388 267.089C111.214 269.03 111.791 271.165 110.241 272.79C109.515 273.553 107.741 273.348 106.43 273.487ZM148.29 258.803C148.146 258.653 147.999 258.437 147.87 258.126C147.77 257.893 147.855 257.569 148.038 257.187C148.08 257.663 148.158 258.2 148.29 258.803ZM128.374 269.342C125.982 268.471 128.632 265.357 129.92 264.797C130.26 266.064 130.981 270.293 128.374 269.342ZM144.869 270.524C144.607 269.986 144.352 269.438 143.864 268.422C144.177 267.641 144.577 266.644 144.978 265.647C146.272 267.681 145.787 268.2 144.869 270.524ZM157.344 243.176C158.215 246.887 152.632 248.239 153.279 244.661C151.876 241.628 156.522 239.699 157.344 243.176ZM160.106 230.896C159.843 230.775 159.578 230.646 159.306 230.527C159.512 229.565 159.71 228.603 159.918 227.649C161.248 228.799 160.692 229.34 160.106 230.896ZM170.521 216.498C169.737 215.885 167.739 215.069 167.452 214.009C167.15 212.869 168.866 210.521 169.315 209.516C171.222 211.191 170.509 214.062 170.521 216.498ZM181.103 192.388C179.165 194.8 183.169 198.609 179.217 200.4C178.931 200.533 178.004 199.253 177.308 198.575C178.373 195.991 179.29 193.76 180.208 191.528C180.519 191.824 181.131 192.358 181.103 192.388ZM165.584 192.521C160.458 204.801 155.089 216.84 149.21 228.785C143.285 240.839 139.769 255.005 129.94 264.676C128.555 260.563 132.541 258.3 134.298 255.144C137.446 249.506 139.783 243.193 142.56 237.345C148.266 225.321 152.583 212.716 158.347 200.741C159.716 197.896 161.156 195.071 162.606 192.261C163.727 190.094 164.937 186.342 166.975 184.83C168.741 183.526 169.778 184.244 168.932 186.121C167.965 188.311 166.552 190.197 165.584 192.521ZM205.838 180.098C204.077 180.867 202.967 180.061 203.605 178.138C204.1 178.576 204.593 179.007 205.838 180.098ZM208.141 177.814C206.467 178.693 206.144 177.999 204.762 176.84C206.083 175.33 206.731 176.635 208.141 177.814ZM188.882 183.547C188.263 182.788 186.546 181.621 186.533 180.555C186.527 179.763 188.777 177.03 189.456 177.002C192.837 176.848 189.316 182.552 188.882 183.547ZM169.051 183.104C168.979 183.217 168.168 182.834 167.707 182.681C169.016 178.878 169.837 174.769 174.062 172.872C176.558 178.266 171.188 179.923 169.051 183.104ZM223.022 167.286C222.598 167.394 222.176 167.51 221.753 167.618C221.469 166.341 220.182 163.588 221.541 163.056C222.04 164.462 222.532 165.878 223.022 167.286ZM212.219 160.535C211.466 163.464 218.529 163.262 214.497 167.679C215.986 167.124 221.162 168.482 219.12 170.686C218.537 171.315 216.945 170.335 216.461 170.245C214.461 169.889 213.066 171.311 211.343 172.433C211.887 168.506 212.828 164.559 210.907 160.725C211.339 160.665 211.78 160.604 212.219 160.535ZM202.998 162.286C203.123 160.295 203.209 158.794 203.303 157.291C207.286 158.283 204.86 160.723 202.998 162.286ZM269.3 146.489C270.366 147.328 271.433 148.166 272.501 149.013C271.782 149.39 271.07 149.757 269.885 150.375C268.516 148.58 268.071 148.425 269.3 146.489ZM280.708 150.796C281.761 150.276 283.849 151.986 285.3 152.49C287.302 153.189 288.926 153.921 288.977 156.34C286.305 154.358 283.521 152.587 280.708 150.796ZM289.003 156.344C290.532 154.789 292.198 154.713 293.978 155.859C292.321 156.026 290.662 156.185 289.003 156.344ZM294.022 155.868C294.343 153.95 293.818 154.051 295.739 153.863C297.89 153.65 300.35 154.243 302.49 154.442C301.717 158.776 296.729 156.493 294.022 155.868ZM283.387 158.603C284.047 156.091 286.515 157.108 288.612 156.405C287.406 158.896 283.461 158.832 284.311 162.563C283.959 161.231 283.083 159.767 283.387 158.603ZM307.588 161.238C307.664 161.05 307.749 160.868 307.824 160.679C310.369 161.14 312.949 161.754 315.494 162.115C317.137 162.342 318.8 161.966 319.405 163.979C315.43 163.177 311.515 162.24 307.588 161.238ZM348.147 187.347C348.428 186.714 348.673 186.161 348.918 185.609C349.858 187.246 350.443 187.769 349.785 189.529C349.292 188.865 348.791 188.202 348.147 187.347ZM356.334 186.647C357.016 188.288 357.443 188.863 356.936 190.63C355.868 188.79 355.812 188.567 356.334 186.647ZM358.655 199.291C359.628 200.781 359.542 201.522 359.538 203.301C358.276 201.545 357.721 201.426 358.655 199.291ZM360.817 197.433C362.939 198.811 363.022 199.948 361.794 201.793C361.452 200.276 361.212 199.199 360.817 197.433ZM360.928 204.224C362.323 205.689 363.659 207.206 361.755 208.911C361.479 207.349 361.204 205.786 360.928 204.224ZM365.542 231.763C366.098 234.587 366.776 236.345 364.298 238.493C364.752 236.043 365.05 234.421 365.542 231.763ZM363.758 245.8C364.386 243.961 365.005 242.124 365.633 240.286C365.643 242.045 365.652 243.805 365.661 245.556C365.031 245.634 364.395 245.721 363.758 245.8ZM363.583 246.039C363.039 248.547 362.495 251.047 361.961 253.562C360.851 250.677 361.455 248.184 363.583 246.039ZM365.685 245.694C366.86 247.289 366.728 252.32 364.537 253.249C362.291 254.204 365.17 247.036 365.685 245.694ZM356.195 282.865C357.233 280.795 358.271 278.726 359.31 276.656C360.572 278.086 358.256 281.858 357.619 283.506C357.139 283.291 356.668 283.082 356.195 282.865ZM353.844 289.33C354.806 287.775 355.76 286.221 356.721 284.666C357.867 285.433 355.336 288.842 354.75 289.922C354.449 289.733 354.146 289.527 353.844 289.33ZM357.538 300.431C357.779 297.626 358.092 294.758 360.93 293.139C364.04 296.188 360.578 298.626 360.096 301.34C359.207 301.038 357.52 300.659 357.538 300.431ZM348.771 328.435C349.957 326.59 351.144 324.745 352.338 322.898C353.458 323.853 350.449 327.814 349.793 328.973C349.452 328.791 349.112 328.617 348.771 328.435ZM359.265 330.967C356.619 335.431 351.554 338.394 347.512 341.619C347.28 341.343 347.057 341.073 346.825 340.797C348.826 338.792 350.798 336.758 352.817 334.758C355.009 332.602 356.176 331.353 359.265 330.967ZM356.253 329.378C357.498 326.771 358.625 324.402 359.754 322.041C359.086 324.646 360.594 328.462 356.253 329.378ZM361.043 322.674C364.765 313.846 367.774 306.705 372.185 296.246C369.139 307.299 368.697 315.54 361.043 322.674ZM378.24 283.217C379.334 286.722 377.893 289.539 375.801 292.169C375.79 291.587 375.781 291.013 375.778 290.429C374.866 291.792 372.91 293.539 373.833 295.079C374.471 294.198 375.11 293.318 375.741 292.447C376.012 294.127 376.335 295.864 374.566 296.911C374.415 297.004 372.442 295.099 372.615 294.467C373.098 292.662 372.302 289.756 375.614 289.64C376.252 287.432 376.882 285.226 377.545 283.023C377.544 283.015 378.199 283.083 378.24 283.217ZM381.976 275.089C381.362 276.532 380.588 280.575 378.527 279.97C379.74 277.469 380.414 276.082 381.081 274.704C381.379 274.827 381.677 274.958 381.976 275.089ZM378.222 279.849C378.131 279.806 378.049 279.771 377.956 279.712C375.58 278.178 378.196 275.58 378.887 273.956C378.71 275.464 378.544 276.987 378.222 279.849ZM383.056 256.536C382.944 261.914 382.638 266.575 381.347 271.802C380.918 266.528 381.187 261.756 381.713 256.497C382.158 256.511 382.603 256.524 383.056 256.536ZM378.642 270.819C378.365 270.759 378.086 270.691 377.808 270.632C378.233 268.687 378.659 266.743 379.084 264.798C379.354 264.859 379.632 264.919 379.901 264.98C379.484 266.923 379.068 268.874 378.642 270.819ZM379.158 262.231C377.74 261.863 378.438 259.428 378.495 258.141C378.744 258.181 379 258.211 379.249 258.25C379.216 259.575 379.182 260.9 379.158 262.231ZM386.166 253.993C386.174 254.275 384.991 254.959 384.783 254.821C384.065 254.346 382.994 253.575 383.016 252.946C383.235 246.322 383.637 239.699 383.991 233.084C384.41 233.094 384.828 233.095 385.247 233.105C385.573 240.067 385.922 247.025 386.166 253.993ZM381.713 245.271C381.288 245.279 380.864 245.287 380.431 245.297C380.426 243.42 380.429 241.541 380.422 239.656C380.781 239.651 381.139 239.647 381.499 239.65C381.57 241.524 381.641 243.397 381.713 245.271ZM387.324 237.212C387.037 235.585 386.751 233.958 386.465 232.339C386.713 232.279 386.97 232.217 387.218 232.156C387.453 233.492 388.711 236.642 387.324 237.212ZM386.459 227.14C386.659 232.447 383.255 224.742 382.765 223.577C382.832 225.71 382.871 226.922 382.917 228.132C382.302 228.057 381.686 227.974 381.08 227.897C382.206 222.916 383.342 217.941 384.468 212.96C385.177 217.643 386.28 222.431 386.459 227.14ZM381.503 220.068C381.332 220.09 381.16 220.112 380.989 220.134C380.666 218.305 380.344 216.475 380.021 214.646C380.193 214.624 380.364 214.602 380.536 214.58C380.858 216.409 381.181 218.239 381.503 220.068ZM384.475 212.525C383.647 210.576 382.82 208.635 382 206.685C383.378 208.437 386.395 209.724 384.475 212.525ZM379.647 190.64C380.223 192.108 380.639 193.612 380.526 195.201C380.371 197.449 380.13 196.74 381.811 197.938C383.454 199.109 385.819 203.616 382.312 203.909C378.83 204.197 379.739 200.398 379.26 198.296C377.553 193.355 374.448 187.634 375.041 182.422C377.476 184.296 378.484 187.691 379.647 190.64ZM373.679 176.736C375.226 178.5 375.148 178.814 374.637 181.174C372.711 180.579 370.795 179.99 368.87 179.395C369.488 178.543 370.106 177.691 370.725 176.848C371.532 177.54 372.339 178.232 373.235 179.001C373.401 178.145 373.535 177.437 373.679 176.736ZM372.401 174.274C370.034 175.058 369.116 173.501 367.205 171.943C367.947 168.999 366.292 167.238 364.615 165.122C363.755 164.03 360.757 158.632 361.596 157.85C363.812 155.782 371.707 172.56 372.401 174.274ZM362.681 155.38C362.261 155.796 361.547 156.623 361.469 156.562C358.749 154.588 356.084 152.545 353.429 150.468C353.304 150.373 353.439 149.957 353.452 149.696C354.383 149.765 355.306 149.836 356.237 149.906C358.387 151.73 360.53 153.556 362.681 155.38ZM357.579 148.901C357.124 149.207 356.667 149.505 356.211 149.81C354.312 148.417 351.169 149.347 350.028 146.527C350.027 146.519 350.027 146.519 350.025 146.511C353.109 145.433 355.242 147.486 357.579 148.901ZM351.106 143.925C352.665 145.328 350.808 145.788 350.022 146.495C349.79 144.941 346.653 145.194 347.797 143.014C347.922 142.775 350.303 143.207 351.106 143.925ZM325.223 154.44C331.945 158.646 338.091 163.756 344.633 168.269C351.509 173.016 356.237 179.561 360.864 186.332C370.988 201.165 371.452 218.527 372.537 235.246C373.238 246.139 371.295 257.424 369.27 268.49C368.251 274.078 364.896 279.252 365.766 285.183C360.098 285.298 364.799 291.822 360.932 293.055C358.068 287.567 362.772 282.648 361.492 277.949C363.398 276.728 364.572 282.247 364.982 277.943C365.239 275.277 366.377 272.831 366.371 270.186C366.368 268.801 366.476 267.372 366.816 266.035C369.822 254.237 368.861 242.296 367.801 230.414C367.648 228.738 365.062 227.291 366.271 224.908C366.993 225.59 367.722 226.271 368.964 227.438C368.622 220.245 369.749 213.611 365.035 207.147C362.677 203.907 364.331 197.898 362.217 194.29C357.986 187.065 353.099 179.906 347.113 174.142C343.663 170.819 339.275 167.678 334.561 165.146C329.128 162.231 323.501 157.89 318.271 153.804C315.432 151.584 312.149 152.146 309.581 151.556C301.667 149.729 294.822 145.82 287.512 142.869C284.292 141.567 291.317 141.288 287.932 140.324C286.349 139.877 282.892 137.465 282.559 142.206C282.527 142.638 281.613 143.233 281.038 143.334C280.616 143.409 279.626 142.673 279.667 142.474C281.781 133.154 272.889 138.52 270.258 135.486C269.294 134.379 267.563 133.942 266.18 133.201C267.438 132.804 268.695 132.073 269.954 132.059C279.197 131.999 286.962 135.254 294.074 141.386C298.358 145.079 303.954 146.83 310.063 147.656C315.35 148.368 320.539 151.51 325.223 154.44ZM348.914 139.921C347.083 141.095 347.106 141.133 345.314 139.78C346.686 138.753 347.352 139.353 348.914 139.921ZM295.25 110.447C300.574 109.617 304.391 115.446 309.828 114.587C309.156 114.756 308.419 114.936 307.507 115.163C310.038 115.827 312.052 116.357 314.076 116.893C313.078 117.294 312.079 117.696 310.816 118.202C317.683 121.674 324.512 125.444 331.253 129.188C335.391 131.488 337.781 136.325 342.924 136.929C343.394 136.988 343.757 138.719 343.975 139.715C344.031 139.989 343.258 140.768 343.072 140.709C341.898 140.298 340.584 139.954 339.668 139.164C330.276 131.038 319.744 125.258 308.041 120.795C301.629 118.345 295.703 114.106 288.972 111.838C288.892 111.81 289.256 110.461 289.422 109.697C292.505 105.965 292.485 105.993 293.885 109.478C294.071 109.92 294.844 110.51 295.25 110.447ZM325.347 103.087C325.2 103.154 325.175 103.151 325.226 103.108C325.299 103.095 325.347 103.087 325.347 103.087C325.634 102.961 325.763 102.838 325.801 102.723C325.621 102.838 325.47 102.932 325.359 103.01C325.396 102.794 325.444 102.594 325.483 102.387C325.667 102.388 325.868 102.536 325.801 102.723C325.899 102.664 325.996 102.597 326.101 102.528C325.743 103.059 325.46 103.301 325.347 103.087ZM329.357 96.3202C329.573 95.6979 329.834 95.0927 330.13 94.498C330.152 94.4775 330.183 94.4636 330.204 94.4432C330.027 94.8584 329.727 95.5288 329.357 96.3202Z" fill="#899764"/>
</g>
</svg>
