<svg width="138" height="187" viewBox="0 0 138 187" fill="none" xmlns="http://www.w3.org/2000/svg">
<g opacity="0.1">
<path d="M62.2613 37.4442C64.2064 37.1532 66.1279 37.4279 67.2711 38.7031C68.0479 39.5696 68.8189 40.2693 68.5308 41.4072C68.1895 42.7552 66.7607 42.955 65.3769 43.0845C62.5123 43.3526 61.722 42.7044 58.695 42.558C57.4778 42.4992 56.6903 42.611 56.4019 43.4637C56.1893 44.0923 57.4449 45.0596 59.1186 45.6283C61.9093 46.5765 71.0243 46.6756 73.4353 47.7438C76.0108 48.8849 78.045 51.702 77.3871 53.0178C76.6922 54.4074 73.9464 53.7813 71.6577 53.5541C66.4542 53.0376 64.6687 51.3861 59.8247 50.7453C58.5245 50.5733 56.2658 49.7448 55.7428 50.9547C55.364 51.8309 57.3421 53.0414 58.6007 54.1426C60.1155 55.468 69.5359 55.4562 72.1732 58.4587C73.7612 60.2665 75.9167 62.5189 74.4528 64.465C73.5674 65.6421 71.4037 65.2139 69.1538 64.6155C63.5478 63.1244 59.0917 59.4525 57.7579 57.9648C56.3899 56.439 53.9653 56.7648 53.3197 57.3436C52.5912 57.9966 54.1266 59.6779 55.1264 61.0907C56.5809 63.146 62.3979 65.3053 65.1145 67.4699C66.9645 68.9439 69.9087 70.5994 68.4701 72.5117C67.5847 73.6888 63.7715 73.4896 60.9273 72.757C56.1401 71.524 53.4227 65.6846 51.6833 64.1773C50.3971 63.0629 49.1818 61.8198 47.9153 62.5718C46.6488 63.3238 51.0803 67.4012 52.9609 69.932C52.9609 69.932 55.0321 72.6753 53.5258 74.0256C52.0194 75.376 49.6591 74.042 49.0875 73.4044L44.1338 67.8786C40.8599 64.2267 39.4404 61.7596 35.7505 58.5272C31.0505 54.4101 27.5358 53.2598 22.2341 49.9443C16.5166 46.3687 9.26462 42.4043 7.5252 40.897C5.78577 39.3896 2.3809 35.1586 1.83398 34.1156C1.28705 33.0726 1.7603 32.0684 2.43697 30.8917C3.11364 29.715 3.97097 29.0359 5.01923 28.5768C6.06749 28.1176 7.55218 27.0727 14.3754 28.6225C21.1986 30.1724 24.6971 32.5229 31.5253 34.3315L31.6484 34.3641C37.4562 35.9024 40.7838 36.7838 46.7947 37.5097C50.3358 37.9372 52.3411 38.3319 55.911 38.1538C58.4932 38.025 61.2347 37.5978 62.2613 37.4442Z" fill="#E88A60"/>
<path d="M69.71 38.8166L74.7576 42.7249L69.0626 43.2995L70.6867 41.4962L69.71 38.8166Z" fill="#E88A60"/>
<path d="M79.0041 51.48L82.2729 55.921L77.4477 55.0619L79.1978 53.9413L79.0041 51.48Z" fill="#E88A60"/>
<path d="M76.7404 61.9428L80.0093 66.3839L75.184 65.5247L76.9341 64.4042L76.7404 61.9428Z" fill="#E88A60"/>
<path d="M70.4836 70.5914L74.334 74.5381L69.4284 74.3458L71.012 72.9992L70.4836 70.5914Z" fill="#E88A60"/>
<path d="M55.6067 73.378L57.5046 76.5922L54.3225 75.6869L55.5723 75.05L55.6067 73.378Z" fill="#E88A60"/>
<path d="M55.2758 139.927C57.0193 140.837 58.4105 142.19 58.5835 143.894C58.7011 145.052 58.9122 146.072 58.0094 146.822C56.9397 147.71 55.6673 147.03 54.4726 146.32C51.9995 144.85 51.7424 143.861 49.3821 141.96C48.433 141.196 47.7306 140.822 46.9954 141.342C46.4534 141.724 46.8986 143.246 47.9165 144.691C49.6137 147.1 56.9224 152.548 58.242 154.831C59.6516 157.27 59.6369 160.745 58.3303 161.421C56.9503 162.135 55.0998 160.012 53.3838 158.48C49.4823 154.999 49.0117 152.613 45.4739 149.242C44.5243 148.338 43.1867 146.338 42.0515 147.008C41.2294 147.493 42.1154 149.636 42.4841 151.267C42.928 153.231 50.5488 158.768 50.9123 162.748C51.1312 165.144 51.547 168.234 49.2179 168.945C47.8091 169.375 46.3125 167.755 44.8464 165.946C41.1935 161.44 39.7542 155.848 39.5522 153.86C39.3451 151.822 37.1936 150.657 36.3309 150.745C35.3576 150.844 35.6085 153.107 35.5846 154.837C35.5499 157.355 38.9798 162.525 39.9009 165.875C40.5281 168.155 41.9329 171.227 39.6441 171.926C38.2353 172.356 35.2707 169.949 33.4033 167.682C30.2601 163.867 31.5025 157.547 30.9842 155.304C30.6009 153.646 30.3507 151.926 28.8842 151.788C27.4178 151.65 28.5984 157.555 28.6281 160.708C28.6281 160.708 28.6867 164.145 26.674 164.349C24.6614 164.553 23.5393 162.085 23.4527 161.233L22.7029 153.85C22.2073 148.971 22.5128 146.141 21.4339 141.356C20.0596 135.26 17.8963 132.261 15.5637 126.459C13.0481 120.203 9.52129 112.728 9.00304 110.485C8.48479 108.243 8.22433 102.818 8.39649 101.653C8.56865 100.488 9.54249 99.9551 10.7823 99.4025C12.0221 98.85 13.1149 98.8059 14.2325 99.0521C15.3501 99.2983 17.1654 99.328 21.7675 104.599C26.3697 109.869 27.8132 113.829 32.2669 119.312L32.3472 119.41C36.1354 124.074 38.3059 126.746 42.7366 130.872C45.3469 133.303 46.7352 134.803 49.7254 136.761C51.8883 138.177 54.3557 139.446 55.2758 139.927Z" fill="#E88A60"/>
<path d="M60.4882 145.422L62.2664 151.553L57.3251 148.664L59.6997 148.163L60.4882 145.422Z" fill="#E88A60"/>
<path d="M60.543 161.13L60.5698 166.644L57.1758 163.109L59.2501 163.234L60.543 161.13Z" fill="#E88A60"/>
<path d="M52.552 168.254L52.5789 173.768L49.1848 170.232L51.2592 170.357L52.552 168.254Z" fill="#E88A60"/>
<path d="M42.4023 171.559L43.1902 177.016L39.3386 173.972L41.4115 173.816L42.4023 171.559Z" fill="#E88A60"/>
<path d="M28.7374 165.051L28.3787 168.766L26.3398 166.161L27.725 166.382L28.7374 165.051Z" fill="#E88A60"/>
<path d="M129.435 151.034C131.008 152.215 132.162 153.775 132.057 155.485C131.986 156.646 132.029 157.686 131.017 158.281C129.818 158.984 128.672 158.108 127.608 157.214C125.405 155.363 125.312 154.345 123.29 152.087C122.477 151.18 121.844 150.698 121.035 151.091C120.438 151.381 120.631 152.955 121.402 154.545C122.687 157.198 129.018 163.756 129.951 166.222C130.948 168.857 130.371 172.284 128.972 172.739C127.495 173.221 126.012 170.827 124.567 169.038C121.28 164.971 121.201 162.54 118.255 158.642C117.464 157.596 116.468 155.406 115.239 155.883C114.35 156.229 114.877 158.487 114.977 160.157C115.098 162.166 121.723 168.863 121.438 172.849C121.266 175.25 121.177 178.366 118.763 178.691C117.303 178.887 116.088 177.046 114.934 175.024C112.058 169.987 111.542 164.236 111.665 162.241C111.79 160.196 109.855 158.699 108.99 158.646C108.013 158.586 107.895 160.86 107.591 162.563C107.15 165.042 109.698 170.7 110.065 174.154C110.315 176.506 111.205 179.764 108.833 180.084C107.373 180.28 104.837 177.426 103.361 174.887C100.876 170.613 103.125 164.577 102.976 162.28C102.866 160.582 102.897 158.844 101.472 158.471C100.047 158.097 100.257 164.116 99.7768 167.232C99.7768 167.232 99.2787 170.633 97.2595 170.509C95.2403 170.385 94.5321 167.768 94.5845 166.913L95.0387 159.506C95.3389 154.611 96.0981 151.867 95.8074 146.971C95.4371 140.733 93.7873 137.424 92.4238 131.321C90.9534 124.74 88.6819 116.793 88.5332 114.496C88.3845 112.199 89.0049 106.804 89.3632 105.682C89.7216 104.56 90.7688 104.192 92.0816 103.847C93.3945 103.502 94.4801 103.636 95.5431 104.059C96.6062 104.483 98.3928 104.806 102.082 110.752C105.771 116.697 106.555 120.838 110.063 126.969L110.126 127.08C113.11 132.294 114.82 135.282 118.525 140.071C120.708 142.892 121.835 144.596 124.47 147.012C126.375 148.76 128.604 150.411 129.435 151.034Z" fill="#E88A60"/>
<path d="M133.69 157.301L134.453 163.639L130.044 159.988L132.468 159.878L133.69 157.301Z" fill="#E88A60"/>
<path d="M131.203 172.811L130.338 178.257L127.56 174.218L129.587 174.677L131.203 172.811Z" fill="#E88A60"/>
<path d="M122.165 178.548L121.3 183.994L118.522 179.955L120.549 180.414L122.165 178.548Z" fill="#E88A60"/>
<path d="M111.614 180.168L111.509 185.681L108.201 182.054L110.272 182.235L111.614 180.168Z" fill="#E88A60"/>
<path d="M99.1817 171.535L98.2268 175.144L96.6362 172.243L97.9674 172.685L99.1817 171.535Z" fill="#E88A60"/>
</g>
</svg>
