<svg width="214" height="422" viewBox="0 0 214 422" fill="none" xmlns="http://www.w3.org/2000/svg">
<g opacity="0.1">
<path d="M147.425 249.948C147.838 251.803 147.704 253.674 146.553 254.862C145.771 255.67 145.149 256.461 144.033 256.261C142.711 256.024 142.42 254.661 142.201 253.336C141.748 250.593 142.318 249.787 142.253 246.86C142.227 245.683 142.065 244.931 141.224 244.711C140.603 244.549 139.757 245.825 139.323 247.477C138.599 250.232 139.125 259.024 138.26 261.42C137.336 263.98 134.76 266.133 133.447 265.589C132.06 265.014 132.476 262.325 132.539 260.103C132.682 255.053 134.152 253.219 134.439 248.507C134.516 247.242 135.161 245.009 133.959 244.587C133.089 244.282 132.057 246.271 131.081 247.559C129.907 249.109 130.561 258.188 127.847 260.935C126.213 262.588 124.189 264.82 122.214 263.541C121.019 262.768 121.284 260.654 121.707 258.444C122.762 252.94 125.997 248.394 127.34 247.007C128.717 245.585 128.238 243.27 127.636 242.687C126.957 242.03 125.441 243.624 124.148 244.684C122.266 246.226 120.582 251.98 118.681 254.746C117.386 256.63 115.991 259.58 114.05 258.324C112.855 257.551 112.787 253.862 113.299 251.071C114.161 246.373 119.604 243.356 120.938 241.576C121.924 240.261 123.039 239.005 122.228 237.835C121.417 236.666 117.789 241.215 115.479 243.2C115.479 243.2 112.976 245.384 111.572 244.024C110.167 242.664 111.292 240.298 111.868 239.704L116.856 234.553C120.152 231.148 122.433 229.612 125.297 225.835C128.944 221.024 129.813 217.558 132.647 212.222C135.703 206.468 139.029 199.208 140.364 197.429C141.698 195.649 145.543 192.079 146.511 191.481C147.479 190.882 148.479 191.27 149.66 191.842C150.84 192.414 151.553 193.194 152.067 194.173C152.581 195.152 153.689 196.512 152.661 203.194C151.633 209.876 149.606 213.408 148.329 220.112L148.305 220.233C147.219 225.936 146.596 229.203 146.307 235.046C146.136 238.488 145.893 240.447 146.308 243.876C146.608 246.356 147.207 248.969 147.425 249.948Z" fill="#E88A60"/>
<path d="M146.61 257.221L143.188 262.352L142.245 256.903L144.094 258.345L146.61 257.221Z" fill="#E88A60"/>
<path d="M135.039 267.043L130.982 270.496L131.481 265.787L132.68 267.397L135.039 267.043Z" fill="#E88A60"/>
<path d="M124.8 265.574L120.743 269.028L121.242 264.318L122.441 265.929L124.8 265.574Z" fill="#E88A60"/>
<path d="M116.038 260.134L112.497 264.114L112.348 259.373L113.754 260.808L116.038 260.134Z" fill="#E88A60"/>
<path d="M112.338 245.985L109.37 248.034L110.025 244.905L110.724 246.066L112.338 245.985Z" fill="#E88A60"/>
<path d="M200.464 139.935C202.241 140.609 203.731 141.749 204.092 143.363C204.337 144.461 204.656 145.415 203.876 146.238C202.952 147.213 201.653 146.706 200.425 146.161C197.884 145.034 197.525 144.114 195.043 142.561C194.044 141.936 193.328 141.658 192.682 142.24C192.206 142.67 192.807 144.078 193.949 145.348C195.853 147.466 203.489 151.856 205.016 153.895C206.647 156.074 207.031 159.41 205.855 160.208C204.613 161.051 202.594 159.226 200.772 157.953C196.631 155.059 195.906 152.823 192.126 149.995C191.112 149.235 189.6 147.47 188.587 148.243C187.854 148.802 188.949 150.757 189.49 152.28C190.14 154.112 198.086 158.553 198.89 162.33C199.374 164.604 200.126 167.521 197.973 168.469C196.671 169.043 195.05 167.66 193.436 166.093C189.416 162.187 187.395 156.987 186.974 155.103C186.541 153.171 184.344 152.3 183.526 152.482C182.604 152.689 183.104 154.831 183.279 156.494C183.534 158.914 187.416 163.482 188.683 166.59C189.546 168.706 191.245 171.493 189.129 172.425C187.827 172.998 184.707 171.029 182.656 169.068C179.204 165.767 179.672 159.561 178.918 157.469C178.361 155.922 177.924 154.3 176.501 154.336C175.079 154.371 176.887 159.901 177.276 162.923C177.276 162.923 177.726 166.213 175.818 166.64C173.911 167.066 172.552 164.827 172.371 164.019L170.807 157.022C169.773 152.397 169.742 149.647 168.159 145.179C166.143 139.489 163.725 136.858 160.823 131.559C157.693 125.844 153.454 119.077 152.7 116.984C151.946 114.892 151.076 109.718 151.108 108.58C151.139 107.443 152.013 106.82 153.139 106.148C154.265 105.476 155.309 105.308 156.409 105.417C157.509 105.525 159.255 105.346 164.273 109.876C169.292 114.406 171.13 118.04 176.03 122.79L176.118 122.876C180.287 126.916 182.675 129.231 187.398 132.683C190.18 134.717 191.684 135.997 194.777 137.533C197.014 138.645 199.527 139.58 200.464 139.935Z" fill="#E88A60"/>
<path d="M206.094 144.611L208.502 150.29L203.431 148.084L205.651 147.331L206.094 144.611Z" fill="#E88A60"/>
<path d="M207.945 159.676L208.601 164.963L204.94 161.959L206.945 161.842L207.945 159.676Z" fill="#E88A60"/>
<path d="M201.093 167.424L201.75 172.712L198.089 169.708L200.093 169.59L201.093 167.424Z" fill="#E88A60"/>
<path d="M191.734 171.758L193.114 176.903L189.071 174.423L191.042 174.037L191.734 171.758Z" fill="#E88A60"/>
<path d="M177.878 167.077L177.959 170.683L175.705 168.416L177.059 168.47L177.878 167.077Z" fill="#E88A60"/>
<path d="M121.472 147.161C122.648 148.654 123.338 150.398 122.815 151.968C122.46 153.035 122.242 154.017 121.15 154.32C119.855 154.68 119.003 153.577 118.231 152.477C116.634 150.202 116.799 149.229 115.472 146.618C114.938 145.569 114.467 144.962 113.614 145.128C112.984 145.251 112.774 146.768 113.099 148.445C113.64 151.241 117.923 158.936 118.182 161.471C118.458 164.179 117.069 167.235 115.65 167.314C114.151 167.396 113.361 164.792 112.455 162.763C110.396 158.149 110.926 155.86 109.143 151.488C108.665 150.315 108.278 148.023 107.012 148.164C106.096 148.266 106.027 150.505 105.706 152.089C105.32 153.995 109.843 161.894 108.587 165.545C107.83 167.744 106.973 170.631 104.639 170.335C103.227 170.156 102.55 168.136 101.974 165.961C100.54 160.543 101.486 155.045 102.095 153.213C102.72 151.334 101.285 149.456 100.491 149.191C99.5936 148.893 98.9183 150.986 98.2118 152.502C97.184 154.707 98.1588 160.623 97.6439 163.939C97.2932 166.198 97.3146 169.461 95.0208 169.17C93.6089 168.991 91.9494 165.696 91.2016 162.958C89.9429 158.351 93.541 153.273 93.9724 151.092C94.2914 149.479 94.7523 147.863 93.5146 147.161C92.2768 146.458 90.9784 152.13 89.7557 154.921C89.7557 154.921 88.4461 157.973 86.5913 157.356C84.7366 156.738 84.7253 154.119 84.9865 153.334L87.2501 146.53C88.7461 142.033 90.1362 139.66 91.0808 135.016C92.2839 129.1 91.5654 125.599 91.8077 119.562C92.069 113.052 91.9214 105.068 92.3529 102.886C92.7845 100.705 94.7036 95.8206 95.3168 94.862C95.93 93.9034 96.9993 93.8195 98.3108 93.8236C99.6223 93.8277 100.603 94.2217 101.49 94.8814C102.378 95.541 103.966 96.2863 105.934 102.754C107.902 109.222 107.606 113.284 109.359 119.879L109.391 119.998C110.882 125.609 111.737 128.823 114.007 134.214C115.345 137.391 115.974 139.262 117.834 142.172C119.179 144.278 120.851 146.373 121.472 147.161Z" fill="#E88A60"/>
<path d="M123.888 154.069L123.027 160.177L119.817 155.673L122.108 156.172L123.888 154.069Z" fill="#E88A60"/>
<path d="M117.715 167.934L115.554 172.804L113.964 168.344L115.742 169.276L117.715 167.934Z" fill="#E88A60"/>
<path d="M107.851 171.047L105.69 175.917L104.1 171.457L105.878 172.388L107.851 171.047Z" fill="#E88A60"/>
<path d="M97.5966 169.94L96.1294 175.061L93.9408 170.853L95.8293 171.537L97.5966 169.94Z" fill="#E88A60"/>
<path d="M88.1313 158.791L86.3435 161.924L85.5787 158.82L86.7119 159.563L88.1313 158.791Z" fill="#E88A60"/>
<path d="M140.915 36.1893C142.795 35.9088 144.651 36.1751 145.755 37.4076C146.505 38.2452 147.25 38.9215 146.971 40.0208C146.641 41.3232 145.26 41.5157 143.923 41.6403C141.155 41.8982 140.392 41.2716 137.467 41.129C136.291 41.0716 135.53 41.1794 135.251 42.0032C135.046 42.6105 136.259 43.5456 137.875 44.0957C140.572 45.0129 149.379 45.1122 151.708 46.1452C154.196 47.2488 156.16 49.9715 155.524 51.2426C154.852 52.585 152.199 51.979 149.988 51.7586C144.96 51.2575 143.236 49.6612 138.556 49.0402C137.299 48.8735 135.117 48.072 134.612 49.2408C134.245 50.0873 136.156 51.2577 137.372 52.3222C138.835 53.6034 147.937 53.5956 150.484 56.4977C152.018 58.2451 154.1 60.4222 152.684 62.302C151.828 63.439 149.738 63.0244 147.564 62.4453C142.148 61.0025 137.844 57.4529 136.556 56.015C135.235 54.5401 132.892 54.854 132.268 55.413C131.564 56.0437 133.047 57.6688 134.012 59.0342C135.417 61.0206 141.036 63.1093 143.66 65.2018C145.447 66.6267 148.291 68.2274 146.901 70.0746C146.045 71.2115 142.36 71.0176 139.613 70.3087C134.988 69.1154 132.364 63.4722 130.684 62.0152C129.442 60.9379 128.268 59.7364 127.044 60.4625C125.82 61.1886 130.1 65.13 131.916 67.576C131.916 67.576 133.917 70.2274 132.461 71.5316C131.005 72.8358 128.725 71.5459 128.173 70.9296L123.388 65.5886C120.226 62.0588 118.856 59.6745 115.292 56.5499C110.752 52.57 107.357 51.4573 102.235 48.2517C96.7123 44.7947 89.7069 40.9614 88.0268 39.5044C86.3467 38.0473 83.0585 33.9579 82.5304 32.9499C82.0024 31.9419 82.46 30.9718 83.1143 29.8351C83.7686 28.6985 84.5972 28.0426 85.6102 27.5994C86.6232 27.1562 88.0582 26.1471 94.6503 27.6472C101.242 29.1473 104.622 31.4198 111.219 33.1699L111.338 33.2014C116.949 34.6901 120.163 35.543 125.971 36.2466C129.392 36.6611 131.33 37.0431 134.779 36.8725C137.274 36.749 139.923 36.3373 140.915 36.1893Z" fill="#E88A60"/>
<path d="M148.112 37.5182L152.987 41.2964L147.485 41.8494L149.054 40.1076L148.112 37.5182Z" fill="#E88A60"/>
<path d="M157.087 49.7574L160.244 54.0496L155.582 53.2177L157.273 52.1356L157.087 49.7574Z" fill="#E88A60"/>
<path d="M154.896 59.866L158.052 64.1582L153.391 63.3263L155.082 62.2442L154.896 59.866Z" fill="#E88A60"/>
<path d="M148.847 68.2198L152.566 72.0347L147.826 71.847L149.357 70.5465L148.847 68.2198Z" fill="#E88A60"/>
<path d="M134.471 70.9066L136.304 74.0129L133.23 73.137L134.438 72.5221L134.471 70.9066Z" fill="#E88A60"/>
<path d="M51.252 384.95C49.6264 385.813 48.3332 387.088 48.1818 388.683C48.0789 389.767 47.8877 390.722 48.7371 391.418C49.7434 392.243 50.9297 391.599 52.0431 390.927C54.3479 389.536 54.5823 388.609 56.7789 386.816C57.6622 386.095 58.3171 385.741 59.0082 386.223C59.5176 386.577 59.1104 388.003 58.1671 389.362C56.5941 391.627 49.7896 396.769 48.5691 398.913C47.2653 401.204 47.3006 404.455 48.5272 405.079C49.8228 405.739 51.541 403.741 53.1371 402.298C56.7658 399.016 57.1914 396.781 60.4806 393.605C61.3634 392.753 62.6025 390.874 63.6688 391.494C64.441 391.942 63.6254 393.953 63.2904 395.482C62.8873 397.321 55.7914 402.55 55.4759 406.275C55.2859 408.519 54.916 411.412 57.0996 412.063C58.4203 412.456 59.8106 410.931 61.1711 409.23C64.561 404.991 65.873 399.751 66.0496 397.889C66.2308 395.981 68.2366 394.878 69.0443 394.954C69.9556 395.041 69.7349 397.16 69.7679 398.779C69.8159 401.134 66.6388 405.993 65.7978 409.133C65.2251 411.27 63.9298 414.153 66.0755 414.792C67.3963 415.186 70.1552 412.916 71.8883 410.783C74.8055 407.194 73.604 401.289 74.075 399.187C74.4234 397.634 74.6469 396.023 76.0181 395.884C77.3892 395.746 76.3212 401.278 76.3129 404.228C76.3129 404.228 76.2794 407.444 78.1637 407.623C80.0481 407.802 81.0827 405.486 81.1584 404.688L81.8142 397.776C82.2477 393.207 81.9444 390.561 82.9242 386.077C84.1723 380.366 86.1778 377.546 88.3243 372.104C90.6392 366.234 93.8927 359.219 94.3637 357.118C94.8347 355.016 95.0448 349.939 94.8765 348.85C94.7082 347.761 93.7938 347.269 92.6304 346.759C91.467 346.25 90.4442 346.215 89.4001 346.453C88.3559 346.69 86.6577 346.729 82.3845 351.689C78.1113 356.649 76.7852 360.363 72.6521 365.52L72.5776 365.613C69.0621 369.999 67.0479 372.513 62.9279 376.401C60.5008 378.691 59.2111 380.103 56.4255 381.954C54.4106 383.292 52.11 384.495 51.252 384.95Z" fill="#E88A60"/>
<path d="M46.4092 390.124L44.7834 395.872L49.3887 393.138L47.1639 392.684L46.4092 390.124Z" fill="#E88A60"/>
<path d="M46.4551 404.821L46.4641 409.981L49.6178 406.652L47.6777 406.781L46.4551 404.821Z" fill="#E88A60"/>
<path d="M53.9758 411.437L53.9849 416.596L57.1385 413.267L55.1985 413.397L53.9758 411.437Z" fill="#E88A60"/>
<path d="M63.4922 414.467L62.7888 419.578L66.3736 416.705L64.4332 416.572L63.4922 414.467Z" fill="#E88A60"/>
<path d="M76.2376 408.293L76.5962 411.767L78.4877 409.316L77.193 409.532L76.2376 408.293Z" fill="#E88A60"/>
<path d="M30.2703 305.689C28.5377 305.069 26.7242 304.973 25.4436 305.936C24.5733 306.591 23.7388 307.093 23.7968 308.19C23.8656 309.489 25.1408 309.932 26.3875 310.301C28.9683 311.067 29.8112 310.615 32.6163 311.03C33.7442 311.197 34.4468 311.442 34.5568 312.277C34.638 312.893 33.31 313.553 31.6706 313.771C28.937 314.136 20.5524 312.573 18.1457 313.116C15.5746 313.697 13.1964 315.914 13.5617 317.241C13.9475 318.642 16.5814 318.566 18.7234 318.772C23.5933 319.242 25.5318 318.05 30.0943 318.34C31.319 318.418 33.5425 318.067 33.8031 319.273C33.9919 320.146 31.9566 320.898 30.6016 321.681C28.9708 322.622 20.326 320.903 17.3606 323.181C15.5751 324.552 13.188 326.228 14.1787 328.28C14.7779 329.521 16.8417 329.521 19.0154 329.38C24.4316 329.028 29.1878 326.465 30.6819 325.342C32.2144 324.189 34.3808 324.928 34.8684 325.577C35.4187 326.308 33.7044 327.573 32.5305 328.688C30.8225 330.311 25.0915 331.238 22.2053 332.732C20.2399 333.75 17.2371 334.735 18.2107 336.751C18.8099 337.992 22.3462 338.501 25.0897 338.345C29.7076 338.081 33.261 333.214 35.131 332.146C36.5137 331.356 37.8547 330.436 38.8808 331.356C39.9069 332.276 35.0997 335.215 32.9145 337.197C32.9145 337.197 30.5158 339.339 31.6535 340.852C32.7912 342.364 35.1997 341.568 35.84 341.086L41.3893 336.913C45.0568 334.155 46.8072 332.148 50.7804 329.85C55.8413 326.923 59.2761 326.505 64.7439 324.423C70.6405 322.178 78.0161 319.855 79.8861 318.787C81.7561 317.719 85.6489 314.453 86.3401 313.594C87.0313 312.736 86.779 311.729 86.3713 310.526C85.9637 309.323 85.2999 308.544 84.421 307.932C83.5421 307.321 82.3688 306.092 75.8247 306.277C69.2806 306.462 65.6429 307.985 59.0473 308.407L58.9285 308.415C53.3185 308.773 50.1042 308.979 44.4552 308.555C41.1273 308.305 39.2151 308.303 35.9706 307.492C33.6238 306.906 31.1848 306.016 30.2703 305.689Z" fill="#E88A60"/>
<path d="M23.1841 305.598L17.842 308.27L22.9652 309.83L21.8016 307.88L23.1841 305.598Z" fill="#E88A60"/>
<path d="M12.3565 315.536L8.55054 319.019L13.1354 319.106L11.7323 317.76L12.3565 315.536Z" fill="#E88A60"/>
<path d="M12.5364 325.55L8.73047 329.034L13.3154 329.12L11.9122 327.774L12.5364 325.55Z" fill="#E88A60"/>
<path d="M16.7108 334.623L12.4607 337.548L16.9984 338.261L15.7891 336.738L16.7108 334.623Z" fill="#E88A60"/>
<path d="M29.861 339.88L27.5359 342.486L30.621 342.232L29.5893 341.421L29.861 339.88Z" fill="#E88A60"/>
<path d="M130.432 368.489C129.271 369.917 128.577 371.595 129.059 373.123C129.387 374.161 129.583 375.116 130.636 375.426C131.884 375.793 132.726 374.738 133.49 373.685C135.07 371.506 134.925 370.561 136.249 368.054C136.782 367.046 137.247 366.465 138.071 366.639C138.678 366.767 138.859 368.239 138.52 369.858C137.954 372.557 133.691 379.944 133.402 382.394C133.094 385.012 134.393 387.992 135.766 388.089C137.216 388.192 138.02 385.682 138.928 383.731C140.991 379.295 140.512 377.07 142.304 372.864C142.785 371.735 143.194 369.522 144.417 369.677C145.303 369.789 145.335 371.959 145.623 373.497C145.968 375.348 141.47 382.929 142.632 386.483C143.331 388.623 144.118 391.432 146.382 391.18C147.752 391.028 148.438 389.082 149.028 386.985C150.498 381.76 149.664 376.422 149.102 374.64C148.525 372.811 149.943 371.014 150.716 370.77C151.589 370.494 152.212 372.532 152.873 374.01C153.835 376.16 152.802 381.873 153.251 385.092C153.557 387.284 153.487 390.444 155.712 390.196C157.082 390.044 158.738 386.879 159.503 384.239C160.791 379.797 157.384 374.827 156.999 372.708C156.714 371.141 156.292 369.57 157.501 368.909C158.71 368.247 159.882 373.758 161.024 376.478C161.024 376.478 162.246 379.453 164.051 378.884C165.856 378.314 165.907 375.778 165.666 375.014L163.576 368.392C162.195 364.016 160.885 361.697 160.04 357.186C158.964 351.44 159.712 348.061 159.568 342.212C159.413 335.905 159.676 328.176 159.291 326.058C158.906 323.939 157.121 319.181 156.542 318.244C155.962 317.306 154.928 317.209 153.658 317.193C152.388 317.178 151.433 317.544 150.564 318.17C149.695 318.795 148.146 319.493 146.143 325.726C144.14 331.959 144.366 335.896 142.569 342.256L142.537 342.37C141.009 347.78 140.133 350.88 137.854 356.066C136.511 359.121 135.873 360.924 134.029 363.713C132.695 365.731 131.045 367.736 130.432 368.489Z" fill="#E88A60"/>
<path d="M127.988 375.141L128.731 381.068L131.907 376.756L129.681 377.204L127.988 375.141Z" fill="#E88A60"/>
<path d="M133.758 388.659L135.776 393.407L137.383 389.112L135.647 389.987L133.758 388.659Z" fill="#E88A60"/>
<path d="M143.262 391.821L145.28 396.569L146.887 392.274L145.151 393.149L143.262 391.821Z" fill="#E88A60"/>
<path d="M153.207 390.903L154.55 395.884L156.733 391.842L154.894 392.476L153.207 390.903Z" fill="#E88A60"/>
<path d="M162.539 380.251L164.223 383.31L165.01 380.317L163.901 381.02L162.539 380.251Z" fill="#E88A60"/>
</g>
</svg>
