<svg width="1345" height="1309" viewBox="0 0 1345 1309" fill="none" xmlns="http://www.w3.org/2000/svg">
<g opacity="0.2">
<path d="M1278.42 663.948C1278.84 665.803 1278.7 667.674 1277.55 668.862C1276.77 669.67 1276.15 670.461 1275.03 670.261C1273.71 670.024 1273.42 668.661 1273.2 667.336C1272.75 664.593 1273.32 663.787 1273.25 660.86C1273.23 659.683 1273.07 658.931 1272.22 658.711C1271.6 658.549 1270.76 659.825 1270.32 661.477C1269.6 664.232 1270.13 673.024 1269.26 675.42C1268.34 677.98 1265.76 680.133 1264.45 679.589C1263.06 679.014 1263.48 676.325 1263.54 674.103C1263.68 669.053 1265.15 667.219 1265.44 662.507C1265.52 661.242 1266.16 659.009 1264.96 658.587C1264.09 658.282 1263.06 660.271 1262.08 661.559C1260.91 663.109 1261.56 672.188 1258.85 674.935C1257.21 676.588 1255.19 678.82 1253.21 677.541C1252.02 676.768 1252.28 674.654 1252.71 672.444C1253.76 666.94 1257 662.394 1258.34 661.007C1259.72 659.585 1259.24 657.27 1258.64 656.687C1257.96 656.03 1256.44 657.624 1255.15 658.684C1253.27 660.226 1251.58 665.98 1249.68 668.746C1248.39 670.63 1246.99 673.58 1245.05 672.324C1243.86 671.551 1243.79 667.862 1244.3 665.071C1245.16 660.373 1250.6 657.356 1251.94 655.576C1252.92 654.261 1254.04 653.005 1253.23 651.835C1252.42 650.666 1248.79 655.215 1246.48 657.2C1246.48 657.2 1243.98 659.384 1242.57 658.024C1241.17 656.664 1242.29 654.298 1242.87 653.704L1247.86 648.553C1251.15 645.148 1253.43 643.612 1256.3 639.835C1259.94 635.024 1260.81 631.558 1263.65 626.222C1266.7 620.468 1270.03 613.208 1271.36 611.429C1272.7 609.649 1276.54 606.079 1277.51 605.481C1278.48 604.882 1279.48 605.27 1280.66 605.842C1281.84 606.414 1282.55 607.194 1283.07 608.173C1283.58 609.152 1284.69 610.512 1283.66 617.194C1282.63 623.876 1280.61 627.408 1279.33 634.112L1279.31 634.233C1278.22 639.936 1277.6 643.203 1277.31 649.046C1277.14 652.488 1276.89 654.447 1277.31 657.876C1277.61 660.356 1278.21 662.969 1278.42 663.948Z" fill="#E88A60"/>
<path d="M1277.61 671.221L1274.19 676.352L1273.25 670.903L1275.09 672.345L1277.61 671.221Z" fill="#E88A60"/>
<path d="M1266.04 681.043L1261.98 684.496L1262.48 679.787L1263.68 681.397L1266.04 681.043Z" fill="#E88A60"/>
<path d="M1255.8 679.574L1251.74 683.028L1252.24 678.318L1253.44 679.929L1255.8 679.574Z" fill="#E88A60"/>
<path d="M1247.04 674.134L1243.5 678.114L1243.35 673.373L1244.75 674.808L1247.04 674.134Z" fill="#E88A60"/>
<path d="M1243.34 659.985L1240.37 662.034L1241.03 658.905L1241.72 660.066L1243.34 659.985Z" fill="#E88A60"/>
<path d="M1331.46 553.935C1333.24 554.609 1334.73 555.749 1335.09 557.363C1335.34 558.461 1335.66 559.415 1334.88 560.238C1333.95 561.213 1332.65 560.706 1331.43 560.161C1328.88 559.034 1328.52 558.114 1326.04 556.56C1325.04 555.936 1324.33 555.658 1323.68 556.24C1323.21 556.67 1323.81 558.078 1324.95 559.348C1326.85 561.466 1334.49 565.856 1336.02 567.895C1337.65 570.074 1338.03 573.41 1336.85 574.208C1335.61 575.051 1333.59 573.226 1331.77 571.953C1327.63 569.059 1326.91 566.823 1323.13 563.995C1322.11 563.235 1320.6 561.47 1319.59 562.243C1318.85 562.802 1319.95 564.757 1320.49 566.28C1321.14 568.112 1329.09 572.553 1329.89 576.33C1330.37 578.604 1331.13 581.521 1328.97 582.469C1327.67 583.043 1326.05 581.66 1324.44 580.092C1320.42 576.187 1318.39 570.987 1317.97 569.103C1317.54 567.171 1315.34 566.3 1314.53 566.482C1313.6 566.689 1314.1 568.831 1314.28 570.494C1314.53 572.914 1318.42 577.482 1319.68 580.59C1320.55 582.706 1322.25 585.492 1320.13 586.425C1318.83 586.998 1315.71 585.029 1313.66 583.068C1310.2 579.767 1310.67 573.561 1309.92 571.469C1309.36 569.922 1308.92 568.3 1307.5 568.335C1306.08 568.371 1307.89 573.901 1308.28 576.923C1308.28 576.923 1308.73 580.213 1306.82 580.64C1304.91 581.066 1303.55 578.827 1303.37 578.019L1301.81 571.021C1300.77 566.397 1300.74 563.647 1299.16 559.179C1297.14 553.488 1294.72 550.858 1291.82 545.559C1288.69 539.844 1284.45 533.077 1283.7 530.984C1282.95 528.892 1282.08 523.717 1282.11 522.58C1282.14 521.442 1283.01 520.82 1284.14 520.148C1285.27 519.476 1286.31 519.308 1287.41 519.417C1288.51 519.525 1290.25 519.346 1295.27 523.876C1300.29 528.406 1302.13 532.04 1307.03 536.79L1307.12 536.876C1311.29 540.916 1313.67 543.231 1318.4 546.683C1321.18 548.716 1322.68 549.997 1325.78 551.533C1328.01 552.645 1330.53 553.58 1331.46 553.935Z" fill="#E88A60"/>
<path d="M1337.09 558.611L1339.5 564.29L1334.43 562.084L1336.65 561.331L1337.09 558.611Z" fill="#E88A60"/>
<path d="M1338.94 573.676L1339.6 578.963L1335.94 575.959L1337.94 575.842L1338.94 573.676Z" fill="#E88A60"/>
<path d="M1332.09 581.424L1332.75 586.712L1329.09 583.708L1331.09 583.59L1332.09 581.424Z" fill="#E88A60"/>
<path d="M1322.73 585.757L1324.11 590.903L1320.07 588.423L1322.04 588.036L1322.73 585.757Z" fill="#E88A60"/>
<path d="M1308.88 581.077L1308.96 584.683L1306.7 582.416L1308.06 582.47L1308.88 581.077Z" fill="#E88A60"/>
<path d="M1252.47 561.161C1253.65 562.654 1254.34 564.398 1253.82 565.968C1253.46 567.035 1253.24 568.017 1252.15 568.32C1250.86 568.68 1250 567.576 1249.23 566.477C1247.63 564.202 1247.8 563.228 1246.47 560.618C1245.94 559.569 1245.47 558.962 1244.61 559.128C1243.98 559.251 1243.77 560.768 1244.1 562.445C1244.64 565.241 1248.92 572.936 1249.18 575.471C1249.46 578.179 1248.07 581.235 1246.65 581.314C1245.15 581.396 1244.36 578.792 1243.46 576.763C1241.4 572.149 1241.93 569.86 1240.14 565.488C1239.66 564.315 1239.28 562.023 1238.01 562.164C1237.1 562.265 1237.03 564.505 1236.71 566.089C1236.32 567.995 1240.84 575.894 1239.59 579.545C1238.83 581.744 1237.97 584.631 1235.64 584.335C1234.23 584.156 1233.55 582.136 1232.97 579.961C1231.54 574.543 1232.49 569.045 1233.1 567.213C1233.72 565.334 1232.29 563.455 1231.49 563.191C1230.59 562.893 1229.92 564.986 1229.21 566.502C1228.18 568.707 1229.16 574.623 1228.64 577.939C1228.29 580.198 1228.31 583.461 1226.02 583.17C1224.61 582.991 1222.95 579.696 1222.2 576.958C1220.94 572.351 1224.54 567.273 1224.97 565.092C1225.29 563.479 1225.75 561.863 1224.51 561.161C1223.28 560.458 1221.98 566.13 1220.76 568.92C1220.76 568.92 1219.45 571.973 1217.59 571.355C1215.74 570.738 1215.73 568.119 1215.99 567.334L1218.25 560.53C1219.75 556.033 1221.14 553.66 1222.08 549.016C1223.28 543.1 1222.57 539.599 1222.81 533.562C1223.07 527.052 1222.92 519.068 1223.35 516.886C1223.78 514.704 1225.7 509.821 1226.32 508.862C1226.93 507.903 1228 507.819 1229.31 507.824C1230.62 507.828 1231.6 508.222 1232.49 508.881C1233.38 509.541 1234.97 510.286 1236.93 516.754C1238.9 523.222 1238.61 527.283 1240.36 533.879L1240.39 533.998C1241.88 539.609 1242.74 542.823 1245.01 548.214C1246.34 551.391 1246.97 553.262 1248.83 556.172C1250.18 558.277 1251.85 560.373 1252.47 561.161Z" fill="#E88A60"/>
<path d="M1254.89 568.069L1254.03 574.176L1250.82 569.673L1253.11 570.172L1254.89 568.069Z" fill="#E88A60"/>
<path d="M1248.71 581.934L1246.55 586.804L1244.96 582.344L1246.74 583.276L1248.71 581.934Z" fill="#E88A60"/>
<path d="M1238.85 585.047L1236.69 589.917L1235.1 585.456L1236.88 586.388L1238.85 585.047Z" fill="#E88A60"/>
<path d="M1228.6 583.94L1227.13 589.061L1224.94 584.853L1226.83 585.537L1228.6 583.94Z" fill="#E88A60"/>
<path d="M1219.13 572.791L1217.34 575.923L1216.58 572.82L1217.71 573.563L1219.13 572.791Z" fill="#E88A60"/>
<path d="M1271.92 450.189C1273.79 449.909 1275.65 450.175 1276.76 451.408C1277.51 452.245 1278.25 452.921 1277.97 454.021C1277.64 455.323 1276.26 455.516 1274.92 455.64C1272.16 455.898 1271.39 455.272 1268.47 455.129C1267.29 455.072 1266.53 455.179 1266.25 456.003C1266.05 456.61 1267.26 457.545 1268.88 458.096C1271.57 459.013 1280.38 459.112 1282.71 460.145C1285.2 461.249 1287.16 463.971 1286.52 465.243C1285.85 466.585 1283.2 465.979 1280.99 465.759C1275.96 465.257 1274.24 463.661 1269.56 463.04C1268.3 462.873 1266.12 462.072 1265.61 463.241C1265.25 464.087 1267.16 465.258 1268.37 466.322C1269.83 467.603 1278.94 467.596 1281.48 470.498C1283.02 472.245 1285.1 474.422 1283.68 476.302C1282.83 477.439 1280.74 477.024 1278.56 476.445C1273.15 475.002 1268.84 471.453 1267.56 470.015C1266.23 468.54 1263.89 468.854 1263.27 469.413C1262.56 470.044 1264.05 471.669 1265.01 473.034C1266.42 475.021 1272.04 477.109 1274.66 479.202C1276.45 480.627 1279.29 482.227 1277.9 484.075C1277.04 485.211 1273.36 485.018 1270.61 484.309C1265.99 483.115 1263.36 477.472 1261.68 476.015C1260.44 474.938 1259.27 473.736 1258.04 474.462C1256.82 475.189 1261.1 479.13 1262.92 481.576C1262.92 481.576 1264.92 484.227 1263.46 485.532C1262 486.836 1259.72 485.546 1259.17 484.93L1254.39 479.589C1251.23 476.059 1249.86 473.674 1246.29 470.55C1241.75 466.57 1238.36 465.457 1233.24 462.252C1227.71 458.795 1220.71 454.961 1219.03 453.504C1217.35 452.047 1214.06 447.958 1213.53 446.95C1213 445.942 1213.46 444.972 1214.11 443.835C1214.77 442.698 1215.6 442.043 1216.61 441.599C1217.62 441.156 1219.06 440.147 1225.65 441.647C1232.24 443.147 1235.62 445.42 1242.22 447.17L1242.34 447.201C1247.95 448.69 1251.16 449.543 1256.97 450.247C1260.39 450.661 1262.33 451.043 1265.78 450.872C1268.27 450.749 1270.92 450.337 1271.92 450.189Z" fill="#E88A60"/>
<path d="M1279.11 451.518L1283.99 455.296L1278.48 455.849L1280.05 454.108L1279.11 451.518Z" fill="#E88A60"/>
<path d="M1288.09 463.757L1291.24 468.05L1286.58 467.218L1288.27 466.136L1288.09 463.757Z" fill="#E88A60"/>
<path d="M1285.9 473.866L1289.05 478.158L1284.39 477.326L1286.08 476.244L1285.9 473.866Z" fill="#E88A60"/>
<path d="M1279.85 482.22L1283.57 486.035L1278.83 485.847L1280.36 484.546L1279.85 482.22Z" fill="#E88A60"/>
<path d="M1265.47 484.907L1267.3 488.013L1264.23 487.137L1265.44 486.522L1265.47 484.907Z" fill="#E88A60"/>
<path d="M482.261 129.444C484.206 129.153 486.128 129.428 487.271 130.703C488.048 131.57 488.819 132.269 488.531 133.407C488.189 134.755 486.761 134.955 485.377 135.084C482.512 135.352 481.722 134.704 478.695 134.558C477.478 134.499 476.69 134.611 476.402 135.464C476.189 136.092 477.445 137.06 479.119 137.628C481.909 138.576 491.024 138.676 493.435 139.744C496.011 140.885 498.045 143.702 497.387 145.018C496.692 146.407 493.946 145.781 491.658 145.554C486.454 145.038 484.669 143.386 479.825 142.745C478.524 142.573 476.266 141.745 475.743 142.955C475.364 143.831 477.342 145.041 478.601 146.143C480.116 147.468 489.536 147.456 492.173 150.459C493.761 152.266 495.917 154.519 494.453 156.465C493.567 157.642 491.404 157.214 489.154 156.615C483.548 155.124 479.092 151.452 477.758 149.965C476.39 148.439 473.965 148.765 473.32 149.344C472.591 149.997 474.127 151.678 475.126 153.091C476.581 155.146 482.398 157.305 485.115 159.47C486.964 160.944 489.909 162.599 488.47 164.512C487.585 165.689 483.771 165.49 480.927 164.757C476.14 163.524 473.423 157.684 471.683 156.177C470.397 155.063 469.182 153.82 467.915 154.572C466.649 155.324 471.08 159.401 472.961 161.932C472.961 161.932 475.032 164.675 473.526 166.026C472.019 167.376 469.659 166.042 469.088 165.404L464.134 159.879C460.86 156.227 459.44 153.76 455.75 150.527C451.05 146.41 447.536 145.26 442.234 141.944C436.517 138.369 429.265 134.404 427.525 132.897C425.786 131.39 422.381 127.159 421.834 126.116C421.287 125.073 421.76 124.068 422.437 122.892C423.114 121.715 423.971 121.036 425.019 120.577C426.067 120.118 427.552 119.073 434.375 120.622C441.199 122.172 444.697 124.523 451.525 126.331L451.648 126.364C457.456 127.902 460.784 128.784 466.795 129.51C470.336 129.937 472.341 130.332 475.911 130.154C478.493 130.025 481.235 129.598 482.261 129.444Z" fill="#E88A60"/>
<path d="M489.71 130.817L494.758 134.725L489.063 135.299L490.687 133.496L489.71 130.817Z" fill="#E88A60"/>
<path d="M499.004 143.48L502.273 147.921L497.448 147.062L499.198 145.941L499.004 143.48Z" fill="#E88A60"/>
<path d="M496.74 153.943L500.009 158.384L495.184 157.525L496.934 156.404L496.74 153.943Z" fill="#E88A60"/>
<path d="M490.484 162.591L494.334 166.538L489.428 166.346L491.012 164.999L490.484 162.591Z" fill="#E88A60"/>
<path d="M475.607 165.378L477.505 168.592L474.322 167.687L475.572 167.05L475.607 165.378Z" fill="#E88A60"/>
<path d="M475.276 231.927C477.019 232.837 478.41 234.19 478.584 235.894C478.701 237.052 478.912 238.072 478.009 238.822C476.94 239.71 475.667 239.03 474.473 238.32C471.999 236.85 471.742 235.861 469.382 233.96C468.433 233.195 467.731 232.822 466.995 233.341C466.453 233.724 466.899 235.246 467.917 236.691C469.614 239.1 476.922 244.548 478.242 246.831C479.652 249.27 479.637 252.745 478.33 253.421C476.95 254.135 475.1 252.012 473.384 250.48C469.482 246.999 469.012 244.613 465.474 241.242C464.524 240.338 463.187 238.338 462.052 239.008C461.229 239.493 462.115 241.636 462.484 243.267C462.928 245.231 470.549 250.768 470.912 254.748C471.131 257.144 471.547 260.234 469.218 260.945C467.809 261.375 466.312 259.755 464.846 257.946C461.193 253.44 459.754 247.848 459.552 245.86C459.345 243.821 457.194 242.657 456.331 242.745C455.358 242.844 455.608 245.107 455.585 246.837C455.55 249.355 458.98 254.525 459.901 257.875C460.528 260.155 461.933 263.227 459.644 263.926C458.235 264.356 455.271 261.949 453.403 259.682C450.26 255.867 451.503 249.547 450.984 247.304C450.601 245.646 450.351 243.926 448.884 243.788C447.418 243.65 448.598 249.555 448.628 252.708C448.628 252.708 448.687 256.145 446.674 256.349C444.661 256.553 443.539 254.085 443.453 253.233L442.703 245.85C442.207 240.971 442.513 238.141 441.434 233.356C440.06 227.26 437.896 224.261 435.564 218.459C433.048 212.202 429.521 204.728 429.003 202.485C428.485 200.243 428.224 194.818 428.396 193.653C428.569 192.488 429.542 191.955 430.782 191.402C432.022 190.85 433.115 190.806 434.233 191.052C435.35 191.298 437.165 191.328 441.768 196.599C446.37 201.869 447.813 205.829 452.267 211.312L452.347 211.41C456.135 216.074 458.306 218.746 462.737 222.872C465.347 225.303 466.735 226.802 469.725 228.761C471.888 230.177 474.356 231.446 475.276 231.927Z" fill="#E88A60"/>
<path d="M480.488 237.422L482.266 243.553L477.325 240.664L479.7 240.163L480.488 237.422Z" fill="#E88A60"/>
<path d="M480.543 253.13L480.57 258.644L477.176 255.109L479.25 255.233L480.543 253.13Z" fill="#E88A60"/>
<path d="M472.552 260.254L472.579 265.768L469.185 262.232L471.259 262.357L472.552 260.254Z" fill="#E88A60"/>
<path d="M462.402 263.559L463.19 269.016L459.339 265.972L461.411 265.816L462.402 263.559Z" fill="#E88A60"/>
<path d="M448.737 257.051L448.379 260.766L446.34 258.161L447.725 258.382L448.737 257.051Z" fill="#E88A60"/>
<path d="M549.435 243.034C551.008 244.214 552.162 245.775 552.057 247.485C551.986 248.646 552.029 249.686 551.017 250.281C549.818 250.984 548.672 250.108 547.608 249.214C545.405 247.363 545.312 246.345 543.29 244.087C542.477 243.18 541.844 242.698 541.035 243.091C540.438 243.381 540.631 244.954 541.402 246.545C542.687 249.198 549.018 255.756 549.951 258.222C550.948 260.857 550.371 264.284 548.972 264.739C547.495 265.221 546.012 262.826 544.567 261.038C541.28 256.971 541.201 254.54 538.255 250.642C537.464 249.595 536.468 247.406 535.239 247.883C534.35 248.229 534.877 250.487 534.977 252.157C535.098 254.166 541.723 260.863 541.438 264.849C541.266 267.249 541.177 270.366 538.763 270.691C537.303 270.887 536.088 269.046 534.934 267.024C532.058 261.986 531.542 256.236 531.665 254.241C531.79 252.196 529.855 250.699 528.99 250.646C528.013 250.586 527.895 252.859 527.591 254.563C527.15 257.042 529.698 262.7 530.065 266.154C530.315 268.506 531.205 271.764 528.833 272.084C527.373 272.28 524.837 269.426 523.361 266.887C520.876 262.613 523.125 256.577 522.976 254.28C522.866 252.582 522.897 250.844 521.472 250.471C520.047 250.097 520.257 256.115 519.777 259.232C519.777 259.232 519.279 262.633 517.259 262.509C515.24 262.385 514.532 259.768 514.585 258.913L515.039 251.506C515.339 246.611 516.098 243.867 515.807 238.971C515.437 232.733 513.787 229.424 512.424 223.321C510.953 216.74 508.682 208.793 508.533 206.496C508.385 204.199 509.005 198.804 509.363 197.682C509.722 196.56 510.769 196.192 512.082 195.847C513.394 195.502 514.48 195.636 515.543 196.059C516.606 196.483 518.393 196.806 522.082 202.752C525.771 208.697 526.555 212.838 530.063 218.969L530.126 219.08C533.11 224.294 534.82 227.282 538.525 232.071C540.708 234.892 541.835 236.596 544.47 239.012C546.375 240.76 548.604 242.411 549.435 243.034Z" fill="#E88A60"/>
<path d="M553.69 249.301L554.453 255.639L550.044 251.988L552.468 251.878L553.69 249.301Z" fill="#E88A60"/>
<path d="M551.203 264.811L550.338 270.257L547.56 266.218L549.587 266.677L551.203 264.811Z" fill="#E88A60"/>
<path d="M542.165 270.548L541.3 275.994L538.522 271.955L540.549 272.414L542.165 270.548Z" fill="#E88A60"/>
<path d="M531.614 272.168L531.509 277.681L528.201 274.054L530.272 274.235L531.614 272.168Z" fill="#E88A60"/>
<path d="M519.182 263.535L518.227 267.144L516.636 264.243L517.967 264.685L519.182 263.535Z" fill="#E88A60"/>
<path d="M189.977 41.2751C191.581 41.3694 193.071 41.9121 193.771 43.1238C194.246 43.9472 194.745 44.6362 194.323 45.4975C193.824 46.5178 192.648 46.4374 191.52 46.3083C189.185 46.0409 188.662 45.3899 186.266 44.7639C185.303 44.5122 184.654 44.4693 184.281 45.1025C184.005 45.5693 184.846 46.5537 186.089 47.2898C188.16 48.5171 195.431 50.1287 197.179 51.3881C199.046 52.7334 200.199 55.3277 199.452 56.2691C198.663 57.2632 196.573 56.301 194.781 55.7346C190.708 54.4468 189.558 52.8263 185.793 51.4996C184.782 51.1435 183.116 50.1013 182.494 50.9807C182.044 51.6175 183.422 52.9179 184.243 54.0099C185.231 55.3242 192.765 56.8986 194.369 59.7424C195.334 61.4548 196.679 63.6179 195.181 64.9277C194.276 65.7199 192.618 65.0138 190.92 64.1571C186.688 62.0225 183.743 58.3377 182.927 56.9241C182.09 55.4741 180.096 55.327 179.483 55.6812C178.791 56.0808 179.735 57.6831 180.297 58.9807C181.115 60.8685 185.402 63.5728 187.21 65.7601C188.441 67.2496 190.517 69.0681 189.045 70.3552C188.14 71.1474 185.124 70.347 182.974 69.2832C179.354 67.4925 178.163 62.3671 177.026 60.8696C176.185 59.7624 175.422 58.5642 174.283 58.9525C173.144 59.3408 176.002 63.3457 177.08 65.6852C177.08 65.6852 178.274 68.2267 176.843 69.0531C175.412 69.8794 173.749 68.416 173.399 67.8102L170.368 62.5595C168.364 59.0894 167.644 56.8783 165.237 53.6737C162.172 49.5919 159.555 48.0814 155.874 44.5393C151.904 40.7194 146.773 36.3306 145.635 34.8331C144.498 33.3356 142.487 29.3805 142.225 28.4546C141.964 27.5288 142.511 26.8055 143.25 25.9785C143.988 25.1515 144.788 24.7527 145.703 24.5618C146.619 24.371 147.981 23.7852 153.176 26.1714C158.37 28.5577 160.772 31.0251 165.927 33.619L166.02 33.6658C170.405 35.8721 172.917 37.1362 177.601 38.7271C180.36 39.6643 181.897 40.3169 184.781 40.7747C186.867 41.1059 189.131 41.2253 189.977 41.2751Z" fill="#E88A60"/>
<path d="M195.702 43.6246L199.08 47.5979L194.431 47.0998L196.032 45.9311L195.702 43.6246Z" fill="#E88A60"/>
<path d="M201.003 55.3115L202.87 59.4116L199.157 57.9135L200.744 57.3118L201.003 55.3115Z" fill="#E88A60"/>
<path d="M197.434 63.2959L199.301 67.396L195.588 65.8979L197.175 65.2963L197.434 63.2959Z" fill="#E88A60"/>
<path d="M190.978 69.1584L193.393 72.9612L189.503 71.9826L190.996 71.1723L190.978 69.1584Z" fill="#E88A60"/>
<path d="M178.615 68.8851L179.592 71.7739L177.2 70.5151L178.307 70.216L178.615 68.8851Z" fill="#E88A60"/>
<path d="M122.278 36.8511C123.62 37.7348 124.639 38.9498 124.639 40.349C124.639 41.2997 124.726 42.1458 123.931 42.6809C122.988 43.3148 122.01 42.6572 121.097 41.9813C119.208 40.5822 119.081 39.7569 117.32 38.0171C116.611 37.3175 116.071 36.956 115.431 37.3175C114.959 37.5839 115.195 38.8571 115.903 40.1158C117.084 42.2145 122.574 47.2456 123.458 49.2102C124.403 51.3089 124.104 54.132 122.986 54.5736C121.806 55.04 120.477 53.1617 119.208 51.7753C116.325 48.6235 116.139 46.6451 113.542 43.6136C112.845 42.8 111.923 41.0642 110.945 41.5149C110.236 41.8414 110.78 43.6566 110.945 45.0128C111.143 46.6451 116.88 51.7753 116.847 55.04C116.827 57.0058 116.91 59.5515 114.959 59.937C113.778 60.1702 112.695 58.7297 111.653 57.1387C109.056 53.1745 108.348 48.5107 108.348 46.8783C108.347 45.2041 106.695 44.08 105.986 44.08C105.187 44.08 105.204 45.9401 105.042 47.3447C104.806 49.3882 107.167 53.8741 107.639 56.6724C107.961 58.5779 108.849 61.1905 106.931 61.5694C105.75 61.8025 103.539 59.6018 102.209 57.6051C99.9689 54.2443 101.5 49.2102 101.264 47.3447C101.09 45.9654 101.028 44.5464 99.8477 44.3132C98.6672 44.08 99.1393 48.9771 98.9032 51.5422C98.9032 51.5422 98.6671 54.3405 97.0143 54.3405C95.3616 54.3405 94.6533 52.2417 94.6533 51.5422L94.6533 45.4792C94.6533 41.4722 95.1352 39.1973 94.6533 35.2188C94.0394 30.1511 92.5286 27.5346 91.1116 22.6265C89.5835 17.3333 87.3339 10.9669 87.0978 9.10136C86.8617 7.23584 87.0978 2.8052 87.3339 1.87244C87.57 0.93967 88.4056 0.586871 89.4589 0.240096C90.5122 -0.106675 91.4041 -0.0522699 92.2922 0.240096C93.1802 0.532462 94.6533 0.706481 97.9588 5.3703C101.264 10.0341 102.111 13.3719 105.278 18.1958L105.335 18.2828C108.029 22.3858 109.573 24.7367 112.834 28.4562C114.754 30.6475 115.759 31.9811 118.028 33.8196C119.669 35.1495 121.57 36.3847 122.278 36.8511Z" fill="#E88A60"/>
<path d="M126.061 41.7481L127 46.8783L123.222 44.1221L125.194 43.9108L126.061 41.7481Z" fill="#E88A60"/>
<path d="M124.809 54.5201L124.375 59.0043L121.908 55.8502L123.584 56.123L124.809 54.5201Z" fill="#E88A60"/>
<path d="M117.726 59.6503L117.292 64.1345L114.825 60.9804L116.501 61.2532L117.726 59.6503Z" fill="#E88A60"/>
<path d="M109.203 61.4993L109.393 66L106.514 63.2077L108.212 63.2522L109.203 61.4993Z" fill="#E88A60"/>
<path d="M98.6333 55.0812L98.035 58.0715L96.593 55.7854L97.7006 56.0796L98.6333 55.0812Z" fill="#E88A60"/>
<path d="M95.5489 1277.23C95.0419 1279.19 95.1166 1281.19 96.2989 1282.5C97.1022 1283.38 97.7355 1284.25 98.9309 1284.08C100.347 1283.87 100.705 1282.43 100.987 1281.03C101.569 1278.13 100.99 1277.25 101.166 1274.13C101.237 1272.88 101.436 1272.09 102.339 1271.88C103.006 1271.73 103.861 1273.12 104.263 1274.9C104.933 1277.85 104.055 1287.19 104.889 1289.78C105.78 1292.53 108.445 1294.92 109.862 1294.39C111.359 1293.83 111.013 1290.95 111.027 1288.58C111.057 1283.2 109.559 1281.2 109.424 1276.17C109.388 1274.82 108.782 1272.42 110.077 1272.01C111.014 1271.72 112.041 1273.88 113.032 1275.28C114.226 1276.97 113.201 1286.61 115.991 1289.64C117.67 1291.46 119.744 1293.9 121.893 1292.61C123.193 1291.84 122.987 1289.57 122.617 1287.21C121.693 1281.31 118.414 1276.35 117.035 1274.83C115.62 1273.27 116.214 1270.82 116.876 1270.22C117.623 1269.55 119.178 1271.3 120.517 1272.47C122.464 1274.18 124.049 1280.37 125.972 1283.38C127.282 1285.43 128.66 1288.62 130.771 1287.36C132.071 1286.58 132.277 1282.65 131.833 1279.66C131.086 1274.63 125.402 1271.22 124.046 1269.28C123.044 1267.84 121.902 1266.47 122.808 1265.25C123.713 1264.04 127.41 1269.01 129.798 1271.21C129.798 1271.21 132.383 1273.62 133.927 1272.22C135.471 1270.83 134.359 1268.27 133.768 1267.62L128.645 1261.95C125.26 1258.21 122.887 1256.49 119.976 1252.37C116.267 1247.11 115.468 1243.39 112.644 1237.61C109.599 1231.37 106.321 1223.53 104.966 1221.58C103.61 1219.64 99.6457 1215.7 98.637 1215.03C97.6283 1214.36 96.5496 1214.74 95.2727 1215.3C93.9957 1215.87 93.2084 1216.67 92.6259 1217.7C92.0433 1218.72 90.8143 1220.13 91.6671 1227.28C92.52 1234.43 94.5496 1238.26 95.6667 1245.44L95.6868 1245.57C96.637 1251.68 97.1814 1255.18 97.2782 1261.41C97.3352 1265.08 97.5236 1267.18 96.9576 1270.81C96.5483 1273.44 95.8164 1276.2 95.5489 1277.23Z" fill="#E88A60"/>
<path d="M96.1527 1285L99.6101 1290.59L100.81 1284.82L98.7901 1286.29L96.1527 1285Z" fill="#E88A60"/>
<path d="M108.114 1295.88L112.308 1299.7L111.947 1294.67L110.613 1296.34L108.114 1295.88Z" fill="#E88A60"/>
<path d="M119.066 1294.69L123.26 1298.51L122.899 1293.48L121.564 1295.15L119.066 1294.69Z" fill="#E88A60"/>
<path d="M128.589 1289.21L132.215 1293.58L132.545 1288.53L130.997 1290.01L128.589 1289.21Z" fill="#E88A60"/>
<path d="M133.041 1274.28L136.126 1276.57L135.542 1273.22L134.756 1274.43L133.041 1274.28Z" fill="#E88A60"/>
<path d="M146.911 1213.98C145.503 1215.43 144.583 1217.21 144.967 1218.93C145.228 1220.1 145.352 1221.16 146.477 1221.6C147.81 1222.12 148.832 1221.04 149.769 1219.96C151.707 1217.72 151.637 1216.67 153.326 1214.05C154.005 1213 154.57 1212.41 155.456 1212.67C156.11 1212.87 156.168 1214.5 155.643 1216.24C154.767 1219.15 149.397 1226.84 148.848 1229.5C148.263 1232.34 149.404 1235.72 150.9 1235.96C152.479 1236.21 153.598 1233.54 154.777 1231.48C157.458 1226.82 157.143 1224.34 159.505 1219.9C160.139 1218.71 160.797 1216.32 162.123 1216.6C163.083 1216.81 162.913 1219.19 163.082 1220.9C163.285 1222.97 157.639 1230.85 158.575 1234.85C159.138 1237.26 159.734 1240.41 162.24 1240.35C163.755 1240.32 164.691 1238.25 165.536 1236.01C167.642 1230.42 167.234 1224.49 166.786 1222.49C166.327 1220.43 168.051 1218.59 168.922 1218.4C169.904 1218.18 170.393 1220.47 170.978 1222.15C171.829 1224.6 170.156 1230.76 170.343 1234.33C170.47 1236.76 170.095 1240.22 172.556 1240.16C174.072 1240.12 176.186 1236.81 177.275 1233.99C179.107 1229.24 175.844 1223.48 175.622 1221.12C175.459 1219.37 175.145 1217.61 176.533 1217C177.92 1216.39 178.682 1222.54 179.676 1225.63C179.676 1225.63 180.734 1229.01 182.766 1228.55C184.798 1228.1 185.093 1225.32 184.901 1224.46L183.238 1217.01C182.14 1212.08 180.923 1209.42 180.425 1204.4C179.79 1198 180.93 1194.37 181.326 1187.94C181.753 1181.02 182.773 1172.57 182.552 1170.22C182.33 1167.86 180.825 1162.48 180.279 1161.39C179.733 1160.31 178.609 1160.11 177.219 1159.97C175.829 1159.83 174.747 1160.14 173.736 1160.75C172.724 1161.35 170.961 1161.97 168.176 1168.61C165.391 1175.25 165.266 1179.58 162.695 1186.38L162.648 1186.5C160.461 1192.29 159.208 1195.6 156.22 1201.07C154.459 1204.29 153.589 1206.2 151.304 1209.09C149.651 1211.17 147.653 1213.21 146.911 1213.98Z" fill="#E88A60"/>
<path d="M143.603 1221.04L143.855 1227.6L147.743 1223.18L145.262 1223.46L143.603 1221.04Z" fill="#E88A60"/>
<path d="M148.645 1236.39L150.407 1241.79L152.575 1237.23L150.589 1238.03L148.645 1236.39Z" fill="#E88A60"/>
<path d="M158.759 1240.76L160.522 1246.15L162.689 1241.6L160.704 1242.39L158.759 1240.76Z" fill="#E88A60"/>
<path d="M169.744 1240.7L170.744 1246.28L173.518 1242.06L171.443 1242.58L169.744 1240.7Z" fill="#E88A60"/>
<path d="M180.978 1229.91L182.534 1233.42L183.68 1230.21L182.399 1230.88L180.978 1229.91Z" fill="#E88A60"/>
<path d="M27.114 1207.27C25.0913 1207.2 23.1583 1207.7 22.1368 1209.14C21.4426 1210.11 20.7352 1210.92 21.1613 1212.05C21.6662 1213.39 23.1503 1213.43 24.5803 1213.4C27.5406 1213.34 28.2737 1212.59 31.3522 1212.09C32.59 1211.89 33.4082 1211.91 33.8017 1212.75C34.0918 1213.37 32.9197 1214.5 31.274 1215.28C28.53 1216.57 19.2208 1217.72 16.879 1219.09C14.3773 1220.56 12.623 1223.68 13.4479 1224.94C14.3192 1226.29 17.0545 1225.33 19.3686 1224.83C24.6298 1223.7 26.2646 1221.81 31.1438 1220.59C32.4534 1220.26 34.6672 1219.16 35.342 1220.33C35.8306 1221.18 33.9479 1222.65 32.7882 1223.92C31.3925 1225.45 21.7582 1226.53 19.4087 1229.91C17.9939 1231.94 16.0502 1234.49 17.7722 1236.31C18.8137 1237.41 20.9767 1236.72 23.2082 1235.85C28.7682 1233.68 32.9002 1229.41 34.092 1227.73C35.3145 1226.02 37.8314 1226.07 38.5586 1226.59C39.379 1227.17 38.0034 1229.07 37.1445 1230.63C35.8948 1232.9 30.1963 1235.78 27.6687 1238.3C25.9474 1240.03 23.1282 1242.06 24.8204 1243.85C25.8619 1244.95 29.7381 1244.3 32.5618 1243.23C37.3144 1241.41 39.4178 1235.13 41.0222 1233.38C42.2085 1232.1 43.3075 1230.68 44.6895 1231.31C46.0715 1231.93 42.0116 1236.61 40.3812 1239.42C40.3812 1239.42 38.5806 1242.46 40.277 1243.67C41.9735 1244.87 44.2328 1243.24 44.7436 1242.52L49.1701 1236.3C52.0955 1232.18 53.2617 1229.5 56.6611 1225.76C60.991 1221.01 64.452 1219.43 69.4899 1215.42C74.9229 1211.11 81.88 1206.21 83.4844 1204.47C85.0887 1202.73 88.0811 1198.01 88.5198 1196.88C88.9584 1195.75 88.3584 1194.78 87.5303 1193.65C86.7023 1192.53 85.7471 1191.93 84.6221 1191.58C83.4971 1191.24 81.8581 1190.34 75.0601 1192.71C68.2622 1195.09 64.9566 1197.89 58.1835 1200.53L58.0614 1200.58C52.3005 1202.83 48.9997 1204.11 42.9372 1205.55C39.3656 1206.4 37.3607 1207.03 33.6897 1207.26C31.0343 1207.43 28.1815 1207.31 27.114 1207.27Z" fill="#E88A60"/>
<path d="M19.6558 1209.54L14.9463 1214.12L20.8362 1214.04L18.967 1212.39L19.6558 1209.54Z" fill="#E88A60"/>
<path d="M11.6164 1223.56L8.78735 1228.48L13.6221 1227.04L11.7029 1226.1L11.6164 1223.56Z" fill="#E88A60"/>
<path d="M15.1413 1234L12.3123 1238.92L17.147 1237.48L15.2278 1236.54L15.1413 1234Z" fill="#E88A60"/>
<path d="M22.539 1242.12L19.0582 1246.6L24.0523 1245.83L22.2772 1244.64L22.539 1242.12Z" fill="#E88A60"/>
<path d="M38.0744 1243.25L36.5054 1246.75L39.6546 1245.46L38.303 1244.95L38.0744 1243.25Z" fill="#E88A60"/>
<path d="M125.385 1126.36C123.447 1125.78 121.449 1125.78 120.098 1126.91C119.18 1127.68 118.292 1128.28 118.419 1129.48C118.569 1130.9 119.995 1131.31 121.385 1131.65C124.264 1132.34 125.164 1131.8 128.269 1132.09C129.517 1132.21 130.303 1132.44 130.472 1133.35C130.596 1134.02 129.175 1134.82 127.387 1135.16C124.406 1135.71 115.107 1134.48 112.494 1135.21C109.704 1136 107.219 1138.57 107.696 1140.01C108.201 1141.52 111.089 1141.29 113.454 1141.39C118.83 1141.63 120.89 1140.21 125.918 1140.27C127.268 1140.28 129.69 1139.77 130.046 1141.08C130.303 1142.02 128.111 1142.97 126.667 1143.9C124.93 1145.03 115.336 1143.64 112.21 1146.31C110.328 1147.92 107.802 1149.9 109.008 1152.1C109.738 1153.43 112.004 1153.31 114.384 1153.03C120.312 1152.33 125.389 1149.24 126.966 1147.92C128.583 1146.57 131.005 1147.26 131.578 1147.94C132.224 1148.71 130.414 1150.2 129.188 1151.49C127.406 1153.37 121.164 1154.72 118.08 1156.53C115.98 1157.76 112.738 1159.01 113.923 1161.17C114.653 1162.5 118.566 1162.85 121.57 1162.52C126.627 1161.97 130.251 1156.42 132.243 1155.14C133.717 1154.19 135.137 1153.1 136.317 1154.06C137.496 1155.01 132.385 1158.51 130.099 1160.81C130.099 1160.81 127.587 1163.31 128.924 1164.9C130.26 1166.5 132.86 1165.48 133.536 1164.92L139.391 1160.02C143.261 1156.78 145.068 1154.47 149.3 1151.72C154.691 1148.21 158.439 1147.56 164.326 1144.96C170.673 1142.15 178.641 1139.18 180.633 1137.9C182.626 1136.62 186.714 1132.8 187.424 1131.82C188.134 1130.84 187.799 1129.75 187.282 1128.45C186.765 1127.15 185.992 1126.34 184.991 1125.71C183.991 1125.09 182.631 1123.81 175.454 1124.39C168.277 1124.97 164.369 1126.85 157.149 1127.69L157.019 1127.71C150.878 1128.42 147.359 1128.83 141.13 1128.69C137.46 1128.61 135.36 1128.72 131.75 1128.01C129.138 1127.5 126.408 1126.67 125.385 1126.36Z" fill="#E88A60"/>
<path d="M117.597 1126.67L111.883 1129.91L117.599 1131.33L116.209 1129.25L117.597 1126.67Z" fill="#E88A60"/>
<path d="M106.274 1138.2L102.294 1142.25L107.335 1142.08L105.717 1140.68L106.274 1138.2Z" fill="#E88A60"/>
<path d="M107.047 1149.19L103.067 1153.24L108.108 1153.07L106.49 1151.67L107.047 1149.19Z" fill="#E88A60"/>
<path d="M112.153 1158.92L107.653 1162.37L112.678 1162.9L111.262 1161.29L112.153 1158.92Z" fill="#E88A60"/>
<path d="M126.899 1163.94L124.495 1166.93L127.869 1166.48L126.689 1165.64L126.899 1163.94Z" fill="#E88A60"/>
<path d="M1182.25 798.95C1180.63 799.813 1179.33 801.088 1179.18 802.683C1179.08 803.767 1178.89 804.722 1179.74 805.418C1180.74 806.243 1181.93 805.599 1183.04 804.927C1185.35 803.536 1185.58 802.609 1187.78 800.816C1188.66 800.095 1189.32 799.741 1190.01 800.223C1190.52 800.577 1190.11 802.003 1189.17 803.362C1187.59 805.627 1180.79 810.769 1179.57 812.913C1178.27 815.204 1178.3 818.455 1179.53 819.079C1180.82 819.739 1182.54 817.741 1184.14 816.298C1187.77 813.016 1188.19 810.781 1191.48 807.605C1192.36 806.753 1193.6 804.874 1194.67 805.494C1195.44 805.942 1194.63 807.953 1194.29 809.482C1193.89 811.321 1186.79 816.55 1186.48 820.275C1186.29 822.519 1185.92 825.412 1188.1 826.063C1189.42 826.456 1190.81 824.931 1192.17 823.23C1195.56 818.991 1196.87 813.751 1197.05 811.889C1197.23 809.981 1199.24 808.878 1200.04 808.954C1200.96 809.041 1200.73 811.16 1200.77 812.779C1200.82 815.134 1197.64 819.993 1196.8 823.133C1196.23 825.27 1194.93 828.153 1197.08 828.792C1198.4 829.186 1201.16 826.916 1202.89 824.783C1205.81 821.194 1204.6 815.289 1205.08 813.187C1205.42 811.634 1205.65 810.023 1207.02 809.884C1208.39 809.746 1207.32 815.278 1207.31 818.228C1207.31 818.228 1207.28 821.444 1209.16 821.623C1211.05 821.802 1212.08 819.486 1212.16 818.688L1212.81 811.776C1213.25 807.207 1212.94 804.561 1213.92 800.077C1215.17 794.366 1217.18 791.546 1219.32 786.104C1221.64 780.234 1224.89 773.219 1225.36 771.118C1225.83 769.016 1226.04 763.939 1225.88 762.85C1225.71 761.761 1224.79 761.269 1223.63 760.759C1222.47 760.25 1221.44 760.215 1220.4 760.453C1219.36 760.69 1217.66 760.729 1213.38 765.689C1209.11 770.649 1207.79 774.363 1203.65 779.52L1203.58 779.613C1200.06 783.999 1198.05 786.513 1193.93 790.401C1191.5 792.691 1190.21 794.103 1187.43 795.954C1185.41 797.292 1183.11 798.495 1182.25 798.95Z" fill="#E88A60"/>
<path d="M1177.41 804.124L1175.78 809.872L1180.39 807.138L1178.16 806.684L1177.41 804.124Z" fill="#E88A60"/>
<path d="M1177.46 818.821L1177.46 823.981L1180.62 820.652L1178.68 820.781L1177.46 818.821Z" fill="#E88A60"/>
<path d="M1184.98 825.437L1184.98 830.596L1188.14 827.267L1186.2 827.397L1184.98 825.437Z" fill="#E88A60"/>
<path d="M1194.49 828.467L1193.79 833.578L1197.37 830.705L1195.43 830.572L1194.49 828.467Z" fill="#E88A60"/>
<path d="M1207.24 822.293L1207.6 825.767L1209.49 823.316L1208.19 823.532L1207.24 822.293Z" fill="#E88A60"/>
<path d="M1161.27 719.689C1159.54 719.069 1157.72 718.973 1156.44 719.936C1155.57 720.591 1154.74 721.093 1154.8 722.19C1154.87 723.489 1156.14 723.932 1157.39 724.301C1159.97 725.067 1160.81 724.615 1163.62 725.03C1164.74 725.197 1165.45 725.442 1165.56 726.277C1165.64 726.893 1164.31 727.553 1162.67 727.771C1159.94 728.136 1151.55 726.573 1149.15 727.116C1146.57 727.697 1144.2 729.914 1144.56 731.241C1144.95 732.642 1147.58 732.566 1149.72 732.772C1154.59 733.242 1156.53 732.05 1161.09 732.34C1162.32 732.418 1164.54 732.067 1164.8 733.273C1164.99 734.146 1162.96 734.898 1161.6 735.681C1159.97 736.622 1151.33 734.903 1148.36 737.181C1146.58 738.552 1144.19 740.228 1145.18 742.28C1145.78 743.521 1147.84 743.521 1150.02 743.38C1155.43 743.028 1160.19 740.465 1161.68 739.342C1163.21 738.189 1165.38 738.928 1165.87 739.577C1166.42 740.308 1164.7 741.573 1163.53 742.688C1161.82 744.311 1156.09 745.238 1153.21 746.732C1151.24 747.75 1148.24 748.735 1149.21 750.751C1149.81 751.992 1153.35 752.501 1156.09 752.345C1160.71 752.081 1164.26 747.214 1166.13 746.146C1167.51 745.356 1168.85 744.436 1169.88 745.356C1170.91 746.276 1166.1 749.215 1163.91 751.197C1163.91 751.197 1161.52 753.339 1162.65 754.852C1163.79 756.364 1166.2 755.568 1166.84 755.086L1172.39 750.913C1176.06 748.155 1177.81 746.148 1181.78 743.85C1186.84 740.923 1190.28 740.505 1195.74 738.423C1201.64 736.178 1209.02 733.855 1210.89 732.787C1212.76 731.719 1216.65 728.453 1217.34 727.594C1218.03 726.736 1217.78 725.729 1217.37 724.526C1216.96 723.323 1216.3 722.544 1215.42 721.932C1214.54 721.321 1213.37 720.092 1206.82 720.277C1200.28 720.462 1196.64 721.985 1190.05 722.407L1189.93 722.415C1184.32 722.773 1181.1 722.979 1175.46 722.555C1172.13 722.305 1170.22 722.303 1166.97 721.492C1164.62 720.906 1162.18 720.016 1161.27 719.689Z" fill="#E88A60"/>
<path d="M1154.18 719.598L1148.84 722.27L1153.97 723.83L1152.8 721.88L1154.18 719.598Z" fill="#E88A60"/>
<path d="M1143.36 729.536L1139.55 733.019L1144.14 733.106L1142.73 731.76L1143.36 729.536Z" fill="#E88A60"/>
<path d="M1143.54 739.55L1139.73 743.034L1144.32 743.12L1142.91 741.774L1143.54 739.55Z" fill="#E88A60"/>
<path d="M1147.71 748.623L1143.46 751.548L1148 752.261L1146.79 750.738L1147.71 748.623Z" fill="#E88A60"/>
<path d="M1160.86 753.88L1158.54 756.486L1161.62 756.232L1160.59 755.421L1160.86 753.88Z" fill="#E88A60"/>
<path d="M1261.43 782.489C1260.27 783.917 1259.58 785.595 1260.06 787.123C1260.39 788.161 1260.58 789.116 1261.64 789.426C1262.88 789.793 1263.73 788.738 1264.49 787.685C1266.07 785.506 1265.92 784.561 1267.25 782.054C1267.78 781.046 1268.25 780.465 1269.07 780.639C1269.68 780.767 1269.86 782.239 1269.52 783.858C1268.95 786.557 1264.69 793.944 1264.4 796.394C1264.09 799.012 1265.39 801.992 1266.77 802.089C1268.22 802.192 1269.02 799.682 1269.93 797.731C1271.99 793.295 1271.51 791.07 1273.3 786.864C1273.78 785.735 1274.19 783.522 1275.42 783.677C1276.3 783.789 1276.34 785.959 1276.62 787.497C1276.97 789.348 1272.47 796.929 1273.63 800.483C1274.33 802.623 1275.12 805.432 1277.38 805.18C1278.75 805.028 1279.44 803.082 1280.03 800.985C1281.5 795.76 1280.66 790.422 1280.1 788.64C1279.53 786.811 1280.94 785.014 1281.72 784.77C1282.59 784.494 1283.21 786.532 1283.87 788.01C1284.83 790.16 1283.8 795.873 1284.25 799.092C1284.56 801.284 1284.49 804.444 1286.71 804.196C1288.08 804.044 1289.74 800.879 1290.5 798.239C1291.79 793.797 1288.38 788.827 1288 786.708C1287.71 785.141 1287.29 783.57 1288.5 782.909C1289.71 782.247 1290.88 787.758 1292.02 790.478C1292.02 790.478 1293.25 793.453 1295.05 792.884C1296.86 792.314 1296.91 789.778 1296.67 789.014L1294.58 782.392C1293.2 778.016 1291.88 775.697 1291.04 771.186C1289.96 765.44 1290.71 762.061 1290.57 756.212C1290.41 749.905 1290.68 742.176 1290.29 740.058C1289.91 737.939 1288.12 733.181 1287.54 732.244C1286.96 731.306 1285.93 731.209 1284.66 731.193C1283.39 731.178 1282.43 731.544 1281.56 732.17C1280.69 732.795 1279.15 733.493 1277.14 739.726C1275.14 745.959 1275.37 749.896 1273.57 756.256L1273.54 756.37C1272.01 761.78 1271.13 764.88 1268.85 770.066C1267.51 773.121 1266.87 774.924 1265.03 777.713C1263.7 779.731 1262.04 781.736 1261.43 782.489Z" fill="#E88A60"/>
<path d="M1258.99 789.141L1259.73 795.068L1262.91 790.756L1260.68 791.204L1258.99 789.141Z" fill="#E88A60"/>
<path d="M1264.76 802.659L1266.78 807.407L1268.38 803.112L1266.65 803.987L1264.76 802.659Z" fill="#E88A60"/>
<path d="M1274.26 805.821L1276.28 810.569L1277.89 806.274L1276.15 807.149L1274.26 805.821Z" fill="#E88A60"/>
<path d="M1284.21 804.903L1285.55 809.884L1287.73 805.842L1285.89 806.476L1284.21 804.903Z" fill="#E88A60"/>
<path d="M1293.54 794.251L1295.22 797.31L1296.01 794.317L1294.9 795.02L1293.54 794.251Z" fill="#E88A60"/>
</g>
</svg>
