<svg width="334" height="313" viewBox="0 0 334 313" fill="none" xmlns="http://www.w3.org/2000/svg">
<path d="M262.429 284.451C265.429 285.648 267.538 287.833 270.17 289.175C271.032 289.615 271.944 289.875 272.902 289.932C273.379 289.96 273.892 289.926 274.1 289.368C274.279 288.888 273.972 288.512 273.65 288.266C272.682 287.53 271.946 286.511 270.824 285.973C270.073 285.613 269.727 284.957 270.142 284.292C270.613 283.54 271.161 284.272 271.585 284.545C273.269 285.615 274.914 286.754 276.598 287.829C277.814 288.606 279.555 289.665 280.459 288.549C281.36 287.437 279.668 286.225 278.788 285.229C278.543 284.953 278.244 284.723 278.004 284.443C277.663 284.047 277.497 283.548 277.91 283.161C278.337 282.759 278.653 283.22 278.979 283.477C280.385 284.585 281.458 286.102 283.131 286.878C283.42 287.011 283.678 287.244 283.975 287.312C284.875 287.511 285.994 288.199 286.634 287.31C287.239 286.468 286.036 285.908 285.624 285.227C285.37 284.803 284.793 284.512 285.13 283.738C286.295 284.464 287.415 285.201 288.575 285.864C289.166 286.202 289.817 286.454 290.464 286.669C291.08 286.874 291.759 286.92 292.281 286.473C292.97 285.886 292.119 285.348 292.1 284.605C292.815 285.102 293.405 285.615 294.078 285.946C294.675 286.239 295.372 286.519 296.044 286.081C296.782 285.6 296.463 284.913 296.165 284.218C299.273 285.164 302.088 283.997 304.947 283.756C310.602 283.278 315.903 281.145 321.429 280.021C324.936 279.308 328.449 278.559 331.955 277.82C332.162 277.775 332.376 277.739 332.568 277.649C333.037 277.43 333.736 277.289 333.686 276.684C333.631 276.004 332.874 276.077 332.402 276.076C325.92 276.044 319.433 275.636 313.037 277.311C309.267 278.298 305.378 278.868 301.458 279.036C300.049 279.099 298.639 278.721 297.223 279.205C296.423 279.48 296.179 278.686 295.887 278.132C294.968 276.375 294.142 276.274 292.855 277.774C292.58 278.093 292.349 278.452 292.081 278.78C291.781 279.152 291.46 279.586 290.899 279.325C290.355 279.068 290.446 278.578 290.539 278.085C290.659 277.466 290.82 276.832 290.784 276.212C290.705 274.842 289.941 274.386 288.63 274.826C287.888 275.074 287.383 275.605 286.993 276.253C286.72 276.705 286.551 277.23 286.224 277.634C285.81 278.147 285.357 278.995 284.652 278.721C283.971 278.459 284.406 277.612 284.441 277.013C284.489 276.196 284.917 275.23 284.015 274.69C283.078 274.129 282.336 274.796 281.616 275.378C280.737 276.089 280.012 276.898 279.539 277.938C279.22 278.633 278.676 279.081 277.888 278.756C277.103 278.429 277.296 277.732 277.468 277.106C277.651 276.445 277.928 275.802 278.037 275.131C278.236 273.876 277.377 273.196 276.211 273.697C274.488 274.439 273.283 275.713 272.627 277.49C272.501 277.837 272.406 278.201 272.236 278.527C271.866 279.225 271.293 279.791 270.476 279.612C269.488 279.393 269.876 278.532 269.931 277.893C270.016 276.893 270.21 275.906 270.047 274.892C269.822 273.48 268.858 273.045 267.68 273.855C266.811 274.455 266.324 275.341 266.051 276.324C265.735 277.467 265.16 278.476 264.478 279.405C264.102 279.916 263.532 280.587 262.756 280.091C262.031 279.629 262.257 278.856 262.499 278.212C262.794 277.425 263.213 276.68 263.539 275.903C263.803 275.271 264.066 274.631 264.225 273.967C264.426 273.112 264.819 272.087 263.932 271.475C263.055 270.869 262.084 271.3 261.259 271.836C259.119 273.226 257.881 275.282 257.114 277.651C256.865 278.418 256.533 279.129 256.055 279.766C255.757 280.163 255.335 280.455 254.817 280.256C254.274 280.048 254.517 279.522 254.519 279.133C254.527 278.078 255.29 277.304 255.611 276.362C255.899 275.514 256.313 274.711 256.604 273.86C256.853 273.125 256.824 272.391 256.194 271.805C255.594 271.248 254.898 271.399 254.244 271.604C251.768 272.376 250.632 274.363 249.789 276.604C249.439 277.536 249.315 278.581 248.627 279.35C248.229 279.791 247.796 280.471 247.052 280.088C246.373 279.739 246.421 279.029 246.566 278.391C246.852 277.134 247.486 276.04 248.221 274.995C248.645 274.394 249.073 273.786 249.435 273.147C249.737 272.608 250.213 271.999 249.74 271.388C249.315 270.84 248.636 270.919 247.979 271.016C245.029 271.444 243.212 273.357 241.818 275.762C241.27 276.708 240.978 277.8 240.512 278.801C240.219 279.431 239.669 279.857 238.972 279.523C238.242 279.177 238.412 278.522 238.606 277.864C239.104 276.202 240.378 275.004 241.131 273.497C241.578 272.601 242.146 271.758 242.516 270.833C242.969 269.694 242.458 268.964 241.22 268.928C239.955 268.892 238.913 269.504 237.878 270.176C235.238 271.896 233.683 274.423 232.473 277.226C232.349 277.518 232.231 277.817 232.065 278.086C231.789 278.54 231.476 279.067 230.838 278.821C230.33 278.628 230.251 278.083 230.297 277.603C230.355 276.974 230.463 276.362 230.765 275.774C231.831 273.708 232.936 271.679 234.317 269.798C234.968 268.912 236.002 267.893 235.148 266.674C234.262 265.407 232.974 266.117 231.96 266.518C228.757 267.783 226.522 270.06 225.381 273.349C225.191 273.896 225.025 274.455 224.826 275.001C223.939 277.413 223.706 277.559 221.143 277.543C220.456 277.54 221.245 276.913 221.467 276.103C222.354 272.893 224.788 270.663 226.465 267.954C226.923 267.213 227.776 266.524 227.17 265.548C226.521 264.5 225.426 264.741 224.433 264.892C223.913 264.971 223.404 265.131 222.9 265.299C221.931 265.627 220.822 268.06 220.831 267.816C220.843 267.539 220.875 267.253 220.585 267.136C220.306 267.021 220.061 267.2 219.914 267.427C219.45 268.123 219.02 268.819 218.445 269.457C217.758 270.216 216.402 272.46 216.138 273.538C215.919 274.431 215.314 275.13 214.749 275.822C214.368 276.289 213.815 276.584 213.199 276.267C212.647 275.986 212.592 275.407 212.669 274.874C212.865 273.492 213.408 272.212 214.219 271.103C215.642 269.156 216.767 267.012 218.32 265.152C219.1 264.217 217.651 264.54 217.554 263.98C217.534 263.484 218.661 263.853 218.346 263.15C218.146 262.699 217.564 262.843 217.185 262.894C215.425 263.131 213.884 263.92 212.415 264.881C209.562 266.739 207.967 269.434 207.083 272.664C206.734 273.932 206.615 275.469 204.828 275.759C203.209 276.021 202.499 275.302 202.956 273.723C203.829 270.725 205.181 267.914 206.443 265.071C206.635 264.638 206.848 264.209 207.008 263.764C207.25 263.078 207.278 262.413 206.695 261.85C206.154 261.327 205.516 261.425 204.903 261.615C202.004 262.518 200.093 264.567 198.753 267.163C197.685 269.232 197.179 271.525 196.576 273.761C196.328 274.683 195.754 275.217 195.016 275.645C194.433 275.983 193.795 276.023 193.224 275.575C192.689 275.154 192.684 274.592 192.859 273.99C193.596 271.454 194.382 268.949 195.762 266.654C196.626 265.216 197.304 263.657 197.999 262.124C198.261 261.542 198.316 260.872 197.726 260.369C197.178 259.901 196.453 259.805 195.947 260.171C194.414 261.283 192.623 261.966 191.228 263.342C188.883 265.652 187.942 268.56 187.234 271.624C186.927 272.957 186.748 274.369 185.678 275.361C185.008 275.981 184.191 276.479 183.235 276.023C182.207 275.535 182.75 274.62 182.859 273.918C183.353 270.694 184.83 267.805 186.041 264.827C186.338 264.096 186.657 263.36 186.851 262.6C187 262.02 186.844 261.411 186.32 261.03C185.771 260.63 185.163 260.546 184.533 260.902C181.17 262.782 178.693 265.369 177.823 269.261C177.443 270.958 177.032 272.649 176.656 274.347C176.47 275.199 176.162 275.97 175.427 276.498C174.922 276.859 174.409 277.419 173.731 277.024C172.968 276.581 173.18 275.774 173.381 275.155C173.933 273.452 174.561 271.77 175.217 270.101C176.044 267.993 177.146 265.981 177.322 263.661C177.466 261.783 176.715 261.205 174.951 261.914C172.247 262.997 170.892 265.343 169.642 267.756C168.561 269.84 168.186 272.152 167.583 274.393C167.239 275.672 166.761 276.919 165.367 277.487C164.738 277.743 164.131 277.825 163.576 277.354C163.062 276.916 163.121 276.335 163.216 275.739C163.664 272.937 164.951 270.452 166.04 267.884C166.885 265.9 168.043 264.045 168.541 261.911C168.72 261.145 169.034 260.306 168.287 259.697C167.625 259.156 166.867 259.445 166.19 259.772C162.734 261.445 160.564 264.265 159.073 267.714C157.93 270.35 157.263 273.118 156.677 275.91C156.464 276.936 156.074 277.785 155.067 278.3C154.449 278.618 153.959 278.775 153.328 278.319C152.692 277.858 152.866 277.319 153.004 276.758C153.983 272.735 155.549 268.937 157.332 265.221C157.741 264.364 158.154 263.5 158.432 262.598C158.61 262.021 158.882 261.297 158.37 260.777C157.825 260.222 157.106 260.393 156.429 260.613C154.057 261.387 152.311 263.007 150.993 265.005C148.666 268.528 147.531 272.544 146.579 276.62C146.327 277.696 146.227 278.917 144.901 279.459C143.195 280.159 142.049 279.444 142.009 277.543C141.982 276.245 142.436 275.039 142.782 273.826C143.533 271.185 144.249 268.537 144.763 265.836C144.812 265.576 144.88 265.319 144.896 265.056C144.953 263.929 145.477 262.508 144.189 261.895C142.826 261.245 141.774 262.395 140.929 263.283C138.719 265.601 137.895 268.674 136.729 271.547C135.965 273.428 135.704 275.435 135.495 277.426C135.31 279.164 134.172 280.011 132.847 280.709C132.003 281.154 131.222 280.418 131.382 279.164C131.667 276.914 132.048 274.673 132.518 272.454C133.079 269.808 133.49 267.153 133.451 264.443C133.437 263.398 133.47 262.055 132.322 261.725C131.106 261.372 130.331 262.567 129.733 263.448C127.442 266.823 126.062 270.568 125.564 274.629C125.331 276.532 124.801 278.364 124.049 280.105C123.687 280.944 122.847 282.081 122.024 281.737C121.253 281.416 122.028 280.285 122.275 279.52C123.574 275.46 125.682 271.64 125.985 267.284C126.054 266.302 126.644 264.951 125.357 264.444C124.194 263.984 123.448 265.14 122.76 265.892C119.863 269.058 117.935 272.781 116.727 276.88C116.26 278.467 115.674 279.971 114.537 281.211C113.992 281.806 113.63 282.497 113.528 283.323C113.482 283.687 113.393 284.079 113.198 284.376C112.861 284.895 112.378 285.67 111.784 285.407C111.082 285.095 111.696 284.343 111.898 283.902C113.773 279.818 115.973 275.907 118.125 271.97C121.795 265.256 125.674 258.648 128.76 251.63C129.758 249.362 130.667 247.056 131.604 244.763C131.98 243.845 132.257 243.216 133.514 243.994C135.729 245.364 137.742 246.921 139.702 248.643C143.936 252.359 148.801 254.747 154.617 254.589C155.221 254.573 155.853 254.377 156.045 253.775C156.263 253.087 155.627 252.747 155.142 252.445C153.043 251.125 150.942 249.811 148.818 248.535C144.949 246.207 141.794 243.119 139.156 239.483C138.942 239.185 138.752 238.859 138.831 238.306C139.969 239.001 140.645 240.044 141.425 240.968C146.178 246.612 152.352 248.834 159.401 247.476C162.304 246.917 163.96 248.377 166.048 249.345C167.549 250.043 169.015 250.721 170.711 250.703C171.779 250.69 171.956 250.096 171.422 249.38C169.584 246.909 167.552 244.609 165.125 242.681C162.61 240.685 160.021 238.764 157.988 236.229C157.684 235.851 157.468 235.466 157.412 234.955C157.238 233.291 157.614 232.989 159.189 233.504C160.058 233.788 160.853 234.132 161.507 234.81C164.894 238.323 168.945 240.837 173.432 242.695C175.918 243.725 178.388 244.81 181.09 245.155C181.509 245.21 181.934 245.25 182.358 245.247C182.869 245.242 183.489 245.35 183.678 244.67C183.86 244.004 183.5 243.579 182.937 243.253C179.832 241.453 176.732 239.649 173.635 237.833C171.421 236.534 169.899 234.439 167.973 232.805C167.479 232.386 167.359 231.576 167.549 230.86C167.689 230.328 167.965 229.989 168.582 230.328C169.275 230.709 170.07 230.974 170.653 231.483C172.482 233.075 174.542 234.423 176.318 236C179.89 239.171 184.356 240.221 188.458 242.139C188.507 242.16 188.556 242.186 188.609 242.191C189.426 242.281 190.577 242.854 190.971 242.126C191.411 241.306 190.239 240.814 189.646 240.272C186.916 237.77 183.734 235.869 180.84 233.589C179.377 232.439 178.253 230.935 177.169 229.427C176.769 228.871 176.848 228.127 177.184 227.618C177.549 227.062 178.176 227.561 178.634 227.672C180.305 228.076 181.782 228.994 183.106 230.01C187.209 233.158 191.758 235.228 196.785 236.32C197.811 236.543 198.797 236.955 199.816 237.233C200.098 237.309 200.492 237.361 200.677 237.036C200.869 236.697 200.602 236.444 200.365 236.224C199.439 235.359 198.519 234.553 197.32 233.994C193.921 232.4 190.602 230.637 188.044 227.767C187.657 227.333 187.298 226.863 186.997 226.371C186.636 225.782 186.668 225.064 187.01 224.55C187.438 223.905 187.957 224.62 188.399 224.744C191.235 225.535 193.477 227.502 196.098 228.745C200.188 230.687 204.442 232.04 208.837 232.999C209.652 233.176 210.958 233.689 211.265 232.732C211.573 231.764 210.425 231.015 209.536 230.549C206.917 229.17 204.236 227.928 201.471 226.868C200.089 226.338 198.768 225.653 197.648 224.662C197.054 224.135 196.424 223.558 196.41 222.695C196.398 221.881 196.208 220.992 197.733 221.603C199.97 222.495 201.921 223.841 203.937 225.062C207.944 227.492 212.321 228.452 216.866 228.933C217.226 228.97 217.604 228.88 217.968 228.833C218.291 228.789 218.626 228.7 218.694 228.331C218.768 227.943 218.45 227.818 218.161 227.659C215.111 225.973 212.087 224.243 209.02 222.589C207.77 221.916 206.781 221.007 205.964 219.874C205.615 219.39 205.605 218.891 205.897 218.387C206.238 217.797 206.689 218.128 207.147 218.208C210.397 218.767 212.842 220.849 215.501 222.551C218.781 224.65 221.968 226.975 225.989 227.511C226.303 227.551 226.624 227.59 226.938 227.572C227.504 227.542 228.195 227.667 228.447 226.987C228.707 226.292 228.283 225.712 227.771 225.329C225.449 223.59 223.122 221.855 220.74 220.202C219.399 219.271 218.258 218.07 216.757 217.35C216.385 217.172 216.109 216.641 215.954 216.213C215.821 215.843 215.755 215.319 216.068 214.999C216.396 214.665 216.747 215.062 217.08 215.162C218.458 215.57 219.486 216.483 220.356 217.572C222.551 220.31 225.225 222.28 228.694 223.088C229.633 223.308 230.562 223.451 231.518 223.345C232.035 223.29 232.631 223.253 232.799 222.617C232.951 222.031 232.622 221.611 232.17 221.268C230.363 219.904 228.57 218.519 226.75 217.165C225.708 216.39 224.851 215.459 224.358 214.263C224.13 213.71 223.787 212.994 224.467 212.517C225.038 212.118 225.585 212.537 226.055 212.87C227.349 213.782 228.549 214.867 229.927 215.614C232.646 217.092 235.303 218.706 238.172 219.897C238.616 220.082 239.077 220.186 239.567 220.109C240.082 220.029 240.664 220.076 240.932 219.49C241.205 218.895 240.769 218.507 240.478 218.07C238.757 215.505 236.201 213.837 233.902 211.891C233.701 211.72 233.441 211.6 233.284 211.397C232.858 210.836 232.421 210.115 232.901 209.533C233.301 209.051 234.006 209.516 234.48 209.778C236.749 211.027 239.034 212.235 241.406 213.278C243.234 214.08 245.137 214.414 247.119 214.182C247.64 214.12 248.238 214.028 248.39 213.41C248.565 212.702 247.929 212.585 247.48 212.319C245.795 211.339 244.113 210.351 242.459 209.317C242.02 209.043 241.665 208.619 241.306 208.234C240.858 207.753 240.391 207.128 240.881 206.547C241.509 205.807 242.021 206.666 242.469 206.963C245.424 208.911 248.333 210.938 251.954 211.472C252.37 211.534 252.793 211.62 253.212 211.616C253.938 211.608 254.644 211.396 254.811 210.604C254.962 209.884 254.399 209.43 253.856 209.091C252.556 208.282 251.214 207.536 249.916 206.725C249.087 206.208 248.091 205.381 248.698 204.505C249.082 203.947 250.14 204.852 250.769 205.363C253.144 207.299 255.712 208.787 258.835 209.11C259.379 209.166 259.886 209.128 260.402 209.003C260.899 208.88 261.279 208.628 261.365 208.079C261.454 207.523 261.13 207.175 260.71 206.907C259.684 206.257 258.67 205.583 257.61 204.992C256.938 204.619 256.396 204.138 255.961 203.53C255.689 203.152 255.276 202.665 255.714 202.261C256.124 201.886 256.63 202.283 256.983 202.566C258.646 203.908 260.476 204.955 262.463 205.713C263.051 205.938 263.673 206.129 264.292 206.194C264.894 206.255 265.654 206.424 266.008 205.735C266.36 205.047 265.819 204.524 265.394 204.07C264.85 203.491 264.244 202.97 263.658 202.436C263.463 202.256 263.215 202.135 263.04 201.943C262.54 201.399 261.748 200.699 262.231 200.062C262.762 199.362 263.534 200.132 264.152 200.456C266.069 201.465 267.94 202.593 270.108 203.017C270.915 203.174 271.912 203.652 272.43 202.745C272.994 201.759 272.084 201.167 271.441 200.507C270.556 199.6 269.275 199.016 268.782 197.476C270.4 197.747 271.591 198.526 272.85 199.12C273.864 199.598 274.9 199.959 276.029 200.002C276.603 200.024 277.077 199.805 277.386 199.332C277.759 198.755 277.292 198.367 277.028 197.915C276.367 196.784 274.904 196.321 274.408 194.709C276.338 195.547 278.059 196.301 279.789 197.039C280.177 197.204 280.583 197.398 280.988 197.419C281.66 197.453 282.447 197.537 282.818 196.789C283.198 196.029 282.647 195.515 282.176 194.996C281.559 194.314 280.258 193.658 280.745 192.776C281.277 191.812 282.581 192.551 283.535 192.682C284.315 192.79 285.071 193.151 285.848 193.203C287.361 193.307 288.016 192.356 287.152 191.115C286.155 189.677 286.796 189.647 287.992 188.88C289.878 187.676 291.939 186.928 293.881 185.918C299.121 183.198 303.941 179.756 309.216 177.131C311.921 175.785 314.575 174.114 317.775 173.998C318.301 173.98 318.849 173.632 318.904 173.046C318.962 172.4 318.317 172.389 317.887 172.263C316.248 171.788 314.62 172.129 313.037 172.471C308.793 173.392 304.812 174.922 301.022 177.135C298.273 178.741 295.083 179.577 292.229 181.031C290.311 182.007 288.119 182.344 286.371 183.65C285.683 184.164 285.328 183.958 284.866 183.276C284.001 181.991 283.157 182.102 282.398 183.474C281.857 184.45 281.893 185.758 280.719 186.461C280.062 185.461 280.382 184.238 279.739 183.27C278.942 182.071 278.419 181.952 277.393 182.947C276.606 183.71 276.569 184.735 276.36 185.709C276.134 186.768 276.24 187.932 275.401 188.939C274.743 188.367 274.876 187.672 274.874 187.019C274.872 186.333 274.974 185.624 274.826 184.971C274.568 183.832 273.784 183.612 272.814 184.283C271.494 185.194 271.034 186.584 270.689 188.046C270.497 188.867 270.433 189.728 269.968 190.466C269.756 190.805 269.648 191.35 269.085 191.198C268.643 191.078 268.4 190.667 268.377 190.227C268.346 189.544 268.376 188.859 268.425 188.176C268.569 186.177 268.03 184.623 267.041 184.695C265.458 184.81 264.711 186.043 264.379 187.437C264.002 189.02 263.83 190.653 263.474 192.246C263.352 192.789 263.426 193.766 262.582 193.667C261.744 193.568 261.808 192.653 261.774 191.973C261.675 189.991 262.333 187.985 261.364 186.025C260.99 185.273 260.576 184.773 259.775 184.687C258.842 184.587 258.734 185.4 258.438 186.001C257.268 188.365 256.797 190.87 256.75 193.504C256.735 194.36 256.983 195.921 255.868 195.863C254.704 195.805 255.035 194.256 255.039 193.334C255.045 192.023 255.259 190.711 255.412 189.4C255.506 188.622 255.238 187.99 254.552 187.687C253.886 187.39 253.34 187.857 252.857 188.271C251.105 189.773 250.411 191.795 250.14 193.998C250.002 195.104 249.857 196.197 249.404 197.229C249.256 197.567 249.148 197.979 248.651 197.878C248.244 197.796 248.009 197.468 247.949 197.094C247.788 196.092 247.792 195.081 248.086 194.107C248.473 192.833 248.543 191.517 248.662 190.204C248.734 189.426 248.669 188.624 247.901 188.274C247.102 187.91 246.309 188.236 245.758 188.882C244.368 190.503 243.26 192.28 242.943 194.454C242.737 195.866 242.544 197.282 242.281 198.684C242.201 199.103 242.236 199.796 241.601 199.781C240.995 199.763 240.768 199.164 240.671 198.635C240.371 197.001 240.538 195.379 240.901 193.773C241.085 192.95 241.294 192.123 241.392 191.287C241.476 190.566 241.223 189.9 240.533 189.538C239.792 189.152 239.245 189.575 238.69 190.037C235.964 192.311 235.269 195.364 235.33 198.719C235.348 199.614 235.471 200.528 235.129 201.386C234.952 201.833 235.025 202.597 234.271 202.498C233.718 202.427 233.37 201.885 233.275 201.363C233.065 200.219 232.959 199.06 233.139 197.892C233.347 196.531 233.541 195.173 233.704 193.806C233.777 193.178 233.818 192.533 233.763 191.906C233.708 191.305 233.807 190.54 233.006 190.311C232.288 190.106 231.599 190.328 231.13 190.886C229.047 193.365 227.544 196.112 227.471 199.45C227.45 200.453 227.568 201.456 227.612 202.462C227.632 202.883 227.678 203.308 227.623 203.719C227.524 204.459 227.379 205.414 226.504 205.403C225.573 205.395 225.277 204.418 225.245 203.628C225.173 201.673 225.287 199.722 225.751 197.808C225.912 197.142 226.024 196.46 226.135 195.782C226.268 194.988 226.095 194.273 225.369 193.843C224.614 193.393 224.078 193.945 223.538 194.372C220.882 196.458 220.007 199.408 219.666 202.575C219.489 204.208 219.4 205.849 218.641 207.337C218.018 208.555 217.522 208.583 216.689 207.543C216.235 206.975 216.132 206.365 216.149 205.628C216.213 202.797 217.322 200.154 217.483 197.348C217.494 197.192 217.577 197.037 217.571 196.881C217.543 196.053 217.801 195.043 216.856 194.61C215.852 194.15 215.21 194.925 214.591 195.601C211.88 198.549 210.797 202.115 210.662 206.036C210.615 207.356 210.72 208.694 210.211 209.951C210.023 210.421 209.92 211.082 209.254 211.066C208.575 211.052 208.05 210.659 207.847 209.973C207.443 208.595 207.187 207.2 207.352 205.755C207.512 204.336 207.588 202.917 207.425 201.489C207.342 200.782 207.119 200.14 206.712 199.576C206.312 199.025 205.924 198.356 205.127 198.391C204.228 198.432 204.216 199.281 203.944 199.883C203.535 200.793 203.105 201.694 202.683 202.6C201.54 205.045 201.588 207.613 201.905 210.214C202.027 211.217 201.993 212.214 201.561 213.161C201.301 213.735 200.948 214.161 200.234 214.042C199.552 213.928 199.224 213.436 199.175 212.822C199.129 212.253 199.209 211.665 199.286 211.096C199.71 208.011 200.17 204.932 200.063 201.802C200.033 200.914 199.922 200.03 198.962 199.712C197.868 199.345 197.501 200.322 197.047 200.993C194.934 204.113 193.592 207.491 193.43 211.323C193.362 212.941 193.402 214.625 192.524 216.11C192.207 216.648 191.835 217.041 191.134 216.92C190.442 216.8 190.059 216.502 189.905 215.726C189.433 213.353 190.091 210.981 189.774 208.612C189.605 207.358 189.655 206.072 189.444 204.831C189.339 204.202 189.084 203.412 188.235 203.326C187.515 203.252 187.059 203.778 186.734 204.323C185.516 206.37 184.419 208.468 184.309 210.937C184.218 212.994 184.066 215.047 183.929 217.102C183.891 217.682 183.918 218.297 183.728 218.827C183.471 219.538 182.938 220.163 182.099 220.1C181.346 220.045 181.211 219.365 181.044 218.711C180.444 216.343 180.829 213.969 180.886 211.602C180.924 210.063 180.914 208.537 180.659 207.016C180.573 206.505 180.643 205.906 180.012 205.678C179.334 205.431 178.773 205.7 178.273 206.152C176.62 207.641 175.976 209.631 175.512 211.715C174.998 214.01 175.124 216.33 175.227 218.656C175.277 219.769 175.301 220.894 174.698 221.896C174.32 222.525 173.942 223.266 173.009 223.018C172.137 222.783 171.712 222.118 171.701 221.231C171.671 219.12 171.62 217.005 171.68 214.895C171.726 213.25 171.595 211.622 171.41 209.998C171.298 209.034 170.994 208.046 169.882 207.801C168.668 207.536 168.214 208.519 167.795 209.365C166.252 212.466 165.767 215.785 165.893 219.224C165.946 220.642 166.027 222.073 165.923 223.484C165.782 225.36 164.592 226.171 163.164 225.656C162.193 225.308 162.248 224.516 162.231 223.84C162.165 220.885 162.196 217.925 162.171 214.967C162.163 214.073 162.158 213.168 162.025 212.284C161.916 211.551 161.656 210.802 160.76 210.644C159.935 210.498 159.353 210.889 158.885 211.549C157.107 214.053 156.548 216.966 156.292 219.918C156.127 221.854 156.287 223.824 156.371 225.778C156.406 226.56 156.263 227.242 155.824 227.874C155.435 228.432 154.949 228.817 154.23 228.685C153.46 228.546 153.001 228.026 152.913 227.275C152.549 224.183 152.217 221.086 151.879 217.989C151.833 217.568 151.845 217.143 151.819 216.72C151.783 216.148 151.599 215.669 150.961 215.549C150.358 215.435 150.01 215.745 149.67 216.235C147.494 219.376 146.867 222.891 147.057 226.633C147.126 227.992 147.303 229.383 146.534 230.643C146.272 231.073 145.955 231.441 145.394 231.292C144.897 231.16 144.81 230.717 144.804 230.276C144.788 228.849 144.598 227.394 144.819 226.005C145.145 223.974 144.96 222.011 144.617 220.025C144.475 219.22 144.361 218.349 143.488 218.091C142.502 217.8 142.152 218.686 141.728 219.35C141.563 219.609 141.324 219.823 140.884 219.96C141.205 219.008 141.51 218.048 141.852 217.105C142.281 215.916 142.794 214.754 143.173 213.549C143.768 211.658 144.752 210.543 146.878 209.963C148.498 209.522 150.08 208.511 151.732 207.843C155.686 206.238 159.806 206.415 163.909 206.677C166.566 206.847 169.059 206.387 171.53 205.567C172.185 205.347 172.972 205.039 172.93 204.259C172.887 203.509 172.055 203.445 171.442 203.317C169.624 202.93 167.771 202.781 165.931 202.818C161.105 202.912 156.36 202.033 151.572 201.654C150.322 201.557 149.613 200.002 150.372 199.031C151.685 197.35 152.914 195.792 155.446 195.442C161.762 194.566 168.039 193.353 174.228 191.78C175.517 191.452 176.733 190.905 177.786 190.106C178.845 189.302 178.716 188.661 177.451 188.255C175.548 187.645 173.604 187.742 171.649 187.991C166.83 188.602 162.008 189.236 157.131 188.999C154.996 188.895 153.446 187.017 154.425 185.584C155.468 184.062 156.592 182.406 158.711 182.072C160.067 181.861 161.414 181.592 162.767 181.362C165.629 180.87 168.512 180.483 171.345 179.872C173.894 179.32 176.179 178.099 178.236 176.489C179.442 175.544 180.618 174.557 181.8 173.583C182.287 173.179 182.913 172.77 182.606 172.028C182.333 171.37 181.625 171.273 180.992 171.233C179.161 171.12 177.422 171.585 175.74 172.233C173.245 173.194 170.905 174.614 168.18 174.893C165.783 175.139 163.45 176.022 160.976 175.552C158.649 175.11 158.091 173.496 158.899 171.351C160.19 167.913 163.204 168.073 165.89 167.42C170.764 166.233 175.619 165.004 179.975 162.375C181.539 161.432 182.922 160.321 183.773 158.662C184.054 158.113 184.558 157.601 184.101 156.919C183.676 156.286 183.001 156.339 182.375 156.361C180.048 156.441 178.008 157.404 175.92 158.326C172.268 159.941 168.656 161.773 164.524 161.895C163.653 161.921 162.672 162.134 162.213 161.025C161.747 159.909 161.668 158.994 162.517 157.835C163.646 156.3 165.207 156.047 166.758 155.815C170.281 155.285 173.777 154.67 177.237 153.832C180.056 153.147 181.472 150.778 183.04 148.713C183.736 147.795 182.717 147.031 181.767 146.851C180.245 146.563 178.707 146.636 177.258 147.255C176.278 147.676 175.256 147.945 174.208 148.057C172.982 148.19 171.833 148.498 170.714 149.018C169.169 149.739 167.493 149.612 165.883 149.398C164.737 149.244 164.587 148.304 165.378 147.467C166.354 146.433 167.686 146.363 168.897 146.297C173.922 146.022 178.483 144.341 182.881 142.064C183.977 141.496 184.869 140.668 185.746 139.829C186.274 139.324 186.521 138.671 186.198 137.947C185.91 137.302 185.328 137.032 184.655 137.003C183.592 136.959 182.567 137.168 181.527 137.416C177.839 138.295 174.389 140.044 170.549 140.345C170.074 140.382 169.598 140.403 169.123 140.414C168.211 140.434 167.324 140.224 167.15 139.211C166.967 138.151 167.922 137.76 168.686 137.489C169.941 137.047 171.301 137.217 172.605 137.055C176.994 136.52 181.286 135.657 184.674 132.488C185.716 131.516 187.182 130.33 186.4 128.922C185.685 127.635 183.981 128.427 182.76 128.783C179.372 129.775 176.04 130.966 172.493 131.325C172.022 131.372 171.548 131.396 171.076 131.399C169.855 131.411 169.253 130.503 168.878 129.601C168.402 128.457 169.427 127.708 170.097 127.061C170.807 126.372 171.893 126.496 172.57 127.144C173.442 127.982 174.337 127.91 175.354 127.751C177.699 127.385 180.061 127.155 182.285 126.221C183.417 125.743 184.491 125.212 185.416 124.392C185.961 123.908 186.391 123.351 186.184 122.602C185.961 121.79 185.166 121.886 184.58 121.892C183.262 121.91 181.902 121.878 180.642 122.186C178.271 122.766 175.921 122.629 173.555 122.345C172.386 122.207 170.973 120.904 171.051 120.081C171.148 119.053 173.364 117.261 174.375 117.572C176.502 118.222 178.483 117.501 180.416 116.962C183.161 116.198 185.731 114.919 188.202 113.479C188.719 113.179 189.292 112.899 189.123 112.184C188.97 111.541 188.373 111.285 187.804 111.173C186.291 110.874 184.753 110.777 183.249 111.188C180.843 111.842 178.34 111.882 175.918 112.411C175.198 112.57 174.435 112.603 174.174 111.779C173.902 110.919 173.234 109.954 174.049 109.088C174.946 108.134 175.858 107.204 177.327 107.042C178.626 106.897 179.923 106.589 181.06 105.831C181.602 105.471 182.213 105.373 182.881 105.539C184.72 105.994 186.182 105.226 187.432 103.985C188.31 103.114 188.082 102.36 186.893 102.039C186.54 101.942 186.157 101.92 185.791 101.933C183.948 102.003 182.104 102.066 180.262 102.185C178.184 102.319 176.602 101.434 176.277 99.8875C176.047 98.7874 177.816 96.6337 179.364 96.2758C180.85 95.9341 182.359 95.5556 183.872 95.4947C185.574 95.4265 186.85 94.5165 188.25 93.8186C188.925 93.4795 189.327 92.8836 189.228 92.151C189.114 91.3009 188.364 91.1636 187.651 91.1193C186.072 91.0219 184.496 90.8327 182.917 91.2435C182.321 91.396 181.655 91.3438 181.022 91.2994C180.253 91.2452 179.788 90.7123 179.513 90.0463C179.24 89.3877 179.645 88.9276 180.098 88.5347C181.501 87.3215 183.025 86.257 184.816 85.7392C186.017 85.3914 186.814 84.5936 187.638 83.7861C188.119 83.3159 188.332 82.6377 188.101 82.0289C187.835 81.3419 187.075 81.5427 186.55 81.5999C185.346 81.732 184.161 82.0256 182.961 82.1991C182.571 82.2539 182.056 82.4233 181.799 81.9744C181.594 81.6074 181.929 81.3034 182.126 80.9869C182.347 80.6315 182.567 80.2468 182.652 79.8453C183.194 77.2989 184.866 76.2354 187.344 75.9799C188.869 75.8233 190.326 75.2926 191.57 74.3241C192.107 73.9049 192.494 73.4239 192.27 72.7019C192.039 71.9599 191.375 71.8256 190.737 71.8122C190.001 71.7972 189.23 71.784 188.529 71.9756C187.124 72.356 186.004 72.0962 185.263 70.8004C184.592 69.6245 184.834 68.414 185.463 67.3373C186.181 66.1064 187.013 64.9172 188.33 64.2312C189.425 63.6609 189.845 62.9916 188.965 61.8576C188.184 60.8535 188.805 60.3328 189.754 60.0086C190.851 59.6321 191.953 59.2609 193.044 58.8622C193.541 58.6814 194.023 58.4558 194.312 57.9636C194.632 57.4233 195.151 56.8451 194.789 56.2343C194.474 55.7003 193.749 55.805 193.172 55.843C192.435 55.8909 191.696 55.958 190.961 56.0618C190.4 56.14 189.851 56.137 189.548 55.6112C189.171 54.9554 189.827 54.6994 190.165 54.335C191.403 52.998 193.443 53.1585 194.732 51.9036C194.806 51.8327 194.921 51.8115 195.009 51.7516C195.807 51.2153 196.755 50.6343 196.361 49.5244C195.972 48.4415 194.835 48.7756 193.982 48.7696C193.36 48.7649 192.743 49.0148 192.117 49.0992C191.505 49.1801 190.78 49.3962 190.431 48.6412C190.098 47.9216 190.767 47.5917 191.182 47.239C191.864 46.6584 192.583 46.1127 193.336 45.6328C194.014 45.1972 194.631 44.715 195.067 44.0326C195.67 43.094 195.268 42.2278 194.158 42.1335C193.689 42.0941 193.208 42.1817 192.736 42.2388C192.078 42.318 191.414 42.416 191.246 41.5224C191.094 40.7221 191.22 40.0411 192.138 39.7575C193.246 39.416 194.072 38.7006 194.712 37.7532C195.214 37.0114 195.57 36.1063 195.012 35.3884C194.421 34.6312 193.585 35.0068 192.905 35.5416C192.597 35.7827 192.243 35.8964 191.88 35.6485C191.484 35.3783 191.36 34.9968 191.481 34.5381C191.495 34.4861 191.5 34.4285 191.528 34.3874C193.492 31.3482 191.51 29.087 190.089 26.6411C189.525 25.6734 189.976 24.4525 190.141 23.3731C190.38 21.8307 190.828 20.295 188.954 19.4014C188.868 19.3622 188.772 19.2471 188.76 19.1589C188.513 17.1858 187.027 15.5208 187.222 13.4614C187.364 11.9732 186.866 10.7329 186.024 9.62414C184.011 6.9608 181.924 4.35133 179.878 1.71162C179.505 1.23053 179.09 0.677868 178.466 0.934344C177.733 1.23686 177.886 2.04931 178.039 2.61724C178.352 3.78536 178.611 5.05756 179.266 6.03343C180.864 8.42012 181.762 11.1896 183.457 13.4954C185.112 15.754 185.826 18.2941 186.246 20.987C186.424 22.1309 186.971 23.2328 187.059 24.3759C187.267 27.0692 187.308 29.7768 187.394 32.4786C187.4 32.6559 187.216 32.8549 187.091 33.018C186.079 34.3485 185.967 35.6915 186.964 37.1071C187.257 37.5254 187.638 38.0484 187.236 38.5548C186.908 38.9733 186.358 38.8322 185.894 38.7181C185.1 38.5237 184.1 37.9043 183.573 38.748C182.954 39.736 183.808 40.6159 184.444 41.411C185.069 42.193 185.861 42.8617 186.218 43.8376C186.354 44.2178 186.653 44.6583 186.21 45.0036C185.72 45.3835 185.285 45.0396 184.95 44.7143C184.38 44.1624 183.887 43.5278 183.323 42.9714C183.064 42.7159 182.713 42.4933 182.329 42.7616C182.033 42.97 182.009 43.3067 182.093 43.6241C182.216 44.0781 182.269 44.6178 182.555 44.9531C183.735 46.3535 183.771 48.2981 185.008 49.7133C185.79 50.6086 185.072 51.474 183.801 51.4524C182.929 51.4399 181.738 50.6461 181.277 51.9072C180.86 53.0511 181.984 53.6236 182.714 54.3133C183.851 55.388 184.642 56.7004 184.827 58.2928C184.921 59.1193 184.673 59.7774 183.732 59.9208C182.234 60.1477 181.965 60.8595 183.069 62.1177C181.767 61.9481 181.245 60.9865 180.473 60.3898C179.872 59.927 179.238 59.4105 178.48 59.9528C177.738 60.482 177.953 61.283 178.185 61.9888C178.589 63.2328 179.376 64.2714 180.341 65.0934C181.728 66.2751 181.398 67.7077 180.977 69.0281C180.594 70.2235 179.653 69.8757 178.99 69.1749C178.078 68.2148 177.252 67.1728 176.398 66.1548C175.895 65.5556 175.331 64.9993 174.508 65.4172C173.636 65.8597 173.747 66.6757 173.916 67.5017C174.363 69.6548 175.368 71.4512 177.098 72.845C178.517 73.9861 178.778 75.6045 178.777 77.2867C178.776 77.9161 178.592 78.5435 178.564 79.1728C178.533 79.872 178.582 80.7454 177.917 81.0006C177.088 81.3164 176.451 80.5889 175.919 79.9967C174.962 78.9309 174.077 77.8013 173.091 76.7644C172.496 76.1399 171.677 75.556 170.84 76.0937C169.99 76.6422 170.331 77.6313 170.551 78.4279C171.094 80.3936 171.936 82.2286 173.466 83.6289C174.856 84.8979 174.63 86.5093 174.511 88.0672C174.446 88.9425 173.505 89.0763 172.836 89.3167C172.142 89.5646 171.695 89.1688 171.268 88.5812C170.278 87.205 169.202 85.8913 168.145 84.5671C167.609 83.8972 166.945 83.3755 166.186 82.9641C165.712 82.7063 165.251 82.3795 164.721 82.7533C164.195 83.1275 164.022 83.6833 164.184 84.3005C164.813 86.6538 165.439 89.0093 167.085 90.9234C168.018 92.0089 168.89 93.1543 169.886 94.1825C170.884 95.2181 170.837 96.6178 171.336 97.8219C171.563 98.3674 171.104 98.8105 170.641 99.1227C170.13 99.4667 169.673 99.3242 169.171 99.0276C167.648 98.1291 166.363 96.925 165.182 95.6552C163.934 94.3117 162.381 93.3984 161.009 92.2398C160.317 91.6527 159.427 91.3383 158.697 91.9147C157.988 92.4783 158.325 93.3193 158.618 94.1079C160.234 98.4423 163.288 101.632 166.836 104.394C168.172 105.435 168.333 106.808 168.253 108.221C168.206 109.055 167.472 109.657 166.534 109.382C165.399 109.046 164.36 108.665 163.654 107.443C162.142 104.814 159.593 103.159 157.283 101.306C156.878 100.982 156.332 101.057 155.934 101.35C155.371 101.765 155.204 102.413 155.4 103.06C155.823 104.475 156.189 105.943 157.146 107.111C159.263 109.691 161.18 112.458 163.861 114.52C164.56 115.057 165.062 115.702 165.39 116.506C165.703 117.277 166.255 118.014 165.221 118.725C164.262 119.382 163.321 119.468 162.47 118.697C160.474 116.885 158.526 115.019 156.586 113.151C155.633 112.238 154.794 111.185 153.478 110.755C152.291 110.369 151.553 110.944 151.84 112.165C152.669 115.684 154.243 118.662 157.215 121.023C159.234 122.629 161.445 124.248 162.679 126.677C163.017 127.339 163.653 128.161 162.882 128.857C162.069 129.588 161.072 129.903 159.953 129.353C157.659 128.223 155.514 126.816 153.764 124.985C152.328 123.479 150.626 122.303 149.177 120.826C148.636 120.276 147.939 119.43 146.998 120.21C146.149 120.918 146.461 121.825 146.793 122.692C148.813 128.016 152.326 131.891 157.737 133.887C159.816 134.654 160.642 136.395 161.227 138.295C161.498 139.168 160.054 139.979 158.912 139.56C158.123 139.271 157.308 138.93 156.652 138.423C154.858 137.043 152.988 135.714 151.433 134.089C149.528 132.094 147.336 130.615 144.928 129.376C144.34 129.072 143.677 128.79 143.159 129.264C142.637 129.743 143.147 130.335 143.324 130.874C143.595 131.69 143.984 132.434 144.553 133.085C147.026 135.91 149.146 139.041 152.224 141.327C153.412 142.208 154.732 142.875 155.851 143.876C157.067 144.965 157.965 146.236 158.751 147.623C158.999 148.061 159.174 148.503 158.828 148.949C158.472 149.404 157.964 149.581 157.41 149.461C156.458 149.253 155.631 148.76 154.925 148.109C152.503 145.874 150.235 143.473 148.382 140.752C147.114 138.886 145.541 137.339 144.009 135.73C143.365 135.053 142.502 134.681 141.734 135.116C141.034 135.511 141.224 136.409 141.419 137.15C142.863 142.64 145.688 147.182 150.256 150.689C152.479 152.395 154.137 154.732 155.802 156.991C156.14 157.452 156.644 158.064 156.114 158.718C155.545 159.423 154.796 159.472 153.955 159.232C152.665 158.865 151.503 158.217 150.4 157.506C146.027 154.692 142.344 151.187 139.741 146.624C139.266 145.793 138.61 145.085 137.882 144.461C137.3 143.964 136.63 143.483 135.888 143.976C135.173 144.447 135.263 145.258 135.439 146.003C135.707 147.133 135.803 148.359 136.322 149.364C137.586 151.818 138.837 154.193 140.843 156.304C144.273 159.909 149.005 161.852 152.12 165.761C152.765 166.572 153.231 167.398 153.406 168.437C153.662 169.966 152.755 170.901 151.269 170.418C150.325 170.108 149.448 169.618 148.593 169.06C144.362 166.3 141.404 162.304 138.737 158.214C137.554 156.402 135.575 154.87 135.437 152.386C135.409 151.887 134.833 151.809 134.407 152.006C133.933 152.225 133.47 152.493 133.062 152.818C132.195 153.51 131.392 154.285 130.517 154.962C129.897 155.442 129.064 155.673 128.464 155.137C127.839 154.578 128.545 153.937 128.837 153.464C130.154 151.316 131.916 149.413 132.419 146.825C132.507 146.363 132.629 145.899 132.64 145.431C132.652 144.979 132.775 144.417 132.195 144.186C131.659 143.971 131.127 144.105 130.715 144.477C130.325 144.827 130.001 145.251 129.654 145.648C129.241 146.125 128.849 146.627 128.416 147.084C127.791 147.743 126.974 148.231 126.164 147.663C125.292 147.052 126.184 146.304 126.408 145.719C127.206 143.641 129.013 142.146 129.785 140.022C130.061 139.265 130.555 138.472 129.9 137.813C129.131 137.04 128.29 137.679 127.598 138.103C126.747 138.625 125.977 139.28 125.171 139.876C124.781 140.164 124.312 140.521 123.887 140.147C123.46 139.77 123.949 139.363 124.158 139.05C125.152 137.561 126.139 136.063 127.233 134.646C127.876 133.812 128.197 132.882 128.416 131.914C128.574 131.219 128.773 130.37 127.918 129.929C127.202 129.557 126.582 129.957 126.042 130.41C125.151 131.158 124.308 131.959 123.396 132.684C123.02 132.982 122.541 133.544 122.033 132.981C121.61 132.514 122.149 132.103 122.389 131.732C123.354 130.235 124.767 129.059 125.436 127.342C125.783 126.458 126.273 125.628 126.296 124.65C126.308 124.087 126.441 123.413 125.755 123.12C125.122 122.848 124.476 122.957 123.983 123.438C123.225 124.172 122.539 124.975 121.78 125.706C121.413 126.058 120.86 126.616 120.433 126.198C119.985 125.754 120.639 125.294 120.928 124.882C122.113 123.206 123.474 121.636 124.171 119.655C124.361 119.108 124.534 118.552 124.677 117.991C124.822 117.423 124.619 116.943 124.171 116.578C123.664 116.165 123.157 116.403 122.689 116.644C121.768 117.119 121.267 118.042 120.539 118.725C120.207 119.035 119.769 119.513 119.322 119.055C118.931 118.652 119.45 118.296 119.694 117.989C120.351 117.162 121.021 116.34 121.711 115.543C122.101 115.091 122.353 114.581 122.515 114.012C122.726 113.278 122.896 112.475 122.262 111.942C121.659 111.435 120.951 111.846 120.32 112.122C120.272 112.144 120.228 112.176 120.181 112.199C119.5 112.52 118.744 113.569 118.134 112.873C117.541 112.198 118.311 111.23 118.772 110.473C119.02 110.069 119.275 109.658 119.456 109.222C119.755 108.498 120.25 107.686 119.699 106.971C119.135 106.235 118.329 106.836 117.627 106.926C117.28 106.968 116.858 107.254 116.6 106.878C116.357 106.525 116.689 106.184 116.87 105.871C117.373 105.003 117.878 104.138 118.394 103.281C118.792 102.617 119.043 101.889 118.655 101.189C118.282 100.517 117.524 100.72 116.914 100.75C115.194 100.839 115.208 100.867 115.911 99.2422C116.18 98.6151 116.405 97.9623 116.588 97.3008C116.813 96.4834 116.633 95.8185 115.686 95.6008C115.057 95.4551 114.629 95.1724 114.607 94.4418C114.507 91.2255 113.833 88.0718 113.634 84.8588C113.185 77.6415 112.544 70.4386 112.002 63.2276C111.931 62.2844 112.013 61.3283 112.009 60.3815C112.008 60.0571 112.274 59.6016 111.672 59.5091C111.161 59.4296 110.897 59.6964 110.743 60.1595C110.227 61.7159 109.869 63.3057 109.63 64.928C108.659 71.5488 109.247 78.2217 109.091 84.867C109.01 88.3865 109.23 91.9209 109.364 95.4428C109.399 96.3319 109.487 97.2571 109.926 98.0613C110.479 99.0692 110.055 99.3581 109.083 99.4335C107.585 99.549 107.341 100.079 107.97 101.486C108.472 102.608 109.603 103.14 110.268 104.097C110.443 104.348 110.73 104.664 110.689 104.895C110.597 105.369 110.107 105.223 109.754 105.238C109.021 105.264 108.207 105.109 107.826 105.973C107.417 106.9 108.181 107.418 108.615 108.058C109.236 108.977 110.486 109.074 111.078 110.013C111.244 110.275 111.557 110.499 111.379 110.848C111.199 111.2 110.828 111.119 110.53 111.075C109.851 110.976 109.183 110.81 108.505 110.701C107.927 110.61 107.455 110.832 107.165 111.339C106.87 111.85 107.173 112.264 107.488 112.629C108.382 113.657 109.106 114.843 110.497 115.379C111.266 115.675 111.946 116.241 112.459 117.081C111.394 117.628 110.51 117.152 109.635 116.718C108.906 116.357 108.029 115.921 107.433 116.545C106.795 117.219 107.261 118.077 107.662 118.877C108.708 120.96 110.822 121.59 112.599 122.681C113.029 122.944 113.778 123.011 113.601 123.673C113.455 124.219 112.75 124.28 112.234 124.262C110.506 124.2 109.001 123.327 107.388 122.84C106.383 122.537 105.157 121.871 104.442 122.792C103.634 123.831 104.803 124.705 105.441 125.512C107.133 127.646 109.434 128.757 112.018 129.353C113.003 129.579 113.964 129.861 114.816 130.421C115.065 130.586 115.413 130.767 115.242 131.152C115.119 131.429 114.802 131.379 114.535 131.384C113.388 131.405 112.382 130.925 111.355 130.507C110.436 130.132 109.31 129.467 108.589 130.371C107.841 131.306 108.931 132.086 109.503 132.81C111.051 134.771 113.448 135.394 115.489 136.576C115.763 136.734 116.077 136.827 116.328 137.01C116.605 137.214 117.1 137.347 116.953 137.813C116.82 138.237 116.423 138.468 115.978 138.52C114.837 138.653 113.793 138.24 112.738 137.894C111.533 137.501 110.329 137.098 109.122 136.715C108.475 136.509 107.813 136.494 107.418 137.124C107.042 137.725 107.483 138.224 107.843 138.689C109.539 140.896 111.976 141.91 114.475 142.823C115.716 143.275 116.961 143.711 118.202 144.168C118.566 144.3 119.201 144.289 118.987 144.892C118.833 145.333 118.354 145.588 117.817 145.552C116.114 145.439 114.477 145.05 112.921 144.345C112.633 144.213 112.378 143.994 112.081 143.904C111.194 143.636 110.088 143.017 109.536 144.149C109.081 145.084 109.578 146.147 110.359 146.856C112.773 149.04 115.613 150.354 118.821 150.904C119.543 151.029 120.26 151.253 120.94 151.524C121.331 151.678 121.651 152.043 121.541 152.536C121.431 153.035 121.011 153.16 120.564 153.178C118.701 153.256 117.081 152.431 115.426 151.746C114.844 151.503 114.291 151.187 113.699 150.974C113.114 150.765 112.411 150.44 111.959 151.114C111.543 151.735 111.995 152.337 112.334 152.864C114.088 155.557 116.781 156.834 119.715 157.757C121.022 158.166 122.316 158.633 123.589 159.144C123.979 159.302 124.611 159.441 124.524 160.062C124.451 160.574 123.97 160.821 123.51 160.967C122.09 161.409 120.667 161.153 119.288 160.786C117.757 160.38 116.258 159.859 114.758 159.352C114.264 159.187 113.856 158.94 113.574 158.392C112.812 156.922 112.387 156.913 111.025 157.9C109.038 159.34 108.114 161.627 106.537 163.391C105.975 164.019 105.545 164.777 104.746 165.148C104.096 165.449 103.44 165.572 102.815 165.034C102.232 164.529 102.493 163.967 102.703 163.434C103.615 161.099 105.305 159.222 106.468 157.029C107.253 155.549 107.772 154.039 107.852 152.367C107.883 151.694 107.808 151.048 107.161 150.712C106.42 150.326 105.82 150.781 105.324 151.26C103.954 152.582 102.709 154.011 101.644 155.6C101.133 156.363 100.522 157.032 99.4129 156.532C98.1014 155.938 97.9801 154.925 98.9881 153.298C99.9567 151.736 101.174 150.323 101.77 148.539C101.926 148.073 101.979 147.623 102.015 147.147C102.06 146.565 101.902 146.091 101.406 145.776C100.858 145.424 100.388 145.689 99.9612 146.034C99.1789 146.664 98.3896 147.29 97.6428 147.957C96.7418 148.758 95.7982 149.094 94.8501 148.129C93.8371 147.101 94.829 146.34 95.4092 145.697C96.5374 144.448 97.8007 143.316 99.0035 142.129C99.2258 141.906 99.4563 141.673 99.6195 141.407C99.9627 140.847 100.177 140.181 99.8415 139.606C99.4808 138.986 98.7813 139.269 98.2359 139.366C96.9805 139.585 95.9777 140.529 94.6804 140.646C94.4291 140.669 94.1433 140.758 93.937 140.284C94.7594 139.808 95.5793 139.276 96.4482 138.85C97.6558 138.256 98.6406 137.381 99.6369 136.514C100.421 135.833 101.221 134.975 100.571 133.937C99.9774 132.991 98.9689 133.605 98.1163 133.812C97.197 134.035 95.9276 134.899 95.4177 133.789C94.9097 132.686 96.4845 132.466 97.1813 132.015C98.4314 131.206 99.6627 130.392 100.704 129.335C101.372 128.654 102.124 127.68 101.488 126.827C100.912 126.057 99.8051 126.527 99.0137 126.923C98.3742 127.241 97.7608 127.453 97.0474 127.391C96.7112 127.361 96.4002 127.319 96.2861 126.955C96.1606 126.557 96.4876 126.412 96.7384 126.224C97.4988 125.653 98.2701 125.094 98.9954 124.481C99.8166 123.792 100.46 122.949 100.781 121.908C101.136 120.763 100.604 120.135 99.4382 120.329C98.7632 120.44 98.0982 120.632 97.4326 120.803C97.0443 120.901 96.6381 120.926 96.4406 120.547C96.2224 120.128 96.6169 119.873 96.8841 119.636C98.0436 118.614 99.0563 117.47 99.6866 116.044C99.9148 115.527 100.218 114.845 99.7426 114.401C99.2317 113.924 98.4914 113.895 97.8139 114.205C97.5744 114.316 97.3602 114.5 97.1105 114.563C96.7073 114.665 96.2036 114.811 95.9218 114.428C95.6098 114.003 96.0194 113.628 96.2665 113.313C96.6923 112.778 97.2552 112.337 97.6114 111.766C98.481 110.372 98.0662 109.507 96.4526 109.474C95.3679 109.452 94.9763 109.165 95.3823 108.098C95.4757 107.855 95.5503 107.578 95.5332 107.325C94.9319 99.0893 96.3106 90.8468 95.3336 82.6189C95.1045 80.6886 94.7027 78.7961 94.7288 76.8256C94.756 74.5866 94.9506 72.3988 95.5649 70.2557C95.6854 69.838 95.8886 69.3866 95.325 69.1862C94.8506 69.0179 94.3753 69.0868 94.1118 69.62C93.8544 70.1392 93.5218 70.6324 93.3373 71.175C92.0725 74.952 91.504 78.8493 91.5866 82.8289C91.7022 88.288 90.683 93.6603 90.4624 99.0895C90.3796 101.13 89.6135 103.124 90.0943 105.195C90.3296 106.206 89.5557 106.031 89.0169 106.05C87.7549 106.093 87.5226 106.658 87.8878 107.818C88.3049 109.136 89.3819 109.954 90.1146 111.033C89.3928 111.634 88.1196 110.705 87.7726 111.959C87.4089 113.268 88.4465 113.98 89.1213 114.832C89.1542 114.871 89.1972 114.907 89.2297 114.951C89.6994 115.569 90.9905 116.006 90.6874 116.635C90.2318 117.575 89.3521 116.431 88.6118 116.401C87.8475 116.369 87.5486 116.553 87.5142 117.322C87.4732 118.253 87.9109 118.933 88.4813 119.592C89.1798 120.393 89.85 121.212 90.5225 122.035C90.7548 122.317 91.0833 122.635 90.8523 123.016C90.5649 123.489 90.0992 123.22 89.6968 123.143C88.9515 123.001 88.6233 122.313 88.0769 121.911C87.574 121.539 87.0354 121.019 86.3694 121.449C85.7774 121.834 86.0265 122.486 86.0937 123.058C86.3203 125.017 87.9271 126.09 88.9397 127.546C89.3319 128.109 90.4044 128.64 89.8337 129.342C89.2738 130.03 88.4031 129.347 87.7277 128.955C87.1236 128.606 86.4698 128.187 85.8186 128.671C85.1621 129.159 85.6561 129.833 85.767 130.431C86.0524 132.015 87.3979 132.862 88.2625 134.04C88.3838 134.206 88.482 134.387 88.6017 134.572C86.254 135.311 86.1494 135.742 87.7993 138.063C87.2965 138.227 86.9175 138.018 86.515 137.83C85.7586 137.479 84.9203 137.237 84.3791 138.075C83.899 138.821 84.1832 139.599 84.7387 140.261C85.4852 141.151 86.234 142.043 86.9937 142.949C86.7833 143.54 84.7694 142.644 85.9294 144.328C86.2909 144.854 85.4917 144.833 85.1199 144.851C82.618 144.962 80.2013 145.433 77.8792 146.383C77.0866 146.709 76.3537 147.101 75.7054 147.663C74.3099 148.869 74.591 150.391 76.3882 150.992C77.0327 151.209 82.4617 149.753 82.6754 150.055C82.8935 150.362 90.6612 147.367 90.7649 150.281C90.7954 151.112 82.5646 152.253 83.2451 152.359C83.9544 152.469 79.0948 152.645 78.8839 153.468C78.4767 155.058 81.2483 155.444 82.3897 155.481C81.4245 156.522 85.841 156.406 86.8479 156.828C88.8943 157.683 91.0893 157.71 93.1705 158.274C93.6552 158.406 94.8163 158.186 94.5464 159.077C94.2932 159.913 93.725 161.179 92.4153 160.678C91.0938 160.172 89.7332 160.123 88.3895 159.877C86.6526 159.56 85.0186 159.058 83.1789 159.884C81.9232 160.447 80.51 160.193 80.0157 158.28C79.7119 157.108 78.4424 157.21 77.5836 157.547C76.5848 157.935 77.8396 161.733 79.4108 162.15C78.5666 162.965 79.5231 161.516 79.4108 162.15C79.3136 162.69 82.0974 162.99 82.4272 163.123C84.1232 163.805 85.8178 164.559 87.5829 165C90.5514 165.742 93.5726 166.293 96.495 167.234C97.145 167.442 98.205 167.498 98.0273 168.499C97.8458 169.516 97.0353 170.022 95.9136 170.009C92.7157 169.968 89.8742 168.562 86.9165 167.637C86.1271 167.39 83.9341 167.567 83.396 166.899C83.0525 166.474 82.376 166.208 81.6701 166.51C80.7682 166.897 80.6667 166.67 80.6675 166.66C80.6828 166.001 81.1075 171.299 84.9416 171.992C84.8209 172.695 85.8133 172.353 86.3503 172.638C89.1987 174.132 92.2969 174.801 95.3887 175.489C97.108 175.87 98.7385 176.468 100.297 177.261C100.795 177.516 101.627 177.687 101.342 178.591C101.092 179.394 100.468 179.837 99.6574 179.782C97.7643 179.649 95.8489 179.579 94.0084 179.059C91.5678 178.369 89.1254 177.672 86.7278 176.848C85.9237 176.572 82.2915 178.211 81.4995 177.458C80.9109 176.899 80.6245 177.22 80.1827 177.546C78.2476 178.978 77.3693 181.209 76.0003 183.066C74.9021 184.559 73.7481 185.969 72.1227 186.949C71.306 187.442 70.3598 187.612 69.7929 187.026C69.3463 186.563 69.7648 185.632 70.1336 184.97C71.43 182.661 73.2386 180.728 74.7992 178.612C77.3671 175.133 78.4474 171.305 77.9128 167.009C77.8336 166.38 77.5307 165.876 76.8928 165.725C76.0861 165.537 75.4199 165.828 74.9977 166.548C73.6675 168.828 72.3259 171.1 71.0509 173.414C70.2255 174.914 69.1318 176.184 67.9874 177.425C67.6246 177.818 67.1221 178.035 66.5795 178.098C65.9366 178.174 65.5971 178.097 65.796 177.244C66.144 175.752 67.2113 174.79 68.1341 173.734C70.6965 170.799 72.9613 167.722 73.4541 163.692C73.5608 162.813 73.8691 161.841 72.9081 161.252C71.9151 160.64 71.2677 161.446 70.5231 161.946C68.3942 163.38 67.3415 165.726 65.6864 167.561C64.9032 168.428 64.1317 169.298 63.0656 169.822C62.6817 170.011 62.1873 170.105 61.8579 169.797C61.5264 169.487 61.8865 169.095 62.0308 168.796C62.8413 167.13 63.8809 165.616 65.1373 164.254C67.4075 161.791 68.9404 158.953 69.5058 155.63C69.6028 155.062 69.6272 154.466 69.5697 153.895C69.4754 152.962 69.128 152.045 68.1811 151.742C67.2225 151.436 66.6739 152.191 66.128 152.885C64.1752 155.371 62.7381 158.249 60.4589 160.478C59.7984 161.126 58.9681 162.429 58.0405 161.647C57.1534 160.902 57.9532 159.531 58.5546 158.781C60.1222 156.837 61.1132 154.534 62.6524 152.582C63.5755 151.411 62.6435 147.319 61.3193 146.646C60.3571 146.156 59.7446 146.782 59.8785 147.619C60.5401 151.733 56.7083 152.339 54.7331 154.38C54.5209 154.598 54.0378 154.785 53.7356 154.415C53.5015 154.125 53.7359 153.79 53.8912 153.53C54.8028 151.985 55.7905 150.483 56.6582 148.912C58.1136 146.273 59.4521 143.585 59.0882 140.403C58.9986 139.613 59.1222 138.707 58.0889 138.481C57.0626 138.259 56.3888 138.864 55.8675 139.667C54.4296 141.877 52.9917 144.087 51.5511 146.299C51.3784 146.565 51.2371 146.857 51.0285 147.09C50.6678 147.486 50.2227 147.909 49.6606 147.578C49.1423 147.272 49.4284 146.729 49.4989 146.273C49.7559 144.657 50.7365 143.38 51.4979 142.005C52.7829 139.687 53.6124 137.292 53.051 134.579C52.9261 133.975 52.8132 133.401 52.1151 133.273C51.3004 133.123 50.9948 133.696 50.7803 134.335C50.0471 136.511 48.3979 138.051 46.9892 139.751C46.595 140.229 45.9639 140.816 45.3741 140.441C44.7453 140.041 45.2124 139.221 45.4043 138.704C45.9355 137.277 46.6263 135.908 47.2632 134.517C47.9628 132.99 48.0638 131.357 48.0907 129.716C48.1034 128.805 47.7416 127.971 46.875 127.664C45.945 127.334 45.4184 128.115 45.0169 128.79C44.4795 129.696 44.0131 130.649 43.5799 131.61C43.3379 132.148 43.0585 132.641 42.679 133.089C42.2916 133.543 41.8119 134.115 41.2443 133.82C40.4982 133.434 40.9218 132.641 41.1456 132.119C42.0092 130.088 43.3869 128.299 43.8817 126.082C44.1295 124.969 44.2325 123.879 43.9191 122.791C43.7081 122.063 43.2571 121.367 42.486 121.215C41.6411 121.05 41.1585 121.741 40.7791 122.385C40.1899 123.387 39.6471 124.414 39.0784 125.43C38.8959 125.753 38.7428 126.1 38.5059 126.379C38.083 126.881 37.5134 127.372 36.8718 127.01C36.2786 126.674 36.7857 126.066 36.8613 125.578C37.0831 124.175 38.1003 123.147 38.6253 121.878C39.0986 120.731 39.3509 119.565 39.4742 118.351C39.5477 117.634 39.4503 116.936 38.7444 116.56C38.0709 116.202 37.5512 116.647 37.0127 117.001C35.7383 117.839 35.2707 119.399 34.0467 120.27C33.678 120.535 33.3367 121.129 32.8528 120.817C32.3987 120.525 32.7264 119.92 32.8023 119.486C33.0716 117.896 34.213 116.662 34.6516 115.13C34.9276 114.167 35.3159 113.221 35.16 112.188C34.9644 110.912 34.0973 110.498 33.0121 111.217C32.1783 111.769 31.4062 112.422 30.7898 113.233C30.3806 113.773 29.9636 114.573 29.1911 114.24C28.3557 113.88 28.5688 113.059 28.7913 112.297C29.1164 111.186 29.4069 110.055 29.558 108.911C29.6412 108.28 29.7678 107.451 28.9668 107.084C28.28 106.769 27.6199 106.988 27.0515 107.465C26.8091 107.668 26.564 107.874 26.3043 108.052C25.6772 108.48 25.4352 108.255 25.5123 107.553C25.6422 106.347 25.835 105.141 25.8902 103.931C25.9654 102.348 25.5272 102.011 24.1729 102.679C22.9727 103.271 22.4647 103.354 22.1036 101.722C21.6907 99.8477 20.1592 98.4037 19.5074 96.5204C18.635 93.9928 17.5581 91.5074 16.3164 89.1381C14.7278 86.1011 13.632 82.8467 11.9079 79.8654C10.2851 77.0578 8.24406 74.5565 6.4883 71.8605C5.16454 69.8275 4.00777 67.6812 2.52607 65.7406C2.26944 65.403 2.01846 65.0562 1.7223 64.7563C1.44634 64.475 1.18709 63.9701 0.688688 64.3081C0.244221 64.6097 0.430311 65.0644 0.599947 65.4572C1.3778 67.2526 2.08513 69.0804 2.96179 70.8241C5.16278 75.2156 7.65812 79.4761 9.60346 83.9707C10.7405 86.6018 11.5791 89.4121 12.5355 92.1457C13.5251 94.9718 14.4434 97.8399 15.9617 100.454C16.2422 100.937 16.5105 101.336 15.9689 101.839C15.0121 102.727 15.2532 103.613 16.0915 104.448C16.7649 105.118 17.2634 105.966 18.1521 106.411C18.4374 106.555 18.7625 106.715 18.6 107.114C18.4621 107.453 18.0985 107.517 17.7924 107.502C17.0843 107.463 16.2691 107.376 16.035 108.187C15.7842 109.053 16.4718 109.613 17.0831 110.162C18.2108 111.178 19.6363 111.627 20.9404 112.307C21.2463 112.465 21.7741 112.491 21.6532 112.998C21.5529 113.434 21.1042 113.419 20.7267 113.419C20.4631 113.417 20.1959 113.4 19.9328 113.42C19.3745 113.47 18.661 113.239 18.3527 113.872C17.9973 114.603 18.5548 115.156 18.9619 115.716C20.183 117.393 22.1714 117.401 23.8824 118.021C24.3144 118.176 25.1247 117.898 25.017 118.759C24.9386 119.391 24.3996 119.723 23.7901 119.833C23.2738 119.928 22.7437 119.958 22.2186 120.015C21.525 120.089 21.0022 120.345 20.9033 121.132C20.8141 121.862 21.1373 122.412 21.7355 122.717C22.9087 123.315 24.0854 123.929 25.4629 123.95C26.5793 123.968 27.6375 124.27 28.7684 124.797C27.8304 126.03 26.6447 125.804 25.4749 125.59C24.8008 125.465 24.1407 125.26 23.4658 125.144C22.9434 125.057 22.3569 124.982 22.0645 125.571C21.7811 126.139 22.1615 126.613 22.4909 127.006C24.0643 128.865 26.0683 129.935 28.4974 130.193C29.5454 130.304 30.5978 130.419 31.6409 130.588C31.9868 130.645 32.4067 130.801 32.3621 131.293C32.3183 131.776 31.9157 131.815 31.5375 131.852C30.091 131.986 28.7075 131.725 27.3029 131.369C26.3319 131.123 24.9767 130.53 24.421 131.678C23.9176 132.725 25.1565 133.375 25.9126 134.012C28.2012 135.94 30.9267 136.609 33.8204 136.897C34.6963 136.982 36.2575 136.751 36.2235 137.77C36.1886 138.856 34.6315 138.615 33.6944 138.679C32.105 138.787 30.5343 138.535 28.9825 138.147C28.4424 138.012 27.7893 137.81 27.3955 138.453C27.0489 139.025 27.2977 139.623 27.5904 140.104C28.4391 141.497 29.8943 142.109 31.3111 142.659C33.2598 143.414 35.3296 143.545 37.4084 143.487C38.0948 143.468 38.7852 143.46 39.4656 143.54C39.9949 143.604 40.8853 143.463 40.8135 144.246C40.7502 144.928 40.033 145.307 39.2565 145.303C37.7089 145.29 36.2408 144.801 34.7415 144.507C33.3422 144.232 31.9343 144 30.533 143.749C30.0372 143.661 29.5581 143.688 29.273 144.164C28.9848 144.647 29.2118 145.076 29.4937 145.486C30.5081 146.949 32.1067 147.61 33.5756 148.428C36.119 149.839 38.8745 150.497 41.7696 150.627C42.5047 150.662 43.2401 150.834 43.9521 151.026C44.3069 151.12 44.9128 151.053 44.8689 151.679C44.836 152.148 44.4441 152.401 44.0346 152.548C42.4019 153.133 40.7107 153.045 39.0238 152.936C37.7027 152.849 36.386 152.683 35.0697 152.597C34.6126 152.566 34.0317 152.483 33.772 152.973C33.4457 153.59 34.0282 153.993 34.3876 154.289C36.609 156.126 39.2638 156.971 42.0477 157.466C44.0261 157.817 46.0693 157.695 48.0034 158.337C48.535 158.515 49.3094 158.543 49.27 159.285C49.2298 160.037 48.6293 160.38 47.8643 160.554C44.4659 161.328 41.0546 161.207 37.6275 160.819C36.9803 160.746 36.1391 160.368 35.7723 161.176C35.4184 161.945 36.2425 162.382 36.6488 162.893C36.9023 163.211 37.2756 163.486 37.6491 163.645C39.0033 164.221 39.9351 164.813 40.1266 166.646C40.2873 168.187 41.8222 169.45 43.1387 170.41C46.5715 172.907 50.4365 174.426 54.6541 174.994C55.1755 175.065 55.6891 175.201 56.1978 175.336C56.7965 175.493 57.6411 175.52 57.6552 176.289C57.6664 176.948 56.9375 177.35 56.3607 177.558C54.7707 178.125 53.1565 178.663 51.435 178.026C48.9819 177.114 46.308 177.311 43.8293 176.501C43.4196 176.368 42.8179 176.217 42.5436 176.764C42.2697 177.306 42.7522 177.691 43.0867 177.967C45.0651 179.589 47.4092 180.36 49.8847 180.785C53.8676 181.465 57.6559 182.75 61.3089 184.456C61.844 184.707 62.6531 184.781 62.4213 185.707C62.2165 186.517 61.6654 186.961 60.8282 187.017C58.7353 187.155 56.7324 186.78 54.7922 185.982C52.2909 184.955 49.9121 183.714 47.6294 182.253C46.8907 181.781 45.8302 180.94 45.0705 181.814C44.3083 182.69 45.316 183.526 45.8424 184.301C48.7502 188.577 53.1107 190.443 57.8784 191.651C60.5406 192.324 63.2483 192.835 65.7805 193.952C67.0373 194.507 67.0743 194.922 66.0072 195.826C64.9717 196.7 63.7509 196.685 62.5397 196.502C57.9217 195.806 53.4769 194.501 49.2117 192.569C48.1119 192.073 47.0136 191.506 45.7835 191.374C44.7045 191.258 44.3695 191.722 44.9199 192.669C46.1525 194.779 47.9116 196.362 50.0236 197.555C55.0047 200.367 60.5301 201.318 66.0526 202.245C67.7034 202.523 69.141 203.283 70.6236 203.97C71.331 204.299 71.2019 204.733 70.8558 205.242C70.0181 206.462 68.7397 206.527 67.4539 206.509C65.8442 206.487 64.289 206.026 62.8275 205.459C59.577 204.196 56.1715 203.357 53.0441 201.758C52.3509 201.403 51.5457 201.227 50.7738 201.086C50.2543 200.991 49.5581 200.617 49.2105 201.341C48.942 201.905 49.4412 202.32 49.7437 202.744C51.8477 205.696 54.715 207.62 58.0804 208.814C62.6198 210.427 67.2689 211.663 71.9847 212.629C72.9931 212.835 73.852 213.345 74.7753 213.726C75.5512 214.047 75.3336 214.497 74.8802 214.931C74.0364 215.741 73.0528 216.094 71.853 216.004C66.7583 215.619 62.0374 214.006 57.5508 211.635C56.8029 211.242 56.1038 210.758 55.3732 210.332C54.8225 210.009 54.2038 209.605 53.6041 210.024C52.8862 210.524 53.2226 211.285 53.4371 211.916C54.0554 213.739 55.2639 215.253 56.8191 216.222C61.5264 219.153 66.5927 221.225 72.1776 221.791C73.9648 221.973 75.785 222.024 77.4793 222.698C78.0736 222.935 78.9896 223.09 78.9803 223.905C78.9722 224.705 78.1236 224.922 77.4822 225.122C74.9589 225.906 72.4803 225.462 70.0035 224.771C65.2906 223.459 61.3313 220.668 57.1857 218.242C56.6302 217.919 56.0937 217.375 55.4808 217.862C54.8758 218.343 55.1774 219.031 55.4545 219.61C56.8712 222.564 58.3646 225.413 61.9878 226.253C62.8207 226.446 63.5802 227.07 64.3104 227.586C67.4726 229.824 71.1028 230.666 74.8364 231.235C76.0379 231.417 77.227 231.717 78.4331 231.846C80.1907 232.035 81.6628 232.873 82.9875 233.906C84.0107 234.702 82.9656 235.236 82.4039 235.493C80.7864 236.239 79.0127 236.296 77.2723 236.16C72.3596 235.77 67.8323 233.959 63.325 232.14C61.2411 231.298 59.0407 230.995 56.8882 230.474C56.4853 230.375 56.0072 230.335 55.7226 230.747C55.3631 231.272 55.8315 231.624 56.0744 232.008C57.1702 233.764 59.1478 234.379 60.7138 235.504C66.883 239.928 74.0948 241.306 81.3872 242.335C83.3525 242.612 85.1903 243.108 86.8612 244.337C85.5447 246.146 83.674 246.543 81.6737 246.505C75.1266 246.38 68.7397 245.429 62.6937 242.703C61.4938 242.163 60.1997 241.817 58.9322 241.445C58.4955 241.316 57.9418 241.255 57.6322 241.733C57.32 242.214 57.5742 242.665 57.8934 243.035C59.1961 244.55 60.2198 246.358 62.1993 247.176C62.8396 247.441 63.0965 247.917 63.1763 248.653C63.5533 252.104 65.5236 254.5 68.2716 256.488C74.2049 260.785 81.0111 261.896 88.0518 262.276C90.0342 262.383 91.8615 263.057 93.6361 263.895C94.5058 264.307 94.3009 264.608 93.6387 265.079C91.9207 266.293 89.8724 266.362 87.9941 266.284C82.4624 266.056 77.043 265.168 72.3666 261.792C71.2452 260.985 70.0247 260.346 68.676 259.988C67.635 259.711 67.2833 260.145 67.4835 261.141C67.5441 261.451 67.5665 261.811 67.7396 262.049C71.068 266.614 74.6116 270.784 80.8439 271.392C84.9497 271.795 89.0919 271.802 93.1689 272.541C94.7394 272.824 96.2535 273.199 97.6898 273.947C98.4889 274.365 98.3687 274.666 97.7516 275.006C97.2002 275.312 96.6134 275.608 96.0044 275.74C91.9515 276.613 87.9925 277.857 83.6836 277.254C80.7019 276.835 77.9938 275.652 75.1148 274.995C73.9328 274.725 72.776 274.331 71.5991 274.03C70.9148 273.855 70.1519 273.777 69.7286 274.454C69.3364 275.077 69.7817 275.698 70.1397 276.209C72.3705 279.376 75.4701 281.328 79.162 282.27C83.2799 283.323 87.3932 283.301 91.5135 282.037C94.9157 280.993 98.1923 281.895 101.359 283.26C101.929 283.505 102.486 283.777 103.289 284.147C100.964 285.336 98.6125 285.494 96.2883 285.705C92.0687 286.093 87.8542 286.196 83.6399 285.505C82.1771 285.265 80.6867 285.263 79.2013 285.314C78.4757 285.339 77.7772 285.385 77.4326 286.102C77.0527 286.894 77.6713 287.44 78.1489 287.883C80.6775 290.229 83.7883 291.315 87.1032 291.941C90.2512 292.536 93.3204 292.159 96.3202 291.181C99.0336 290.295 101.407 291.487 103.85 292.291C104.568 292.527 104.379 292.985 104.138 293.557C101.826 299.06 99.1547 304.392 96.6559 309.806C96.3913 310.38 96.0383 310.971 96.5725 311.57C97.2433 312.327 98.229 312.12 98.6671 311.102C100.726 306.355 102.99 301.708 105.37 297.116C106.17 295.571 107.028 294.057 107.836 292.514C108.192 291.832 108.542 291.783 109.205 292.213C110.36 292.96 110.954 294.112 111.347 295.285C112.806 299.661 116.159 302.275 119.792 304.64C121.43 305.708 123.127 306.719 125.093 307.076C125.712 307.19 126.36 307.257 126.982 307.204C128.16 307.099 128.509 306.413 127.735 305.497C126.343 303.838 124.854 302.269 123.146 300.902C118.939 297.529 116.795 293.036 116.036 287.435C117.343 288.59 118.36 289.632 118.906 290.913C120.67 295.06 123.874 297.972 127.101 300.897C130.62 304.084 134.524 306.503 139.292 307.277C139.503 307.311 139.71 307.346 139.917 307.386C140.6 307.527 141.33 307.726 141.757 306.958C142.126 306.291 141.663 305.765 141.317 305.221C139.927 303.035 137.73 301.846 135.655 300.47C132.539 298.398 130.081 295.622 127.998 292.546C127.121 291.252 125.926 290.114 125.67 288.443C125.547 287.645 125.28 286.755 125.991 286.225C126.743 285.666 127.36 286.454 127.954 286.834C128.744 287.336 129.165 288.128 129.505 288.989C131.079 292.957 133.817 295.917 137.294 298.351C141.28 301.142 145.782 302.224 150.456 302.922C151.841 303.128 153.178 302.694 154.553 302.69C155.337 302.688 155.546 302.169 155.091 301.49C154.724 300.946 154.161 300.687 153.595 300.368C149.055 297.801 144.319 295.546 140.204 292.283C138.605 291.012 137.735 289.124 136.542 287.517C136.139 286.972 136.165 286.188 136.445 285.52C136.733 284.832 137.062 284.673 137.903 285.05C139.94 285.959 140.764 287.974 142.226 289.392C145.337 292.417 149.079 294.414 152.881 296.393C154.97 297.48 156.849 298.962 159.017 299.957C160.88 300.811 162.813 301.235 164.824 301.408C165.732 301.484 166.648 301.527 167.189 300.547C167.418 300.131 167.779 300.217 168.162 300.319C168.775 300.482 169.397 300.674 170.021 300.703C170.561 300.727 171.294 301.24 171.63 300.592C171.99 299.903 171.264 299.446 170.814 299.052C169.385 297.794 167.908 296.585 166.123 295.845C165.709 295.675 165.318 295.441 165.173 295.046C164.305 292.72 162.223 291.515 160.541 289.934C158.794 288.291 157.149 286.564 156.806 284.016C156.737 283.516 156.66 283.059 157.103 282.718C157.513 282.401 157.893 282.653 158.285 282.819C159.572 283.362 160.674 284.034 161.406 285.346C162.822 287.886 165.259 289.372 167.67 290.779C169.643 291.928 170.837 293.727 172.118 295.461C173.851 297.801 176.072 299.251 178.979 299.549C179.646 299.619 180.427 299.771 180.875 299.082C181.336 298.37 180.638 297.931 180.316 297.42C177.697 293.272 174.174 290.053 170.125 287.345C168.818 286.471 167.831 285.31 167.663 283.628C167.597 282.961 167.861 282.508 168.35 282.128C168.89 281.706 169.351 282.006 169.797 282.3C170.196 282.564 170.655 282.793 170.941 283.155C172.829 285.553 175.274 287.35 177.503 289.377C180.889 292.448 184.528 295.138 188.785 296.886C189.124 297.026 189.489 297.111 189.849 297.18C190.475 297.296 191.197 297.462 191.569 296.794C191.924 296.152 191.261 295.754 190.945 295.293C188.588 291.848 185.058 289.718 181.876 287.197C180.533 286.13 179.486 284.788 178.556 283.361C178.139 282.721 177.937 281.909 178.464 281.271C179.053 280.554 179.646 281.345 180.145 281.559C182.136 282.413 183.267 284.358 185.027 285.561C189.434 288.574 193.705 291.8 198.957 293.261C199.86 293.511 201.034 294.064 201.56 293.155C201.966 292.448 200.866 291.73 200.287 291.172C198.173 289.134 195.595 287.783 193.069 286.34C191.42 285.396 190.14 283.951 189.052 282.384C188.626 281.77 188.55 281.076 189.089 280.48C189.747 279.754 190.325 280.496 190.746 280.776C192.154 281.707 193.522 282.718 194.805 283.813C198.944 287.359 203.497 290.147 208.76 291.67C209.452 291.87 210.409 292.285 210.764 291.464C211.129 290.628 210.22 290.026 209.592 289.617C206.758 287.781 203.869 286.031 201.023 284.218C200.028 283.582 199.207 282.737 198.897 281.557C198.771 281.078 198.555 280.456 199.079 280.075C199.557 279.728 200.043 280.18 200.372 280.403C201.775 281.344 203.125 282.365 204.454 283.409C207.324 285.665 210.417 287.587 213.468 289.571C214.634 290.331 215.899 290.843 217.283 291.047C217.584 291.093 217.919 291.334 218.136 290.973C218.32 290.667 218.161 290.319 217.94 290.099C217.009 289.159 216.128 288.145 215.088 287.351C213.121 285.848 211.38 284.054 209.228 282.792C208.739 282.506 208.499 282.035 208.468 281.468C208.443 281.052 208.661 280.766 208.971 280.537C209.335 280.267 209.623 280.436 209.97 280.648C214.659 283.51 219.066 286.786 223.608 289.864C224.926 290.756 226.352 291.45 227.843 292.005C228.226 292.148 228.693 292.429 229.008 291.995C229.324 291.561 228.899 291.208 228.659 290.879C226.682 288.185 224.06 286.252 221.251 284.529C220.536 284.09 219.87 283.556 219.227 283.012C218.891 282.728 218.674 282.29 219.098 281.916C219.525 281.54 219.724 282.038 219.997 282.241C223.432 284.772 226.347 287.981 230.116 290.085C231.601 290.912 233.121 291.643 234.814 291.908C235.265 291.98 235.824 292.037 236.099 291.534C236.394 291.001 235.92 290.659 235.657 290.282C234.539 288.679 232.74 288.012 231.133 287.14C229.928 286.488 229.081 285.49 228.066 284.661C227.577 284.264 227.33 283.709 227.885 283.154C228.385 282.654 228.839 282.929 229.274 283.3C231.044 284.806 232.934 286.195 234.557 287.843C236.291 289.603 238.29 290.926 240.379 292.166C240.89 292.468 241.421 292.687 242.035 292.609C242.696 292.523 243.13 292.056 242.758 291.538C241.995 290.48 241.747 289.083 240.512 288.327C239.367 287.624 238.641 286.463 237.755 285.485C237.377 285.067 237.138 284.486 237.608 284.061C238.227 283.501 238.548 284.276 238.863 284.582C241.869 287.509 245.106 290.117 248.894 291.978C249.179 292.117 249.453 292.316 249.752 292.381C250.31 292.506 250.965 292.714 251.355 292.12C251.72 291.559 251.255 291.102 250.9 290.731C249.803 289.583 248.669 288.474 247.395 287.518C246.977 287.205 246.539 286.863 246.256 286.436C245.95 285.975 245.952 285.327 246.394 284.974C246.869 284.593 247.117 285.228 247.386 285.479C250.214 288.118 253.119 290.644 256.672 292.278C257.641 292.723 258.979 293.28 259.543 292.263C260.216 291.052 258.859 290.362 257.942 289.762C256.574 288.868 255.679 287.546 254.725 286.277C254.393 285.834 254.346 285.164 254.771 284.812C255.216 284.443 255.436 285.128 255.77 285.32C258.362 286.789 260.295 289.113 262.79 290.711C263.82 291.372 264.89 291.678 266.079 291.671C267.12 291.667 267.317 291.149 266.745 290.367C266.086 289.471 265.352 288.633 264.487 287.914C263.449 287.064 262.633 286.054 262.429 284.451ZM117.758 268.345C117.252 267.557 117.59 267.037 117.587 266.531C117.582 265.652 117.622 264.767 116.727 264.31C115.858 263.866 115.072 264.285 114.397 264.842C113.137 265.882 111.848 266.887 110.844 268.216C109.223 270.356 107.546 272.451 105.855 274.534C105.544 274.915 105.107 275.438 104.521 275.02C104.024 274.666 104.177 274.096 104.281 273.558C104.605 271.895 105.623 270.805 106.947 269.809C111.158 266.637 115.533 263.617 118.52 259.113C118.998 258.391 119.468 257.568 119.016 256.766C118.607 256.034 117.7 256.251 116.976 256.293C116.293 256.331 115.648 256.484 114.991 256.745C111.237 258.232 108.406 261.107 105.085 263.243C104.239 263.787 103.431 264.385 102.498 264.767C101.816 265.045 101.121 264.905 100.554 264.441C99.9927 263.984 100.299 263.396 100.373 262.822C100.53 261.585 101.395 260.895 102.249 260.187C104.611 258.231 106.971 256.273 109.353 254.341C111.504 252.594 113.159 250.394 114.938 248.304C115.433 247.724 115.689 246.96 115.282 246.236C114.839 245.444 114.037 245.537 113.298 245.725C112.583 245.906 111.869 246.108 111.185 246.379C108.399 247.49 106.089 249.317 103.793 251.199C102.289 252.43 100.581 253.417 98.9326 254.466C98.0752 255.011 97.1375 254.799 96.3841 254.272C95.6329 253.747 96.3047 253.023 96.3499 252.383C96.4346 251.224 97.3147 250.668 98.0664 250.029C100.752 247.744 103.728 245.778 105.586 242.618C106.41 241.217 107.549 240.007 108.519 238.69C108.828 238.27 109.111 237.961 109.688 238.226C111.9 239.246 114.199 240.006 116.53 240.703C117.42 240.969 118.3 241.483 118.902 242.253C120.725 244.59 123.337 245.399 126.048 245.978C128.441 246.49 128.455 246.576 127.606 248.836C125.866 253.471 123.894 257.993 121.395 262.27C120.231 264.25 119.037 266.21 117.758 268.345ZM85.3369 180.146C88.5276 182.392 92.1265 183.684 95.9314 184.38C99.0692 184.953 102.137 185.67 104.956 187.224C106.171 187.894 106.186 188.292 105.066 189.124C103.906 189.986 102.579 189.74 101.401 189.404C98.0819 188.457 94.7123 187.877 91.2885 187.535C90.595 187.466 89.7828 187.457 89.3181 186.723C88.3457 185.193 87.7976 185.122 86.393 186.181C84.5819 187.549 83.5568 189.573 82.0713 191.207C80.4813 192.96 79.0362 194.886 76.9982 196.164C75.9807 196.799 74.5048 197.164 73.7953 196.181C73.2889 195.482 74.1201 194.254 74.8604 193.436C76.4187 191.714 77.8841 189.918 79.4791 188.218C81.4388 186.133 81.6666 183.021 83.4723 180.783C83.7243 180.469 85.6068 179.255 85.3369 180.146ZM87.72 213.686C86.632 214.523 85.6614 215.543 84.1777 215.66C83.4688 215.715 82.5933 216.133 82.1609 215.305C81.8056 214.622 82.1963 213.875 82.5905 213.228C83.5508 211.651 85.0845 210.667 86.4445 209.508C89.4205 206.971 91.9821 204.157 92.7901 200.148C92.9161 199.525 93.1576 199.474 93.6452 199.827C97.2436 202.453 101.398 203.507 105.695 204.249C108.027 204.651 110.348 205.214 112.464 206.359C113.826 207.098 113.881 207.899 112.722 208.912C112.188 209.377 111.609 209.413 110.949 209.351C108.054 209.078 105.184 208.739 102.463 207.572C100.673 206.804 98.8154 206.195 96.9798 205.533C96.2851 205.282 95.6593 205.044 95.0118 205.824C92.7239 208.578 90.3057 211.213 87.72 213.686ZM90.5715 222.999C90.5627 222.988 90.5539 222.978 90.5452 222.967C90.0993 223.341 89.6816 223.754 89.2037 224.08C87.7542 225.068 85.9716 225.284 85.7859 224.486C85.4552 223.065 86.401 222.164 87.4504 221.355C89.3317 219.901 91.285 218.512 92.989 216.868C94.8459 215.078 96.5393 213.077 96.9158 210.349C97.0836 209.124 97.5393 209.398 98.1737 210.042C99.701 211.593 101.567 212.524 103.681 212.979C105.639 213.401 107.646 213.679 109.54 214.301C111.882 215.07 114.455 215.176 116.543 216.675C117.056 217.042 118.136 216.957 117.956 217.897C117.803 218.695 116.974 219.136 116.269 219.46C115.714 219.716 115.04 219.728 114.413 219.796C110.218 220.234 106.271 218.909 102.259 218.035C101.418 217.853 101.493 217.366 101.509 216.76C101.531 215.912 101.573 214.962 100.602 214.578C99.6517 214.202 98.749 214.599 98.1938 215.345C97.128 216.77 95.3837 217.387 94.4358 219.074C93.5727 220.619 91.8968 221.708 90.5715 222.999ZM95.8807 231.502C94.4667 232.443 93.1775 233.369 91.8205 234.182C90.943 234.709 89.8324 234.736 89.1786 233.978C88.5867 233.288 89.0906 232.321 89.543 231.616C90.1491 230.671 91.0876 230.026 92.0201 229.422C94.6052 227.748 97.0484 225.92 98.8836 223.395C99.2403 222.904 99.6511 222.43 100.33 222.779C104.272 224.813 108.652 224.563 112.856 225.231C115.31 225.62 117.789 225.863 120.223 226.345C121.075 226.513 122.478 226.999 122.389 227.814C122.266 228.943 121.034 229.588 119.831 229.848C119.575 229.903 119.306 229.932 119.044 229.938C114.821 230.008 110.6 230.041 106.437 229.114C105.635 228.936 105.175 228.648 105.212 227.632C105.26 226.112 104.488 225.542 102.947 225.849C101.186 226.203 99.73 227.131 98.5531 228.497C97.6507 229.54 96.7242 230.554 95.8807 231.502ZM83.2969 204.528C82.3882 205.362 81.3638 206.021 80.1626 206.316C78.4073 206.749 77.7649 206 78.1475 204.274C78.5616 202.406 80.1632 201.646 81.3351 200.48C84.1556 197.668 87.416 195.199 88.4952 191.047C88.825 189.767 89.7107 190.135 90.4843 190.596C92.706 191.92 95.1525 192.569 97.6636 192.973C101.548 193.593 105.275 194.662 108.741 196.564C109.146 196.787 109.801 196.848 109.783 197.398C109.765 197.975 109.345 198.47 108.813 198.757C108.298 199.032 107.742 199.218 107.14 199.152C104.187 198.825 101.345 197.968 98.5743 196.975C96.0033 196.056 93.5764 194.726 91.0729 193.611C90.4714 193.344 89.622 193.148 89.7991 194.216C90.0545 195.754 89.1122 196.67 88.3859 197.748C86.7919 200.084 85.5616 202.695 83.2969 204.528ZM136.709 221.582C134.938 223.295 132.959 225.548 130.996 227.815C130.5 228.388 129.824 229.076 129.159 228.479C128.628 228.005 129.027 227.099 129.32 226.426C129.398 226.244 129.598 226.112 129.744 225.963C130.517 225.168 131.3 224.386 132.056 223.577C134.874 220.57 137.133 217.253 137.716 213.04C137.803 212.428 137.984 211.691 137.37 211.288C136.811 210.923 136.153 211.145 135.554 211.421C133.707 212.27 132.519 213.824 131.279 215.338C130.076 216.806 128.871 218.272 127.608 219.684C127.094 220.258 126.369 220.537 125.595 220.139C124.832 219.744 124.965 219.012 124.979 218.319C124.999 217.396 125.507 216.752 126.062 216.099C128.179 213.618 130.803 211.572 132.437 208.681C132.913 207.835 133.508 207.818 134.28 208.267C135.018 208.696 135.87 208.801 136.693 208.998C138.324 209.39 140.05 209.472 141.493 210.509C141.873 210.782 142.236 211.035 142.07 211.504C140.849 214.968 140.658 218.959 136.709 221.582ZM126.49 167.277C125.748 168.257 125.009 168.498 124.093 168.423C122.831 168.323 121.593 168.171 120.352 167.884C118.3 167.407 116.431 166.318 114.299 166.118C113.272 166.021 112.655 166.155 113.202 167.368C113.414 167.837 113.502 168.308 113.141 168.709C111.418 170.622 109.958 172.789 107.823 174.312C107.223 174.74 106.604 174.617 106.054 174.231C105.431 173.796 105.635 173.165 105.892 172.655C106.197 172.051 106.595 171.481 107.034 170.961C109.242 168.346 111.455 165.731 112.857 162.562C113.253 161.663 113.592 161.945 114.109 162.402C115.649 163.772 117.5 164.426 119.473 164.951C121.799 165.573 124.056 166.457 126.49 167.277ZM112.676 182.721C112.235 183.091 112.067 183.219 111.914 183.365C111.249 183.986 110.559 184.106 109.777 183.54C108.941 182.935 109.267 182.238 109.598 181.568C109.899 180.953 110.193 180.297 110.651 179.805C112.927 177.365 114.888 174.698 116.569 171.82C116.972 171.13 117.417 170.993 118.123 171.39C119.797 172.331 121.619 172.898 123.496 173.223C125.165 173.513 126.799 173.894 128.392 174.479C129.193 174.771 129.329 175.076 128.642 175.634C128.184 176.005 127.721 176.305 127.085 176.32C125.314 176.37 123.501 176.242 121.988 175.398C120.598 174.62 119.114 174.848 117.723 174.397C117.297 174.26 116.749 174.264 116.413 174.721C116.038 175.227 116.374 175.659 116.686 175.994C117.306 176.665 117.061 177.294 116.624 177.853C115.253 179.582 114.159 181.544 112.676 182.721ZM107.317 233.228C106.138 233.83 105.033 234.409 104.149 235.346C102.124 237.492 100.072 239.61 97.9707 241.681C97.1118 242.527 96.1293 243.262 95.1555 243.981C94.4581 244.495 93.634 244.567 92.9605 243.954C92.3431 243.393 92.6456 242.658 92.9235 242.041C93.3628 241.066 94.0303 240.279 94.9397 239.663C97.3347 238.032 99.7358 236.414 101.617 234.14C103.836 231.462 103.869 231.492 107.102 232.877C107.145 232.891 107.16 232.962 107.317 233.228ZM127.652 237.56C126.795 238.449 125.886 238.881 124.77 238.868C123.245 238.846 121.72 238.792 120.193 238.815C116.738 238.87 113.898 236.82 110.687 236.037C110.196 235.918 110.068 235.522 110.199 235.032C110.462 234.049 110.77 233.309 112.105 233.745C116.163 235.076 120.271 236.181 124.582 236.31C125.688 236.341 126.6 237.047 127.652 237.56ZM70.7375 250.611C71.3041 250.296 71.7531 250.619 72.1458 250.754C76.2519 252.142 80.4915 252.593 84.7859 252.829C86.1925 252.907 87.6626 252.694 88.9977 253.38C89.4406 253.606 90.1657 253.559 90.1784 254.257C90.1923 254.999 89.5844 255.345 88.9878 255.587C87.3254 256.263 85.5862 256.34 83.8447 256.049C79.0852 255.254 74.8769 253.109 70.7375 250.611ZM144.538 172.494C148.417 175.58 149.298 176.843 150.25 180.169C150.47 180.934 150.296 181.33 149.677 181.742C148.471 182.544 147.28 182.518 146.411 181.169C145.719 180.096 144.763 179.529 143.78 178.918C143.043 178.458 142.848 177.934 143.309 177.213C144.181 175.848 144.592 174.348 144.538 172.494ZM120.545 200.72C120.07 201.038 119.584 201.353 119.11 201.683C118.279 202.265 117.421 202.053 116.758 201.507C116.085 200.948 116.684 200.2 116.901 199.622C117.255 198.673 118.001 197.968 118.776 197.308C119.898 196.353 121.1 195.487 121.99 194.272C123.188 192.638 124.389 192.629 125.739 194.154C126.185 194.659 126.124 195.057 125.664 195.515C123.948 197.235 122.258 198.975 120.545 200.72ZM127.198 202.093C128.342 200.745 128.992 201.97 129.754 202.169C130.169 202.276 130.281 202.686 129.969 203.06C128.068 205.306 126.409 207.772 124.168 209.702C123.285 210.465 122.132 211.553 121.019 210.275C120.024 209.126 121.08 208.065 121.886 207.268C123.726 205.458 125.974 204.07 127.198 202.093ZM131.655 182.376C132.013 182.95 131.692 183.304 131.4 183.554C130.903 183.984 130.259 184.021 129.612 184.024C126.908 184.036 124.259 183.659 121.707 182.746C121.13 182.54 119.975 182.625 120.556 181.416C120.954 180.583 120.924 179.181 122.616 179.906C124.507 180.714 126.541 181.062 128.561 181.436C129.638 181.639 130.675 182.071 131.655 182.376ZM117.141 191.452C116.626 191.75 116.052 192.129 115.436 192.423C114.705 192.769 113.881 193.058 113.269 192.266C112.725 191.558 113.342 190.97 113.692 190.413C114.994 188.321 117 186.879 118.674 185.135C119.588 184.181 120.139 185.748 120.953 185.925C121.414 186.024 121.427 186.5 121.098 186.807C119.614 188.168 118.595 189.928 117.141 191.452ZM160.781 294.731C160.272 295.024 159.979 294.776 159.655 294.597C158.279 293.83 156.915 293.025 155.504 292.323C152.591 290.87 150.201 288.751 147.938 286.467C147.57 286.098 147.189 285.681 147.156 285.117C147.123 284.564 146.782 283.861 147.458 283.534C148.248 283.152 148.367 283.966 148.683 284.406C150.888 287.474 153.09 290.554 157.019 291.614C158.726 292.076 159.809 293.255 160.781 294.731ZM44.3898 165.918C47.5292 165.794 50.3196 165.932 53.0485 166.759C53.5132 166.9 53.9756 167.122 53.8597 167.741C53.7497 168.32 53.5937 168.87 52.8624 168.989C52.1141 169.108 51.3901 169.029 50.6792 168.796C48.5865 168.113 46.5866 167.223 44.3898 165.918ZM125.656 189.078C125.613 188.878 125.486 188.658 125.543 188.509C125.699 188.096 126.12 188.011 126.47 188.105C128.902 188.758 131.444 188.886 133.837 189.709C134.119 189.807 134.52 189.761 134.587 190.164C134.658 190.598 134.295 190.806 134.012 191.03C133.622 191.343 133.157 191.43 132.672 191.355C130.909 191.087 129.159 190.763 127.525 190.002C126.916 189.716 126.313 189.4 125.656 189.078ZM137.107 197.556C137.335 197.744 137.411 197.956 137.289 198.144C136.988 198.606 136.563 198.873 135.989 198.904C134.302 198.995 132.639 198.781 130.984 198.493C130.381 198.388 129.653 198.41 129.882 197.402C130.069 196.581 130.372 196.037 131.355 196.229C132.69 196.491 134.043 196.68 135.377 196.961C135.985 197.093 136.564 197.365 137.107 197.556ZM138.422 173.385C137.438 172.467 138.269 171.672 138.59 170.832C139.324 168.896 139.317 168.893 141.065 169.843C142.675 170.717 142.747 171.285 141.421 172.469C141.07 172.782 140.77 173.149 140.455 173.499C139.735 174.299 139.053 174.354 138.422 173.385ZM154.166 240.734C152.991 240.912 152.286 240.554 151.639 240.286C150.125 239.661 148.66 238.901 147.72 237.447C147.369 236.907 147.236 236.315 147.653 235.827C148.124 235.271 148.485 235.949 148.865 236.116C151.016 237.076 152.235 239.09 154.166 240.734ZM113.493 276.08C112.298 278.527 111.127 280.986 109.895 283.415C109.374 284.441 108.737 285.408 108.115 286.376C107.936 286.656 107.73 287.141 107.293 286.932C106.853 286.721 107.189 286.306 107.202 285.961C107.262 284.582 108.697 284.046 109.055 282.965C109.935 280.296 111.699 278.232 113.493 276.08ZM135.222 236.737C135.905 233.533 136.835 230.426 138.545 227.63C138.901 231.22 136.797 233.886 135.222 236.737ZM146.12 197.03C145.706 197.288 145.174 198.18 144.4 197.617C143.573 197.018 144.286 196.174 144.424 195.443C144.529 194.896 144.902 194.488 145.347 194.209C145.869 193.878 146.346 192.782 146.923 193.381C147.581 194.064 147.739 195.216 147.11 196.177C146.918 196.472 146.56 196.66 146.12 197.03ZM133.575 158.073C134.023 158.41 133.943 158.887 134.051 159.27C134.45 160.683 133.511 162.211 132.108 162.509C131.685 162.597 131.255 162.525 130.891 162.287C130.644 162.124 130.582 161.823 130.79 161.6C131.811 160.498 132.158 158.851 133.575 158.073Z" fill="white" fill-opacity="0.8"/>
</svg>
