<svg width="1440" height="593" viewBox="0 0 1440 593" fill="none" xmlns="http://www.w3.org/2000/svg">
<path d="M1313.46 222.03V223.03H1314.46H1314.59C1376.99 223.03 1433.39 236.76 1474.17 258.904C1514.99 281.07 1539.94 311.524 1540 344.909C1540 378.293 1515.05 408.745 1474.24 430.911C1433.46 453.055 1377.06 466.785 1314.72 466.785C1289.87 466.785 1266.06 464.524 1243.68 460.498L1242.96 460.368L1242.62 461.016C1224.97 494.549 1187.71 523.71 1137.79 544.493C1087.89 565.267 1025.46 577.623 957.62 577.623C891.48 577.623 830.571 565.745 781.272 545.896L780.878 545.737L780.491 545.91C715.946 574.67 633.4 592 543.268 592C393.819 592 265.172 544.443 205.315 475.909L204.989 475.537L204.495 475.569C192.778 476.347 181.064 476.771 168.963 476.7C91.3647 476.17 21.5326 458.581 -28.6036 430.641C-78.7771 402.681 -109.004 364.5 -107.974 322.835L-107.974 322.835C-107.009 282.802 -77.4387 246.463 -29.546 219.546C18.3139 192.648 84.2728 175.291 157.508 173.17L158.319 173.146L158.463 172.348C164.837 137.071 195.445 105.458 241.523 82.6346C287.566 59.8291 348.871 45.9017 416.237 45.9017C456.952 45.9156 497.078 51.1466 533.351 61.1634L533.793 61.2854L534.174 61.0303C588.747 24.4805 672.14 1 765.769 1C828.135 1 885.956 11.3938 933.747 29.1426C981.553 46.8967 1019.25 71.9827 1041.47 101.314L1041.81 101.77L1042.38 101.703C1057.34 99.9374 1072.95 99.0189 1088.96 99.0189C1151.16 99.0189 1207.4 112.714 1248.05 134.796C1288.74 156.899 1313.59 187.264 1313.59 220.542C1313.59 220.714 1313.56 220.896 1313.53 221.156C1313.5 221.392 1313.46 221.705 1313.46 222.03Z" fill="url(#paint0_radial_429_4144)" stroke="white" stroke-width="2"/>
<defs>
<radialGradient id="paint0_radial_429_4144" cx="0" cy="0" r="1" gradientUnits="userSpaceOnUse" gradientTransform="translate(716 297) rotate(90) scale(269.5 749.874)">
<stop stop-color="#B6E7EA"/>
<stop offset="1" stop-color="#B6E7EA" stop-opacity="0.4"/>
</radialGradient>
</defs>
</svg>
