<svg width="590" height="476" viewBox="0 0 590 476" fill="none" xmlns="http://www.w3.org/2000/svg">
<g opacity="0.8">
<path d="M20.098 183.738C20.108 183.738 20.108 183.738 20.098 183.738C19.798 183.758 19.0579 183.808 17.8979 183.878C18.2279 184.118 18.908 184.108 20.098 183.738Z" fill="#899764"/>
<path d="M282.398 210.118C282.448 210.158 282.498 210.198 282.548 210.238C282.528 210.168 282.518 210.098 282.498 210.028L282.398 210.118Z" fill="#899764"/>
<path d="M208.598 107.018C208.588 107.018 208.578 107.018 208.578 107.018C208.578 107.038 208.588 107.048 208.588 107.068L208.598 107.018Z" fill="#899764"/>
<path d="M495.058 250.158C495.058 250.178 495.048 250.208 495.048 250.228C495.068 250.228 495.088 250.218 495.108 250.218L495.058 250.158Z" fill="#899764"/>
<path d="M216.068 104.758C216.038 104.768 216.008 104.768 215.978 104.778C215.988 104.798 215.998 104.818 215.998 104.838L216.068 104.758Z" fill="#899764"/>
<path d="M494.608 252.658C494.578 252.668 494.558 252.668 494.528 252.678C494.518 252.698 494.518 252.728 494.508 252.748L494.608 252.658Z" fill="#899764"/>
<path d="M19.048 207.108C19.048 207.118 19.048 207.128 19.038 207.148C19.078 207.178 19.1079 207.198 19.1379 207.228L19.048 207.108Z" fill="#899764"/>
<path d="M22.5681 212.388C22.6681 212.398 22.7481 212.418 22.8481 212.418L22.748 212.298C22.678 212.328 22.6281 212.358 22.5681 212.388Z" fill="#899764"/>
<path d="M85.3779 369.048C81.5179 366.868 77.1379 365.328 73.1179 363.398C68.8279 361.338 64.4079 359.868 59.6479 361.168C57.3079 361.808 56.7179 362.138 54.4879 360.998C53.1379 360.308 50.6279 359.428 51.0279 357.858C53.3679 358.618 55.338 359.098 57.828 359.258C53.898 355.088 49.478 354.238 43.818 354.008C45.248 357.788 46.0379 359.038 49.7579 361.148C53.1779 363.088 56.898 364.338 60.598 365.598C61.558 365.918 62.1279 366.478 62.5179 367.168C62.0379 370.178 61.858 370.748 61.958 371.248C62.428 373.618 64.068 374.558 65.938 375.178L66.3679 376.378C65.1179 376.898 63.9279 377.778 62.5379 379.248C58.4279 383.588 62.318 385.478 49.208 393.298C45.908 395.268 43.5879 396.968 41.9879 398.468C41.3879 398.678 40.818 399.138 40.328 399.998C40.098 400.408 39.8679 400.838 39.6479 401.278C39.4279 401.658 39.2679 402.018 39.1579 402.368C37.8979 405.278 36.9579 408.688 36.3879 411.488L36.4979 411.518C36.5679 414.238 39.8979 420.348 42.0179 422.728C44.6379 425.678 42.5079 431.048 41.9979 435.538C41.4879 440.028 34.208 459.988 34.208 459.988C36.368 461.788 39.5479 447.818 41.5179 447.278C43.4979 446.748 41.648 448.338 41.858 454.588C42.218 465.008 40.858 467.708 43.108 467.788C45.358 467.868 45.3379 458.988 45.2379 451.828C45.1479 445.728 47.0179 445.848 47.0179 445.848C47.0179 445.848 52.538 467.938 52.598 471.518C52.658 475.098 54.0979 476.448 55.1379 475.328C56.1679 474.198 53.618 461.518 52.448 458.988C51.858 457.718 51.518 454.488 51.228 451.328C50.948 448.198 50.718 445.138 50.358 444.098C49.638 442.028 54.9979 450.398 55.6479 452.048C56.2979 453.698 62.448 462.608 63.698 464.278C64.948 465.948 66.348 463.718 66.348 463.718L57.828 446.408L54.318 435.778C54.318 435.778 58.488 437.508 60.718 440.128C62.948 442.748 67.7179 443.738 70.0379 444.758C72.3579 445.768 71.598 441.748 71.598 441.748C71.598 441.748 71.598 441.748 66.968 439.908C62.338 438.068 54.8679 431.258 51.6479 426.738C48.4279 422.218 49.5579 421.578 49.1179 414.908C49.0879 414.458 49.0079 414.048 48.9079 413.668C50.8379 411.798 53.2979 409.758 54.8779 407.988C56.0279 406.688 56.3479 405.838 56.9879 404.988C57.6979 404.468 58.3679 403.968 58.9879 403.488C59.8979 403.168 61.858 402.138 61.858 402.138C64.548 401.438 62.948 402.018 64.548 401.438C67.0979 400.518 79.1479 394.348 81.1279 392.468C81.8279 391.798 82.0579 391.298 82.0079 390.898C84.8879 389.428 87.058 387.628 87.968 385.158C88.048 385.118 88.118 385.088 88.198 385.048C88.138 385.018 88.0879 384.998 88.0279 384.968C88.4779 383.648 88.5879 382.138 88.2479 380.378C88.1979 380.108 88.138 379.848 88.078 379.598C89.298 379.328 90.3279 378.558 90.9979 376.938C92.0679 377.628 93.258 378.388 94.438 379.148C96.148 376.248 87.4479 370.218 85.3779 369.048ZM79.4179 369.858C78.9279 369.768 78.578 369.608 78.308 369.408C78.948 369.308 79.3479 369.418 79.4179 369.858Z" fill="#899764"/>
<path d="M562.128 185.128C562.128 185.168 562.118 185.208 562.118 185.248C562.148 185.228 562.168 185.218 562.198 185.198L562.128 185.128Z" fill="#899764"/>
<path d="M513.858 242.558C520.258 233.618 527.578 225.588 535.698 218.138C541.968 212.388 547.778 206.048 553.168 199.458C556.678 195.158 561.718 191.578 562.118 185.248C559.538 187.028 556.648 188.488 554.438 190.648C538.558 206.158 522.748 221.748 507.128 237.518C505.698 238.958 500.808 239.748 503.938 243.308C507.088 246.898 510.948 246.608 513.858 242.558Z" fill="#899764"/>
<path d="M216.068 104.758L215.998 104.838C216.018 104.858 216.038 104.878 216.058 104.898C216.068 104.848 216.068 104.808 216.068 104.758Z" fill="#899764"/>
<path d="M215.848 107.188C215.868 107.218 215.898 107.248 215.918 107.288C215.928 107.278 215.938 107.268 215.948 107.258C218.468 108.898 221.828 109.888 221.138 114.008C233.058 121.118 239.838 132.938 247.708 144.578C247.958 142.598 248.068 141.738 248.178 140.878C248.998 141.458 250.378 141.898 250.558 142.638C253.048 152.528 263.468 159.768 260.118 171.728C259.588 173.628 262.068 174.838 264.398 174.028V174.018C266.148 170.588 263.388 168.238 262.408 165.428C261.738 163.508 261.018 161.388 261.198 159.428C261.928 151.418 263.188 162.858 264.288 158.438C263.818 157.588 262.798 156.128 262.148 154.508C260.368 150.108 256.088 147.448 253.948 143.738C249.668 136.298 246.378 128.458 239.288 122.938C236.888 121.068 236.388 114.518 233.168 116.318C228.238 119.078 227.508 115.138 225.448 113.518C222.118 110.898 219.168 107.798 216.058 104.908C216.028 105.688 215.998 106.458 215.968 107.238L215.848 107.188Z" fill="#899764"/>
<path d="M24.3381 338.358C22.2281 337.118 20.5781 337.188 18.5481 335.468C16.6381 333.848 15.1082 332.768 12.8582 334.718C14.3782 328.438 10.0281 329.118 5.66809 329.098C1.55809 329.078 1.04812 321.938 -3.17188 324.938C-6.80188 334.288 -0.311928 336.008 5.14807 338.528C3.80807 337.698 2.62814 336.728 1.96814 335.218C5.62814 333.708 12.9381 339.248 16.5681 341.248C14.4281 341.038 12.2881 340.828 10.1481 340.618C12.3481 341.178 14.0781 346.538 16.8381 341.398C16.8381 341.398 16.8481 341.398 16.8481 341.408C18.6481 344.618 20.0781 347.358 23.5881 348.898C25.4981 349.738 30.0481 351.678 31.8281 350.678C29.8981 349.518 27.9681 348.358 27.7681 348.238C29.4581 343.358 21.0081 342.068 24.3381 338.358Z" fill="#899764"/>
<path d="M5.13806 338.518C6.20806 339.178 7.37804 339.738 8.48804 340.398C7.50804 339.678 6.34806 339.078 5.13806 338.518Z" fill="#899764"/>
<path d="M267.088 177.118C268.258 185.388 272.458 192.378 276.978 201.998C276.498 197.168 276.258 194.788 275.918 191.398C277.748 194.118 278.928 195.878 280.118 197.638C279.668 195.808 279.378 193.908 278.728 192.148C276.488 186.088 274.158 180.068 271.748 174.078C271.478 173.398 270.488 172.998 269.828 172.468C269.948 172.868 270.078 173.268 270.198 173.668C268.268 173.778 266.328 173.898 264.398 174.008V174.018C265.338 175.048 266.928 175.978 267.088 177.118ZM272.818 183.388C273.588 185.468 274.358 187.548 275.128 189.628C274.778 189.768 274.438 189.918 274.088 190.058C273.298 188.028 272.508 185.998 271.708 183.968C272.088 183.778 272.458 183.588 272.818 183.388ZM270.208 173.708C270.518 175.968 270.818 178.218 271.128 180.478C270.698 180.448 269.878 180.408 269.878 180.388C269.948 178.158 270.088 175.938 270.208 173.708Z" fill="#899764"/>
<path d="M562.138 185.138C562.128 185.128 562.188 185.198 562.188 185.198C562.208 185.168 562.238 185.148 562.258 185.118C562.218 185.118 562.178 185.128 562.138 185.138Z" fill="#899764"/>
<path d="M578.728 170.368C579.328 169.788 579.258 168.498 579.488 167.538C578.588 167.998 577.478 168.268 576.828 168.968C571.918 174.308 567.098 179.728 562.258 185.128C571.158 184.048 573.428 175.488 578.728 170.368Z" fill="#899764"/>
<path d="M215.928 107.288C213.108 110.148 218.128 112.918 216.088 115.768C224.738 116.488 225.398 126.458 232.318 129.388C231.978 126.248 229.558 124.158 227.558 121.748C225.388 119.128 223.198 116.528 221.018 113.908L221.158 114.018C221.158 114.008 221.158 114.008 221.158 113.998C221.148 113.988 221.138 113.978 221.118 113.978C219.378 111.748 217.658 109.518 215.928 107.288Z" fill="#899764"/>
<path d="M20.0081 200.408C19.9481 200.398 19.8881 200.378 19.8381 200.368C19.8081 200.398 19.778 200.428 19.738 200.458C19.738 200.468 19.7381 200.478 19.7281 200.488C19.8181 200.458 19.9181 200.428 20.0081 200.408Z" fill="#899764"/>
<path d="M25.0681 198.958C25.7981 198.748 26.518 198.548 27.248 198.338C26.238 198.438 25.5381 198.658 25.0681 198.958Z" fill="#899764"/>
<path d="M22.8481 212.418C22.8381 212.378 22.8281 212.338 22.8181 212.298C22.7881 212.298 22.768 212.298 22.738 212.298L22.8481 212.418Z" fill="#899764"/>
<path d="M19.1179 207.088C19.0979 207.098 19.078 207.098 19.048 207.108L19.1479 207.228C19.1279 207.178 19.1279 207.138 19.1179 207.088Z" fill="#899764"/>
<path d="M19.118 207.088C19.918 206.878 20.7181 206.678 21.5181 206.468C21.9581 208.408 22.3881 210.348 22.8281 212.288C24.4081 212.288 25.9881 212.288 27.5681 212.288C24.7181 212.098 28.398 206.388 25.738 207.178C27.938 205.978 22.1381 200.828 25.0781 198.948C23.3881 199.428 21.7081 199.908 20.0181 200.388C21.0281 200.638 22.0581 200.898 23.4081 201.238C20.7281 202.308 18.178 203.598 19.118 207.088Z" fill="#899764"/>
<path d="M281.238 146.848C278.828 142.548 276.678 135.858 272.098 133.948C272.968 138.028 277.558 142.768 275.748 146.978C277.948 148.278 281.348 147.358 281.238 146.848Z" fill="#899764"/>
<path d="M246.618 148.768C250.808 149.898 250.248 158.218 254.728 157.458C254.318 154.978 253.798 152.258 252.228 150.208C250.398 147.808 249.138 147.618 246.618 148.768Z" fill="#899764"/>
<path d="M495.048 250.138C495.058 250.158 495.108 250.218 495.108 250.218C495.098 250.158 495.108 250.118 495.098 250.058C495.088 250.088 495.068 250.108 495.048 250.138Z" fill="#899764"/>
<path d="M501.828 251.568C501.628 248.568 500.988 247.008 499.508 244.388C497.968 246.218 494.908 246.908 495.098 250.048C496.568 247.608 500.018 250.728 501.828 251.568Z" fill="#899764"/>
<path d="M40.748 350.028C40.318 348.758 37.3981 348.318 35.5981 347.498C35.5981 348.478 35.5981 349.458 35.5981 350.078C36.0781 349.418 41.608 352.598 40.748 350.028Z" fill="#899764"/>
<path d="M35.5981 350.378C35.5981 350.288 35.5981 350.188 35.5981 350.078C35.5581 350.138 35.5381 350.228 35.5981 350.378Z" fill="#899764"/>
<path d="M272.618 129.048C269.638 126.208 266.668 123.368 263.648 120.578C263.588 120.528 262.998 121.048 262.658 121.298C265.638 124.198 268.628 127.088 271.608 129.988C271.948 129.668 272.288 129.358 272.618 129.048Z" fill="#899764"/>
<path d="M282.348 209.968C281.208 206.758 280.078 203.548 278.948 200.338C279.368 203.838 277.628 208.248 282.348 209.968Z" fill="#899764"/>
<path d="M282.398 210.128L282.508 210.038C282.448 210.018 282.398 209.988 282.348 209.968C282.358 210.018 282.378 210.078 282.398 210.128Z" fill="#899764"/>
<path d="M290.228 168.818C289.938 167.028 288.428 164.878 287.648 163.208C285.978 165.368 288.498 169.508 289.338 171.948C290.038 170.488 290.458 170.228 290.228 168.818Z" fill="#899764"/>
<path d="M44.7681 259.558C43.3981 258.318 42.0281 257.078 39.8281 255.088C40.4381 257.788 40.3381 259.528 41.1481 260.248C41.7081 260.748 43.5181 259.838 44.7681 259.558Z" fill="#899764"/>
<path d="M10.1479 340.608C9.99795 340.568 9.848 340.558 9.698 340.568C9.848 340.578 9.99795 340.598 10.1479 340.608Z" fill="#899764"/>
<path d="M148.218 179.318C148.238 179.298 148.268 179.288 148.298 179.278C148.288 179.268 148.278 179.258 148.278 179.248C148.258 179.268 148.218 179.318 148.218 179.318Z" fill="#899764"/>
<path d="M19.8081 189.278C22.1981 191.818 22.0982 191.378 24.6082 189.148C22.8682 187.478 22.0181 188.418 19.8081 189.278Z" fill="#899764"/>
<path d="M209.088 111.068C209.718 111.958 210.588 111.548 211.248 110.938C213.808 108.558 210.498 107.588 208.748 107.118C209.398 107.658 210.038 108.218 210.668 108.778C209.808 109.328 208.088 109.648 209.088 111.068Z" fill="#899764"/>
<path d="M208.618 107.008C208.598 107.028 208.588 107.078 208.588 107.078C208.638 107.088 208.698 107.108 208.748 107.118C208.698 107.078 208.658 107.038 208.618 107.008Z" fill="#899764"/>
<path d="M266.628 169.458C266.988 169.288 267.358 169.118 267.718 168.948C266.718 166.828 265.718 164.708 264.718 162.598C264.418 162.758 264.128 162.908 263.828 163.068C264.768 165.198 265.698 167.328 266.628 169.458Z" fill="#899764"/>
<path d="M147.678 397.238C146.218 396.668 143.938 395.028 142.968 396.498C144.348 397.138 145.738 397.778 147.118 398.418C147.308 398.028 147.498 397.638 147.678 397.238Z" fill="#899764"/>
<path d="M229.198 114.218C230.408 115.378 230.358 115.328 231.588 114.298C230.808 113.408 230.038 112.518 228.918 111.248C228.168 112.868 227.858 112.938 229.198 114.218Z" fill="#899764"/>
<path d="M494.608 252.658L494.508 252.748C494.628 252.808 494.738 252.878 494.858 252.938C494.768 252.848 494.688 252.748 494.608 252.658Z" fill="#899764"/>
<path d="M499.218 255.338C497.768 254.538 496.308 253.738 494.858 252.938C495.938 254.198 497.018 255.458 498.098 256.718C498.468 256.258 498.838 255.798 499.218 255.338Z" fill="#899764"/>
<path d="M589.218 157.768C588.988 157.558 588.748 157.348 588.518 157.138C587.218 158.548 585.928 159.948 584.628 161.358C584.888 161.618 585.138 161.888 585.398 162.148C586.678 160.678 587.948 159.218 589.218 157.768Z" fill="#899764"/>
<path d="M276.018 205.308C276.268 206.098 276.838 209.308 277.698 209.048C278.558 208.788 277.308 205.728 277.098 204.938C276.738 205.058 276.378 205.188 276.018 205.308Z" fill="#899764"/>
<path d="M307.578 222.708C308.328 223.138 309.038 223.538 309.318 223.698C310.028 223.768 310.338 220.128 307.578 222.708Z" fill="#899764"/>
<path d="M309.318 223.708C309.508 223.808 309.478 223.788 309.318 223.708V223.708Z" fill="#899764"/>
<path d="M-142.222 36.1182C-127.542 50.4282 -87.262 59.4381 -86.132 63.2281C-85.002 67.0081 -94.7919 65.8682 -100.442 66.9882C-106.092 68.1182 -119.262 68.8682 -119.262 68.8682C-115.512 74.9682 -86.572 70.9282 -80.112 71.1282C-69.882 71.4382 -65.392 82.2781 -67.312 91.4581C-69.012 99.5981 -79.7319 115.548 -69.572 118.938C-68.812 119.188 -67.9719 119.428 -67.062 119.648C-66.9719 120.628 -66.402 121.278 -64.442 121.728C-61.1819 122.478 -57.832 122.718 -54.512 122.998C-52.402 123.178 -48.9319 122.748 -47.1419 124.028C-44.3619 126.018 -46.7019 131.218 -42.9119 132.218C-43.1719 132.548 -43.442 132.878 -43.702 133.218C-44.982 131.498 -46.952 128.408 -48.132 127.348C-55.872 137.428 -64.2119 148.008 -66.8919 160.768C-67.5419 163.858 -67.7419 166.118 -69.1719 168.958C-69.9819 170.568 -70.632 171.828 -69.352 173.338C-68.472 174.368 -66.212 174.318 -66.742 176.228C-67.362 178.468 -71.3719 177.148 -72.962 177.148C-71.772 177.908 -67.6819 179.568 -68.572 181.688C-69.022 182.758 -72.4819 182.238 -73.6819 183.658C-77.1719 187.798 -76.4019 193.828 -75.3019 198.988C-78.8619 202.378 -77.152 204.728 -76.752 206.738C-76.572 207.688 -74.4219 208.258 -73.1719 208.998C-70.942 204.958 -78.762 204.598 -75.252 199.198C-75.012 200.298 -74.7619 201.368 -74.5319 202.358C-72.4519 200.828 -69.572 199.588 -70.112 195.968C-63.942 197.308 -71.2719 208.188 -72.6519 211.118L-72.6819 211.128C-72.6819 211.138 -72.6719 211.148 -72.6719 211.168C-72.6719 211.168 -72.6719 211.168 -72.6719 211.158C-71.882 212.448 -71.0919 213.738 -70.3019 215.018C-76.2219 216.018 -73.6819 219.948 -73.4019 223.378C-72.9619 228.738 -76.2619 234.878 -69.8919 238.838C-71.0019 248.968 -62.812 256.098 -61.2919 265.388C-61.2919 265.388 -61.2919 265.378 -61.2819 265.378C-61.0419 270.548 -58.9319 275.248 -56.202 279.568C-54.1719 282.788 -51.0319 289.338 -47.4319 290.548C-47.1819 286.338 -49.1019 283.168 -52.7919 281.158C-49.6519 279.218 -48.632 281.108 -47.212 283.568C-46.062 285.558 -44.242 287.268 -43.342 289.388C-42.352 291.728 -43.322 293.738 -42.952 296.048C-42.512 298.768 -40.062 301.288 -38.312 303.248C-34.0319 308.028 -29.5519 312.708 -25.082 317.308C-20.292 322.248 -14.722 327.798 -7.94196 329.668C-9.14197 325.968 -11.772 324.968 -14.832 322.678C-17.882 320.398 -20.382 317.568 -23.072 314.888C-19.282 311.648 -19.142 317.348 -16.722 317.488C-15.152 314.368 -12.542 312.088 -15.132 307.448C-17.402 303.388 -18.0519 308.678 -20.4019 307.178C-24.0019 304.878 -23.272 301.538 -24.942 299.008C-24.9319 299.008 -24.9219 299.018 -24.9119 299.018C-25.0719 295.028 -26.972 293.088 -31.102 293.788C-28.602 286.728 -35.662 285.678 -38.612 282.088C-39.182 281.398 -40.5419 282.398 -39.3019 283.278C-35.502 285.998 -33.152 289.708 -31.362 293.878C-37.132 292.178 -39.762 286.738 -42.4219 282.528C-47.6819 274.208 -51.3019 264.838 -55.4319 255.818C-56.692 253.058 -57.282 249.998 -58.352 247.138C-60.072 242.528 -59.732 240.238 -54.382 243.038C-55.502 241.508 -57.172 240.088 -57.512 238.408C-59.242 229.908 -60.582 221.338 -62.072 212.788C-62.062 212.788 -62.0519 212.788 -62.0419 212.788C-62.0519 212.788 -62.062 212.778 -62.072 212.778C-61.8719 212.378 -61.682 211.978 -61.482 211.578C-67.462 208.678 -60.392 205.648 -61.462 202.698L-61.362 202.818C-61.352 202.808 -61.342 202.798 -61.322 202.788C-61.342 202.778 -61.362 202.758 -61.382 202.748C-61.952 200.838 -62.522 198.938 -63.092 197.028C-55.472 200.528 -60.452 187.958 -55.622 185.898C-55.762 184.558 -56.0419 181.828 -56.322 179.088C-54.9219 179.868 -53.722 184.258 -52.632 181.518C-51.642 179.038 -54.382 177.888 -56.002 176.948V176.938C-52.762 175.768 -53.4919 173.358 -53.6619 170.658C-53.8719 167.458 -53.082 164.188 -52.732 160.948C-49.592 162.778 -52.882 165.268 -52.072 167.318C-51.7319 168.188 -51.1519 168.968 -49.4319 171.958C-52.082 163.598 -45.942 160.818 -44.742 155.988C-44.742 155.968 -44.732 155.948 -44.732 155.918C-42.212 156.898 -42.112 154.768 -41.382 153.298C-40.972 152.478 -40.222 151.818 -39.632 151.088C-39.362 152.068 -38.6519 153.188 -38.9019 154.008C-41.7219 163.098 -48.7419 170.318 -49.5519 180.528C-50.1819 188.528 -55.3319 196.688 -54.2819 204.188C-52.1619 219.258 -53.6819 234.468 -48.8919 249.648C-42.6819 269.338 -32.692 285.598 -18.0519 299.508C-12.7619 304.528 -7.38199 309.448 -1.97198 314.348C5.01801 320.668 12.5781 326.178 20.9681 330.568C29.8981 335.238 37.6081 341.558 47.8181 344.728C54.5381 346.818 60.588 353.738 68.038 356.748C83.508 363.008 97.938 371.248 111.768 380.478C114.018 381.978 119.308 380.648 118.368 386.028C116.568 386.338 114.568 388.138 113.078 385.608C110.678 381.498 107.008 379.848 102.488 378.938C100.688 378.578 99.6281 378.038 99.4481 380.098C99.3681 381.088 99.0181 382.018 100.948 383.308C104.258 385.518 109.488 383.278 109.478 384.348C109.418 394.648 120.128 394.498 124.438 400.388C125.448 401.768 128.288 401.908 130.348 402.328C130.828 402.428 132.098 401.338 132.078 400.828C131.598 386.988 137.978 387.368 147.438 393.118C151.268 395.448 150.998 399.658 152.878 402.858C152.948 402.978 152.028 404.008 151.818 403.938C146.808 402.108 140.838 404.948 136.208 400.628C135.458 399.928 135.078 396.368 133.468 398.648C132.548 399.948 134.228 403.078 134.738 405.388C138.598 404.128 139.958 408.618 142.988 409.028C157.368 410.978 170.948 417.478 186.118 415.328C198.018 413.648 210.248 414.158 221.768 410.248C222.528 410.638 223.598 410.338 225.688 408.738C225.688 408.738 230.128 407.508 229.738 399.408C229.018 384.798 208.718 368.648 195.858 361.008C182.308 352.968 165.738 339.928 157.458 338.418C150.278 337.108 138.568 334.108 134.848 337.268C133.158 337.508 131.448 337.408 129.698 336.288C128.928 335.798 128.128 335.378 127.308 334.978C130.578 331.168 130.828 324.978 130.828 318.188C130.828 307.738 132.518 306.608 134.778 303.228C137.038 299.838 140.138 290.238 142.688 284.588C142.688 284.588 142.708 283.718 142.028 282.648C142.238 282.478 142.458 282.318 142.688 282.178C143.798 283.998 151.138 286.278 155.448 287.198C160.578 288.308 161.988 293.998 164.638 298.078C167.288 302.158 173.288 322.988 173.288 322.988C177.048 323.368 170.648 309.808 172.538 308.308C174.418 306.798 173.438 309.138 178.188 314.328C186.098 322.988 186.468 325.998 189.108 324.868C191.748 323.738 185.348 316.208 180.068 310.188C175.578 305.058 177.808 304.168 177.808 304.168C177.808 304.168 200.018 319.978 202.658 322.988C205.298 325.998 207.928 326.378 208.308 324.868C208.688 323.358 196.638 313.948 193.488 312.428C191.908 311.668 189.188 309.108 186.588 306.568C184.008 304.058 181.548 301.578 180.388 300.898C178.068 299.518 190.238 303.778 192.168 304.828C194.098 305.878 207.558 310.178 210.198 310.928C212.838 311.678 212.838 309.048 212.838 309.048L190.628 298.888L178.958 291.738C178.958 291.738 184.978 290.988 189.418 292.018C193.848 293.058 200.038 291.358 203.428 290.978C206.818 290.598 203.048 287.588 203.048 287.588C203.048 287.588 203.048 287.588 196.408 288.488C189.768 289.388 176.318 287.588 169.378 285.468C162.438 283.348 163.278 282.198 157.968 276.778C157.468 276.268 156.948 275.878 156.408 275.588C155.298 274.408 153.388 273.678 151.948 273.018C138.878 267.008 127.588 272.068 121.588 285.118C118.848 291.068 115.808 299.208 111.848 303.628C111.758 303.718 111.678 303.808 111.598 303.888C110.338 305.228 108.988 306.198 107.518 306.598C97.108 309.408 87.028 300.088 77.0681 295.268C75.188 294.358 76.168 289.668 72.058 290.788C72.7581 292.668 73.4481 294.548 74.0881 296.268C64.7081 293.248 57.1281 284.458 59.8281 278.918C57.2681 280.738 54.698 282.218 52.668 279.118C51.588 277.468 51.308 275.288 50.668 273.348C51.998 273.348 53.338 273.348 54.758 273.348C53.748 268.568 43.158 275.388 46.378 265.628C44.888 267.028 43.9281 267.928 42.9581 268.838C43.1181 267.648 43.2881 266.458 43.4681 265.128C39.5681 267.258 39.018 264.788 37.618 261.628C35.728 257.358 41.288 247.218 29.388 250.058C29.448 247.838 24.848 248.468 26.418 245.328C26.418 245.328 26.418 245.328 26.418 245.338C28.048 245.008 32.058 230.788 30.3181 229.768C26.8481 227.718 22.708 225.348 21.538 226.298C20.758 226.738 21.6781 224.848 19.2081 222.468C21.0381 220.598 15.218 220.148 18.398 217.958C22.278 215.288 20.418 221.118 21.768 220.418C25.618 218.428 22.7681 229.088 27.7181 223.478C30.1681 220.698 25.648 223.558 25.378 221.168C24.968 217.398 23.318 212.938 17.418 214.908C19.148 214.068 20.8781 213.218 22.5981 212.378C19.3181 212.138 18.2581 210.308 19.0781 207.138C15.3181 204.508 17.648 202.488 19.778 200.448C21.318 195.648 15.948 190.548 20.148 185.828C18.428 185.558 16.4381 185.248 10.5981 184.348C13.8481 184.138 16.298 183.978 17.938 183.878C16.278 182.668 23.7881 174.928 19.3181 174.368C20.368 173.308 21.3781 171.388 22.4681 171.348C25.7881 171.228 23.148 174.498 24.488 175.738C25.978 177.118 27.3981 178.578 28.9481 179.888C28.998 179.928 30.678 178.408 30.5681 178.228C29.0181 175.598 27.2481 170.818 26.4781 170.448C18.7781 166.818 27.6381 162.178 25.3181 158.608C26.0081 158.408 26.698 158.148 27.398 158.048C27.528 158.028 27.868 158.578 27.898 158.888C28.218 162.198 29.638 165.648 25.428 169.258C30.6581 167.738 32.878 162.018 32.488 161.568C29.388 157.988 34.3781 156.378 33.8581 153.738C35.8681 154.138 37.928 154.348 39.868 154.958C45.448 156.728 50.968 158.708 56.538 160.498C63.848 162.838 74.248 162.938 78.168 166.718C87.478 175.688 94.688 161.928 102.198 167.288C102.428 166.898 102.908 166.458 102.848 166.118L119.078 162.248C119.628 162.468 120.298 162.758 121.118 163.138C121.338 163.528 121.938 163.698 122.528 163.848C125.468 165.568 124.278 167.168 128.318 172.788C132.648 178.808 132.648 180.408 134.158 182.858C135.668 185.308 135.568 182.668 136.038 180.038C136.508 177.408 134.908 177.398 134.348 173.548C134.018 171.308 133.818 170.158 134.698 171.678C135.128 173.698 136.088 175.398 137.308 176.948C137.718 177.808 138.168 178.768 138.678 179.858C143.758 190.678 139.718 182.588 145.268 189.928C150.818 197.268 149.028 197.268 151.198 198.308C153.358 199.348 151.948 196.898 151.138 193.558C150.328 190.218 147.898 187.388 146.018 183.058C144.898 180.488 143.918 178.118 143.458 176.558C143.868 176.158 143.928 175.548 143.818 174.848C144.068 174.998 144.408 175.258 144.808 175.608C146.448 177.658 147.858 179.328 148.298 179.288L148.178 179.058C148.248 179.128 148.308 179.208 148.378 179.288C148.368 179.298 148.358 179.298 148.348 179.308C148.708 179.748 149.728 181.238 150.788 182.268C152.178 184.108 153.498 186.108 154.488 188.048C157.778 194.538 157.408 193.888 162.768 199.528C168.128 205.168 167.848 205.078 169.448 204.988C171.048 204.898 166.998 198.678 165.118 194.918C163.238 191.158 155.898 181.648 153.168 177.228C150.438 172.808 148.278 170.918 149.498 169.788C149.808 169.508 150.828 169.928 152.248 170.748C152.738 171.068 153.238 171.368 153.738 171.658C158.098 174.438 164.588 179.318 167.668 180.698C172.278 182.768 192.798 193.218 195.968 194.808C199.138 196.398 197.788 194.728 197.598 193.968C197.498 193.548 192.528 190.168 187.728 186.918C187.368 186.598 186.998 186.328 186.648 186.188C183.208 183.868 180.038 181.738 179.058 180.978C177.698 179.928 174.808 178.848 171.838 177.708C168.178 175.998 164.628 174.138 161.268 172.048C155.818 167.898 147.658 160.708 144.708 156.038C140.848 149.918 141.788 150.018 142.168 148.418C142.548 146.818 145.458 147.858 153.458 147.668C161.458 147.478 156.938 147.478 165.408 145.688C173.878 143.898 164.938 143.808 163.618 143.808C162.428 143.808 136.338 142.278 126.968 141.978C124.868 141.538 122.388 141.418 119.458 141.538C111.358 141.858 102.848 138.898 94.688 142.078C87.1381 145.018 79.4481 148.678 73.7281 139.988C70.9481 135.758 65.8781 140.238 65.0881 137.428C62.3181 127.558 53.418 127.708 46.388 125.248C42.808 123.998 41.2281 121.218 41.5781 119.118C42.8881 111.228 49.258 106.708 55.148 101.738C53.878 101.928 52.9081 102.068 51.9481 102.208C52.3281 101.458 52.6181 100.118 53.0981 100.048C59.8981 99.0381 62.228 92.1482 67.678 89.1982C76.948 84.1682 85.678 78.3582 97.028 79.3682C100.888 79.7082 105.068 78.9781 107.298 74.7982C105.588 74.1782 103.878 73.5482 102.168 72.9282C105.178 72.6082 108.768 70.2382 110.398 74.8682C110.678 75.6682 108.798 77.7381 110.808 78.2081C114.598 79.0881 118.538 79.3482 122.418 79.8682C122.298 78.4082 122.078 76.9381 122.108 75.4781C122.118 74.6782 122.678 73.1882 122.768 73.1982C124.188 73.4682 125.608 73.8382 126.928 74.4282C127.188 74.5381 127.278 75.8681 126.968 76.2781C125.778 77.8281 125.888 79.1682 127.688 79.1982C135.828 79.3482 143.178 82.4881 150.758 84.7681C153.088 85.4681 154.838 84.6182 155.458 82.0782H155.468C159.278 82.8082 161.458 85.8682 164.538 87.8582C166.048 88.8382 168.228 90.0282 170.018 90.4382C171.808 90.8482 171.428 90.8382 172.748 89.5082C170.278 87.7382 167.278 86.1781 165.638 83.5881C170.318 83.8381 174.038 89.4781 177.558 92.3582C181.348 95.4582 184.718 95.6282 189.048 97.2482C195.988 99.8382 200.378 108.248 208.628 107.038C207.278 99.6382 210.908 104.598 213.018 105.218C213.898 105.478 215.008 104.978 216.028 104.788C215.128 101.728 212.018 101.558 208.598 99.4781C211.388 99.6881 212.868 99.7982 214.008 99.8882C213.868 98.6882 213.728 97.4781 213.588 96.2781C214.498 97.2181 215.308 98.2782 216.328 99.0782C224.858 105.778 235.858 109.058 242.818 117.908C246.648 122.778 250.188 127.878 253.858 132.878C254.178 132.638 254.508 132.398 254.828 132.148C253.818 130.388 252.808 128.628 253.098 129.138C253.128 129.678 259.198 129.718 256.288 135.468C253.788 140.418 261.238 134.898 259.828 137.238C256.678 142.448 261.828 143.568 263.248 146.388C265.568 150.998 267.328 156.858 271.168 159.428C274.208 161.458 275.298 163.058 276.948 166.558C274.848 165.358 273.878 164.798 272.898 164.238C273.228 165.848 273.248 167.618 273.958 169.038C275.538 172.198 277.878 175.018 279.178 178.268C282.798 187.358 285.808 196.688 289.498 205.738C292.348 212.738 299.988 218.158 296.348 227.188C291.728 222.098 289.258 215.778 286.348 209.688C286.508 211.028 286.658 212.368 286.818 213.708C285.408 212.558 284.008 211.408 282.598 210.258C282.948 211.798 283.298 213.378 283.878 215.938C282.338 214.238 281.568 213.398 280.798 212.548C299.168 251.688 325.208 282.158 369.618 292.478C407.828 301.358 443.278 297.388 474.648 272.248C474.568 271.658 474.558 271.538 474.528 271.418C473.408 265.068 476.298 269.608 478.348 269.648C483.068 269.738 472.578 263.838 479.968 264.588C481.518 264.748 482.768 267.868 484.158 269.618C477.758 254.018 487.918 258.318 495.508 259.868C490.568 253.668 490.538 253.618 494.558 252.688C494.728 251.868 494.908 251.058 495.078 250.238C488.738 251.298 483.048 257.328 477.478 260.708C471.488 264.338 465.238 267.538 458.778 270.258C412.888 289.628 358.328 279.528 324.648 242.338C326.448 244.708 328.308 247.058 327.528 251.328C325.968 247.778 321.398 246.528 323.978 242.268C317.668 243.678 322.698 236.248 318.878 235.728C311.268 234.688 311.488 226.828 307.478 222.648L307.498 222.678C307.528 222.708 307.568 222.758 307.568 222.758C307.578 222.748 307.588 222.738 307.608 222.728C307.578 222.718 307.558 222.698 307.528 222.688C303.778 215.638 299.518 208.798 296.438 201.468C293.798 195.168 292.538 188.298 290.648 181.678C290.108 179.788 287.158 180.468 287.008 177.418C286.798 173.218 285.488 168.938 283.928 164.968C281.528 158.858 278.508 152.988 275.758 147.018C275.758 147.008 275.768 146.998 275.768 146.988C275.758 146.988 275.748 146.978 275.748 146.978C275.748 146.978 275.748 146.978 275.748 146.988C271.748 135.248 258.478 127.698 260.478 113.198C260.568 112.528 259.468 111.648 258.838 110.938C247.328 97.7982 233.778 87.0582 219.998 76.3782C201.418 61.9782 180.478 52.9282 158.288 46.5381C143.388 42.2481 128.118 39.9181 112.458 38.9581C95.6781 37.9381 79.9181 40.7882 64.0681 45.3682C54.498 48.1382 45.6581 52.5582 36.4481 56.0782C24.3781 60.6882 14.318 68.4882 5.89801 77.2482C-3.40198 86.9182 -21.322 93.5081 -34.582 89.9882C-34.822 89.6282 -35.002 89.5182 -35.072 89.8481C-35.192 89.8081 -35.322 89.7782 -35.452 89.7382C-37.782 88.8882 -39.6719 86.3181 -42.1619 86.0981C-45.9819 78.9882 -45.322 69.3081 -44.862 62.5881C-43.142 59.8581 -43.882 57.0981 -44.8019 54.6481C-45.0919 45.6681 -43.022 20.9282 -45.822 19.1782C-48.832 17.2982 -47.332 25.9582 -48.832 35.7382C-49.852 42.3682 -50.902 52.2482 -54.492 54.6882C-55.992 54.6882 -57.6719 54.4281 -59.572 53.8381C-60.212 53.3381 -60.902 52.7182 -61.632 51.9282C-70.672 42.1382 -91.752 31.2181 -91.752 31.2181C-113.592 9.00815 -122.242 -0.0318604 -123.372 0.348145C-124.502 0.728149 -97.392 33.8582 -95.512 36.1082C-93.632 38.3682 -78.592 49.3481 -80.832 51.9182C-83.072 54.4882 -84.972 52.6682 -91.752 51.1682C-97.462 49.8982 -104.732 48.0481 -110.042 47.2781C-110.212 47.2081 -110.372 47.1382 -110.542 47.0682C-111.192 46.7982 -112.042 46.9881 -112.792 46.9581C-118.092 46.5881 -148.922 29.5882 -142.222 36.1182ZM-29.812 297.388C-28.212 297.928 -26.6219 298.468 -25.0219 299.008C-25.1819 299.658 -25.342 300.308 -25.512 300.958C-27.172 300.098 -30.2919 299.408 -29.812 297.388ZM-60.352 258.878C-58.002 258.218 -57.9819 261.488 -58.0219 263.328C-58.1019 266.508 -52.752 267.738 -55.1719 271.628C-57.2119 269.548 -59.2419 267.458 -61.2819 265.368C-60.7819 264.588 -59.9019 263.818 -59.8919 263.038C-59.8719 261.578 -63.292 259.698 -60.352 258.878ZM-69.832 238.878C-69.822 238.888 -69.812 238.888 -69.8019 238.898C-70.142 237.318 -69.9619 233.928 -67.5219 235.588C-65.8819 236.708 -66.342 242.408 -66.222 244.078C-67.372 242.278 -68.512 240.558 -69.832 238.878ZM-62.5419 169.018C-63.4919 172.098 -64.822 172.348 -67.7919 171.868C-65.0819 167.688 -63.542 165.298 -61.992 162.908C-61.262 165.068 -61.8419 166.758 -62.5419 169.018ZM-56.062 176.788C-56.2819 175.468 -56.502 174.158 -56.722 172.838C-54.962 173.238 -55.7819 175.158 -56.062 176.788ZM135.698 386.138C134.928 384.768 133.248 383.238 133.998 381.568C134.578 380.268 137.168 378.898 138.318 380.048C140.428 382.188 138.148 385.898 135.698 386.138ZM165.758 395.218C166.308 396.008 169.128 399.008 168.938 399.958C168.818 400.578 167.778 401.078 167.348 401.478C162.438 401.288 163.928 398.138 165.758 395.218ZM158.718 387.858C157.248 386.548 155.088 383.708 156.628 381.998C159.728 384.508 162.578 386.828 165.438 389.148C163.268 390.798 160.708 389.628 158.718 387.858ZM137.618 371.418C136.668 361.538 147.038 368.468 151.008 370.398C150.038 371.688 149.958 372.388 148.218 372.648C146.358 372.928 146.378 372.018 145.288 371.308C144.658 370.898 145.118 370.158 144.108 370.098C142.908 370.028 142.388 371.618 142.258 372.518C141.888 375.158 143.238 374.808 145.168 375.048C149.098 375.538 151.738 376.858 155.188 378.688C153.298 379.278 151.408 379.868 149.518 380.468C144.018 380.638 138.198 377.438 137.618 371.418ZM141.848 384.608C141.538 378.538 146.968 385.318 148.818 382.948C152.768 382.328 154.758 384.078 155.328 387.588C155.748 390.168 154.248 391.438 151.918 391.338C147.208 391.138 142.058 388.768 141.848 384.608ZM152.628 395.868C152.698 393.928 154.678 392.348 156.788 392.218C159.738 392.038 160.158 394.498 159.988 396.918C161.568 402.628 152.428 401.628 152.628 395.868ZM170.098 410.398C168.078 407.788 162.608 412.248 162.448 406.908C162.418 405.878 166.488 404.728 167.158 404.398C172.768 403.748 170.538 407.608 172.148 408.738C171.458 409.288 170.778 409.838 170.098 410.398ZM175.338 393.948C172.678 396.158 175.298 398.678 174.048 401.828C173.018 398.478 170.878 396.188 172.598 393.508C173.478 392.148 175.968 393.428 175.338 393.948ZM185.528 370.818C189.718 372.548 194.148 373.738 197.958 376.278C199.848 377.928 201.808 379.548 203.758 381.118C205.018 382.308 206.268 383.518 207.558 384.668C207.368 384.928 207.178 385.188 206.988 385.458C199.888 380.498 192.808 375.508 185.528 370.818ZM199.388 398.178C199.158 396.968 197.838 392.908 198.778 392.308C199.478 391.868 200.598 397.038 200.818 397.858C200.348 397.968 199.868 398.068 199.388 398.178ZM207.078 394.538C206.048 393.908 205.568 392.378 204.838 391.258C206.088 391.458 207.348 391.598 208.588 391.878C212.848 392.848 215.908 399.018 220.718 397.628C221.788 401.568 218.718 403.378 218.288 405.078C216.128 399.958 211.608 397.308 207.078 394.538ZM424.598 290.388C424.648 290.708 424.698 291.018 424.748 291.338C423.038 291.568 421.328 291.808 419.628 292.038C419.588 291.758 419.538 291.478 419.498 291.208C421.188 290.928 422.888 290.658 424.598 290.388ZM415.968 291.068C415.988 291.458 416.018 291.848 416.038 292.238C410.298 292.238 404.558 292.238 399.398 292.238C404.528 291.878 410.248 291.468 415.968 291.068ZM352.918 279.018C351.758 279.978 350.598 280.928 350.348 281.148C350.418 281.148 346.688 274.788 352.918 279.018ZM342.578 275.678C339.708 273.888 336.828 272.098 333.958 270.308C337.008 271.678 340.048 273.058 343.068 274.478C343.088 274.488 342.748 275.268 342.578 275.678ZM333.228 269.858C328.758 267.358 324.108 265.028 321.098 257.028C325.968 263.018 332.208 263.628 333.228 269.858ZM291.788 227.768C290.778 225.538 287.588 221.058 288.938 218.878C290.528 221.818 293.268 224.598 291.788 227.768ZM306.738 249.578C305.238 247.138 304.778 246.898 306.148 244.378C307.518 246.858 308.618 247.428 306.738 249.578ZM316.528 259.648C314.958 257.908 313.398 256.178 311.828 254.438C312.168 254.138 312.498 253.838 312.838 253.548C314.338 255.348 315.828 257.148 317.328 258.948C317.058 259.188 316.788 259.418 316.528 259.648ZM319.708 257.068C319.368 257.248 319.028 257.418 318.678 257.598C318.078 256.518 317.488 255.438 316.888 254.348C318.828 253.768 318.928 255.388 319.708 257.068ZM314.098 251.248C313.868 251.508 312.688 251.458 312.598 251.258C311.748 249.328 309.938 247.638 309.128 246.608C311.178 247.298 317.908 246.938 314.098 251.248ZM305.248 234.308C306.288 235.768 307.398 237.328 308.228 238.928C309.418 241.218 308.638 240.978 306.978 243.048C304.378 240.398 302.448 237.228 300.338 234.178C301.218 237.768 301.658 239.558 302.098 241.338C298.478 238.708 296.888 234.618 294.728 230.738C295.938 231.598 297.138 232.458 299.148 233.898C298.028 231.228 297.228 229.298 296.418 227.388C300.248 228.458 302.998 231.138 305.248 234.308ZM296.158 207.138C296.958 208.408 297.758 209.688 298.568 210.958C298.268 211.168 297.958 211.378 297.658 211.588C296.858 210.328 296.058 209.068 295.248 207.798C295.548 207.578 295.848 207.358 296.158 207.138ZM285.998 181.078C286.578 182.388 287.158 183.688 287.738 184.998C287.398 185.148 287.048 185.298 286.708 185.458C286.138 184.148 285.568 182.838 284.998 181.528C285.338 181.378 285.668 181.228 285.998 181.078ZM280.568 169.248C281.678 171.618 282.778 173.978 283.888 176.348C283.608 176.488 283.318 176.628 283.038 176.768C281.838 174.458 280.628 172.158 279.428 169.848C279.808 169.648 280.188 169.448 280.568 169.248ZM-32.382 138.738C-32.282 140.618 -31.062 143.178 -34.832 142.708C-34.022 141.388 -33.202 140.058 -32.382 138.738ZM-34.9019 142.798C-33.6319 145.048 -35.282 146.638 -37.442 145.518C-36.592 144.608 -35.7419 143.698 -34.9019 142.798ZM-39.092 122.368C-38.082 123.348 -35.732 124.878 -35.222 126.188C-34.702 127.528 -35.0719 127.418 -36.0319 128.968C-37.1419 127.318 -40.312 124.208 -39.092 122.368ZM-50.712 145.368C-52.342 141.948 -52.4219 142.128 -50.0519 138.908C-48.6519 141.568 -49.662 142.668 -50.712 145.368ZM-47.382 152.668C-48.882 150.718 -47.982 149.758 -47.202 147.478C-46.342 149.958 -45.932 150.248 -47.382 152.668ZM-44.6619 155.498C-44.3619 154.088 -44.062 152.688 -43.752 151.278C-43.442 151.368 -43.132 151.468 -42.812 151.558C-43.4319 152.868 -44.0519 154.178 -44.6619 155.498ZM-42.4219 125.228C-40.452 127.488 -39.052 128.198 -39.622 131.108C-40.932 129.388 -43.5919 127.268 -42.4219 125.228ZM-39.5319 144.588C-40.3819 142.638 -39.522 141.858 -38.562 139.998C-37.942 142.358 -38.062 142.478 -39.5319 144.588ZM-37.4019 208.468C-40.8219 207.778 -38.3319 200.118 -37.1719 198.588C-36.5419 199.718 -33.4619 209.258 -37.4019 208.468ZM-35.852 239.848C-36.122 240.388 -36.262 240.668 -36.312 240.768C-36.252 240.638 -36.062 240.258 -35.852 239.848ZM-36.312 240.758C-36.342 240.818 -36.342 240.818 -36.312 240.758V240.758ZM-35.232 246.448C-37.942 246.138 -36.232 241.038 -35.852 239.838C-35.822 239.778 -35.7921 239.718 -35.762 239.658C-35.272 240.518 -31.192 246.908 -35.232 246.448ZM-32.192 179.058C-33.2319 177.328 -34.3719 176.238 -34.1519 175.638C-33.5719 174.038 -32.412 172.648 -31.492 171.178C-30.902 171.648 -29.7319 172.278 -29.812 172.558C-30.342 174.448 -31.132 176.278 -32.192 179.058ZM-26.492 273.408C-27.612 274.328 -28.362 272.538 -28.262 271.128C-28.022 267.458 -26.9719 264.488 -21.6819 264.298C-21.3719 264.578 -19.882 265.848 -19.9219 265.898C-21.9919 268.518 -23.952 271.328 -26.492 273.408ZM-14.692 176.958C-14.132 176.138 -13.232 175.788 -12.492 175.178C-11.622 174.458 -10.892 173.098 -9.992 172.528C-6.552 170.318 -8.12198 175.228 -8.34198 176.878C-8.70197 179.628 -7.992 181.138 -9.50201 183.718C-10.812 185.958 -12.492 187.848 -10.572 190.378C-14.822 192.708 -14.0119 198.858 -17.0319 202.288C-14.7919 203.358 -19.232 208.708 -14.982 207.718C-15.652 214.328 -15.952 220.868 -17.962 227.208C-24.862 224.968 -19.722 207.238 -18.762 202.168C-17.892 197.548 -16.6219 193.008 -15.942 188.348C-15.4619 185.028 -16.632 179.778 -14.692 176.958ZM-12.1819 285.978C-14.4319 281.788 -19.4419 282.848 -22.6419 280.468C-20.2019 277.928 -18.132 274.768 -15.202 273.088C-13.342 272.028 -14.1519 275.078 -13.442 276.618C-17.582 280.178 -11.572 282.568 -12.1819 285.978ZM9.78802 285.078C2.33801 276.598 -5.18201 267.968 -11.122 258.428C-15.522 251.358 -18.942 243.278 -19.712 234.628C-19.822 233.398 -18.812 231.928 -17.962 230.868C-17.752 230.608 -15.9019 231.238 -15.1819 231.878C-12.882 233.898 -16.392 233.658 -16.232 233.818C-12.872 237.348 -16.392 244.278 -10.002 246.438C-9.45203 246.618 -9.71191 250.578 -9.64191 250.578C-4.3519 250.448 -7.00195 251.158 -9.18195 252.828C-11.9319 254.928 -7.77194 254.168 -7.79193 255.318C-2.88193 254.608 -6.83191 266.218 0.0980835 263.688C-1.16193 264.598 -2.272 266.078 -1.00201 268.098C2.59799 265.698 3.45798 266.428 2.73798 270.948C2.47797 272.568 5.12808 275.938 6.84808 276.228C8.7381 276.558 11.0781 274.258 13.4581 272.988C10.1881 278.208 9.04797 282.608 17.238 284.008C18.078 284.148 18.3281 287.778 18.8281 289.888C14.4181 291.038 11.818 287.398 9.78802 285.078ZM-1.47198 259.968C-0.231995 260.448 -1.65198 262.268 -1.96198 262.908C-2.38199 262.348 -3.892 259.048 -1.47198 259.968ZM2.62799 201.108C3.008 201.568 3.388 202.028 3.76801 202.488C2.01801 203.588 5.508 207.438 1.24799 207.248C-0.132019 207.188 -1.36197 207.128 -0.57196 203.838C-0.111969 203.438 1.258 202.278 2.62799 201.108ZM0.518005 186.218C3.92801 183.718 4.03799 182.728 7.74799 185.188C6.95798 186.178 5.81799 188.738 4.388 188.768C3.198 188.788 1.42801 186.808 0.518005 186.218ZM1.18805 220.228C0.708038 219.278 -2.40195 213.548 1.81805 214.768C4.90805 215.658 1.98804 219.018 1.18805 220.228ZM125.238 392.188C125.228 392.298 124.208 392.348 123.658 392.418C123.328 389.148 116.258 391.398 118.408 386.098C120.908 385.518 123.588 385.278 125.208 387.478C125.968 388.508 125.348 390.588 125.238 392.188ZM116.488 338.968C116.278 339.108 115.988 339.238 115.588 339.328C115.288 339.398 114.918 339.228 114.498 338.928C115.078 338.978 115.738 338.998 116.488 338.968ZM124.908 365.038C123.358 367.718 120.188 363.888 119.788 362.228C121.378 362.088 126.598 362.118 124.908 365.038ZM129.808 345.538C129.108 345.738 128.398 345.928 127.078 346.298C126.208 345.758 125.098 345.068 123.988 344.378C126.698 343.258 127.218 343.948 129.808 345.538ZM99.678 324.828C104.308 324.568 104.748 331.538 100.598 330.008C96.6681 331.048 95.338 325.078 99.678 324.828ZM85.548 318.928C85.348 319.218 85.1381 319.508 84.938 319.808C83.8281 319.358 82.718 318.918 81.618 318.468C83.278 317.118 83.808 317.898 85.548 318.928ZM70.498 303.418C69.598 304.228 68.198 306.448 66.868 306.568C65.438 306.688 62.988 304.138 61.878 303.388C64.288 301.458 67.578 302.918 70.498 303.418ZM43.8481 285.658C46.3281 288.488 51.738 284.498 53.048 289.608C53.148 289.978 51.4181 290.818 50.4581 291.508C47.5881 289.688 45.108 288.118 42.628 286.548C43.048 286.238 43.8181 285.618 43.8481 285.658ZM40.7281 304.268C54.3581 312.998 67.6481 321.968 80.7181 331.528C93.9081 341.168 110.138 348.368 119.648 362.178C114.428 362.968 112.558 357.718 109.148 354.948C103.058 349.988 95.9881 345.858 89.5681 341.298C76.368 331.928 62.178 324.098 49.048 314.668C45.928 312.428 42.848 310.108 39.788 307.778C37.428 305.978 33.188 303.738 31.808 300.978C30.618 298.588 31.698 297.498 33.768 298.908C36.188 300.528 38.1481 302.618 40.7281 304.268ZM34.3481 253.448C34.8981 255.718 33.698 256.878 31.528 255.708C32.158 255.208 32.7781 254.708 34.3481 253.448ZM32.0981 250.208C32.7981 252.398 31.8981 252.638 30.2181 254.048C28.6881 252.148 30.3881 251.648 32.0981 250.208ZM34.898 274.478C33.858 275.058 32.0981 276.868 30.8181 276.658C29.868 276.498 27.0681 273.228 27.178 272.408C27.708 268.328 33.798 273.748 34.898 274.478ZM30.178 298.128C30.298 298.238 29.668 299.128 29.388 299.648C25.108 297.278 20.3581 295.428 18.9781 289.968C25.9681 288.118 26.8181 294.898 30.178 298.128ZM22.628 230.168C22.668 230.698 22.718 231.228 22.758 231.758C21.168 231.828 17.598 232.788 17.248 231.048C19.038 230.748 20.838 230.458 22.628 230.168ZM12.258 241.678C15.608 243.198 16.858 234.698 21.298 240.458C20.948 238.558 23.668 232.648 25.878 235.558C26.508 236.388 24.998 238.088 24.788 238.648C23.938 240.968 25.3481 242.938 26.3281 245.238C21.7381 243.758 17.2081 241.798 12.2081 243.288C12.2281 242.758 12.248 242.218 12.258 241.678ZM12.408 253.088C10.048 252.518 8.26797 252.098 6.48798 251.668C8.51797 247.108 10.928 250.528 12.408 253.088ZM7.48798 170.368C8.71799 169.268 9.94806 168.168 11.188 167.068C11.488 168.008 11.778 168.938 12.268 170.488C9.828 171.748 9.54797 172.248 7.48798 170.368ZM15.058 157.618C14.6581 156.248 17.148 154.108 18.058 152.478C19.3181 150.228 20.5381 148.438 23.4481 148.888C20.5081 151.668 17.798 154.628 15.058 157.618ZM23.4581 148.858C21.9181 146.698 22.178 144.688 23.928 142.798C23.778 144.818 23.6181 146.838 23.4581 148.858ZM23.9481 142.748C21.718 141.958 21.728 142.608 21.908 140.268C22.108 137.648 23.338 134.828 24.028 132.308C29.058 134.148 25.2681 139.638 23.9481 142.748ZM24.9781 156.058C22.1081 154.738 23.8481 151.998 23.4481 149.338C26.1781 151.308 25.268 156.018 29.918 155.788C28.248 155.928 26.3081 156.668 24.9781 156.058ZM33.248 127.638C33.038 127.508 32.838 127.368 32.628 127.238C33.718 124.288 34.9981 121.328 35.9681 118.358C36.5881 116.438 36.488 114.368 39.028 114.068C37.228 118.658 35.278 123.148 33.248 127.638ZM73.0981 84.5881C72.3981 84.1181 71.788 83.7082 71.178 83.2982C73.338 82.5182 74.088 81.9281 76.058 83.0881C75.1581 83.5381 74.2581 83.9981 73.0981 84.5881ZM73.988 74.6382C76.098 74.1682 76.878 73.7782 78.888 74.7582C76.458 75.6482 76.178 75.6682 73.988 74.6382ZM89.628 74.5281C91.618 73.6781 92.488 73.9382 94.618 74.3182C92.248 75.4582 91.988 76.0981 89.628 74.5281ZM87.8581 71.5482C89.9581 69.2982 91.338 69.4382 93.288 71.2982C91.398 71.3882 90.0581 71.4482 87.8581 71.5482ZM96.018 72.8481C98.068 71.4882 100.168 70.2081 101.808 72.8481C99.8781 72.8481 97.948 72.8481 96.018 72.8481ZM129.988 73.1382C133.488 73.0682 135.738 72.6281 137.788 76.0482C134.948 74.9882 133.068 74.2882 129.988 73.1382ZM146.428 78.2382C144.358 77.0981 142.288 75.9682 140.218 74.8282C142.328 75.1882 144.438 75.5482 146.538 75.9081C146.498 76.6781 146.468 77.4582 146.428 78.2382ZM146.678 78.4982C149.568 79.6782 152.448 80.8581 155.348 82.0281C151.658 82.7481 148.798 81.4982 146.678 78.4982ZM146.708 75.9081C148.868 74.8381 154.868 76.0582 155.518 78.8782C156.188 81.7682 148.208 76.8081 146.708 75.9081ZM189.238 95.1182C186.978 93.4382 184.718 91.7582 182.458 90.0782C184.438 88.8682 188.468 92.4382 190.308 93.5482C189.948 94.0782 189.598 94.5982 189.238 95.1182ZM196.488 99.2982C194.828 97.8181 193.168 96.3482 191.508 94.8682C192.668 93.6582 196.218 97.4081 197.388 98.3381C197.098 98.6581 196.788 98.9781 196.488 99.2982ZM210.568 97.2181C207.258 96.3381 203.888 95.3582 202.548 91.6182C206.858 88.5382 209.048 93.1982 212.198 94.3481C211.648 95.3481 210.838 97.2881 210.568 97.2181ZM242.268 113.628C240.308 111.818 238.348 110.008 236.388 108.188C237.768 107.048 241.878 111.488 243.128 112.518C242.838 112.888 242.558 113.258 242.268 113.628ZM247.518 101.598C252.308 105.708 254.788 112.398 257.798 117.918C257.418 118.138 257.048 118.348 256.668 118.568C254.688 115.748 252.668 112.958 250.698 110.118C248.578 107.038 247.328 105.378 247.518 101.598ZM244.978 104.868C242.118 102.828 239.518 100.978 236.928 99.1282C239.908 100.478 244.798 99.4781 244.978 104.868ZM237.958 97.7181C228.168 91.3981 220.248 86.2881 208.648 78.7982C221.248 84.7782 231.028 87.0481 237.958 97.7181ZM194.318 68.7982C198.748 68.2281 201.818 70.5482 204.528 73.6082C203.828 73.4982 203.138 73.3881 202.438 73.2681C203.878 74.6481 205.558 77.3582 207.598 76.5782C206.678 75.6282 205.758 74.6782 204.848 73.7382C206.918 73.7682 209.068 73.7481 209.948 76.0881C210.028 76.2881 207.328 78.2481 206.608 77.9081C204.548 76.9482 200.898 77.2881 201.458 73.2982C198.948 72.0681 196.438 70.8481 193.938 69.5881C193.928 69.5881 194.148 68.8181 194.318 68.7982ZM185.368 62.6082C186.968 63.6482 191.648 65.4281 190.488 67.7681C187.748 65.7881 186.228 64.6881 184.718 63.5981C184.928 63.2682 185.148 62.9381 185.368 62.6082ZM190.278 68.1082C190.208 68.2082 190.148 68.2981 190.058 68.3981C187.718 70.9181 185.158 67.2382 183.358 66.0682C185.128 66.5982 186.918 67.1182 190.278 68.1082ZM163.368 57.3981C169.788 58.6681 175.308 60.0182 181.298 62.6682C174.888 62.0681 169.228 60.7382 163.038 58.9982C163.148 58.4682 163.258 57.9381 163.368 57.3981ZM179.548 65.6982C179.418 66.0182 179.278 66.3381 179.148 66.6581C176.908 65.7381 174.668 64.8181 172.428 63.8981C172.558 63.5881 172.688 63.2681 172.818 62.9581C175.058 63.8681 177.308 64.7782 179.548 65.6982ZM169.368 63.2681C168.628 64.8881 165.858 63.5382 164.328 63.1982C164.428 62.9082 164.518 62.6082 164.618 62.3182C166.198 62.6382 167.778 62.9581 169.368 63.2681ZM160.978 53.1382C161.318 53.1882 161.888 54.7481 161.678 54.9681C160.958 55.7281 159.808 56.8482 159.058 56.6882C151.168 55.0282 143.318 53.1482 135.468 51.3282C135.568 50.8282 135.658 50.3282 135.758 49.8282C144.168 50.9082 152.578 51.9582 160.978 53.1382ZM149.588 56.6282C149.508 57.1382 149.428 57.6482 149.348 58.1682C147.098 57.7781 144.848 57.3782 142.588 56.9882C142.658 56.5582 142.728 56.1282 142.808 55.6982C145.068 56.0082 147.328 56.3182 149.588 56.6282ZM141.118 48.2081C139.108 48.2081 137.098 48.2081 135.098 48.2081C135.078 47.8981 135.058 47.5781 135.038 47.2681C136.688 47.2681 140.728 46.4281 141.118 48.2081ZM128.868 47.1182C135.268 47.9982 125.318 50.4482 123.818 50.7881C126.388 51.1581 127.848 51.3682 129.308 51.5682C129.088 52.2882 128.858 53.0081 128.638 53.7181C122.908 51.3181 117.188 48.9082 111.458 46.5082C117.218 46.6482 123.188 46.3382 128.868 47.1182ZM119.348 51.5582C119.338 51.7682 119.328 51.9782 119.318 52.1882C117.058 52.1882 114.798 52.1882 112.538 52.1882C112.548 51.9782 112.558 51.7682 112.568 51.5582C114.828 51.5582 117.088 51.5582 119.348 51.5582ZM110.938 46.4081C108.428 46.9881 105.928 47.5682 103.418 48.1382C105.808 46.8582 107.988 43.5181 110.938 46.4081ZM83.6981 47.5682C85.5781 47.1882 87.4681 47.0081 89.3481 47.4781C92.0081 48.1382 91.108 48.2781 92.898 46.5181C94.648 44.7981 100.548 42.9182 100.158 47.1782C99.768 51.4082 95.408 49.5181 92.788 49.6481C86.508 50.6481 78.998 53.1581 72.878 51.3481C75.638 48.8282 79.9181 48.3382 83.6981 47.5682ZM65.778 51.7781C68.218 50.2981 68.578 50.4582 71.298 51.5682C70.178 53.7482 69.0681 55.9182 67.9481 58.0981C67.058 57.1781 66.168 56.2581 65.288 55.3381C66.288 54.5181 67.288 53.6982 68.398 52.7881C67.408 52.4081 66.588 52.0981 65.778 51.7781ZM62.558 52.7881C62.998 55.7881 60.938 56.5581 58.668 58.5181C55.298 57.0081 52.8381 58.6182 49.9481 60.1782C48.4581 60.9781 41.3581 63.4282 40.5981 62.2582C38.5881 59.1682 60.358 53.2581 62.558 52.7881ZM37.868 60.4382C38.278 61.0282 39.118 62.0582 39.028 62.1382C36.088 64.9782 33.078 67.7382 30.028 70.4781C29.888 70.6082 29.4181 70.3582 29.1081 70.2881C29.3881 69.1881 29.6681 68.0982 29.9481 66.9982C32.5881 64.8082 35.228 62.6282 37.868 60.4382ZM29.028 65.1782C29.298 65.7881 29.5581 66.3982 29.8281 67.0082C27.7581 68.9882 28.2081 72.9482 24.5881 73.7181C24.5781 73.7181 24.5781 73.7181 24.5681 73.7181C23.928 69.7981 26.838 67.6782 29.028 65.1782ZM21.6981 71.8782C23.7081 70.3082 23.868 72.6281 24.548 73.7181C22.638 73.6682 22.278 77.4781 19.908 75.6481C19.648 75.4481 20.6681 72.6882 21.6981 71.8782ZM28.8281 105.088C35.2881 97.9281 42.708 91.6481 49.498 84.7681C56.638 77.5381 65.4781 73.2581 74.5681 69.1481C94.4781 60.1581 115.378 63.2682 135.638 65.4982C148.838 66.9582 161.948 71.6682 174.778 76.4282C181.258 78.8282 186.748 83.9381 194.038 84.1481C192.978 90.9581 201.788 86.7081 202.448 91.5981C195.268 93.8681 190.368 87.1982 184.468 87.7382C183.408 85.1982 190.268 84.9582 185.198 83.5582C182.058 82.6882 179.368 80.8082 176.198 80.2582C174.538 79.9682 172.848 79.5381 171.318 78.8481C157.818 72.7581 143.308 71.3881 128.848 70.1481C126.808 69.9781 124.528 72.7682 121.928 70.8182C122.898 70.0982 123.868 69.3682 125.528 68.1282C116.838 67.0182 109.128 64.2682 100.388 68.5482C96.008 70.6882 89.158 67.4381 84.388 69.2081C74.838 72.7481 65.2281 77.0881 57.058 83.0381C52.3481 86.4681 47.658 91.0582 43.628 96.1682C38.988 102.058 32.5981 107.878 26.5981 113.278C23.3381 116.208 23.3181 120.258 22.0681 123.208C18.2081 132.298 12.078 139.668 6.99799 147.798C4.758 151.378 5.90802 142.908 4.03802 146.758C3.16803 148.558 -0.451965 152.188 5.15802 153.588C5.66803 153.718 6.18805 154.938 6.18805 155.648C6.18805 156.168 5.09799 157.198 4.86798 157.108C-5.85202 152.608 -1.302 164.388 -5.492 166.898C-7.022 167.818 -7.91199 169.798 -9.09198 171.298C-9.30197 169.708 -9.91193 168.048 -9.66193 166.538C-7.78192 155.458 -2.24191 146.848 6.60809 139.628C11.9381 135.278 15.218 128.948 17.498 121.808C19.468 115.628 24.3281 110.078 28.8281 105.088ZM16.438 73.6581C17.458 76.0981 17.508 76.0782 15.508 77.9382C14.568 76.0782 15.428 75.4081 16.438 73.6581ZM-30.212 131.688C-30.082 125.138 -22.2919 121.798 -22.1719 115.108C-22.1119 115.948 -22.052 116.868 -21.972 118.008C-20.642 115.118 -19.582 112.818 -18.512 110.508C-18.242 111.788 -17.972 113.068 -17.632 114.688C-12.022 107.198 -6.06192 99.8181 -0.151917 92.5381C3.47809 88.0681 9.77808 86.2282 11.5881 80.1982C11.7581 79.6482 13.908 79.5781 15.148 79.5281C15.488 79.5181 16.258 80.6082 16.148 80.8182C15.408 82.1382 14.7181 83.6382 13.5781 84.5682C1.85806 94.0982 -7.29199 105.488 -15.112 118.558C-19.402 125.718 -25.732 131.918 -29.872 139.498C-29.922 139.588 -31.462 138.868 -32.342 138.508C-36.162 134.028 -36.1319 134.058 -31.6619 133.118C-31.0919 132.988 -30.222 132.188 -30.212 131.688ZM-32.6719 94.0981C-32.6219 94.2881 -32.632 94.3182 -32.6719 94.2482C-32.6719 94.1582 -32.6719 94.0981 -32.6719 94.0981C-32.762 93.7281 -32.882 93.5482 -33.012 93.4781C-32.912 93.7181 -32.832 93.9182 -32.762 94.0682C-33.012 93.9782 -33.242 93.8781 -33.482 93.7881C-33.442 93.5681 -33.222 93.3582 -33.012 93.4781C-33.062 93.3481 -33.1219 93.2182 -33.1819 93.0782C-32.6219 93.6182 -32.3919 94.0081 -32.6719 94.0981ZM-39.9319 87.8682C-40.632 87.4781 -41.3019 87.0382 -41.952 86.5582C-41.972 86.5282 -41.982 86.4881 -42.002 86.4581C-41.542 86.7581 -40.8019 87.2582 -39.9319 87.8682Z" fill="#899764"/>
</g>
</svg>
