<svg width="320" height="70" viewBox="0 0 320 70" fill="none" xmlns="http://www.w3.org/2000/svg">
<g clip-path="url(#clip0_871_290)">
<rect x="123.562" y="-45.6141" width="926.109" height="742.236" fill="#FFDF9E"/>
<rect x="-245.982" y="-45.6141" width="369.545" height="742.236" fill="#FBBA00"/>
<g clip-path="url(#clip1_871_290)">
<path d="M171.52 -721.341C176.469 -719.419 180.534 -715.957 184.517 -712.382C190.553 -706.953 194.372 -700.318 193.51 -691.337C193.489 -691.091 193.777 -690.823 193.982 -690.466C196.466 -691.829 198.971 -693.191 201.456 -694.599C202.503 -695.202 203.55 -695.448 204.72 -695.381C216.628 -694.755 226.135 -688.344 234.922 -680.413C238.823 -676.883 238.679 -676.726 243.977 -678.111C244.921 -678.357 245.968 -678.491 246.933 -678.379C249.561 -678.089 250.526 -679.407 251.245 -682.11C253.688 -691.538 262.127 -698.24 271.119 -698.307C272.187 -699.536 273.275 -699.581 274.877 -699.156C279.373 -697.972 283.274 -695.247 287.627 -693.728C291.199 -692.298 294.074 -689.773 296.825 -687.025C300.192 -682.758 305.736 -680.077 305.551 -673.152C307.091 -669.801 307.727 -666.114 308.158 -662.518C310.232 -645.248 312.778 -628.001 313.168 -610.553C313.291 -604.61 313.989 -599.896 320.909 -599.315C323.249 -599.137 325.467 -596.97 327.705 -595.629C333.228 -592.323 337.56 -587.341 342.508 -583.208C347.518 -579.03 348.585 -573.534 348.38 -567.279C348.38 -566.698 348.01 -566.072 348.092 -565.536C350.125 -552.869 349.406 -540.001 350.679 -527.266C351.254 -521.48 351.028 -515.537 351.501 -509.818C352.301 -499.944 352.507 -490.114 352.691 -480.239C352.794 -474.944 352.609 -469.717 352.301 -464.444C351.788 -455.754 351.747 -447.108 352.979 -438.395C353.698 -433.279 352.897 -427.917 352.712 -422.667C350.987 -373.674 354.601 -324.814 355.34 -275.866C355.422 -270.504 354.745 -264.941 355.504 -259.847C356.962 -250.084 356.716 -240.299 356.572 -230.626C356.408 -218.271 357.455 -206.073 358.173 -193.83C359.385 -173.187 360.843 -152.544 360.843 -131.835C360.843 -123.859 359.754 -115.637 361.212 -107.974C362.957 -98.7477 362.526 -89.6104 362.814 -80.4507C363.265 -65.9515 362.814 -51.43 363.039 -36.9085C363.347 -14.9922 364.004 6.94653 364.312 28.8628C364.559 45.9982 364.312 63.1559 364.62 80.3137C365.257 118.784 366.078 157.255 366.838 195.726C367.002 204.305 367.064 212.862 367.248 221.44C367.372 227.763 366.612 234.108 366.982 240.475C367.803 254.326 368.994 268.2 369.035 282.073C369.014 300.728 370.02 319.315 370 337.948C369.959 370.074 369.774 402.177 369.343 434.303C369.261 440.291 368.521 446.39 368.788 452.221C369.178 460.688 369.096 469.133 368.624 477.533C368.213 484.503 368.542 491.809 364.887 498.198C363.512 500.611 363.327 503.359 363.286 506.218C363.122 517.009 362.896 527.8 362.341 538.568C362.054 544.175 361.582 549.738 357.516 554.363C355.545 556.597 353.615 559.903 353.78 563.411C354.252 573.152 350.762 582.11 349.283 591.449C348.298 597.637 345.711 603.379 341.03 607.422C338.402 609.701 337.621 612.248 337.683 615.8C337.786 620.559 336.8 625.34 337.005 630.053C337.313 637.538 335.876 644.932 336.451 652.439C336.759 656.527 335.671 660.794 333.885 664.213C332.776 666.335 329.121 664.95 326.616 665.374C325.631 665.553 324.645 665.553 323.639 665.642C314.051 666.335 309.637 660.906 311.012 650.518C311.341 648.015 311.423 645.067 310.129 642.899C309.123 641.224 306.927 642.475 305.305 642.497C297.646 642.631 292.308 637.113 286.272 633.338C285.738 633.002 285.286 632.176 285.163 631.506C283.664 623.24 281.775 614.996 280.892 606.64C279.989 597.927 280.379 589.08 280.892 580.323C281.098 577.106 280.318 574.269 279.537 571.342C279.188 570.046 278.49 568.773 277.361 568.884C275.883 569.018 275.76 570.694 275.636 572.057C274.897 580.792 274.281 589.55 273.419 598.263C271.879 613.722 270.257 629.205 266.91 644.329C265.904 648.931 266.13 652.238 270.195 654.561C273.255 656.326 273.07 659.968 272.208 662.269C271.078 665.285 268.697 669.53 266.356 669.954C257.22 671.607 248.329 671.049 240.507 663.766C233.69 657.421 228.106 650.741 226.915 640.688C226.607 638.119 227.428 635.147 225.683 633.07C223.486 630.433 221.31 633.762 218.969 633.673C209.155 633.248 199.423 632.824 192.073 622.569C191.231 632.734 190.327 641.827 189.814 650.92C189.67 653.668 187.535 656.773 190.102 659.275C193.12 662.202 192.914 665.687 192.155 669.418C190.512 677.572 189.424 678.153 181.889 679.628C178.83 680.231 175.483 679.047 172.67 681.125C172.835 682.487 172.321 683.604 171.582 684.654C171.5 686.955 169.508 688.653 169.919 691.111C170.145 693.077 169.693 694.909 168.995 696.674C168.153 701.164 165.936 706.035 166.819 710.078C168.051 715.663 164.396 716.624 162.138 718.97C160.536 720.645 158.298 718.702 156.553 719.082C149.593 720.645 142.653 720.221 136.124 717.741C131.648 716.043 126.597 715.06 123.435 710.101C119.514 703.934 118.877 697.366 120.048 690.284C121.198 683.359 122.265 676.388 123.62 669.507C124.072 667.229 123.62 666.737 121.588 666.223C114.792 664.503 108.078 662.291 101.282 660.504C94.9376 658.828 94.6091 655.254 96.9087 650.339C98.9208 646.027 99.6599 641.715 100.214 637.18C101.241 628.825 103.089 620.559 103.787 612.226C104.485 603.915 105.347 595.738 107.667 587.829C108.981 583.361 108.447 580.077 105.08 576.838C97.5656 569.599 95.2866 559.68 94.1163 549.336C94.0137 548.711 93.8905 548.085 93.7878 547.46C93.6441 547.08 93.603 546.678 93.6236 546.276C93.5209 543.058 96.1901 539.261 98.9618 539.216C100.071 539.216 101.426 540.958 102.247 538.97C102.801 537.607 101.467 536.848 100.871 535.842C100.502 535.217 100.029 534.48 100.05 533.787C100.153 530.436 98.5717 530.369 96.2721 531.218C93.5209 532.223 91.7758 531.575 92.289 527.867C92.8845 521.991 91.4062 516.138 92.289 510.262C92.4122 505.191 92.1453 500.075 92.7818 495.07C93.1719 492.099 92.3506 488.525 94.4448 486.179C96.9086 483.409 97.1755 479.99 96.2311 477.175C94.1369 470.92 95.2251 465.581 97.3193 459.526C100.214 451.193 97.6478 442.078 98.6128 433.276C99.5572 424.608 99.3108 415.805 99.6804 407.048C100.296 392.482 100.974 377.893 101.651 363.327C102.165 352.313 102.699 341.276 103.232 330.262C103.335 323.337 103.52 316.411 103.561 309.486C103.602 300.102 103.499 290.719 103.479 281.314C104.279 277.605 99.9884 275.572 100.851 271.841C99.0439 270.076 98.777 267.82 99.1055 265.385C99.0644 262.927 99.0439 260.47 99.0028 258.012C99.0028 253.142 99.0028 248.272 98.9823 243.379C98.8591 242.955 98.777 242.553 98.7565 242.128C98.0789 237.883 98.6127 233.661 98.9823 229.416C98.9412 228.969 98.9002 228.523 98.8591 228.098C98.7565 227.741 98.736 227.361 98.7565 226.959C97.9147 217.218 98.469 207.455 98.2843 197.692C97.8531 189.002 98.4896 180.356 99.1055 171.732C98.9002 170.079 98.2227 168.292 98.5717 166.773C100.522 158.149 97.6683 149.682 98.1816 141.125C98.1816 135.294 98.1816 129.486 98.1816 123.655C96.6622 114.853 96.9497 114.406 104.567 113.4C105.963 113.222 107.482 113.4 107.77 111.233C108.263 107.435 108.92 103.66 109.269 99.8395C109.33 99.1023 109.371 98.2086 109.289 97.382C109.145 96.7788 108.981 96.198 108.755 95.5948C108.612 95.3714 108.427 95.1703 108.201 95.0586C102.74 92.266 103.212 86.7701 102.514 81.7434C100.358 76.2029 102.165 71.0199 107.133 69.1209C108.406 68.6294 109.269 67.8698 110.11 66.8868C110.11 65.0549 110.11 63.2006 110.11 61.3687C108.016 54.443 109.987 47.294 109.145 40.3013C104.875 41.5524 103.15 40.1226 103.048 35.1629C103.048 34.3363 103.109 33.5097 102.308 33.2639C101.918 33.1522 101.282 33.5544 100.892 33.9118C99.7214 34.9395 98.8181 36.9948 97.0318 35.9895C95.0608 34.8501 95.4509 32.6161 95.7794 30.6054C95.6151 16.4413 95.0608 2.27731 95.4919 -11.8644C95.6767 -17.8517 95.3482 -23.8391 95.5946 -29.8488C96.0258 -39.8798 95.7794 -49.9555 95.8205 -60.0312C95.4509 -63.1365 95.3482 -66.2642 95.8205 -69.3696C95.4304 -72.2292 95.9847 -74.2846 99.2287 -74.0165C100.584 -73.9048 101.754 -74.3069 102.575 -75.491C104.444 -78.1049 106.723 -78.2836 109.289 -76.9432C109.536 -77.256 109.802 -77.5687 110.049 -77.8815C109.7 -80.0262 111.671 -82.1039 110.254 -84.2933C109.125 -85.7902 107.934 -87.1305 106.497 -88.3816C103.622 -90.8391 99.8241 -93.3413 102.965 -98.5244C103.273 -99.0382 103.273 -100.2 102.965 -100.691C100.255 -104.869 103.664 -110.075 100.974 -114.23C100.81 -114.476 101.035 -115.191 101.282 -115.526C102.699 -117.358 102.288 -118.877 101.323 -120.932C99.7625 -124.283 101.836 -129.02 104.834 -128.595C109.618 -127.925 108.447 -130.963 108.447 -133.666C108.447 -134.873 108.571 -136.102 108.653 -137.33C108.776 -143.787 108.201 -150.221 107.585 -156.633C105.06 -158.063 101.426 -159.917 102.062 -162.777C102.986 -166.999 103.048 -171.422 104.382 -175.421C104.998 -177.276 106.189 -178.638 105.306 -180.805C104.875 -181.9 105.039 -183.174 105.614 -184.358C108.776 -190.903 107.914 -195.841 102.781 -200.644C102.083 -201.292 101.713 -202.052 101.754 -203.035C101.692 -204.062 101.487 -205.157 102.555 -205.805C103.171 -210.452 103.212 -215.121 103.273 -219.813C103.314 -222.248 103.048 -224.951 104.156 -227.319C104.587 -233.999 104.67 -240.746 105.511 -247.359C106.456 -254.776 103.684 -261.657 103.52 -268.828C103.273 -279.887 102.103 -290.879 102.267 -302.027C102.514 -317.486 99.6188 -332.991 103.376 -348.361C103.479 -348.763 103.376 -349.322 103.191 -349.702C101.426 -353.232 101.98 -357.253 101.159 -360.984C99.8035 -367.016 101.939 -373.204 100.05 -379.281C96.6622 -390.116 101.569 -396.193 108.386 -399.656C110.151 -400.549 110.377 -401.644 110.665 -403.454C111.404 -407.922 109.967 -412.681 111.096 -416.769C113.334 -424.901 112.759 -433.167 113.642 -441.344C113.478 -442.059 113.252 -443.421 113.149 -443.421C107.565 -442.863 109.31 -447.666 108.632 -450.66C108.817 -454.413 108.057 -458.055 107.585 -461.719C106.764 -463.439 106.887 -465.338 106.846 -467.17C106.743 -471.772 107.092 -476.396 106.661 -480.954C106.004 -487.768 105.244 -494.582 104.998 -501.44C103.951 -507.316 103.068 -513.192 103.376 -519.201C101.734 -521.748 102.822 -524.697 102.37 -527.4C100.194 -534.661 102.452 -542.48 100.091 -549.764C99.9267 -550.3 100.543 -551.126 100.789 -551.819C100.83 -552.713 100.871 -553.606 100.912 -554.5C100.748 -563.682 100.789 -572.931 96.539 -581.331C95.2045 -584.973 95.6767 -588.771 95.7588 -592.524C95.4303 -594.4 97.9352 -595.361 96.6006 -597.953C94.5474 -601.974 96.3337 -605.057 100.645 -606.375C101.631 -606.666 103.191 -607.447 101.898 -608.118C98.0583 -610.151 98.8796 -615.937 94.8965 -617.546C94.8965 -619.713 94.8965 -621.88 94.8965 -624.047C94.0136 -625.342 93.8699 -626.616 94.0957 -628.314C94.7322 -633.095 97.3398 -637.071 98.3458 -641.674C99.5366 -645.181 102.247 -646.767 105.142 -648.152C108.283 -649.672 111.424 -651.168 114.566 -652.688C115.017 -654.274 116.639 -654.117 117.543 -655.011C119.062 -656.53 121.834 -657.893 121.095 -660.261C118.877 -667.276 123.641 -669.331 127.439 -672.415C129.554 -674.135 133.434 -674.805 131.874 -679.497C131.545 -680.502 132.921 -680.725 133.537 -681.306C135.467 -683.116 137.808 -682.401 140.025 -682.513C139.881 -686.31 139.758 -690.131 139.614 -693.929C139.224 -703.357 142.119 -711.355 148.381 -717.9C150.455 -720.581 153.124 -722.033 156.307 -722.346C158.052 -724.379 160.228 -723.307 162.24 -723.329C165.669 -724.536 168.831 -724.245 171.562 -721.385L171.52 -721.341ZM104.136 -209.178C104.259 -209.312 104.362 -209.402 104.485 -209.536C104.341 -209.603 104.238 -209.714 104.136 -209.848L104.136 -209.201L104.136 -209.178ZM104.382 -535.912C104.382 -535.912 104.362 -535.912 104.341 -535.935C104.341 -535.912 104.341 -535.89 104.321 -535.868C104.341 -535.868 104.362 -535.89 104.382 -535.912ZM286.723 -690.51C286.518 -690.868 286.231 -691.158 285.861 -691.382C286.149 -691.114 286.436 -690.823 286.723 -690.51Z" fill="#FFDF9E"/>
</g>
</g>
<defs>
<clipPath id="clip0_871_290">
<rect width="320" height="720" fill="white"/>
</clipPath>
<clipPath id="clip1_871_290">
<rect width="1352" height="277.833" fill="white" transform="matrix(-4.0349e-08 -1 -1 4.7354e-08 369.925 720)"/>
</clipPath>
</defs>
</svg>
