<svg width="320" height="357" viewBox="0 0 320 357" fill="none" xmlns="http://www.w3.org/2000/svg">
<g clip-path="url(#clip0_697_2651)">
<path d="M844.349 268.948C842.383 263.465 838.841 258.96 835.185 254.546C829.632 247.857 822.844 243.625 813.658 244.58C813.406 244.603 813.132 244.284 812.767 244.057C814.161 241.304 815.555 238.528 816.994 235.775C817.611 234.615 817.863 233.454 817.794 232.157C817.154 218.961 810.596 208.427 802.483 198.688C798.872 194.365 798.712 194.525 800.129 188.655C800.38 187.608 800.518 186.448 800.403 185.378C800.106 182.466 801.455 181.397 804.22 180.6C813.863 177.893 820.719 168.541 820.788 158.576C822.045 157.393 822.09 156.187 821.656 154.412C820.445 149.429 817.657 145.106 816.103 140.283C814.641 136.324 812.058 133.139 809.247 130.09C804.882 126.358 802.14 120.215 795.056 120.42C791.628 118.714 787.857 118.008 784.178 117.53C766.513 115.232 748.871 112.411 731.023 111.979C724.945 111.842 720.123 111.069 719.528 103.401C719.346 100.807 717.129 98.3501 715.758 95.8701C712.376 89.7497 707.28 84.9489 703.052 79.4656C698.779 73.914 693.157 72.7309 686.758 72.9584C686.164 72.9584 685.524 73.3679 684.976 73.2769C672.018 71.0244 658.855 71.8208 645.829 70.4101C639.911 69.773 633.832 70.0233 627.982 69.5C617.881 68.6127 607.826 68.3851 597.725 68.1804C592.309 68.0666 586.961 68.2714 581.568 68.6127C572.679 69.1815 563.835 69.227 554.922 67.8618C549.689 67.0655 544.205 67.9528 538.834 68.1576C488.719 70.0688 438.74 66.0644 388.671 65.2453C383.186 65.1543 377.496 65.9051 372.286 65.0633C362.299 63.4478 352.29 63.7209 342.395 63.8801C329.757 64.0622 317.28 62.9018 304.757 62.1055C283.641 60.7631 262.525 59.1476 241.341 59.1476C233.183 59.1476 224.773 60.3535 216.935 58.7381C207.496 56.8041 198.15 57.2819 188.78 56.9634C173.949 56.4628 159.095 56.9634 144.241 56.7131C121.823 56.3718 99.3815 55.6438 76.9632 55.3025C59.4354 55.0294 41.8847 55.3025 24.334 54.9612C-15.0179 54.2559 -54.3699 53.3458 -93.7218 52.5039C-102.497 52.3219 -111.25 52.2536 -120.025 52.0489C-126.492 51.9124 -132.982 52.7542 -139.495 52.3446C-153.664 51.4346 -167.855 50.1149 -182.047 50.0694C-201.128 50.0922 -220.142 48.9773 -239.201 49C-272.062 49.0455 -304.901 49.2503 -337.763 49.7281C-343.888 49.8191 -350.126 50.6382 -356.091 50.3424C-364.752 49.9101 -373.39 50.0011 -381.983 50.5245C-389.113 50.9795 -396.585 50.6155 -403.121 54.6654C-405.589 56.1898 -408.4 56.3946 -411.325 56.4401C-422.363 56.6221 -433.401 56.8724 -444.416 57.4867C-450.152 57.8052 -455.842 58.3285 -460.572 62.8335C-462.858 65.0178 -466.24 67.1565 -469.828 66.9745C-479.791 66.4512 -488.955 70.3191 -498.507 71.9573C-504.837 73.0494 -510.711 75.9162 -514.847 81.1038C-517.178 84.0161 -519.783 84.8807 -523.417 84.8124C-528.284 84.6986 -533.175 85.7908 -537.996 85.5632C-545.652 85.2219 -553.216 86.8146 -560.895 86.1776C-565.077 85.8363 -569.441 87.0421 -572.938 89.0216C-575.109 90.2502 -573.692 94.3002 -574.126 97.076C-574.309 98.1681 -574.309 99.2602 -574.4 100.375C-575.109 111 -569.556 115.892 -558.929 114.368C-556.37 114.004 -553.353 113.913 -551.137 115.346C-549.423 116.461 -550.702 118.896 -550.725 120.693C-550.862 129.18 -545.218 135.095 -541.356 141.785C-541.013 142.376 -540.167 142.877 -539.482 143.013C-531.026 144.674 -522.594 146.767 -514.047 147.746C-505.135 148.747 -496.085 148.315 -487.127 147.746C-483.836 147.518 -480.934 148.383 -477.94 149.247C-476.615 149.634 -475.312 150.408 -475.426 151.659C-475.563 153.297 -477.277 153.434 -478.671 153.57C-487.607 154.389 -496.565 155.072 -505.477 156.028C-521.291 157.734 -537.128 159.531 -552.599 163.24C-557.307 164.355 -560.689 164.105 -563.066 159.6C-564.871 156.21 -568.596 156.414 -570.95 157.37C-574.035 158.621 -578.377 161.261 -578.811 163.854C-580.502 173.979 -579.931 183.831 -572.481 192.5C-565.991 200.054 -559.158 206.242 -548.874 207.562C-546.246 207.903 -543.207 206.993 -541.081 208.927C-538.385 211.362 -541.79 213.773 -541.698 216.367C-541.264 227.243 -540.83 238.027 -530.341 246.173C-540.739 247.106 -550.04 248.107 -559.341 248.676C-562.151 248.835 -565.328 251.201 -567.887 248.357C-570.881 245.012 -574.446 245.24 -578.262 246.082C-586.604 247.902 -587.198 249.108 -588.706 257.458C-589.323 260.848 -588.112 264.557 -590.237 267.674C-591.631 267.492 -592.774 268.061 -593.848 268.88C-596.202 268.971 -597.938 271.178 -600.452 270.723C-602.463 270.472 -604.337 270.973 -606.142 271.747C-610.736 272.679 -615.718 275.137 -619.854 274.158C-625.567 272.793 -626.55 276.843 -628.949 279.346C-630.663 281.121 -628.675 283.601 -629.063 285.535C-630.663 293.248 -630.229 300.938 -627.692 308.173C-625.955 313.133 -624.95 318.73 -619.877 322.234C-613.569 326.58 -606.851 327.285 -599.607 325.988C-592.522 324.714 -585.392 323.531 -578.354 322.03C-576.023 321.529 -575.52 322.03 -574.995 324.282C-573.235 331.813 -570.972 339.253 -569.144 346.784C-567.43 353.815 -563.774 354.179 -558.746 351.63C-554.336 349.401 -549.925 348.582 -545.286 347.967C-536.74 346.83 -528.284 344.782 -519.76 344.008C-511.259 343.235 -502.895 342.279 -494.805 339.708C-490.235 338.252 -486.875 338.844 -483.562 342.575C-476.158 350.902 -466.011 353.428 -455.43 354.725C-454.791 354.839 -454.151 354.975 -453.511 355.089C-453.122 355.248 -452.711 355.294 -452.3 355.271C-449.009 355.385 -445.124 352.427 -445.078 349.355C-445.078 348.127 -446.861 346.625 -444.827 345.715C-443.433 345.101 -442.656 346.579 -441.628 347.239C-440.988 347.649 -440.234 348.172 -439.525 348.149C-436.097 348.036 -436.029 349.788 -436.897 352.336C-437.925 355.385 -437.263 357.319 -433.469 356.75C-427.459 356.09 -421.472 357.728 -415.462 356.75C-410.274 356.613 -405.041 356.909 -399.922 356.204C-396.882 355.771 -393.226 356.682 -390.827 354.361C-387.993 351.63 -384.496 351.335 -381.617 352.381C-375.218 354.702 -369.757 353.496 -363.564 351.175C-355.04 347.967 -345.716 350.811 -336.712 349.742C-327.845 348.695 -318.841 348.968 -309.883 348.559C-294.983 347.876 -280.061 347.125 -265.161 346.375C-253.895 345.806 -242.606 345.214 -231.339 344.623C-224.255 344.509 -217.171 344.304 -210.086 344.259C-200.488 344.213 -190.89 344.327 -181.27 344.35C-177.476 343.462 -175.396 348.218 -171.58 347.262C-169.775 349.264 -167.467 349.56 -164.976 349.196C-162.462 349.241 -159.948 349.264 -157.434 349.31C-152.453 349.31 -147.471 349.31 -142.466 349.332C-142.032 349.469 -141.621 349.56 -141.186 349.583C-136.844 350.334 -132.525 349.742 -128.183 349.332C-127.726 349.378 -127.269 349.423 -126.835 349.469C-126.469 349.583 -126.081 349.605 -125.67 349.583C-115.706 350.516 -105.719 349.901 -95.7328 350.106C-86.8432 350.584 -77.9993 349.879 -69.1782 349.196C-67.4872 349.423 -65.6589 350.174 -64.105 349.788C-55.2839 347.626 -46.6229 350.789 -37.8704 350.22C-31.9059 350.22 -25.9642 350.22 -19.9998 350.22C-10.9958 351.904 -10.5388 351.585 -9.5105 343.144C-9.32764 341.597 -9.5105 339.913 -7.29376 339.594C-3.40887 339.048 0.453186 338.32 4.36096 337.933C5.11511 337.865 6.02924 337.82 6.87476 337.911C7.49176 338.07 8.08594 338.252 8.70294 338.502C8.93146 338.662 9.13721 338.866 9.25146 339.117C12.108 345.169 17.7297 344.645 22.8715 345.419C28.5389 347.808 33.8406 345.806 35.7831 340.3C36.2859 338.889 37.0629 337.934 38.0684 337.001C39.9423 337.001 41.839 337.001 43.7129 337.001C50.7972 339.321 58.1099 337.137 65.2628 338.07C63.983 342.803 65.4456 344.714 70.5189 344.827C71.3644 344.827 72.21 344.759 72.4614 345.647C72.5756 346.079 72.1642 346.784 71.7986 347.217C70.7474 348.513 68.645 349.514 69.6733 351.494C70.8388 353.678 73.124 353.246 75.1807 352.882C89.6692 353.064 104.158 353.678 118.623 353.2C124.748 352.996 130.872 353.36 137.02 353.087C147.28 352.609 157.587 352.882 167.893 352.836C171.07 353.246 174.269 353.36 177.445 352.836C180.371 353.269 182.473 352.654 182.199 349.059C182.085 347.558 182.496 346.261 183.707 345.351C186.381 343.28 186.564 340.755 185.193 337.911C185.512 337.638 185.832 337.342 186.152 337.069C188.346 337.456 190.471 335.271 192.711 336.841C194.242 338.093 195.613 339.412 196.893 341.005C199.407 344.19 201.966 348.4 207.268 344.918C207.794 344.577 208.982 344.577 209.485 344.918C213.758 347.922 219.083 344.145 223.333 347.125C223.585 347.307 224.316 347.057 224.659 346.784C226.533 345.214 228.087 345.669 230.189 346.739C233.617 348.468 238.462 346.17 238.027 342.848C237.342 337.547 240.45 338.844 243.215 338.844C244.449 338.844 245.706 338.707 246.963 338.616C253.567 338.48 260.149 339.117 266.707 339.799C268.17 342.598 270.067 346.625 272.992 345.92C277.311 344.896 281.836 344.827 285.926 343.349C287.823 342.666 289.217 341.346 291.434 342.325C292.553 342.803 293.856 342.621 295.067 341.983C301.763 338.48 306.813 339.435 311.727 345.123C312.389 345.897 313.166 346.306 314.172 346.261C315.223 346.329 316.343 346.557 317.005 345.374C321.759 344.691 326.535 344.645 331.334 344.577C333.825 344.532 336.59 344.827 339.012 343.599C345.845 343.121 352.747 343.03 359.511 342.097C367.098 341.051 374.137 344.122 381.472 344.304C392.784 344.577 404.028 345.874 415.431 345.692C431.245 345.419 447.104 348.627 462.827 344.463C463.238 344.35 463.81 344.463 464.198 344.668C467.809 346.625 471.922 346.011 475.739 346.921C481.909 348.422 488.239 346.056 494.455 348.149C505.538 351.903 511.754 346.466 515.296 338.912C516.21 336.955 517.33 336.705 519.181 336.386C523.752 335.567 528.619 337.16 532.801 335.909C541.12 333.428 549.575 334.066 557.939 333.087C558.67 333.269 560.064 333.52 560.064 333.633C559.493 339.822 564.406 337.888 567.468 338.639C571.307 338.434 575.032 339.276 578.78 339.799C580.54 340.709 582.482 340.573 584.356 340.618C589.064 340.732 593.794 340.345 598.456 340.823C605.426 341.551 612.396 342.393 619.412 342.666C625.422 343.826 631.432 344.805 637.58 344.463C640.185 346.284 643.201 345.078 645.966 345.578C653.393 347.99 661.392 345.487 668.842 348.104C669.39 348.286 670.236 347.603 670.944 347.33C671.858 347.285 672.772 347.239 673.687 347.194C683.079 347.376 692.54 347.33 701.132 352.04C704.857 353.519 708.742 352.996 712.581 352.905C714.501 353.269 715.484 350.493 718.135 351.972C722.248 354.247 725.402 352.268 726.75 347.49C727.047 346.397 727.847 344.668 728.532 346.102C730.612 350.356 736.531 349.446 738.176 353.86C740.393 353.86 742.609 353.86 744.826 353.86C746.152 354.839 747.454 354.998 749.191 354.748C754.082 354.042 758.149 351.153 762.857 350.038C766.445 348.718 768.067 345.715 769.484 342.507C771.038 339.026 772.569 335.544 774.123 332.063C775.746 331.563 775.586 329.765 776.5 328.764C778.054 327.081 779.448 324.009 781.87 324.828C789.046 327.285 791.148 322.007 794.302 317.798C796.061 315.454 796.747 311.154 801.546 312.883C802.574 313.247 802.803 311.723 803.397 311.04C805.248 308.901 804.517 306.308 804.631 303.85C808.516 304.01 812.424 304.146 816.309 304.305C825.953 304.738 834.134 301.53 840.829 294.59C843.572 292.292 845.057 289.334 845.377 285.808C847.457 283.874 846.36 281.462 846.383 279.232C847.617 275.432 847.319 271.929 844.394 268.903L844.349 268.948ZM320.456 343.622C320.593 343.485 320.685 343.371 320.822 343.235C320.89 343.394 321.005 343.508 321.142 343.622H320.479H320.456ZM654.673 343.349C654.673 343.349 654.673 343.371 654.696 343.394C654.673 343.394 654.651 343.394 654.628 343.417C654.628 343.394 654.65 343.371 654.673 343.349ZM812.812 141.284C813.178 141.512 813.475 141.83 813.703 142.24C813.429 141.921 813.132 141.603 812.812 141.284Z" fill="#F1D8C2"/>
</g>
<g clip-path="url(#clip1_697_2651)">
<path d="M-527.349 88.0519C-525.383 93.5352 -521.841 98.0402 -518.185 102.454C-512.632 109.143 -505.844 113.375 -496.658 112.42C-496.406 112.397 -496.132 112.716 -495.767 112.943C-497.161 115.696 -498.555 118.472 -499.994 121.225C-500.611 122.385 -500.863 123.546 -500.794 124.843C-500.154 138.039 -493.596 148.573 -485.483 158.311C-481.872 162.634 -481.712 162.475 -483.129 168.345C-483.38 169.392 -483.518 170.552 -483.403 171.622C-483.106 174.534 -484.455 175.603 -487.22 176.4C-496.863 179.107 -503.719 188.458 -503.788 198.424C-505.045 199.607 -505.09 200.813 -504.656 202.588C-503.445 207.571 -500.657 211.893 -499.103 216.717C-497.64 220.676 -495.058 223.861 -492.247 226.91C-487.882 230.642 -485.14 236.785 -478.056 236.58C-474.628 238.286 -470.857 238.992 -467.178 239.469C-449.513 241.767 -431.871 244.589 -414.023 245.021C-407.945 245.158 -403.123 245.931 -402.528 253.599C-402.346 256.193 -400.129 258.65 -398.758 261.13C-395.376 267.25 -390.28 272.051 -386.052 277.534C-381.779 283.086 -376.157 284.269 -369.758 284.042C-369.164 284.042 -368.524 283.632 -367.976 283.723C-355.018 285.976 -341.855 285.179 -328.829 286.59C-322.911 287.227 -316.832 286.977 -310.982 287.5C-300.881 288.387 -290.826 288.615 -280.725 288.82C-275.309 288.933 -269.961 288.729 -264.568 288.387C-255.679 287.818 -246.835 287.773 -237.922 289.138C-232.689 289.934 -227.205 289.047 -221.834 288.842C-171.719 286.931 -121.74 290.936 -71.6708 291.755C-66.1862 291.846 -60.4959 291.095 -55.2855 291.937C-45.299 293.552 -35.2897 293.279 -25.3945 293.12C-12.7571 292.938 -0.279723 294.098 12.2435 294.894C33.3591 296.237 54.4748 297.852 75.659 297.852C83.8173 297.852 92.2271 296.646 100.065 298.262C109.504 300.196 118.85 299.718 128.22 300.037C143.051 300.537 157.905 300.037 172.759 300.287C195.177 300.628 217.619 301.356 240.037 301.697C257.565 301.971 275.115 301.698 292.666 302.039C332.018 302.744 371.37 303.654 410.722 304.496C419.497 304.678 428.25 304.746 437.025 304.951C443.492 305.088 449.982 304.246 456.495 304.655C470.664 305.565 484.855 306.885 499.047 306.931C518.128 306.908 537.142 308.023 556.201 308C589.062 307.954 621.901 307.75 654.763 307.272C660.888 307.181 667.126 306.362 673.091 306.658C681.752 307.09 690.39 306.999 698.983 306.476C706.113 306.021 713.585 306.385 720.121 302.335C722.589 300.81 725.4 300.605 728.325 300.56C739.363 300.378 750.401 300.128 761.416 299.513C767.152 299.195 772.842 298.671 777.572 294.166C779.858 291.982 783.24 289.844 786.828 290.026C796.791 290.549 805.955 286.681 815.507 285.043C821.837 283.951 827.711 281.084 831.847 275.896C834.178 272.984 836.783 272.119 840.417 272.188C845.284 272.301 850.175 271.209 854.996 271.437C862.652 271.778 870.216 270.185 877.895 270.822C882.077 271.164 886.441 269.958 889.938 267.978C892.109 266.75 890.692 262.7 891.126 259.924C891.309 258.832 891.309 257.74 891.4 256.625C892.109 246 886.556 241.108 875.929 242.632C873.37 242.996 870.353 243.087 868.137 241.654C866.423 240.539 867.702 238.104 867.725 236.307C867.862 227.82 862.218 221.905 858.356 215.215C858.013 214.624 857.167 214.123 856.482 213.987C848.026 212.326 839.594 210.233 831.047 209.254C822.135 208.253 813.085 208.685 804.127 209.254C800.836 209.482 797.934 208.617 794.94 207.753C793.615 207.366 792.312 206.592 792.426 205.341C792.563 203.703 794.277 203.566 795.671 203.43C804.607 202.611 813.565 201.928 822.477 200.972C838.291 199.266 854.128 197.469 869.599 193.76C874.307 192.645 877.689 192.895 880.066 197.4C881.871 200.79 885.596 200.586 887.95 199.63C891.035 198.379 895.377 195.739 895.811 193.146C897.502 183.021 896.931 173.169 889.481 164.5C882.991 156.946 876.158 150.758 865.874 149.438C863.246 149.097 860.207 150.007 858.081 148.073C855.385 145.638 858.79 143.227 858.699 140.633C858.264 129.757 857.83 118.973 847.341 110.827C857.739 109.894 867.04 108.893 876.341 108.324C879.151 108.165 882.328 105.799 884.887 108.643C887.881 111.988 891.446 111.76 895.262 110.918C903.604 109.098 904.198 107.892 905.706 99.542C906.323 96.1519 905.112 92.4432 907.237 89.3261C908.631 89.5081 909.774 88.9393 910.848 88.1203C913.202 88.0292 914.938 85.8222 917.452 86.2773C919.463 86.5276 921.337 86.027 923.142 85.2534C927.736 84.3206 932.718 81.8633 936.854 82.8417C942.567 84.2068 943.55 80.1569 945.949 77.6541C947.663 75.8794 945.675 73.3994 946.063 71.4655C947.663 63.7524 947.229 56.062 944.692 48.8268C942.956 43.8667 941.95 38.2696 936.877 34.7657C930.569 30.42 923.851 29.7147 916.607 31.0116C909.522 32.2857 902.392 33.4688 895.354 34.9705C893.023 35.4711 892.52 34.9705 891.995 32.718C890.235 25.1869 887.973 17.7469 886.144 10.2158C884.43 3.1853 880.774 2.82128 875.746 5.36956C871.336 7.5993 866.925 8.41839 862.286 9.03271C853.74 10.1703 845.284 12.218 836.76 12.9916C828.259 13.7652 819.895 14.7208 811.805 17.2919C807.235 18.748 803.875 18.1564 800.562 14.425C793.158 6.09764 783.011 3.57213 772.43 2.27522C771.791 2.16145 771.151 2.02495 770.511 1.91118C770.122 1.75191 769.711 1.70641 769.3 1.72914C766.009 1.6154 762.124 4.57323 762.078 7.64479C762.078 8.87343 763.861 10.3751 761.827 11.2852C760.433 11.8995 759.656 10.4206 758.628 9.76076C757.988 9.35121 757.234 8.82793 756.525 8.85069C753.097 8.96443 753.029 7.21248 753.897 4.6642C754.926 1.61537 754.263 -0.318559 750.469 0.250257C744.459 0.910078 738.472 -0.728107 732.462 0.250256C727.274 0.386761 722.041 0.0909532 716.922 0.796275C713.883 1.22859 710.226 0.318491 707.827 2.63923C704.993 5.36952 701.496 5.66532 698.617 4.61872C692.218 2.29798 686.757 3.50385 680.564 5.82459C672.04 9.03269 662.716 6.18863 653.712 7.258C644.845 8.30463 635.841 8.03156 626.883 8.4411C611.983 9.12369 597.061 9.87451 582.161 10.6254C570.895 11.1942 559.606 11.7857 548.339 12.3773C541.255 12.4911 534.171 12.6958 527.087 12.7413C517.488 12.7868 507.89 12.6731 498.27 12.6503C494.476 13.5376 492.396 8.7824 488.58 9.738C486.775 7.7358 484.467 7.43999 481.976 7.80404C479.462 7.75853 476.948 7.73577 474.434 7.69027C469.453 7.69027 464.471 7.69027 459.466 7.66753C459.032 7.53099 458.621 7.43999 458.186 7.41725C453.844 6.6664 449.525 7.25798 445.183 7.66753C444.726 7.62203 444.269 7.57652 443.835 7.53099C443.469 7.41725 443.081 7.39449 442.67 7.41725C432.706 6.48439 422.719 7.09871 412.733 6.89394C403.843 6.41615 394.999 7.12144 386.178 7.80403C384.487 7.57649 382.659 6.82566 381.105 7.21247C372.284 9.37394 363.623 6.21134 354.87 6.78016C348.906 6.78016 342.964 6.78016 337 6.78016C327.996 5.09647 327.539 5.41502 326.511 13.8562C326.328 15.4034 326.511 17.087 324.294 17.4056C320.409 17.9516 316.547 18.6797 312.639 19.0665C311.885 19.1347 310.971 19.1802 310.125 19.0892C309.508 18.93 308.914 18.748 308.297 18.4977C308.069 18.3384 307.863 18.1336 307.749 17.8834C304.892 11.8312 299.27 12.3545 294.129 11.5809C288.461 9.19193 283.159 11.1941 281.217 16.7002C280.714 18.1109 279.937 19.0665 278.932 19.9993C277.058 19.9993 275.161 19.9993 273.287 19.9993C266.203 17.6786 258.89 19.8628 251.737 18.93C253.017 14.1974 251.554 12.2862 246.481 12.1725C245.636 12.1725 244.79 12.2407 244.539 11.3534C244.424 10.9211 244.836 10.2158 245.201 9.78345C246.253 8.48657 248.355 7.48547 247.327 5.50601C246.161 3.32178 243.876 3.75409 241.819 4.11813C227.331 3.93609 212.842 3.32177 198.377 3.79959C192.252 4.00436 186.128 3.64031 179.98 3.91335C169.72 4.39117 159.413 4.11813 149.107 4.16363C145.93 3.75408 142.731 3.64031 139.555 4.16363C136.629 3.73134 134.527 4.34563 134.801 7.94051C134.915 9.44216 134.504 10.7391 133.293 11.6492C130.619 13.7197 130.436 16.2452 131.808 19.0892C131.488 19.3622 131.168 19.658 130.848 19.9311C128.654 19.5443 126.529 21.7285 124.289 20.1586C122.758 18.9072 121.387 17.5876 120.107 15.9949C117.593 12.8096 115.034 8.60033 109.732 12.0815C109.206 12.4227 108.018 12.4227 107.515 12.0815C103.242 9.07814 97.9173 12.8551 93.6668 9.87447C93.4154 9.69246 92.6842 9.94274 92.3414 10.2157C90.4675 11.7857 88.9135 11.3306 86.8111 10.2613C83.3832 8.53209 78.5385 10.8301 78.9727 14.152C79.6582 19.4533 76.5503 18.1564 73.7852 18.1564C72.5512 18.1564 71.2942 18.2929 70.0374 18.3839C63.433 18.5204 56.8515 17.8833 50.2928 17.2008C48.8302 14.4022 46.9335 10.375 44.0084 11.0803C39.6892 12.1042 35.1645 12.1725 31.0739 13.6514C29.1772 14.334 27.7832 15.6536 25.5665 14.6752C24.4467 14.1974 23.1441 14.3794 21.9329 15.0165C15.2372 18.5204 10.1868 17.5648 5.27352 11.8767C4.6108 11.1031 3.83377 10.6936 2.82827 10.7391C1.77706 10.6708 0.657314 10.4433 -0.0054062 11.6264C-4.7587 12.309 -9.53495 12.3545 -14.334 12.4227C-16.8249 12.4682 -19.59 12.1725 -22.0124 13.4011C-28.8453 13.8789 -35.7467 13.9699 -42.511 14.9027C-50.098 15.9493 -57.1365 12.8778 -64.4721 12.6958C-75.7842 12.4228 -87.0276 11.1259 -98.431 11.3079C-114.245 11.5809 -130.104 8.3728 -145.827 12.5365C-146.238 12.6503 -146.81 12.5365 -147.198 12.3317C-150.809 10.375 -154.922 10.9893 -158.738 10.0792C-164.909 8.57757 -171.239 10.9438 -177.455 8.85061C-188.538 5.09646 -194.754 10.5343 -198.296 18.0881C-199.21 20.0448 -200.33 20.2951 -202.181 20.6136C-206.752 21.4327 -211.619 19.84 -215.801 21.0914C-224.119 23.5714 -232.575 22.9343 -240.939 23.9127C-241.67 23.7307 -243.064 23.4804 -243.064 23.3667C-242.493 17.178 -247.406 19.1119 -250.468 18.3611C-254.307 18.5659 -258.032 17.724 -261.78 17.2007C-263.54 16.2906 -265.482 16.4271 -267.356 16.3816C-272.064 16.2679 -276.794 16.6547 -281.456 16.1769C-288.426 15.4488 -295.396 14.6069 -302.412 14.3339C-308.422 13.1735 -314.432 12.1952 -320.58 12.5365C-323.185 10.7163 -326.201 11.9221 -328.966 11.4216C-336.393 9.00984 -344.392 11.5126 -351.842 8.89607C-352.39 8.71406 -353.236 9.39665 -353.944 9.66969C-354.858 9.71519 -355.772 9.76069 -356.686 9.80619C-366.079 9.62415 -375.54 9.66965 -384.132 4.95991C-387.857 3.48099 -391.742 4.00428 -395.581 4.09528C-397.501 3.73124 -398.484 6.50705 -401.134 5.02814C-405.248 2.7529 -408.402 4.73236 -409.75 9.51038C-410.047 10.6025 -410.847 12.3317 -411.532 10.8983C-413.612 6.64359 -419.531 7.55365 -421.176 3.13968C-423.393 3.13968 -425.609 3.13968 -427.826 3.13968C-429.152 2.16135 -430.454 2.00208 -432.191 2.25235C-437.082 2.95767 -441.149 5.84726 -445.857 6.96213C-449.445 8.28177 -451.067 11.2851 -452.484 14.4932C-454.038 17.9743 -455.569 21.4554 -457.123 24.9366C-458.746 25.4371 -458.586 27.2346 -459.5 28.2357C-461.054 29.9193 -462.448 32.9909 -464.87 32.1718C-472.046 29.7146 -474.148 34.9931 -477.302 39.2023C-479.061 41.5458 -479.747 45.846 -484.546 44.1168C-485.574 43.7528 -485.803 45.2772 -486.397 45.9598C-488.248 48.0986 -487.517 50.6923 -487.631 53.1496C-491.516 52.9903 -495.424 52.8538 -499.309 52.6945C-508.952 52.2622 -517.134 55.4703 -523.829 62.4098C-526.572 64.7078 -528.057 67.6657 -528.377 71.1923C-530.457 73.1262 -529.36 75.538 -529.383 77.7677C-530.617 81.5674 -530.319 85.0713 -527.394 88.0974L-527.349 88.0519ZM-3.45615 13.3783C-3.5933 13.5148 -3.68467 13.6286 -3.82181 13.7651C-3.89036 13.6058 -4.00461 13.4921 -4.1417 13.3783L-3.47904 13.3783L-3.45615 13.3783ZM-337.673 13.6513C-337.673 13.6513 -337.673 13.6286 -337.696 13.6058C-337.673 13.6058 -337.65 13.6058 -337.628 13.5831C-337.628 13.6058 -337.65 13.6286 -337.673 13.6513ZM-495.812 215.716C-496.178 215.488 -496.475 215.17 -496.703 214.76C-496.429 215.079 -496.132 215.397 -495.812 215.716Z" fill="#F1D8C2"/>
</g>
<defs>
<clipPath id="clip0_697_2651">
<rect width="320" height="308" fill="white" transform="translate(0 49)"/>
</clipPath>
<clipPath id="clip1_697_2651">
<rect width="320" height="308" fill="white" transform="translate(320 308) rotate(-180)"/>
</clipPath>
</defs>
</svg>
