<svg width="320" height="2019" viewBox="0 0 320 2019" fill="none" xmlns="http://www.w3.org/2000/svg">
<g clip-path="url(#clip0_715_215)">
<g clip-path="url(#clip1_715_215)">
<path d="M844.427 1931.05C842.462 1925.37 838.92 1920.7 835.264 1916.12C829.711 1909.19 822.924 1904.8 813.738 1905.8C813.487 1905.82 813.213 1905.49 812.847 1905.25C814.241 1902.4 815.635 1899.52 817.074 1896.67C817.691 1895.47 817.943 1894.27 817.874 1892.92C817.234 1879.25 810.676 1868.33 802.564 1858.24C798.953 1853.76 798.793 1853.92 800.21 1847.84C800.461 1846.75 800.599 1845.55 800.484 1844.44C800.187 1841.42 801.535 1840.32 804.3 1839.49C813.944 1836.68 820.799 1826.99 820.868 1816.67C822.124 1815.44 822.17 1814.19 821.736 1812.35C820.525 1807.19 817.737 1802.71 816.183 1797.71C814.721 1793.61 812.138 1790.3 809.328 1787.15C804.963 1783.28 802.221 1776.91 795.137 1777.12C791.709 1775.36 787.939 1774.62 784.26 1774.13C766.596 1771.75 748.954 1768.82 731.108 1768.38C725.029 1768.23 720.207 1767.43 719.613 1759.49C719.43 1756.8 717.214 1754.25 715.843 1751.68C712.461 1745.34 707.365 1740.36 703.138 1734.68C698.864 1728.93 693.243 1727.7 686.844 1727.94C686.25 1727.94 685.61 1728.36 685.062 1728.27C672.105 1725.93 658.943 1726.76 645.918 1725.3C639.999 1724.64 633.921 1724.9 628.071 1724.35C617.97 1723.43 607.916 1723.2 597.816 1722.99C592.4 1722.87 587.053 1723.08 581.66 1723.43C572.771 1724.02 563.927 1724.07 555.015 1722.66C549.782 1721.83 544.298 1722.75 538.928 1722.96C488.815 1724.94 438.839 1720.79 388.772 1719.94C383.287 1719.85 377.597 1720.63 372.387 1719.76C362.401 1718.08 352.392 1718.36 342.498 1718.53C329.861 1718.72 317.384 1717.52 304.862 1716.69C283.747 1715.3 262.632 1713.63 241.449 1713.63C233.291 1713.63 224.882 1714.88 217.044 1713.2C207.606 1711.2 198.26 1711.69 188.891 1711.36C174.06 1710.84 159.207 1711.36 144.354 1711.1C121.936 1710.75 99.4964 1709.99 77.0792 1709.64C59.5522 1709.36 42.0024 1709.64 24.4526 1709.29C-14.8974 1708.56 -54.2474 1707.61 -93.5975 1706.74C-102.372 1706.55 -111.124 1706.48 -119.899 1706.27C-126.366 1706.13 -132.856 1707 -139.369 1706.58C-153.537 1705.63 -167.727 1704.26 -181.918 1704.22C-200.999 1704.24 -220.011 1703.09 -239.069 1703.11C-271.929 1703.16 -304.767 1703.37 -337.627 1703.86C-343.751 1703.96 -349.99 1704.81 -355.954 1704.5C-364.614 1704.05 -373.252 1704.15 -381.844 1704.69C-388.974 1705.16 -396.446 1704.78 -402.982 1708.98C-405.45 1710.56 -408.26 1710.77 -411.185 1710.82C-422.223 1711.01 -433.26 1711.27 -444.274 1711.9C-450.01 1712.23 -455.7 1712.78 -460.43 1717.45C-462.715 1719.71 -466.097 1721.93 -469.685 1721.74C-479.648 1721.19 -488.811 1725.2 -498.363 1726.9C-504.693 1728.03 -510.566 1731 -514.702 1736.38C-517.033 1739.4 -519.638 1740.29 -523.271 1740.22C-528.139 1740.1 -533.029 1741.24 -537.85 1741C-545.506 1740.65 -553.069 1742.3 -560.748 1741.64C-564.929 1741.28 -569.294 1742.53 -572.79 1744.58C-574.961 1745.86 -573.544 1750.06 -573.978 1752.93C-574.161 1754.06 -574.161 1755.2 -574.253 1756.35C-574.961 1767.36 -569.408 1772.43 -558.782 1770.85C-556.223 1770.47 -553.207 1770.38 -550.99 1771.87C-549.276 1773.02 -550.556 1775.54 -550.579 1777.41C-550.716 1786.2 -545.072 1792.33 -541.21 1799.26C-540.867 1799.88 -540.021 1800.4 -539.336 1800.54C-530.881 1802.26 -522.449 1804.43 -513.902 1805.44C-504.99 1806.48 -495.941 1806.03 -486.983 1805.44C-483.693 1805.21 -480.791 1806.1 -477.797 1807C-476.472 1807.4 -475.169 1808.2 -475.283 1809.5C-475.421 1811.2 -477.134 1811.34 -478.528 1811.48C-487.463 1812.33 -496.421 1813.04 -505.333 1814.03C-521.146 1815.79 -536.982 1817.66 -552.452 1821.5C-557.16 1822.66 -560.542 1822.4 -562.918 1817.73C-564.724 1814.21 -568.448 1814.43 -570.802 1815.42C-573.887 1816.71 -578.229 1819.45 -578.663 1822.14C-580.354 1832.63 -579.783 1842.84 -572.333 1851.82C-565.843 1859.65 -559.011 1866.06 -548.728 1867.43C-546.1 1867.79 -543.061 1866.84 -540.935 1868.85C-538.239 1871.37 -541.644 1873.87 -541.552 1876.56C-541.118 1887.83 -540.684 1899 -530.195 1907.45C-540.593 1908.41 -549.893 1909.45 -559.194 1910.04C-562.004 1910.2 -565.181 1912.66 -567.74 1909.71C-570.734 1906.24 -574.298 1906.48 -578.115 1907.35C-586.455 1909.24 -587.049 1910.49 -588.558 1919.14C-589.175 1922.65 -587.963 1926.5 -590.089 1929.73C-591.483 1929.54 -592.625 1930.13 -593.699 1930.98C-596.053 1931.07 -597.79 1933.36 -600.303 1932.89C-602.314 1932.63 -604.188 1933.15 -605.993 1933.95C-610.586 1934.92 -615.568 1937.46 -619.704 1936.45C-625.417 1935.03 -626.399 1939.23 -628.799 1941.82C-630.513 1943.66 -628.525 1946.23 -628.913 1948.24C-630.513 1956.23 -630.079 1964.2 -627.542 1971.7C-625.805 1976.84 -624.8 1982.64 -619.727 1986.27C-613.42 1990.77 -606.702 1991.51 -599.458 1990.16C-592.374 1988.84 -585.244 1987.61 -578.206 1986.06C-575.875 1985.54 -575.372 1986.06 -574.847 1988.39C-573.087 1996.2 -570.825 2003.91 -568.997 2011.71C-567.283 2019 -563.627 2019.38 -558.599 2016.73C-554.189 2014.42 -549.779 2013.58 -545.14 2012.94C-536.594 2011.76 -528.139 2009.64 -519.615 2008.84C-511.114 2008.03 -502.751 2007.04 -494.661 2004.38C-490.091 2002.87 -486.732 2003.48 -483.419 2007.35C-476.015 2015.98 -465.869 2018.6 -455.289 2019.94C-454.649 2020.06 -454.009 2020.2 -453.369 2020.32C-452.981 2020.48 -452.569 2020.53 -452.158 2020.51C-448.867 2020.63 -444.983 2017.56 -444.937 2014.38C-444.937 2013.1 -446.719 2011.55 -444.686 2010.6C-443.292 2009.97 -442.515 2011.5 -441.486 2012.18C-440.847 2012.61 -440.092 2013.15 -439.384 2013.13C-435.956 2013.01 -435.888 2014.82 -436.756 2017.47C-437.784 2020.63 -437.122 2022.63 -433.328 2022.04C-427.319 2021.36 -421.331 2023.05 -415.322 2022.04C-410.134 2021.9 -404.901 2022.21 -399.783 2021.47C-396.743 2021.03 -393.087 2021.97 -390.688 2019.56C-387.854 2016.73 -384.358 2016.43 -381.479 2017.51C-375.08 2019.92 -369.619 2018.67 -363.426 2016.26C-354.903 2012.94 -345.579 2015.89 -336.576 2014.78C-327.71 2013.69 -318.706 2013.98 -309.748 2013.55C-294.849 2012.84 -279.927 2012.07 -265.028 2011.29C-253.763 2010.7 -242.474 2010.09 -231.208 2009.47C-224.124 2009.35 -217.04 2009.14 -209.957 2009.1C-200.359 2009.05 -190.761 2009.17 -181.141 2009.19C-177.348 2008.27 -175.268 2013.2 -171.452 2012.21C-169.647 2014.28 -167.339 2014.59 -164.848 2014.21C-162.334 2014.26 -159.821 2014.28 -157.307 2014.33C-152.325 2014.33 -147.344 2014.33 -142.339 2014.35C-141.905 2014.49 -141.494 2014.59 -141.06 2014.61C-136.718 2015.39 -132.399 2014.78 -128.057 2014.35C-127.6 2014.4 -127.143 2014.45 -126.709 2014.49C-126.343 2014.61 -125.955 2014.64 -125.544 2014.61C-115.58 2015.58 -105.594 2014.94 -95.6084 2015.16C-86.7192 2015.65 -77.8757 2014.92 -69.0551 2014.21C-67.3641 2014.45 -65.536 2015.23 -63.9821 2014.82C-55.1615 2012.58 -46.5009 2015.86 -37.7488 2015.27C-31.7846 2015.27 -25.8432 2015.27 -19.879 2015.27C-10.8755 2017.02 -10.4186 2016.69 -9.39026 2007.94C-9.20746 2006.34 -9.39026 2004.59 -7.17365 2004.26C-3.28894 2003.7 0.572937 2002.94 4.48053 2002.54C5.23462 2002.47 6.14868 2002.42 6.9942 2002.52C7.61121 2002.68 8.20526 2002.87 8.82227 2003.13C9.05078 2003.29 9.25647 2003.51 9.37073 2003.77C12.2272 2010.04 17.8486 2009.5 22.9901 2010.3C28.6573 2012.77 33.9587 2010.7 35.9011 2004.99C36.4039 2003.53 37.1808 2002.54 38.1863 2001.57C40.0601 2001.57 41.9567 2001.57 43.8306 2001.57C50.9145 2003.98 58.2269 2001.71 65.3793 2002.68C64.0997 2007.59 65.5622 2009.57 70.6352 2009.68C71.4807 2009.68 72.3262 2009.61 72.5776 2010.53C72.6918 2010.98 72.2805 2011.71 71.9149 2012.16C70.8637 2013.5 68.7614 2014.54 69.7897 2016.59C70.9551 2018.86 73.2402 2018.41 75.2968 2018.03C89.7846 2018.22 104.272 2018.86 118.737 2018.36C124.861 2018.15 130.986 2018.53 137.133 2018.24C147.393 2017.75 157.699 2018.03 168.005 2017.98C171.181 2018.41 174.38 2018.53 177.557 2017.98C180.482 2018.43 182.584 2017.8 182.31 2014.07C182.195 2012.51 182.607 2011.17 183.818 2010.23C186.492 2008.08 186.674 2005.46 185.303 2002.52C185.623 2002.23 185.943 2001.93 186.263 2001.64C188.457 2002.05 190.582 1999.78 192.821 2001.41C194.352 2002.71 195.723 2004.07 197.003 2005.72C199.517 2009.02 202.076 2013.39 207.378 2009.78C207.903 2009.43 209.091 2009.43 209.594 2009.78C213.867 2012.89 219.192 2008.98 223.442 2012.07C223.693 2012.25 224.425 2012 224.768 2011.71C226.641 2010.09 228.195 2010.56 230.298 2011.67C233.725 2013.46 238.57 2011.08 238.136 2007.63C237.45 2002.14 240.558 2003.48 243.323 2003.48C244.557 2003.48 245.814 2003.34 247.07 2003.25C253.674 2003.11 260.256 2003.77 266.814 2004.47C268.276 2007.37 270.173 2011.55 273.098 2010.82C277.417 2009.76 281.942 2009.68 286.032 2008.15C287.929 2007.44 289.323 2006.08 291.539 2007.09C292.659 2007.59 293.961 2007.4 295.172 2006.74C301.868 2003.11 306.918 2004.1 311.831 2009.99C312.494 2010.79 313.271 2011.22 314.276 2011.17C315.327 2011.24 316.447 2011.48 317.11 2010.25C321.863 2009.54 326.639 2009.5 331.438 2009.43C333.928 2009.38 336.693 2009.68 339.116 2008.41C345.948 2007.92 352.849 2007.82 359.613 2006.86C367.2 2005.77 374.238 2008.95 381.573 2009.14C392.885 2009.43 404.128 2010.77 415.531 2010.58C431.344 2010.3 447.203 2013.62 462.924 2009.31C463.336 2009.19 463.907 2009.31 464.295 2009.52C467.906 2011.55 472.019 2010.91 475.835 2011.85C482.005 2013.41 488.335 2010.96 494.55 2013.13C505.633 2017.02 511.849 2011.38 515.391 2003.55C516.305 2001.53 517.425 2001.27 519.276 2000.94C523.846 2000.09 528.713 2001.74 532.895 2000.44C541.213 1997.87 549.668 1998.53 558.031 1997.52C558.763 1997.71 560.157 1997.97 560.157 1998.08C559.585 2004.5 564.498 2002.49 567.56 2003.27C571.4 2003.06 575.124 2003.93 578.872 2004.47C580.631 2005.42 582.574 2005.28 584.448 2005.32C589.155 2005.44 593.885 2005.04 598.547 2005.53C605.517 2006.29 612.486 2007.16 619.502 2007.44C625.511 2008.65 631.521 2009.66 637.668 2009.31C640.273 2011.19 643.29 2009.94 646.055 2010.46C653.481 2012.96 661.479 2010.37 668.929 2013.08C669.477 2013.27 670.323 2012.56 671.031 2012.28C671.945 2012.23 672.859 2012.18 673.773 2012.14C683.165 2012.33 692.626 2012.28 701.218 2017.16C704.943 2018.69 708.828 2018.15 712.667 2018.06C714.586 2018.43 715.569 2015.56 718.219 2017.09C722.333 2019.45 725.486 2017.4 726.834 2012.44C727.131 2011.31 727.931 2009.52 728.617 2011.01C730.696 2015.41 736.615 2014.47 738.26 2019.05C740.477 2019.05 742.693 2019.05 744.91 2019.05C746.235 2020.06 747.538 2020.22 749.274 2019.97C754.165 2019.23 758.232 2016.24 762.939 2015.08C766.527 2013.72 768.15 2010.6 769.566 2007.28C771.12 2003.67 772.651 2000.06 774.205 1996.46C775.828 1995.94 775.668 1994.08 776.582 1993.04C778.136 1991.29 779.53 1988.11 781.952 1988.96C789.127 1991.51 791.229 1986.03 794.383 1981.67C796.142 1979.24 796.828 1974.79 801.627 1976.58C802.655 1976.96 802.884 1975.38 803.478 1974.67C805.329 1972.45 804.598 1969.77 804.712 1967.22C808.597 1967.38 812.504 1967.53 816.389 1967.69C826.032 1968.14 834.213 1964.81 840.908 1957.62C843.65 1955.24 845.136 1952.18 845.456 1948.52C847.535 1946.52 846.438 1944.02 846.461 1941.71C847.695 1937.77 847.398 1934.14 844.473 1931L844.427 1931.05ZM320.56 2008.44C320.697 2008.29 320.789 2008.18 320.926 2008.03C320.995 2008.2 321.109 2008.32 321.246 2008.44H320.583H320.56ZM654.761 2008.15C654.761 2008.15 654.761 2008.18 654.784 2008.2C654.761 2008.2 654.738 2008.2 654.716 2008.22C654.716 2008.2 654.738 2008.18 654.761 2008.15ZM812.892 1798.75C813.258 1798.98 813.555 1799.31 813.784 1799.74C813.51 1799.41 813.212 1799.08 812.892 1798.75Z" fill="#F1D8C2"/>
</g>
<g clip-path="url(#clip2_715_215)">
<path d="M-527.259 88.43C-525.294 94.1237 -521.751 98.8015 -518.094 103.385C-512.541 110.331 -505.753 114.725 -496.565 113.733C-496.313 113.709 -496.039 114.04 -495.674 114.276C-497.068 117.135 -498.462 120.017 -499.902 122.876C-500.519 124.081 -500.77 125.285 -500.702 126.632C-500.062 140.335 -493.502 151.273 -485.389 161.385C-481.778 165.874 -481.618 165.708 -483.035 171.804C-483.286 172.89 -483.423 174.095 -483.309 175.206C-483.012 178.23 -484.36 179.34 -487.126 180.167C-496.77 182.978 -503.627 192.688 -503.696 203.036C-504.953 204.265 -504.998 205.517 -504.564 207.36C-503.353 212.534 -500.565 217.023 -499.01 222.031C-497.548 226.142 -494.965 229.449 -492.154 232.615C-487.789 236.49 -485.046 242.869 -477.961 242.656C-474.533 244.428 -470.762 245.16 -467.082 245.656C-449.415 248.043 -431.771 250.972 -413.921 251.421C-407.842 251.563 -403.019 252.366 -402.425 260.328C-402.242 263.021 -400.025 265.573 -398.654 268.148C-395.272 274.503 -390.175 279.488 -385.947 285.182C-381.673 290.946 -376.051 292.175 -369.651 291.938C-369.057 291.938 -368.417 291.513 -367.868 291.608C-354.91 293.947 -341.745 293.12 -328.718 294.584C-322.798 295.246 -316.719 294.986 -310.868 295.529C-300.766 296.451 -290.71 296.687 -280.608 296.9C-275.191 297.018 -269.843 296.805 -264.449 296.451C-255.559 295.86 -246.714 295.813 -237.801 297.23C-232.567 298.057 -227.082 297.136 -221.711 296.923C-171.59 294.939 -121.606 299.097 -71.5305 299.947C-66.0453 300.042 -60.3544 299.262 -55.1434 300.136C-45.1558 301.814 -35.1453 301.53 -25.2491 301.365C-12.6103 301.176 -0.131469 302.381 12.3931 303.208C33.5111 304.602 54.6292 306.279 75.8157 306.279C83.975 306.279 92.3857 305.027 100.225 306.704C109.664 308.712 119.012 308.216 128.382 308.547C143.215 309.067 158.071 308.547 172.927 308.807C195.347 309.161 217.791 309.917 240.212 310.272C257.742 310.555 275.294 310.272 292.847 310.626C332.203 311.358 371.56 312.303 410.916 313.178C419.692 313.367 428.446 313.437 437.222 313.65C443.69 313.792 450.181 312.918 456.694 313.343C470.865 314.288 485.057 315.658 499.25 315.705C518.334 315.682 537.35 316.84 556.411 316.816C589.276 316.769 622.119 316.556 654.984 316.06C661.11 315.965 667.349 315.115 673.314 315.422C681.976 315.871 690.615 315.776 699.209 315.233C706.34 314.761 713.813 315.139 720.35 310.933C722.818 309.35 725.629 309.138 728.555 309.09C739.594 308.901 750.633 308.642 761.649 308.004C767.385 307.673 773.076 307.13 777.807 302.452C780.093 300.184 783.475 297.963 787.064 298.152C797.028 298.695 806.193 294.679 815.747 292.978C822.077 291.844 827.951 288.867 832.088 283.481C834.419 280.457 837.025 279.559 840.659 279.63C845.527 279.748 850.418 278.614 855.24 278.85C862.896 279.204 870.461 277.551 878.141 278.212C882.323 278.567 886.689 277.314 890.185 275.259C892.357 273.983 890.94 269.778 891.374 266.896C891.557 265.762 891.557 264.628 891.648 263.47C892.357 252.437 886.803 247.358 876.175 248.94C873.615 249.318 870.599 249.413 868.382 247.925C866.668 246.767 867.947 244.239 867.97 242.373C868.107 233.56 862.462 227.418 858.6 220.472C858.257 219.858 857.411 219.338 856.726 219.196C848.269 217.472 839.836 215.298 831.288 214.282C822.375 213.243 813.324 213.691 804.365 214.282C801.074 214.518 798.171 213.621 795.177 212.723C793.851 212.321 792.549 211.518 792.663 210.219C792.8 208.518 794.514 208.376 795.908 208.234C804.845 207.384 813.804 206.675 822.717 205.682C838.533 203.911 854.372 202.044 869.844 198.193C874.553 197.036 877.935 197.296 880.312 201.973C882.118 205.493 885.843 205.281 888.197 204.289C891.282 202.989 895.625 200.249 896.059 197.555C897.75 187.042 897.179 176.812 889.728 167.811C883.237 159.968 876.404 153.541 866.119 152.171C863.491 151.817 860.451 152.762 858.325 150.754C855.629 148.226 859.034 145.721 858.943 143.028C858.508 131.735 858.074 120.537 847.584 112.079C857.983 111.11 867.285 110.071 876.587 109.48C879.398 109.315 882.575 106.858 885.134 109.811C888.128 113.284 891.694 113.048 895.511 112.174C903.853 110.284 904.447 109.031 905.955 100.361C906.572 96.8407 905.361 92.9898 907.487 89.7531C908.881 89.9421 910.024 89.3515 911.098 88.501C913.452 88.4065 915.189 86.1148 917.703 86.5873C919.714 86.8472 921.588 86.3275 923.394 85.5242C927.988 84.5555 932.97 82.004 937.107 83.0199C942.82 84.4374 943.803 80.2321 946.203 77.6333C947.917 75.7906 945.929 73.2154 946.317 71.2073C947.917 63.1983 947.483 55.2129 944.946 47.7001C943.209 42.5497 942.203 36.7379 937.13 33.0996C930.822 28.5872 924.102 27.8548 916.857 29.2015C909.772 30.5245 902.641 31.753 895.602 33.3123C893.271 33.832 892.768 33.3123 892.242 30.9734C890.482 23.1534 888.22 15.4279 886.391 7.6079C884.677 0.307703 881.021 -0.070288 875.992 2.57574C871.581 4.89105 867.17 5.74154 862.531 6.37942C853.983 7.56069 845.527 9.68694 837.002 10.4902C828.5 11.2935 820.135 12.2858 812.044 14.9554C807.473 16.4674 804.113 15.8532 800.799 11.9786C793.394 3.33174 783.247 0.709336 772.665 -0.637314C772.025 -0.755418 771.385 -0.897172 770.745 -1.01531C770.357 -1.18068 769.945 -1.22795 769.534 -1.20433C766.243 -1.32243 762.357 1.74885 762.312 4.93828C762.312 6.21403 764.094 7.7733 762.06 8.71831C760.666 9.35618 759.889 7.82054 758.86 7.13542C758.221 6.71016 757.466 6.16679 756.758 6.19041C753.33 6.30855 753.261 4.48936 754.13 1.84334C755.158 -1.32247 754.495 -3.33058 750.701 -2.73995C744.69 -2.05483 738.702 -3.75585 732.692 -2.73995C727.503 -2.59819 722.27 -2.90535 717.15 -2.17296C714.11 -1.72408 710.454 -2.66912 708.054 -0.25933C705.22 2.57572 701.723 2.88285 698.843 1.79609C692.444 -0.613671 686.982 0.638465 680.788 3.04822C672.263 6.3794 662.938 3.42624 653.933 4.53663C645.065 5.62339 636.061 5.33988 627.101 5.76514C612.2 6.47388 597.276 7.25354 582.374 8.03317C571.107 8.62381 559.816 9.23806 548.549 9.85232C541.464 9.97045 534.379 10.183 527.294 10.2303C517.694 10.2775 508.095 10.1594 498.473 10.1358C494.679 11.0572 492.6 6.1195 488.783 7.11177C486.977 5.03273 484.669 4.72561 482.178 5.1036C479.664 5.05635 477.15 5.03273 474.636 4.98546C469.653 4.98546 464.671 4.98549 459.666 4.96187C459.231 4.82012 458.82 4.7256 458.386 4.70198C454.043 3.92235 449.724 4.53661 445.381 4.96187C444.924 4.9146 444.467 4.86736 444.033 4.82011C443.667 4.70198 443.279 4.67836 442.867 4.70198C432.902 3.73335 422.915 4.37123 412.927 4.15861C404.037 3.66246 395.192 4.39485 386.37 5.10359C384.678 4.86735 382.85 4.08772 381.296 4.48936C372.474 6.73374 363.812 3.44984 355.058 4.04047C349.093 4.04047 343.151 4.04047 337.186 4.04047C328.181 2.29218 327.724 2.62293 326.695 11.3879C326.512 12.9945 326.695 14.7427 324.478 15.0735C320.593 15.6405 316.73 16.3965 312.822 16.7981C312.068 16.869 311.154 16.9162 310.308 16.8218C309.691 16.6564 309.097 16.4674 308.48 16.2075C308.251 16.0421 308.045 15.8295 307.931 15.5696C305.074 9.28528 299.452 9.82865 294.31 9.02539C288.642 6.54474 283.339 8.62378 281.397 14.3411C280.894 15.8058 280.117 16.7981 279.111 17.7668C277.237 17.7668 275.34 17.7668 273.466 17.7668C266.381 15.357 259.067 17.625 251.914 16.6564C253.194 11.7423 251.731 9.75778 246.657 9.63965C245.811 9.63965 244.966 9.71051 244.714 8.78912C244.6 8.34024 245.011 7.60785 245.377 7.15896C246.428 5.81234 248.531 4.77286 247.503 2.71744C246.337 0.449399 244.052 0.898282 241.995 1.2763C227.504 1.08731 213.014 0.449396 198.547 0.94555C192.422 1.15817 186.297 0.780174 180.149 1.06368C169.887 1.5598 159.579 1.2763 149.272 1.32354C146.095 0.898304 142.895 0.78017 139.718 1.32354C136.793 0.874652 134.69 1.51253 134.965 5.24532C135.079 6.80458 134.667 8.15123 133.456 9.09627C130.782 11.2462 130.599 13.8685 131.971 16.8217C131.651 17.1052 131.331 17.4124 131.011 17.6959C128.816 17.2942 126.691 19.5623 124.451 17.9321C122.92 16.6327 121.549 15.2625 120.269 13.6087C117.755 10.3012 115.195 5.93047 109.893 9.54515C109.367 9.89952 108.178 9.89952 107.676 9.54515C103.402 6.42659 98.0766 10.3484 93.8255 7.25349C93.5741 7.06447 92.8428 7.32435 92.5 7.60783C90.6259 9.23799 89.0717 8.76549 86.969 7.6551C83.5408 5.85957 78.6955 8.24574 79.1298 11.6951C79.8154 17.1998 76.7072 15.8531 73.9417 15.8531C72.7075 15.8531 71.4505 15.9948 70.1934 16.0893C63.5883 16.2311 57.0061 15.5696 50.4467 14.8608C48.984 11.9549 47.087 7.77323 44.1616 8.50562C39.8419 9.56877 35.3167 9.63963 31.2257 11.1753C29.3288 11.884 27.9346 13.2543 25.7176 12.2384C24.5977 11.7423 23.295 11.9313 22.0837 12.5928C15.3872 16.2311 10.3362 15.2388 5.42239 9.33253C4.75961 8.52924 3.98251 8.10401 2.97689 8.15125C1.92556 8.08036 0.80569 7.84412 0.142848 9.07264C-4.61094 9.78138 -9.38773 9.82862 -14.1872 9.89948C-16.6784 9.94675 -19.4439 9.63962 -21.8665 10.9154C-28.7002 11.4115 -35.6024 11.506 -42.3675 12.4746C-49.9553 13.5614 -56.9946 10.372 -64.3311 10.183C-75.6443 9.8995 -86.889 8.55285 -98.2937 8.74188C-114.109 9.02539 -129.971 5.69418 -145.695 10.0176C-146.106 10.1357 -146.678 10.0176 -147.066 9.80498C-150.677 7.77322 -154.791 8.41109 -158.608 7.46609C-164.779 5.90682 -171.11 8.36385 -177.326 6.19033C-188.411 2.29216 -194.628 7.93859 -198.17 15.7822C-199.084 17.814 -200.204 18.0738 -202.055 18.4046C-206.626 19.2551 -211.494 17.6013 -215.677 18.9007C-223.996 21.4759 -232.452 20.8144 -240.817 21.8302C-241.549 21.6412 -242.943 21.3814 -242.943 21.2633C-242.372 14.8372 -247.285 16.8453 -250.348 16.0657C-254.188 16.2783 -257.913 15.4042 -261.661 14.8608C-263.421 13.9158 -265.364 14.0575 -267.238 14.0103C-271.946 13.8922 -276.677 14.2938 -281.339 13.7977C-288.31 13.0417 -295.281 12.1675 -302.297 11.884C-308.308 10.6791 -314.319 9.66322 -320.467 10.0176C-323.072 8.12757 -326.089 9.37971 -328.855 8.85996C-336.283 6.35566 -344.282 8.95444 -351.733 6.23752C-352.281 6.04853 -353.127 6.75733 -353.835 7.04084C-354.75 7.08808 -355.664 7.13532 -356.578 7.18256C-365.971 6.99356 -375.433 7.0408 -384.027 2.15036C-387.752 0.614717 -391.638 1.15808 -395.477 1.25259C-397.397 0.874573 -398.38 3.75687 -401.031 2.22122C-405.145 -0.141297 -408.299 1.91412 -409.647 6.87543C-409.944 8.00943 -410.744 9.80496 -411.43 8.31656C-413.51 3.89865 -419.429 4.84363 -421.075 0.260343C-423.292 0.260343 -425.509 0.260343 -427.726 0.260343C-429.051 -0.755557 -430.354 -0.920932 -432.091 -0.661044C-436.982 0.0713161 -441.05 3.07174 -445.758 4.2294C-449.346 5.59967 -450.969 8.7182 -452.386 12.0494C-453.94 15.664 -455.472 19.2787 -457.026 22.8934C-458.648 23.4131 -458.488 25.2795 -459.403 26.3191C-460.957 28.0673 -462.351 31.2567 -464.774 30.4062C-471.95 27.8547 -474.053 33.3358 -477.207 37.7064C-478.967 40.1399 -479.652 44.605 -484.452 42.8095C-485.48 42.4315 -485.709 44.0144 -486.303 44.7232C-488.154 46.9439 -487.423 49.6372 -487.537 52.1887C-491.423 52.0234 -495.331 51.8816 -499.216 51.7162C-508.861 51.2674 -517.043 54.5985 -523.739 61.8042C-526.482 64.1904 -527.968 67.2617 -528.288 70.9236C-530.367 72.9318 -529.27 75.436 -529.293 77.7513C-530.527 81.6968 -530.23 85.3351 -527.305 88.4772L-527.259 88.43ZM-3.30826 10.8918C-3.44541 11.0335 -3.53684 11.1516 -3.67392 11.2934C-3.74253 11.128 -3.85672 11.0099 -3.99387 10.8918L-3.33115 10.8918L-3.30826 10.8918ZM-337.563 11.1752C-337.563 11.1752 -337.563 11.1516 -337.585 11.128C-337.563 11.128 -337.54 11.128 -337.517 11.1044C-337.517 11.128 -337.54 11.1516 -337.563 11.1752ZM-495.719 220.992C-496.085 220.755 -496.382 220.425 -496.611 219.999C-496.336 220.33 -496.039 220.661 -495.719 220.992Z" fill="#F1D8C2"/>
</g>
<rect y="39.9824" width="320" height="1713.81" fill="#F1D8C2"/>
<path d="M97.6941 633.721C97.6891 633.727 97.6792 633.732 97.6742 633.737C97.6841 633.721 97.699 633.706 97.709 633.69C97.704 633.706 97.699 633.711 97.6941 633.721Z" fill="black"/>
<path d="M33.2007 687.576C33.2599 687.532 33.3142 687.488 33.3735 687.448C33.4228 687.443 33.4623 687.434 33.5117 687.429C33.4772 687.448 33.4475 687.468 33.4179 687.488C33.3438 687.522 33.2698 687.542 33.2007 687.576Z" fill="black"/>
<path d="M-148.809 567.051C-141.774 533.502 -126.882 503.803 -103.622 478.485C-93.495 467.463 -80.6774 458.652 -71.6764 446.903C-65.5243 438.877 -60.2314 431.807 -49.9022 430.006C-43.123 428.826 -38.4768 424.669 -34.2504 419.746C-31.6829 416.755 -28.1674 414.359 -24.41 414.993C-16.52 416.325 -12.2737 411.9 -7.85963 406.811C-5.16871 403.708 -2.39875 399.463 2.66215 401.171C11.9002 404.289 19.5631 394.184 28.8307 398.443C29.1171 398.575 30.0848 397.507 30.5934 396.887C38.3946 387.339 47.3857 387.578 56.9595 393.886C61.6896 397.004 66.3604 397.097 71.4312 394.867C82.7725 389.881 93.8473 385.929 103.974 397.848C105.934 400.156 110.872 399.995 114.432 400.971C114.782 398.307 116.703 394.296 124.055 393.569L141.691 401.317C150.268 406.401 149.7 412.881 150.603 415.433C151.626 418.321 154.4 417.345 156.548 417.716C167.613 419.643 179.478 420.365 185.358 432.051C189.99 441.253 196.24 448.454 205.804 452.943C215.181 457.349 224.68 462.945 226.507 473.714C229.302 490.195 240.243 503.881 241.591 520.695C242.534 532.443 254.883 540.962 251.328 554.136C246.696 571.301 248.859 589.134 241.645 606.655C232.679 628.43 229.771 652.143 214.914 672.289C200.679 691.59 185.422 709.667 168.423 726.481C165.717 729.159 162.69 730.613 158.77 730.555C152.865 730.467 148.461 733.151 146.792 738.82C145.138 744.441 141.321 748.09 136.102 749.257C126.153 751.481 116.732 752.257 108.758 761.157C100.059 770.861 84.2192 757.209 73.9987 767.778C73.7024 768.085 72.3792 767.646 71.6633 767.295C66.4592 764.738 62.5882 767.407 58.6629 770.305C57.0039 771.53 54.9697 773.413 53.2761 773.257C39.8413 771.998 25.6905 777.502 12.9173 768.851C10.5868 767.27 5.70363 766.758 3.46696 768.119C-4.44286 772.93 -12.1207 770.759 -19.7145 768.529C-32.2952 764.831 -46.5052 764.899 -55.3679 752.36C-57.9206 748.749 -63.8258 748.598 -68.6843 748.378C-71.4295 748.256 -74.5895 748.408 -76.8114 747.139C-97.0352 735.61 -113.591 720.294 -127.489 701.563C-150.148 671.035 -149.585 635.524 -151.955 600.502C-152.246 589.202 -151.13 578.102 -148.809 567.051ZM-108.747 689.663C-101.079 705.257 -87.5108 711.346 -70.9012 712.327C-85.8469 708.526 -98.1659 701.007 -107.177 688.502C-107.651 687.843 -108.599 687.516 -109.325 687.038C-109.137 687.916 -109.132 688.882 -108.747 689.663ZM-5.28717 712.38C27.6852 702.768 60.2083 691.683 90.0997 674.562C116.698 659.33 135.228 638.252 132.996 605.625C131.056 577.253 121.295 552.448 101.737 530.111C85.4486 511.512 67.4565 499.895 43.2284 502.388C19.573 504.823 -4.88728 505.033 -26.9923 516.03C-27.8169 516.44 -28.9179 516.298 -29.8906 516.411C-22.7905 510.034 -13.755 507.565 -4.84285 506.125C12.147 503.388 29.2849 500.905 46.4525 500.095C69.3081 499.012 86.4855 508.965 101.525 526.71C116.416 544.28 128.35 562.289 132.755 584.83C138.072 612.032 136.808 637.808 115.177 658.661C99.2439 674.021 79.9483 684.13 59.4381 692.127C47.7264 696.694 35.911 701.012 24.3574 705.974C53.1527 697.084 81.9628 688.063 107.248 671.186C137.712 650.85 144.876 621.273 138.739 587.646C132.36 552.711 111.711 526.223 83.6613 505.481C64.2027 491.088 41.1151 493.118 18.941 496.948C0.519277 500.129 -18.7319 502.261 -33.8998 515.201C-35.0749 516.206 -36.3389 517.108 -38.6596 518.914C-34.759 517.806 -32.3396 517.123 -29.9251 516.435C-39.8297 523.451 -49.7343 530.467 -59.6388 537.484C-60.7695 538.191 -61.8755 538.952 -62.9272 539.816C-61.8311 539.04 -60.735 538.264 -59.6388 537.484C-50.7218 531.921 -39.6569 530.477 -31.199 523.056C-26.4295 518.87 -16.6286 518.792 -9.094 517.255C13.6381 512.615 36.3801 507.082 59.996 510.361C71.7571 511.995 81.7011 516.855 89.3492 525.793C105.776 544.997 122.959 563.553 127.116 590.115C131.486 618.043 120.44 648.454 100.513 659.33C111.484 647.888 121.556 635.607 124.188 619.648C129.012 590.402 121.082 564.377 100.503 542.763C91.3144 533.107 85.0932 520.494 71.0016 515.469C54.866 509.712 38.7699 512.176 22.6688 513.771C-7.0844 516.713 -35.0996 525.94 -59.8067 542.333C-82.0105 557.063 -98.4325 577.507 -108.851 602.195C-109.892 604.664 -110.381 607.362 -110.845 610.021C-104.135 595.594 -96.8525 581.693 -83.3387 572.159C-81.3983 576.18 -80.154 572.272 -79.4084 571.52C-62.8383 554.839 -43.2612 545.319 -19.8083 539.874C-0.448472 535.376 18.0868 526.559 37.9947 522.719C17.7461 526.144 -2.48768 528.394 -22.3709 534.902C-35.6971 539.264 -49.2405 542.143 -60.2461 551.047C-68.3238 557.585 -75.6412 565.051 -83.2943 572.106C-74.5796 558.025 -62.3544 547.222 -47.5272 540.523C-24.8643 530.282 -0.557069 525.135 24.2093 522.09C33.8176 520.909 43.2926 519.192 53.0687 519.119C68.3354 518.997 79.5928 525.037 89.9566 536.205C99.1699 546.129 110.171 554.487 115.345 567.397C129.575 602.883 117.873 637.266 82.891 662.062C67.58 672.913 51.6566 682.915 35.5308 693.62C58.9394 685.408 79.5336 672.976 99.8364 659.998C87.6903 673.303 71.4608 680.466 55.5276 687.648C18.0868 704.525 -20.1835 718.689 -62.5174 715.849C-66.6007 715.576 -70.6741 715.108 -75.8782 714.625C-58.7254 720.089 -29.6585 719.484 -5.28717 712.38ZM-68.8669 719.25C-40.8221 724.817 -13.9228 719.796 12.5272 710.619C-14.1993 717.25 -40.8863 724.251 -68.8669 719.25ZM21.1925 694.864C-2.50736 699.987 -22.8251 712.283 -45.7793 712.429C-48.1839 712.375 -50.6033 712.268 -53.0424 712.058C-50.5885 712.327 -48.1691 712.444 -45.7793 712.429C-22.7066 712.966 -1.00637 706.633 21.1925 694.864ZM72.9075 643.633C72.4483 644.414 72.2557 645.351 71.9398 646.215C72.7742 645.956 73.8752 645.951 74.3986 645.405C92.055 626.869 110.467 604.083 100.518 574.472C100.093 573.204 99.1304 572.111 98.4144 570.935C98.6218 572.125 98.686 573.365 99.0662 574.496C104.488 590.622 95.0125 623.59 82.8663 630.758C87.9717 620.292 94.6768 610.529 97.4763 599.038C102.404 578.834 86.3275 554.565 64.3015 548.598C36.8195 541.153 11.8359 551.028 -14.1697 557.727C-42.0664 564.914 -62.8581 581.893 -84.3953 598.643C-105.222 614.847 -115.314 658.559 -102.6 678.339C-101.484 680.076 -99.8545 681.486 -98.4671 683.052C-98.9806 681.193 -99.2916 679.256 -100.037 677.495C-111.048 651.382 -100.284 620.926 -74.4808 598.995C-41.78 571.198 -2.55676 561.216 38.5674 556.839C66.1678 553.902 86.6386 570.549 85.8585 592.705C85.5869 600.39 81.3357 606.874 78.4473 613.749C78.2548 614.212 77.2228 614.33 76.581 614.613C76.813 613.232 76.739 611.705 77.3265 610.499C81.8887 601.151 85.9671 591.812 81.706 581.142C75.4898 565.573 62.0599 559.308 47.124 559.766C-2.60119 561.308 -48.49 573.799 -83.5263 611.768C-95.8799 625.156 -103.572 640.677 -101.894 660.008C-98.4769 648.649 -96.6994 637.008 -87.2491 628.962C-74.392 618.277 -60.3646 609.694 -44.7425 603.283C-22.1091 593.998 0.198337 583.733 25.1079 582.371C33.6744 581.903 42.7791 581.454 50.4321 587.094C6.98244 581.942 -7.22762 591.061 -27.7132 599.36C-10.8715 595.174 6.11837 591.808 23.3946 590.012C29.5022 589.378 35.3432 588.846 40.6016 593.462C51.7159 603.215 42.5421 611.085 37.3972 617.677C23.4834 635.49 6.33065 650.171 -11.8639 663.765C-21.6302 671.064 -30.8238 678.866 -45.1079 680.803C-37.9485 681.222 -31.2188 679.568 -24.6618 676.197C1.04754 662.984 24.1006 646.659 40.3103 622.248C41.2435 620.843 43.0012 619.98 44.3739 618.862C33.7929 638.403 17.1783 651.991 -0.502781 664.97C-22.7806 681.325 -47.0236 687.414 -74.1846 682.54C-77.6458 681.92 -81.3785 681.344 -83.3189 677.714C-78.89 677.49 -75.3647 681.808 -70.5951 680.217C-97.761 663.282 -97.7215 653.675 -70.4173 618.921C-93.7715 633.373 -97.7116 651.24 -83.3633 677.675C-91.8706 674.411 -95.786 663.257 -94.606 645.678C-106.184 668.863 -94.0332 685.594 -64.6998 687.55C-42.7379 689.014 -21.7289 689.243 -3.99356 672.464C2.14371 666.653 13.7566 668.834 20.4173 661.935C30.1441 651.865 39.5895 641.535 49.2225 631.377C51.4394 629.035 53.918 626.932 56.2731 624.722C53.755 628.289 51.9183 632.719 48.6003 635.28C34.7507 645.975 28.1839 664.97 9.88073 670.083C0.593352 672.679 -7.38067 676.392 -14.1845 682.784C-14.4906 683.037 -14.8066 683.267 -15.1029 683.54C-15.1621 683.584 -15.2165 683.628 -15.2708 683.671C-42.0763 695.577 -68.1461 692.62 -93.7419 679.817C-94.2752 679.549 -94.922 679.51 -95.5145 679.363C-95.4306 680.115 -95.5342 680.944 -95.238 681.603C-93.0951 686.394 -89.8956 691.434 -84.7211 691.79C-62.7593 693.293 -40.5358 696.235 -19.4281 686.682C-17.8975 685.989 -16.6335 684.716 -15.2658 683.676C-15.1967 683.647 -15.1276 683.623 -15.0584 683.589C-14.7721 683.306 -14.4709 683.057 -14.1796 682.784C-3.35663 673.743 11.362 677.856 23.286 672.493C23.8883 672.22 24.777 672.557 25.5325 672.611C25.1523 673.255 24.9301 674.182 24.3672 674.484C22.4959 675.484 20.3728 677.207 18.5657 676.972C1.39814 674.767 -10.8665 685.657 -25.042 691.888C-40.4716 698.67 -57.4663 693.815 -73.681 695.43C-74.861 695.547 -76.0164 695.894 -77.1817 696.133C-76.1991 696.689 -75.2807 697.548 -74.229 697.753C-49.7886 702.627 -25.3333 706.711 -3.62819 689.522C3.51139 683.867 11.362 687.833 18.8175 686.931C30.0404 685.569 38.1823 680.422 42.4976 670.386C48.1214 657.31 62.287 653.28 70.6659 643.189C74.3443 638.759 78.7485 634.91 82.8219 630.797C82.0517 636.993 75.6626 638.94 72.9075 643.633ZM74.3739 546.217C63.2449 539.523 54.0316 538.274 44.9664 538.367C9.69804 538.723 -24.2026 545.549 -54.7458 563.636C-62.6754 568.334 -68.4621 576.58 -75.177 583.254C-75.7646 583.84 -75.9029 584.869 -76.2534 585.694C-75.4388 585.313 -74.4611 585.109 -73.839 584.533C-42.175 555.322 -2.17165 546.686 38.6217 540.216C49.7557 538.45 60.4749 541.416 74.3739 546.217ZM-60.2313 616.067C-72.8416 622.478 -81.4427 633.182 -85.9901 646.361C-92.5964 665.497 -80.1293 678.739 -53.3337 678.69C-31.4903 680.564 -16.8606 663.004 -0.231196 649.752C13.2185 639.032 24.6783 626.181 35.6 612.934C38.9328 608.889 40.5078 604.147 38.5427 599.302C36.6665 594.676 32.0154 594.379 27.5568 594.672C-2.99129 596.677 -32.7593 602.102 -60.2313 616.067ZM-99.9483 686.653C-100.867 685.882 -102.141 685.53 -103.251 684.979C-102.738 686.057 -102.363 687.233 -101.686 688.204C-91.4411 702.89 -75.4289 702.383 -60.182 703.881C-75.182 702.129 -88.3996 696.333 -99.9483 686.653ZM-111.798 668.171C-114.608 643.37 -110.164 623.068 -97.0747 606.586C-79.8084 584.85 -64.8972 559.137 -35.6279 550.813C-5.8402 542.343 23.8389 531.072 55.967 536.903C69.4364 539.347 79.499 547.012 89.9862 555.556C101.145 564.646 103.831 575.76 105.515 588.168C107.559 603.283 100.256 615.559 92.4352 627.484C81.5974 644.004 66.2172 655.817 50.0618 666.824C47.914 668.288 45.7415 670.786 45.1342 673.186C43.4505 679.89 39.3031 684.223 33.5114 687.433C33.467 687.438 33.4225 687.448 33.3732 687.453C33.3139 687.492 33.2596 687.541 33.2004 687.58C22.9848 692.337 10.9867 686.218 1.16609 692.249C-20.2921 705.423 -43.8291 707.721 -68.2004 705.935C-73.5279 705.545 -78.7912 704.296 -87.2541 702.934C-60.2461 714.122 -36.2797 710.97 -12.802 702.92C1.02286 698.177 14.9071 693.918 29.0578 690.351C30.5786 689.97 31.8327 688.575 33.1954 687.585C33.2646 687.55 33.3386 687.531 33.4078 687.497C33.4423 687.477 33.4719 687.458 33.5016 687.438C37.5108 687.16 40.3943 684.716 43.0654 682.183C60.7366 665.453 82.2887 652.997 97.6639 633.744C97.6689 633.739 97.6787 633.734 97.6837 633.729C91.3045 646.258 80.6099 654.787 69.866 663.35C62.7215 669.044 54.2439 673.133 48.5164 680.529C48.077 681.1 47.8893 681.856 47.5832 682.53C48.0177 682.447 48.546 682.496 48.8669 682.261C68.1971 668.146 89.9911 657.319 104.66 637.193C127.308 606.123 123.082 568.227 92.9832 542.411C90.2973 540.109 87.7989 537.581 84.8413 535.39C93.4375 547.403 101.174 559.81 108.057 572.921C119.364 594.467 113.558 612.959 101.007 631.114C100.241 632.216 98.8144 632.875 97.6837 633.734C97.6886 633.724 97.6936 633.714 97.6985 633.705C97.6886 633.719 97.6738 633.734 97.6639 633.748C97.659 633.753 97.6541 633.753 97.6491 633.758C100.577 628.167 103.224 622.414 106.482 617.018C116.179 600.966 111.588 585.811 103.944 570.774C95.1656 553.502 87.162 535.127 67.9206 526.793C54.0118 520.768 39.2685 524.681 25.3202 528.443C-1.69762 535.732 -30.1128 541.05 -54.0545 555.034C-94.0875 578.405 -120.202 621.907 -111.798 668.171ZM-130.931 645.727C-130.931 638.764 -131.321 631.772 -130.822 624.839C-130.319 617.906 -129.464 610.904 -127.82 604.157C-123.609 586.841 -117.279 570.442 -104.116 557.503C-105.745 560.957 -107.374 564.406 -109.009 567.861C-105.666 566.134 -105.365 561.259 -101.148 560.435C-107.127 572.267 -115.412 582.771 -119.777 595.623C-124.813 610.451 -124.971 625.581 -125.628 640.823C-123.801 619.233 -119.348 598.453 -107.532 579.766C-94.448 559.069 -78.0013 541.924 -57.0269 528.579C-42.6046 519.402 -31.041 505.057 -13.8833 500.968C18.1065 493.342 51.5974 480.93 82.3726 501.651C125.679 530.814 150.796 575.78 141.173 629.372C136.226 656.924 116.263 673.884 92.4154 685.213C56.1102 702.466 18.3583 716.43 -21.3735 724.193C-36.1711 727.086 -51.2057 728.232 -66.2402 725.095C-48.2876 729.696 -29.9745 730.526 -12.2836 725.676C15.5835 718.035 44.5022 714.664 71.8163 704.91C90.9984 698.06 108.916 689.058 124.415 675.733C126.242 674.162 128.429 673.006 130.449 671.659C119.581 686.004 103.643 693.254 88.1001 700.939C60.6428 714.512 29.9269 716.693 0.948866 724.973C-25.511 732.531 -51.7981 733.512 -78.0852 724.627C-88.2268 721.197 -97.2821 715.737 -105.779 709.404C-91.999 722.861 -75.4338 729.608 -56.0691 731.716C-26.4936 734.927 1.092 725.081 29.596 721.167C55.5671 717.606 80.6494 712.297 103.372 698.665C134.754 679.841 155.457 653.431 163.396 617.642C164.542 612.48 162.661 608.284 160.36 604.205C151.275 588.104 151.27 569.398 145.469 552.672C128.405 503.476 79.889 458.896 20.7135 473.596C-8.73355 480.915 -39.6026 489.38 -59.3228 517.718C-60.9374 520.036 -62.8531 522.129 -64.9516 524.081C-69.0447 527.135 -73.128 530.199 -77.0878 533.395C-82.8005 537.347 -88.6267 541.314 -93.3519 546.315C-96.8822 550.052 -98.8917 555.273 -104.071 557.459C-98.6794 546.495 -90.0586 538.05 -80.075 531.658C-65.9884 522.641 -55.9901 509.687 -44.1451 498.519C-43.6859 498.085 -43.6365 497.231 -43.3946 496.567C-43.9426 496.845 -44.6141 497.006 -45.024 497.421C-72.3528 525.027 -107.952 545.066 -123.475 583.469C-131.681 603.766 -132.629 624.488 -130.931 645.727ZM-142.114 600.439C-136.525 571.237 -124.117 546.403 -106.357 524.115C-103.972 521.119 -100.763 518.767 -97.9388 516.118C-105.394 526.935 -113.329 537.464 -120.192 548.637C-130.245 565.007 -136.318 582.967 -139.453 601.888C-135.123 584.338 -129.06 567.475 -119.338 552.082C-118.434 550.652 -116.943 549.589 -115.724 548.354C-120.251 557.956 -124.779 567.563 -129.311 577.17C-122.69 567.602 -119.14 556.19 -109.848 548.423C-116.829 561.957 -125.539 574.614 -129.869 589.485C-133.118 600.639 -135.878 611.714 -134.609 622.946C-131.83 574.414 -103.409 541.65 -65.6477 513.893C-53.8472 505.218 -45.5868 491.356 -31.1694 486.263C-4.40339 476.812 19.0397 456.783 49.4594 458.998C84.002 461.516 110.309 479.827 132.439 504.886C133.016 505.54 133.011 506.701 133.278 507.628C122.174 498.812 113.508 487.346 101.229 479.739C72.9815 462.248 43.732 454.173 11.7076 469.215C5.07655 472.328 -0.47314 477.607 -8.06203 478.905C-8.85696 479.042 -9.49394 480.056 -10.2099 480.666C-9.27669 480.652 -8.33362 480.735 -7.42019 480.603C2.59299 479.178 10.1967 472.045 19.7063 469.4C58.6777 458.564 90.9441 470.825 118.13 498.324C133.861 514.239 148.727 531.941 151.547 554.595C152.139 559.337 153.067 563.987 154.173 568.573C154.81 573.003 155.985 577.297 157.659 581.459C160.464 591.144 163.406 600.697 164.927 610.465C168.131 631.084 156.336 650.054 143.568 666.541C120.737 696.021 89.7393 714.332 53.3156 719.606C22.2589 724.105 -7.65717 734.58 -39.252 736.283C-33.6678 736.283 -28.0637 735.966 -22.5091 736.371C-16.7075 736.795 -11.4985 734.829 -6.12164 733.438C10.9472 729.023 28.3962 727.13 45.8897 725.315C62.0796 723.636 76.9957 717.513 91.897 711.482C93.8522 710.692 95.9507 710.258 97.9849 709.653C93.1462 714.668 86.4757 716.215 80.3038 718.616C63.1511 725.295 45.312 728.964 28.495 729.442C63.9608 736.834 95.1261 724.978 122.455 700.758C123.852 699.524 125.827 698.924 127.531 698.031C115.844 711.536 100.819 720.236 84.5797 727.203C71.3077 732.897 57.8186 734.658 43.2135 732.746C28.1296 730.77 13.095 734.073 -1.53965 738.088C-26.8343 745.026 -50.9884 739.362 -75.0042 731.916C-78.2185 730.921 -81.3143 729.55 -86.8591 727.447C-76.8607 734.829 -67.3857 737.156 -58.0835 738.947C-44.7326 741.518 -31.0954 744.182 -17.6111 744.046C-7.62264 743.943 2.19306 738.566 12.3198 737.127C24.9893 735.327 37.7132 735.815 50.521 738.566C71.8262 743.143 89.5862 732.57 106.818 722.597C117.35 716.503 126.597 708.238 136.418 700.948C124.756 716.21 108.457 725.232 91.5217 733.307C75.2775 741.05 58.8159 744.236 40.5078 739.581C23.5131 735.258 6.34549 738.986 -9.73583 745.417C-18.959 749.105 -27.5897 744.016 -37.5832 745.602C-21.7141 748.773 -7.61765 751.501 7.42188 743.885C17.8152 738.62 30.8551 741.064 41.9397 743.929C59.6652 748.515 75.6972 744.197 92.0155 739.02C100.157 741.421 106.384 736.166 112.442 732.892C159.353 707.545 196.453 672.147 212.169 620.882C225.732 576.629 216.479 534.585 185.166 498.68C164.962 475.509 141.815 455.739 113.365 443.302C70.8584 424.722 29.0381 427.181 -10.6048 451.431C-32.3889 464.751 -56.9331 472.943 -77.231 489.136C-108.303 513.922 -128.995 544.934 -139.527 582.752C-141.013 588.056 -143.645 593.335 -142.114 600.439ZM-102.422 508.648C-81.9661 485.555 -55.7333 471.201 -28.434 457.803C-8.19041 447.869 10.4683 435.139 33.4472 430.846C67.101 424.556 98.4688 430.26 127.447 447.127C159.313 465.673 186.879 489.493 204.955 521.895C220.854 550.399 223.925 581.181 216.973 613.115C206.979 659.017 176.461 690.458 141.385 718.567C121.107 734.819 97.3381 744.182 71.92 749.593C60.7317 751.974 50.0273 748.31 39.1796 746.915C26.362 745.265 13.7072 746.09 1.76844 750.291C-15.1918 756.258 -30.9818 750.018 -47.2013 747.666C-47.9716 747.554 -48.7369 747.402 -52.3215 746.788C-34.3837 754.341 -18.4603 758.419 -2.01363 760.747C13.5246 762.942 29.1467 762.747 44.7541 762.489C94.7064 761.664 136.808 743.353 171.647 707.765C199.47 679.344 216.874 646.01 224.764 607.387C233.217 566.021 222.641 528.608 200.121 494.225C172.758 452.446 132.409 429.226 83.8588 418.833C38.1576 409.051 -3.87014 420.195 -43.2662 442.277C-92.7495 470.015 -128.857 508.653 -140.105 565.948C-140.544 568.178 -140.613 570.481 -141.048 572.711C-141.438 574.697 -142.095 576.629 -142.633 578.585C-133.582 552.765 -120.715 529.301 -102.422 508.648Z" fill="white" fill-opacity="0.3"/>
<path d="M66.094 606.655C80.4077 586.533 60.6183 566.875 40.7055 568.115C15.9787 569.652 -7.27184 576.892 -30.2409 585.348C-43.7795 590.329 -56.3108 597.336 -68.7829 604.43C-67.5287 602.961 -66.556 601.005 -64.976 600.102C-29.92 580.088 7.0715 565.758 48.2401 566.548C60.1789 566.778 68.9972 574.628 72.3497 586.543C75.0456 596.121 71.856 604.391 64.8053 611.29C65.2151 609.738 65.2151 607.894 66.094 606.655Z" fill="white" fill-opacity="0.3"/>
<path d="M12.1921 445.302C-3.62265 451.006 -15.4281 463.36 -30.2356 470.884C-49.7879 480.818 -68.7626 491.805 -86.34 504.979C-85.1896 501.066 -81.763 499.202 -78.8252 496.943C-61.8551 483.906 -41.1523 476.724 -24.0983 464.146C8.68645 439.97 43.5302 427.987 84.205 440.199C103.051 445.859 119.439 455.588 133.259 469.483C128.395 468.698 125.428 464.897 121.838 462.213C88.3278 437.145 51.8399 431.002 12.1921 445.302Z" fill="white" fill-opacity="0.3"/>
<path d="M195.564 590.564C193.189 575.712 185.398 562.084 186.045 546.515C186.558 534.225 180.742 524.057 173.469 514.508C169.667 509.517 166.458 504.091 162.982 498.856C173.79 508.609 182.337 520.222 186.484 533.932C189.541 544.041 187.961 555.61 191.466 565.475C201.282 593.101 202.734 620.078 189.526 646.815C183.369 659.276 176.955 671.733 165.584 680.666C166.631 678.861 167.485 676.905 168.754 675.27C188.222 650.284 200.793 623.229 195.564 590.564Z" fill="white" fill-opacity="0.3"/>
<path d="M118.406 724.881C130.636 713.942 142.867 703.003 155.097 692.064C145.029 705.364 133.164 716.703 118.406 724.881Z" fill="white" fill-opacity="0.3"/>
<path d="M162.942 498.807C153.067 489.049 143.193 479.291 133.318 469.532C145.424 477.085 155.388 486.756 162.942 498.807Z" fill="white" fill-opacity="0.3"/>
<path d="M54.1463 478.793C70.4498 479.471 86.0225 486.048 97.6602 498.812C90.3725 494.86 83.2921 490.469 75.7625 487.034C41.931 471.601 9.97567 484.726 -21.5599 494.923C-43.665 502.071 -55.0014 524.696 -74.8846 535.761C-85.6433 541.753 -91.5485 553.009 -101.103 560.377C-100.011 558.459 -99.0633 556.444 -97.8043 554.644C-92.0126 546.349 -84.7941 539.606 -77.0867 533.39C-72.8009 530.424 -68.5893 527.462 -64.9504 524.076C-58.1367 518.987 -51.3082 513.903 -45.0623 508.18C-17.7284 483.14 17.9991 477.29 54.1463 478.793Z" fill="white" fill-opacity="0.3"/>
<path d="M151.591 589.603C155.63 607.87 159.185 625.098 151.043 642.658C147.636 650.006 145.474 658.291 137.919 663.097C138.532 661.599 138.932 659.969 139.791 658.622C151.655 639.999 158.519 620.707 151.181 598.312C143.983 576.351 141.05 553.107 127.23 533.273C118.481 520.714 107.144 510.649 97.7087 498.856C99.7577 500.066 102.088 500.974 103.811 502.54C129.763 526.179 144.076 555.624 151.591 589.603Z" fill="white" fill-opacity="0.3"/>
<path d="M141.094 501.31C156.134 518.772 170.516 536.713 164.996 562.255C163.945 567.129 165.767 571.54 168.517 576.004C176.269 588.583 185.981 601.21 183.398 616.872C179.295 641.76 168.013 663.326 148.085 679.851C152.796 673.655 157.857 667.692 162.147 661.228C177.834 637.593 189.96 613.456 171.785 585.47C167.258 578.497 161.071 571.979 162.809 562.494C167.169 538.703 155.393 520.826 140.511 504.296C132.478 495.372 123.862 486.965 115.508 478.324C126.435 483.369 133.624 492.64 141.094 501.31Z" fill="white" fill-opacity="0.3"/>
<path d="M174.387 571.12C171.331 567.695 171.163 563.241 172.526 559.04C176.723 546.11 174.649 534.025 167.894 522.52C164.379 516.533 160.671 510.654 157.052 504.725C170.077 517.65 179.621 532.654 176.278 551.399C174.308 562.46 176.55 570.276 183.013 579.098C197.707 599.161 193.821 620.717 185.027 641.819C178.777 656.817 170.161 670.381 157.027 680.642C162.517 673.387 168.847 666.605 173.35 658.793C190.784 628.552 200.185 600.015 174.387 571.12Z" fill="white" fill-opacity="0.3"/>
<path d="M69.8553 443.088C82.3915 445.166 94.2365 449.094 103.662 458.144C101.964 457.544 100.137 457.169 98.5864 456.31C64.5376 437.462 31.4319 441.482 -1.12578 460.164C-8.73442 464.531 -15.1926 471.02 -24.3763 472.474C-22.1347 470.898 -19.8881 469.327 -17.6515 467.742C8.5418 449.196 36.7792 437.599 69.8553 443.088Z" fill="white" fill-opacity="0.3"/>
<path d="M5.84221 463.043C29.9469 449.782 54.8367 443.044 81.2917 456.1C93.5119 462.131 106.285 467.576 115.464 478.29C109.228 474.47 102.977 470.669 96.7558 466.819C76.3295 454.192 54.975 447.362 30.6629 454.836C20.8916 457.842 11.8165 462.101 2.75135 466.561C3.76847 465.365 4.54859 463.75 5.84221 463.043Z" fill="white" fill-opacity="0.3"/>
<path d="M157.007 504.672C145.043 492.937 133.08 481.203 121.116 469.469C136.171 478.12 148.218 489.771 157.007 504.672Z" fill="white" fill-opacity="0.3"/>
<path d="M-41.7598 487.092C-28.1374 477.715 -11.8684 473.948 2.71191 466.595C-10.1206 477.651 -26.5771 481.023 -41.7598 487.092Z" fill="white" fill-opacity="0.3"/>
<path d="M154.143 553.058C155.175 545.471 152.874 539.079 148.85 532.849C143.498 524.554 138.466 516.055 133.302 507.643C144.594 519.563 155.693 532.371 156.621 549.091C157.451 563.973 156.597 578.508 165.82 591.501C173.705 602.601 177.181 614.301 172.11 628.172C163.386 652.036 151.496 673.421 130.275 688.683C131.238 687.39 132.028 685.921 133.188 684.828C148.534 670.328 159.831 653.212 167.637 633.724C172.915 620.541 174.377 607.807 165.43 595.389C162.211 590.925 159.614 586.275 157.668 581.445C156.434 577.185 155.229 572.897 154.182 568.559C153.461 563.563 153.417 558.396 154.143 553.058Z" fill="white" fill-opacity="0.3"/>
<path d="M154.179 568.559C155.225 572.901 156.43 577.185 157.664 581.445C155.99 577.288 154.815 572.989 154.179 568.559Z" fill="black"/>
<path d="M2.43487 642.282C-2.15204 646.512 -5.37122 652.484 -12.0763 654.221C-2.55192 643.985 6.85393 633.646 16.5412 623.561C21.5725 618.326 20.8467 614.983 14.2947 611.905C-6.497 602.132 -25.8469 608.509 -44.8562 617.033C-57.7874 622.829 -70.1409 629.616 -78.3618 641.843C-83.003 648.747 -85.2249 655.758 -81.5465 663.789C-77.5521 672.503 -69.4398 671.801 -61.8164 672.435C-71.1433 670.044 -77.6953 664.98 -78.2532 654.89C-78.9691 641.941 -71.1185 633.768 -60.6659 628.313C-42.2393 618.701 -22.7314 616.018 -2.42359 622.219C2.55832 623.741 4.16793 626.479 0.721579 630.767C-3.86039 636.471 -8.49174 642.189 -15.2116 645.688C-10.9852 641.009 -6.71918 636.364 -2.54208 631.636C0.667274 628.006 1.12153 625.327 -4.81824 624.02C-25.7136 619.423 -45.6511 621.038 -63.7815 633.105C-74.7674 640.413 -79.5863 653.353 -73.9527 661.559C-66.7341 672.079 -56.479 671.445 -45.8535 666.819C-44.5303 666.243 -43.0145 666.092 -41.5875 665.746C-42.8565 667.058 -44.1254 668.371 -45.7251 670.015C-32.6409 668.151 -23.2943 659.261 -12.1257 654.255C-20.7169 668.419 -61.3473 680.422 -75.8783 672.596C-85.378 667.478 -88.5034 658.91 -84.5485 648.927C-77.4583 631.046 -61.9645 621.951 -45.345 614.7C-27.7972 607.045 -9.9927 600.624 9.82136 607.25C24.5301 612.168 26.1594 616.881 15.7414 627.918C11.2631 632.67 7.21927 637.867 2.43487 642.282Z" fill="white" fill-opacity="0.3"/>
<path d="M282.307 1503.42C282.312 1503.42 282.322 1503.43 282.327 1503.43C282.317 1503.42 282.302 1503.4 282.292 1503.39C282.297 1503.4 282.302 1503.41 282.307 1503.42Z" fill="black"/>
<path d="M528.809 1436.75C521.774 1403.2 506.882 1373.5 483.622 1348.18C473.495 1337.16 460.677 1328.35 451.676 1316.6C445.524 1308.57 440.231 1301.5 429.902 1299.7C423.123 1298.52 418.477 1294.37 414.25 1289.44C411.683 1286.45 408.167 1284.06 404.41 1284.69C396.52 1286.02 392.274 1281.6 387.86 1276.51C385.169 1273.4 382.399 1269.16 377.338 1270.87C368.1 1273.99 360.437 1263.88 351.169 1268.14C350.883 1268.27 349.915 1267.2 349.407 1266.58C341.605 1257.04 332.614 1257.27 323.041 1263.58C318.31 1266.7 313.64 1266.79 308.569 1264.56C297.227 1259.58 286.153 1255.63 276.026 1267.55C274.066 1269.85 269.128 1269.69 265.568 1270.67C265.218 1268 263.297 1263.99 255.945 1263.27L238.309 1271.01C229.732 1276.1 230.3 1282.58 229.397 1285.13C228.374 1288.02 225.6 1287.04 223.452 1287.41C212.387 1289.34 200.522 1290.06 194.642 1301.75C190.01 1310.95 183.76 1318.15 174.196 1322.64C164.819 1327.05 155.32 1332.64 153.493 1343.41C150.698 1359.89 139.757 1373.58 138.409 1390.39C137.466 1402.14 125.117 1410.66 128.672 1423.83C133.304 1441 131.141 1458.83 138.355 1476.35C147.321 1498.13 150.229 1521.84 165.086 1541.99C179.321 1561.29 194.578 1579.36 211.577 1596.18C214.283 1598.86 217.31 1600.31 221.23 1600.25C227.135 1600.16 231.539 1602.85 233.208 1608.52C234.862 1614.14 238.679 1617.79 243.898 1618.95C253.847 1621.18 263.268 1621.95 271.242 1630.85C279.941 1640.56 295.781 1626.91 306.001 1637.47C306.298 1637.78 307.621 1637.34 308.337 1636.99C313.541 1634.43 317.412 1637.1 321.337 1640C322.996 1641.23 325.03 1643.11 326.724 1642.95C340.159 1641.69 354.309 1647.2 367.083 1638.55C369.413 1636.97 374.296 1636.45 376.533 1637.82C384.443 1642.63 392.121 1640.46 399.714 1638.23C412.295 1634.53 426.505 1634.6 435.368 1622.06C437.921 1618.45 443.826 1618.29 448.684 1618.08C451.429 1617.95 454.59 1618.1 456.811 1616.84C477.035 1605.31 493.591 1589.99 507.489 1571.26C530.148 1540.73 529.585 1505.22 531.955 1470.2C532.246 1458.9 531.13 1447.8 528.809 1436.75ZM488.747 1559.36C481.079 1574.95 467.511 1581.04 450.901 1582.02C465.847 1578.22 478.166 1570.7 487.177 1558.2C487.651 1557.54 488.599 1557.21 489.325 1556.73C489.137 1557.61 489.132 1558.58 488.747 1559.36ZM385.287 1582.08C352.315 1572.47 319.792 1561.38 289.9 1544.26C263.302 1529.03 244.772 1507.95 247.004 1475.32C248.944 1446.95 258.705 1422.14 278.263 1399.81C294.551 1381.21 312.543 1369.59 336.772 1372.08C360.427 1374.52 384.887 1374.73 406.992 1385.73C407.817 1386.14 408.918 1386 409.891 1386.11C402.791 1379.73 393.755 1377.26 384.843 1375.82C367.853 1373.09 350.715 1370.6 333.547 1369.79C310.692 1368.71 293.514 1378.66 278.475 1396.41C263.584 1413.98 251.65 1431.99 247.245 1454.53C241.928 1481.73 243.192 1507.5 264.823 1528.36C280.756 1543.72 300.052 1553.83 320.562 1561.82C332.274 1566.39 344.089 1570.71 355.643 1575.67C326.847 1566.78 298.037 1557.76 272.752 1540.88C242.288 1520.55 235.124 1490.97 241.261 1457.34C247.64 1422.41 268.289 1395.92 296.339 1375.18C315.797 1360.78 338.885 1362.81 361.059 1366.64C379.481 1369.83 398.732 1371.96 413.9 1384.9C415.075 1385.9 416.339 1386.81 418.66 1388.61C414.759 1387.5 412.34 1386.82 409.925 1386.13C419.83 1393.15 429.734 1400.16 439.639 1407.18C440.77 1407.89 441.876 1408.65 442.927 1409.51C441.831 1408.74 440.735 1407.96 439.639 1407.18C430.722 1401.62 419.657 1400.17 411.199 1392.75C406.429 1388.57 396.629 1388.49 389.094 1386.95C366.362 1382.31 343.62 1376.78 320.004 1380.06C308.243 1381.69 298.299 1386.55 290.651 1395.49C274.224 1414.69 257.041 1433.25 252.884 1459.81C248.514 1487.74 259.56 1518.15 279.487 1529.03C268.516 1517.58 258.444 1505.3 255.812 1489.34C250.988 1460.1 258.918 1434.07 279.497 1412.46C288.686 1402.8 294.907 1390.19 308.998 1385.17C325.134 1379.41 341.23 1381.87 357.331 1383.47C387.084 1386.41 415.1 1395.64 439.807 1412.03C462.01 1426.76 478.432 1447.2 488.851 1471.89C489.892 1474.36 490.381 1477.06 490.845 1479.72C484.135 1465.29 476.853 1451.39 463.339 1441.86C461.398 1445.88 460.154 1441.97 459.408 1441.22C442.838 1424.54 423.261 1415.02 399.808 1409.57C380.448 1405.07 361.913 1396.26 342.005 1392.42C362.254 1395.84 382.488 1398.09 402.371 1404.6C415.697 1408.96 429.241 1411.84 440.246 1420.74C448.324 1427.28 455.641 1434.75 463.294 1441.8C454.58 1427.72 442.354 1416.92 427.527 1410.22C404.864 1399.98 380.557 1394.83 355.791 1391.79C346.182 1390.61 336.707 1388.89 326.931 1388.82C311.665 1388.69 300.407 1394.73 290.043 1405.9C280.83 1415.83 269.829 1424.18 264.655 1437.09C250.425 1472.58 262.127 1506.96 297.109 1531.76C312.42 1542.61 328.343 1552.61 344.469 1563.32C321.061 1555.11 300.466 1542.67 280.164 1529.69C292.31 1543 308.539 1550.16 324.472 1557.34C361.913 1574.22 400.184 1588.39 442.517 1585.55C446.601 1585.27 450.674 1584.8 455.878 1584.32C438.725 1589.79 409.659 1589.18 385.287 1582.08ZM448.867 1588.95C420.822 1594.51 393.923 1589.49 367.473 1580.32C394.199 1586.95 420.886 1593.95 448.867 1588.95ZM358.808 1564.56C382.507 1569.68 402.825 1581.98 425.779 1582.13C428.184 1582.07 430.603 1581.96 433.042 1581.76C430.588 1582.02 428.169 1582.14 425.779 1582.13C402.707 1582.66 381.006 1576.33 358.808 1564.56ZM307.093 1513.33C307.552 1514.11 307.744 1515.05 308.06 1515.91C307.226 1515.65 306.125 1515.65 305.601 1515.1C287.945 1496.57 269.533 1473.78 279.482 1444.17C279.907 1442.9 280.87 1441.81 281.586 1440.63C281.378 1441.82 281.314 1443.06 280.934 1444.19C275.512 1460.32 284.987 1493.29 297.134 1500.45C292.028 1489.99 285.323 1480.23 282.524 1468.74C277.596 1448.53 293.672 1424.26 315.699 1418.3C343.18 1410.85 368.164 1420.72 394.17 1427.42C422.066 1434.61 442.858 1451.59 464.395 1468.34C485.222 1484.54 495.314 1528.26 482.6 1548.04C481.484 1549.77 479.855 1551.18 478.467 1552.75C478.981 1550.89 479.292 1548.95 480.037 1547.19C491.048 1521.08 480.284 1490.62 454.481 1468.69C421.78 1440.9 382.557 1430.91 341.433 1426.54C313.832 1423.6 293.361 1440.25 294.142 1462.4C294.413 1470.09 298.664 1476.57 301.553 1483.45C301.745 1483.91 302.777 1484.03 303.419 1484.31C303.187 1482.93 303.261 1481.4 302.673 1480.2C298.111 1470.85 294.033 1461.51 298.294 1450.84C304.51 1435.27 317.94 1429 332.876 1429.46C382.601 1431.01 428.49 1443.5 463.526 1481.46C475.88 1494.85 483.572 1510.37 481.894 1529.7C478.477 1518.35 476.699 1506.7 467.249 1498.66C454.392 1487.97 440.365 1479.39 424.742 1472.98C402.109 1463.7 379.802 1453.43 354.892 1452.07C346.326 1451.6 337.221 1451.15 329.568 1456.79C373.018 1451.64 387.228 1460.76 407.713 1469.06C390.871 1464.87 373.882 1461.5 356.605 1459.71C350.498 1459.07 344.657 1458.54 339.398 1463.16C328.284 1472.91 337.458 1480.78 342.603 1487.37C356.517 1505.19 373.669 1519.87 391.864 1533.46C401.63 1540.76 410.824 1548.56 425.108 1550.5C417.949 1550.92 411.219 1549.27 404.662 1545.89C378.952 1532.68 355.899 1516.36 339.69 1491.95C338.756 1490.54 336.999 1489.68 335.626 1488.56C346.207 1508.1 362.822 1521.69 380.503 1534.67C402.781 1551.02 427.024 1557.11 454.185 1552.24C457.646 1551.62 461.378 1551.04 463.319 1547.41C458.89 1547.19 455.365 1551.5 450.595 1549.91C477.761 1532.98 477.722 1523.37 450.417 1488.62C473.772 1503.07 477.712 1520.94 463.363 1547.37C471.871 1544.11 475.786 1532.95 474.606 1515.37C486.184 1538.56 474.033 1555.29 444.7 1557.25C422.738 1558.71 401.729 1558.94 383.994 1542.16C377.856 1536.35 366.243 1538.53 359.583 1531.63C349.856 1521.56 340.411 1511.23 330.778 1501.07C328.561 1498.73 326.082 1496.63 323.727 1494.42C326.245 1497.99 328.082 1502.42 331.4 1504.98C345.249 1515.67 351.816 1534.67 370.119 1539.78C379.407 1542.38 387.381 1546.09 394.184 1552.48C394.491 1552.73 394.807 1552.96 395.103 1553.24C395.162 1553.28 395.216 1553.32 395.271 1553.37C422.076 1565.27 448.146 1562.32 473.742 1549.51C474.275 1549.25 474.922 1549.21 475.514 1549.06C475.431 1549.81 475.534 1550.64 475.238 1551.3C473.095 1556.09 469.896 1561.13 464.721 1561.49C442.759 1562.99 420.536 1565.93 399.428 1556.38C397.897 1555.69 396.634 1554.41 395.266 1553.37C395.197 1553.34 395.128 1553.32 395.058 1553.29C394.772 1553 394.471 1552.75 394.18 1552.48C383.357 1543.44 368.638 1547.55 356.714 1542.19C356.112 1541.92 355.223 1542.25 354.468 1542.31C354.848 1542.95 355.07 1543.88 355.633 1544.18C357.504 1545.18 359.627 1546.9 361.434 1546.67C378.602 1544.46 390.867 1555.35 405.042 1561.58C420.472 1568.37 437.466 1563.51 453.681 1565.13C454.861 1565.24 456.016 1565.59 457.182 1565.83C456.199 1566.39 455.281 1567.24 454.229 1567.45C429.789 1572.32 405.333 1576.41 383.628 1559.22C376.489 1553.56 368.638 1557.53 361.182 1556.63C349.96 1555.27 341.818 1550.12 337.502 1540.08C331.879 1527.01 317.713 1522.98 309.334 1512.89C305.656 1508.46 301.251 1504.61 297.178 1500.49C297.948 1506.69 304.337 1508.64 307.093 1513.33ZM305.626 1415.91C316.755 1409.22 325.968 1407.97 335.034 1408.06C370.302 1408.42 404.203 1415.25 434.746 1433.33C442.675 1438.03 448.462 1446.28 455.177 1452.95C455.765 1453.54 455.903 1454.57 456.253 1455.39C455.439 1455.01 454.461 1454.81 453.839 1454.23C422.175 1425.02 382.172 1416.38 341.378 1409.91C330.244 1408.15 319.525 1411.11 305.626 1415.91ZM440.231 1485.76C452.842 1492.17 461.443 1502.88 465.99 1516.06C472.596 1535.19 460.129 1548.44 433.334 1548.39C411.49 1550.26 396.861 1532.7 380.231 1519.45C366.782 1508.73 355.322 1495.88 344.4 1482.63C341.067 1478.59 339.492 1473.84 341.457 1469C343.334 1464.37 347.985 1464.08 352.443 1464.37C382.991 1466.37 412.759 1471.8 440.231 1485.76ZM479.948 1556.35C480.867 1555.58 482.141 1555.23 483.251 1554.68C482.738 1555.75 482.363 1556.93 481.686 1557.9C471.441 1572.59 455.429 1572.08 440.182 1573.58C455.182 1571.83 468.4 1566.03 479.948 1556.35ZM491.798 1537.87C494.608 1513.07 490.164 1492.76 477.075 1476.28C459.808 1454.55 444.897 1428.83 415.628 1420.51C385.84 1412.04 356.161 1400.77 324.033 1406.6C310.564 1409.04 300.501 1416.71 290.014 1425.25C278.855 1434.34 276.169 1445.46 274.485 1457.86C272.441 1472.98 279.744 1485.26 287.565 1497.18C298.403 1513.7 313.783 1525.51 329.938 1536.52C332.086 1537.98 334.258 1540.48 334.866 1542.88C336.549 1549.59 340.697 1553.92 346.489 1557.13C346.533 1557.14 346.577 1557.14 346.627 1557.15C346.686 1557.19 346.74 1557.24 346.8 1557.28C357.015 1562.03 369.013 1555.92 378.834 1561.95C400.292 1575.12 423.829 1577.42 448.2 1575.63C453.528 1575.24 458.791 1573.99 467.254 1572.63C440.246 1583.82 416.28 1580.67 392.802 1572.62C378.977 1567.87 365.093 1563.61 350.942 1560.05C349.421 1559.67 348.167 1558.27 346.805 1557.28C346.735 1557.25 346.661 1557.23 346.592 1557.19C346.558 1557.17 346.528 1557.15 346.498 1557.14C342.489 1556.86 339.606 1554.41 336.935 1551.88C319.263 1535.15 297.711 1522.69 282.336 1503.44C282.331 1503.44 282.321 1503.43 282.316 1503.43C288.696 1515.96 299.39 1524.48 310.134 1533.05C317.279 1538.74 325.756 1542.83 331.484 1550.23C331.923 1550.8 332.111 1551.55 332.417 1552.23C331.982 1552.14 331.454 1552.19 331.133 1551.96C311.803 1537.84 290.009 1527.02 275.34 1506.89C252.692 1475.82 256.918 1437.92 287.017 1412.11C289.703 1409.81 292.201 1407.28 295.159 1405.09C286.563 1417.1 278.826 1429.51 271.943 1442.62C260.636 1464.16 266.442 1482.66 278.993 1500.81C279.759 1501.91 281.186 1502.57 282.316 1503.43C282.311 1503.42 282.306 1503.41 282.301 1503.4C282.311 1503.42 282.326 1503.43 282.336 1503.45C282.341 1503.45 282.346 1503.45 282.351 1503.46C279.423 1497.86 276.776 1492.11 273.518 1486.71C263.821 1470.66 268.412 1455.51 276.056 1440.47C284.834 1423.2 292.838 1404.82 312.079 1396.49C325.988 1390.46 340.731 1394.38 354.68 1398.14C381.698 1405.43 410.113 1410.75 434.055 1424.73C474.088 1448.1 500.202 1491.6 491.798 1537.87ZM510.931 1515.42C510.931 1508.46 511.321 1501.47 510.822 1494.54C510.319 1487.6 509.464 1480.6 507.82 1473.85C503.609 1456.54 497.279 1440.14 484.116 1427.2C485.745 1430.65 487.374 1434.1 489.009 1437.56C485.666 1435.83 485.365 1430.96 481.148 1430.13C487.127 1441.96 495.412 1452.47 499.777 1465.32C504.813 1480.15 504.971 1495.28 505.628 1510.52C503.801 1488.93 499.348 1468.15 487.532 1449.46C474.448 1428.77 458.001 1411.62 437.027 1398.28C422.605 1389.1 411.041 1374.75 393.883 1370.67C361.893 1363.04 328.403 1350.63 297.627 1371.35C254.321 1400.51 229.204 1445.48 238.827 1499.07C243.774 1526.62 263.737 1543.58 287.585 1554.91C323.89 1572.16 361.642 1586.13 401.373 1593.89C416.171 1596.78 431.206 1597.93 446.24 1594.79C428.288 1599.39 409.975 1600.22 392.284 1595.37C364.417 1587.73 335.498 1584.36 308.184 1574.61C289.002 1567.76 271.084 1558.75 255.585 1545.43C253.758 1543.86 251.571 1542.7 249.551 1541.36C260.419 1555.7 276.357 1562.95 291.9 1570.64C319.357 1584.21 350.073 1586.39 379.051 1594.67C405.511 1602.23 431.798 1603.21 458.085 1594.32C468.227 1590.89 477.282 1585.43 485.779 1579.1C471.999 1592.56 455.434 1599.31 436.069 1601.41C406.494 1604.62 378.908 1594.78 350.404 1590.86C324.433 1587.3 299.351 1581.99 276.628 1568.36C245.246 1549.54 224.543 1523.13 216.604 1487.34C215.458 1482.18 217.339 1477.98 219.64 1473.9C228.725 1457.8 228.73 1439.09 234.531 1422.37C251.595 1373.17 300.111 1328.59 359.286 1343.29C388.734 1350.61 419.603 1359.08 439.323 1387.42C440.937 1389.73 442.853 1391.83 444.952 1393.78C449.045 1396.83 453.128 1399.9 457.088 1403.09C462.8 1407.04 468.627 1411.01 473.352 1416.01C476.882 1419.75 478.892 1424.97 484.071 1427.16C478.679 1416.19 470.059 1407.75 460.075 1401.35C445.988 1392.34 435.99 1379.38 424.145 1368.22C423.686 1367.78 423.637 1366.93 423.395 1366.26C423.943 1366.54 424.614 1366.7 425.024 1367.12C452.353 1394.72 487.952 1414.76 503.475 1453.17C511.681 1473.46 512.629 1494.18 510.931 1515.42ZM522.114 1470.14C516.525 1440.93 504.117 1416.1 486.357 1393.81C483.972 1390.82 480.763 1388.46 477.939 1385.81C485.394 1396.63 493.329 1407.16 500.192 1418.33C510.245 1434.7 516.318 1452.66 519.453 1471.58C515.123 1454.03 509.06 1437.17 499.338 1421.78C498.434 1420.35 496.943 1419.29 495.724 1418.05C500.251 1427.65 504.779 1437.26 509.311 1446.87C502.69 1437.3 499.14 1425.89 489.848 1418.12C496.829 1431.65 505.539 1444.31 509.869 1459.18C513.118 1470.34 515.878 1481.41 514.609 1492.64C511.83 1444.11 483.409 1411.35 445.648 1383.59C433.847 1374.91 425.587 1361.05 411.169 1355.96C384.403 1346.51 360.96 1326.48 330.541 1328.7C295.998 1331.21 269.691 1349.52 247.561 1374.58C246.984 1375.24 246.989 1376.4 246.722 1377.33C257.826 1368.51 266.492 1357.04 278.771 1349.44C307.018 1331.94 336.268 1323.87 368.292 1338.91C374.923 1342.02 380.473 1347.3 388.062 1348.6C388.857 1348.74 389.494 1349.75 390.21 1350.36C389.277 1350.35 388.334 1350.43 387.42 1350.3C377.407 1348.88 369.803 1341.74 360.294 1339.1C321.322 1328.26 289.056 1340.52 261.87 1368.02C246.139 1383.94 231.273 1401.64 228.453 1424.29C227.861 1429.03 226.933 1433.68 225.827 1438.27C225.19 1442.7 224.015 1446.99 222.341 1451.16C219.536 1460.84 216.594 1470.39 215.073 1480.16C211.869 1500.78 223.664 1519.75 236.432 1536.24C259.263 1565.72 290.261 1584.03 326.684 1589.3C357.741 1593.8 387.657 1604.28 419.252 1605.98C413.668 1605.98 408.064 1605.66 402.509 1606.07C396.708 1606.49 391.499 1604.53 386.122 1603.14C369.053 1598.72 351.604 1596.83 334.11 1595.01C317.92 1593.33 303.004 1587.21 288.103 1581.18C286.148 1580.39 284.049 1579.95 282.015 1579.35C286.854 1584.37 293.524 1585.91 299.696 1588.31C316.849 1594.99 334.688 1598.66 351.505 1599.14C316.039 1606.53 284.874 1594.67 257.545 1570.46C256.148 1569.22 254.173 1568.62 252.469 1567.73C264.156 1581.23 279.181 1589.93 295.42 1596.9C308.692 1602.59 322.181 1604.36 336.786 1602.44C351.87 1600.47 366.905 1603.77 381.54 1607.79C406.834 1614.72 430.988 1609.06 455.004 1601.61C458.219 1600.62 461.314 1599.25 466.859 1597.14C456.861 1604.53 447.386 1606.85 438.084 1608.64C424.733 1611.22 411.095 1613.88 397.611 1613.74C387.623 1613.64 377.807 1608.26 367.68 1606.82C355.011 1605.02 342.287 1605.51 329.479 1608.26C308.174 1612.84 290.414 1602.27 273.182 1592.29C262.65 1586.2 253.403 1577.93 243.582 1570.65C255.244 1585.91 271.543 1594.93 288.478 1603C304.723 1610.75 321.184 1613.93 339.492 1609.28C356.487 1604.96 373.655 1608.68 389.736 1615.11C398.959 1618.8 407.59 1613.71 417.583 1615.3C401.714 1618.47 387.618 1621.2 372.578 1613.58C362.185 1608.32 349.145 1610.76 338.06 1613.63C320.335 1618.21 304.303 1613.89 287.985 1608.72C279.843 1611.12 273.616 1605.86 267.558 1602.59C220.647 1577.24 183.547 1541.84 167.831 1490.58C154.268 1446.33 163.521 1404.28 194.834 1368.38C215.038 1345.21 238.185 1325.44 266.635 1313C309.142 1294.42 350.962 1296.88 390.605 1321.13C412.389 1334.45 436.933 1342.64 457.231 1358.83C488.303 1383.62 508.995 1414.63 519.527 1452.45C521.013 1457.75 523.645 1463.03 522.114 1470.14ZM482.422 1378.34C461.966 1355.25 435.733 1340.9 408.434 1327.5C388.19 1317.57 369.532 1304.84 346.553 1300.54C312.899 1294.25 281.531 1299.96 252.553 1316.82C220.687 1335.37 193.121 1359.19 175.045 1391.59C159.146 1420.1 156.075 1450.88 163.027 1482.81C173.021 1528.71 203.539 1560.16 238.615 1588.26C258.893 1604.52 282.662 1613.88 308.08 1619.29C319.268 1621.67 329.973 1618.01 340.82 1616.61C353.638 1614.96 366.293 1615.79 378.232 1619.99C395.192 1625.95 410.982 1619.71 427.201 1617.36C427.972 1617.25 428.737 1617.1 432.321 1616.48C414.384 1624.04 398.46 1628.12 382.014 1630.44C366.475 1632.64 350.853 1632.44 335.246 1632.19C285.294 1631.36 243.192 1613.05 208.353 1577.46C180.53 1549.04 163.126 1515.71 155.236 1477.08C146.783 1435.72 157.359 1398.31 179.879 1363.92C207.242 1322.14 247.591 1298.92 296.141 1288.53C341.842 1278.75 383.87 1289.89 423.266 1311.97C472.749 1339.71 508.857 1378.35 520.105 1435.65C520.544 1437.87 520.613 1440.18 521.048 1442.41C521.438 1444.39 522.095 1446.33 522.633 1448.28C513.582 1422.46 500.715 1399 482.422 1378.34Z" fill="white" fill-opacity="0.3"/>
<path d="M313.906 1476.35C299.592 1456.23 319.382 1436.57 339.294 1437.81C364.021 1439.35 387.272 1446.59 410.241 1455.04C423.779 1460.03 436.311 1467.03 448.783 1474.13C447.529 1472.66 446.556 1470.7 444.976 1469.8C409.92 1449.78 372.928 1435.45 331.76 1436.25C319.821 1436.47 311.003 1444.32 307.65 1456.24C304.954 1465.82 308.144 1474.09 315.195 1480.99C314.785 1479.43 314.785 1477.59 313.906 1476.35Z" fill="white" fill-opacity="0.3"/>
<path d="M367.809 1315C383.624 1320.7 395.429 1333.06 410.237 1340.58C429.789 1350.51 448.764 1361.5 466.341 1374.68C465.191 1370.76 461.764 1368.9 458.826 1366.64C441.856 1353.6 421.153 1346.42 404.099 1333.84C371.315 1309.67 336.471 1297.68 295.796 1309.9C276.95 1315.55 260.562 1325.28 246.742 1339.18C251.606 1338.39 254.573 1334.59 258.163 1331.91C291.673 1306.84 328.161 1300.7 367.809 1315Z" fill="white" fill-opacity="0.3"/>
<path d="M184.436 1460.26C186.811 1445.41 194.602 1431.78 193.955 1416.21C193.442 1403.92 199.258 1393.75 206.531 1384.2C210.333 1379.21 213.542 1373.79 217.018 1368.55C206.21 1378.31 197.663 1389.92 193.516 1403.63C190.459 1413.74 192.039 1425.31 188.534 1435.17C178.718 1462.8 177.266 1489.77 190.474 1516.51C196.631 1528.97 203.045 1541.43 214.416 1550.36C213.369 1548.56 212.515 1546.6 211.246 1544.97C191.778 1519.98 179.207 1492.93 184.436 1460.26Z" fill="white" fill-opacity="0.3"/>
<path d="M261.594 1594.58C249.364 1583.64 237.133 1572.7 224.903 1561.76C234.971 1575.06 246.836 1586.4 261.594 1594.58Z" fill="white" fill-opacity="0.3"/>
<path d="M217.058 1368.5C226.933 1358.75 236.807 1348.99 246.682 1339.23C234.576 1346.78 224.612 1356.45 217.058 1368.5Z" fill="white" fill-opacity="0.3"/>
<path d="M325.855 1348.49C309.551 1349.17 293.978 1355.74 282.341 1368.51C289.629 1364.56 296.709 1360.16 304.238 1356.73C338.07 1341.3 370.025 1354.42 401.561 1364.62C423.666 1371.77 435.002 1394.39 454.886 1405.46C465.644 1411.45 471.549 1422.71 481.103 1430.07C480.012 1428.16 479.064 1426.14 477.805 1424.34C472.014 1416.05 464.795 1409.3 457.088 1403.09C452.802 1400.12 448.59 1397.16 444.951 1393.77C438.138 1388.68 431.309 1383.6 425.063 1377.88C397.729 1352.84 362.002 1346.99 325.855 1348.49Z" fill="white" fill-opacity="0.3"/>
<path d="M228.409 1459.3C224.37 1477.57 220.815 1494.79 228.957 1512.35C232.364 1519.7 234.526 1527.99 242.081 1532.79C241.468 1531.29 241.068 1529.67 240.209 1528.32C228.345 1509.69 221.481 1490.4 228.819 1468.01C236.017 1446.05 238.95 1422.8 252.77 1402.97C261.519 1390.41 272.856 1380.34 282.291 1368.55C280.242 1369.76 277.912 1370.67 276.189 1372.24C250.237 1395.88 235.924 1425.32 228.409 1459.3Z" fill="white" fill-opacity="0.3"/>
<path d="M238.906 1371.01C223.866 1388.47 209.484 1406.41 215.004 1431.95C216.055 1436.83 214.233 1441.24 211.483 1445.7C203.731 1458.28 194.019 1470.91 196.602 1486.57C200.705 1511.46 211.987 1533.02 231.915 1549.55C227.204 1543.35 222.143 1537.39 217.853 1530.92C202.166 1507.29 190.04 1483.15 208.215 1455.17C212.742 1448.19 218.929 1441.68 217.191 1432.19C212.831 1408.4 224.607 1390.52 239.489 1373.99C247.522 1365.07 256.138 1356.66 264.492 1348.02C253.565 1353.07 246.376 1362.34 238.906 1371.01Z" fill="white" fill-opacity="0.3"/>
<path d="M205.613 1440.82C208.669 1437.39 208.837 1432.94 207.474 1428.74C203.277 1415.81 205.351 1403.72 212.106 1392.22C215.621 1386.23 219.329 1380.35 222.948 1374.42C209.923 1387.35 200.379 1402.35 203.722 1421.1C205.692 1432.16 203.45 1439.97 196.987 1448.79C182.293 1468.86 186.179 1490.41 194.973 1511.52C201.223 1526.51 209.839 1540.08 222.973 1550.34C217.483 1543.08 211.153 1536.3 206.65 1528.49C189.216 1498.25 179.815 1469.71 205.613 1440.82Z" fill="white" fill-opacity="0.3"/>
<path d="M310.145 1312.78C297.609 1314.86 285.764 1318.79 276.338 1327.84C278.036 1327.24 279.863 1326.87 281.414 1326.01C315.462 1307.16 348.568 1311.18 381.126 1329.86C388.734 1334.23 395.193 1340.72 404.376 1342.17C402.135 1340.6 399.888 1339.02 397.651 1337.44C371.458 1318.89 343.221 1307.3 310.145 1312.78Z" fill="white" fill-opacity="0.3"/>
<path d="M374.159 1332.74C350.054 1319.48 325.164 1312.74 298.709 1325.8C286.489 1331.83 273.716 1337.27 264.537 1347.99C270.773 1344.17 277.024 1340.37 283.245 1336.52C303.671 1323.89 325.026 1317.06 349.338 1324.53C359.109 1327.54 368.184 1331.8 377.25 1336.26C376.233 1335.06 375.452 1333.45 374.159 1332.74Z" fill="white" fill-opacity="0.3"/>
<path d="M222.993 1374.37C234.957 1362.63 246.92 1350.9 258.884 1339.17C243.829 1347.82 231.782 1359.47 222.993 1374.37Z" fill="white" fill-opacity="0.3"/>
<path d="M225.857 1422.75C224.825 1415.17 227.126 1408.78 231.15 1402.55C236.502 1394.25 241.534 1385.75 246.698 1377.34C235.406 1389.26 224.307 1402.07 223.379 1418.79C222.549 1433.67 223.403 1448.2 214.18 1461.2C206.295 1472.3 202.819 1484 207.89 1497.87C216.614 1521.73 228.504 1543.12 249.725 1558.38C248.762 1557.09 247.972 1555.62 246.812 1554.52C231.466 1540.02 220.169 1522.91 212.363 1503.42C207.085 1490.24 205.623 1477.5 214.57 1465.09C217.789 1460.62 220.386 1455.97 222.332 1451.14C223.566 1446.88 224.771 1442.59 225.818 1438.26C226.539 1433.26 226.583 1428.09 225.857 1422.75Z" fill="white" fill-opacity="0.3"/>
<path d="M225.821 1438.25C224.775 1442.6 223.57 1446.88 222.336 1451.14C224.01 1446.98 225.185 1442.69 225.821 1438.25Z" fill="black"/>
</g>
<defs>
<clipPath id="clip0_715_215">
<rect width="320" height="2019" fill="white"/>
</clipPath>
<clipPath id="clip1_715_215">
<rect width="320.036" height="505.343" fill="white" transform="translate(0.147461 1513.66)"/>
</clipPath>
<clipPath id="clip2_715_215">
<rect width="320.036" height="505.343" fill="white" transform="translate(320.184 502.343) rotate(-180)"/>
</clipPath>
</defs>
</svg>
