<svg width="54" height="53" viewBox="0 0 54 53" fill="none" xmlns="http://www.w3.org/2000/svg">
<g clip-path="url(#clip0_697_2143)">
<path d="M13.1796 34.9251C12.9147 35.0865 12.6569 35.2612 12.3837 35.4066C11.7029 35.7702 11.017 36.1241 10.3299 36.4768C9.47191 36.9169 8.76556 37.4622 8.85577 38.6268C8.01186 37.813 7.47122 36.9105 7.18331 35.8518C6.82181 34.5195 7.37845 33.543 8.37591 32.7305C8.44245 32.6763 8.5621 32.6406 8.54994 32.5506C8.53586 32.4467 8.4079 32.4454 8.32153 32.4097C7.86022 32.2196 7.39508 32.0366 7.02911 31.6769C6.77191 31.4243 6.60748 31.1214 6.48207 30.7878C6.39058 30.5448 6.43153 30.4332 6.71625 30.4223C7.08798 30.4077 7.44691 30.3088 7.80392 30.2029C9.11425 29.8152 9.81101 28.9184 10.0036 27.5982C10.1744 26.4279 10.1744 25.2474 10.177 24.0694C10.1834 21.4213 10.9 19.0002 12.4214 16.8171C13.2711 15.5977 14.1451 14.3948 15.179 13.3271C15.8527 12.6319 15.9813 11.836 15.8303 10.9527C15.5917 9.55654 14.8911 8.36006 14.124 7.20056C13.3261 5.99387 12.3779 4.92303 11.1802 4.09008C11.0497 3.99952 11.0362 3.91214 11.09 3.77055C11.4886 2.73287 11.8859 1.6952 12.2692 0.651779C12.3504 0.42983 12.4611 0.431105 12.6473 0.501262C14.0389 1.02361 14.9954 1.99113 15.5488 3.34961C15.9385 4.30629 16.1912 5.31336 16.5994 6.26429C17.0082 7.21651 17.4523 8.14895 18.0985 8.96978C18.341 9.27719 18.6097 9.56228 18.9283 9.79253C19.7901 10.4156 20.6603 10.4711 21.508 9.83079C22.4844 9.09351 23.5759 8.9583 24.732 9.01825C27.5286 9.16367 30.0719 10.1095 32.4968 11.4457C33.4034 11.9451 34.2831 12.4974 35.2422 12.8985C35.4476 12.9846 35.6657 13.058 35.8846 13.0931C36.6159 13.2098 37.0714 12.9802 37.4361 12.3258C37.6709 11.9049 37.8008 11.445 37.9057 10.9782C37.9223 10.9048 37.923 10.8021 38.0023 10.7798C38.0842 10.7569 38.1373 10.8461 38.1866 10.9023C38.9371 11.7435 39.0951 12.7302 38.8942 13.8016C38.8379 14.1001 38.7311 14.3833 38.6018 14.6582C38.4771 14.9229 38.5289 15.0243 38.8232 15.074C39.1834 15.1346 39.5232 15.0651 39.8405 14.8827C40.2097 14.6703 40.5213 14.3922 40.7996 14.074C40.8757 13.9866 40.9519 13.8992 41.044 13.7934C41.131 13.9267 41.1112 14.058 41.1252 14.176C41.1918 14.7424 41.1694 15.3081 41.0369 15.8617C40.7465 17.076 39.9058 17.8325 38.6665 18.0327C38.0401 18.1335 37.4182 18.1048 36.7976 17.9983C36.3811 17.9268 36.3587 17.9511 36.3766 18.3829C36.4054 19.0806 36.8027 19.5526 37.3197 19.9582C37.399 20.0207 37.5564 20.0545 37.5257 20.1719C37.5007 20.2682 37.3504 20.2809 37.2505 20.3128C36.2492 20.6349 35.223 20.7025 34.1782 20.6228C32.2914 20.478 30.4686 20.0743 28.7257 19.3319C28.2497 19.1291 27.7884 18.8995 27.386 18.506C27.3111 18.7617 27.4199 18.9428 27.5126 19.1099C27.7487 19.5366 28.004 19.9525 28.2535 20.3715C28.9036 21.4646 29.2523 22.628 29.1218 23.9137C29.0635 24.4903 28.5741 25.6045 28.123 26.0701C28.0776 25.7034 28.052 25.3609 27.9848 25.0241C27.6163 23.1784 26.3981 22.1114 24.7205 21.4621C24.6066 21.4181 24.4563 21.3575 24.3705 21.4831C24.2963 21.5922 24.3936 21.7083 24.4627 21.8001C24.5849 21.964 24.7096 22.1292 24.8504 22.2772C25.6086 23.0751 25.782 24.0081 25.4844 25.0407C25.1901 26.0618 24.6252 26.9585 24.128 27.8852C23.7736 28.5473 23.4025 29.201 23.018 29.8458C22.508 30.6998 22.0813 31.5761 22.1274 32.6546C21.2054 32.1214 20.5848 31.423 20.3295 30.4325C20.1811 29.8579 20.1779 29.2769 20.2495 28.6908C20.2649 28.5632 20.3532 28.3617 20.2354 28.3164C20.0934 28.2615 20.0089 28.4631 19.9258 28.574C19.7082 28.8636 19.5444 29.187 19.3768 29.5065C18.9737 30.2757 18.5969 31.0589 18.1298 31.7929C17.7926 32.3223 17.4177 32.8211 16.9302 33.2241C16.6256 33.4761 16.2897 33.6674 15.8918 33.7369C15.7555 33.7605 15.7171 33.7286 15.7331 33.5909C15.7689 33.2886 15.8745 33.0041 15.9493 32.7126C16.0229 32.4263 16.062 32.1393 16.044 31.8446C16.0408 31.7891 16.06 31.719 15.998 31.6864C15.927 31.6494 15.8924 31.7164 15.8579 31.7591C15.2372 32.5258 14.6198 33.2949 13.9966 34.0596C13.8789 34.2038 13.9858 34.2912 14.0561 34.3894C14.5411 35.0635 15.0504 35.7198 15.6077 36.3359C16.3735 37.1835 17.0645 38.0987 17.8931 38.8896C19.3435 40.2736 20.9405 41.4535 22.7499 42.3381C23.4742 42.6921 24.2349 42.937 25.0155 43.1232C25.9176 43.3381 26.7877 43.6819 27.7161 43.7859C28.2503 43.8458 28.7852 43.8975 29.3515 43.9562C29.0373 44.0812 28.7264 44.1035 28.4193 44.1373C27.0942 44.2827 25.7826 44.1583 24.4742 43.9434C24.1287 43.8866 23.7774 43.8133 23.4242 43.8669C22.7435 43.9696 22.3423 44.4083 22.0851 45.0079C21.9073 45.4218 21.8202 45.8631 21.7057 46.2956C21.6174 46.6285 21.556 46.6508 21.2687 46.4576C20.3314 45.8255 19.4651 45.1157 18.7927 44.1953C18.1573 43.3254 17.8451 42.3483 17.8099 41.2781C17.8022 41.0542 17.8022 40.8304 17.76 40.6078C17.712 40.3584 17.5757 40.3067 17.3576 40.4031C16.9308 40.5925 16.6116 40.898 16.3838 41.3011C16.069 41.8585 15.9538 42.4695 15.9097 43.0971C15.8598 43.8088 15.8911 44.5206 15.934 45.2317C15.9461 45.4326 15.9519 45.6342 15.9609 45.8351C15.8348 45.8523 15.8016 45.7668 15.7536 45.7139C14.6614 44.504 14.0613 43.0843 13.9359 41.4637C13.9084 41.1123 13.9135 41.1282 13.5763 41.2118C12.4304 41.4962 11.3888 41.2679 10.4611 40.5395C10.3472 40.4503 10.2486 40.3367 10.1597 40.2213C10.0605 40.0925 9.90442 39.9317 9.978 39.7914C10.0305 39.6919 10.2454 39.7914 10.3862 39.8074C11.0196 39.8801 11.5276 39.6084 11.7899 39.0356C11.9806 38.6185 12.1207 38.1829 12.2538 37.7448C12.5398 36.8072 12.7733 35.8518 13.2359 34.9742C13.2174 34.9583 13.1988 34.9423 13.1802 34.9264L13.1796 34.9251Z" fill="#4B5C20"/>
<path d="M45.5513 37.1383C44.6901 36.8418 43.9006 36.5242 43.0688 36.3392C42.8596 36.2926 42.6465 36.2467 42.4335 36.2397C42.0451 36.2263 41.8839 36.4259 41.9926 36.7959C42.0912 37.1313 42.2307 37.4547 42.3541 37.7825C42.564 38.3406 42.7527 38.9012 42.738 39.5103C42.7239 40.1245 42.5013 40.6449 42.0873 41.0952C41.9421 41.2533 41.8813 41.2125 41.8109 41.0346C41.7252 40.8177 41.6292 40.6022 41.5109 40.4013C41.1257 39.7475 40.4974 39.5862 39.8307 39.9542C39.1244 40.3439 38.5198 40.8739 37.8723 41.3445C37.0111 41.9708 36.1793 42.6539 35.1774 43.0462C33.9221 43.5379 32.6527 44.0073 31.2669 43.9531C31.082 43.9461 30.8971 43.9218 30.707 43.8842C31.5714 43.8064 32.375 43.5309 33.1658 43.1954C33.8235 42.916 34.4582 42.6086 35.0661 42.2247C35.9727 41.6526 36.8275 41.0174 37.5626 40.2469C38.4762 39.2902 39.2363 38.2239 39.777 36.998C40.4699 35.4278 40.8314 33.7849 41.0694 32.0986C41.2581 30.7605 41.3503 29.4237 41.2281 28.078C41.0387 25.9828 40.5006 23.9783 39.6177 22.0662C39.2287 21.2237 38.8096 20.3984 38.2171 19.6745C38.1935 19.6458 38.18 19.6094 38.1519 19.5591C38.283 19.5316 38.3745 19.5935 38.4679 19.6299C39.5876 20.0597 40.4002 20.8652 41.1103 21.79C41.5563 22.3704 41.9709 22.975 42.4284 23.5459C42.809 24.021 43.2441 24.4368 43.8775 24.581C44.4885 24.72 45.0369 24.5523 45.5775 24.2978C45.6856 24.2468 45.8008 24.1097 45.9211 24.206C46.0554 24.3131 46.0286 24.4847 45.9934 24.6422C45.6607 26.1206 44.6869 26.9918 43.2927 27.4529C42.8078 27.6137 42.811 27.5907 43.1667 27.9632C44.0125 28.8478 44.6632 29.8414 44.8315 31.0845C44.93 31.8122 44.8347 32.5284 44.6255 33.2243C44.4738 33.73 44.486 34.2218 44.6133 34.7237C44.7989 35.4559 45.1181 36.1357 45.4316 36.8182C45.4713 36.9049 45.4982 36.9974 45.5494 37.1377L45.5513 37.1383Z" fill="#4B5C20"/>
<path d="M44.9917 5.8857C44.9654 6.51265 44.7914 7.04711 44.7293 7.5988C44.7191 7.69064 44.6513 7.80161 44.7601 7.86603C44.8733 7.933 44.9341 7.8182 45.0025 7.75569C45.2476 7.53247 45.4862 7.30095 45.7345 7.08155C46.025 6.82452 46.3589 6.81942 46.6341 7.05604C46.9508 7.32838 46.9898 7.59624 46.7691 7.95787C46.5861 8.25699 46.3103 8.46619 46.0352 8.66454C45.556 9.00958 45.1414 9.4184 44.7479 9.85337C44.6231 9.99113 44.4939 10.1238 44.3307 10.2182C43.8048 10.5224 43.2456 10.238 43.1791 9.62887C43.1394 9.26469 43.213 8.91072 43.2904 8.55803C43.3659 8.21553 43.4459 7.87368 43.4664 7.52226C43.4715 7.43042 43.5182 7.31307 43.396 7.26587C43.293 7.22633 43.2437 7.32774 43.1848 7.38833C42.9462 7.63196 42.7184 7.88835 42.442 8.09244C42.2187 8.25827 41.9743 8.34692 41.7011 8.23722C41.275 8.06566 41.1528 7.67852 41.3934 7.28054C41.5623 7.00055 41.7977 6.77478 42.0569 6.58535C42.5732 6.20715 42.9948 5.73455 43.4427 5.28682C43.5591 5.17011 43.6813 5.05212 43.8208 4.96602C44.332 4.65095 44.833 4.87354 44.945 5.46158C44.9757 5.62357 44.9808 5.79004 44.9904 5.88634L44.9917 5.8857Z" fill="#4B5C20"/>
<path d="M53.9153 24.6563C53.9166 25.1301 53.9038 25.532 53.8213 25.9229C53.573 27.1003 52.3593 27.8095 51.1379 27.5199C50.3567 27.3343 49.9396 26.7916 49.6881 26.0881C49.4738 25.4892 49.3708 24.8629 49.2844 24.2353C49.2172 23.7474 49.4104 23.4687 49.9025 23.3278C50.4034 23.1843 50.9236 23.1575 51.4393 23.1192C51.7822 23.0937 52.1175 23.0369 52.4515 22.9578C52.6031 22.9215 52.7573 22.8858 52.9121 22.8737C53.3753 22.8373 53.6537 23.0395 53.7759 23.4878C53.8872 23.8948 53.9301 24.31 53.9153 24.6569V24.6563ZM52.2582 24.345C51.8513 24.3961 51.438 24.419 51.0388 24.5058C50.516 24.6199 50.3279 25.1225 50.612 25.5747C50.7432 25.7826 50.9095 25.9586 51.1264 26.0855C51.5525 26.3343 52.1328 26.266 52.5103 25.9159C52.8725 25.5804 52.946 25.0957 52.7221 24.6288C52.6249 24.426 52.4841 24.3272 52.2582 24.345Z" fill="#4B5C20"/>
<path d="M48.9441 41.4031C47.6523 41.3999 46.5922 40.3227 46.5947 39.0171C46.5973 37.7932 47.7259 36.8002 49.1066 36.8059C50.3888 36.811 51.3901 37.8647 51.3901 39.2097C51.3901 40.4426 50.3159 41.4069 48.9448 41.4037L48.9441 41.4031ZM47.9095 39.2053C47.8833 40.0516 48.605 40.5593 49.3734 40.2225C49.8136 40.0293 49.9992 39.646 50.0312 39.1912C50.0625 38.7499 49.9403 38.3577 49.5622 38.0853C49.4035 37.9712 49.2154 37.9597 49.0267 37.9775C48.4009 38.0375 47.9294 38.5567 47.9095 39.2053Z" fill="#4B5C20"/>
<path d="M50.3068 30.2942C50.8155 30.3121 51.1974 30.3982 51.5679 30.5257C52.1706 30.733 52.7861 30.8835 53.4137 30.9952C53.9243 31.0857 54.0382 31.2388 53.9518 31.7375C53.8143 32.5297 53.6019 33.3027 53.0887 33.9481C52.415 34.7951 51.502 34.8397 50.747 34.0546C50.4905 33.788 50.223 33.6751 49.8583 33.7523C49.6094 33.8052 49.3529 33.8033 49.1001 33.7459C48.9063 33.7019 48.8359 33.5865 48.9069 33.4009C49.0061 33.1439 49.1251 32.9015 49.39 32.765C49.6421 32.6355 49.891 32.4991 50.1373 32.3587C50.3209 32.2541 50.4866 32.1291 50.4693 31.8849C50.4514 31.6412 50.2947 31.5047 50.0861 31.4116C49.9434 31.3478 49.7988 31.2879 49.6587 31.2184C49.461 31.1208 49.4303 30.9735 49.5307 30.7821C49.7201 30.4205 50.0125 30.2566 50.3075 30.2949L50.3068 30.2942ZM51.6146 32.5482C51.6088 32.9595 51.7266 33.1247 52.0279 33.1541C52.2832 33.1783 52.4764 33.0405 52.5705 32.8307C52.6818 32.582 52.8168 32.316 52.6812 32.0271C52.6626 31.9869 52.6159 31.9474 52.573 31.9327C52.0561 31.7477 51.7093 31.6827 51.6306 32.3632C51.6216 32.4404 51.6178 32.5182 51.6152 32.5488L51.6146 32.5482Z" fill="#4B5C20"/>
<path d="M33.0951 30.8159C32.8225 29.6411 32.6907 28.486 33.0241 27.3316C33.3273 26.2825 34.0938 25.7046 35.1009 25.4266C36.3069 25.093 37.4164 25.431 38.4778 25.9993C38.5277 26.0261 38.5981 26.0446 38.5949 26.1128C38.5917 26.1843 38.5156 26.19 38.4644 26.2123C37.8022 26.5012 37.1604 26.8297 36.5187 27.1607C35.3632 27.7564 34.5091 28.6538 33.8136 29.7246C33.5762 30.0901 33.3344 30.4523 33.0944 30.8159H33.0951Z" fill="#4B5C20"/>
<path d="M30.661 4.66484C30.2061 4.64443 29.796 4.65527 29.3885 4.57491C29.0244 4.50284 28.8254 4.29684 28.7339 3.95243C28.5868 3.39883 28.6789 2.84587 28.7461 2.29738C28.796 1.88856 28.8107 1.48229 28.8043 1.07283C28.7922 0.315778 29.114 -0.0235236 29.8818 -0.0114057C30.5158 -0.00120112 31.1454 0.0995688 31.7833 0.090002C32.1141 0.0848997 32.2593 0.288353 32.2721 0.656994C32.281 0.912746 32.164 1.01734 31.8108 1.06518C31.3456 1.12768 30.8805 1.18699 30.416 1.25332C30.3143 1.26799 30.1812 1.26863 30.1684 1.41022C30.1569 1.54224 30.281 1.57604 30.3718 1.63089C30.6879 1.82287 31.0296 1.76802 31.3719 1.74761C31.7474 1.72465 31.9656 1.90323 31.981 2.22084C31.9931 2.47787 31.7199 2.75658 31.3847 2.80952C31.0277 2.86565 30.6674 2.90264 30.3098 2.9543C30.2093 2.96897 30.0705 2.95876 30.0577 3.10226C30.0455 3.23556 30.1703 3.26873 30.2669 3.31337C30.5465 3.44029 30.8434 3.49131 31.1479 3.51682C31.4199 3.53979 31.6963 3.54042 31.9586 3.63163C32.1518 3.69859 32.3732 3.73941 32.3879 4.00282C32.3994 4.20181 32.1556 4.49136 31.9272 4.54876C31.4966 4.65719 31.0552 4.65208 30.661 4.66548V4.66484Z" fill="#4B5C20"/>
<path d="M37.4615 6.46468C36.6963 6.33904 35.9496 5.90152 35.3898 5.15977C35.2599 4.98757 35.2337 4.77901 35.4109 4.59852C35.5971 4.40782 35.8165 4.34787 36.0469 4.49456C36.384 4.70949 36.7071 4.94611 37.0379 5.17125C37.1185 5.2261 37.2011 5.28159 37.29 5.31986C37.5543 5.43529 37.7449 5.29307 37.7052 5.00862C37.6733 4.77646 37.537 4.59661 37.3796 4.4327C37.1697 4.21457 36.9509 4.0041 36.7487 3.7796C36.2465 3.22282 36.3316 2.5474 36.9752 2.17047C37.2619 1.94214 37.7193 1.798 38.093 1.83372C38.5735 1.88028 38.926 1.43829 39.4135 1.38153C39.7827 1.3388 40.1026 1.49378 40.402 1.68958C40.4827 1.74252 40.5658 1.81395 40.5383 1.92747C40.514 2.02697 40.4187 2.05312 40.3323 2.06779C40.063 2.11371 39.791 2.14942 39.5217 2.19598C39.4225 2.2132 39.2805 2.18004 39.251 2.31716C39.2242 2.44472 39.3566 2.49255 39.4359 2.55697C39.6176 2.70557 39.8096 2.84206 39.9414 3.04105C40.1129 3.29871 40.0738 3.46836 39.7955 3.6884C39.4609 3.95372 39.3688 3.95308 39.1256 3.72475C38.8831 3.49706 38.6074 3.31147 38.3284 3.13097C38.1941 3.04424 38.0469 3.01171 37.9241 3.13225C37.7948 3.25917 37.8153 3.41734 37.901 3.56403C38.0316 3.78662 38.2197 3.95755 38.4161 4.12018C38.6944 4.35042 38.9062 4.62212 38.983 4.9831C39.1589 5.80968 38.5415 6.48445 37.4628 6.46532L37.4615 6.46468Z" fill="#4B5C20"/>
<path d="M37.289 33.6042C36.71 35.4385 35.8712 37.1051 34.2147 38.2282C33.3855 38.7901 32.4297 38.9808 31.4603 39.028C29.7188 39.1128 28.0572 38.7773 26.528 37.9023C26.4372 37.85 26.3521 37.7881 26.1973 37.6867C26.6355 37.755 26.9938 37.8162 27.354 37.8659C29.1756 38.1179 30.9581 37.9616 32.7035 37.3729C33.7681 37.0138 34.6312 36.3544 35.4387 35.6063C36.106 34.9882 36.6902 34.2937 37.289 33.6049V33.6042Z" fill="#4B5C20"/>
<path d="M46.6222 44.6386C46.5787 45.3293 46.1116 45.9919 45.5415 46.5985C45.3752 46.7751 45.1903 46.9384 44.9587 47.0353C44.7514 47.1214 44.5466 47.1476 44.3336 47.0538C43.8927 46.8606 43.8192 46.5379 44.1435 46.1807C44.4507 45.8427 44.8601 45.6003 45.0866 45.1851C45.1289 45.108 45.1775 45.034 45.214 44.9549C45.5313 44.2597 45.2805 43.7138 44.5415 43.5135C44.0949 43.3923 43.6842 43.481 43.3374 43.7909C43.0495 44.048 43.0636 44.3745 43.3566 44.6181C43.8518 45.0295 43.8288 45.4339 43.2964 45.7968C43.1474 45.8988 43.0156 45.9071 42.8691 45.7936C42.5735 45.5646 42.3041 45.3095 42.093 45.0008C41.7628 44.518 41.7948 44.0295 42.0949 43.5454C42.8678 42.3011 44.4174 41.9311 45.6541 42.7188C46.2792 43.1168 46.6203 43.6991 46.6228 44.6379L46.6222 44.6386Z" fill="#4B5C20"/>
<path d="M21.5166 37.959C21.8339 36.5929 22.2044 35.2427 23.0918 34.1266C23.889 33.1233 24.9338 32.594 26.257 32.8701C26.9121 33.0066 27.4169 33.4084 27.8386 33.9174C27.9985 34.11 27.8322 34.1119 27.7106 34.1463C26.7867 34.4047 25.8884 34.7306 25.0176 35.1324C23.9568 35.6215 23.1539 36.4385 22.3202 37.2179C22.0579 37.4635 21.7924 37.7052 21.5166 37.9597V37.959Z" fill="#4B5C20"/>
<path d="M39.8094 49.9488C39.8094 50.0464 39.8158 50.144 39.8081 50.2409C39.746 51.0841 39.1657 51.4112 38.3896 51.049C37.9111 50.8257 37.5349 50.4654 37.1522 50.121C36.7799 49.7855 36.3806 49.4947 35.9545 49.2345C35.7293 49.0967 35.5188 48.9373 35.3563 48.7242C35.2277 48.5559 35.229 48.4219 35.4152 48.281C35.6628 48.0941 35.9091 48.0437 36.2092 48.1419C37.1382 48.4449 37.6846 48.2102 38.144 47.3498C38.3314 46.9984 38.4594 46.6132 38.7204 46.3013C38.8375 46.1616 38.9629 46.0411 39.1683 46.0889C39.3666 46.1348 39.4389 46.2847 39.4965 46.462C39.5861 46.7369 39.579 47.0207 39.5931 47.3013C39.6366 48.1872 39.7364 49.0674 39.81 49.9494L39.8094 49.9488ZM38.8362 49.3824C38.8279 49.3091 38.8292 49.1892 38.7985 49.0782C38.7409 48.8703 38.5918 48.7561 38.3788 48.8225C38.2067 48.876 38.0064 48.9577 37.9584 49.1477C37.9143 49.3206 38.0493 49.4539 38.1887 49.5578C38.2354 49.5929 38.279 49.6331 38.3218 49.6726C38.4274 49.7702 38.5202 49.9156 38.6929 49.8378C38.874 49.7555 38.8292 49.5782 38.8369 49.3831L38.8362 49.3824Z" fill="#4B5C20"/>
<path d="M51.2143 13.0358C51.199 13.5722 50.881 13.9631 50.5566 14.3388C50.0595 14.9134 49.5342 15.4645 49.1503 16.1284C49.0486 16.3044 48.9078 16.4575 48.7408 16.5825C48.5725 16.7082 48.4388 16.7126 48.2942 16.5283C48.0946 16.2738 48.046 16.0219 48.158 15.7132C48.4625 14.8758 48.2366 14.289 47.4567 13.8471C47.2699 13.7412 47.0754 13.6487 46.8841 13.5511C46.7971 13.5065 46.703 13.4733 46.6224 13.4204C46.3838 13.2628 46.0485 13.1448 46.1176 12.7832C46.1873 12.4178 46.5418 12.4165 46.8246 12.391C47.4177 12.3381 48.0146 12.324 48.609 12.28C49.0179 12.25 49.4248 12.1894 49.8336 12.1563C50.0972 12.1346 50.3615 12.1461 50.6193 12.2194C51.0499 12.3419 51.2265 12.5855 51.215 13.0358H51.2143ZM49.4529 13.1225C49.316 13.1308 49.1778 13.1225 49.0492 13.1793C48.8573 13.2641 48.7722 13.4306 48.8637 13.6047C48.9468 13.7629 48.9775 14.046 49.2591 13.9835C49.5662 13.9153 49.7146 13.6379 49.8714 13.4012C49.943 13.2928 49.8477 13.1761 49.7133 13.1449C49.6295 13.1257 49.5399 13.1283 49.4529 13.1213V13.1225Z" fill="#4B5C20"/>
<path d="M22.5313 4.80837C22.0399 4.79561 21.8537 4.66295 21.6656 4.17058C21.4078 3.49772 21.3489 2.78722 21.2804 2.08055C21.2395 1.65451 21.2216 1.22592 21.1953 0.798606C21.1877 0.671049 21.2005 0.548593 21.2651 0.43124C21.5146 -0.0215875 21.8512 -0.0439096 22.1301 0.389785C22.4846 0.941469 22.6912 1.54418 22.7059 2.20429C22.7123 2.4881 22.7335 2.76936 22.8147 3.0417C22.9523 3.5009 23.2184 3.65078 23.6823 3.53024C23.8806 3.47858 24.0726 3.40205 24.2716 3.35294C24.6791 3.25281 24.9043 3.35804 25.0342 3.69352C25.1244 3.92758 25.0073 4.154 24.6631 4.33513C24.2165 4.57047 23.7252 4.66295 23.2306 4.73311C22.999 4.76563 22.7648 4.78413 22.5319 4.809L22.5313 4.80837Z" fill="#4B5C20"/>
<path d="M5.53061 43.4613C5.56644 43.0091 5.85563 42.6513 6.32205 42.4389C6.76864 42.2348 7.19411 42.3292 7.54089 42.6557C7.81601 42.9147 8.04506 43.2227 8.29907 43.5046C8.37648 43.5901 8.36433 43.6462 8.28115 43.7164C7.73731 44.1743 7.19539 44.6354 6.65347 45.0959C6.58885 45.1508 6.52871 45.1967 6.45961 45.1061C6.17746 44.7362 5.80828 44.4313 5.61826 43.9932C5.5562 43.849 5.52677 43.6966 5.53061 43.4613ZM5.92985 43.6105C5.93177 43.8637 6.27342 44.4371 6.48904 44.5723C6.58757 44.6342 6.63428 44.5627 6.68866 44.5181C6.92091 44.3255 7.14805 44.1271 7.37838 43.9326C7.71279 43.6507 7.72686 43.3518 7.4206 43.0359C7.1666 42.7731 6.82494 42.6876 6.51399 42.8082C6.17809 42.9383 5.92665 43.2833 5.92921 43.6111L5.92985 43.6105Z" fill="#4B5C20"/>
<path d="M2.29653 19.9812C3.01312 19.9799 3.57231 20.5131 3.56719 21.193C3.56143 21.9284 3.01055 22.5107 2.31828 22.5145C1.60361 22.5183 1.05146 21.987 1.05274 21.297C1.05338 20.559 1.59849 19.9825 2.29716 19.9812H2.29653ZM3.17243 21.2472C3.18011 20.7663 2.79942 20.3996 2.28501 20.3939C1.8269 20.3887 1.45838 20.7548 1.44494 21.2293C1.43086 21.7153 1.80771 22.091 2.31508 22.0961C2.79238 22.1012 3.16475 21.7332 3.17243 21.2466V21.2472Z" fill="#4B5C20"/>
<path d="M21.1413 50.3959C21.4356 50.3257 21.6186 50.415 21.7107 50.681C21.8272 51.0158 22.0089 51.2531 22.4203 51.2186C22.5553 51.2072 22.6174 51.1861 22.6212 51.0471C22.6238 50.9508 22.6596 50.8545 22.6583 50.7582C22.6557 50.5796 22.7261 50.5266 22.9066 50.5407C23.1068 50.5566 23.0876 50.6746 23.0729 50.8034C22.9955 51.4789 22.9123 52.1543 22.84 52.8303C22.8253 52.9694 22.7568 52.9828 22.6442 52.9681C22.3538 52.9317 22.0626 52.9056 21.7728 52.8667C21.3512 52.8099 21.0543 52.5695 20.9794 52.2353C20.8918 51.8456 21.0306 51.5063 21.4094 51.2722C21.5444 51.1887 21.5246 51.123 21.4676 51.0171C21.3576 50.8136 21.252 50.607 21.1413 50.3953V50.3959ZM22.1631 52.5522C22.4158 52.6301 22.4676 52.4815 22.4849 52.2806C22.4996 52.1071 22.5246 51.9342 22.5444 51.7608C22.5547 51.6683 22.5553 51.5866 22.4267 51.5758C22.2239 51.5586 22.023 51.5025 21.8176 51.5312C21.5438 51.5688 21.4062 51.7435 21.387 52.0031C21.3691 52.248 21.4996 52.4107 21.7344 52.4751C21.8739 52.5133 22.0204 52.5274 22.1637 52.5516L22.1631 52.5522Z" fill="#4B5C20"/>
<path d="M2.48341 26.0804C2.55891 26.4101 2.46422 26.6098 2.21725 26.7648C1.9946 26.9044 1.79881 27.0856 1.58192 27.2354C1.44564 27.3298 1.46931 27.3917 1.56465 27.5078C1.73548 27.717 1.93893 27.7986 2.20253 27.7737C2.32922 27.7616 2.46486 27.7565 2.4431 27.9612C2.42583 28.1264 2.36441 28.2004 2.18462 28.1921C1.5205 28.1615 0.856374 28.1379 0.191611 28.1226C0.0322986 28.1188 -0.00609127 28.0569 -0.00161259 27.9115C0.00286608 27.7654 0.0521315 27.7017 0.206326 27.7055C0.526871 27.7131 0.847418 27.708 1.19611 27.708C1.09758 27.4893 0.914598 27.3706 0.77256 27.2208C0.591494 27.0294 0.407867 26.8387 0.211445 26.664C0.0265402 26.4988 0.0367763 26.3215 0.134667 26.0728C0.423862 26.3649 0.694505 26.6302 0.953628 26.9057C1.07775 27.0377 1.17436 27.0447 1.32152 26.9306C1.69069 26.6448 2.07393 26.3776 2.48277 26.0804H2.48341Z" fill="#4B5C20"/>
<path d="M10.0429 47.889C10.096 47.9228 10.1549 47.9566 10.2106 47.9948C10.4351 48.1505 10.6687 48.2952 10.8792 48.4674C11.0551 48.6116 11.1453 48.5229 11.2119 48.3769C11.2739 48.2404 11.5574 48.1243 11.2675 47.9349C11.0551 47.7965 10.8555 47.639 10.6431 47.4999C10.5394 47.4317 10.517 47.3749 10.5951 47.2697C10.6693 47.1689 10.7295 47.1153 10.8529 47.2085C11.0551 47.3609 11.2707 47.4967 11.4742 47.6473C11.5868 47.7302 11.6585 47.7461 11.7576 47.6141C12.0603 47.2116 12.0667 47.2161 11.6559 46.9266C11.4806 46.8028 11.3066 46.6772 11.1274 46.5586C11.0186 46.4858 10.9495 46.4259 11.05 46.2837C11.1428 46.1516 11.208 46.1606 11.327 46.248C11.6815 46.5069 12.0417 46.7582 12.4077 47.0012C12.5516 47.0968 12.5823 47.174 12.4742 47.3239C12.0795 47.8679 11.6936 48.419 11.3123 48.9719C11.2285 49.0931 11.1671 49.1199 11.0391 49.0261C10.677 48.7608 10.3046 48.5102 9.93865 48.2506C9.88298 48.2111 9.77869 48.1811 9.85995 48.0765C9.91113 48.0102 9.93545 47.917 10.0429 47.8903V47.889Z" fill="#4B5C20"/>
<path d="M27.9822 52.8093C27.4294 52.8125 27.0942 52.5529 27.0257 52.1263C26.9521 51.6709 27.171 51.301 27.6233 51.153C27.798 51.0956 27.9848 51.072 28.1678 51.0478C28.3495 51.0235 28.4647 50.9725 28.3898 50.755C28.3623 50.674 28.3815 50.5777 28.3565 50.4954C28.2964 50.2971 28.4423 50.2984 28.5613 50.2665C28.7167 50.225 28.7577 50.2945 28.7769 50.4419C28.862 51.0873 28.956 51.7321 29.0558 52.3756C29.0853 52.5644 29.0475 52.6671 28.8357 52.6888C28.5254 52.7207 28.2177 52.7755 27.9816 52.81L27.9822 52.8093ZM27.9765 52.4247C28.5785 52.419 28.6137 52.3884 28.5549 51.9209C28.5037 51.5097 28.2693 51.3588 27.8517 51.4681C27.5529 51.5459 27.3975 51.7519 27.4371 52.0146C27.4813 52.3036 27.6444 52.4279 27.9758 52.4247H27.9765Z" fill="#4B5C20"/>
<path d="M0.820356 32.9819C0.897133 33.3493 0.968149 33.7007 1.04557 34.0508C1.07436 34.1809 1.07052 34.2709 0.90865 34.3066C0.741019 34.3436 0.714786 34.2588 0.687914 34.1267C0.590663 33.6503 0.481256 33.1764 0.380166 32.7013C0.360971 32.612 0.299549 32.5042 0.415354 32.4391C0.522843 32.3786 0.634168 32.3913 0.749974 32.4487C1.21256 32.6796 1.67834 32.9035 2.14348 33.1286C2.28232 33.1956 2.42244 33.2593 2.62526 33.3544C2.53696 32.929 2.46531 32.5616 2.38277 32.1968C2.3495 32.0514 2.32071 31.9455 2.52545 31.8996C2.74746 31.8492 2.71675 32.0118 2.74043 32.1171C2.8492 32.6011 2.95028 33.0865 3.04881 33.5725C3.06609 33.6586 3.1595 33.767 3.04113 33.834C2.92981 33.8965 2.80697 33.8895 2.67964 33.8257C2.14796 33.5591 1.61116 33.3014 1.07436 33.0444C1.00654 33.0119 0.943839 32.9532 0.820356 32.9825V32.9819Z" fill="#4B5C20"/>
<path d="M15.6387 50.9897C16.045 51.1466 16.3879 51.2844 16.7353 51.41C16.8607 51.4553 16.9087 51.5012 16.8524 51.6403C16.7974 51.778 16.7366 51.8125 16.5927 51.7551C16.1307 51.5701 15.6624 51.4011 15.1991 51.2187C15.1262 51.19 14.9944 51.1957 15.0034 51.0822C15.0117 50.968 15.0712 50.8653 15.1857 50.7997C15.5242 50.6045 15.8582 50.4023 16.1928 50.2014C16.4487 50.0477 16.7033 49.8927 17.0168 49.7027C16.6112 49.5483 16.2683 49.422 15.9292 49.2856C15.8185 49.2409 15.647 49.2428 15.734 49.019C15.8159 48.8091 15.9241 48.8927 16.0501 48.9411C16.4967 49.1114 16.9465 49.2747 17.3918 49.4482C17.4845 49.4845 17.6407 49.4782 17.6439 49.6044C17.6477 49.7409 17.553 49.8462 17.4219 49.9214C16.9401 50.1995 16.4641 50.4878 15.9861 50.7729C15.8869 50.8322 15.7897 50.8953 15.6374 50.9904L15.6387 50.9897Z" fill="#4B5C20"/>
<path d="M9.88349 11.4424C9.82079 11.5157 9.79263 11.5546 9.75872 11.5878C9.42026 11.9265 9.07732 12.26 8.74462 12.6038C8.63841 12.7135 8.58403 12.6803 8.4919 12.5859C8.02292 12.1025 7.54946 11.6229 7.06832 11.1509C6.94676 11.0317 6.95635 10.9653 7.07472 10.8544C7.38822 10.561 7.69085 10.2555 7.99412 9.95125C8.08114 9.86388 8.14 9.78671 8.27372 9.91299C8.42152 10.0527 8.32875 10.119 8.23533 10.2102C8.03251 10.4079 7.83929 10.6158 7.63071 10.8072C7.50851 10.9194 7.49763 11.0049 7.62943 11.1107C7.69725 11.1656 7.75931 11.2307 7.81306 11.2995C7.90327 11.4169 7.97877 11.399 8.07282 11.3008C8.24109 11.1241 8.41768 10.9551 8.59107 10.7829C8.67808 10.6968 8.74142 10.5839 8.88794 10.7383C9.03574 10.8939 8.91097 10.9545 8.82716 11.0393C8.66273 11.2064 8.50022 11.3754 8.32811 11.5342C8.21934 11.6344 8.19631 11.7166 8.32299 11.8155C8.37673 11.857 8.42728 11.9061 8.46759 11.9603C8.6045 12.1452 8.72287 12.144 8.8777 11.966C9.06965 11.746 9.28846 11.5483 9.49768 11.3435C9.54375 11.2983 9.58789 11.2262 9.66915 11.2798C9.74145 11.3276 9.80863 11.3837 9.88412 11.4411L9.88349 11.4424Z" fill="#4B5C20"/>
<path d="M3.66867 38.1828C3.70706 38.3831 3.74865 38.5834 3.7832 38.7843C3.85806 39.2205 3.72882 39.4999 3.39676 39.6313C3.06853 39.7607 2.73583 39.6287 2.50166 39.2728C2.34299 39.0317 2.25789 38.7658 2.23486 38.4788C2.22462 38.3519 2.26685 38.2772 2.40569 38.2613C2.54709 38.2447 2.59187 38.3015 2.60019 38.4373C2.61427 38.6625 2.66865 38.8799 2.80173 39.0694C2.90538 39.2173 3.03654 39.3124 3.22401 39.2454C3.41147 39.1784 3.41467 39.0126 3.39292 38.8538C3.35645 38.5942 3.27967 38.3416 3.27967 38.0751C3.27967 37.8129 3.38588 37.6235 3.61813 37.5087C3.85806 37.3901 4.09479 37.4067 4.30656 37.5738C4.69813 37.8824 4.82161 38.3168 4.84656 38.7875C4.85296 38.9074 4.81457 39.0088 4.64566 39.01C4.46971 39.0113 4.4582 38.9188 4.46588 38.7887C4.48251 38.4954 4.40254 38.2281 4.22339 37.996C4.13638 37.8837 4.02377 37.8053 3.86766 37.8563C3.70962 37.908 3.67059 38.0317 3.66867 38.1835V38.1828Z" fill="#4B5C20"/>
<path d="M6.318 15.6258C6.29433 15.6666 6.27129 15.7094 6.2457 15.7508C6.02177 16.1156 5.7908 16.4766 5.57518 16.8465C5.49457 16.9849 5.42803 16.9811 5.30326 16.9027C4.74151 16.5506 4.17528 16.2068 3.60776 15.8643C3.48812 15.7923 3.40174 15.7432 3.51115 15.5799C3.60584 15.4383 3.66854 15.3917 3.82914 15.4951C4.27125 15.7802 4.73063 16.0391 5.17146 16.3267C5.35061 16.4434 5.4357 16.4071 5.52975 16.2336C5.65964 15.9944 5.80999 15.7668 5.95459 15.5359C5.99426 15.4727 6.0352 15.386 6.13438 15.4549C6.2022 15.5021 6.30393 15.5161 6.31864 15.6258H6.318Z" fill="#4B5C20"/>
<path d="M20.3647 10.7296C20.7262 10.6939 21.2438 10.5255 21.485 10.3571C21.7256 10.1888 22.0148 9.93684 22.0871 9.81694C22.1594 9.69704 22.352 9.36092 22.352 9.36092L22.3936 9.32967C22.0896 9.45213 21.7947 9.61667 21.5093 9.83161C20.6609 10.4719 19.7908 10.4165 18.9296 9.79334C18.611 9.5631 18.3423 9.27801 18.0998 8.9706C17.4536 8.14977 17.0095 7.21732 16.6007 6.26511C16.1925 5.31417 15.9398 4.30647 15.5501 3.35043C14.9967 1.99195 14.0395 1.02442 12.6486 0.502078C12.4624 0.431922 12.3524 0.431284 12.2705 0.652596C12.1726 0.91919 12.0337 1.26806 11.9346 1.53338C11.9346 1.53338 12.1272 1.6654 12.5008 1.7853C12.8745 1.90521 13.3319 2.0857 13.7171 2.49388C14.1022 2.90207 14.4881 3.40655 14.7766 4.2344C14.7766 4.2344 15.1016 5.18279 15.4753 5.96344C15.8489 6.74409 16.38 7.80154 16.6794 8.28051C16.9987 8.79074 17.5163 9.56501 17.6852 9.70916C17.8541 9.85329 18.149 10.2972 18.8471 10.5498C19.5458 10.8017 20.0032 10.766 20.3647 10.7296Z" fill="#6D9508"/>
<path d="M31.6671 11.9185C31.9799 12.2546 32.8833 12.9746 33.1604 13.1787C33.4374 13.3828 34.5091 14.2113 35.6895 14.9913C36.87 15.772 37.9775 15.9761 38.9897 15.9876C40.0012 15.9997 41.0972 15.5194 41.0972 15.5194L41.1132 15.4729C41.1766 15.0443 41.1772 14.6099 41.1267 14.1756C41.1126 14.0576 41.1324 13.9262 41.0454 13.7929C40.9533 13.8988 40.8778 13.9862 40.801 14.0736C40.5227 14.3918 40.2105 14.6705 39.8419 14.8823C39.5246 15.0647 39.1855 15.1342 38.8246 15.0736C38.5303 15.0245 38.4785 14.9231 38.6032 14.6578C38.7325 14.3829 38.8393 14.0991 38.8956 13.8012C39.0972 12.7297 38.9391 11.7431 38.188 10.9018C38.1381 10.8464 38.085 10.7564 38.0037 10.7794C37.9244 10.8017 37.9231 10.9044 37.9071 10.9777C37.8022 11.4452 37.6717 11.9044 37.4375 12.3254C37.0728 12.9798 36.6173 13.2094 35.886 13.0926C35.6665 13.0576 35.449 12.9842 35.2436 12.8981C34.2852 12.4969 33.4048 11.9453 32.4982 11.4452C31.0976 10.6735 29.6581 10.0319 28.1526 9.59949C28.1526 9.59949 28.8737 9.87565 29.319 10.1397C29.7643 10.4037 30.1737 10.6442 30.4271 10.8719C30.6798 11.1002 31.3542 11.5804 31.6677 11.9166L31.6671 11.9185Z" fill="#6D9508"/>
<path d="M45.9213 24.2067C45.8003 24.111 45.6858 24.2481 45.5777 24.2985C45.037 24.553 44.4881 24.7207 43.8777 24.5817C43.2449 24.4375 42.8092 24.0217 42.4285 23.5466C42.1489 23.1977 41.8853 22.8367 41.6211 22.4757C41.6294 22.5631 41.7491 23.8399 41.9819 24.5358C42.2225 25.2558 42.6896 25.8834 42.9698 26.1927C43.307 26.5652 44.1624 27.0569 44.1624 27.0569L44.2002 27.0601C45.1081 26.5518 45.7389 25.7756 45.9942 24.6429C46.0294 24.4854 46.0563 24.3138 45.9219 24.2067H45.9213Z" fill="#6D9508"/>
<path d="M41.5801 22.4196C41.5942 22.4387 41.6076 22.4573 41.6217 22.4765C41.6217 22.4733 41.6217 22.4714 41.6217 22.4714L41.5807 22.4196H41.5801Z" fill="#6D9508"/>
<path d="M41.992 36.7959C41.9517 36.6587 41.9485 36.5452 41.9805 36.4572C41.8903 36.3839 41.34 35.947 40.7783 35.7607C40.278 35.5943 40.2568 35.6829 40.2664 35.7218C40.1244 36.1523 39.9625 36.5784 39.777 36.9993C39.2363 38.2251 38.4763 39.2915 37.5626 40.2482C36.8275 41.0186 35.972 41.6532 35.0661 42.226C34.4582 42.6099 33.8236 42.9173 33.1658 43.1967C32.375 43.5322 31.5714 43.8077 30.707 43.8855C30.8971 43.9231 31.0813 43.9474 31.2669 43.9544C32.6533 44.0092 33.9221 43.5392 35.1774 43.0474C36.1793 42.6552 37.0111 41.9721 37.8723 41.3458C38.5198 40.8751 39.1244 40.3445 39.8307 39.9555C40.4974 39.5881 41.1257 39.7488 41.5109 40.4025C41.6292 40.6034 41.7246 40.819 41.8109 41.0359C41.8813 41.2132 41.9421 41.254 42.0873 41.0965C42.5013 40.6462 42.7233 40.1257 42.738 39.5116C42.7521 38.9025 42.5634 38.3419 42.3541 37.7838C42.2307 37.456 42.0918 37.132 41.9926 36.7971L41.992 36.7959Z" fill="#6D9508"/>
<path d="M41.9852 36.4407C41.9827 36.4458 41.9814 36.4522 41.9795 36.4573C41.9878 36.4644 41.9936 36.4689 41.9936 36.4689L41.9852 36.4401V36.4407Z" fill="#6D9508"/>
<path d="M23.4232 43.7083C23.0739 43.6242 22.207 43.5884 22.207 43.5884C22.207 43.5884 21.7853 43.3486 21.3637 43.2766C20.9421 43.2045 20.4481 43.3365 20.0508 44.0808C19.6535 44.8251 19.9702 45.4699 19.9702 45.4699C20.3765 45.8271 20.8135 46.1511 21.2671 46.4572C21.5537 46.6504 21.6158 46.6281 21.7041 46.2952C21.8186 45.8621 21.9063 45.4214 22.0835 45.0075C22.3407 44.4074 22.7418 43.9686 23.4226 43.8665C23.7265 43.8206 24.0285 43.8684 24.3273 43.9188C24.3759 43.9271 24.4239 43.9354 24.4725 43.943L24.2902 43.8888C24.2902 43.8888 23.7726 43.7925 23.4232 43.709V43.7083Z" fill="#6D9508"/>
<path d="M14.3781 39.3503C14.3781 39.3503 13.9808 39.4345 13.222 39.4345C12.4632 39.4345 11.7165 39.2661 11.7165 39.2661L11.6615 39.2598C11.3787 39.6782 10.9276 39.8695 10.3838 39.807C10.2431 39.791 10.0281 39.6915 9.97561 39.791C9.90139 39.9314 10.0581 40.0921 10.1573 40.2209C10.2463 40.3363 10.3448 40.4499 10.4587 40.5392C11.3858 41.2675 12.4274 41.4952 13.5739 41.2114C13.9111 41.1278 13.906 41.1113 13.9335 41.4633C13.9699 41.9295 14.0454 42.3798 14.1606 42.8129L14.174 42.7721C14.174 42.7721 14.1261 42.0278 14.1497 41.1636C14.174 40.2994 14.3788 39.351 14.3788 39.351L14.3781 39.3503Z" fill="#6D9508"/>
<path d="M9.51286 31.4992C9.62098 30.9711 10.2115 30.2746 10.5366 29.8065C10.8616 29.3384 11.4278 28.7739 11.8251 28.1495C12.2225 27.5251 12.09 26.733 12.09 25.5927C12.09 24.4523 11.8731 23.3476 11.7048 22.1588C11.5359 20.97 11.5001 20.19 11.5244 19.4457C11.5487 18.7014 11.6613 18.0496 11.6613 18.0496C10.66 19.9011 10.1821 21.9101 10.177 24.0703C10.1744 25.2482 10.1744 26.4288 10.0036 27.5991C9.81101 28.9193 9.11361 29.8167 7.80392 30.2038C7.44691 30.3097 7.08797 30.4086 6.71624 30.4232C6.43153 30.4341 6.39058 30.5457 6.48207 30.7887C6.60748 31.1223 6.77255 31.4252 7.02911 31.6778C7.39508 32.0375 7.85959 32.2205 8.32153 32.4106C8.4079 32.4463 8.53651 32.4476 8.54994 32.5515C8.5621 32.6421 8.44245 32.6772 8.37591 32.7314C7.37781 33.5439 6.82117 34.5204 7.18331 35.8527C7.37077 36.5428 7.66508 37.1659 8.0816 37.7418C8.0816 37.7418 7.92421 36.2296 8.16477 35.3176C8.36695 34.5523 8.70669 33.7927 8.86345 33.5407C9.0202 33.2888 9.39321 32.8685 9.61011 32.6166C9.80205 32.3934 9.40537 32.0286 9.5135 31.4998L9.51286 31.4992Z" fill="#6D9508"/>
</g>
<defs>
<clipPath id="clip0_697_2143">
<rect width="54" height="53" fill="white"/>
</clipPath>
</defs>
</svg>
