<svg width="93" height="173" viewBox="0 0 93 173" fill="none" xmlns="http://www.w3.org/2000/svg">
<g opacity="0.8">
<path d="M58.7016 25.7993C58.6991 25.7976 58.6969 25.798 58.6944 25.7962C58.6917 25.8055 58.6885 25.8126 58.6858 25.8219L58.7016 25.7993Z" fill="#899764"/>
<path d="M67.5726 41.899C67.5729 41.9011 67.5729 41.9011 67.5726 41.899C67.5573 41.8367 67.5193 41.6831 67.4616 41.4421C67.4234 41.5203 67.4507 41.6627 67.5726 41.899Z" fill="#899764"/>
<path d="M71.7425 97.963C71.7359 97.9751 71.7293 97.9873 71.7227 97.9994C71.7368 97.9925 71.7513 97.9878 71.7654 97.9809L71.7425 97.963Z" fill="#899764"/>
<path d="M52.3312 28.4951C52.3353 28.4813 52.3398 28.4696 52.3435 28.4537C52.3362 28.4615 52.3271 28.4719 52.3198 28.4797L52.3312 28.4951Z" fill="#899764"/>
<path d="M90.676 78.6436C90.6756 78.6413 90.6752 78.6391 90.6752 78.6391C90.6706 78.6399 90.6687 78.6425 90.6641 78.6433L90.676 78.6436Z" fill="#899764"/>
<path d="M71.2032 144.109C71.199 144.11 71.1922 144.109 71.1879 144.109C71.1887 144.114 71.1916 144.118 71.1923 144.122L71.2032 144.109Z" fill="#899764"/>
<path d="M91.4274 80.129C91.4242 80.1229 91.4231 80.1165 91.4198 80.1105C91.4159 80.1134 91.412 80.1163 91.4078 80.117L91.4274 80.129Z" fill="#899764"/>
<path d="M70.6603 144.107C70.6571 144.101 70.6564 144.097 70.6532 144.091C70.6487 144.09 70.6425 144.091 70.6379 144.09L70.6603 144.107Z" fill="#899764"/>
<path d="M62.6226 42.5439C62.6204 42.5443 62.6183 42.5446 62.6136 42.5433C62.6086 42.553 62.6054 42.5603 62.6001 42.5679L62.6226 42.5439Z" fill="#899764"/>
<path d="M61.6427 43.4798C61.6443 43.5011 61.643 43.5185 61.6467 43.5394L61.6681 43.5141C61.6593 43.5006 61.6512 43.4913 61.6427 43.4798Z" fill="#899764"/>
<path d="M31.0461 62.4756C31.3613 61.5842 31.5228 60.6072 31.7795 59.6915C32.0535 58.7142 32.1988 57.7314 31.7493 56.7799C31.5282 56.3122 31.437 56.2005 31.594 55.6899C31.689 55.3809 31.781 54.8211 32.1257 54.8469C32.0526 55.3665 32.0247 55.7981 32.0833 56.3269C32.8141 55.3471 32.8291 54.3873 32.6678 53.1901C31.9264 53.6305 31.6929 53.8427 31.3873 54.7021C31.1062 55.4923 30.9813 56.3199 30.8535 57.1436C30.8218 57.3571 30.7252 57.4975 30.5947 57.605C29.9443 57.6157 29.8179 57.5991 29.7165 57.6386C29.2359 57.8251 29.099 58.2044 29.038 58.6201L28.8017 58.7548C28.6462 58.5116 28.4172 58.2943 28.0568 58.0568C26.9925 57.3545 26.7394 58.2415 24.6105 55.778C24.0743 55.1579 23.6311 54.7337 23.2566 54.4532C23.1903 54.335 23.0725 54.2324 22.8736 54.1613C22.7789 54.1282 22.6801 54.0958 22.5794 54.0659C22.4914 54.0338 22.4099 54.0136 22.3322 54.0034C21.674 53.8466 20.9226 53.7756 20.3131 53.7596L20.3108 53.7838C19.7418 53.8993 18.5811 54.8251 18.1594 55.3585C17.6365 56.0181 16.4291 55.7697 15.4666 55.829C14.5042 55.8883 10.0399 55.099 10.0399 55.099C9.74163 55.6193 12.7952 55.7695 12.9817 56.1632C13.1664 56.5594 12.7637 56.2298 11.458 56.5055C9.28157 56.9672 8.6638 56.7817 8.73031 57.2572C8.79682 57.7327 10.6622 57.3994 12.1632 57.1131C13.4418 56.8681 13.4859 57.2653 13.4859 57.2653C13.4859 57.2653 9.04799 59.2432 8.29786 59.3884C7.54774 59.5337 7.31735 59.8861 7.59124 60.063C7.86685 60.2375 10.4372 59.2321 10.9255 58.8926C11.1706 58.7216 11.8368 58.5306 12.4901 58.3526C13.1375 58.1778 13.7721 58.0161 13.9773 57.9019C14.3857 57.674 12.8252 59.1098 12.5025 59.3075C12.1798 59.5051 10.5351 61.1269 10.2304 61.4513C9.92575 61.7757 10.4462 61.9871 10.4462 61.9871L13.7685 59.5563L15.8724 58.4253C15.8724 58.4253 15.6633 59.3652 15.1953 59.9306C14.7272 60.496 14.6958 61.5344 14.5674 62.0595C14.441 62.5841 15.2577 62.2756 15.2577 62.2756C15.2577 62.2756 15.2577 62.2756 15.4729 61.235C15.6882 60.1945 16.8427 58.3733 17.6733 57.5296C18.504 56.6858 18.6803 56.8994 20.0658 56.5598C20.1592 56.5369 20.2424 56.5049 20.3186 56.4698C20.783 56.8058 21.3028 57.2469 21.7333 57.5131C22.0491 57.7064 22.2396 57.7422 22.4419 57.8451C22.5775 57.9749 22.7074 58.0971 22.8312 58.2095C22.9321 58.3888 23.2212 58.7623 23.2212 58.7623C23.4679 59.3013 23.2868 58.9867 23.4679 59.3012C23.7557 59.8027 25.4985 62.1047 25.967 62.4509C26.1337 62.5731 26.2473 62.6029 26.3295 62.5775C26.7451 63.1279 27.2037 63.517 27.7565 63.6165C27.7678 63.6319 27.7767 63.6454 27.7881 63.6608C27.7922 63.6471 27.7945 63.6358 27.7986 63.6221C28.0927 63.6677 28.4141 63.6348 28.7714 63.4982C28.8263 63.4777 28.8787 63.4555 28.929 63.4336C29.0309 63.6798 29.2309 63.8676 29.5961 63.9483C29.4907 64.1986 29.3751 64.4766 29.2591 64.7526C29.9319 65.0043 30.8769 62.9537 31.0461 62.4756ZM30.6552 61.254C30.656 61.1477 30.6766 61.0683 30.7087 61.0042C30.7534 61.1349 30.7451 61.2229 30.6552 61.254Z" fill="#899764"/>
<path d="M87.3533 155.785C87.3447 155.786 87.3357 155.785 87.327 155.787C87.3325 155.793 87.3354 155.797 87.3409 155.802L87.3533 155.785Z" fill="#899764"/>
<path d="M73.4962 147.776C75.6119 148.789 77.5705 150.028 79.4369 151.458C80.8774 152.561 82.425 153.547 84.0095 154.434C85.0431 155.012 85.9821 155.938 87.3272 155.787C86.8575 155.312 86.4437 154.759 85.9079 154.375C82.0604 151.614 78.1987 148.872 74.3061 146.176C73.9505 145.929 73.6034 144.931 72.9712 145.72C72.3334 146.515 72.5373 147.315 73.4962 147.776Z" fill="#899764"/>
<path d="M91.4283 80.1289L91.4083 80.1168C91.4047 80.1219 91.4011 80.127 91.3976 80.1321C91.4088 80.1324 91.4175 80.1308 91.4283 80.1289Z" fill="#899764"/>
<path d="M90.9086 80.1729C90.903 80.1782 90.8979 80.1856 90.8902 80.1913C90.8927 80.193 90.8951 80.1948 90.8976 80.1965C90.6463 80.7865 90.5626 81.5288 89.6713 81.5366C88.6185 84.3034 86.3855 86.1653 84.2308 88.2495C84.6562 88.2286 84.841 88.2198 85.0258 88.2111C84.9343 88.4048 84.8929 88.7109 84.744 88.7761C82.7578 89.6655 81.6222 92.1222 78.9847 91.8618C78.5658 91.8209 78.4033 92.3866 78.6599 92.8459L78.662 92.8455C79.4476 93.086 79.8392 92.4192 80.3935 92.1093C80.7722 91.8974 81.191 91.6677 81.6096 91.6329C83.3199 91.4894 80.9625 92.1779 81.9321 92.2451C82.0933 92.1149 82.3623 91.8466 82.6787 91.65C83.5375 91.1132 83.938 90.1158 84.6384 89.5288C86.0435 88.3543 87.5692 87.3728 88.4667 85.6793C88.7708 85.1059 90.1288 84.7582 89.6313 84.1487C88.8687 83.2156 89.6697 82.9163 89.9338 82.4236C90.3611 81.6272 90.9034 80.8927 91.3955 80.1325C91.2305 80.1551 91.0676 80.1773 90.9025 80.1999L90.9086 80.1729Z" fill="#899764"/>
<path d="M37.0203 42.2257C37.0255 42.2312 37.0308 42.2367 37.036 42.2422C37.0381 42.2418 37.0405 42.2435 37.0426 42.2432L37.0203 42.2257Z" fill="#899764"/>
<path d="M35.2362 48.5192C35.4187 48.0301 35.3428 47.6862 35.6291 47.1961C35.8988 46.7349 36.0692 46.3736 35.576 45.9733C36.9521 46.0598 36.6481 45.1715 36.4908 44.2551C36.3428 43.3912 37.8244 43.0195 37.0377 42.2444C34.9384 41.8285 34.8172 43.2552 34.4898 44.4953C34.6146 44.1831 34.7748 43.8994 35.0677 43.7048C35.5206 44.4175 34.627 46.158 34.3411 46.9945C34.306 46.5372 34.2709 46.08 34.2358 45.6228C34.1996 46.1056 33.1372 46.6675 34.3196 47.0567C34.3196 47.0567 34.32 47.0588 34.3179 47.0592C33.7099 47.5562 33.1871 47.958 32.9934 48.7522C32.8876 49.1845 32.6484 50.212 32.9245 50.5487C33.0968 50.1004 33.2691 49.6521 33.2869 49.6056C34.375 49.7797 34.3332 47.9573 35.2362 48.5192Z" fill="#899764"/>
<path d="M34.4909 44.4925C34.3917 44.7418 34.3172 45.0083 34.2195 45.2659C34.3346 45.0333 34.4179 44.7674 34.4909 44.4925Z" fill="#899764"/>
<path d="M78.1096 93.5251C76.415 94.0773 75.1015 95.2184 73.2472 96.5241C74.2445 96.2444 74.7358 96.1058 75.4356 95.9087C74.9318 96.3939 74.6056 96.7069 74.2798 97.022C74.6477 96.8597 75.0363 96.7284 75.3821 96.5267C76.5726 95.8317 77.7515 95.1193 78.921 94.3912C79.0539 94.3093 79.1014 94.0865 79.1883 93.9283C79.1087 93.9683 79.0294 94.0104 78.9498 94.0505C78.8552 93.6492 78.7582 93.2462 78.6636 92.845L78.6615 92.8453C78.4798 93.0809 78.3433 93.4493 78.1096 93.5251ZM77.0041 94.9609C76.5955 95.1997 76.1869 95.4385 75.7783 95.6772C75.7359 95.6089 75.6918 95.5431 75.6495 95.4748C76.0468 95.2336 76.4442 94.9925 76.8412 94.7492C76.8952 94.822 76.9488 94.8927 77.0041 94.9609ZM78.9418 94.054C78.4783 94.2029 78.0166 94.3493 77.5531 94.4981C77.5435 94.4067 77.5215 94.233 77.5257 94.2323C77.997 94.1643 78.4687 94.1115 78.9418 94.054Z" fill="#899764"/>
<path d="M87.3507 155.787C87.3524 155.784 87.3396 155.8 87.3396 155.8C87.3469 155.803 87.3523 155.809 87.3596 155.812C87.358 155.803 87.3543 155.795 87.3507 155.787Z" fill="#899764"/>
<path d="M91.0691 158.724C91.2132 158.829 91.4817 158.766 91.692 158.779C91.562 158.607 91.4641 158.384 91.2929 158.273C89.9889 157.44 88.6714 156.629 87.3573 155.812C87.9139 157.641 89.7968 157.801 91.0691 158.724Z" fill="#899764"/>
<path d="M90.89 80.1934C90.1845 79.7071 89.7883 80.864 89.1138 80.5412C89.2828 82.3845 87.212 82.8926 86.8525 84.4545C87.4998 84.2667 87.8494 83.681 88.2818 83.1717C88.7521 82.6189 89.2174 82.0626 89.6873 81.5077L89.6693 81.5411C89.6714 81.5408 89.6714 81.5408 89.6735 81.5404C89.6753 81.5379 89.677 81.5355 89.6763 81.5313C90.0805 81.0832 90.4854 80.6393 90.89 80.1934Z" fill="#899764"/>
<path d="M64.066 42.4979C64.0659 42.485 64.0679 42.4718 64.0681 42.4609C64.0608 42.4558 64.0534 42.4506 64.0456 42.4434C64.0436 42.4437 64.0415 42.4441 64.039 42.4424C64.0486 42.4601 64.0585 42.4798 64.066 42.4979Z" fill="#899764"/>
<path d="M64.5584 43.5067C64.6296 43.6523 64.6984 43.7961 64.7696 43.9416C64.7111 43.7332 64.6389 43.5943 64.5584 43.5067Z" fill="#899764"/>
<path d="M61.6467 43.5394C61.655 43.5357 61.6632 43.5321 61.6715 43.5284C61.6703 43.5219 61.6696 43.5176 61.6684 43.5111L61.6467 43.5394Z" fill="#899764"/>
<path d="M62.6303 42.5579C62.6274 42.554 62.6266 42.5497 62.6233 42.5435L62.6011 42.5698C62.6112 42.5636 62.6198 42.562 62.6303 42.5579Z" fill="#899764"/>
<path d="M62.6292 42.5583C62.703 42.7185 62.7746 42.8791 62.8484 43.0394C62.457 43.2037 62.0652 43.3659 61.6738 43.5302C61.7323 43.8621 61.7909 44.1939 61.8494 44.5258C61.7837 43.9201 63.12 44.4814 62.8555 43.952C63.1891 44.3696 64.0566 42.9606 64.5606 43.5085C64.3971 43.1713 64.234 42.8362 64.0706 42.499C64.0554 42.7204 64.0389 42.9464 64.0175 43.2426C63.6934 42.7193 63.3278 42.2315 62.6292 42.5583Z" fill="#899764"/>
<path d="M84.995 95.3754C85.8094 94.7099 87.1357 94.0104 87.3675 92.9777C86.5423 93.3116 85.7162 94.4513 84.7644 94.2271C84.5727 94.7374 84.8919 95.4174 84.995 95.3754Z" fill="#899764"/>
<path d="M83.3091 88.1756C83.2268 89.0975 81.4576 89.2882 81.7832 90.2009C82.2892 90.0229 82.8416 89.8129 83.2143 89.4072C83.6509 88.9339 83.6441 88.6622 83.3091 88.1756Z" fill="#899764"/>
<path d="M71.2064 144.106C71.2025 144.109 71.1917 144.122 71.1917 144.122C71.204 144.117 71.2129 144.118 71.2253 144.114C71.2186 144.113 71.2136 144.109 71.2064 144.106Z" fill="#899764"/>
<path d="M71.1572 145.583C71.7803 145.43 72.0844 145.238 72.5802 144.83C72.1386 144.574 71.8803 143.957 71.2274 144.113C71.7946 144.332 71.2667 145.172 71.1572 145.583Z" fill="#899764"/>
<path d="M33.3906 52.3979C33.6416 52.2605 33.6259 51.6309 33.7315 51.2225C33.5256 51.2588 33.3196 51.2951 33.1894 51.3181C33.3458 51.3945 32.8823 52.6738 33.3906 52.3979Z" fill="#899764"/>
<path d="M33.127 51.3292C33.1458 51.3259 33.1666 51.3222 33.1896 51.3182C33.1756 51.312 33.1561 51.3112 33.127 51.3292Z" fill="#899764"/>
<path d="M88.4168 92.9055C88.9033 92.1743 89.3901 91.4453 89.8646 90.7076C89.8729 90.6932 89.7417 90.5885 89.6766 90.5264C89.1775 91.2597 88.6809 91.9948 88.1818 92.7282C88.2617 92.7877 88.3394 92.8477 88.4168 92.9055Z" fill="#899764"/>
<path d="M37.0213 42.2254L37.0465 42.2449C37.0496 42.2378 37.0549 42.2304 37.058 42.2233C37.0449 42.2234 37.0343 42.2253 37.0213 42.2254Z" fill="#899764"/>
<path d="M38.008 40.5137C37.6491 41.1574 37.3531 41.6903 37.0566 42.2212C38.093 42.1511 38.2987 41.5604 38.008 40.5137Z" fill="#899764"/>
<path d="M38.079 39.1351C38.0849 39.1319 38.0908 39.1287 38.097 39.1276C38.0966 39.1256 38.0963 39.1235 38.098 39.121C38.091 39.118 38.0844 39.117 38.0754 39.1143C38.0744 39.1209 38.0779 39.1289 38.079 39.1351Z" fill="#899764"/>
<path d="M38.648 40.1975C39.2048 39.8525 38.1409 39.4597 38.0793 39.1349C37.1845 39.4919 38.0756 40.5518 38.648 40.1975Z" fill="#899764"/>
<path d="M71.7715 97.9474C72.4039 97.589 73.0366 97.2327 73.6693 96.8764C72.9494 97.0944 71.9581 96.8923 71.7715 97.9474Z" fill="#899764"/>
<path d="M71.7398 97.9636L71.7631 97.9837C71.7651 97.9702 71.7696 97.9584 71.772 97.947C71.7617 97.951 71.7497 97.9575 71.7398 97.9636Z" fill="#899764"/>
<path d="M80.7111 98.0775C81.0765 97.9503 81.4725 97.5535 81.7945 97.3277C81.2787 97.057 80.502 97.7397 80.0204 98.0066C80.3531 98.0995 80.4233 98.1781 80.7111 98.0775Z" fill="#899764"/>
<path d="M52.5515 49.8897C52.7613 49.5561 52.9712 49.2224 53.3079 48.6866C52.7631 48.9147 52.3937 48.9582 52.2724 49.155C52.1881 49.2911 52.4463 49.6376 52.5515 49.8897Z" fill="#899764"/>
<path d="M58.6482 22.3462C57.9644 22.7201 57.9753 23.0279 57.7659 23.7816C57.9683 23.6636 58.171 23.5478 58.3734 23.4298C57.998 23.353 58.5509 22.5192 58.6482 22.3462Z" fill="#899764"/>
<path d="M56.7637 27.2889C57.3397 26.7954 58.7427 27.2193 58.4163 25.7242C58.2362 26.6568 57.2834 26.7339 56.7637 27.2889Z" fill="#899764"/>
<path d="M34.2378 45.6223C34.2406 45.5893 34.2372 45.5574 34.2295 45.5263C34.233 45.5582 34.2343 45.5904 34.2378 45.6223Z" fill="#899764"/>
<path d="M51.7464 27.9918C51.3144 28.2088 51.0338 28.5225 51.4471 28.9369C51.5134 29.0053 52.0002 28.6574 52.3042 28.489C51.9814 28.4766 51.7155 28.4066 51.7464 27.9918Z" fill="#899764"/>
<path d="M52.3296 28.491C52.3326 28.495 52.3208 28.4792 52.3208 28.4792C52.3147 28.4825 52.3086 28.4858 52.3024 28.4891C52.3115 28.4898 52.3206 28.4904 52.3296 28.491Z" fill="#899764"/>
<path d="M73.245 68.6421C73.2501 68.6456 73.2533 68.6517 73.2566 68.6577C73.2583 68.6552 73.2601 68.6527 73.2622 68.6523C73.2572 68.6488 73.245 68.6421 73.245 68.6421Z" fill="#899764"/>
<path d="M66.3982 42.0434C65.9526 42.6396 66.0414 42.6023 66.6033 43.0468C66.8899 42.6194 66.6608 42.4757 66.3982 42.0434Z" fill="#899764"/>
<path d="M89.8431 78.897C89.6794 79.0623 89.7978 79.2298 89.9505 79.3458C90.5454 79.7953 90.6267 79.0642 90.6607 78.6792C90.5712 78.8357 90.4773 78.9909 90.3829 79.144C90.2355 78.9837 90.1045 78.6343 89.8431 78.897Z" fill="#899764"/>
<path d="M90.6787 78.6474C90.6737 78.6439 90.6627 78.6436 90.6627 78.6436C90.6624 78.6547 90.6604 78.6682 90.6602 78.6792C90.6668 78.6671 90.6738 78.657 90.6787 78.6474Z" fill="#899764"/>
<path d="M79.7028 93.1449C79.7519 93.2142 79.8013 93.2856 79.8503 93.3549C80.2588 93.0663 80.6673 92.7777 81.0737 92.4895C81.029 92.4324 80.9867 92.3771 80.942 92.32C80.5292 92.5963 80.116 92.8706 79.7028 93.1449Z" fill="#899764"/>
<path d="M27.4292 76.604C27.495 76.2762 27.7554 75.7365 27.4104 75.5873C27.3269 75.9008 27.2439 76.2165 27.1604 76.5301C27.2494 76.5555 27.3385 76.581 27.4292 76.604Z" fill="#899764"/>
<path d="M89.9253 83.237C89.7263 83.5341 89.7349 83.5218 89.997 83.7419C90.1551 83.5451 90.3136 83.3504 90.539 83.0681C90.1708 82.9706 90.1446 82.9081 89.9253 83.237Z" fill="#899764"/>
<path d="M70.6594 144.108L70.6369 144.09C70.6288 144.117 70.6182 144.143 70.6101 144.17C70.6256 144.148 70.6435 144.128 70.6594 144.108Z" fill="#899764"/>
<path d="M70.2678 145.175C70.3822 144.84 70.4963 144.504 70.6107 144.17C70.3859 144.443 70.1611 144.717 69.9363 144.99C70.0467 145.051 70.1571 145.112 70.2678 145.175Z" fill="#899764"/>
<path d="M72.5164 96.4453C72.3596 96.5271 71.7061 96.7657 71.7926 96.9367C71.8791 97.1077 72.4759 96.7318 72.6341 96.6584C72.5956 96.5872 72.5549 96.5164 72.5164 96.4453Z" fill="#899764"/>
<path d="M58.7019 25.7989L58.6858 25.8219C58.6963 25.8178 58.705 25.8163 58.7154 25.8122C58.7103 25.8086 58.7048 25.8029 58.7019 25.7989Z" fill="#899764"/>
<path d="M59.0239 26.1326C59.2496 25.9996 59.4447 25.8158 59.9089 25.4373C59.2869 25.6336 58.9955 25.7261 58.7143 25.8147C58.8242 25.9339 58.9925 26.1511 59.0239 26.1326Z" fill="#899764"/>
<path d="M70.0287 103.718C69.966 103.892 69.9082 104.056 69.8849 104.12C69.8965 104.272 70.6737 104.202 70.0287 103.718Z" fill="#899764"/>
<path d="M69.8827 104.12C69.8683 104.165 69.8715 104.158 69.8827 104.12V104.12Z" fill="#899764"/>
<path d="M60.8978 25.7956C60.7807 25.6971 60.664 25.6007 60.5449 25.5026C60.4352 25.7407 60.3224 25.9858 60.1326 26.3961C60.4638 26.1363 60.6808 25.9659 60.8978 25.7956Z" fill="#899764"/>
<path d="M92.5841 2.33904C90.1204 5.95233 89.7186 14.7456 88.9639 15.1234C88.2114 15.5007 88.0884 13.4025 87.6438 12.2574C87.1971 11.1127 86.5518 8.37455 86.5518 8.37455C85.4088 9.38814 87.3295 15.3163 87.5266 16.6804C87.8403 18.8403 85.7286 20.185 83.7282 20.1219C81.9547 20.0665 78.2057 18.4062 77.8696 20.6656C77.8452 20.8345 77.8258 21.0198 77.8133 21.219C77.6107 21.2743 77.4952 21.418 77.4732 21.8464C77.4363 22.5588 77.5099 23.2712 77.574 23.9789C77.6143 24.4287 77.8332 25.1415 77.6305 25.5649C77.3152 26.2224 76.1358 25.9237 76.066 26.7567C75.987 26.7143 75.9077 26.6698 75.8266 26.6278C76.1406 26.2953 76.7171 25.767 76.8961 25.4799C74.4912 24.228 71.9589 22.8685 69.1781 22.7785C68.5047 22.7565 68.0223 22.7982 67.3725 22.6031C67.0042 22.4927 66.7153 22.4028 66.4454 22.7276C66.2615 22.9506 66.3557 23.4234 65.9347 23.3828C65.441 23.3356 65.5699 22.4446 65.511 22.1106C65.3954 22.3887 65.198 23.3092 64.7195 23.2009C64.478 23.146 64.4591 22.4001 64.1163 22.2007C63.117 21.6211 61.8783 22.0063 60.8346 22.4285C59.9904 21.8065 59.5598 22.2527 59.1522 22.4112C58.9592 22.4842 58.9191 22.9568 58.8099 23.2468C59.7415 23.5654 59.5275 21.9097 60.7923 22.4468C60.57 22.5379 60.3544 22.6301 60.1549 22.7151C60.5535 23.0952 60.9207 23.6541 61.6615 23.4066C61.6083 24.752 59.0504 23.6158 58.3836 23.4345L58.3804 23.4286C58.3783 23.429 58.3765 23.4314 58.3723 23.4322C58.3723 23.4322 58.3723 23.4322 58.3744 23.4318C58.1326 23.6455 57.8908 23.8592 57.651 24.0726C57.2216 22.8664 56.4898 23.5454 55.7793 23.7313C54.6692 24.0224 53.2567 23.5568 52.6604 25.0414C50.4904 25.1836 49.2953 27.1679 47.3993 27.8313C47.3993 27.8313 47.4014 27.831 47.4017 27.8331C46.3241 28.075 45.4146 28.6923 44.6078 29.4257C44.0063 29.9714 42.746 30.8736 42.6251 31.6745C43.5191 31.5709 44.1142 31.0503 44.3999 30.2008C44.9239 30.7884 44.5645 31.0726 44.1001 31.462C43.7245 31.7773 43.4325 32.2229 43.0203 32.4904C42.5652 32.7851 42.1069 32.6558 41.6351 32.8191C41.0798 33.0123 40.6409 33.6202 40.2938 34.0604C39.4478 35.1364 38.6302 36.2507 37.829 37.3599C36.9682 38.5489 36.0082 39.9244 35.8663 41.4176C36.5994 41.0284 36.7121 40.439 37.0801 39.7115C37.4463 38.9865 37.9484 38.3566 38.412 37.6924C39.2333 38.3682 38.0406 38.6089 38.1008 39.1223C38.8146 39.3364 39.3904 39.8 40.2696 39.0842C41.0388 38.457 39.903 38.5165 40.1312 37.9674C40.4812 37.1261 41.2102 37.1557 41.68 36.7112C41.6804 36.7133 41.6787 36.7158 41.679 36.7179C42.5116 36.5364 42.8489 36.0655 42.5489 35.2241C44.1252 35.4875 44.0844 33.9659 44.7296 33.2133C44.8535 33.068 44.593 32.8195 44.4539 33.1125C44.023 34.0113 43.3304 34.6423 42.5204 35.1728C42.6639 33.898 43.7098 33.1441 44.496 32.4294C46.0497 31.0165 47.8848 29.909 49.6274 28.7074C50.1608 28.3405 50.782 28.1032 51.3434 27.7725C52.2485 27.2404 52.7424 27.227 52.3521 28.4543C52.6321 28.1624 52.8687 27.7591 53.2092 27.6254C54.9314 26.9471 56.6828 26.3481 58.4244 25.7184C58.4248 25.7205 58.4252 25.7226 58.4255 25.7247C58.4252 25.7226 58.4269 25.7201 58.4265 25.718C58.518 25.7452 58.6091 25.7703 58.7006 25.7974C59.0885 24.4341 59.9871 25.8066 60.5675 25.4726L60.5459 25.498C60.5484 25.4998 60.5509 25.5015 60.5537 25.5053C60.5551 25.5008 60.5585 25.4958 60.5599 25.4912C60.9402 25.3008 61.3184 25.1107 61.6987 24.9202C61.2453 26.6502 63.7025 25.1385 64.3143 26.0765C64.5907 25.9975 65.1541 25.8375 65.7195 25.6772C65.6074 26.0001 64.7293 26.4148 65.3455 26.5422C65.9033 26.6582 66.0435 26.0401 66.1811 25.6651L66.1832 25.6647C66.549 26.3018 67.0285 26.0592 67.5896 25.9235C68.2543 25.7608 68.9708 25.8055 69.6646 25.759C69.3963 26.4862 68.7512 25.8875 68.3504 26.1336C68.1802 26.2373 68.0377 26.388 67.4731 26.86C69.1318 25.9937 69.9434 27.1801 71.0029 27.2532C71.0071 27.2524 71.0116 27.2538 71.018 27.2527C70.9053 27.8182 71.3566 27.7603 71.6926 27.8591C71.8801 27.9149 72.0466 28.0479 72.2219 28.1448C72.0259 28.2378 71.8168 28.4284 71.6352 28.4063C69.6205 28.1509 67.8433 26.9441 65.6676 27.1524C63.963 27.3165 62.0575 26.5373 60.5202 27.0357C57.4317 28.0394 54.179 28.2838 51.1663 29.8523C47.2583 31.8861 44.2112 34.5867 41.8301 38.1767C40.971 39.4737 40.1363 40.7859 39.3069 42.1037C38.2376 43.8059 37.3596 45.5978 36.7477 47.5225C36.097 49.5709 35.0543 51.4243 34.7662 53.6861C34.5758 55.1748 33.3456 56.7018 32.9889 58.378C32.2463 61.8589 31.049 65.1947 29.6214 68.4413C29.3895 68.9694 29.8649 70.0311 28.6995 70.033C28.5677 69.6665 28.1153 69.3132 28.5918 68.9065C29.3667 68.2502 29.5775 67.4182 29.6014 66.4353C29.6104 66.0439 29.6846 65.8013 29.245 65.8398C29.034 65.8597 28.8256 65.8207 28.626 66.2738C28.2841 67.0508 28.9485 68.0662 28.7233 68.1038C26.5565 68.4728 26.9846 70.7165 25.9064 71.8399C25.6538 72.1032 25.7296 72.7048 25.7176 73.153C25.7144 73.2575 25.9905 73.4839 26.0969 73.4608C28.9876 72.8471 29.144 74.2011 28.286 76.4009C27.9381 77.2916 27.0434 77.3909 26.4405 77.9043C26.4179 77.9235 26.1674 77.7684 26.1743 77.7217C26.3734 76.6017 25.5555 75.4532 26.2919 74.3207C26.4112 74.1373 27.1453 73.9255 26.6065 73.6719C26.2992 73.5269 25.7037 73.9957 25.2371 74.1884C25.6448 74.9524 24.7516 75.4043 24.7776 76.0559C24.9004 79.1482 24.0373 82.241 25.0508 85.3473C25.8446 87.7842 26.1903 90.3716 27.4386 92.6461C27.3848 92.8201 27.4874 93.0338 27.9011 93.4134C27.9011 93.4134 28.324 94.3003 30.0118 93.9182C33.0555 93.2256 35.6977 88.3639 36.827 85.38C38.0149 82.2363 40.1417 78.2732 40.1524 76.4783C40.1618 74.9218 40.3586 72.3514 39.5568 71.6872C39.4438 71.3412 39.4015 70.9784 39.572 70.5694C39.6465 70.3895 39.7051 70.2059 39.7588 70.0189C40.6806 70.5645 41.9907 70.3876 43.4176 70.136C45.6137 69.7487 45.9138 70.0618 46.7078 70.4112C47.5039 70.7602 49.6362 71.0555 50.918 71.3817C50.918 71.3817 51.1016 71.3536 51.3012 71.1712C51.3447 71.209 51.3865 71.2493 51.4244 71.2924C51.0831 71.5929 50.8757 73.2189 50.842 74.1582C50.7987 75.2767 49.6551 75.7837 48.8959 76.4914C48.1366 77.1991 43.9813 79.2311 43.9813 79.2311C44.0406 80.0348 46.6533 78.1882 47.0385 78.5296C47.4255 78.8685 46.8974 78.7494 45.9826 79.9393C44.4556 81.9214 43.8368 82.1106 44.172 82.6232C44.5072 83.1357 45.8527 81.5126 46.9223 80.1807C47.8341 79.0476 48.1037 79.483 48.1037 79.483C48.1037 79.483 45.6037 84.7332 45.0689 85.3992C44.5341 86.0652 44.5516 86.6316 44.883 86.6555C45.2144 86.6793 46.7457 83.8 46.9485 83.0821C47.0497 82.7221 47.487 82.056 47.9245 81.4158C48.3564 80.781 48.7865 80.1724 48.8865 79.9036C49.0906 79.3653 48.646 82.079 48.4968 82.5232C48.3476 82.9675 47.9424 85.9536 47.8825 86.5359C47.8227 87.1181 48.3754 87.0206 48.3754 87.0206L49.6881 81.9797L50.7585 79.2639C50.7585 79.2639 51.1391 80.5004 51.087 81.471C51.0325 82.4399 51.619 83.6769 51.8244 84.3748C52.0298 85.0727 52.5227 84.1694 52.5227 84.1694C52.5227 84.1694 52.5227 84.1694 52.0877 82.8082C51.6527 81.4471 51.5329 78.5557 51.7214 77.0196C51.9099 75.4835 52.1827 75.6173 53.1251 74.3013C53.2138 74.1774 53.2765 74.0537 53.3174 73.9296C53.5243 73.6527 53.607 73.2246 53.6924 72.8977C54.4714 69.9301 52.9899 67.7465 50.0252 66.97C48.6734 66.615 46.8501 66.2782 45.7746 65.6104C45.7524 65.5948 45.7305 65.5813 45.7107 65.5675C45.3825 65.3525 45.1286 65.1049 44.9901 64.811C44.0141 62.7289 45.5994 60.2666 46.2435 57.9962C46.3652 57.5677 47.3871 57.5997 46.9995 56.7781C46.6303 56.9947 46.2608 57.2093 45.923 57.4075C46.2104 55.3256 47.7769 53.408 49.0411 53.7697C48.5639 53.2995 48.1577 52.8146 48.734 52.2734C49.0407 51.9855 49.4885 51.8459 49.8725 51.6396C49.9217 51.9189 49.9714 52.2003 50.0239 52.4985C50.9911 52.1093 49.1657 50.138 51.336 50.4525C50.9866 50.1915 50.7619 50.0232 50.5348 49.8532C50.7908 49.8428 51.0471 49.8344 51.3333 49.8229C50.7413 49.0827 51.24 48.8757 51.8522 48.4646C52.6796 47.9094 55.0164 48.7014 53.9789 46.3074C54.4477 46.2378 54.1449 45.295 54.8629 45.5084C54.8629 45.5084 54.863 45.5084 54.8609 45.5088C54.9906 45.8389 58.1274 46.1541 58.2774 45.7509C58.5797 44.9462 58.9244 43.9889 58.6814 43.7784C58.5601 43.6309 58.9914 43.754 59.4001 43.1471C59.8608 43.4622 59.7399 42.2232 60.3179 42.8099C61.0226 43.5258 59.7286 43.3512 59.9257 43.6088C60.4864 44.3436 58.1407 44.1401 59.5029 44.9718C60.1779 45.3833 59.4095 44.54 59.9017 44.3947C60.6788 44.1689 61.555 43.6571 60.9225 42.491C61.1631 42.8232 61.4058 43.1551 61.646 43.4852C61.575 42.7874 61.9203 42.497 62.6169 42.5518C63.0303 41.6646 63.5411 42.0791 64.0487 42.4508C65.1145 42.5964 65.9874 41.2796 67.1349 41.9868C67.1279 41.6156 67.1194 41.1862 67.0923 39.9263C67.2567 40.6011 67.3811 41.1097 67.4628 41.4504C67.6556 41.057 69.5603 42.3474 69.5125 41.3878C69.7741 41.5691 70.215 41.7101 70.2638 41.9375C70.412 42.6303 69.627 42.197 69.416 42.5244C69.1812 42.8884 68.9269 43.2408 68.709 43.6148C68.7025 43.6268 69.0841 43.9233 69.1179 43.8935C69.6132 43.4706 70.5522 42.9217 70.6014 42.7463C71.0791 40.9947 72.3824 42.6835 73.0467 42.0639C73.1143 42.2014 73.1945 42.3367 73.2414 42.48C73.2504 42.5066 73.1474 42.5984 73.0834 42.6161C72.3996 42.806 71.7272 43.2321 70.8126 42.4817C71.3257 43.5237 72.61 43.778 72.6901 43.6794C73.3277 42.8957 73.8508 43.884 74.3864 43.677C74.3768 44.114 74.4089 44.5544 74.3526 44.9844C74.1872 46.2219 73.9755 47.4545 73.8056 48.6906C73.5846 50.3126 73.9487 52.5004 73.2995 53.4638C71.7591 55.7514 74.9178 56.7557 74.0695 58.5315C74.16 58.5654 74.2702 58.6499 74.3395 58.6247L75.7538 61.8898C75.7279 62.0135 75.6918 62.1649 75.6423 62.3512C75.5685 62.4119 75.555 62.5442 75.5453 62.6737C75.2927 63.3548 74.9124 63.1642 73.8809 64.2209C72.7762 65.3534 72.4399 65.4127 71.981 65.8206C71.522 66.2285 72.0731 66.1097 72.6432 66.1109C73.2133 66.1122 73.1562 65.7758 73.9445 65.5155C74.403 65.3632 74.6373 65.2786 74.3505 65.5197C73.9419 65.6849 73.6202 65.9495 73.3396 66.2631C73.1741 66.3811 72.989 66.5112 72.7788 66.6587C70.6931 68.1265 72.2436 66.9783 70.9066 68.4158C69.5696 69.8534 69.5033 69.4775 69.3651 69.9717C69.2265 70.4639 69.6892 70.077 70.3611 69.7831C71.033 69.4893 71.5378 68.874 72.3781 68.3188C72.8767 67.9883 73.3385 67.6947 73.6493 67.5403C73.7486 67.6116 73.879 67.6016 74.022 67.5525C73.9998 67.6106 73.9577 67.6916 73.899 67.7886C73.5289 68.209 73.2301 68.567 73.2548 68.6579L73.2987 68.6242C73.2866 68.6415 73.272 68.657 73.2578 68.6747C73.2553 68.673 73.255 68.6709 73.2525 68.6691C73.1733 68.7611 72.898 69.0305 72.7208 69.2913C72.3856 69.6514 72.0142 70.0027 71.6431 70.2825C70.4011 71.2139 70.524 71.1121 69.5372 72.4468C68.5504 73.7815 68.559 73.7194 68.6371 74.0521C68.7153 74.3848 69.8725 73.3037 70.593 72.7695C71.3136 72.2354 73.0403 70.3415 73.8681 69.6043C74.6959 68.8672 75.0131 68.3436 75.2957 68.5579C75.366 68.6126 75.3156 68.8424 75.1958 69.171C75.1467 69.2858 75.1022 69.4019 75.0598 69.5177C74.637 70.5363 73.8518 72.0802 73.6758 72.7781C73.4115 73.823 71.9753 78.5198 71.7585 79.2444C71.5418 79.9691 71.8428 79.6237 71.9954 79.5556C72.08 79.5191 72.6063 78.35 73.1115 77.2215C73.1654 77.1341 73.2085 77.0464 73.2249 76.9677C73.5851 76.1592 73.9153 75.4146 74.0388 75.1806C74.2091 74.8561 74.329 74.2091 74.4586 73.5431C74.6824 72.7111 74.9418 71.8966 75.2566 71.1135C75.927 69.8151 77.1358 67.835 78.008 67.0424C79.1511 66.005 79.1649 66.2061 79.5153 66.2266C79.8656 66.2471 79.7548 66.8968 80.091 68.5699C80.4271 70.243 80.2597 69.2937 80.9496 71.0062C81.6394 72.7187 81.3273 70.8378 81.2784 70.5606C81.2343 70.3107 80.5897 64.7747 80.3058 62.7957C80.3205 62.3384 80.2539 61.8131 80.1201 61.2022C79.7529 59.513 80.0598 57.616 79.0894 56.0202C78.1919 54.5435 77.138 53.0641 78.7524 51.5408C79.5384 50.8002 78.4092 49.9014 78.9705 49.6314C80.9421 48.6839 80.581 46.8203 80.8376 45.2528C80.9678 44.4546 81.4935 44.0198 81.9478 44.0155C83.6544 43.9982 84.8402 45.1685 86.1027 46.2213C86.0158 45.9616 85.9504 45.7631 85.8855 45.5667C86.0572 45.6187 86.3495 45.63 86.382 45.7282C86.846 47.1189 88.3803 47.3529 89.202 48.3881C90.6024 50.1486 92.1467 51.7667 92.3547 54.1878C92.4262 55.0111 92.7344 55.8619 93.6954 56.1753C93.7624 55.7932 93.8315 55.4108 93.8984 55.0287C94.0772 55.649 94.7082 56.3151 93.7955 56.829C93.6378 56.9174 93.1331 56.5993 93.1088 57.0388C93.0642 57.8674 93.1555 58.7045 93.1899 59.5386C93.4923 59.4593 93.793 59.3587 94.101 59.3109C94.2695 59.2833 94.6033 59.3457 94.6046 59.365C94.6004 59.6732 94.5752 59.9851 94.5001 60.2842C94.4866 60.3429 94.2105 60.4111 94.1128 60.3612C93.743 60.1687 93.4655 60.2415 93.5258 60.6206C93.7957 62.3357 93.4081 63.9956 93.2096 65.672C93.1488 66.1873 93.3922 66.5233 93.9489 66.5594L93.9493 66.5615C93.937 67.3887 93.3747 67.96 93.0705 68.6806C92.9205 69.034 92.7511 69.5359 92.7312 69.927C92.7114 70.3182 92.6994 70.238 93.0278 70.4659C93.3083 69.8816 93.525 69.1937 94.0086 68.7533C94.1294 69.7455 93.0819 70.7357 92.607 71.5817C92.0958 72.4925 92.1849 73.2066 92.0048 74.176C91.7175 75.7295 90.1127 76.9631 90.6725 78.6509C92.1776 78.0931 91.2697 79.0393 91.2175 79.5054C91.1955 79.6998 91.3417 79.9144 91.4194 80.1216C92.0291 79.8192 91.9497 79.1597 92.2601 78.3644C92.3193 78.9581 92.351 79.273 92.3743 79.5158C92.6213 79.4419 92.8704 79.3677 93.1174 79.2938C92.9536 79.5197 92.7608 79.7291 92.6304 79.973C91.5383 82.0127 91.2563 84.4444 89.6542 86.2341C88.7726 87.2189 87.8319 88.1513 86.9171 89.1074C86.9793 89.1657 87.042 89.2261 87.1064 89.284C87.4389 89.0067 87.7713 88.7293 87.6749 88.8092C87.5625 88.8355 87.7789 90.1117 86.4628 89.7137C85.3299 89.372 86.7659 90.7321 86.2219 90.5227C85.0103 90.0542 84.9657 91.1773 84.4256 91.58C83.5427 92.2381 82.3764 92.8248 81.9785 93.7265C81.6645 94.4402 81.3686 94.7284 80.6942 95.2046C80.8686 94.7191 80.9503 94.4947 81.0317 94.2681C80.7056 94.3971 80.3344 94.4669 80.0623 94.6686C79.4567 95.1175 78.9507 95.7134 78.3159 96.1069C76.5396 97.204 74.6904 98.1819 72.9251 99.2922C71.5596 100.15 70.7035 101.955 68.671 101.526C69.5696 100.367 70.8063 99.6138 71.9784 98.777C71.7027 98.8602 71.4266 98.9414 71.151 99.0247C71.3404 98.6859 71.5302 98.3493 71.7197 98.0106C71.409 98.1411 71.0899 98.2732 70.5734 98.4899C70.8737 98.1034 71.0217 97.9106 71.1718 97.7174C63.6267 103.026 58.1876 109.624 57.6634 119.333C57.2122 127.687 59.3593 134.984 65.8042 140.641C65.9252 140.602 65.9501 140.596 65.9742 140.585C67.2672 140.115 66.4201 140.89 66.4876 141.322C66.6435 142.316 67.4949 139.895 67.611 141.474C67.6347 141.806 67.0254 142.184 66.7091 142.541C69.7504 140.619 69.223 142.912 69.1784 144.563C70.2984 143.296 70.3078 143.288 70.6521 144.098C70.8307 144.103 71.0076 144.111 71.1862 144.116C70.7287 142.824 69.2507 141.852 68.3342 140.808C67.3495 139.684 66.4455 138.49 65.6347 137.234C59.8647 128.315 59.9668 116.482 66.5352 108.03C66.1038 108.496 65.6788 108.974 64.7525 108.968C65.4408 108.509 65.5343 107.503 66.5251 107.887C65.9951 106.614 67.7428 107.395 67.7106 106.574C67.6474 104.937 69.3073 104.692 70.0373 103.695L70.0317 103.7C70.0265 103.708 70.0175 103.718 70.0175 103.718C70.0199 103.72 70.0224 103.721 70.0253 103.725C70.0262 103.718 70.0297 103.714 70.0307 103.707C71.3734 102.658 72.6531 101.51 74.0795 100.591C75.3057 99.8036 76.7028 99.2844 78.024 98.6421C78.4012 98.4587 78.149 97.8643 78.7844 97.7198C79.6593 97.5201 80.5102 97.0864 81.2868 96.6116C82.482 95.8812 83.6037 95.0294 84.7565 94.2307C84.7586 94.2303 84.7611 94.232 84.7632 94.2316C84.7628 94.2295 84.7645 94.2271 84.7645 94.2271C84.7645 94.2271 84.7645 94.2271 84.7624 94.2274C87.0815 92.9523 88.1767 89.8857 91.298 89.7684C91.4422 89.7625 91.5864 89.4988 91.7122 89.3402C94.0474 86.436 95.8027 83.1924 97.5368 79.9026C99.875 75.4669 101.001 70.7338 101.523 65.8368C101.872 62.5486 101.797 59.2554 101.418 55.931C101.011 52.3691 99.8288 49.1649 98.2794 46.0058C97.3429 44.0986 96.0866 42.4059 95.0058 40.6021C93.5901 38.238 91.5783 36.4143 89.4256 34.9706C87.049 33.3758 85.0005 29.8565 85.2492 26.9413C85.316 26.8775 85.3324 26.8356 85.2605 26.8332C85.2645 26.8065 85.2659 26.7781 85.2695 26.7493C85.3619 26.2284 85.832 25.7363 85.786 25.2052C87.1387 24.1395 89.1975 23.9194 90.6267 23.767C91.2641 24.027 91.8168 23.7694 92.2976 23.4854C94.174 23.0917 99.4498 22.6097 99.7139 21.9568C99.9975 21.255 98.2332 21.8909 96.1223 21.9383C94.6912 21.9697 92.576 22.1153 91.9303 21.4518C91.8748 21.1368 91.8672 20.7743 91.9208 20.3534C92.0022 20.2005 92.1069 20.0326 92.2459 19.85C93.9686 17.5887 95.4828 12.7569 95.4828 12.7569C99.3416 7.34719 100.921 5.19558 100.799 4.97234C100.678 4.7491 94.7192 11.6703 94.3159 12.1485C93.9106 12.627 92.1601 16.1926 91.537 15.8174C90.914 15.4421 91.2261 14.9757 91.2903 13.4962C91.3457 12.2499 91.4653 10.6546 91.4305 9.51088C91.4389 9.47259 91.4477 9.43639 91.4561 9.39809C91.4887 9.25157 91.4173 9.0801 91.3959 8.92148C91.2774 7.79469 93.7083 0.689967 92.5841 2.33904ZM41.8401 35.6284C41.7859 35.9844 41.7313 36.3384 41.677 36.6944C41.5345 36.6849 41.392 36.6753 41.2491 36.6637C41.3684 36.2832 41.3978 35.6024 41.8401 35.6284ZM48.8022 27.7875C49.0279 28.2566 48.3414 28.382 47.9533 28.4417C47.282 28.5428 47.2217 29.7119 46.3145 29.3478C46.6761 28.8423 47.0402 28.3386 47.4038 27.8327C47.5863 27.9088 47.7807 28.0651 47.945 28.0383C48.2525 27.9884 48.521 27.2004 48.8022 27.7875ZM52.6542 25.0554C52.6524 25.0579 52.6528 25.06 52.6511 25.0625C52.9705 24.9325 53.6896 24.8447 53.4311 25.4187C53.2565 25.8046 52.0416 25.9192 51.6951 26.0063C52.0307 25.6981 52.35 25.3949 52.6542 25.0554ZM67.6054 23.9978C66.923 23.9124 66.8212 23.6423 66.8121 23.0008C67.7909 23.415 68.3502 23.6499 68.9098 23.8868C68.4829 24.1202 68.1063 24.061 67.6054 23.9978ZM66.2125 25.6466C66.4817 25.5515 66.7489 25.4567 67.0182 25.3616C66.9993 25.746 66.5654 25.645 66.2125 25.6466ZM29.3181 73.6767C29.5775 73.4642 29.8368 73.0547 30.2155 73.1503C30.5102 73.2239 30.894 73.7171 30.695 74.0013C30.3234 74.5237 29.4593 74.1823 29.3181 73.6767ZM28.5231 80.3262C28.3774 80.471 27.8514 81.1744 27.6447 81.1697C27.51 81.1675 27.3664 80.9676 27.2664 80.8921C27.1245 79.8539 27.8417 80.0501 28.5231 80.3262ZM29.8091 78.575C30.03 78.2177 30.5468 77.6588 30.9632 77.9189C30.5505 78.6629 30.1685 79.3475 29.7868 80.0341C29.3597 79.6395 29.5108 79.0585 29.8091 78.575ZM32.4826 73.5344C34.5238 72.9688 33.4514 75.4035 33.1929 76.3088C32.8858 76.1528 32.7358 76.162 32.6167 75.8062C32.489 75.4259 32.6809 75.3964 32.7898 75.1412C32.8526 74.9937 33.0252 75.0629 33.0004 74.8485C32.9707 74.5939 32.6173 74.5436 32.4233 74.5497C31.8548 74.5698 31.9783 74.8403 31.9994 75.2546C32.0419 76.0981 31.8623 76.7014 31.6055 77.4938C31.4115 77.1187 31.2175 76.7437 31.0214 76.369C30.782 75.2202 31.239 73.8793 32.4826 73.5344ZM29.8674 74.9116C31.1315 74.6215 29.9078 76.0132 30.4743 76.3139C30.7509 77.1205 30.4568 77.6032 29.7403 77.853C29.2137 78.0368 28.8912 77.7688 28.8259 77.2758C28.6936 76.2792 29.0009 75.1098 29.8674 74.9116ZM27.9002 77.5928C28.3105 77.5356 28.7159 77.8929 28.8214 78.3312C28.9684 78.9441 28.467 79.1234 27.9521 79.1774C26.8107 79.7208 26.6824 77.7642 27.9002 77.5928ZM25.4937 81.8002C25.9674 81.2792 24.8275 80.2957 25.9438 80.0642C26.1592 80.0198 26.5515 80.8319 26.6457 80.9604C26.9901 82.1145 26.0963 81.7892 25.9184 82.1692C25.7773 82.0447 25.6365 81.9222 25.4937 81.8002ZM29.1447 82.2911C28.5818 81.8143 28.1492 82.458 27.4409 82.3122C28.1068 81.9717 28.5088 81.4374 29.1357 81.6993C29.4541 81.8337 29.2773 82.4041 29.1447 82.2911ZM34.3829 83.574C34.1745 84.5181 34.0885 85.4926 33.6958 86.3868C33.419 86.8449 33.1511 87.3166 32.8934 87.7843C32.69 88.093 32.482 88.4004 32.2881 88.7139C32.2264 88.6836 32.1647 88.6534 32.101 88.6235C32.8804 86.9486 33.6669 85.2767 34.3829 83.574ZM29.1464 87.4987C29.3921 87.4056 30.1965 86.9779 30.3574 87.1531C30.4758 87.2838 29.4308 87.7106 29.2666 87.7872C29.2261 87.6925 29.1873 87.5954 29.1464 87.4987ZM30.1961 88.9788C30.2904 88.7392 30.5941 88.5817 30.8025 88.3868C30.8067 88.6568 30.824 88.9266 30.811 89.1974C30.7649 90.128 29.5816 90.9993 30.0518 91.9579C29.2635 92.3286 28.7694 91.751 28.3962 91.7237C29.3922 91.0803 29.7817 90.0328 30.1961 88.9788ZM60.1386 130.802C60.0732 130.824 60.0099 130.846 59.9445 130.869C59.8328 130.518 59.7191 130.168 59.6078 129.819C59.6652 129.801 59.7222 129.78 59.7774 129.761C59.8988 130.106 60.0185 130.453 60.1386 130.802ZM59.6761 129.015C59.5949 129.033 59.514 129.054 59.4328 129.073C59.2203 127.867 59.0077 126.662 58.8166 125.578C59.0822 126.642 59.3802 127.828 59.6761 129.015ZM59.8736 115.327C59.6289 115.119 59.3863 114.91 59.3308 114.866C59.3334 114.881 60.5319 113.862 59.8736 115.327ZM60.1926 113.031C60.4625 112.362 60.7321 111.691 61.0019 111.022C60.827 111.713 60.6496 112.403 60.463 113.09C60.4616 113.094 60.2851 113.052 60.1926 113.031ZM61.0695 110.852C61.4293 109.821 61.7468 108.758 63.3166 107.829C62.2381 109.074 62.341 110.407 61.0695 110.852ZM68.3803 100.589C68.8115 100.295 69.6348 99.4587 70.143 99.6615C69.584 100.104 69.1012 100.783 68.3803 100.589ZM64.3504 104.537C64.8076 104.132 64.841 104.026 65.4214 104.221C64.9509 104.6 64.8719 104.853 64.3504 104.537ZM62.5967 106.967C62.9043 106.572 63.21 106.181 63.5176 105.786C63.5932 105.847 63.6685 105.905 63.742 105.966C63.4193 106.347 63.0962 106.727 62.7734 107.109C62.713 107.061 62.6547 107.013 62.5967 106.967ZM63.2567 107.539C63.2063 107.474 63.1579 107.409 63.1072 107.342C63.3119 107.176 63.517 107.012 63.7239 106.846C63.9176 107.232 63.5808 107.313 63.2567 107.539ZM64.272 106.145C64.2089 106.106 64.1757 105.857 64.2144 105.83C64.5885 105.58 64.8766 105.138 65.0631 104.929C64.994 105.385 65.3189 106.785 64.272 106.145ZM67.5043 103.659C67.236 103.931 66.9492 104.222 66.6437 104.456C66.2065 104.79 66.2281 104.618 65.7316 104.346C66.1922 103.702 66.787 103.179 67.3498 102.623C66.6279 102.94 66.268 103.099 65.9103 103.258C66.3289 102.4 67.1296 101.914 67.865 101.317C67.729 101.603 67.5927 101.887 67.3646 102.362C67.8842 102.028 68.2602 101.789 68.6316 101.548C68.5485 102.392 68.0871 103.069 67.5043 103.659ZM72.8775 100.743C72.6403 100.958 72.4009 101.173 72.164 101.39C72.1088 101.335 72.0531 101.278 71.9979 101.223C72.2331 101.008 72.4682 100.793 72.7051 100.576C72.7625 100.631 72.8198 100.686 72.8775 100.743ZM77.9779 97.6433C77.724 97.8137 77.4723 97.9837 77.2185 98.154C77.1744 98.0882 77.1299 98.0202 77.0837 97.9547C77.3379 97.7865 77.5921 97.6182 77.8463 97.45C77.8904 97.5158 77.9341 97.5796 77.9779 97.6433ZM80.2629 96.0646C79.8059 96.3855 79.3507 96.704 78.8938 97.0249C78.854 96.9713 78.8138 96.9156 78.774 96.862C79.215 96.5243 79.6536 96.185 80.0946 95.8474C80.1507 95.9198 80.2068 95.9922 80.2629 96.0646ZM75.0857 29.2097C74.6943 29.3004 74.2015 29.6515 74.1607 28.8423C74.4681 28.9635 74.7779 29.0864 75.0857 29.2097ZM74.1392 28.831C73.7134 29.1811 73.3181 28.8935 73.4735 28.3983C73.6962 28.5431 73.9189 28.6879 74.1392 28.831ZM78.2774 27.194C78.1089 27.4424 77.8744 27.9926 77.618 28.1483C77.3556 28.3071 77.365 28.2254 77.0038 28.0812C77.3094 27.7869 77.8456 27.0059 78.2774 27.194ZM73.0136 25.6059C73.672 25.1368 73.6312 25.1267 74.3957 25.5051C73.8885 25.8977 73.6199 25.7263 73.0136 25.6059ZM71.6028 26.5757C71.9571 26.1884 72.1921 26.3419 72.7002 26.4212C72.2108 26.6937 72.1651 26.7906 71.6028 26.5757ZM71.1088 27.2518C71.4162 27.2626 71.7216 27.2737 72.0294 27.2866C72.0219 27.355 72.0124 27.4238 72.0053 27.4944C71.7071 27.4127 71.4088 27.331 71.1088 27.2518ZM77.5531 26.6006C77.1511 27.0981 77.0537 27.4184 76.4211 27.4065C76.734 27.0676 77.0811 26.4305 77.5531 26.6006ZM73.5916 27.9249C73.9699 27.6742 74.1656 27.8259 74.5921 27.9586C74.1191 28.1762 74.0894 28.1555 73.5916 27.9249ZM60.2459 30.7394C60.2642 29.9956 61.9662 30.2347 62.3307 30.4216C62.1165 30.5958 60.2257 31.5961 60.2459 30.7394ZM53.7086 32.2277C53.5852 32.191 53.5211 32.172 53.4983 32.1652C53.5278 32.173 53.6147 32.1988 53.7086 32.2277ZM53.5004 32.1648C53.4866 32.1607 53.4866 32.1607 53.5004 32.1648V32.1648ZM52.3446 32.6025C52.3094 32.0218 53.4445 32.192 53.7108 32.2273C53.7245 32.2314 53.7382 32.2355 53.7519 32.2395C53.5893 32.3743 52.3975 33.468 52.3446 32.6025ZM66.6194 30.7437C66.9444 30.4612 67.1313 30.1814 67.2655 30.2054C67.6232 30.2679 67.9583 30.46 68.3013 30.5988C68.2244 30.7401 68.1353 31.0092 68.0735 31.0027C67.6567 30.9615 67.2429 30.8633 66.6194 30.7437ZM47.0025 35.437C46.7677 35.2359 47.1161 35.012 47.4161 34.9808C48.1963 34.8952 48.8593 35.0057 49.0951 36.1096C49.0478 36.1851 48.8361 36.5451 48.8241 36.5386C48.1968 36.2009 47.5337 35.8934 47.0025 35.437ZM67.7088 34.3412C67.9018 34.4284 68.0087 34.6045 68.1643 34.7373C68.3478 34.8933 68.6607 34.9962 68.8138 35.1641C69.4056 35.8047 68.3156 35.6569 67.9607 35.6718C67.3695 35.6981 67.0784 35.9032 66.4803 35.6817C65.9611 35.4895 65.5017 35.2068 65.0411 35.7037C64.394 34.8975 63.1316 35.2955 62.2989 34.7884C62.157 35.2985 60.8683 34.5642 61.2337 35.4201C59.8198 35.5243 58.4343 35.7037 57.0275 35.5165C57.2427 33.9844 61.1591 34.4069 62.2601 34.4206C63.2632 34.4321 64.2643 34.5306 65.2688 34.5007C65.9843 34.4785 67.0443 34.0383 67.7088 34.3412ZM44.8908 38.9081C45.688 38.2803 45.2798 37.2675 45.6614 36.5072C46.2856 36.9255 47.0263 37.2432 47.4879 37.7962C47.7795 38.1476 47.1085 38.0905 46.8112 38.2967C45.9097 37.5591 45.63 38.9099 44.8908 38.9081ZM45.8935 43.4888C47.3998 41.61 48.9349 39.7109 50.7198 38.1099C52.0426 36.9238 53.614 35.9062 55.4033 35.4239C55.6577 35.3552 56.0041 35.5129 56.2583 35.6521C56.3207 35.6866 56.2568 36.0985 56.149 36.2734C55.8097 36.8313 55.7301 36.0852 55.7024 36.1247C55.085 36.9612 53.4983 36.4787 53.281 37.9008C53.2635 38.023 52.4217 38.1151 52.4243 38.1298C52.6475 39.236 52.4002 38.7057 51.9685 38.3098C51.4253 37.8101 51.7391 38.6556 51.4967 38.694C51.8277 39.6989 49.2416 39.2995 50.0299 40.6612C49.792 40.4303 49.4398 40.252 49.0624 40.5935C49.7 41.2607 49.5785 41.4683 48.6019 41.4846C48.2519 41.49 47.6418 42.1715 47.6445 42.5434C47.6452 42.9526 48.2152 43.3588 48.5702 43.8116C47.3521 43.3183 46.3852 43.2419 46.3943 45.0138C46.396 45.1954 45.6424 45.3824 45.2175 45.5656C44.8125 44.682 45.4812 44.0011 45.8935 43.4888ZM50.7535 40.1936C50.6986 40.4718 50.2635 40.241 50.1175 40.1996C50.2196 40.0907 50.8572 39.6513 50.7535 40.1936ZM63.2749 38.8735C63.1923 38.9704 63.1097 39.0673 63.0271 39.1641C62.7312 38.8373 62.0513 39.7129 61.9335 38.8112C61.895 38.5192 61.8621 38.2587 62.5827 38.3027C62.6838 38.3844 62.9783 38.6292 63.2749 38.8735ZM66.326 37.8787C66.9776 38.5022 67.1898 38.4886 66.8102 39.3589C66.5729 39.2297 65.9927 39.0851 65.9334 38.7859C65.8851 38.5367 66.2357 38.0916 66.326 37.8787ZM59.2035 39.2796C59.3854 39.1436 60.4744 38.2781 60.3743 39.2096C60.3017 39.8916 59.4874 39.4028 59.2035 39.2796ZM27.6593 71.7041C27.6358 71.7061 27.5876 71.4937 27.5525 71.3808C28.2275 71.1903 27.4928 69.7889 28.6862 70.044C28.9007 70.5476 29.0504 71.1015 28.648 71.5233C28.4597 71.7211 27.9996 71.6679 27.6593 71.7041ZM38.5196 67.8944C38.4824 67.8554 38.4444 67.7994 38.4107 67.7187C38.3848 67.6583 38.4069 67.5743 38.4543 67.4749C38.4653 67.5986 38.4856 67.738 38.5196 67.8944ZM33.3528 70.6287C32.7321 70.4025 33.4196 69.5948 33.7537 69.4493C33.842 69.7781 34.029 70.8755 33.3528 70.6287ZM37.6322 70.9352C37.5642 70.7956 37.498 70.6536 37.3714 70.3901C37.4526 70.1873 37.5565 69.9286 37.6604 69.6699C37.9962 70.1976 37.8704 70.3324 37.6322 70.9352ZM40.8687 63.84C41.0948 64.8028 39.6463 65.1535 39.8142 64.2252C39.4501 63.4384 40.6555 62.9378 40.8687 63.84ZM41.5854 60.6539C41.517 60.6226 41.4483 60.5893 41.3778 60.5584C41.4313 60.3086 41.4827 60.0592 41.5365 59.8115C41.8817 60.1101 41.7374 60.2503 41.5854 60.6539ZM44.2875 56.9184C44.084 56.7594 43.5656 56.5477 43.4911 56.2728C43.4129 55.9769 43.8581 55.3679 43.9746 55.107C44.4694 55.5416 44.2845 56.2867 44.2875 56.9184ZM47.0329 50.6634C46.53 51.2891 47.5689 52.2775 46.5435 52.7419C46.4695 52.7767 46.2289 52.4445 46.0483 52.2684C46.3245 51.5982 46.5626 51.0192 46.8007 50.4402C46.8814 50.5169 47.0402 50.6557 47.0329 50.6634ZM43.0065 50.6978C41.6766 53.8838 40.2836 57.0073 38.7586 60.1064C37.2211 63.2338 36.3091 66.9091 33.759 69.4181C33.3997 68.3511 34.4337 67.7638 34.8896 66.945C35.7064 65.4822 36.3125 63.8444 37.0331 62.3271C38.5134 59.2077 39.6334 55.9374 41.129 52.8305C41.4842 52.0922 41.8577 51.3594 42.234 50.6304C42.5249 50.0681 42.8386 49.0946 43.3675 48.7025C43.8257 48.3641 44.0948 48.5505 43.8751 49.0375C43.6243 49.6057 43.2577 50.0948 43.0065 50.6978ZM53.4502 47.4747C52.9935 47.6744 52.7053 47.4653 52.8708 46.9662C52.9992 47.08 53.1272 47.1917 53.4502 47.4747ZM54.0478 46.8821C53.6134 47.1103 53.5297 46.9302 53.1711 46.6296C53.5138 46.2379 53.6818 46.5764 54.0478 46.8821ZM49.051 48.3695C48.8906 48.1726 48.4451 47.87 48.4418 47.5934C48.4402 47.388 49.0238 46.6788 49.2002 46.6715C50.0772 46.6316 49.1637 48.1114 49.051 48.3695ZM43.9061 48.2546C43.8874 48.2839 43.6771 48.1846 43.5574 48.145C43.897 47.1583 44.1099 46.0922 45.2062 45.6001C45.8538 46.9995 44.4605 47.4293 43.9061 48.2546ZM57.9085 44.1507C57.7986 44.1787 57.6891 44.2089 57.5792 44.2369C57.5056 43.9056 57.1716 43.1914 57.5244 43.0534C57.6537 43.4182 57.7813 43.7855 57.9085 44.1507ZM55.1056 42.3993C54.9103 43.1592 56.7429 43.1068 55.6968 44.2527C56.0831 44.1088 57.4259 44.461 56.8961 45.033C56.745 45.196 56.3319 44.9419 56.2064 44.9186C55.6874 44.826 55.3256 45.1951 54.8785 45.4862C55.0196 44.4674 55.2637 43.4434 54.7655 42.4485C54.8776 42.4331 54.9918 42.4172 55.1056 42.3993ZM52.7134 42.8536C52.7458 42.3369 52.7681 41.9475 52.7925 41.5577C53.826 41.8151 53.1965 42.448 52.7134 42.8536ZM69.915 38.7551C70.1917 38.9727 70.4684 39.1903 70.7455 39.4099C70.5591 39.5077 70.3744 39.6031 70.0668 39.7634C69.7117 39.2977 69.5962 39.2574 69.915 38.7551ZM72.8748 39.8725C73.1479 39.7377 73.6898 40.1814 74.0661 40.3121C74.5856 40.4933 75.0069 40.6832 75.0201 41.311C74.327 40.7966 73.6046 40.3371 72.8748 39.8725ZM75.0268 41.312C75.4237 40.9085 75.8557 40.8887 76.3177 41.1862C75.8877 41.2295 75.4572 41.2708 75.0268 41.312ZM76.329 41.1885C76.4124 40.6909 76.2762 40.7171 76.7746 40.6682C77.3326 40.6131 77.9708 40.7669 78.5259 40.8184C78.3255 41.943 77.0314 41.3505 76.329 41.1885ZM73.57 41.898C73.7411 41.2464 74.3814 41.5103 74.9256 41.3277C74.6127 41.974 73.5891 41.9575 73.8097 42.9255C73.7184 42.58 73.491 42.2 73.57 41.898ZM79.8488 42.5817C79.8683 42.5328 79.8903 42.4856 79.9099 42.4367C80.5702 42.5563 81.2397 42.7155 81.8997 42.8091C82.3262 42.8682 82.7575 42.7705 82.9146 43.2928C81.8833 43.0848 80.8675 42.8417 79.8488 42.5817ZM90.3716 49.3556C90.4444 49.1912 90.508 49.0479 90.5716 48.9046C90.8155 49.3293 90.9672 49.4649 90.7964 49.9217C90.6685 49.7493 90.5385 49.5774 90.3716 49.3556ZM92.4955 49.1738C92.6724 49.5995 92.7833 49.7489 92.6518 50.2073C92.3748 49.73 92.3602 49.6719 92.4955 49.1738ZM93.0978 52.4544C93.3502 52.8408 93.3277 53.0331 93.3268 53.4946C92.9994 53.0391 92.8553 53.0082 93.0978 52.4544ZM93.6585 51.9722C94.2092 52.3299 94.2308 52.6249 93.9122 53.1033C93.8233 52.7097 93.761 52.4306 93.6585 51.9722ZM93.6875 53.7341C94.0492 54.1142 94.396 54.5078 93.9019 54.9501C93.8305 54.5448 93.759 54.1394 93.6875 53.7341ZM94.8845 60.8791C95.0288 61.6115 95.2046 62.0678 94.5618 62.625C94.6794 61.9893 94.7569 61.5685 94.8845 60.8791ZM94.4215 64.5207C94.5845 64.0437 94.7453 63.5671 94.9082 63.0901C94.9107 63.5466 94.9132 64.0031 94.9153 64.4575C94.752 64.4776 94.5869 64.5002 94.4215 64.5207ZM94.3762 64.5828C94.2352 65.2335 94.0939 65.8821 93.9554 66.5345C93.6674 65.7862 93.8242 65.1392 94.3762 64.5828ZM94.9216 64.4932C95.2264 64.9071 95.1922 66.2124 94.6237 66.4534C94.0411 66.7013 94.788 64.8415 94.9216 64.4932ZM92.4595 74.137C92.7288 73.6001 92.9982 73.0632 93.2676 72.5263C93.5952 72.8973 92.9942 73.8759 92.829 74.3035C92.7043 74.2475 92.5821 74.1933 92.4595 74.137ZM91.8495 75.8145C92.0991 75.411 92.3465 75.0079 92.5961 74.6044C92.8933 74.8032 92.2367 75.6877 92.0846 75.9679C92.0066 75.9189 91.9279 75.8656 91.8495 75.8145ZM92.808 78.6944C92.8704 77.9666 92.9515 77.2226 93.6879 76.8026C94.4948 77.5936 93.5966 78.2262 93.4715 78.9304C93.241 78.8519 92.8033 78.7537 92.808 78.6944ZM90.5333 85.96C90.8411 85.4812 91.1489 85.0026 91.4588 84.5235C91.7495 84.7711 90.9686 85.7988 90.7984 86.0994C90.7099 86.0522 90.6218 86.0071 90.5333 85.96ZM93.2559 86.6167C92.5695 87.775 91.2554 88.5438 90.2069 89.3805C90.1466 89.3088 90.0887 89.2389 90.0284 89.1672C90.5477 88.6469 91.0592 88.1193 91.5831 87.6003C92.1519 87.041 92.4545 86.7169 93.2559 86.6167ZM92.4746 86.2045C92.7974 85.5283 93.0899 84.9137 93.3828 84.3012C93.2094 84.977 93.6007 85.967 92.4746 86.2045ZM93.7172 84.4652C94.6829 82.175 95.4635 80.3223 96.608 77.6086C95.8178 80.4764 95.703 82.6144 93.7172 84.4652ZM98.1788 74.2285C98.4627 75.1378 98.0888 75.8685 97.5461 76.551C97.5433 76.3999 97.5408 76.2509 97.5401 76.0995C97.3035 76.453 96.7961 76.9063 97.0356 77.3058C97.2012 77.0774 97.3668 76.849 97.5306 76.623C97.601 77.0589 97.6848 77.5097 97.2256 77.7812C97.1865 77.8054 96.6747 77.311 96.7194 77.1472C96.8449 76.679 96.6383 75.925 97.4975 75.8948C97.6631 75.3221 97.8265 74.7497 97.9987 74.178C97.9984 74.1759 98.1683 74.1936 98.1788 74.2285ZM99.1482 72.1195C98.9889 72.4941 98.7882 73.5429 98.2535 73.386C98.5681 72.7372 98.743 72.3772 98.9161 72.0197C98.9932 72.0516 99.0707 72.0855 99.1482 72.1195ZM98.1742 73.3545C98.1506 73.3435 98.1295 73.3342 98.1051 73.319C97.4889 72.921 98.1675 72.247 98.3467 71.8256C98.3008 72.217 98.2578 72.6122 98.1742 73.3545ZM99.4285 67.3061C99.3993 68.7015 99.32 69.9108 98.9849 71.267C98.8736 69.8985 98.9435 68.6606 99.08 67.2961C99.1954 67.2996 99.3109 67.303 99.4285 67.3061ZM98.2833 71.0117C98.2113 70.9963 98.1389 70.9787 98.0668 70.9633C98.1772 70.4588 98.2876 69.9542 98.398 69.4497C98.4679 69.4655 98.54 69.481 98.6099 69.4968C98.5017 70.001 98.3937 70.5072 98.2833 71.0117ZM98.417 68.7837C98.0492 68.6883 98.2303 68.0566 98.2451 67.7227C98.3098 67.7329 98.3761 67.7407 98.4408 67.751C98.432 68.0946 98.4233 68.4383 98.417 68.7837ZM100.235 66.6463C100.237 66.7196 99.9306 66.8971 99.8765 66.8611C99.6902 66.7381 99.4122 66.5381 99.4181 66.3746C99.4747 64.6561 99.5791 62.9378 99.6709 61.2218C99.7797 61.2242 99.8881 61.2246 99.9969 61.2271C100.081 63.0333 100.172 64.8385 100.235 66.6463ZM99.08 64.3836C98.9698 64.3857 98.8597 64.3878 98.7474 64.3902C98.7461 63.9033 98.7468 63.4159 98.7451 62.9268C98.8381 62.9256 98.931 62.9244 99.0243 62.9252C99.0429 63.4113 99.0614 63.8975 99.08 64.3836ZM100.536 62.2927C100.461 61.8706 100.387 61.4485 100.313 61.0284C100.377 61.0128 100.444 60.9967 100.508 60.981C100.569 61.3275 100.895 62.1449 100.536 62.2927ZM100.311 59.6797C100.363 61.0564 99.48 59.0575 99.353 58.7551C99.3704 59.3085 99.3803 59.6229 99.3923 59.937C99.2329 59.9175 99.0731 59.8958 98.9157 59.8759C99.2079 58.5836 99.5025 57.293 99.7947 56.0007C99.9786 57.2156 100.265 58.4579 100.311 59.6797ZM99.0256 57.8449C98.9811 57.8505 98.9366 57.8562 98.8921 57.8619C98.8084 57.3873 98.7247 56.9126 98.641 56.438C98.6855 56.4323 98.73 56.4266 98.7745 56.421C98.8582 56.8956 98.9419 57.3702 99.0256 57.8449ZM99.7965 55.8878C99.5816 55.3821 99.3672 54.8786 99.1544 54.3726C99.5119 54.8271 100.295 55.1612 99.7965 55.8878ZM98.544 50.21C98.6934 50.5907 98.8013 50.981 98.7721 51.3932C98.7319 51.9763 98.6692 51.7925 99.1053 52.1032C99.5316 52.407 100.145 53.5764 99.2355 53.6524C98.3321 53.7272 98.5678 52.7415 98.4435 52.1961C98.0008 50.9142 97.1952 49.43 97.3489 48.0777C97.9807 48.5639 98.2422 49.4446 98.544 50.21ZM96.9956 46.6025C97.397 47.0601 97.3767 47.1416 97.2442 47.754C96.7446 47.5996 96.2474 47.4468 95.7478 47.2924C95.9082 47.0714 96.0686 46.8504 96.2293 46.6315C96.4387 46.8111 96.648 46.9908 96.8804 47.1901C96.9236 46.9682 96.9584 46.7845 96.9956 46.6025ZM96.6641 45.9637C96.05 46.1672 95.8119 45.7631 95.3159 45.359C95.5084 44.5953 95.079 44.1384 94.6441 43.5892C94.4208 43.3059 93.643 41.9056 93.8608 41.7027C94.4357 41.166 96.4839 45.519 96.6641 45.9637ZM94.1421 41.0619C94.0333 41.1698 93.848 41.3844 93.8278 41.3685C93.1221 40.8563 92.4307 40.3264 91.7419 39.7874C91.7094 39.7628 91.7445 39.6548 91.7478 39.5871C91.9893 39.6052 92.2287 39.6236 92.4703 39.6416C93.0282 40.1149 93.5841 40.5886 94.1421 41.0619ZM92.8187 39.381C92.7005 39.4603 92.5819 39.5375 92.4637 39.6168C91.9709 39.2554 91.1554 39.4967 90.8595 38.765C90.8592 38.7629 90.8592 38.7629 90.8588 38.7608C91.6589 38.4811 92.2122 39.0137 92.8187 39.381ZM91.1392 38.0898C91.5436 38.4538 91.0619 38.5734 90.8581 38.7566C90.7978 38.3536 89.9838 38.4192 90.2806 37.8536C90.313 37.7916 90.9308 37.9035 91.1392 38.0898ZM84.4241 40.8179C86.168 41.9092 87.7625 43.2348 89.4598 44.4059C91.2436 45.6375 92.4704 47.3354 93.6708 49.0922C96.2973 52.9404 96.4177 57.445 96.6993 61.7826C96.8813 64.6089 96.377 67.5367 95.8518 70.4076C95.5874 71.8574 94.7168 73.1997 94.9426 74.7385C93.4722 74.7683 94.6916 76.461 93.6884 76.7808C92.9455 75.357 94.1657 74.0808 93.8338 72.8617C94.3283 72.545 94.6328 73.9768 94.7392 72.8601C94.8058 72.1684 95.1013 71.5338 95.0995 70.8477C95.0989 70.4883 95.1267 70.1175 95.2151 69.7706C95.995 66.7097 95.7456 63.6116 95.4707 60.5289C95.4309 60.0941 94.7601 59.7187 95.0736 59.1004C95.2608 59.2774 95.4502 59.4541 95.7722 59.7567C95.6837 57.8906 95.9761 56.1695 94.753 54.4925C94.1411 53.652 94.5704 52.0929 94.0218 51.1567C92.9242 49.2823 91.6563 47.4249 90.1033 45.9295C89.2081 45.0674 88.0698 44.2525 86.8467 43.5955C85.4371 42.8393 83.9773 41.713 82.6203 40.653C81.8839 40.0769 81.032 40.2228 80.3658 40.0696C78.3125 39.5958 76.5367 38.5815 74.64 37.8159C73.8047 37.4781 75.6273 37.4058 74.749 37.1557C74.3385 37.0397 73.4416 36.4139 73.3551 37.644C73.3467 37.7559 73.1095 37.9103 72.9603 37.9367C72.8511 37.9559 72.5942 37.7652 72.6046 37.7135C73.1533 35.2954 70.8462 36.6875 70.1636 35.9005C69.9136 35.6133 69.4645 35.4998 69.1056 35.3075C69.432 35.2045 69.7582 35.0149 70.0848 35.0115C72.4829 34.9957 74.4975 35.8402 76.3425 37.4312C77.4541 38.3894 78.9058 38.8437 80.4907 39.058C81.8624 39.2427 83.2088 40.0577 84.4241 40.8179ZM90.5703 37.0511C90.0953 37.3558 90.1014 37.3655 89.6364 37.0144C89.9925 36.7481 90.1652 36.9039 90.5703 37.0511ZM76.6477 29.4042C78.029 29.1888 79.0194 30.7011 80.4297 30.4784C80.2554 30.5221 80.0643 30.5688 79.8277 30.6278C80.4843 30.8001 81.0069 30.9375 81.532 31.0766C81.273 31.1807 81.014 31.2848 80.6861 31.4163C82.4679 32.3169 84.2395 33.2952 85.9883 34.2666C87.0621 34.8633 87.6821 36.1182 89.0163 36.2749C89.1382 36.2902 89.2326 36.7391 89.289 36.9977C89.3037 37.0687 89.1031 37.2708 89.0549 37.2555C88.7501 37.149 88.4093 37.0597 88.1717 36.8548C85.7349 34.7465 83.0024 33.2469 79.9661 32.0889C78.3026 31.4533 76.7652 30.3536 75.0189 29.7651C74.9982 29.7579 75.0925 29.4078 75.1355 29.2096C75.9356 28.2414 75.9304 28.2488 76.2934 29.1527C76.3419 29.2676 76.5422 29.4207 76.6477 29.4042ZM84.4562 27.4947C84.4181 27.5122 84.4115 27.5113 84.4247 27.5003C84.4436 27.4969 84.4562 27.4947 84.4562 27.4947C84.5306 27.4621 84.564 27.4302 84.5739 27.4003C84.5272 27.4302 84.4881 27.4544 84.4592 27.4747C84.4688 27.4188 84.4813 27.3668 84.4914 27.3131C84.5391 27.3133 84.5914 27.3517 84.5739 27.4003C84.5994 27.385 84.6245 27.3676 84.6517 27.3498C84.5589 27.4874 84.4855 27.5502 84.4562 27.4947ZM85.4966 25.7391C85.5526 25.5777 85.6203 25.4206 85.6971 25.2664C85.7027 25.261 85.7107 25.2574 85.7163 25.2521C85.6703 25.3599 85.5926 25.5338 85.4966 25.7391Z" fill="#899764"/>
</g>
</svg>
