<svg width="144" height="152" viewBox="0 0 144 152" fill="none" xmlns="http://www.w3.org/2000/svg">
<path d="M7.88819 84.7681C8.40117 83.5712 9.71595 83.5651 10.5839 82.9116C11.0909 82.5297 12.7697 83.0082 11.8641 81.3645C11.7212 81.1064 12.1906 81.0913 12.3621 81.1924C13.2992 81.7433 14.1808 81.3434 15.1059 81.1351C16.8239 80.7487 18.5373 80.1857 20.344 80.631C20.6193 80.6989 20.9668 80.6928 21.1278 80.3804C21.2827 80.077 21.0676 79.8038 20.9247 79.5563C19.986 77.9353 18.5493 77.398 16.693 77.9534C16.2959 78.0726 15.9002 78.2387 15.4941 78.2779C14.8532 78.3383 14.1988 78.4092 13.5715 78.1602C14.0303 77.5776 14.6983 77.8915 15.2639 77.7813C16.5095 77.5398 17.6061 76.6327 19.0397 77.1293C19.6806 77.3512 19.3557 76.6961 19.2188 76.4788C18.2665 74.9694 16.8931 74.1423 15.1044 74.0548C14.5117 74.0261 13.9175 74.0472 13.3248 74.0276C13.0962 74.0201 12.7396 74.0533 12.7171 73.8012C12.6945 73.5491 13.0375 73.5597 13.2586 73.534C17.0631 73.0707 18.8291 73.9521 20.6193 77.3723C22.5027 80.9691 25.6783 82.2082 29.4406 82.2414C31.8822 82.2626 34.2304 81.4958 36.5892 80.9147C36.9186 80.8332 37.2992 80.7185 37.4331 80.3306C37.7159 79.5141 37.7159 79.4899 38.3402 79.7088C39.5888 80.1434 40.8043 80.2853 42.1612 80.0438C43.6023 79.7887 45.0676 79.4416 46.5689 79.585C46.8366 79.6106 47.2248 79.7042 47.3436 79.3586C47.4534 79.0416 47.133 78.8363 46.9314 78.6356C46.0469 77.7557 45.1473 76.8908 44.2642 76.0094C44.1048 75.8509 43.9017 75.6124 44.0973 75.4041C44.3079 75.1792 44.5185 75.4041 44.687 75.5626C45.5504 76.3746 46.2861 77.3315 47.3316 77.9353C47.5362 78.0545 47.7994 78.4228 48.0281 77.9655C48.1499 77.7209 47.7859 77.2455 48.1274 77.1987C48.5395 77.1444 48.5817 77.653 48.6328 77.9881C48.7877 79.0054 49.555 79.6273 50.1281 80.3729C52.0852 82.9146 54.3026 85.2043 56.7562 87.266C56.8464 87.343 56.9246 87.4381 57.0239 87.5015C57.6542 87.9105 58.4004 88.7693 59.0217 88.2682C59.6791 87.7384 59.1571 86.7197 58.8652 85.971C58.6997 85.5469 58.3598 85.162 58.0213 84.842C56.9397 83.8127 55.9739 82.6988 55.1841 81.4249C54.9389 81.0294 54.6155 80.6249 54.2289 80.3834C52.6208 79.3782 51.5662 77.8508 50.4305 76.4093C48.6208 74.1136 46.2876 72.7552 43.4399 72.2405C43.2654 72.2088 43.0713 72.2194 42.9164 72.1469C40.514 71.0165 38.0785 70.7463 35.5678 71.7953C35.3105 71.9024 34.954 71.916 34.6892 71.83C32.2522 71.0482 29.8227 71.6308 27.831 72.7582C26.0364 73.774 24.52 73.5506 22.7253 73.4178C21.4361 73.3227 20.4042 72.9877 19.5166 72.1862C18.5418 71.3063 17.4752 70.8218 16.159 70.7765C15.4685 70.7523 14.7133 70.695 14.3026 69.9539C16.523 70.1803 18.784 70.2195 20.4674 72.0971C20.866 72.5424 21.5339 73.1944 22.2394 72.2541C22.4892 71.9206 22.8878 72.1439 23.2157 72.2843C23.7047 72.4926 24.2041 72.6782 24.6915 72.8911C25.2541 73.1371 25.7295 73.0752 26.083 72.5349C26.4546 71.9673 26.0063 71.6609 25.6798 71.3364C24.1078 69.7697 22.3598 68.5683 20.1379 68.0083C17.5279 67.3503 14.9705 67.7608 12.3951 68.0159C11.4053 68.114 12.2131 68.6724 12.2252 69.0241C9.68134 67.9812 7.12098 68.363 4.55461 68.9245C4.21162 69 3.84758 68.9834 3.49256 68.9834C3.38876 68.9834 3.21576 68.9139 3.19621 68.8415C3.13453 68.6151 3.33911 68.5804 3.49105 68.5608C5.42862 68.3147 7.32407 67.7563 9.28571 67.7004C10.8863 67.6552 12.4674 67.4755 14.0198 67.1088C16.2673 66.5775 18.4862 66.6348 20.6975 67.2703C20.9171 67.3337 21.2075 67.4921 21.3384 67.2446C21.4647 67.0061 21.1669 66.8401 21.0224 66.6605C20.8735 66.4764 20.705 66.3058 20.5711 66.1111C20.4643 65.9571 20.4237 65.7624 20.6343 65.6628C20.7111 65.6266 20.869 65.6855 20.9472 65.7519C21.2195 65.9813 21.5114 66.2032 21.7265 66.4824C23.1345 68.3072 25.1473 69.3818 26.9405 70.7267C27.5166 71.1583 28.1845 71.4587 28.9307 71.0648C30.6983 70.1335 32.6163 70.3071 34.5102 70.298C35.2187 70.295 35.9423 70.3705 36.6208 70.0822C36.8886 69.969 37.218 69.8769 37.2676 69.5373C37.3203 69.1841 37.0315 69.009 36.7682 68.8822C35.7062 68.3676 34.7885 67.2024 33.3955 68.1185C33.2661 68.2046 33.033 68.1985 32.9803 67.9766C32.9623 67.9012 33.0856 67.7759 33.1653 67.6944C34.0679 66.7661 34.7975 66.7888 35.9875 67.4982C38.6486 69.083 41.4873 70.2376 44.5786 70.6693C44.9036 70.7146 45.3474 70.8489 45.5429 70.4806C45.7039 70.1788 45.2992 69.9901 45.1653 69.7395C44.5365 68.5728 43.4624 67.7608 42.7389 66.668C42.5358 66.3616 42.1928 66.2032 41.8423 66.1201C39.6008 65.5858 37.4316 64.6833 35.0698 64.7482C34.1101 64.7738 33.1819 64.6742 32.2793 64.3044C30.3011 63.4939 28.183 63.9995 26.1432 63.7097C25.2616 63.5845 24.3936 63.4516 23.5241 63.2509C20.6343 62.5792 17.7355 61.9891 14.781 62.9369C14.3899 63.0622 13.9506 63.1905 13.5595 63.1362C12.9066 63.0456 12.165 63.2117 11.631 62.6366C12.174 62.2849 12.7833 62.5007 13.3594 62.4374C13.6407 62.4057 14.083 62.5385 14.1522 62.2532C14.2605 61.808 13.752 61.7416 13.4587 61.6057C12.4869 61.1559 11.5001 60.7484 10.3869 60.8088C9.91452 60.8344 9.42712 60.8269 8.98936 60.608C8.76672 60.4963 8.31091 60.5401 8.42524 60.1386C8.49293 59.9002 8.83141 60.039 9.06307 60.0662C11.121 60.3001 13.1909 60.4631 15.0397 61.5559C15.4625 61.8065 15.9724 61.7732 16.4343 61.654C16.8118 61.5574 17.3579 61.5725 17.4467 61.0986C17.5129 60.7409 17.054 60.5522 16.8179 60.2986C16.4929 59.95 16.0582 59.6677 15.8431 59.2632C15.0217 57.7267 13.6588 57.1501 12.0507 56.9781C11.1225 56.8784 10.3718 56.5419 9.76258 55.7827C8.47488 54.1752 6.81711 53.4522 4.74114 53.8945C4.57115 53.9307 4.38763 53.9322 4.21313 53.9156C3.96943 53.893 3.7152 53.7949 3.68962 53.5338C3.65352 53.1745 3.99049 53.2394 4.19508 53.2153C5.57154 53.0493 6.91339 53.1609 8.22366 53.6605C8.99989 53.9564 9.23907 53.6258 8.95325 52.8862C8.01455 50.4668 7.822 47.7771 6.18981 45.6007C5.63772 44.8641 5.22253 44.4098 4.19358 44.5667C2.97206 44.7524 1.70843 44.6679 0.46285 44.683C0.303391 44.6845 0.0100485 44.5954 0.0025269 44.5275C-0.0305682 44.1894 0.268793 44.2347 0.468868 44.2407C1.48278 44.2724 2.47112 44.1698 3.473 43.9675C4.45532 43.7698 4.33347 43.4846 3.78439 42.8853C3.49857 42.5729 2.8126 42.1473 3.19169 41.7926C3.55574 41.4515 3.98898 42.1397 4.23419 42.4718C5.06457 43.5993 6.13716 43.954 7.49105 43.8589C9.21049 43.7381 10.9299 43.8332 12.6163 44.2619C12.8314 44.3162 13.1127 44.437 13.2391 44.1668C13.3534 43.9223 13.1097 43.7457 12.9728 43.5555C12.4388 42.8144 11.7212 42.499 10.8156 42.5654C10.59 42.582 10.1943 42.5956 10.1913 42.3722C10.1853 41.9858 10.6125 42.1171 10.8637 42.0326C11.8551 41.699 12.6283 42.0597 13.1924 42.8536C14.5779 44.8052 16.8043 44.9743 18.8216 45.5765C19.2022 45.6897 19.7032 45.7214 19.9754 45.3335C20.2673 44.9154 19.9062 44.5486 19.7122 44.1939C19.112 43.0982 18.447 42.0356 17.9085 40.9111C17.0601 39.1346 15.9108 37.6902 14.0619 36.8887C13.4467 36.6216 13.0074 36.1235 12.5832 35.6239C12.4252 35.4367 12.332 35.1288 12.6614 35.0805C14.3192 34.8345 13.4978 33.9666 13.1488 33.218C13.0631 33.0339 12.6795 32.901 12.9743 32.6731C13.0932 32.5811 13.4181 32.6973 13.6182 32.7878C14.3342 33.1093 14.444 33.7659 14.4079 34.4421C14.3523 35.4579 14.8457 36.1839 15.6294 36.6774C16.7186 37.3627 17.5399 38.2607 18.1687 39.3671C18.3071 39.6101 18.4395 40.007 18.7795 39.8923C19.1751 39.758 19.1932 39.3233 19.1074 38.9701C18.6922 37.26 18.9465 35.5288 18.9164 33.8082C18.9134 33.6557 19.0518 33.5003 19.124 33.3463C19.2097 33.4852 19.3782 33.6286 19.3707 33.7614C19.2639 35.5137 20.3831 37.1544 20.0296 38.8584C19.6234 40.813 20.4177 42.3616 21.233 43.9253C21.752 44.9184 22.4185 45.8693 23.1751 46.6949C24.9984 48.6857 26.5538 50.8305 27.661 53.3074C28.0612 54.2009 28.0191 53.8522 28.0612 53.164C28.0973 52.5708 28.4689 53.007 28.5441 53.2198C28.7817 53.8915 28.9562 54.5843 29.1608 55.268C30.0048 58.0799 31.825 60.1311 34.1748 61.7808C35.0713 62.4102 36.0386 62.6819 37.1338 62.8479C39.1766 63.1573 41.1804 63.7324 43.2037 64.1822C43.9017 64.3361 44.2597 64.8553 44.705 65.3504C47.9589 68.9713 50.7975 72.9529 54.1853 76.4546C55.7874 78.1104 57.6678 79.4959 58.9735 81.4415C59.1691 81.7328 59.482 82.0392 59.8596 81.8098C60.1755 81.6166 59.9604 81.2558 59.8776 80.9902C59.5963 80.0801 59.2879 79.179 58.9841 78.2764C58.1431 75.7814 57.5504 73.2654 57.7054 70.5848C57.8393 68.2679 57.7054 65.936 57.8092 63.6162C57.8513 62.6804 57.6317 62.3891 56.6975 62.0615C53.7219 61.0186 50.7058 61.6268 47.7091 61.5302C47.0608 61.5091 46.3959 61.6223 45.7746 61.3506C45.6211 61.2827 45.3865 61.1303 45.3895 61.0231C45.3985 60.688 45.6783 60.7635 45.8994 60.7952C46.1898 60.8375 46.4786 60.9205 46.7689 60.9205C46.9269 60.9205 47.2007 60.8042 47.2202 60.7031C47.294 60.3122 46.9254 60.5024 46.7599 60.4269C46.602 60.3545 46.3763 60.3228 46.3838 60.1281C46.3959 59.8398 46.6606 59.7507 46.8983 59.7326C47.4489 59.6904 47.9513 59.9032 48.4282 60.1356C48.9096 60.3696 49.3579 60.6563 49.9235 60.6458C50.7509 60.6322 51.9213 60.8752 52.2342 60.1582C52.5456 59.4413 51.3586 59.1183 50.8366 58.6097C49.0089 56.8286 46.8968 55.6257 44.3891 55.0416C43.1646 54.7563 42.0649 54.0364 41.5038 52.8304C40.162 49.943 37.5174 48.9167 34.796 47.9899C34.2951 47.8194 33.7445 47.7998 33.2376 47.6443C32.708 47.4813 31.7197 47.7937 32.3425 46.4564C32.5576 45.9961 31.5467 44.9788 30.8321 44.4113C29.2827 43.1782 28.1484 41.5662 26.9284 40.0342C26.7975 39.8697 26.5343 39.6523 26.8577 39.4591C26.9555 39.4003 27.2007 39.5165 27.3376 39.6101C28.0928 40.1263 28.4583 40.9821 29.0676 41.6356C30.5659 43.2431 32.3846 44.5215 33.7295 46.2814C33.9807 46.6104 34.3101 46.9636 34.7314 46.9802C36.2688 47.0421 37.576 47.7545 38.9179 48.3763C39.0713 48.4473 39.2684 48.5997 39.3722 48.402C39.4293 48.2918 39.3195 48.0654 39.2398 47.916C38.5929 46.71 37.9401 45.5056 37.5505 44.1834C37.4677 43.9011 37.3248 43.4846 37.6031 43.3683C38.0002 43.2023 37.9371 43.7004 38.0634 43.9147C38.3011 44.3162 38.2861 45.1282 38.6907 45.0935C39.1992 45.0497 39.2022 44.2588 39.3842 43.7879C39.5512 43.3547 39.5377 42.8552 39.6264 42.3888C39.664 42.1956 39.5347 41.8182 39.9228 41.9028C40.1544 41.9526 40.2176 42.2665 40.2116 42.499C40.1845 43.403 39.9378 44.2754 39.6174 45.0995C39.2684 45.9946 39.4504 46.7281 39.995 47.43C41.054 48.7974 41.9506 50.2539 42.6802 51.8327C43.1556 52.8606 44.0642 53.4432 45.2421 53.4855C45.9732 53.5111 46.4711 53.2123 46.2214 52.4289C45.2165 49.2789 45.5174 46.0293 45.6768 42.8461C45.8363 39.6629 44.2146 37.82 41.6934 36.7469C39.1902 35.6813 37.1593 34.2293 35.6159 32.0105C35.0638 31.2166 34.2349 30.7261 33.3534 30.3261C31.7212 29.5865 30.7133 28.1602 29.6452 26.8154C29.4843 26.6131 29.1864 26.2539 29.5023 26.0501C29.8062 25.8539 29.9401 26.2962 30.1281 26.4909C30.8682 27.2621 31.5918 28.053 32.365 28.7911C32.7411 29.1503 33.3474 29.6892 33.728 29.3707C34.1853 28.9873 33.6392 28.3881 33.3399 27.9912C31.9679 26.1679 31.2368 24.0005 30.1071 22.0504C29.5911 21.1599 29.9296 20.4233 30.3132 19.649C30.3899 19.4951 30.4335 19.3019 30.6471 19.3894C30.7208 19.4196 30.7614 19.5932 30.7735 19.7049C31.1736 23.4752 33.2767 26.3928 35.497 29.2605C35.8566 29.7254 36.1123 30.2748 36.3906 30.8C37.1864 32.3003 38.2304 33.5727 39.6896 34.4693C39.8671 34.5779 40.0867 34.8632 40.2793 34.6247C40.4297 34.4391 40.2402 34.1613 40.0747 34.0044C39.1345 33.1184 39.139 31.5758 37.8513 30.8982C37.3564 30.637 37.4406 29.9563 37.4136 29.419C37.3624 28.4213 37.6001 27.3844 37.0164 26.4531C36.9262 26.3082 36.8825 26.0622 37.0931 26.0064C37.2075 25.9762 37.4376 26.1226 37.5174 26.2509C38.1161 27.2048 38.0123 28.3081 38.0935 29.3616C38.1251 29.7722 37.9371 30.3367 38.3327 30.5118C39.5211 31.037 39.6866 32.2354 40.2251 33.1758C41.2195 34.9175 42.8818 35.8473 44.4854 36.8646C45.2466 37.3476 45.4692 37.0729 45.6151 36.2608C46.1793 33.1169 45.3413 30.2989 43.4218 27.8946C42.2439 26.4184 41.4361 24.8291 40.7847 23.1069C40.4779 22.2949 39.7588 21.6534 39.7889 20.701C40.8193 21.0074 40.8299 22.1349 41.4451 22.7824C41.9265 23.2881 42.1537 24.6223 42.4335 24.4684C43.1179 24.091 42.6561 23.0949 42.7614 22.3598C42.802 22.076 42.7133 21.6051 43.0187 21.6006C43.3165 21.5976 43.2548 22.0655 43.2744 22.3507C43.2864 22.5289 43.3135 22.716 43.2744 22.8851C42.6787 25.4706 44.1755 27.2833 45.5625 29.1352C45.6994 29.3179 45.8468 29.582 46.1101 29.496C46.3688 29.4114 46.2981 29.1066 46.3447 28.8877C46.444 28.4228 46.5418 27.958 46.6606 27.4976C46.7389 27.1972 46.5433 26.6282 46.9961 26.6795C47.3105 26.7158 47.2548 27.324 47.1811 27.6425C46.5899 30.1903 47.124 32.7456 47.2699 35.2632C47.5362 39.844 47.3857 44.4264 47.6159 48.9982C47.7422 51.5052 48.5305 53.9171 50.5764 55.6619C50.8427 55.8898 51.1541 56.1947 51.5015 55.9442C51.7648 55.7555 51.6204 55.3872 51.5316 55.108C51.2533 54.2296 51.2112 53.3556 51.5271 52.4817C51.6053 52.2659 51.6685 51.9097 51.9032 51.9354C52.186 51.9655 52.1033 52.2946 52.0762 52.524C51.7362 55.4431 53.0736 57.5305 55.3496 59.1485C55.9694 59.5892 56.6689 59.6511 57.394 59.5696C58.0228 59.5002 58.3553 59.1968 58.2755 58.504C58.0153 56.2717 58.2635 53.9911 57.3654 51.8176C56.7456 50.3173 56.1439 48.8925 54.9329 47.7303C53.7671 46.6104 53.1187 45.092 52.4102 43.6491C51.9799 42.7721 51.5331 41.9677 50.4485 41.7609C49.8588 41.6492 49.5519 41.2085 49.5519 40.5927C49.5519 40.3029 49.4496 39.841 49.7295 39.7867C50.0995 39.7142 50.0258 40.1821 50.0845 40.4357C50.1747 40.8206 50.4004 41.1255 50.7569 41.1994C51.9528 41.4469 52.5335 42.2922 52.9653 43.3231C53.0284 43.474 53.2014 43.7004 53.3007 43.6898C53.5865 43.6581 53.5565 43.3457 53.5865 43.145C53.8694 41.207 54.271 39.2795 54.1732 37.3023C54.1627 37.0759 54.1386 36.688 54.3688 36.6804C54.775 36.6669 54.6681 37.0895 54.6681 37.3385C54.6772 39.364 54.6712 41.3896 54.6561 43.4151C54.6486 44.4505 54.8923 45.4195 55.3466 46.3417C55.4534 46.5591 55.6129 46.7734 55.8746 46.7432C56.1469 46.7115 56.2206 46.4519 56.2733 46.215C56.3124 46.0414 56.3605 45.8663 56.3741 45.6882C56.5862 42.7495 57.4466 39.8335 56.6193 36.8616C56.189 35.316 56.3319 33.6572 55.7212 32.1418C55.6354 31.9305 55.5587 31.5713 55.8099 31.5079C56.18 31.4159 56.2432 31.8309 56.3079 32.0815C56.6042 33.2331 56.8855 34.3908 57.1322 35.5545C57.3895 36.768 57.0074 38.2426 58.6561 38.8463C58.972 38.9626 58.6682 39.3791 58.4891 39.5814C57.6828 40.493 57.5158 41.5858 57.5309 42.7465C57.5459 43.877 57.4948 44.9909 57.2631 46.1168C56.9126 47.8224 57.9491 49.1959 58.5989 50.6479C58.6606 50.7868 58.8381 50.9603 58.969 50.9648C59.2413 50.9754 59.3631 50.7083 59.4008 50.4879C60.338 45.1177 61.919 39.8229 61.3143 34.267C61.242 33.6044 61.1728 32.9192 60.8058 32.3879C58.9525 29.7058 58.4636 26.5603 57.7956 23.4903C57.5865 22.5304 57.2541 22.1153 56.3079 22.2043C54.4621 22.3779 52.8133 21.8255 51.2127 20.941C49.9055 20.2196 48.4387 19.9252 46.9675 19.6988C46.7058 19.6581 46.2439 19.7502 46.2861 19.3955C46.3207 19.1057 46.7945 19.1781 47.0758 19.1932C48.5064 19.2762 49.8769 19.6581 51.2368 20.0852C51.4534 20.1531 51.6971 20.3614 51.8867 20.1667C52.1258 19.9207 52.0296 19.569 51.8265 19.3607C50.611 18.1186 50.0243 16.2002 48.0311 15.7866C47.8355 15.7459 47.5181 15.761 47.5993 15.4289C47.6204 15.3414 47.9318 15.2327 48.0597 15.278C49.4391 15.7685 49.5535 14.9867 49.3323 13.9739C49.2044 13.3853 49.6678 13.1287 49.8423 12.7136C50.3568 11.4805 51.5241 10.4873 51.2217 8.95081C51.1887 8.78177 51.1676 8.5448 51.3827 8.53272C51.491 8.52669 51.67 8.74101 51.7182 8.88742C51.8867 9.40965 51.8731 9.95151 51.6926 10.4677C51.5753 10.8028 51.4338 11.1469 51.2248 11.4276C49.6497 13.5377 50.083 15.4998 51.5602 17.4499C52.2026 18.2982 52.86 19.1374 53.3428 20.1124C53.8814 21.2021 56.2176 21.7802 57.2736 21.2006C57.6482 20.9954 57.6768 20.6497 57.7309 20.2965C58.089 17.9405 58.617 15.6312 59.4489 13.3883C60.0145 11.8654 59.7061 10.19 60.1544 8.63536C60.2688 8.23689 60.35 7.82786 60.4914 7.43996C60.538 7.31167 60.7622 7.13206 60.8449 7.15922C61.0495 7.22563 60.9923 7.45355 60.9517 7.6241C60.3846 9.9349 60.6238 12.38 59.7949 14.6425C59.1556 16.3919 59.0111 18.2393 58.6606 20.0445C58.4681 21.0361 58.7554 21.8074 59.7227 22.2421C59.831 22.2904 59.9258 22.3674 60.0356 22.4111C60.8314 22.7236 61.3804 23.3514 61.9716 23.925C61.9987 23.0752 61.3323 22.4292 61.3097 21.5855C61.2706 20.1531 61.3203 18.754 61.7325 17.3473C62.4335 14.961 63.3195 12.6427 63.5918 10.11C63.834 7.8505 63.6836 5.74044 62.963 3.61529C62.62 2.60554 62.4275 1.54447 62.1657 0.507555C62.1221 0.332471 62.0619 0.0970138 62.2334 0.0275841C62.5298 -0.0931632 62.6305 0.210214 62.6862 0.401901C63.6399 3.69378 64.9307 6.91773 64.7155 10.4481C64.7065 10.6066 64.7953 10.7696 64.8389 10.9311C64.9938 10.8601 65.1608 10.8103 65.2992 10.7167C65.7671 10.3998 66.2755 9.47153 66.6516 9.86396C67.0999 10.3319 66.1491 10.7333 65.8182 11.162C63.8701 13.6856 62.981 16.6137 62.5418 19.7109C62.4139 20.6135 62.6305 21.4904 63.0066 22.3191C63.476 23.3514 63.6971 24.4548 64.0055 25.537C64.4854 27.2154 65.5655 28.5738 67.1932 29.3752C67.5181 29.5352 67.8957 29.6016 68.183 29.2952C68.4177 29.0432 68.3109 28.7398 68.1875 28.4621C67.6745 27.3104 67.3391 26.1301 67.2909 24.8487C67.2503 23.765 66.3868 23.4148 65.4978 23.1356C65.2932 23.0707 64.9547 22.799 64.9803 22.7311C65.1247 22.3236 65.4391 22.5832 65.6903 22.6345C66.277 22.7537 66.8998 22.8745 67.2744 23.3711C67.852 24.1363 68.1349 24.2993 68.1649 23.1205C68.174 22.7719 68.4763 22.8156 68.6087 23.0918C68.7065 23.2941 68.7877 23.5703 68.7291 23.771C68.0205 26.189 69.2405 28.0259 70.5057 29.8567C71.3165 31.0295 72.1033 32.2173 72.9261 33.381C73.0811 33.5984 73.3037 33.944 73.6332 33.7327C73.764 33.6482 73.7595 33.301 73.761 33.0716C73.7716 31.8204 73.8016 30.5676 73.7535 29.3179C73.6873 27.5806 73.74 25.8268 74.2244 24.1801C75.0578 21.3425 73.8949 19.2068 72.183 17.1782C71.8385 16.7692 71.4489 16.3979 71.1285 15.9723C70.5523 15.207 70.5854 15.2568 71.4895 14.9806C72.186 14.7678 72.6734 14.2139 72.9231 13.5136C73.3534 12.3091 73.5805 11.0729 73.4647 9.78246C73.4421 9.52889 73.3052 9.12439 73.7069 9.0776C73.9626 9.04741 73.9867 9.41569 74.0423 9.63303C74.4575 11.2571 74.3763 12.8102 73.4045 14.2516C72.3244 15.8515 72.2763 15.9074 73.4135 17.3382C73.9385 17.9978 74.1988 19.2928 75.1495 19.1238C75.8671 18.997 75.9047 17.7548 76.2296 17.0077C76.6343 16.0779 77.045 15.1542 77.573 14.2894C78.113 13.4049 78.4139 12.4676 78.4139 11.4156C78.4139 10.8888 78.4861 10.3349 78.6591 9.83831C79.4218 7.64372 79.9182 5.3782 80.4914 3.1323C80.5907 2.74138 80.6418 2.03048 81.0269 2.14972C81.6377 2.33688 81.1217 2.94363 81.06 3.34059C80.717 5.57592 80.1755 7.76749 79.4489 9.91075C79.3541 10.1885 79.2323 10.5371 79.5647 10.6926C79.8942 10.845 80.1003 10.519 80.2702 10.2881C80.4086 10.1009 80.4613 9.85038 80.5952 9.6602C80.8253 9.33268 80.693 8.52216 81.2541 8.7395C81.6136 8.87836 81.3804 9.65266 81.1292 10.0375C80.1935 11.4714 79.33 12.9249 78.5764 14.481C76.8118 18.1231 75.5768 21.9402 75.5151 25.9369C75.4579 29.7148 75.3255 33.5818 76.6238 37.2615C76.702 37.4849 76.7757 37.7098 76.8509 37.9332C76.9367 37.734 77.0344 37.5377 77.1067 37.334C77.4857 36.2639 77.737 35.1696 77.7896 34.03C77.7986 33.8233 77.9295 33.5304 78.2138 33.5893C78.4049 33.6286 78.2921 33.8821 78.3191 34.0421C78.5418 35.393 77.9897 36.6352 77.6858 37.8819C77.2977 39.4727 77.7385 40.813 78.3853 42.176C78.784 43.0167 79.2669 43.2446 79.9889 42.4808C80.8885 41.53 81.8633 40.65 82.7298 39.672C83.658 38.623 84.2311 37.423 84.1168 35.9333C84.025 34.7485 84.0431 33.5486 84.1093 32.3592C84.2522 29.825 83.8776 27.4433 82.8336 25.0766C81.928 23.0194 82.2244 20.6331 81.6377 18.4506C81.567 18.1895 81.6467 17.8333 81.7776 17.5842C81.9506 17.2537 81.7671 16.582 82.2725 16.6364C82.5839 16.6696 82.3868 17.2507 82.3297 17.5918C82.2906 17.8242 82.2033 18.0763 82.2545 18.2921C82.3462 18.674 82.3221 19.2158 82.8246 19.2943C83.2262 19.3562 83.3797 18.9185 83.5512 18.6166C84.3846 17.1586 84.1108 15.4848 84.4132 13.9226C84.7501 12.1853 85.0344 10.4043 84.4808 8.63083C84.4162 8.42103 84.4207 8.03011 84.6343 7.99087C85.0796 7.91088 84.9367 8.35764 84.9908 8.59008C85.7655 11.9091 85.1442 15.2146 84.8539 18.5215C84.8298 18.7947 84.6268 19.0725 84.4553 19.3109C83.1736 21.0814 83.4895 22.882 84.2747 24.7295C84.7591 25.8705 85.5008 26.8984 85.7234 28.1587C85.8438 28.8364 86.1522 28.5194 86.3838 28.201C87.7106 26.3686 88.7561 24.3597 89.9175 22.4232C90.3236 21.7455 90.107 21.0391 89.8859 20.3494C89.2827 18.4672 88.9382 16.5579 89.0705 14.5595C89.1412 13.4909 89.397 12.5506 90.2123 11.8518C91.5903 10.673 92.3304 9.16363 92.6403 7.40827C92.6794 7.18488 92.6764 6.83019 92.9306 6.85283C93.1773 6.87396 93.1127 7.2362 93.1608 7.4626C93.2706 7.98332 92.6809 8.6746 93.1683 8.96741C93.8062 9.34928 94.3267 8.5931 94.9043 8.34104C95.5903 8.04219 95.9287 7.14413 96.8298 7.22111C96.723 8.20369 95.8129 8.42707 95.1871 8.83761C93.6467 9.84736 92.028 10.7288 90.805 12.1597C90.456 12.5672 90.0077 12.9234 90.0047 13.506C89.9972 15.4591 89.6647 17.4454 90.5373 19.3155C90.7012 19.6656 90.6034 20.2482 91.151 20.2799C91.5557 20.3026 91.655 19.8286 91.8626 19.5524C92.183 19.1253 92.4718 18.674 92.8073 18.2604C92.9502 18.0838 93.2255 17.9042 93.4211 18.0491C93.6918 18.2484 93.412 18.4506 93.2887 18.6287C92.174 20.2437 91.5617 22.144 90.3612 23.7227C89.6377 24.6736 89.737 24.7627 90.954 24.9015C91.2804 24.9393 91.849 24.7883 91.8415 25.1702C91.834 25.5385 91.2488 25.38 90.9163 25.4434C89.7881 25.6622 88.9803 26.2916 88.4628 27.315C88.1935 27.8463 87.9889 28.4349 87.6189 28.8832C86.2875 30.4921 85.925 32.3154 86.0123 34.3696C86.1115 36.7438 85.5444 38.9595 83.849 40.7874C82.6787 42.0492 81.6557 43.4483 80.4748 44.6996C79.2939 45.9523 78.8035 47.5628 78.0228 49.0238C77.91 49.2351 77.8378 49.5083 78.0784 49.6638C78.1822 49.7317 78.432 49.6819 78.5523 49.5959C79.9062 48.6239 81.5489 48.2012 82.8953 47.1704C83.8941 46.4051 84.353 45.5282 84.4613 44.3358C84.5531 43.3291 84.6764 42.3042 85.6136 41.6567C85.7505 41.5617 86.0107 41.4575 86.101 41.5209C86.4335 41.7533 86.0784 41.8831 85.9686 42.0477C84.6418 44.046 85.0721 45.012 87.3466 45.2761C87.8174 45.3305 88.7125 44.9199 88.6629 45.3969C88.5997 45.9886 87.6234 45.8995 87.1104 45.741C86.0228 45.4075 85.3729 45.821 84.6328 46.5757C83.7317 47.4964 82.7403 48.3763 81.4752 48.8291C78.2936 49.9672 77.0013 52.7081 75.822 55.5472C75.4564 56.4256 75.1285 57.3282 74.6681 58.1554C74.1537 59.0776 74.3342 59.8368 75.1706 60.285C77.6467 61.6163 79.139 63.7792 80.4447 66.1564C81.1142 67.3744 82.5944 67.637 83.6414 66.7495C84.7576 65.8047 85.5248 64.5897 85.8122 63.1452C86.0679 61.8563 85.5805 60.8676 84.4944 60.0722C82.9585 58.9447 82.6681 57.1094 83.6821 55.6936C83.822 55.4989 84.001 55.2212 84.2251 55.3178C84.5034 55.437 84.341 55.7389 84.2296 55.9276C83.9468 56.409 83.8746 56.9268 83.8701 57.4716C83.8626 58.3561 84.0672 59.1108 84.9111 59.5862C85.5971 59.9726 86.101 60.5431 86.4876 61.242C86.9374 62.0585 87.2413 62.8373 86.7253 63.755C86.4635 64.2214 86.2274 64.9112 86.5613 65.2794C87.0307 65.7956 87.4775 65.0712 87.9182 64.8855C89.6677 64.1489 91.3812 63.3218 93.1352 62.5973C94.7629 61.9242 95.7362 60.8058 95.9468 59.0232C96.2747 56.2551 96.6463 53.496 96.3259 50.6932C96.1363 49.0344 96.1559 47.3651 96.4462 45.7063C96.6433 44.5803 96.7035 43.4423 96.2356 42.3631C95.3406 40.2968 95.1661 38.1128 95.1525 35.9061C95.1435 34.4994 94.8321 33.212 94.0408 32.0256C93.063 30.5601 93.2059 28.7338 94.3221 27.401C94.4289 27.2742 94.5372 27.1037 94.7253 27.2184C94.79 27.2576 94.8126 27.4297 94.7945 27.5293C94.7629 27.7029 94.7178 27.8915 94.6185 28.0334C93.2345 30.0212 94.4966 31.4717 95.5918 32.9644C95.9633 33.4716 96.1875 33.1607 96.3635 32.8301C97.227 31.2061 97.9867 29.5292 98.8637 27.9081C99.3842 26.9467 98.6621 25.7241 98.5057 24.6178C98.465 24.3295 98.2951 24.0623 98.1988 23.7816C98.0228 23.273 97.7851 22.4685 98.2153 22.3296C98.6471 22.1908 98.4289 23.0662 98.6711 23.4375C99.2067 24.2586 99.1239 25.2759 99.4865 26.1528C99.6911 26.6494 99.9679 27.0388 100.509 26.4577C100.55 26.4139 100.585 26.346 100.634 26.3324C103.518 25.4887 102.81 23.0481 102.969 21.0089C103.029 20.2377 102.967 19.4558 103.283 18.7253C103.35 18.5729 103.476 18.3163 103.559 18.3223C103.864 18.3465 103.869 18.6423 103.81 18.8445C103.407 20.2452 103.5 21.6791 103.518 23.1054C103.524 23.6141 103.301 24.2993 103.89 24.5604C104.497 24.8306 105.015 24.3144 105.48 23.9793C106.871 22.9696 107.145 21.4316 107.243 19.8649C107.318 18.677 107.265 17.4816 107.292 16.2907C107.295 16.1383 107.438 15.9904 107.515 15.8394C107.596 15.9843 107.747 16.1262 107.75 16.2726C107.775 17.5239 107.81 18.7766 107.772 20.0264C107.742 21.0588 107.915 21.824 109.201 21.7002C109.398 21.6806 109.69 21.658 109.702 21.987C109.704 22.0459 109.529 22.1651 109.436 22.1666C107.996 22.1681 107.374 23.448 106.354 24.1031C104.624 25.2125 103.69 26.4184 104.795 28.5753C105.248 29.4582 104.649 30.4167 103.971 31.1562C101.69 33.6467 100.215 36.6261 98.8667 39.678C98.3537 40.8387 98.5026 42.1337 98.2033 43.3427C98.1341 43.6219 98.2168 43.9691 98.5688 44.0626C98.8216 44.129 99.0021 43.9358 99.148 43.7396C99.2894 43.5479 99.4684 43.3744 99.5692 43.1646C100.597 41.0153 102.348 39.9285 104.603 39.2976C106.3 38.8222 107.881 37.9287 109.504 37.1981C110.451 36.771 111.157 36.0314 111.738 35.1968C112.478 34.1327 112.415 33.1456 111.64 32.0845C111.431 31.7977 111.177 31.5321 111.026 31.2166C110.813 30.7714 110.975 30.2537 111.429 30.2265C112.114 30.1857 111.443 30.7276 111.614 30.9555C112.04 31.5215 112.454 32.0981 112.898 32.6505C113.105 32.9086 113.277 32.7048 113.489 32.5705C114.331 32.0332 114.81 31.2423 115.181 30.3488C115.252 30.1767 115.396 29.8718 115.681 30.071C115.751 30.1208 115.708 30.4031 115.65 30.554C115.313 31.44 115.053 32.3683 114.266 33.0067C114.038 33.1908 113.797 33.4127 113.678 33.6708C113.323 34.4466 112.348 35.1454 112.777 35.9741C112.929 36.2684 114.066 35.4337 114.781 35.1726C116.506 34.5417 118.286 34.0648 119.966 33.298C120.574 33.0218 121.138 32.732 121.561 32.2067C122.099 31.5381 122.473 30.6068 123.65 31.0008C123.872 31.0747 124.02 30.7412 124.138 30.5374C125.23 28.6145 126.865 27.0916 128.022 25.217C128.523 24.405 129.069 23.6171 128.785 22.5681C128.728 22.3568 128.774 22.0851 128.855 21.8723C129.092 21.255 129.028 20.2513 129.711 20.1909C130.039 20.1607 129.651 21.2248 129.591 21.7938C129.481 22.8488 129.809 23.0315 130.849 22.636C131.365 22.4398 131.989 21.5085 132.273 22.0383C132.606 22.6571 131.523 22.8941 131.046 23.2745C130.36 23.8224 129.141 24.2857 129.442 25.1762C129.753 26.0984 131.01 25.5385 131.844 25.5883C132.421 25.623 133.007 25.374 133.596 25.3347C134.482 25.2743 134.97 24.9151 135.172 23.9823C135.53 22.3251 136.749 21.2233 137.934 20.129C138.093 19.9826 138.307 19.723 138.512 19.9962C138.664 20.1984 138.476 20.449 138.324 20.6226C137.583 21.4678 136.67 22.1696 136.26 23.2805C136.052 23.842 135.717 24.4336 136.145 24.9634C136.558 25.4751 137.164 25.1959 137.632 24.9846C138.996 24.3687 140.431 24.6238 141.839 24.5725C142.188 24.5589 142.811 24.3235 142.865 24.8925C142.942 25.709 144.212 25.2909 143.969 25.8222C143.694 26.426 142.942 25.6396 142.385 25.7966C140.687 26.2765 138.993 25.9294 137.289 25.8147C135.796 25.7136 135.587 26.0335 135.586 27.5957C135.584 28.1994 135.711 28.773 135.867 29.3511C136.023 29.9231 136.132 30.5102 136.246 31.0929C136.362 31.683 135.702 32.406 136.16 32.7954C136.815 33.3478 137.68 33.6995 138.509 33.9772C139.36 34.2625 139.872 33.4203 140.552 33.1154C140.834 32.9886 141.305 32.4769 141.391 32.886C141.559 33.698 142.492 33.6376 142.656 34.2595C142.748 34.6111 142.337 34.5115 142.16 34.433C141.212 34.0119 140.321 34.0783 139.462 34.6609C138.948 35.0111 138.453 34.9024 137.973 34.5719C136.642 33.6557 135.402 34.0044 134.173 34.8224C132.276 36.0858 131.999 36.0405 130.464 34.344C129.547 33.3327 128.505 33.0595 127.283 33.6723C126.235 34.1991 125.237 34.344 124.042 34.1915C122.262 33.9636 120.585 34.6066 118.892 35.233C118.115 35.5213 119.592 36.6669 118.288 36.2639C117.695 36.0812 117.111 36.2291 116.536 36.4012C113.752 37.2359 111.02 38.223 108.371 39.4169C106.858 40.0991 105.411 40.9202 103.819 41.4409C102.047 42.0205 101.451 43.7276 100.66 45.1433C99.2368 47.6896 98.8261 50.5166 98.8261 53.416C98.8261 54.2386 99.0758 54.3639 99.7482 53.9307C101.322 52.9149 102.632 51.7693 102.151 49.6095C102.125 49.4948 102.096 49.3649 102.124 49.2563C102.247 48.7582 102.173 47.9069 102.728 47.9371C103.207 47.9628 102.742 48.7023 102.787 49.1265C102.843 49.6562 102.784 50.1981 102.796 50.7339C102.828 52.0289 102.337 53.1126 101.263 53.7843C99.6595 54.788 98.9494 56.2717 98.6305 58.0406C98.4726 58.9176 98.3116 59.796 98.107 60.6639C97.6888 62.4374 96.7501 63.7369 95.0217 64.5474C92.1228 65.9073 89.2857 67.391 86.5132 69.0196C84.3831 70.2708 81.8543 70.7569 79.664 71.9719C79.4564 72.0866 79.2232 72.153 79.0126 72.2601C76.8584 73.3559 74.1401 78.4907 74.6651 80.4649C74.9765 81.6377 75.4188 81.7916 76.4177 81.0853C78.6997 79.4733 81.1172 78.0756 83.5602 76.7354C86.0228 75.3845 87.9995 73.5944 89.3007 71.0874C89.5248 70.6542 89.7911 70.2724 90.2153 70.0203C90.6591 69.7562 91.2759 69.1917 91.5858 69.5358C91.8972 69.8829 91.0863 70.1365 90.8276 70.4821C90.0408 71.5342 89.8573 72.8895 89.0435 73.9476C88.7907 74.2751 89.3248 74.3144 89.5895 74.2117C92.6854 73.0043 95.7843 71.8058 98.8637 70.5561C99.5858 70.2633 100.136 69.652 100.564 69.0105C102.304 66.3888 104.302 63.9407 105.884 61.2148C107.25 58.8602 108.042 56.3426 107.995 53.5745C107.975 52.3882 107.796 51.3271 106.861 50.5105C106.248 49.9747 106.089 49.3272 106.455 48.5876C106.522 48.4488 106.698 48.2556 106.802 48.2677C107.011 48.2918 107.017 48.5318 106.977 48.7039C106.629 50.189 108.171 50.6177 108.634 51.6576C108.791 52.0093 109.296 51.8916 109.582 51.6486C109.94 51.3437 110.291 51.0056 110.554 50.6207C111.326 49.4902 112.07 48.3597 113.143 47.4617C113.89 46.8368 114.124 45.8572 114.468 44.9728C114.555 44.7494 114.704 44.529 114.974 44.6422C115.166 44.7237 115.083 44.9411 115.041 45.1146C114.754 46.3402 114.426 47.5417 113.439 48.4261C113.262 48.5846 113.065 48.734 112.935 48.9272C112.722 49.2472 112.209 49.6155 112.658 49.9792C112.961 50.2238 113.329 49.7559 113.472 49.4842C114.25 48.0171 115.757 47.676 117.075 47.0391C117.278 46.9409 117.541 46.7387 117.705 46.9953C117.86 47.2353 117.573 47.3741 117.415 47.5371C115.459 49.5597 113.086 51.0177 110.73 52.4878C109.663 53.1534 108.953 53.8537 109.508 55.2257C109.632 55.5321 109.57 55.9381 109.516 56.2868C109.412 56.9554 109.732 57.1184 110.163 56.7245C111.838 55.188 113.908 54.4922 115.996 53.8039C117.89 53.1775 119.882 52.8968 121.744 52.1602C121.905 52.0969 122.146 52.1089 122.209 52.2991C122.272 52.4878 122.069 52.5814 121.913 52.6417C120.973 53.0055 120.028 53.3587 119.089 53.7285C118.931 53.7903 118.707 53.89 118.673 54.0167C118.603 54.2703 118.873 54.2024 119.01 54.2341C120.901 54.6507 122.81 55.4234 124.61 53.9594C124.794 53.81 125.119 53.7405 125.185 53.5609C125.833 51.8312 127.595 51.3935 128.828 50.349C128.979 50.2223 129.066 49.8434 129.341 50.103C129.526 50.2766 129.423 50.5483 129.272 50.746C129.165 50.8879 129.057 51.0856 128.911 51.1309C127.014 51.718 126.424 53.7768 124.858 54.7291C124.651 54.8544 124.491 54.9933 124.457 55.2635C124.409 55.6468 125.277 55.8778 124.697 56.2385C124.481 56.3728 123.962 55.9336 123.562 55.8747C121.219 55.5276 118.88 55.0386 116.524 54.9435C114.525 54.862 112.783 55.8657 111.237 57.1607C109.007 59.0262 107.578 61.5061 106.057 63.9044C105.394 64.9519 105.617 65.2176 106.856 65.2508C108.16 65.2855 109.426 65.367 110.694 65.8379C112.085 66.3556 113.493 65.9511 114.832 65.3459C116.479 64.6018 117.926 63.6011 119.131 62.2426C119.304 62.0479 119.589 61.731 119.866 62.057C120.025 62.2457 119.772 62.4736 119.623 62.6502C119.431 62.8766 119.193 63.0788 119.056 63.3354C118.799 63.8169 118.927 64.1218 119.527 64.161C123.393 64.4131 127.061 63.7082 130.489 61.8638C131.584 61.2752 132.329 60.4299 132.679 59.1908C133.147 57.5335 134.193 56.24 135.497 55.1533C135.711 54.9752 135.984 54.6733 136.249 54.948C136.416 55.1201 136.157 55.3751 135.987 55.52C134.488 56.7924 133.576 58.4074 133.003 60.285C132.658 61.4125 131.653 62.0585 130.715 62.703C130.528 62.8313 130.262 63.0456 130.268 63.2132C130.283 63.6448 130.712 63.4637 130.964 63.5497C132.55 64.0916 134.008 64.0991 135.103 62.5596C135.166 62.4706 135.304 62.3528 135.381 62.3694C135.769 62.4509 136.147 61.7385 136.448 62.2502C136.619 62.54 136.169 62.8554 135.92 63.1C135.751 63.266 135.565 63.426 135.359 63.5362C134.784 63.8456 134.671 64.1459 135.304 64.5202C135.559 64.6712 135.804 64.8463 136.022 65.0455C136.142 65.1557 136.296 65.37 136.26 65.4817C136.193 65.6885 135.977 65.607 135.808 65.5375C132.448 64.1595 129.052 63.9422 125.502 64.8674C123.748 65.3247 121.868 65.3806 120.039 65.4349C118.629 65.4757 117.334 65.7579 116.114 66.419C113.925 67.6038 111.763 67.8514 109.274 67.1224C106.897 66.4266 104.401 66.9714 102.892 69.1539C100.917 72.0111 97.8979 73.0193 94.9931 74.343C90.0363 76.604 84.8404 78.3941 80.4463 81.7826C79.3857 82.6007 78.4726 83.5032 77.9205 84.7198C77.743 85.1107 77.388 85.5922 77.8814 86.0254C78.3447 86.4314 78.8652 86.4223 79.3631 86.0978C80.5681 85.3144 81.8588 84.762 83.2458 84.3681C86.954 83.3116 90.6591 82.2399 94.1597 80.5661C95.0051 80.1616 95.9513 79.911 96.8795 79.7495C99.8701 79.2243 102.306 77.7028 104.362 75.5611C105.538 74.3355 107.01 73.7982 108.541 73.3107C109.262 73.0812 109.949 73.2035 110.606 73.5461C112.021 74.2842 113.612 74.577 114.99 75.46C116.127 76.189 118.828 75.5837 119.866 74.6555C120.58 74.017 120.431 73.2986 120.193 72.5258C120.091 72.1922 119.974 71.6866 120.336 71.5704C120.61 71.4828 120.592 72.0156 120.694 72.2783C121.213 73.6155 121.197 73.5959 122.292 72.6299C123.491 71.5719 124.649 70.452 126.092 69.7124C126.342 69.5841 126.7 69.3109 126.882 69.5705C127.107 69.889 126.679 70.0354 126.456 70.1803C124.487 71.4602 122.946 73.1884 121.442 74.9604C120.576 75.9807 119.434 76.6146 118.226 77.1429C118.027 77.2304 117.705 77.2727 117.75 77.5564C117.796 77.8493 118.118 77.81 118.337 77.804C121.593 77.724 124.836 77.4764 128.057 76.998C128.588 76.9195 129.03 76.5708 129.426 76.1965C130.381 75.2924 131.562 75.2547 132.767 75.3422C132.929 75.3543 133.224 75.4811 133.219 75.5279C133.186 75.8222 132.916 75.8056 132.696 75.8328C131.759 75.949 130.793 75.9867 129.996 76.5769C129.781 76.7354 129.442 76.9602 129.626 77.2908C129.701 77.4251 130.044 77.4508 130.266 77.4523C131.867 77.4659 133.474 77.3813 135.037 77.8477C135.244 77.9096 135.617 77.8462 135.593 78.1043C135.571 78.3353 135.192 78.3126 134.969 78.29C134.146 78.207 133.325 77.9987 132.503 78.0047C129.478 78.0258 126.47 78.4152 123.437 78.3896C122.143 78.379 122.077 78.7262 122.894 79.994C123.01 80.1736 123.295 80.3563 122.992 80.5676C122.909 80.6249 122.634 80.5208 122.53 80.4106C121.299 79.1186 119.73 78.9496 118.087 79.0597C116.703 79.1518 115.502 78.7111 114.48 77.8191C113.341 76.8244 112.014 76.1693 110.664 75.5505C109.194 74.8773 107.459 75.4388 106.656 76.8033C106.245 77.5006 106.456 77.9519 107.207 78.1239C109.522 78.6552 111.559 79.9714 113.902 80.4589C114.93 80.6717 115.9 81.2664 116.711 81.9667C118.342 83.3764 120.27 84.3817 122.104 85.3824C124.703 86.8011 127.661 87.5468 130.62 85.9801C131.143 85.7039 131.667 85.3326 132.264 85.3824C132.404 85.3944 134.328 84.0662 132.992 86.0163C132.792 86.3091 133.194 86.5385 133.453 86.6472C134.312 87.0034 134.957 87.6494 135.474 88.3588C137.077 90.5579 139.198 91.3714 141.838 91.0017C142.11 90.9639 142.525 90.6817 142.633 91.0152C142.773 91.4439 142.278 91.5284 141.966 91.6627C141.286 91.9556 140.577 92.0069 139.872 91.8167C137.901 91.2869 136.076 90.5941 134.847 88.7361C133.818 87.18 131.912 86.6864 130.115 87.2449C128.863 87.6328 127.622 88.0086 126.285 87.6735C125.958 87.592 125.498 87.5015 125.287 87.8245C125.061 88.1686 125.364 88.5143 125.614 88.7588C126.438 89.5648 127.016 90.7209 128.445 90.6696C129.182 90.6439 128.792 91.6703 129.562 91.8876C131.497 92.437 133.364 93.237 135.371 93.5313C135.902 93.6098 136.428 93.6656 136.923 93.883C137.135 93.9766 137.436 94.0882 137.335 94.3418C137.231 94.6044 136.908 94.4626 136.693 94.4173C134.838 94.0279 132.952 93.7985 131.131 93.2445C130.633 93.0921 130.047 92.7857 129.683 93.3774C129.377 93.8709 129.541 94.4097 129.946 94.8505C130.125 95.0467 130.488 95.264 130.086 95.5372C129.872 95.6821 129.638 95.4678 129.465 95.3048C129.063 94.9244 128.78 94.4369 128.732 93.9056C128.633 92.8083 127.971 92.2725 127.065 91.7971C125.474 90.9639 124.019 89.9496 123.24 88.2048C122.736 87.0774 121.517 86.8042 120.618 86.1491C120.53 86.0857 120.35 86.0253 120.296 86.0691C120.126 86.205 120.212 86.4057 120.294 86.5551C120.687 87.2751 120.66 88.063 120.598 88.8282C120.425 90.9896 121.237 92.6544 122.992 93.886C123.213 94.0415 123.626 94.1909 123.38 94.5154C123.163 94.7992 122.844 94.4852 122.605 94.3494C122.244 94.1441 121.913 93.8875 121.555 93.6762C121.314 93.5343 121.055 93.2159 120.782 93.4196C120.517 93.6173 120.67 93.9615 120.782 94.2392C120.885 94.4973 121.107 94.8475 120.658 94.9184C120.326 94.9712 120.147 94.5939 120.148 94.3011C120.162 92.6136 119.572 91.0228 119.398 89.3716C119.068 86.2246 115.98 82.6701 112.815 81.9637C111.13 81.5879 109.456 81.2317 107.912 80.4091C107.61 80.2476 107.234 80.1812 106.888 80.1631C106.291 80.1299 105.579 80.1223 105.251 80.6476C104.87 81.2573 105.477 81.7298 105.835 82.1765C106.429 82.9176 107.04 83.6481 107.668 84.359C108.347 85.1273 109.031 85.8986 110.245 85.408C110.435 85.331 110.722 85.4141 110.936 85.4971C111.255 85.6193 111.739 85.7386 111.637 86.1582C111.559 86.4797 111.128 86.2533 110.855 86.2457C108.876 86.1884 108.902 86.2065 108.834 88.1701C108.797 89.2644 109.17 90.2832 109.236 91.3503C109.281 92.0839 109.8 92.3389 110.411 92.4959C111.271 92.7163 112.132 92.9366 112.989 93.166C113.155 93.2098 113.365 93.3155 113.31 93.4906C113.277 93.5917 113.004 93.6883 112.858 93.6656C112.039 93.5434 111.211 93.4347 110.414 93.2204C109.692 93.0272 109.25 93.1027 109.204 93.9585C109.192 94.1728 109.197 94.529 108.908 94.4807C108.667 94.4414 108.717 94.0807 108.703 93.8498C108.568 91.5239 108.079 89.2342 107.509 87.0094C106.865 84.4934 105.052 82.7305 102.593 81.7584C101.976 81.5139 101.25 81.3887 100.667 81.6407C98.286 82.6701 95.5421 82.8014 93.4557 84.5492C93.1608 84.7968 92.5636 84.8118 92.6313 85.2994C92.6553 85.4744 93.2375 85.5605 93.5579 85.7054C93.7881 85.8095 94.1612 85.6058 94.2484 86.0208C94.0183 86.0571 93.7836 86.1401 93.5564 86.125C91.0878 85.962 88.8915 86.7212 86.8366 88.0373C86.0845 88.5188 85.233 88.8478 84.359 89.0108C82.7599 89.3097 81.3293 89.9964 79.8791 90.6907C75.3421 92.8627 73.4466 96.7537 73.2962 101.473C73.2074 104.228 72.8464 106.93 72.4207 109.61C72.0311 112.068 72.535 114.339 72.9938 116.656C73.8483 120.973 75.312 125.132 76.3109 129.417C76.9126 131.998 78.2334 134.403 78.4019 137.12C78.435 137.652 78.5568 138.182 78.5583 138.713C78.5719 142.526 78.8441 146.304 79.7467 150.026C80.174 151.789 79.9874 151.982 78.1356 151.988C72.7907 152.005 67.4444 152.003 62.0995 151.988C60.4884 151.984 60.3184 151.834 59.9965 150.21C59.5993 148.206 59.9694 146.244 60.8269 144.467C61.7971 142.457 61.585 140.571 60.8795 138.606C60.2597 136.878 59.6791 135.142 59.7332 133.256C59.7513 132.629 59.9092 132.293 60.5425 132.504C61.3594 132.777 61.4948 132.367 61.7159 131.687C62.5734 129.045 62.2123 126.341 61.8693 123.739C61.4933 120.893 61.2857 118.072 61.2857 115.213C61.2857 113.074 61.1939 110.936 61.0886 108.797C60.9758 106.513 61.2074 104.171 61.9385 101.929C62.784 99.3392 62.3838 96.9198 60.9156 94.612C59.8806 92.9834 58.6697 91.6567 57.0074 90.5851C54.5027 88.9686 52.4478 86.7212 50.6366 84.3938C48.9427 82.2173 47.0382 81.2271 44.3771 81.5637C43.0292 81.7343 41.6708 81.8701 40.3395 82.1297C37.8573 82.6127 36.1559 84.2624 34.6862 86.1838C34.0303 87.0411 33.3549 87.8969 32.4749 88.4946C31.2519 89.3233 30.8066 90.4658 30.8216 91.8454C30.8457 94.1109 30.4907 93.6777 28.6644 94.5184C28.5019 94.5924 28.2838 94.6648 28.2086 94.455C28.171 94.3479 28.3064 94.0596 28.3981 94.0415C30.6606 93.6083 30.1642 91.7925 30.2846 90.2877C30.3568 89.3927 30.0499 88.8297 29.0841 88.6305C28.2718 88.4629 27.5031 88.0977 26.8592 87.5483C26.0138 86.8268 25.3293 87.1453 24.7095 87.8486C24.1214 88.5173 23.5903 89.2387 22.9901 89.8968C21.5204 91.5103 19.7438 91.3458 18.6441 89.4455C18.08 88.472 17.6407 87.4185 17.2225 86.371C16.8795 85.5137 16.4177 85.316 15.4625 85.4246C13.5986 85.639 11.9739 86.365 10.3824 87.2585C10.9555 86.125 11.8837 85.4941 13.1232 85.2918C13.8754 85.1696 14.6351 85.073 15.3722 84.8873C16.2552 84.6639 16.356 84.1553 15.7001 83.5108C14.8412 82.664 13.4933 82.4588 12.2763 82.9659C10.8156 83.5727 9.3504 84.1674 7.88819 84.7681ZM67.1315 47.5251C67.1315 47.7137 67.1932 47.9733 67.1209 48.1861C66.8156 49.0933 67.0442 49.3302 67.9258 48.9137C68.0476 48.8563 68.3515 48.9242 68.4011 49.0223C68.5666 49.3468 68.201 49.3348 68.0521 49.4676C65.388 51.8372 65.9897 55.2136 69.3007 56.4815C72.0551 57.5365 72.0536 57.5365 73.0961 54.7322C73.8423 52.7263 74.1837 50.5468 75.3135 48.7144C76.7607 46.3689 77.218 44.1321 75.8325 41.539C75.0307 40.0387 74.7629 38.2215 73.591 36.9159C72.35 35.5349 71.3 34.0331 70.3252 32.4679C69.8167 31.6513 69.1728 31.1713 68.174 31.1185C66.9404 31.0536 65.9491 30.4091 65.0014 29.6484C64.5079 29.253 64.3109 28.1813 63.7212 28.4123C63.0909 28.6583 63.309 29.6907 63.124 30.3699C63.0141 30.7744 62.9088 31.1713 62.9961 31.5985C63.7708 35.4066 63.2007 39.2086 62.5658 42.9276C61.8874 46.9047 61.2992 50.903 60.4989 54.8605C60.3364 55.6649 60.4252 56.5207 60.3921 57.3524C60.3605 58.1327 60.6298 58.4376 61.4587 58.1886C62.3748 57.9139 63.2413 57.5426 64.0973 57.1275C64.5741 56.8966 65.2135 56.8196 65.5188 56.4543C65.9777 55.9034 65.0856 55.5985 65.0149 55.0944C64.9652 54.7442 64.8118 54.3609 64.9006 54.0469C65.4196 52.2116 65.4135 50.2781 65.9446 48.4548C66.3763 46.9742 66.453 45.5237 65.913 44.0807C65.5895 43.2189 65.5324 42.3435 65.585 41.4454C65.5971 41.2371 65.5595 40.9473 65.8754 40.9458C65.94 40.9458 66.0574 41.2326 66.0619 41.3911C66.0875 42.1669 66.1191 42.9291 66.4801 43.6506C67.0818 44.8565 67.2684 46.1425 67.1315 47.5251ZM26.5313 62.0766C27.0066 62.0766 27.482 62.0993 27.9544 62.0721C29.1999 61.9996 29.2511 61.8895 28.7411 60.7077C28.1063 59.236 27.4459 57.778 26.9314 56.2506C26.0424 53.6092 25.1007 51.0509 22.8923 49.0616C21.8408 48.1137 20.8224 47.35 19.5256 46.9047C16.5471 45.8844 13.4467 45.3592 10.3854 44.6769C9.39101 44.4551 8.40418 44.3539 7.39177 44.3615C6.49971 44.3675 6.27857 44.6981 6.84269 45.4059C8.25525 47.1764 8.77123 49.3333 9.46472 51.4161C9.80169 52.4319 10.1988 53.4311 10.4696 54.465C10.7569 55.5593 11.3692 56.0649 12.5065 56.0091C14.0394 55.9351 15.3271 56.5796 16.2387 57.7478C18.8818 61.1333 22.6246 61.7793 26.5313 62.0766ZM60.3425 67.3472C60.5049 69.9086 60.0807 72.3688 60.8163 74.7551C61.0074 75.3739 61.0826 76.4637 61.4903 76.4788C62.0754 76.4999 62.0424 75.4811 62.3372 74.9392C62.4771 74.6811 62.5373 74.3793 62.6666 74.1136C62.7373 73.9672 62.9043 73.7333 62.981 73.7499C63.1736 73.7921 63.1721 74.0231 63.1375 74.1936C62.969 75.0071 62.8201 75.8267 62.605 76.6282C61.74 79.8612 62.8637 82.332 65.8754 83.7659C67.7497 84.6579 68.8329 84.0376 69.4165 82.0573C70.4455 78.5632 69.2029 75.2411 68.8434 71.8557C68.5922 69.5026 67.9784 67.145 68.9758 64.8448C69.3579 63.9648 69.6527 63.0788 69.8633 62.1506C70.3267 60.116 70.0393 59.6617 68.0476 59.1515C67.1826 58.9296 66.3929 59.141 65.6241 59.4549C64.3605 59.9711 63.1044 60.5311 61.7625 60.7831C60.6463 60.9929 60.3199 61.6389 60.3364 62.6668C60.362 64.2712 60.3425 65.8771 60.3425 67.3472ZM20.8585 81.9139C19.5271 81.7237 18.3493 82.1358 17.4993 83.307C17.1894 83.7342 16.8795 84.196 17.1684 84.7817C17.9311 86.3257 18.6035 87.9226 19.473 89.4017C20.186 90.6168 21.2962 90.653 22.274 89.6297C22.8442 89.0304 23.2985 88.3211 23.8641 87.7173C25.4602 86.0103 25.5881 86.0042 27.5933 87.1347C29.9822 88.4826 32.0792 88.1097 33.7009 85.9604C34.277 85.1967 34.9179 84.5085 35.5632 83.8142C35.813 83.5455 36.3756 83.298 36.0221 82.8286C35.7799 82.5071 35.3617 82.818 35.0307 82.901C31.4594 83.793 27.9243 83.956 24.4072 82.5765C23.312 82.1494 22.1447 81.852 20.8585 81.9139ZM135.044 30.4816C134.776 29.4582 134.677 28.2251 134.667 26.9799C134.662 26.3882 134.262 26.0969 133.729 26.1649C132.159 26.3686 130.489 26.2071 129.037 26.8426C127.131 27.6772 125.954 29.3526 125.052 31.197C124.857 31.597 124.922 32.012 125.216 32.3607C125.593 32.806 125.981 32.4905 126.337 32.3366C126.931 32.0785 127.495 31.6498 128.16 31.7238C128.779 31.7917 129.585 31.123 129.939 31.7434C130.379 32.5131 131.318 32.6701 131.647 33.4806C131.783 33.8127 132.027 34.0904 132.461 34.0014C133.289 33.8308 135.052 31.5623 135.044 30.4816ZM96.7411 37.3657C96.7411 37.6042 96.7275 37.8426 96.7441 38.0811C96.7772 38.5415 96.6448 39.1724 97.2089 39.3067C97.8001 39.4471 97.8678 38.7467 98.1416 38.3951C98.2875 38.2079 98.3988 37.9951 98.5267 37.7943C100.09 35.3462 101.332 32.6897 103.465 30.6189C104.312 29.7978 104.121 28.6598 103.808 27.5791C103.35 25.9973 102.706 25.7558 101.49 26.8924C98.4726 29.7148 97.248 33.3825 96.7411 37.3657ZM71.7919 67.8136C72.0326 69.16 72.2221 70.6361 72.5771 72.07C72.8193 73.0435 73.576 73.2744 74.1191 72.5499C74.9479 71.4466 75.9754 70.5531 76.878 69.5328C77.0796 69.3034 77.2405 69.0422 77.1954 68.7298C76.8479 66.3239 75.831 64.3255 73.7009 63.0169C73.3714 62.8147 73.0555 62.6592 72.887 63.2011C72.4312 64.6742 71.9754 66.1488 71.7919 67.8136ZM61.045 29.6484C61.3624 29.5382 61.4572 29.256 61.576 28.9888C62.5192 26.8924 61.9416 24.9227 60.0085 23.6895C59.7663 23.5356 59.4715 23.3333 59.1932 23.5326C58.9314 23.7197 58.9254 24.0729 59.0066 24.3506C59.4669 25.9369 59.9468 27.5172 60.4448 29.093C60.529 29.3601 60.6794 29.6484 61.045 29.6484Z" fill="url(#paint0_linear_429_4315)"/>
<defs>
<linearGradient id="paint0_linear_429_4315" x1="-0.00209137" y1="75.9978" x2="143.998" y2="75.9978" gradientUnits="userSpaceOnUse">
<stop stop-color="#244341"/>
<stop offset="1" stop-color="#DDC28B"/>
</linearGradient>
</defs>
</svg>
