<svg width="133" height="127" viewBox="0 0 133 127" fill="none" xmlns="http://www.w3.org/2000/svg">
<path d="M50.7933 80.7132C50.7952 80.7151 50.7989 80.717 50.8008 80.7189C50.7971 80.7132 50.7914 80.7076 50.7876 80.7019C50.7895 80.7076 50.7914 80.7095 50.7933 80.7132Z" fill="black"/>
<path d="M72.0259 98.5029C72.0064 98.4883 71.9885 98.4736 71.969 98.4606C71.9527 98.459 71.9397 98.4557 71.9235 98.4541C71.9348 98.4606 71.9446 98.4671 71.9544 98.4736C71.9788 98.485 72.0032 98.4915 72.0259 98.5029Z" fill="black"/>
<path d="M131.95 58.688C129.633 47.6053 124.73 37.7943 117.072 29.4307C113.738 25.7896 109.518 22.8787 106.555 18.9975C104.529 16.3461 102.787 14.0106 99.386 13.4159C97.154 13.0258 95.6244 11.6526 94.2329 10.0263C93.3876 9.03823 92.2302 8.24684 90.9931 8.45637C88.3954 8.89639 86.9974 7.43449 85.5442 5.75339C84.6582 4.72829 83.7463 3.32603 82.08 3.89016C79.0386 4.92009 76.5157 1.58207 73.4645 2.98916C73.3702 3.03268 73.0516 2.6797 72.8841 2.475C70.3157 -0.679282 67.3555 -0.600306 64.2036 1.48375C62.6462 2.51368 61.1085 2.54431 59.439 1.80772C55.705 0.160463 52.0589 -1.14509 48.7248 2.79252C48.0794 3.5549 46.4539 3.50171 45.2818 3.82407C45.1664 2.94403 44.534 1.61914 42.1136 1.37898L36.307 3.93851C33.4834 5.618 33.6703 7.75846 33.3728 8.60143C33.0363 9.55562 32.1228 9.23326 31.4156 9.35575C27.7727 9.99241 23.8664 10.231 21.9304 14.0912C20.4056 17.1311 18.3476 19.5101 15.1989 20.9929C12.1119 22.4484 8.98427 24.2971 8.38281 27.8543C7.46273 33.299 3.86045 37.8201 3.41667 43.3743C3.10618 47.2555 -0.959386 50.0697 0.211031 54.4215C1.73582 60.0918 1.02382 65.983 3.39879 71.7709C6.35084 78.9643 7.30831 86.7977 12.1997 93.4528C16.8862 99.829 21.9092 105.801 27.5061 111.355C28.3969 112.24 29.3934 112.72 30.6841 112.701C32.6283 112.672 34.0783 113.558 34.6278 115.431C35.1723 117.288 36.4289 118.494 38.1472 118.879C41.4227 119.614 44.5243 119.87 47.1496 122.81C50.0139 126.016 55.2287 121.506 58.5937 124.997C58.6912 125.099 59.1269 124.954 59.3626 124.838C61.0759 123.993 62.3504 124.875 63.6427 125.832C64.1889 126.237 64.8587 126.859 65.4162 126.807C69.8394 126.391 74.4983 128.21 78.7037 125.352C79.471 124.83 81.0787 124.66 81.8151 125.11C84.4192 126.699 86.947 125.982 89.4472 125.245C93.5891 124.024 98.2676 124.046 101.185 119.904C102.026 118.711 103.97 118.661 105.57 118.589C106.473 118.548 107.514 118.598 108.245 118.179C114.904 114.371 120.354 109.311 124.93 103.124C132.39 93.0385 132.205 81.3079 132.985 69.7384C133.081 66.0055 132.714 62.3387 131.95 58.688ZM118.76 99.1924C116.235 104.344 111.768 106.355 106.3 106.679C111.22 105.424 115.276 102.94 118.243 98.8088C118.399 98.5912 118.711 98.4832 118.95 98.3252C118.888 98.6153 118.886 98.9345 118.76 99.1924ZM84.6972 106.697C73.8416 103.522 63.1339 99.8597 53.2927 94.2039C44.5357 89.1718 38.4349 82.2089 39.1696 71.4308C39.8085 62.0582 43.0223 53.8639 49.4612 46.4851C54.824 40.3409 60.7476 36.5032 68.7243 37.3268C76.5124 38.1311 84.5656 38.2004 91.8433 41.8334C92.1147 41.9688 92.4772 41.9221 92.7975 41.9591C90.4599 39.8525 87.4851 39.037 84.5509 38.5615C78.9573 37.6573 73.3149 36.8369 67.6628 36.5693C60.138 36.2115 54.4826 39.4995 49.5311 45.3616C44.6283 51.1657 40.6993 57.1149 39.2493 64.5614C37.4985 73.5471 37.9147 82.0622 45.0364 88.951C50.2821 94.025 56.6349 97.3646 63.3875 100.006C67.2434 101.515 71.1334 102.941 74.9372 104.581C65.4569 101.644 55.9716 98.6637 47.647 93.0885C37.6172 86.3705 35.2585 76.5998 37.2791 65.4913C39.3793 53.9509 46.1775 45.2005 55.4124 38.3487C61.8188 33.5939 69.42 34.2644 76.7205 35.5297C82.7855 36.5806 89.1237 37.2849 94.1175 41.5594C94.5043 41.8914 94.9205 42.1896 95.6845 42.786C94.4003 42.4201 93.6038 42.1945 92.8089 41.9672C96.0698 44.285 99.3307 46.6027 102.592 48.9205C102.964 49.1542 103.328 49.4056 103.674 49.6909C103.313 49.4347 102.952 49.1784 102.592 48.9205C99.6558 47.083 96.0129 46.606 93.2283 44.1544C91.658 42.7715 88.4312 42.7457 85.9506 42.238C78.4664 40.7052 70.979 38.8774 63.2038 39.9605C59.3317 40.5005 56.0578 42.1058 53.5398 45.0586C48.1315 51.4027 42.4744 57.5323 41.1057 66.3069C39.6671 75.5328 43.3035 85.5792 49.8643 89.1718C46.2523 85.3922 42.9361 81.3353 42.0697 76.0631C40.4815 66.402 43.0922 57.8047 49.8676 50.6644C52.8928 47.4747 54.941 43.3082 59.5804 41.6481C64.8928 39.7462 70.1922 40.5601 75.4932 41.0872C85.2889 42.0591 94.5125 45.107 102.647 50.5226C109.957 55.3886 115.364 62.142 118.794 70.2977C119.137 71.1133 119.298 72.0046 119.45 72.883C117.241 68.117 114.844 63.525 110.394 60.3755C109.756 61.7036 109.346 60.4126 109.1 60.1644C103.645 54.6536 97.1995 51.509 89.4781 49.7103C83.1042 48.2242 77.0017 45.3117 70.4474 44.0432C77.1139 45.1747 83.7755 45.9177 90.3217 48.0678C94.7092 49.5088 99.1681 50.4598 102.792 53.4013C105.451 55.5611 107.86 58.0271 110.38 60.3578C107.511 55.7061 103.486 52.1376 98.604 49.9246C91.1426 46.5415 83.1399 44.841 74.986 43.8353C71.8226 43.4452 68.7032 42.8779 65.4845 42.8537C60.4582 42.8134 56.7519 44.8088 53.3398 48.4982C50.3065 51.7766 46.6847 54.5376 44.9811 58.8024C40.2962 70.525 44.1488 81.8833 55.666 90.0744C60.7069 93.6591 65.9494 96.9633 71.2586 100.5C63.5517 97.7869 56.7714 93.68 50.087 89.3927C54.0859 93.788 59.4292 96.1541 64.675 98.5267C77.0017 104.102 89.6016 108.781 103.539 107.843C104.884 107.753 106.225 107.598 107.938 107.438C102.291 109.244 92.7211 109.044 84.6972 106.697ZM105.63 108.966C96.3965 110.805 87.5404 109.147 78.8321 106.115C87.6314 108.305 96.4176 110.618 105.63 108.966ZM75.9792 100.911C83.782 102.603 90.4713 106.665 98.0286 106.713C98.8202 106.695 99.6168 106.66 100.42 106.591C99.6119 106.679 98.8154 106.718 98.0286 106.713C90.4323 106.89 83.2878 104.798 75.9792 100.911ZM58.9529 83.9867C59.1041 84.2446 59.1675 84.5541 59.2715 84.8393C58.9968 84.7539 58.6343 84.7523 58.462 84.5718C52.6489 78.4486 46.5872 70.9215 49.8627 61.1395C50.0025 60.7204 50.3195 60.3594 50.5552 59.971C50.4869 60.3642 50.4658 60.7736 50.3406 61.1476C48.5557 66.4745 51.6752 77.3655 55.6741 79.7332C53.9933 76.2759 51.7858 73.0507 50.8641 69.2549C49.2417 62.5805 54.5346 54.5634 61.7863 52.5922C70.8343 50.1326 79.0597 53.3948 87.6217 55.6078C96.8062 57.982 103.651 63.591 110.742 69.1243C117.599 74.4771 120.922 88.9172 116.736 95.4514C116.368 96.0252 115.832 96.491 115.375 97.0084C115.544 96.3943 115.647 95.7544 115.892 95.1726C119.517 86.5462 115.973 76.4854 107.478 69.2404C96.7119 60.058 83.7983 56.7603 70.2588 55.3145C61.1718 54.3442 54.4322 59.8436 54.689 67.1628C54.7784 69.7014 56.1781 71.8434 57.129 74.1145C57.1924 74.2676 57.5322 74.3063 57.7435 74.3997C57.6671 73.9436 57.6915 73.4391 57.498 73.041C55.996 69.9528 54.6533 66.8678 56.0562 63.3428C58.1028 58.1996 62.5243 56.13 67.4417 56.2816C83.8129 56.7909 98.921 60.9171 110.456 73.4601C114.523 77.8828 117.056 83.0099 116.503 89.3959C115.378 85.6436 114.793 81.7979 111.682 79.14C107.449 75.6102 102.831 72.7751 97.6872 70.6572C90.2356 67.5899 82.8912 64.1987 74.6902 63.749C71.8698 63.5943 68.8722 63.446 66.3526 65.3092C80.6577 63.6072 85.3361 66.6196 92.0806 69.3613C86.5358 67.9784 80.9421 66.8662 75.2542 66.2731C73.2434 66.0635 71.3203 65.8879 69.5891 67.4126C65.9299 70.6346 68.9502 73.2344 70.6441 75.412C75.225 81.2966 80.8722 86.1465 86.8625 90.637C90.0779 93.0482 93.1047 95.6255 97.8075 96.2654C95.4504 96.404 93.2348 95.8576 91.076 94.7438C82.6116 90.3791 75.0218 84.986 69.685 76.9222C69.3778 76.458 68.7991 76.1727 68.3472 75.8036C71.8308 82.2589 77.3008 86.7477 83.122 91.0351C90.4566 96.4378 98.4382 98.4493 107.381 96.8392C108.52 96.6345 109.749 96.4443 110.388 95.2451C108.93 95.1709 107.769 96.5974 106.199 96.0719C115.143 90.4774 115.13 87.3038 106.14 75.823C113.829 80.5971 115.126 86.4995 110.402 95.2322C113.203 94.1539 114.492 90.4693 114.104 84.662C117.916 92.3213 113.915 97.8481 104.258 98.4945C97.0272 98.978 90.1104 99.0538 84.2713 93.5108C82.2507 91.5911 78.4274 92.3116 76.2345 90.0325C73.0321 86.7058 69.9223 83.2936 66.7508 79.9379C66.0209 79.1642 65.2049 78.4695 64.4295 77.7394C65.2586 78.9176 65.8633 80.3811 66.9557 81.2273C71.5154 84.7604 73.6774 91.0351 79.7034 92.7242C82.7612 93.5817 85.3865 94.8083 87.6265 96.9197C87.7273 97.0036 87.8313 97.0793 87.9289 97.1696C87.9484 97.1841 87.9663 97.1986 87.9842 97.2131C96.8094 101.146 105.392 100.169 113.819 95.9398C113.995 95.8511 114.208 95.8382 114.403 95.7899C114.375 96.0381 114.41 96.3121 114.312 96.5297C113.607 98.1125 112.553 99.7775 110.85 99.8951C103.619 100.392 96.3022 101.363 89.3529 98.2076C88.8489 97.9787 88.4328 97.558 87.9825 97.2147C87.9598 97.205 87.937 97.197 87.9142 97.1857C87.82 97.0922 87.7208 97.01 87.6249 96.9197C84.0616 93.9331 79.2158 95.2918 75.29 93.5205C75.0917 93.4302 74.7991 93.5414 74.5504 93.5592C74.6755 93.7719 74.7487 94.0781 74.934 94.1781C75.5501 94.5085 76.2491 95.0775 76.8441 95.0001C82.4962 94.2716 86.5341 97.8691 91.2012 99.9274C96.2811 102.168 101.876 100.564 107.215 101.098C107.603 101.136 107.984 101.251 108.367 101.33C108.044 101.513 107.741 101.797 107.395 101.865C99.3486 103.475 91.2971 104.824 84.151 99.1456C81.8004 97.2776 79.2158 98.588 76.7611 98.2898C73.0662 97.8401 70.3856 96.1396 68.9649 92.8242C67.1133 88.5046 62.4496 87.1732 59.6909 83.84C58.4799 82.3765 57.0299 81.1048 55.6888 79.7461C55.9424 81.793 58.0459 82.4361 58.9529 83.9867ZM58.4701 51.8056C62.1342 49.5942 65.1675 49.1816 68.1521 49.2122C79.7636 49.3299 90.9248 51.5848 100.981 57.5597C103.591 59.1119 105.497 61.8358 107.707 64.0407C107.901 64.2342 107.946 64.5742 108.062 64.8466C107.793 64.7209 107.472 64.6532 107.267 64.463C96.8419 54.8132 83.6715 51.9603 70.241 49.8231C66.5753 49.2396 63.0461 50.2196 58.4701 51.8056ZM102.787 74.8801C106.938 76.998 109.77 80.5342 111.267 84.8877C113.442 91.2092 109.338 95.5836 100.516 95.5675C93.3242 96.1864 88.5076 90.3855 83.0326 86.0079C78.6045 82.4668 74.8316 78.2213 71.2358 73.8453C70.1385 72.5091 69.62 70.9424 70.267 69.3419C70.8847 67.8139 72.416 67.7156 73.8839 67.8123C83.9413 68.4748 93.7419 70.2671 102.787 74.8801ZM115.863 98.1979C116.165 97.9432 116.585 97.8272 116.95 97.6451C116.781 98.0013 116.658 98.3897 116.435 98.7104C113.062 103.562 107.79 103.394 102.77 103.889C107.709 103.311 112.061 101.396 115.863 98.1979ZM119.764 92.0924C120.689 83.8997 119.226 77.193 114.917 71.7483C109.232 64.5678 104.323 56.0736 94.6864 53.3239C84.8793 50.5258 75.1079 46.8026 64.5303 48.7287C60.0957 49.5362 56.7828 52.0683 53.3301 54.8906C49.6562 57.8933 48.7719 61.565 48.2176 65.6638C47.5446 70.6572 49.9489 74.7124 52.5238 78.6517C56.0919 84.1092 61.1556 88.0114 66.4745 91.6476C67.1816 92.1311 67.8969 92.9563 68.0968 93.7493C68.6511 95.9639 70.0166 97.3952 71.9234 98.4558C71.938 98.4574 71.9527 98.4606 71.9689 98.4622C71.9884 98.4751 72.0063 98.4912 72.0258 98.5041C75.3892 100.076 79.3393 98.0544 82.5726 100.047C89.6374 104.398 97.3865 105.158 105.41 104.568C107.164 104.439 108.897 104.026 111.683 103.576C102.792 107.272 94.901 106.231 87.1714 103.572C82.6197 102.005 78.0486 100.598 73.3897 99.4196C72.889 99.2939 72.4761 98.8329 72.0275 98.5057C72.0047 98.4945 71.9803 98.488 71.9576 98.4767C71.9462 98.4703 71.9364 98.4638 71.9267 98.4574C70.6067 98.3655 69.6574 97.558 68.7779 96.7215C62.96 91.1946 55.8643 87.0797 50.8023 80.7196C50.8007 80.718 50.7974 80.7164 50.7958 80.7148C52.896 84.8539 56.417 87.6713 59.9543 90.5C62.3065 92.3809 65.0976 93.7316 66.9833 96.1751C67.128 96.3637 67.1897 96.6135 67.2905 96.8359C67.1475 96.8085 66.9735 96.8247 66.8679 96.7473C60.5037 92.0844 53.3284 88.5078 48.4988 81.8591C41.0423 71.5952 42.4338 59.0764 52.3433 50.5484C53.2276 49.7876 54.0502 48.9527 55.0239 48.229C52.1938 52.1973 49.6465 56.2961 47.3804 60.627C43.6579 67.7446 45.5695 73.8533 49.7018 79.8508C49.9537 80.2151 50.4235 80.4327 50.7958 80.7164C50.7942 80.7132 50.7925 80.7099 50.7909 80.7067C50.7942 80.7115 50.799 80.7164 50.8023 80.7212C50.8039 80.7228 50.8055 80.7228 50.8072 80.7244C49.8432 78.8773 48.9719 76.977 47.899 75.1944C44.7064 69.8916 46.2182 64.8853 48.7346 59.9178C51.6248 54.212 54.2599 48.142 60.5948 45.389C65.174 43.3985 70.028 44.6911 74.6203 45.9338C83.5154 48.3419 92.8706 50.0987 100.753 54.7181C113.933 62.4386 122.531 76.8094 119.764 92.0924ZM126.063 84.6782C126.063 82.3781 126.192 80.0684 126.028 77.7781C125.862 75.4877 125.581 73.1748 125.039 70.9457C123.653 65.2254 121.569 59.8082 117.235 55.5337C117.771 56.6748 118.308 57.8144 118.846 58.9555C117.745 58.3849 117.646 56.7748 116.258 56.5024C118.226 60.411 120.954 63.8812 122.391 68.1266C124.049 73.0249 124.101 78.0231 124.317 83.0583C123.716 75.9261 122.25 69.0615 118.36 62.8883C114.052 56.0511 108.637 50.3872 101.732 45.979C96.9833 42.9472 93.1762 38.2085 87.5274 36.8578C76.9952 34.3386 65.9689 30.2382 55.8367 37.0835C41.5788 46.7172 33.3094 61.5715 36.4777 79.2754C38.1065 88.3772 44.6787 93.9798 52.5303 97.7224C64.4832 103.422 76.9123 108.035 89.9934 110.599C94.8652 111.555 99.8151 111.934 104.765 110.897C98.8544 112.417 92.8251 112.691 87.0007 111.089C77.8259 108.565 68.3049 107.451 59.3122 104.229C52.9968 101.966 47.0976 98.9925 41.9949 94.5907C41.3934 94.0717 40.6733 93.6897 40.0084 93.2449C43.5863 97.9835 48.8337 100.379 53.951 102.917C62.9909 107.401 73.1036 108.122 82.6441 110.857C91.3556 113.354 100.01 113.678 108.665 110.742C112.004 109.609 114.985 107.806 117.783 105.714C113.246 110.159 107.792 112.388 101.416 113.084C91.6791 114.145 82.597 110.892 73.2125 109.6C64.662 108.423 56.404 106.669 48.9231 102.166C38.5909 95.9478 31.7749 87.2232 29.161 75.4007C28.7838 73.6954 29.4032 72.3092 30.1607 70.9618C33.1518 65.6429 33.1534 59.4632 35.0634 53.938C40.6814 37.6863 56.6544 22.9593 76.1369 27.8156C85.8319 30.2333 95.995 33.0298 102.488 42.3911C103.019 43.1567 103.65 43.8482 104.341 44.4929C105.688 45.5019 107.033 46.5141 108.336 47.5698C110.217 48.8754 112.135 50.1857 113.691 51.8378C114.853 53.0725 115.515 54.7971 117.22 55.5192C115.445 51.8975 112.607 49.1075 109.32 46.996C104.682 44.0174 101.39 39.7381 97.4905 36.0487C97.3394 35.9052 97.3231 35.6232 97.2434 35.404C97.4239 35.4958 97.645 35.549 97.7799 35.686C106.777 44.8056 118.498 51.4252 123.609 64.1117C126.31 70.8167 126.623 77.662 126.063 84.6782ZM129.745 69.7175C127.905 60.0709 123.82 51.8669 117.973 44.5042C117.188 43.5145 116.131 42.7376 115.201 41.8624C117.656 45.4358 120.268 48.914 122.528 52.6051C125.837 58.0126 127.837 63.9456 128.869 70.1962C127.443 64.3986 125.447 58.8282 122.246 53.743C121.949 53.2707 121.458 52.9194 121.057 52.5116C122.547 55.6836 124.038 58.8572 125.53 62.0308C123.35 58.8701 122.181 55.1001 119.122 52.5341C121.421 57.0053 124.288 61.1862 125.714 66.099C126.783 69.7836 127.692 73.4423 127.274 77.1527C126.359 61.1202 117.002 50.297 104.57 41.1275C100.685 38.2617 97.9652 33.6826 93.2185 31.9999C84.4062 28.8778 76.688 22.2614 66.6728 22.9932C55.3003 23.8248 46.6392 29.8739 39.3533 38.1521C39.1631 38.3681 39.1648 38.7517 39.077 39.0579C42.7329 36.1454 45.5858 32.3577 49.6286 29.8449C58.9286 24.0666 68.5585 21.3991 79.102 26.3683C81.2851 27.3966 83.1123 29.1405 85.6108 29.5693C85.8725 29.6144 86.0822 29.9497 86.3179 30.1511C86.0107 30.1463 85.7002 30.1737 85.3995 30.1302C82.1028 29.6595 79.5994 27.3031 76.4685 26.4295C63.6378 22.8497 53.0147 26.9001 44.0643 35.9842C38.8852 41.2419 33.9905 47.0895 33.0623 54.5731C32.8673 56.1397 32.5617 57.6758 32.1975 59.1908C31.9878 60.6544 31.6009 62.0727 31.0499 63.4476C30.1265 66.647 29.1577 69.8029 28.657 73.0297C27.602 79.8412 31.4855 86.1078 35.6893 91.5541C43.206 101.293 53.4113 107.342 65.4032 109.084C75.6281 110.57 85.4775 114.031 95.8796 114.593C94.041 114.593 92.196 114.488 90.3672 114.622C88.4572 114.762 86.7422 114.113 84.9719 113.653C79.3523 112.195 73.6075 111.569 67.8481 110.97C62.5178 110.415 57.607 108.392 52.701 106.4C52.0572 106.139 51.3664 105.996 50.6966 105.796C52.2897 107.453 54.4858 107.964 56.5178 108.757C62.1651 110.963 68.0383 112.175 73.575 112.333C61.8985 114.775 51.6378 110.859 42.6402 102.858C42.1802 102.45 41.53 102.252 40.9692 101.957C44.8169 106.418 49.7635 109.292 55.1101 111.594C59.4796 113.474 63.9207 114.056 68.7292 113.425C73.6953 112.772 78.6452 113.863 83.4634 115.189C91.7912 117.481 99.7436 115.61 107.65 113.151C108.709 112.822 109.728 112.369 111.553 111.674C108.262 114.113 105.142 114.882 102.08 115.473C97.684 116.323 93.1941 117.203 88.7547 117.157C85.4661 117.124 82.2345 115.347 78.9004 114.872C74.7292 114.277 70.5401 114.438 66.3233 115.347C59.3089 116.859 53.4617 113.367 47.7885 110.072C44.3211 108.059 41.2764 105.328 38.0431 102.92C41.8827 107.962 47.2488 110.942 52.8245 113.61C58.1727 116.168 63.5923 117.22 69.62 115.683C75.2152 114.255 80.8674 115.486 86.1619 117.61C89.1984 118.829 92.04 117.148 95.3301 117.672C90.1055 118.719 85.4645 119.62 80.513 117.104C77.0911 115.365 72.798 116.173 69.1486 117.119C63.3127 118.634 58.0345 117.207 52.6619 115.497C49.9814 116.29 47.9315 114.554 45.9369 113.473C30.4923 105.1 18.2777 93.406 13.1035 76.4709C8.63803 61.8519 11.6844 47.9631 21.9938 36.1019C28.6457 28.4475 36.2664 21.9165 45.6329 17.808C59.6275 11.6703 73.3962 12.4826 86.448 20.4933C93.62 24.8935 101.701 27.5997 108.384 32.9492C118.613 41.1371 125.426 51.3817 128.893 63.8747C129.383 65.6267 130.249 67.3707 129.745 69.7175ZM116.677 39.3948C109.942 31.7662 101.306 27.0243 92.3179 22.5983C85.6531 19.3167 79.51 15.1115 71.9446 13.6931C60.8646 11.6155 50.5373 13.4997 40.9968 19.0717C30.5053 25.1981 21.4297 33.0669 15.4785 43.7708C10.2441 53.1869 9.23298 63.3557 11.5218 73.9049C14.812 89.0687 24.8597 99.4551 36.4078 108.741C43.084 114.11 50.9096 117.203 59.278 118.99C62.9616 119.777 66.4859 118.566 70.0573 118.105C74.2773 117.56 78.4436 117.833 82.3743 119.221C87.9581 121.192 93.1567 119.13 98.4968 118.353C98.7503 118.316 99.0023 118.266 100.182 118.063C94.2767 120.558 89.0343 121.906 83.6195 122.675C78.5038 123.4 73.3604 123.335 68.222 123.25C51.776 122.978 37.9147 116.929 26.4446 105.172C17.2845 95.7834 11.5543 84.7717 8.95664 72.0127C6.17365 58.3479 9.65564 45.9886 17.0699 34.6303C26.0789 20.8285 39.3631 13.158 55.3474 9.72485C70.3938 6.49321 84.2307 10.1745 97.2012 17.4695C113.493 26.6326 125.381 39.3964 129.084 58.3237C129.228 59.0603 129.251 59.8211 129.394 60.5576C129.523 61.2136 129.739 61.8519 129.916 62.4983C126.936 53.9686 122.7 46.2175 116.677 39.3948Z" fill="#F1D8C2"/>
<path d="M102.59 48.9221C102.951 49.1783 103.312 49.4346 103.673 49.6925C103.326 49.4072 102.964 49.1542 102.59 48.9221Z" fill="#F1D8C2"/>
<path d="M87.9779 97.2147C87.9583 97.2002 87.9405 97.1841 87.9226 97.1712C87.8234 97.0793 87.7209 97.0051 87.6201 96.9213C87.716 97.0116 87.8152 97.0938 87.9095 97.1873C87.9323 97.1969 87.9551 97.205 87.9779 97.2147Z" fill="black"/>
<path d="M100.418 106.589C99.6151 106.659 98.8202 106.693 98.0269 106.712C98.8153 106.717 99.6102 106.68 100.418 106.589Z" fill="black"/>
<path d="M61.1962 71.7708C56.4837 65.1237 62.999 58.6298 69.5549 59.0392C77.6958 59.5469 85.3507 61.9388 92.9129 64.7321C97.3702 66.3777 101.496 68.6923 105.602 71.0358C105.189 70.5507 104.869 69.9043 104.349 69.6061C92.8072 62.9946 80.6284 58.2607 67.0743 58.5218C63.1437 58.5976 60.2404 61.191 59.1366 65.127C58.2491 68.2909 59.2992 71.0229 61.6205 73.302C61.4856 72.7894 61.4856 72.1802 61.1962 71.7708Z" fill="#F1D8C2"/>
<path d="M78.9427 18.4687C84.1494 20.3529 88.0361 24.434 92.9112 26.9194C99.3485 30.201 105.596 33.8308 111.383 38.1826C111.004 36.89 109.876 36.2742 108.909 35.528C103.321 31.2213 96.5054 28.8487 90.8907 24.6935C80.0968 16.7071 68.6251 12.7485 55.2336 16.7828C49.0288 18.6525 43.6335 21.8664 39.0835 26.4568C40.6847 26.1973 41.6616 24.9417 42.8434 24.0552C53.8762 15.7738 65.8893 13.7446 78.9427 18.4687Z" fill="#F1D8C2"/>
<path d="M18.5703 66.4552C19.3522 61.5488 21.9174 57.0471 21.7044 51.9039C21.5354 47.8438 23.4503 44.4848 25.8448 41.3305C27.0965 39.6816 28.1531 37.8893 29.2975 36.1599C25.7391 39.3818 22.9252 43.2179 21.5597 47.747C20.5535 51.0867 21.0737 54.9083 19.9195 58.1673C16.6879 67.2933 16.21 76.2049 20.5584 85.0375C22.5855 89.1541 24.6971 93.269 28.4408 96.2202C28.0962 95.6238 27.815 94.9775 27.3972 94.4375C20.9875 86.1835 16.8488 77.2461 18.5703 66.4552Z" fill="#F1D8C2"/>
<path d="M43.9733 110.826C39.9467 107.213 35.9201 103.599 31.8936 99.9854C35.2081 104.379 39.1144 108.125 43.9733 110.826Z" fill="#F1D8C2"/>
<path d="M29.3105 36.1439C32.5617 32.9203 35.8128 29.6967 39.064 26.4731C35.0781 28.9681 31.7977 32.1627 29.3105 36.1439Z" fill="#F1D8C2"/>
<path d="M65.1302 29.5322C59.7625 29.7562 54.6354 31.9289 50.804 36.1454C53.2033 34.8398 55.5344 33.3892 58.0134 32.2545C69.1519 27.1564 79.6726 31.4921 90.0552 34.8608C97.3329 37.2221 101.065 44.696 107.611 48.3515C111.154 50.3308 113.098 54.0492 116.243 56.483C115.884 55.8496 115.572 55.1839 115.157 54.5892C113.251 51.8491 110.874 49.6216 108.336 47.5682C106.925 46.5882 105.539 45.6099 104.341 44.4913C102.097 42.8102 99.8493 41.1307 97.7929 39.24C88.7937 30.9683 77.031 29.0358 65.1302 29.5322Z" fill="#F1D8C2"/>
<path d="M104.341 44.4929C105.539 45.6115 106.927 46.5899 108.336 47.5698C107.033 46.5141 105.688 45.5019 104.341 44.4929Z" fill="#F1D8C2"/>
<path d="M33.0477 66.1376C31.718 72.1722 30.5476 77.8634 33.2281 83.6643C34.3498 86.0916 35.0618 88.8285 37.5489 90.4161C37.3473 89.9213 37.2157 89.3829 36.9328 88.9381C33.0266 82.7859 30.767 76.4128 33.1826 69.0147C35.5527 61.76 36.5183 54.0814 41.0683 47.5295C43.9488 43.3807 47.6811 40.0556 50.7876 36.1599C50.113 36.5596 49.3457 36.8594 48.7784 37.3768C40.2344 45.1859 35.5218 54.9131 33.0477 66.1376Z" fill="#F1D8C2"/>
<path d="M36.5037 36.9707C31.5522 42.7393 26.8169 48.6659 28.6343 57.1036C28.9805 58.7138 28.3807 60.1708 27.4752 61.6456C24.9231 65.8008 21.7255 69.9722 22.5757 75.146C23.9266 83.3678 27.641 90.4919 34.2019 95.9511C32.6511 93.9041 30.9848 91.9345 29.5722 89.7989C24.4078 81.9913 20.4153 74.0178 26.3991 64.7725C27.8897 62.4693 29.9266 60.3159 29.3544 57.1826C27.919 49.3235 31.796 43.4178 36.6955 37.9571C39.3403 35.0091 42.177 32.232 44.9274 29.3775C41.33 31.0441 38.9632 34.1065 36.5037 36.9707Z" fill="#F1D8C2"/>
<path d="M25.5424 60.0322C26.5487 58.9007 26.604 57.4291 26.1553 56.0414C24.7736 51.7701 25.4563 47.7777 27.6801 43.9771C28.8375 41.9994 30.0583 40.0572 31.2499 38.0989C26.9616 42.3685 23.8193 47.3248 24.9199 53.5173C25.5685 57.1713 24.8305 59.7533 22.7026 62.6675C17.8648 69.2952 19.1442 76.4161 22.0393 83.3871C24.0973 88.3418 26.934 92.8226 31.258 96.2122C29.4503 93.8154 27.3664 91.575 25.8838 88.9945C20.1439 79.0046 17.0488 69.5772 25.5424 60.0322Z" fill="#F1D8C2"/>
<path d="M59.9576 17.7372C55.8302 18.4238 51.9304 19.7213 48.8272 22.7112C49.3864 22.5129 49.9879 22.3888 50.4983 22.1052C61.7083 15.8788 72.6078 17.2069 83.3269 23.3785C85.8319 24.821 87.9581 26.9647 90.9817 27.445C90.2437 26.9244 89.5041 26.4054 88.7677 25.8816C80.144 19.7552 70.8473 15.9239 59.9576 17.7372Z" fill="#F1D8C2"/>
<path d="M81.0331 24.3292C73.0971 19.9484 64.9025 17.7225 56.1927 22.0356C52.1694 24.0278 47.964 25.8266 44.942 29.3661C46.9952 28.104 49.0531 26.8485 51.1014 25.5767C57.8264 21.4054 64.857 19.1489 72.8614 21.6182C76.0784 22.611 79.0662 24.0181 82.0508 25.4913C81.7159 25.0964 81.459 24.5629 81.0331 24.3292Z" fill="#F1D8C2"/>
<path d="M101.933 35.2572C100.62 33.8082 98.8934 32.5156 96.7184 32.2819C98.2106 33.3827 99.8037 34.374 101.176 35.607C104.791 38.858 108.236 42.3008 112.358 44.9522C109.5 41.0774 105.139 38.7951 101.933 35.2572Z" fill="#F1D8C2"/>
<path d="M31.2644 38.0811C35.2032 34.2048 39.142 30.3284 43.0808 26.452C38.1244 29.3097 34.158 33.1587 31.2644 38.0811Z" fill="#F1D8C2"/>
<path d="M96.7054 32.2739C92.2204 29.176 86.8642 27.9317 82.0638 25.5027C86.2887 29.1551 91.7068 30.2688 96.7054 32.2739Z" fill="#F1D8C2"/>
<path d="M32.2073 54.0653C31.8675 51.559 32.6251 49.4475 33.9499 47.3893C35.712 44.6492 37.3685 41.8415 39.0689 39.0627C35.3512 43.0004 31.6969 47.2313 31.3912 52.7549C31.1181 57.6709 31.3994 62.4725 28.3628 66.7647C25.7667 70.4315 24.6223 74.2966 26.2918 78.8789C29.1642 86.7622 33.0786 93.8267 40.0653 98.8684C39.7483 98.4413 39.4882 97.9561 39.1062 97.5951C34.0539 92.8048 30.3346 87.1507 27.7646 80.7131C26.0268 76.3581 25.5457 72.1513 28.4912 68.0493C29.5511 66.5745 30.4061 65.0384 31.0466 63.4428C31.453 62.0357 31.8497 60.6189 32.1943 59.186C32.4316 57.5355 32.4462 55.8286 32.2073 54.0653Z" fill="#F1D8C2"/>
<path d="M32.1959 59.1859C31.8513 60.6204 31.4546 62.0356 31.0482 63.4427C31.5993 62.0694 31.9862 60.6494 32.1959 59.1859Z" fill="black"/>
<path d="M82.1548 83.5403C83.665 84.9377 84.7249 86.9105 86.9324 87.4843C83.7966 84.1028 80.6999 80.6874 77.5105 77.3558C75.8541 75.6264 76.093 74.5223 78.2502 73.5052C85.0955 70.2768 91.4661 72.3834 97.7246 75.1992C101.982 77.1141 106.049 79.3561 108.756 83.3952C110.284 85.6759 111.015 87.9921 109.804 90.6451C108.489 93.5237 105.818 93.2916 103.308 93.5012C106.379 92.7114 108.536 91.0383 108.72 87.7052C108.956 83.4275 106.371 80.7277 102.93 78.9257C96.8631 75.7505 90.4404 74.864 83.7544 76.9126C82.1142 77.4155 81.5842 78.3197 82.7189 79.7364C84.2274 81.6206 85.7522 83.5097 87.9646 84.6653C86.5732 83.1196 85.1686 81.5852 83.7934 80.0233C82.7368 78.8242 82.5872 77.9393 84.5428 77.5073C91.4222 75.989 97.9863 76.5225 103.955 80.5085C107.572 82.923 109.159 87.1974 107.304 89.9085C104.928 93.3835 101.551 93.174 98.053 91.646C97.6173 91.4558 97.1183 91.4058 96.6485 91.2914C97.0662 91.725 97.484 92.1585 98.0107 92.7017C93.7029 92.086 90.6257 89.1493 86.9487 87.4956C89.7772 92.1747 103.154 96.1397 107.938 93.5544C111.066 91.8636 112.095 89.0333 110.793 85.7355C108.458 79.8283 103.357 76.8239 97.8855 74.4288C92.1082 71.8999 86.2464 69.7788 79.723 71.9676C74.8804 73.5923 74.3439 75.1493 77.7739 78.7952C79.2483 80.365 80.5796 82.0816 82.1548 83.5403Z" fill="#F1D8C2"/>
<path d="M89.7235 79.2174C87.8557 79.9766 87.4298 81.0258 88.5824 82.6699C89.7837 84.3816 90.9947 86.0869 92.2009 87.7954C92.8398 88.3224 93.4802 88.8495 94.1191 89.3765C95.5431 89.8536 96.9671 90.3356 98.3944 90.8062C102.47 92.1472 106.771 90.9319 107.424 88.2628C108.047 85.7178 104.654 81.3192 101.605 80.7148C103.096 82.3072 104.739 83.7868 106.039 85.5195C107.592 87.5858 106.366 89.9906 103.757 90.3678C98.0952 91.1866 91.1931 87.1829 89.0408 81.8462C88.4377 80.3505 89.5658 80.0813 90.5379 79.7815C94.3402 78.6114 97.9912 79.3754 101.59 80.7035C99.62 78.3132 93.6574 77.6201 89.7235 79.2174Z" fill="#F1D8C2"/>
<path d="M95.4066 82.0058C97.7425 81.2644 99.6119 82.5796 101.719 82.6602C100.612 81.3579 99.1048 81.0113 97.5068 81.0678C95.5789 81.1371 93.0609 81.0629 92.5472 83.1212C92.1652 84.6508 93.8964 86.1143 95.7496 86.6059C95.4358 86.1933 95.1774 85.721 94.7986 85.3809C93.1681 83.9142 92.5634 82.9084 95.4066 82.0058Z" fill="#F1D8C2"/>
</svg>
