<svg width="90" height="110" viewBox="0 0 90 110" fill="none" xmlns="http://www.w3.org/2000/svg">
<g opacity="0.2">
<path d="M6.05662 85.9437C5.0011 86.5036 4.16143 87.3315 4.06315 88.3672C3.99636 89.0711 3.87222 89.6913 4.4237 90.1432C5.07709 90.6787 5.84735 90.2606 6.57025 89.8244C8.06675 88.9213 8.21893 88.3193 9.64519 87.1551C10.2187 86.6869 10.6439 86.4573 11.0926 86.7699C11.4234 87.0003 11.159 87.9262 10.5465 88.8082C9.52515 90.2789 5.10707 93.6176 4.3146 95.0099C3.46805 96.4972 3.49098 98.608 4.28745 99.0135C5.12861 99.4416 6.24425 98.1445 7.2806 97.2073C9.63669 95.0766 9.91303 93.6251 12.0486 91.5634C12.6219 91.01 13.4264 89.7899 14.1187 90.1922C14.6201 90.4836 14.0905 91.7892 13.873 92.7816C13.6113 93.976 9.00396 97.3708 8.79913 99.7899C8.67579 101.247 8.4356 103.125 9.85338 103.548C10.7109 103.803 11.6136 102.813 12.497 101.708C14.698 98.9562 15.5499 95.5534 15.6646 94.345C15.7822 93.1056 17.0846 92.3896 17.609 92.4394C18.2007 92.4955 18.0573 93.8713 18.0788 94.9225C18.11 96.4518 16.0471 99.6067 15.501 101.645C15.1292 103.033 14.2881 104.905 15.6814 105.32C16.5389 105.575 18.3303 104.102 19.4556 102.717C21.3497 100.386 20.5695 96.5522 20.8754 95.1878C21.1015 94.179 21.2467 93.1329 22.137 93.0432C23.0273 92.9535 22.3338 96.5455 22.3284 98.4609C22.3284 98.4609 22.3066 100.549 23.5301 100.665C24.7536 100.781 25.4254 99.2773 25.4745 98.7594L25.9004 94.2712C26.1818 91.3049 25.9849 89.587 26.6211 86.6757C27.4314 82.9673 28.7336 81.1365 30.1273 77.6026C31.6303 73.7916 33.7428 69.2367 34.0486 67.8723C34.3544 66.5079 34.4909 63.2114 34.3816 62.5043C34.2723 61.7973 33.6786 61.4774 32.9232 61.1467C32.1678 60.816 31.5037 60.7936 30.8258 60.9477C30.1478 61.1017 29.0452 61.1271 26.2706 64.3474C23.4961 67.5678 22.6351 69.9792 19.9515 73.3277L19.9031 73.3881C17.6205 76.2362 16.3127 77.8681 13.6377 80.3925C12.0618 81.8797 11.2243 82.7964 9.41572 83.9981C8.10749 84.8673 6.61367 85.6482 6.05662 85.9437Z" fill="#E88A60"/>
<path d="M2.91228 89.3032L1.85669 93.035L4.84683 91.26L3.40231 90.9651L2.91228 89.3032Z" fill="#E88A60"/>
<path d="M2.94238 98.8458L2.94824 102.196L4.99587 100.034L3.73623 100.118L2.94238 98.8458Z" fill="#E88A60"/>
<path d="M7.82495 103.141L7.83081 106.491L9.87844 104.329L8.6188 104.414L7.82495 103.141Z" fill="#E88A60"/>
<path d="M14.0043 105.108L13.5476 108.427L15.8752 106.562L14.6153 106.476L14.0043 105.108Z" fill="#E88A60"/>
<path d="M22.2801 101.1L22.5129 103.355L23.741 101.764L22.9004 101.904L22.2801 101.1Z" fill="#E88A60"/>
<path d="M34.1272 28.239C33.1146 28.8732 32.3365 29.7592 32.3128 30.7993C32.2967 31.5061 32.2173 32.1336 32.7998 32.5449C33.4899 33.0321 34.2282 32.5598 34.918 32.0728C36.3458 31.0647 36.4544 30.4533 37.7935 29.1898C38.3319 28.6817 38.7395 28.4222 39.2095 28.7017C39.556 28.9078 39.3587 29.8503 38.811 30.774C37.8979 32.3142 33.7307 35.9613 33.0401 37.4068C32.3025 38.951 32.4768 41.0548 33.3003 41.402C34.17 41.7687 35.1897 40.3949 36.1561 39.3858C38.3533 37.0915 38.5248 35.624 40.507 33.4144C41.039 32.8213 41.754 31.5465 42.4734 31.8982C42.9944 32.1529 42.5598 33.4931 42.4141 34.4985C42.2387 35.7086 37.8868 39.4252 37.856 41.8528C37.8375 43.3145 37.7327 45.2056 39.1772 45.5252C40.0508 45.7186 40.8802 44.6661 41.682 43.501C43.6799 40.598 44.2854 37.1429 44.3132 35.9294C44.3416 34.6848 45.5892 33.8771 46.1158 33.8891C46.71 33.9027 46.6658 35.2852 46.7626 36.3321C46.9034 37.8553 45.0722 41.1501 44.6738 43.2223C44.4025 44.6335 43.6979 46.5607 45.1173 46.8748C45.991 47.0682 47.6719 45.4696 48.695 44.0078C50.417 41.5473 49.3638 37.779 49.571 36.3962C49.7242 35.3737 49.7939 34.3199 50.6755 34.1665C51.5571 34.0132 51.1231 37.6457 51.2551 39.5566C51.2551 39.5566 51.3832 41.6409 52.6119 41.6689C53.8405 41.6969 54.4027 40.1487 54.4145 39.6286L54.5173 35.1214C54.5852 32.1426 54.2655 30.4433 54.6912 27.4937C55.2334 23.7368 56.4009 21.8173 57.5375 18.1926C58.7633 14.2835 60.5435 9.58883 60.7507 8.20599C60.9578 6.82315 60.8574 3.52539 60.6977 2.82797C60.538 2.13054 59.9228 1.8541 59.1456 1.57846C58.3685 1.30281 57.7045 1.32814 57.0394 1.53043C56.3742 1.73272 55.2762 1.83712 52.7398 5.2482C50.2034 8.65929 49.5177 11.1262 47.0812 14.6587L47.0373 14.7224C44.965 17.7269 43.7776 19.4484 41.2905 22.1583C39.8254 23.7547 39.0559 24.7291 37.3381 26.0574C36.0956 27.0182 34.6617 27.9043 34.1272 28.239Z" fill="#E88A60"/>
<path d="M31.2322 31.8152L30.447 35.6131L33.3021 33.6282L31.8402 33.4376L31.2322 31.8152Z" fill="#E88A60"/>
<path d="M31.9469 41.3313L32.1931 44.6722L34.0804 42.3693L32.83 42.5436L31.9469 41.3313Z" fill="#E88A60"/>
<path d="M37.1249 45.2654L37.3711 48.6063L39.2584 46.3034L38.008 46.4778L37.1249 45.2654Z" fill="#E88A60"/>
<path d="M43.4294 46.7843L43.2119 50.1269L45.3997 48.0999L44.1369 48.1042L43.4294 46.7843Z" fill="#E88A60"/>
<path d="M51.3957 42.1923L51.7898 44.4254L52.9006 42.7503L52.0722 42.9502L51.3957 42.1923Z" fill="#E88A60"/>
<path d="M57.4675 75.2556C56.7136 76.1826 56.2628 77.2722 56.5759 78.2644C56.7887 78.9386 56.916 79.5581 57.6 79.7595C58.4104 79.9981 58.9569 79.3129 59.4527 78.6294C60.479 77.2146 60.3845 76.6009 61.2444 74.9729C61.5902 74.3183 61.8923 73.9412 62.4273 74.0542C62.8218 74.1375 62.9391 75.0932 62.7186 76.1442C62.3511 77.8966 59.5832 82.693 59.3959 84.284C59.1958 85.9836 60.0394 87.9187 60.9309 87.9817C61.8724 88.0483 62.3945 86.419 62.9837 85.152C64.3233 82.2716 64.0122 80.8272 65.1757 78.0963C65.4879 77.3633 65.7534 75.926 66.5478 76.0269C67.1231 76.0999 67.1441 77.5086 67.3305 78.5073C67.5549 79.7093 64.6346 84.6311 65.3885 86.9387C65.8425 88.3283 66.3534 90.1521 67.8237 89.9887C68.7131 89.8899 69.1585 88.6261 69.5416 87.2647C70.4963 83.8724 69.9549 80.4066 69.5897 79.249C69.2151 78.0618 70.1355 76.8949 70.6378 76.7364C71.2046 76.5575 71.6087 77.8803 72.0381 78.8401C72.6627 80.2364 71.9922 83.9458 72.2836 86.0358C72.482 87.459 72.4368 89.5105 73.8816 89.3499C74.771 89.2511 75.8464 87.1958 76.3432 85.4821C77.1795 82.5977 74.967 79.3705 74.717 77.9948C74.5322 76.9776 74.2582 75.9576 75.0432 75.528C75.8282 75.0985 76.5892 78.6768 77.3306 80.443C77.3306 80.443 78.1242 82.3745 79.2962 82.0047C80.4682 81.6348 80.5009 79.9881 80.3443 79.492L78.9876 75.1925C78.091 72.3511 77.2402 70.8457 76.6917 67.9166C75.993 64.1856 76.4788 61.9921 76.3854 58.1945C76.2846 54.099 76.4552 49.081 76.2052 47.7052C75.9552 46.3295 74.7964 43.2404 74.4202 42.6318C74.044 42.0232 73.3726 41.96 72.5481 41.9498C71.7235 41.9396 71.1032 42.1777 70.5389 42.5838C69.9746 42.9898 68.9689 43.4428 67.6685 47.4897C66.3681 51.5367 66.5148 54.093 65.3481 58.2225L65.3271 58.297C64.3348 61.8094 63.7662 63.8219 62.2863 67.1892C61.4144 69.1729 61.0004 70.3435 59.8029 72.1549C58.9368 73.4651 57.8653 74.7664 57.4675 75.2556Z" fill="#E88A60"/>
<path d="M55.8813 79.5748L56.3633 83.4229L58.4254 80.6231L56.9802 80.9144L55.8813 79.5748Z" fill="#E88A60"/>
<path d="M59.6267 88.3515L60.9375 91.4344L61.981 88.6458L60.8537 89.2142L59.6267 88.3515Z" fill="#E88A60"/>
<path d="M65.7976 90.4045L67.1084 93.4874L68.1519 90.6988L67.0246 91.2672L65.7976 90.4045Z" fill="#E88A60"/>
<path d="M72.2545 89.8088L73.127 93.0428L74.5439 90.4185L73.35 90.8299L72.2545 89.8088Z" fill="#E88A60"/>
<path d="M78.3139 82.8923L79.4072 84.8788L79.9183 82.935L79.1987 83.3915L78.3139 82.8923Z" fill="#E88A60"/>
</g>
</svg>
