<svg width="108" height="144" viewBox="0 0 108 144" fill="none" xmlns="http://www.w3.org/2000/svg">
<g opacity="0.2">
<path d="M47.4368 114.316C47.4269 115.441 47.7356 116.507 48.5488 117.052C49.1013 117.423 49.559 117.804 50.1803 117.55C50.9165 117.25 50.9158 116.425 50.8789 115.631C50.8024 113.987 50.3724 113.591 50.0484 111.889C49.9181 111.204 49.9187 110.75 50.3786 110.518C50.7176 110.348 51.3653 110.982 51.8207 111.884C52.58 113.389 53.3623 118.543 54.1593 119.823C55.0106 121.19 56.768 122.118 57.4606 121.64C58.1921 121.136 57.6188 119.631 57.3078 118.353C56.6008 115.448 55.5234 114.568 54.7746 111.876C54.5736 111.154 53.9245 109.941 54.5679 109.548C55.0339 109.264 55.877 110.288 56.6008 110.913C57.472 111.665 58.2159 117 60.1262 118.254C61.2764 119.01 62.7236 120.051 63.709 119.067C64.305 118.472 63.8901 117.28 63.372 116.054C62.081 112.998 59.6467 110.768 58.6981 110.131C57.725 109.478 57.7164 108.079 57.9927 107.667C58.3044 107.203 59.3788 107.938 60.2584 108.392C61.5382 109.052 63.2244 112.174 64.6666 113.539C65.6486 114.47 66.8206 116.005 67.7889 115.038C68.3849 114.443 67.9683 112.299 67.3268 110.747C66.2472 108.135 62.7241 107.061 61.732 106.196C60.9985 105.557 60.1977 104.967 60.5226 104.19C60.8476 103.413 63.5095 105.598 65.0924 106.461C65.0924 106.461 66.8109 107.415 67.4555 106.455C68.1002 105.494 67.1567 104.264 66.7502 103.991L63.2264 101.626C60.8976 100.063 59.3875 99.456 57.2632 97.6241C54.5573 95.2907 53.626 93.3921 51.3261 90.6541C48.8458 87.7013 46.0232 83.9106 45.0311 83.0458C44.0389 82.1809 41.3718 80.5899 40.7376 80.3633C40.1034 80.1367 39.5725 80.4847 38.9601 80.9616C38.3477 81.4385 38.0314 81.9781 37.8549 82.6083C37.6784 83.2385 37.205 84.1624 38.6263 87.9027C40.0475 91.643 41.6572 93.4368 43.2254 97.1593L43.2536 97.2264C44.5875 100.393 45.3517 102.207 46.2416 105.553C46.7658 107.524 47.1491 108.628 47.3326 110.663C47.4654 112.136 47.4419 113.722 47.4368 114.316Z" fill="#E88A60"/>
<path d="M48.8076 118.425L51.4229 120.972L51.2945 117.701L50.4027 118.764L48.8076 118.425Z" fill="#E88A60"/>
<path d="M56.7189 122.679L59.4941 124.176L58.6232 121.512L58.1281 122.592L56.7189 122.679Z" fill="#E88A60"/>
<path d="M62.4631 120.563L65.2383 122.06L64.3674 119.396L63.8723 120.477L62.4631 120.563Z" fill="#E88A60"/>
<path d="M66.8616 116.331L69.4033 118.197L68.9035 115.434L68.2672 116.439L66.8616 116.331Z" fill="#E88A60"/>
<path d="M67.2543 107.685L69.2256 108.503L68.4594 106.773L68.1984 107.532L67.2543 107.685Z" fill="#E88A60"/>
<path d="M66.628 73.3041C66.0647 74.2776 65.8074 75.3572 66.2455 76.2331C66.5433 76.8282 66.7535 77.3852 67.4192 77.471C68.2079 77.5726 68.6142 76.8546 68.9737 76.1458C69.7179 74.6784 69.5391 74.122 70.097 72.4812C70.3213 71.8215 70.5462 71.4261 71.0603 71.4518C71.4393 71.4707 71.69 72.3417 71.641 73.3513C71.5592 75.0348 69.6977 79.9037 69.7595 81.4104C69.8255 83.0199 70.8967 84.6935 71.7347 84.6199C72.6198 84.5421 72.8634 82.9502 73.2232 81.6851C74.0413 78.8091 73.5379 77.5125 74.2144 74.8015C74.396 74.0739 74.4296 72.6985 75.183 72.6744C75.7285 72.657 75.957 73.9633 76.2784 74.864C76.6652 75.948 74.6805 80.9561 75.7236 82.9894C76.3516 84.2137 77.097 85.8332 78.4395 85.4633C79.2515 85.2396 79.4782 83.9988 79.6324 82.6764C80.0167 79.3816 78.9995 76.2403 78.4883 75.2185C77.9641 74.1704 78.6465 72.9492 79.09 72.7274C79.5903 72.4771 80.1621 73.6468 80.7036 74.4753C81.4913 75.6805 81.4181 79.228 81.9989 81.1275C82.3944 82.421 82.6565 84.3347 83.9758 83.9711C84.7878 83.7474 85.4827 81.6774 85.6904 80.0108C86.0399 77.2056 83.5047 74.5339 83.0684 73.2922C82.7457 72.3741 82.3398 71.4666 83.0058 70.9509C83.6717 70.4352 84.9098 73.6485 85.8609 75.1803C85.8609 75.1803 86.885 76.858 87.9196 76.3405C88.9542 75.8229 88.7403 74.2873 88.5212 73.8494L86.6225 70.0541C85.3677 67.5458 84.3536 66.2727 83.4093 63.6313C82.2066 60.2668 82.3329 58.1558 81.6829 54.6396C80.9818 50.8477 80.3963 46.1579 79.9599 44.9162C79.5235 43.6745 77.9881 40.9749 77.5482 40.465C77.1083 39.955 76.4748 39.9958 75.7069 40.1086C74.9389 40.2214 74.3976 40.5348 73.9333 40.9959C73.4689 41.457 72.6013 42.0272 71.9927 45.9819C71.3841 49.9365 71.8995 52.2909 71.4274 56.3025L71.4189 56.3749C71.0174 59.787 70.7874 61.742 69.9111 65.0914C69.3948 67.0647 69.1836 68.2141 68.3391 70.0755C67.7283 71.4219 66.9253 72.7904 66.628 73.3041Z" fill="#E88A60"/>
<path d="M65.7928 77.5539L66.8115 81.0594L68.3132 78.1511L67.0129 78.6362L65.7928 77.5539Z" fill="#E88A60"/>
<path d="M70.5764 85.1567L72.252 87.828L72.8084 85.0811L71.8448 85.7766L70.5764 85.1567Z" fill="#E88A60"/>
<path d="M76.6164 86.1505L78.292 88.8218L78.8484 86.0749L77.8849 86.7704L76.6164 86.1505Z" fill="#E88A60"/>
<path d="M82.5305 84.6389L83.821 87.5157L84.749 84.8661L83.7002 85.4256L82.5305 84.6389Z" fill="#E88A60"/>
<path d="M87.1376 77.3111L88.4485 78.9956L88.6353 77.113L88.0341 77.644L87.1376 77.3111Z" fill="#E88A60"/>
<path d="M1.13644 85.7966C0.0361003 86.0294 -0.938448 86.5606 -1.2961 87.4723C-1.53913 88.0918 -1.81236 88.6208 -1.43063 89.1729C-0.978359 89.8269 -0.17292 89.6484 0.594367 89.4412C2.18275 89.0124 2.47663 88.5071 4.06921 87.8237C4.70958 87.549 5.15389 87.4515 5.47881 87.8507C5.71835 88.145 5.23892 88.9142 4.45583 89.5534C3.15013 90.6192 -1.71371 92.4939 -2.79197 93.5481C-3.94382 94.6742 -4.47073 96.5901 -3.85525 97.1636C-3.20522 97.7692 -1.85923 96.885 -0.678355 96.3059C2.00633 94.9892 2.63294 93.7475 5.1002 92.4361C5.76245 92.0841 6.807 91.1888 7.32903 91.7325C7.70709 92.1263 6.88918 93.1702 6.43493 94.0117C5.8882 95.0246 0.838582 96.9009 0.0256225 99.0367C-0.463886 100.323 -1.16863 101.96 0.00460975 102.71C0.714241 103.164 1.78796 102.502 2.87381 101.732C5.57941 99.8127 7.23306 96.9548 7.65035 95.8912C8.07836 94.8002 9.44252 94.4902 9.90411 94.6713C10.4249 94.8756 9.93833 96.0833 9.685 97.04C9.31645 98.4319 6.63137 100.751 5.60843 102.454C4.91185 103.614 3.66524 105.089 4.81818 105.826C5.52782 106.28 7.53105 105.411 8.9085 104.45C11.227 102.833 11.5159 99.1608 12.1466 98.0057C12.613 97.1515 13.0157 96.2426 13.8446 96.3924C14.6734 96.5422 13.114 99.6125 12.6122 101.344C12.6122 101.344 12.0507 103.228 13.1277 103.65C14.2046 104.073 15.2026 102.886 15.3814 102.431L16.9312 98.4799C17.9554 95.869 18.2229 94.2635 19.5539 91.7942C21.2493 88.6491 22.9025 87.3303 25.0804 84.4944C27.4292 81.436 30.5223 77.8626 31.1531 76.7074C31.7838 75.5522 32.7625 72.6048 32.847 71.9367C32.9316 71.2685 32.4774 70.8251 31.8797 70.3299C31.2819 69.8347 30.6869 69.6421 30.0335 69.6056C29.3801 69.5691 28.3758 69.306 25.0298 71.5C21.6838 73.694 20.2791 75.6526 16.9821 77.9862L16.9227 78.0283C14.1184 80.0132 12.5117 81.1505 9.43625 82.7406C7.62445 83.6774 6.62891 84.2896 4.68064 84.9077C3.27141 85.3547 1.71715 85.6737 1.13644 85.7966Z" fill="#E88A60"/>
<path d="M3.35547 105.199L2.0813 108.083L4.67119 107L3.55359 106.595L3.35547 105.199Z" fill="#E88A60"/>
<path d="M11.8833 103.719L11.5088 105.821L13.0328 104.7L12.2359 104.608L11.8833 103.719Z" fill="#E88A60"/>
<path d="M43.2399 28.957C42.1165 28.9042 41.0393 29.1719 40.4629 29.9636C40.0712 30.5016 39.6731 30.9444 39.903 31.575C40.1753 32.3221 40.9997 32.3529 41.7944 32.3463C43.4396 32.3328 43.8517 31.9182 45.5652 31.6594C46.2543 31.5554 46.7088 31.5733 46.9223 32.0417C47.0797 32.387 46.4214 33.0101 45.5022 33.4306C43.9696 34.1319 38.7899 34.7167 37.4802 35.4641C36.0812 36.2626 35.0872 37.9832 35.5378 38.6936C36.0137 39.4439 37.5394 38.9285 38.8283 38.6666C41.7586 38.071 42.6787 37.028 45.3972 36.3826C46.1269 36.2094 47.3638 35.6071 47.7315 36.2651C47.9978 36.7416 46.9427 37.545 46.2905 38.2444C45.5056 39.0862 40.1457 39.6257 38.8194 41.4866C38.0208 42.6072 36.9251 44.0135 37.8707 45.0358C38.4427 45.6541 39.6488 45.285 40.8941 44.8142C43.9969 43.6409 46.319 41.2936 46.9915 40.37C47.6813 39.4226 49.0796 39.4674 49.4804 39.7592C49.9327 40.0885 49.1567 41.134 48.6699 41.9957C47.9615 43.2493 44.7775 44.8149 43.3575 46.2039C42.3905 47.1497 40.8115 48.2621 41.7408 49.2667C42.3127 49.885 44.4705 49.5505 46.0461 48.9689C48.698 47.9899 49.9054 44.5103 50.8075 43.552C51.4746 42.8435 52.094 42.0658 52.858 42.4202C53.6221 42.7746 51.3375 45.3511 50.4143 46.8999C50.4143 46.8999 49.3951 48.5806 50.3303 49.2615C51.2656 49.9424 52.531 49.0466 52.8192 48.6508L55.317 45.22C56.9678 42.9526 57.6323 41.4668 59.5441 39.414C61.9792 36.7993 63.912 35.9412 66.7359 33.7476C69.7812 31.382 73.677 28.7062 74.5792 27.7479C75.4813 26.7895 77.173 24.1851 77.4237 23.5601C77.6744 22.935 77.3469 22.3911 76.8938 21.7609C76.4406 21.1308 75.9135 20.7941 75.2905 20.5937C74.6676 20.3933 73.7623 19.8849 69.9705 21.1622C66.1787 22.4395 64.3246 23.9795 60.545 25.4042L60.4768 25.4299C57.262 26.6418 55.42 27.3361 52.0426 28.0975C50.0529 28.5461 48.9349 28.8868 46.8937 28.9925C45.4173 29.0689 43.8328 28.9848 43.2399 28.957Z" fill="#E88A60"/>
<path d="M39.0822 30.17L36.4373 32.686L39.7104 32.6827L38.6819 31.751L39.0822 30.17Z" fill="#E88A60"/>
<path d="M34.5289 37.9128L32.9268 40.6288L35.622 39.8603L34.5614 39.3243L34.5289 37.9128Z" fill="#E88A60"/>
<path d="M36.4234 43.7341L34.8213 46.4501L37.5165 45.6816L36.456 45.1456L36.4234 43.7341Z" fill="#E88A60"/>
<path d="M40.4841 48.2911L38.5225 50.7596L41.3021 50.3658L40.3231 49.6915L40.4841 48.2911Z" fill="#E88A60"/>
<path d="M49.1089 49.0139L48.2156 50.9524L49.9734 50.2529L49.2255 49.963L49.1089 49.0139Z" fill="#E88A60"/>
</g>
</svg>
