<svg width="320" height="1112" viewBox="0 0 320 1112" fill="none" xmlns="http://www.w3.org/2000/svg">
<g clip-path="url(#clip0_704_3494)">
<path d="M-526.957 92.7862C-524.992 98.5644 -521.452 103.312 -517.797 107.963C-512.246 115.012 -505.462 119.471 -496.28 118.464C-496.029 118.44 -495.755 118.776 -495.389 119.016C-496.783 121.917 -498.176 124.842 -499.615 127.743C-500.232 128.966 -500.483 130.188 -500.414 131.555C-499.775 145.461 -493.219 156.562 -485.11 166.824C-481.501 171.379 -481.341 171.211 -482.758 177.397C-483.009 178.5 -483.146 179.723 -483.032 180.849C-482.735 183.918 -484.082 185.045 -486.846 185.884C-496.485 188.737 -503.338 198.592 -503.407 209.093C-504.663 210.34 -504.709 211.61 -504.275 213.481C-503.064 218.731 -500.277 223.287 -498.724 228.37C-497.262 232.541 -494.681 235.898 -491.871 239.111C-487.509 243.043 -484.768 249.516 -477.687 249.3C-474.26 251.099 -470.491 251.842 -466.814 252.345C-449.157 254.767 -431.523 257.74 -413.684 258.195C-407.608 258.339 -402.788 259.154 -402.194 267.234C-402.011 269.968 -399.796 272.557 -398.425 275.17C-395.045 281.62 -389.951 286.679 -385.725 292.457C-381.454 298.307 -375.835 299.554 -369.439 299.314C-368.845 299.314 -368.205 298.882 -367.657 298.978C-354.706 301.352 -341.549 300.513 -328.529 301.999C-322.613 302.671 -316.537 302.407 -310.689 302.958C-300.593 303.893 -290.543 304.133 -280.447 304.349C-275.033 304.469 -269.688 304.253 -264.298 303.893C-255.412 303.294 -246.572 303.246 -237.664 304.685C-232.433 305.524 -226.951 304.589 -221.583 304.373C-171.491 302.359 -121.536 306.579 -71.4893 307.442C-66.0072 307.538 -60.3195 306.747 -55.1116 307.634C-45.1296 309.336 -35.1249 309.048 -25.2344 308.88C-12.6028 308.689 -0.131163 309.911 12.3862 310.751C33.4921 312.165 54.598 313.867 75.7725 313.867C83.9271 313.867 92.3329 312.597 100.168 314.299C109.601 316.337 118.944 315.833 128.309 316.169C143.133 316.697 157.981 316.169 172.828 316.433C195.236 316.792 217.666 317.56 240.074 317.919C257.594 318.207 275.137 317.919 292.679 318.279C332.013 319.022 371.347 319.981 410.68 320.868C419.452 321.06 428.2 321.132 436.971 321.348C443.436 321.492 449.923 320.605 456.433 321.036C470.595 321.995 484.78 323.386 498.964 323.434C518.037 323.41 537.042 324.585 556.092 324.561C588.939 324.513 621.762 324.297 654.609 323.793C660.731 323.698 666.967 322.834 672.928 323.146C681.585 323.602 690.22 323.506 698.808 322.954C705.935 322.475 713.404 322.858 719.937 318.591C722.404 316.984 725.213 316.769 728.137 316.721C739.17 316.529 750.202 316.265 761.212 315.618C766.946 315.282 772.633 314.731 777.361 309.983C779.646 307.682 783.026 305.428 786.612 305.62C796.572 306.171 805.731 302.095 815.279 300.369C821.606 299.218 827.477 296.197 831.611 290.731C833.941 287.662 836.545 286.751 840.177 286.823C845.042 286.943 849.93 285.792 854.75 286.032C862.402 286.391 869.963 284.713 877.637 285.384C881.817 285.744 886.18 284.473 889.675 282.387C891.845 281.092 890.429 276.825 890.863 273.9C891.046 272.749 891.046 271.598 891.137 270.423C891.845 259.227 886.295 254.072 875.673 255.678C873.115 256.062 870.1 256.158 867.884 254.647C866.171 253.472 867.45 250.907 867.473 249.013C867.61 240.07 861.968 233.836 858.108 226.787C857.765 226.164 856.92 225.636 856.235 225.493C847.783 223.742 839.354 221.537 830.812 220.506C821.903 219.451 812.858 219.906 803.904 220.506C800.615 220.745 797.714 219.834 794.721 218.923C793.397 218.516 792.095 217.7 792.209 216.382C792.346 214.655 794.059 214.512 795.452 214.368C804.383 213.505 813.337 212.785 822.246 211.778C838.052 209.98 853.882 208.086 869.346 204.178C874.051 203.003 877.432 203.267 879.807 208.014C881.612 211.587 885.335 211.371 887.688 210.364C890.772 209.045 895.111 206.264 895.545 203.531C897.236 192.861 896.665 182.48 889.218 173.345C882.731 165.385 875.901 158.864 865.623 157.473C862.996 157.113 859.958 158.073 857.834 156.035C855.138 153.469 858.542 150.928 858.45 148.194C858.016 136.734 857.582 125.369 847.098 116.786C857.491 115.803 866.788 114.748 876.084 114.149C878.894 113.981 882.069 111.487 884.627 114.484C887.619 118.009 891.183 117.769 894.997 116.882C903.335 114.964 903.928 113.693 905.436 104.894C906.053 101.322 904.842 97.4137 906.966 94.129C908.36 94.3208 909.502 93.7214 910.575 92.8583C912.928 92.7624 914.664 90.4367 917.177 90.9162C919.187 91.18 921.06 90.6525 922.864 89.8373C927.456 88.8543 932.435 86.2649 936.57 87.2959C942.28 88.7344 943.262 84.4667 945.661 81.8294C947.374 79.9593 945.387 77.3459 945.775 75.308C947.374 67.1802 946.94 59.0763 944.404 51.452C942.668 46.2253 941.663 40.3272 936.592 36.6349C930.288 32.0556 923.572 31.3123 916.332 32.679C909.251 34.0216 902.124 35.2683 895.089 36.8507C892.759 37.3782 892.256 36.8507 891.731 34.4771C889.972 26.5411 887.711 18.701 885.883 10.765C884.17 3.3565 880.516 2.97289 875.49 5.6582C871.082 8.00784 866.673 8.87096 862.036 9.5183C853.494 10.7171 845.042 12.8749 836.522 13.6901C828.025 14.5052 819.665 15.5123 811.579 18.2215C807.01 19.756 803.653 19.1326 800.34 15.2005C792.94 6.4254 782.798 3.76408 772.222 2.39748C771.583 2.2776 770.943 2.13371 770.303 2.01384C769.915 1.84602 769.504 1.79805 769.093 1.82204C765.804 1.70216 761.92 4.81901 761.875 8.05577C761.875 9.35045 763.656 10.9328 761.623 11.8919C760.23 12.5392 759.453 10.9808 758.426 10.2855C757.786 9.85393 757.032 9.3025 756.324 9.32649C752.898 9.44636 752.829 7.6002 753.697 4.9149C754.725 1.70213 754.063 -0.335772 750.271 0.263623C744.264 0.958905 738.279 -0.767353 732.272 0.263622C727.086 0.407481 721.856 0.095774 716.739 0.838999C713.701 1.29456 710.046 0.335519 707.648 2.78104C704.816 5.65815 701.321 5.96986 698.443 4.86698C692.047 2.42142 686.588 3.69215 680.398 6.13767C671.878 9.51829 662.558 6.52131 653.558 7.64817C644.696 8.75107 635.696 8.46332 626.742 8.8949C611.849 9.61417 596.933 10.4054 582.04 11.1966C570.779 11.796 559.495 12.4193 548.234 13.0427C541.153 13.1626 534.072 13.3783 526.991 13.4263C517.398 13.4743 507.804 13.3544 498.188 13.3304C494.396 14.2655 492.317 9.25454 488.503 10.2615C486.698 8.15163 484.391 7.83992 481.902 8.22356C479.389 8.17559 476.876 8.15163 474.364 8.10366C469.384 8.10365 464.405 8.10368 459.402 8.0797C458.968 7.93584 458.557 7.83995 458.123 7.81596C453.783 7.02477 449.466 7.64815 445.126 8.0797C444.669 8.03175 444.212 7.98381 443.778 7.93584C443.413 7.81596 443.025 7.79198 442.613 7.81596C432.654 6.83296 422.673 7.4803 412.691 7.26454C403.805 6.76103 394.965 7.50425 386.148 8.22355C384.458 7.98377 382.631 7.19261 381.077 7.60017C372.26 9.87788 363.603 6.54523 354.855 7.14463C348.893 7.14463 342.954 7.14463 336.993 7.14463C327.993 5.37043 327.536 5.70609 326.508 14.6011C326.325 16.2315 326.508 18.0057 324.292 18.3413C320.409 18.9168 316.549 19.684 312.643 20.0916C311.889 20.1635 310.976 20.2115 310.13 20.1155C309.514 19.9477 308.92 19.7559 308.303 19.4922C308.075 19.3243 307.869 19.1086 307.755 18.8448C304.9 12.4673 299.28 13.0187 294.141 12.2035C288.476 9.68607 283.177 11.7959 281.235 17.5981C280.733 19.0846 279.956 20.0916 278.951 21.0746C277.078 21.0746 275.182 21.0746 273.309 21.0746C266.228 18.629 258.919 20.9307 251.769 19.9477C253.049 14.9607 251.587 12.9468 246.516 12.8269C245.671 12.8269 244.825 12.8988 244.574 11.9637C244.46 11.5082 244.871 10.765 245.237 10.3094C246.287 8.94281 248.389 7.88788 247.361 5.80197C246.196 3.5003 243.912 3.95584 241.856 4.33944C227.374 4.14764 212.892 3.5003 198.434 4.00378C192.312 4.21957 186.19 3.83596 180.046 4.12368C169.79 4.62716 159.488 4.33947 149.186 4.38741C146.011 3.95586 142.814 3.83596 139.639 4.38741C136.715 3.93187 134.613 4.57918 134.887 8.36736C135.002 9.94978 134.59 11.3164 133.38 12.2754C130.707 14.4572 130.525 17.1185 131.895 20.1155C131.575 20.4032 131.255 20.7149 130.936 21.0026C128.743 20.595 126.619 22.8967 124.38 21.2424C122.85 19.9237 121.479 18.5331 120.2 16.8548C117.687 13.4982 115.129 9.06267 109.83 12.731C109.304 13.0906 108.117 13.0906 107.614 12.731C103.343 9.56618 98.0205 13.5462 93.7719 10.4053C93.5207 10.2135 92.7898 10.4772 92.4472 10.7649C90.5741 12.4193 89.0208 11.9398 86.9194 10.8129C83.4931 8.99073 78.6506 11.4123 79.0846 14.9128C79.7699 20.4992 76.6634 19.1325 73.8995 19.1325C72.666 19.1325 71.4098 19.2764 70.1534 19.3723C63.5521 19.5161 56.9736 18.8448 50.418 18.1255C48.9561 15.1765 47.0602 10.9328 44.1364 11.676C39.8194 12.755 35.2967 12.8269 31.208 14.3853C29.3122 15.1046 27.9188 16.4952 25.7031 15.4642C24.5838 14.9607 23.2819 15.1525 22.0713 15.8238C15.3786 19.5161 10.3305 18.5092 5.41952 12.5152C4.75705 11.7 3.98043 11.2685 2.97537 11.3164C1.92465 11.2445 0.805446 11.0047 0.143031 12.2515C-4.60813 12.9707 -9.38212 13.0187 -14.1789 13.0906C-16.6687 13.1386 -19.4325 12.8269 -21.8537 14.1216C-28.6834 14.6251 -35.5817 14.7209 -42.3429 15.7039C-49.9264 16.8068 -56.9617 13.5701 -64.294 13.3783C-75.6007 13.0906 -86.839 11.724 -98.237 11.9158C-114.044 12.2035 -129.896 8.8229 -145.611 13.2105C-146.022 13.3303 -146.593 13.2105 -146.982 12.9947C-150.591 10.9328 -154.702 11.5801 -158.517 10.6211C-164.684 9.03865 -171.011 11.5322 -177.224 9.3264C-188.303 5.37038 -194.516 11.1006 -198.056 19.0606C-198.97 21.1225 -200.089 21.3862 -201.939 21.7219C-206.508 22.585 -211.373 20.9067 -215.553 22.2254C-223.868 24.8387 -232.319 24.1674 -240.679 25.1984C-241.41 25.0066 -242.803 24.7428 -242.803 24.623C-242.232 18.1015 -247.143 20.1395 -250.204 19.3483C-254.042 19.564 -257.765 18.677 -261.511 18.1255C-263.27 17.1665 -265.211 17.3103 -267.084 17.2624C-271.79 17.1425 -276.518 17.5501 -281.178 17.0466C-288.145 16.2794 -295.111 15.3923 -302.124 15.1045C-308.131 13.8818 -314.139 12.8508 -320.283 13.2105C-322.887 11.2924 -325.902 12.5631 -328.666 12.0356C-336.09 9.49418 -344.084 12.1315 -351.531 9.3743C-352.079 9.1825 -352.924 9.9018 -353.632 10.1895C-354.546 10.2375 -355.46 10.2854 -356.373 10.3333C-365.761 10.1415 -375.218 10.1895 -383.806 5.2265C-387.53 3.66806 -391.413 4.21948 -395.25 4.3154C-397.169 3.93179 -398.151 6.85684 -400.801 5.29843C-404.912 2.90085 -408.065 4.98672 -409.412 10.0217C-409.709 11.1725 -410.509 12.9947 -411.194 11.4842C-413.272 7.0007 -419.189 7.95971 -420.833 3.30841C-423.049 3.30841 -425.264 3.30841 -427.48 3.30841C-428.805 2.27746 -430.107 2.10961 -431.843 2.37335C-436.731 3.1166 -440.797 6.16155 -445.502 7.33636C-449.089 8.72698 -450.71 11.8918 -452.127 15.2724C-453.68 18.9407 -455.21 22.609 -456.763 26.2772C-458.385 26.8047 -458.225 28.6988 -459.139 29.7538C-460.692 31.528 -462.086 34.7647 -464.507 33.9016C-471.679 31.3122 -473.781 36.8746 -476.933 41.3101C-478.692 43.7796 -479.377 48.3111 -484.174 46.4889C-485.202 46.1053 -485.43 47.7117 -486.024 48.4309C-487.874 50.6847 -487.143 53.4179 -487.257 56.0073C-491.141 55.8395 -495.046 55.6956 -498.93 55.5278C-508.569 55.0722 -516.746 58.4528 -523.439 65.7655C-526.18 68.187 -527.665 71.3039 -527.984 75.0201C-530.063 77.0581 -528.967 79.5995 -528.989 81.9491C-530.223 85.9531 -529.926 89.6454 -527.002 92.8342L-526.957 92.7862ZM-3.30613 14.0976C-3.44321 14.2414 -3.53458 14.3613 -3.67161 14.5052C-3.74015 14.3373 -3.85428 14.2174 -3.99137 14.0976L-3.32901 14.0976L-3.30613 14.0976ZM-337.369 14.3853C-337.369 14.3853 -337.369 14.3613 -337.392 14.3373C-337.369 14.3373 -337.346 14.3373 -337.323 14.3134C-337.323 14.3373 -337.346 14.3613 -337.369 14.3853ZM-495.435 227.315C-495.8 227.075 -496.097 226.739 -496.326 226.308C-496.052 226.643 -495.755 226.979 -495.435 227.315Z" fill="#F1D8C2"/>
</g>
<rect y="134" width="320" height="978" fill="#F1D8C2"/>
<defs>
<clipPath id="clip0_704_3494">
<rect width="319.852" height="512.84" fill="white" transform="translate(320 512.84) rotate(-180)"/>
</clipPath>
</defs>
</svg>
