<svg width="72" height="70" viewBox="0 0 72 70" fill="none" xmlns="http://www.w3.org/2000/svg">
<path d="M17.5814 46.1566C17.2281 46.3698 16.8841 46.6007 16.5197 46.7928C15.6117 47.273 14.6969 47.7407 13.7803 48.2066C12.6359 48.788 11.6938 49.5085 11.8141 51.0471C10.6885 49.9719 9.96735 48.7796 9.58332 47.3809C9.10115 45.6207 9.84361 44.3307 11.1741 43.2572C11.2628 43.1856 11.4224 43.1384 11.4062 43.0196C11.3874 42.8822 11.2167 42.8806 11.1015 42.8334C10.4862 42.5823 9.86579 42.3404 9.37765 41.8652C9.03458 41.5315 8.81526 41.1313 8.64799 40.6906C8.52596 40.3696 8.58058 40.2221 8.96034 40.2078C9.45617 40.1884 9.93492 40.0578 10.4111 39.918C12.1589 39.4057 13.0882 38.221 13.3451 36.4768C13.573 34.9306 13.573 33.3709 13.5764 31.8146C13.5849 28.3161 14.5407 25.1176 16.5701 22.2334C17.7034 20.6223 18.8692 19.0332 20.2482 17.6227C21.1469 16.7042 21.3184 15.6526 21.117 14.4856C20.7987 12.6412 19.8642 11.0605 18.841 9.5286C17.7768 7.93439 16.5121 6.51966 14.9145 5.41922C14.7404 5.29957 14.7225 5.18413 14.7942 4.99708C15.3258 3.62616 15.8558 2.25524 16.367 0.876744C16.4754 0.583518 16.623 0.585203 16.8713 0.67789C18.7275 1.36798 20.0033 2.64621 20.7415 4.44096C21.2612 5.70486 21.5983 7.03534 22.1428 8.29166C22.6881 9.54967 23.2804 10.7816 24.1423 11.866C24.4657 12.2721 24.8242 12.6488 25.2492 12.9529C26.3987 13.7762 27.5593 13.8495 28.6901 13.0035C29.9924 12.0295 31.4482 11.8508 32.9903 11.93C36.7205 12.1221 40.1128 13.3717 43.3472 15.137C44.5565 15.7967 45.7299 16.5264 47.0091 17.0564C47.2831 17.1702 47.5741 17.2671 47.8659 17.3134C48.8414 17.4676 49.449 17.1643 49.9354 16.2998C50.2486 15.7436 50.4219 15.1361 50.5618 14.5193C50.584 14.4224 50.5849 14.2868 50.6907 14.2573C50.7999 14.227 50.8708 14.3449 50.9365 14.4191C51.9375 15.5305 52.1483 16.834 51.8803 18.2496C51.8052 18.6439 51.6627 19.018 51.4903 19.3812C51.3239 19.7308 51.393 19.8648 51.7856 19.9305C52.2661 20.0106 52.7192 19.9188 53.1425 19.6778C53.6349 19.3972 54.0505 19.0298 54.4218 18.6093C54.5233 18.4939 54.6249 18.3785 54.7477 18.2386C54.8638 18.4147 54.8374 18.5883 54.8561 18.7442C54.9449 19.4924 54.915 20.2398 54.7384 20.9712C54.3509 22.5755 53.2295 23.5748 51.5765 23.8394C50.741 23.9725 49.9115 23.9346 49.0837 23.7939C48.5282 23.6995 48.4983 23.7315 48.5222 24.302C48.5606 25.2238 49.0906 25.8473 49.7801 26.3832C49.8859 26.4658 50.0959 26.5104 50.0549 26.6655C50.0216 26.7927 49.8211 26.8096 49.6879 26.8517C48.3524 27.2772 46.9835 27.3665 45.5899 27.2612C43.0733 27.0699 40.6419 26.5366 38.3173 25.5558C37.6823 25.2878 37.067 24.9845 36.5302 24.4646C36.4304 24.8025 36.5755 25.0418 36.6992 25.2625C37.0141 25.8262 37.3546 26.3756 37.6875 26.9292C38.5545 28.3734 39.0196 29.9104 38.8455 31.609C38.7679 32.3708 38.115 33.8428 37.5134 34.4579C37.4528 33.9734 37.4186 33.5209 37.329 33.076C36.8375 30.6375 35.2126 29.2278 32.975 28.3701C32.8231 28.3119 32.6225 28.2319 32.5082 28.3979C32.4092 28.542 32.5389 28.6953 32.6311 28.8167C32.7941 29.0332 32.9605 29.2514 33.1482 29.4469C34.1595 30.501 34.3908 31.7337 33.9939 33.0979C33.6014 34.4469 32.8478 35.6316 32.1847 36.8559C31.712 37.7306 31.217 38.5942 30.7041 39.4461C30.0239 40.5743 29.4547 41.7321 29.5162 43.1569C28.2864 42.4525 27.4586 41.5299 27.1181 40.2213C26.9201 39.4621 26.9158 38.6945 27.0114 37.9201C27.0319 37.7516 27.1497 37.4854 26.9927 37.4255C26.8032 37.3531 26.6906 37.6193 26.5796 37.7659C26.2895 38.1485 26.071 38.5757 25.8474 38.9978C25.3098 40.014 24.8071 41.0487 24.1841 42.0186C23.7344 42.7179 23.2343 43.3768 22.584 43.9094C22.1778 44.2422 21.7297 44.495 21.1989 44.5868C21.0172 44.618 20.966 44.5759 20.9873 44.3939C21.0351 43.9945 21.1759 43.6187 21.2757 43.2336C21.3739 42.8553 21.4259 42.4761 21.402 42.0868C21.3978 42.0135 21.4234 41.9208 21.3406 41.8779C21.2459 41.829 21.1998 41.9175 21.1537 41.9739C20.3259 42.9867 19.5024 44.0029 18.6712 45.0132C18.5141 45.2036 18.6567 45.319 18.7505 45.4488C19.3974 46.3394 20.0767 47.2065 20.82 48.0204C21.8415 49.1403 22.7632 50.3494 23.8684 51.3942C25.803 53.2227 27.9331 54.7815 30.3465 55.9502C31.3126 56.4178 32.3272 56.7414 33.3684 56.9874C34.5717 57.2714 35.7323 57.7256 36.9706 57.8629C37.6832 57.9421 38.3966 58.0103 39.1519 58.0879C38.7329 58.253 38.3181 58.2825 37.9085 58.3272C36.1411 58.5193 34.3916 58.355 32.6464 58.071C32.1856 57.996 31.7171 57.8991 31.246 57.9699C30.338 58.1056 29.8029 58.6853 29.4598 59.4773C29.2226 60.0242 29.1065 60.6073 28.9538 61.1785C28.836 61.6184 28.7541 61.6479 28.3709 61.3926C27.1207 60.5575 25.9652 59.6197 25.0682 58.4038C24.2208 57.2545 23.8044 55.9637 23.7574 54.5498C23.7472 54.254 23.7472 53.9583 23.6909 53.6642C23.6269 53.3347 23.4451 53.2665 23.1541 53.3937C22.5849 53.644 22.159 54.0476 21.8552 54.5801C21.4353 55.3165 21.2817 56.1238 21.2228 56.9529C21.1563 57.8932 21.1981 58.8336 21.2553 59.7731C21.2715 60.0385 21.2792 60.3048 21.2911 60.5702C21.123 60.5929 21.0786 60.48 21.0146 60.4101C19.5578 58.8117 18.7574 56.936 18.5901 54.795C18.5534 54.3307 18.5602 54.3518 18.1105 54.4621C16.582 54.8379 15.1927 54.5363 13.9553 53.574C13.8034 53.4561 13.672 53.3061 13.5533 53.1536C13.4211 52.9834 13.2128 52.771 13.311 52.5857C13.3809 52.4542 13.6677 52.5857 13.8554 52.6067C14.7003 52.7028 15.3779 52.3438 15.7278 51.5872C15.9821 51.0361 16.169 50.4606 16.3465 49.8817C16.728 48.6431 17.0395 47.3809 17.6565 46.2215C17.6317 46.2004 17.607 46.1793 17.5822 46.1583L17.5814 46.1566Z" fill="white"/>
<path d="M60.7591 49.0804C59.6104 48.6886 58.5573 48.2689 57.4479 48.0246C57.1688 47.9631 56.8846 47.9024 56.6004 47.8931C56.0824 47.8754 55.8674 48.1392 56.0125 48.6279C56.1439 49.0711 56.3299 49.4983 56.4946 49.9314C56.7745 50.6687 57.0263 51.4093 57.0067 52.214C56.9879 53.0254 56.6909 53.713 56.1388 54.3079C55.945 54.5169 55.864 54.4629 55.7701 54.2278C55.6557 53.9414 55.5277 53.6566 55.3698 53.3911C54.8561 52.5275 54.0181 52.3143 53.1288 52.8005C52.1867 53.3153 51.3802 54.0155 50.5166 54.6373C49.3679 55.4648 48.2585 56.3672 46.922 56.8854C45.2477 57.5351 43.5545 58.1552 41.7061 58.0836C41.4594 58.0743 41.2128 58.0423 40.9594 57.9926C42.1123 57.8898 43.1842 57.5258 44.239 57.0826C45.1163 56.7135 45.9628 56.3074 46.7736 55.8001C47.9828 55.0443 49.123 54.2051 50.1035 53.1872C51.3222 51.9233 52.336 50.5145 53.0571 48.895C53.9814 46.8205 54.4635 44.65 54.781 42.4221C55.0327 40.6543 55.1556 38.8882 54.9926 37.1103C54.74 34.3424 54.0223 31.6941 52.8446 29.168C52.3258 28.0549 51.7668 26.9645 50.9765 26.0082C50.945 25.9703 50.927 25.9222 50.8895 25.8557C51.0644 25.8194 51.1865 25.9012 51.3111 25.9492C52.8045 26.5171 53.8883 27.5813 54.8356 28.8031C55.4304 29.5699 55.9834 30.3687 56.5936 31.1228C57.1014 31.7505 57.6817 32.2999 58.5266 32.4903C59.3416 32.674 60.0729 32.4524 60.794 32.1162C60.9383 32.0488 61.0919 31.8677 61.2523 31.9949C61.4315 32.1364 61.3957 32.3631 61.3488 32.5712C60.905 34.5244 59.6061 35.6754 57.7466 36.2846C57.0997 36.4969 57.104 36.4666 57.5784 36.9587C58.7066 38.1274 59.5745 39.4401 59.799 41.0824C59.9304 42.0438 59.8032 42.99 59.5242 43.9093C59.3219 44.5775 59.3381 45.2271 59.508 45.8903C59.7555 46.8576 60.1813 47.7558 60.5995 48.6574C60.6524 48.772 60.6882 48.8942 60.7565 49.0795L60.7591 49.0804Z" fill="white"/>
<path d="M60.014 7.79111C59.979 8.61939 59.7469 9.32549 59.6641 10.0543C59.6504 10.1757 59.56 10.3223 59.705 10.4074C59.8561 10.4959 59.9372 10.3442 60.0285 10.2616C60.3553 9.96671 60.6737 9.66084 61.0048 9.37099C61.3922 9.03142 61.8377 9.02468 62.2046 9.33729C62.6271 9.69708 62.6791 10.051 62.3847 10.5287C62.1406 10.9239 61.7728 11.2003 61.4059 11.4623C60.7667 11.9182 60.2137 12.4583 59.6888 13.0329C59.5224 13.2149 59.35 13.3902 59.1324 13.5149C58.4309 13.9168 57.685 13.541 57.5963 12.7363C57.5434 12.2552 57.6415 11.7876 57.7448 11.3216C57.8455 10.8691 57.9522 10.4175 57.9795 9.95323C57.9863 9.83189 58.0486 9.67685 57.8856 9.6145C57.7482 9.56226 57.6825 9.69623 57.604 9.77628C57.2857 10.0982 56.9818 10.4369 56.6132 10.7065C56.3153 10.9256 55.9893 11.0427 55.6249 10.8978C55.0566 10.6711 54.8936 10.1597 55.2145 9.63388C55.4397 9.26398 55.7538 8.9657 56.0994 8.71544C56.7881 8.21578 57.3505 7.59141 57.9479 6.9999C58.1032 6.8457 58.2662 6.68982 58.4523 6.57607C59.1341 6.15983 59.8023 6.45389 59.9517 7.23078C59.9926 7.4448 59.9995 7.66472 60.0123 7.79195L60.014 7.79111Z" fill="white"/>
<path d="M71.9164 32.5898C71.9181 33.2159 71.9011 33.7467 71.791 34.2632C71.4598 35.8187 69.841 36.7556 68.2118 36.3731C67.1698 36.1279 66.6134 35.4108 66.278 34.4815C65.9921 33.6902 65.8547 32.8628 65.7395 32.0337C65.6499 31.3891 65.9076 31.0209 66.5639 30.8347C67.2321 30.6451 67.9259 30.6097 68.6138 30.5591C69.0712 30.5254 69.5184 30.4504 69.9638 30.346C70.1661 30.2979 70.3718 30.2507 70.5783 30.2347C71.1961 30.1867 71.5674 30.4538 71.7304 31.0462C71.8789 31.5837 71.936 32.1323 71.9164 32.5907V32.5898ZM69.7061 32.1786C69.1634 32.246 68.6121 32.2764 68.0795 32.391C67.3823 32.5418 67.1314 33.2058 67.5103 33.8032C67.6853 34.0778 67.9071 34.3104 68.1964 34.4781C68.7648 34.8067 69.5388 34.7165 70.0423 34.254C70.5254 33.8107 70.6235 33.1704 70.3248 32.5536C70.1951 32.2856 70.0074 32.155 69.7061 32.1786Z" fill="white"/>
<path d="M65.2863 54.7149C63.5633 54.7107 62.1492 53.2875 62.1526 51.5627C62.156 49.9457 63.6614 48.6338 65.503 48.6414C67.2133 48.6481 68.5488 50.0401 68.5488 51.8172C68.5488 53.4459 67.116 54.7199 65.2871 54.7157L65.2863 54.7149ZM63.9063 51.8113C63.8713 52.9294 64.834 53.6001 65.8589 53.1552C66.446 52.8999 66.6935 52.3935 66.7362 51.7927C66.778 51.2096 66.615 50.6914 66.1107 50.3317C65.899 50.1808 65.6481 50.1657 65.3964 50.1893C64.5617 50.2685 63.9328 50.9543 63.9063 51.8113Z" fill="white"/>
<path d="M67.1033 40.0384C67.7817 40.062 68.2912 40.1758 68.7853 40.3443C69.5892 40.6182 70.4102 40.817 71.2474 40.9645C71.9284 41.0841 72.0803 41.2863 71.9651 41.9453C71.7816 42.9918 71.4983 44.013 70.8138 44.8657C69.9152 45.9847 68.6974 46.0437 67.6904 45.0064C67.3482 44.6542 66.9915 44.5051 66.505 44.607C66.1731 44.677 65.8308 44.6744 65.4938 44.5986C65.2352 44.5405 65.1413 44.388 65.236 44.1428C65.3683 43.8032 65.527 43.483 65.8803 43.3027C66.2166 43.1316 66.5485 42.9513 66.8771 42.766C67.122 42.6278 67.3431 42.4626 67.32 42.1399C67.2961 41.818 67.087 41.6377 66.8088 41.5147C66.6185 41.4304 66.4257 41.3512 66.2388 41.2594C65.9751 41.1305 65.9341 40.9358 66.0681 40.683C66.3207 40.2053 66.7107 39.9887 67.1041 40.0393L67.1033 40.0384ZM68.8476 43.0162C68.8399 43.5597 68.997 43.7779 69.3989 43.8167C69.7394 43.8487 69.9971 43.6667 70.1226 43.3895C70.2711 43.0609 70.4511 42.7095 70.2702 42.3278C70.2455 42.2747 70.1832 42.2225 70.126 42.2031C69.4364 41.9587 68.9739 41.8728 68.8689 42.7719C68.857 42.8738 68.8519 42.9766 68.8485 43.0171L68.8476 43.0162Z" fill="white"/>
<path d="M44.1451 40.7276C43.7815 39.1756 43.6057 37.6496 44.0503 36.1245C44.4548 34.7384 45.4772 33.975 46.8205 33.6076C48.4291 33.1669 49.9089 33.6135 51.3247 34.3643C51.3913 34.3997 51.4851 34.4241 51.4809 34.5143C51.4766 34.6086 51.3751 34.6162 51.3068 34.6457C50.4235 35.0274 49.5676 35.4614 48.7116 35.8987C47.1704 36.6857 46.0311 37.8712 45.1034 39.2859C44.7868 39.7688 44.4642 40.2473 44.1442 40.7276H44.1451Z" fill="white"/>
<path d="M40.8987 6.17838C40.292 6.15142 39.745 6.16575 39.2013 6.05958C38.7158 5.96436 38.4503 5.6922 38.3283 5.2372C38.132 4.50582 38.2549 3.77528 38.3445 3.05064C38.4111 2.51053 38.4307 1.97379 38.4222 1.43284C38.406 0.432669 38.8352 -0.0155959 39.8593 0.00041359C40.705 0.0138953 41.5448 0.147026 42.3956 0.134387C42.8368 0.127646 43.0305 0.396437 43.0476 0.883462C43.0596 1.22135 42.9034 1.35953 42.4323 1.42273C41.8119 1.5053 41.1915 1.58367 40.5719 1.6713C40.4362 1.69068 40.2587 1.69152 40.2416 1.87858C40.2263 2.053 40.3918 2.09765 40.513 2.17012C40.9346 2.42374 41.3903 2.35128 41.8469 2.32431C42.3478 2.29398 42.6388 2.52991 42.6593 2.94953C42.6755 3.2891 42.3111 3.65731 41.8639 3.72725C41.3877 3.8014 40.9073 3.85027 40.4302 3.91852C40.2962 3.9379 40.1111 3.92442 40.094 4.11401C40.0778 4.29011 40.2442 4.33392 40.3731 4.39291C40.746 4.56059 41.142 4.62799 41.5482 4.6617C41.9109 4.69203 42.2795 4.69287 42.6294 4.81337C42.8872 4.90184 43.1824 4.95577 43.2021 5.30376C43.2174 5.56665 42.8923 5.9492 42.5876 6.02503C42.0133 6.16827 41.4244 6.16153 40.8987 6.17923V6.17838Z" fill="white"/>
<path d="M49.9704 8.55628C48.9497 8.39029 47.9538 7.81226 47.207 6.83232C47.0338 6.60481 46.9988 6.32928 47.2352 6.09082C47.4835 5.83889 47.7763 5.75968 48.0835 5.95348C48.5332 6.23744 48.9642 6.55004 49.4054 6.84748C49.5129 6.91995 49.623 6.99325 49.7416 7.04381C50.0941 7.19632 50.3484 7.00842 50.2955 6.63262C50.2528 6.32591 50.0711 6.0883 49.8611 5.87175C49.5812 5.58358 49.2893 5.30552 49.0197 5.00892C48.3497 4.27333 48.4633 3.38101 49.3218 2.88303C49.7041 2.58138 50.3143 2.39095 50.8127 2.43814C51.4536 2.49965 51.9238 1.91572 52.5741 1.84073C53.0665 1.78428 53.4932 1.98903 53.8926 2.24771C54.0001 2.31764 54.111 2.41202 54.0743 2.562C54.0419 2.69345 53.9148 2.72799 53.7996 2.74737C53.4403 2.80804 53.0776 2.85522 52.7183 2.91673C52.586 2.93948 52.3966 2.89567 52.3573 3.07683C52.3215 3.24535 52.4981 3.30855 52.6039 3.39365C52.8463 3.58998 53.1023 3.77029 53.2781 4.03318C53.5068 4.3736 53.4548 4.59773 53.0836 4.88843C52.6372 5.23895 52.5143 5.23811 52.19 4.93646C51.8666 4.63565 51.4988 4.39045 51.1267 4.15199C50.9475 4.0374 50.7512 3.99443 50.5874 4.15368C50.415 4.32136 50.4423 4.53032 50.5566 4.72412C50.7307 5.01819 50.9816 5.24401 51.2436 5.45887C51.6149 5.76305 51.8973 6.122 51.9997 6.59892C52.2344 7.69093 51.4109 8.5824 49.9721 8.55713L49.9704 8.55628Z" fill="white"/>
<path d="M49.74 44.4116C48.9676 46.835 47.8488 49.0367 45.6394 50.5205C44.5334 51.2628 43.2584 51.5148 41.9655 51.5771C39.6425 51.6892 37.4263 51.246 35.3866 50.0899C35.2655 50.0208 35.152 49.9391 34.9454 49.8051C35.53 49.8953 36.0079 49.9762 36.4884 50.0419C38.918 50.3747 41.2956 50.1683 43.6236 49.3906C45.0437 48.9162 46.1949 48.0449 47.2719 47.0566C48.162 46.2401 48.9412 45.3225 49.74 44.4125V44.4116Z" fill="white"/>
<path d="M62.1885 58.9895C62.1305 59.9021 61.5075 60.7775 60.7471 61.5789C60.5252 61.8123 60.2786 62.028 59.9697 62.156C59.6932 62.2698 59.4201 62.3043 59.1359 62.1805C58.5479 61.9252 58.4498 61.4988 58.8824 61.0269C59.2921 60.5804 59.8383 60.2602 60.1404 59.7116C60.1967 59.6097 60.2615 59.5119 60.3102 59.4075C60.7335 58.489 60.3989 57.7678 59.4133 57.5032C58.8176 57.3431 58.2697 57.4602 57.8072 57.8697C57.4231 58.2093 57.4419 58.6407 57.8328 58.9626C58.4933 59.506 58.4626 60.0403 57.7525 60.5197C57.5537 60.6545 57.3779 60.6655 57.1825 60.5155C56.7882 60.213 56.4289 59.8759 56.1473 59.4681C55.7069 58.8303 55.7496 58.1848 56.1499 57.5453C57.1808 55.9014 59.2477 55.4127 60.8973 56.4533C61.7311 56.9791 62.1859 57.7484 62.1894 58.9887L62.1885 58.9895Z" fill="white"/>
<path d="M28.7019 50.1649C29.1252 48.36 29.6193 46.5762 30.803 45.1017C31.8663 43.7762 33.2599 43.0769 35.0247 43.4417C35.8986 43.622 36.5719 44.1529 37.1343 44.8253C37.3477 45.0797 37.1258 45.0823 36.9637 45.1278C35.7314 45.469 34.5332 45.8996 33.3717 46.4304C31.9568 47.0767 30.8858 48.1561 29.7738 49.1858C29.4239 49.5102 29.0697 49.8295 28.7019 50.1657V50.1649Z" fill="white"/>
<path d="M53.1015 66.0049C53.1015 66.1338 53.1101 66.2627 53.0998 66.3908C53.0171 67.5047 52.243 67.937 51.2078 67.4584C50.5695 67.1635 50.0677 66.6874 49.5574 66.2324C49.0607 65.7892 48.5282 65.405 47.9598 65.0612C47.6594 64.8792 47.3786 64.6685 47.1619 64.3871C46.9903 64.1646 46.9921 63.9877 47.2404 63.8015C47.5707 63.5546 47.8992 63.488 48.2995 63.6178C49.5386 64.018 50.2674 63.7079 50.8801 62.5713C51.1302 62.107 51.3009 61.5981 51.6491 61.186C51.8052 61.0015 51.9725 60.8423 52.2464 60.9054C52.511 60.9661 52.6074 61.1641 52.6842 61.3984C52.8037 61.7615 52.7943 62.1365 52.8131 62.5072C52.8711 63.6776 53.0042 64.8404 53.1024 66.0057L53.1015 66.0049ZM51.8035 65.2567C51.7924 65.1598 51.7941 65.0013 51.7532 64.8547C51.6764 64.58 51.4775 64.4292 51.1933 64.5168C50.9638 64.5876 50.6967 64.6955 50.6327 64.9466C50.5738 65.1749 50.7538 65.351 50.9399 65.4884C51.0022 65.5347 51.0602 65.5878 51.1174 65.64C51.2582 65.769 51.3819 65.9611 51.6124 65.8583C51.8539 65.7496 51.7941 65.5153 51.8044 65.2575L51.8035 65.2567Z" fill="white"/>
<path d="M68.3134 17.2375C68.2929 17.9461 67.8688 18.4627 67.4361 18.959C66.773 19.7181 66.0723 20.4462 65.5603 21.3233C65.4246 21.5559 65.2369 21.7581 65.0141 21.9232C64.7897 22.0892 64.6113 22.0951 64.4185 21.8516C64.1522 21.5154 64.0873 21.1826 64.2367 20.7748C64.6429 19.6684 64.3416 18.8932 63.3014 18.3093C63.0522 18.1694 62.7927 18.0473 62.5376 17.9183C62.4215 17.8594 62.2961 17.8155 62.1885 17.7456C61.8702 17.5375 61.423 17.3816 61.5152 16.9038C61.6082 16.421 62.081 16.4193 62.4582 16.3856C63.2493 16.3157 64.0455 16.2972 64.8383 16.239C65.3836 16.1994 65.9264 16.1194 66.4717 16.0756C66.8233 16.0469 67.1758 16.0621 67.5197 16.159C68.094 16.3208 68.3296 16.6426 68.3142 17.2375H68.3134ZM65.964 17.3521C65.7813 17.3631 65.597 17.3521 65.4255 17.4271C65.1694 17.5392 65.0559 17.7591 65.178 17.9891C65.2889 18.1981 65.3299 18.5722 65.7054 18.4896C66.115 18.3995 66.313 18.0329 66.5221 17.7203C66.6177 17.5771 66.4905 17.4229 66.3113 17.3816C66.1995 17.3563 66.08 17.3597 65.964 17.3504V17.3521Z" fill="white"/>
<path d="M30.0554 6.36799C29.4 6.35114 29.1517 6.17588 28.9008 5.52539C28.5569 4.63644 28.4783 3.69778 28.387 2.76418C28.3324 2.20132 28.3085 1.63509 28.2735 1.07054C28.2633 0.902022 28.2803 0.740241 28.3665 0.585202C28.6994 -0.013047 29.1483 -0.0425377 29.5203 0.530433C29.9931 1.25929 30.2688 2.05555 30.2884 2.92764C30.2969 3.3026 30.3251 3.67419 30.4335 4.03398C30.617 4.64066 30.972 4.83867 31.5907 4.67942C31.8552 4.61117 32.1113 4.51005 32.3767 4.44517C32.9203 4.31288 33.2207 4.45191 33.3939 4.89512C33.5142 5.20436 33.3581 5.50348 32.8989 5.74278C32.3033 6.0537 31.6479 6.17588 30.9882 6.26857C30.6793 6.31154 30.3669 6.33597 30.0563 6.36884L30.0554 6.36799Z" fill="white"/>
<path d="M7.37984 57.434C7.42763 56.8366 7.81336 56.3639 8.43549 56.0833C9.03116 55.8136 9.59867 55.9383 10.0612 56.3698C10.4282 56.7119 10.7337 57.1188 11.0725 57.4913C11.1758 57.6042 11.1595 57.6783 11.0486 57.771C10.3232 58.376 9.60038 58.9852 8.87755 59.5936C8.79136 59.666 8.71114 59.7267 8.61897 59.607C8.24263 59.1183 7.75021 58.7156 7.49675 58.1367C7.41397 57.9463 7.37472 57.7449 7.37984 57.434ZM7.91236 57.6311C7.91492 57.9657 8.37063 58.7232 8.65823 58.9018C8.78965 58.9835 8.85195 58.8891 8.92449 58.8302C9.23427 58.5757 9.53723 58.3137 9.84445 58.0567C10.2905 57.6842 10.3093 57.2893 9.90078 56.872C9.56198 56.5248 9.10626 56.4119 8.69151 56.5711C8.24348 56.743 7.90809 57.1989 7.9115 57.632L7.91236 57.6311Z" fill="white"/>
<path d="M3.06673 26.4136C4.02253 26.4119 4.7684 27.1163 4.76157 28.0145C4.75389 28.986 4.01912 29.7553 3.09574 29.7604C2.14249 29.7655 1.40601 29.0636 1.40772 28.1519C1.40857 27.177 2.13566 26.4153 3.06757 26.4136H3.06673ZM4.23503 28.0861C4.24527 27.4508 3.73749 26.9663 3.05136 26.9587C2.44033 26.952 1.94877 27.4357 1.93085 28.0626C1.91208 28.7046 2.41473 29.2009 3.09147 29.2077C3.72811 29.2144 4.22479 28.7282 4.23503 28.0853V28.0861Z" fill="white"/>
<path d="M28.201 66.5957C28.5936 66.503 28.8376 66.6209 28.9605 66.9723C29.1159 67.4147 29.3582 67.7281 29.907 67.6826C30.087 67.6675 30.1698 67.6396 30.1749 67.456C30.1783 67.3287 30.2261 67.2015 30.2244 67.0743C30.221 66.8383 30.3149 66.7684 30.5555 66.7869C30.8227 66.808 30.797 66.9639 30.7774 67.1341C30.6742 68.0264 30.5632 68.9187 30.4668 69.8119C30.4472 69.9956 30.3558 70.0133 30.2056 69.9939C29.8182 69.9459 29.4299 69.9113 29.0433 69.8599C28.4809 69.7849 28.0849 69.4673 27.9851 69.0257C27.8682 68.5109 28.0534 68.0626 28.5586 67.7534C28.7386 67.643 28.7122 67.5562 28.6362 67.4164C28.4895 67.1476 28.3486 66.8746 28.201 66.5948V66.5957ZM29.5639 69.4445C29.901 69.5473 29.9701 69.351 29.9931 69.0855C30.0128 68.8564 30.0461 68.628 30.0725 68.3988C30.0862 68.2767 30.087 68.1688 29.9155 68.1545C29.645 68.1317 29.377 68.0576 29.1031 68.0955C28.7378 68.1452 28.5543 68.3761 28.5287 68.719C28.5048 69.0426 28.6789 69.2574 28.9921 69.3425C29.1782 69.3931 29.3736 69.4116 29.5647 69.4437L29.5639 69.4445Z" fill="white"/>
<path d="M3.31506 34.4713C3.41576 34.9069 3.28946 35.1707 2.96005 35.3754C2.66306 35.5599 2.40192 35.7992 2.11262 35.9973C1.93084 36.122 1.96242 36.2037 2.08958 36.357C2.31744 36.6334 2.58881 36.7413 2.94041 36.7084C3.10939 36.6924 3.29031 36.6857 3.26129 36.9561C3.23825 37.1744 3.15633 37.2721 2.91652 37.2612C2.03069 37.2207 1.14486 37.1895 0.258182 37.1693C0.045686 37.1643 -0.00551958 37.0825 0.00045421 36.8904C0.006428 36.6975 0.0721397 36.6132 0.277809 36.6183C0.705362 36.6284 1.13292 36.6216 1.59802 36.6216C1.4666 36.3326 1.22252 36.1759 1.03307 35.9779C0.791558 35.7251 0.546631 35.4732 0.284637 35.2423C0.0380052 35.024 0.0516586 34.7898 0.182229 34.4612C0.567965 34.8471 0.928957 35.1976 1.27458 35.5616C1.44014 35.736 1.56901 35.7453 1.76529 35.5945C2.2577 35.217 2.76888 34.8639 3.3142 34.4713H3.31506Z" fill="white"/>
<path d="M13.3979 63.2833C13.4688 63.328 13.5473 63.3726 13.6215 63.4232C13.9211 63.6288 14.2326 63.8201 14.5133 64.0476C14.748 64.238 14.8683 64.1209 14.9571 63.9279C15.0399 63.7476 15.4179 63.5942 15.0313 63.344C14.748 63.1611 14.4817 62.953 14.1984 62.7693C14.0602 62.6792 14.0303 62.6042 14.1344 62.4651C14.2334 62.332 14.3136 62.2612 14.4783 62.3843C14.748 62.5856 15.0356 62.7651 15.307 62.964C15.4572 63.0735 15.5528 63.0946 15.685 62.9202C16.0887 62.3885 16.0972 62.3944 15.5493 62.0118C15.3155 61.8484 15.0834 61.6824 14.8444 61.5256C14.6994 61.4296 14.6072 61.3504 14.7412 61.1625C14.8649 60.9881 14.952 60.9999 15.1107 61.1153C15.5835 61.4574 16.0639 61.7894 16.5521 62.1104C16.7441 62.2368 16.7851 62.3388 16.6408 62.5368C16.1143 63.2555 15.5997 63.9835 15.0911 64.7141C14.9793 64.8742 14.8974 64.9095 14.7267 64.7857C14.2436 64.4352 13.747 64.104 13.2588 63.7611C13.1846 63.7088 13.0455 63.6692 13.1539 63.531C13.2221 63.4434 13.2546 63.3204 13.3979 63.285V63.2833Z" fill="white"/>
<path d="M37.3255 69.784C36.5882 69.7883 36.141 69.4453 36.0497 68.8816C35.9515 68.28 36.2434 67.7913 36.8468 67.5958C37.0797 67.52 37.3289 67.4888 37.573 67.4568C37.8154 67.4247 37.969 67.3573 37.8691 67.07C37.8324 66.963 37.858 66.8358 37.8248 66.7271C37.7445 66.465 37.9391 66.4667 38.0978 66.4246C38.3052 66.3698 38.3598 66.4617 38.3854 66.6563C38.4989 67.509 38.6244 68.3609 38.7575 69.2111C38.7968 69.4605 38.7464 69.5961 38.464 69.6248C38.0501 69.6669 37.6396 69.7394 37.3247 69.7849L37.3255 69.784ZM37.3178 69.2759C38.1209 69.2684 38.1678 69.2279 38.0893 68.6103C38.021 68.0671 37.7084 67.8677 37.1514 68.012C36.7529 68.1148 36.5455 68.387 36.5984 68.7342C36.6573 69.1159 36.8749 69.2802 37.317 69.2759H37.3178Z" fill="white"/>
<path d="M1.09787 43.5892C1.20028 44.0746 1.295 44.5388 1.39826 45.0014C1.43666 45.1733 1.43155 45.2921 1.21564 45.3393C0.992047 45.3882 0.957056 45.2761 0.921214 45.1017C0.791497 44.4723 0.645566 43.8462 0.510729 43.2185C0.485127 43.1005 0.4032 42.9581 0.557665 42.8722C0.701036 42.7921 0.849526 42.809 1.00399 42.8848C1.621 43.1898 2.24227 43.4856 2.8627 43.783C3.04788 43.8715 3.23478 43.9558 3.5053 44.0813C3.38753 43.5193 3.29195 43.034 3.18187 42.552C3.13749 42.3599 3.09908 42.22 3.37217 42.1593C3.6683 42.0928 3.62734 42.3076 3.65892 42.4467C3.804 43.0862 3.93883 43.7274 4.07025 44.3695C4.09329 44.4832 4.21789 44.6265 4.06001 44.7149C3.91152 44.7975 3.74767 44.7883 3.57784 44.704C2.86867 44.3518 2.15267 44.0114 1.43666 43.6718C1.3462 43.6288 1.26257 43.5513 1.09787 43.5901V43.5892Z" fill="white"/>
<path d="M20.8609 67.3802C21.4029 67.5875 21.8603 67.7695 22.3237 67.9355C22.4909 67.9953 22.5549 68.056 22.4798 68.2397C22.4065 68.4217 22.3254 68.4672 22.1334 68.3913C21.5172 68.147 20.8925 67.9237 20.2747 67.6827C20.1774 67.6448 20.0016 67.6524 20.0135 67.5024C20.0246 67.3515 20.104 67.2159 20.2567 67.1291C20.7082 66.8713 21.1537 66.6042 21.6 66.3387C21.9413 66.1357 22.281 65.9309 22.6992 65.6798C22.1581 65.4759 21.7007 65.3091 21.2484 65.1288C21.1008 65.0698 20.872 65.0723 20.9881 64.7766C21.0973 64.4993 21.2416 64.6097 21.4097 64.6738C22.0054 64.8987 22.6053 65.1144 23.1993 65.3436C23.323 65.3917 23.5312 65.3832 23.5355 65.5501C23.5406 65.7304 23.4143 65.8694 23.2394 65.9688C22.5968 66.3362 21.9618 66.7171 21.3243 67.0937C21.1921 67.1721 21.0623 67.2555 20.8592 67.381L20.8609 67.3802Z" fill="white"/>
<path d="M13.1846 15.1327C13.1009 15.2296 13.0634 15.281 13.0181 15.3249C12.5667 15.7723 12.1093 16.213 11.6655 16.6671C11.5238 16.8121 11.4513 16.7682 11.3284 16.6435C10.7029 16.0048 10.0714 15.3712 9.4296 14.7477C9.26745 14.5901 9.28025 14.5025 9.43813 14.3559C9.85629 13.9683 10.26 13.5647 10.6645 13.1627C10.7805 13.0473 10.859 12.9453 11.0374 13.1122C11.2345 13.2967 11.1108 13.3843 10.9862 13.5048C10.7157 13.766 10.4579 14.0407 10.1797 14.2935C10.0167 14.4418 10.0022 14.5547 10.178 14.6946C10.2685 14.7671 10.3513 14.853 10.4229 14.944C10.5433 15.099 10.644 15.0754 10.7694 14.9457C10.9939 14.7123 11.2294 14.489 11.4607 14.2615C11.5767 14.1477 11.6612 13.9986 11.8567 14.2025C12.0538 14.4081 11.8874 14.4881 11.7756 14.6002C11.5563 14.821 11.3395 15.0443 11.1099 15.2541C10.9649 15.3864 10.9341 15.4951 11.1031 15.6257C11.1748 15.6804 11.2422 15.7453 11.296 15.8169C11.4786 16.0613 11.6365 16.0596 11.843 15.8245C12.099 15.5338 12.3909 15.2726 12.6699 15.0021C12.7314 14.9423 12.7903 14.8471 12.8987 14.9179C12.9951 14.9811 13.0847 15.0552 13.1854 15.1311L13.1846 15.1327Z" fill="white"/>
<path d="M4.8955 50.4605C4.9467 50.7251 5.00217 50.9897 5.04825 51.2551C5.1481 51.8314 4.97571 52.2005 4.5328 52.3741C4.09501 52.5451 3.65124 52.3707 3.3389 51.9005C3.12725 51.582 3.01375 51.2306 2.98303 50.8515C2.96937 50.6838 3.0257 50.5852 3.21089 50.5641C3.39949 50.5422 3.45922 50.6172 3.47032 50.7967C3.48909 51.0941 3.56163 51.3815 3.73914 51.6317C3.87739 51.8272 4.05234 51.9528 4.30238 51.8643C4.55243 51.7758 4.5567 51.5567 4.52768 51.3469C4.47904 51.004 4.37663 50.6703 4.37663 50.3181C4.37663 49.9718 4.51829 49.7215 4.82807 49.5699C5.1481 49.4131 5.46386 49.435 5.74633 49.6558C6.26861 50.0636 6.43332 50.6374 6.4666 51.2593C6.47513 51.4177 6.42393 51.5517 6.19863 51.5534C5.96395 51.555 5.94859 51.4329 5.95883 51.261C5.98102 50.8734 5.87434 50.5203 5.63539 50.2136C5.51933 50.0653 5.36913 49.9617 5.1609 50.0291C4.95011 50.0973 4.89806 50.2608 4.8955 50.4613V50.4605Z" fill="white"/>
<path d="M8.43035 20.6594C8.39877 20.7133 8.36805 20.7698 8.33391 20.8246C8.03522 21.3065 7.72715 21.7834 7.43955 22.2722C7.33202 22.455 7.24327 22.4499 7.07686 22.3463C6.32757 21.8812 5.57231 21.427 4.81535 20.9745C4.65576 20.8793 4.54055 20.8145 4.68649 20.5987C4.81279 20.4117 4.89642 20.3502 5.11062 20.4867C5.70032 20.8633 6.31306 21.2054 6.90106 21.5854C7.14001 21.7396 7.25351 21.6916 7.37896 21.4624C7.5522 21.1464 7.75275 20.8456 7.94562 20.5406C7.99853 20.4572 8.05314 20.3426 8.18542 20.4336C8.27588 20.4959 8.41157 20.5145 8.4312 20.6594H8.43035Z" fill="white"/>
</svg>
